%TF.GenerationSoftware,KiCad,Pcbnew,(5.99.0-10506-gb986797469)*%
%TF.CreationDate,2021-06-03T16:00:04+02:00*%
%TF.ProjectId,quadkey,71756164-6b65-4792-9e6b-696361645f70,rev?*%
%TF.SameCoordinates,Original*%
%TF.FileFunction,Profile,NP*%
%FSLAX46Y46*%
G04 Gerber Fmt 4.6, Leading zero omitted, Abs format (unit mm)*
G04 Created by KiCad (PCBNEW (5.99.0-10506-gb986797469)) date 2021-06-03 16:00:04*
%MOMM*%
%LPD*%
G01*
G04 APERTURE LIST*
%TA.AperFunction,Profile*%
%ADD10C,0.200000*%
%TD*%
G04 APERTURE END LIST*
D10*
X88625000Y-47275000D02*
X88625000Y-49775000D01*
X117725000Y-118775000D02*
X108025000Y-118775000D01*
X124125000Y-55775000D02*
X124125000Y-49775000D01*
X88625000Y-49775000D02*
X87125000Y-49775000D01*
X122525000Y-119875000D02*
X122525000Y-118775000D01*
X124125000Y-118775000D02*
X122525000Y-118775000D01*
X122625000Y-47275000D02*
X122625000Y-49775000D01*
X124125000Y-118775000D02*
X124125000Y-90775000D01*
X87125000Y-55775000D02*
X87125000Y-49775000D01*
X87125000Y-90775000D02*
X84575000Y-90775000D01*
X108025000Y-118775000D02*
X108025000Y-119875000D01*
X87125000Y-55775000D02*
X84575000Y-55775000D01*
X117725000Y-118775000D02*
X117725000Y-119875000D01*
X96225000Y-80275000D02*
G75*
G03*
X96225000Y-80275000I-2600000J0D01*
G01*
X125625000Y-85775000D02*
X125625000Y-60775000D01*
X103225000Y-118775000D02*
X93525000Y-118775000D01*
X88725000Y-118775000D02*
X87125000Y-118775000D01*
X85625000Y-60775000D02*
X84575000Y-60775000D01*
X124125000Y-49775000D02*
X122625000Y-49775000D01*
X126675000Y-90775000D02*
X124125000Y-90775000D01*
X126675000Y-60775000D02*
X125625000Y-60775000D01*
X126675000Y-85775000D02*
X125625000Y-85775000D01*
X108025000Y-119875000D02*
X103225000Y-119875000D01*
X103225000Y-118775000D02*
X103225000Y-119875000D01*
X93525000Y-118775000D02*
X93525000Y-119875000D01*
X84575000Y-55775000D02*
X84575000Y-60775000D01*
X126675000Y-85775000D02*
X126675000Y-90775000D01*
X122525000Y-119875000D02*
X117725000Y-119875000D01*
X126675000Y-55775000D02*
X124125000Y-55775000D01*
X93525000Y-119875000D02*
X88725000Y-119875000D01*
X126675000Y-55775000D02*
X126675000Y-60775000D01*
X84575000Y-85775000D02*
X84575000Y-90775000D01*
X88725000Y-118775000D02*
X88725000Y-119875000D01*
X88625000Y-47275000D02*
X122625000Y-47275000D01*
X87125000Y-118775000D02*
X87125000Y-90775000D01*
X85625000Y-85775000D02*
X85625000Y-60775000D01*
X85625000Y-85775000D02*
X84575000Y-85775000D01*
M02*
