%TF.GenerationSoftware,KiCad,Pcbnew,(5.99.0-10506-gb986797469)*%
%TF.CreationDate,2021-06-08T09:07:57+02:00*%
%TF.ProjectId,quadkey,71756164-6b65-4792-9e6b-696361645f70,rev?*%
%TF.SameCoordinates,Original*%
%TF.FileFunction,Legend,Top*%
%TF.FilePolarity,Positive*%
%FSLAX46Y46*%
G04 Gerber Fmt 4.6, Leading zero omitted, Abs format (unit mm)*
G04 Created by KiCad (PCBNEW (5.99.0-10506-gb986797469)) date 2021-06-08 09:07:57*
%MOMM*%
%LPD*%
G01*
G04 APERTURE LIST*
%ADD10C,0.150000*%
%ADD11C,0.015000*%
%ADD12C,0.120000*%
%ADD13C,0.160000*%
%ADD14C,0.127000*%
%ADD15C,0.200000*%
G04 APERTURE END LIST*
D10*
%TO.C,R1*%
X92769333Y-59252380D02*
X92436000Y-58776190D01*
X92197904Y-59252380D02*
X92197904Y-58252380D01*
X92578857Y-58252380D01*
X92674095Y-58300000D01*
X92721714Y-58347619D01*
X92769333Y-58442857D01*
X92769333Y-58585714D01*
X92721714Y-58680952D01*
X92674095Y-58728571D01*
X92578857Y-58776190D01*
X92197904Y-58776190D01*
X93721714Y-59252380D02*
X93150285Y-59252380D01*
X93436000Y-59252380D02*
X93436000Y-58252380D01*
X93340761Y-58395238D01*
X93245523Y-58490476D01*
X93150285Y-58538095D01*
%TO.C,R6*%
X123576380Y-76262666D02*
X123100190Y-76596000D01*
X123576380Y-76834095D02*
X122576380Y-76834095D01*
X122576380Y-76453142D01*
X122624000Y-76357904D01*
X122671619Y-76310285D01*
X122766857Y-76262666D01*
X122909714Y-76262666D01*
X123004952Y-76310285D01*
X123052571Y-76357904D01*
X123100190Y-76453142D01*
X123100190Y-76834095D01*
X122576380Y-75405523D02*
X122576380Y-75596000D01*
X122624000Y-75691238D01*
X122671619Y-75738857D01*
X122814476Y-75834095D01*
X123004952Y-75881714D01*
X123385904Y-75881714D01*
X123481142Y-75834095D01*
X123528761Y-75786476D01*
X123576380Y-75691238D01*
X123576380Y-75500761D01*
X123528761Y-75405523D01*
X123481142Y-75357904D01*
X123385904Y-75310285D01*
X123147809Y-75310285D01*
X123052571Y-75357904D01*
X123004952Y-75405523D01*
X122957333Y-75500761D01*
X122957333Y-75691238D01*
X123004952Y-75786476D01*
X123052571Y-75834095D01*
X123147809Y-75881714D01*
%TO.C,C2*%
X101433333Y-96115142D02*
X101385714Y-96162761D01*
X101242857Y-96210380D01*
X101147619Y-96210380D01*
X101004761Y-96162761D01*
X100909523Y-96067523D01*
X100861904Y-95972285D01*
X100814285Y-95781809D01*
X100814285Y-95638952D01*
X100861904Y-95448476D01*
X100909523Y-95353238D01*
X101004761Y-95258000D01*
X101147619Y-95210380D01*
X101242857Y-95210380D01*
X101385714Y-95258000D01*
X101433333Y-95305619D01*
X101814285Y-95305619D02*
X101861904Y-95258000D01*
X101957142Y-95210380D01*
X102195238Y-95210380D01*
X102290476Y-95258000D01*
X102338095Y-95305619D01*
X102385714Y-95400857D01*
X102385714Y-95496095D01*
X102338095Y-95638952D01*
X101766666Y-96210380D01*
X102385714Y-96210380D01*
%TO.C,R2*%
X109815333Y-107894380D02*
X109482000Y-107418190D01*
X109243904Y-107894380D02*
X109243904Y-106894380D01*
X109624857Y-106894380D01*
X109720095Y-106942000D01*
X109767714Y-106989619D01*
X109815333Y-107084857D01*
X109815333Y-107227714D01*
X109767714Y-107322952D01*
X109720095Y-107370571D01*
X109624857Y-107418190D01*
X109243904Y-107418190D01*
X110196285Y-106989619D02*
X110243904Y-106942000D01*
X110339142Y-106894380D01*
X110577238Y-106894380D01*
X110672476Y-106942000D01*
X110720095Y-106989619D01*
X110767714Y-107084857D01*
X110767714Y-107180095D01*
X110720095Y-107322952D01*
X110148666Y-107894380D01*
X110767714Y-107894380D01*
%TO.C,CON1*%
X113847714Y-87893142D02*
X113800095Y-87940761D01*
X113657238Y-87988380D01*
X113562000Y-87988380D01*
X113419142Y-87940761D01*
X113323904Y-87845523D01*
X113276285Y-87750285D01*
X113228666Y-87559809D01*
X113228666Y-87416952D01*
X113276285Y-87226476D01*
X113323904Y-87131238D01*
X113419142Y-87036000D01*
X113562000Y-86988380D01*
X113657238Y-86988380D01*
X113800095Y-87036000D01*
X113847714Y-87083619D01*
X114466761Y-86988380D02*
X114657238Y-86988380D01*
X114752476Y-87036000D01*
X114847714Y-87131238D01*
X114895333Y-87321714D01*
X114895333Y-87655047D01*
X114847714Y-87845523D01*
X114752476Y-87940761D01*
X114657238Y-87988380D01*
X114466761Y-87988380D01*
X114371523Y-87940761D01*
X114276285Y-87845523D01*
X114228666Y-87655047D01*
X114228666Y-87321714D01*
X114276285Y-87131238D01*
X114371523Y-87036000D01*
X114466761Y-86988380D01*
X115323904Y-87988380D02*
X115323904Y-86988380D01*
X115895333Y-87988380D01*
X115895333Y-86988380D01*
X116895333Y-87988380D02*
X116323904Y-87988380D01*
X116609619Y-87988380D02*
X116609619Y-86988380D01*
X116514380Y-87131238D01*
X116419142Y-87226476D01*
X116323904Y-87274095D01*
%TO.C,R3*%
X101179333Y-103830380D02*
X100846000Y-103354190D01*
X100607904Y-103830380D02*
X100607904Y-102830380D01*
X100988857Y-102830380D01*
X101084095Y-102878000D01*
X101131714Y-102925619D01*
X101179333Y-103020857D01*
X101179333Y-103163714D01*
X101131714Y-103258952D01*
X101084095Y-103306571D01*
X100988857Y-103354190D01*
X100607904Y-103354190D01*
X101512666Y-102830380D02*
X102131714Y-102830380D01*
X101798380Y-103211333D01*
X101941238Y-103211333D01*
X102036476Y-103258952D01*
X102084095Y-103306571D01*
X102131714Y-103401809D01*
X102131714Y-103639904D01*
X102084095Y-103735142D01*
X102036476Y-103782761D01*
X101941238Y-103830380D01*
X101655523Y-103830380D01*
X101560285Y-103782761D01*
X101512666Y-103735142D01*
%TO.C,L1*%
X96022380Y-105550666D02*
X96022380Y-106026857D01*
X95022380Y-106026857D01*
X96022380Y-104693523D02*
X96022380Y-105264952D01*
X96022380Y-104979238D02*
X95022380Y-104979238D01*
X95165238Y-105074476D01*
X95260476Y-105169714D01*
X95308095Y-105264952D01*
%TO.C,D2*%
X88161904Y-69286380D02*
X88161904Y-68286380D01*
X88400000Y-68286380D01*
X88542857Y-68334000D01*
X88638095Y-68429238D01*
X88685714Y-68524476D01*
X88733333Y-68714952D01*
X88733333Y-68857809D01*
X88685714Y-69048285D01*
X88638095Y-69143523D01*
X88542857Y-69238761D01*
X88400000Y-69286380D01*
X88161904Y-69286380D01*
X89114285Y-68381619D02*
X89161904Y-68334000D01*
X89257142Y-68286380D01*
X89495238Y-68286380D01*
X89590476Y-68334000D01*
X89638095Y-68381619D01*
X89685714Y-68476857D01*
X89685714Y-68572095D01*
X89638095Y-68714952D01*
X89066666Y-69286380D01*
X89685714Y-69286380D01*
%TO.C,R5*%
X123572380Y-72722666D02*
X123096190Y-73056000D01*
X123572380Y-73294095D02*
X122572380Y-73294095D01*
X122572380Y-72913142D01*
X122620000Y-72817904D01*
X122667619Y-72770285D01*
X122762857Y-72722666D01*
X122905714Y-72722666D01*
X123000952Y-72770285D01*
X123048571Y-72817904D01*
X123096190Y-72913142D01*
X123096190Y-73294095D01*
X122572380Y-71817904D02*
X122572380Y-72294095D01*
X123048571Y-72341714D01*
X123000952Y-72294095D01*
X122953333Y-72198857D01*
X122953333Y-71960761D01*
X123000952Y-71865523D01*
X123048571Y-71817904D01*
X123143809Y-71770285D01*
X123381904Y-71770285D01*
X123477142Y-71817904D01*
X123524761Y-71865523D01*
X123572380Y-71960761D01*
X123572380Y-72198857D01*
X123524761Y-72294095D01*
X123477142Y-72341714D01*
%TO.C,R7*%
X115927333Y-103032380D02*
X115594000Y-102556190D01*
X115355904Y-103032380D02*
X115355904Y-102032380D01*
X115736857Y-102032380D01*
X115832095Y-102080000D01*
X115879714Y-102127619D01*
X115927333Y-102222857D01*
X115927333Y-102365714D01*
X115879714Y-102460952D01*
X115832095Y-102508571D01*
X115736857Y-102556190D01*
X115355904Y-102556190D01*
X116260666Y-102032380D02*
X116927333Y-102032380D01*
X116498761Y-103032380D01*
%TO.C,U1*%
X107635380Y-100677904D02*
X108444904Y-100677904D01*
X108540142Y-100630285D01*
X108587761Y-100582666D01*
X108635380Y-100487428D01*
X108635380Y-100296952D01*
X108587761Y-100201714D01*
X108540142Y-100154095D01*
X108444904Y-100106476D01*
X107635380Y-100106476D01*
X108635380Y-99106476D02*
X108635380Y-99677904D01*
X108635380Y-99392190D02*
X107635380Y-99392190D01*
X107778238Y-99487428D01*
X107873476Y-99582666D01*
X107921095Y-99677904D01*
%TO.C,R9*%
X93254833Y-69286380D02*
X92921500Y-68810190D01*
X92683404Y-69286380D02*
X92683404Y-68286380D01*
X93064357Y-68286380D01*
X93159595Y-68334000D01*
X93207214Y-68381619D01*
X93254833Y-68476857D01*
X93254833Y-68619714D01*
X93207214Y-68714952D01*
X93159595Y-68762571D01*
X93064357Y-68810190D01*
X92683404Y-68810190D01*
X93731023Y-69286380D02*
X93921500Y-69286380D01*
X94016738Y-69238761D01*
X94064357Y-69191142D01*
X94159595Y-69048285D01*
X94207214Y-68857809D01*
X94207214Y-68476857D01*
X94159595Y-68381619D01*
X94111976Y-68334000D01*
X94016738Y-68286380D01*
X93826261Y-68286380D01*
X93731023Y-68334000D01*
X93683404Y-68381619D01*
X93635785Y-68476857D01*
X93635785Y-68714952D01*
X93683404Y-68810190D01*
X93731023Y-68857809D01*
X93826261Y-68905428D01*
X94016738Y-68905428D01*
X94111976Y-68857809D01*
X94159595Y-68810190D01*
X94207214Y-68714952D01*
%TO.C,R8*%
X119587333Y-103032380D02*
X119254000Y-102556190D01*
X119015904Y-103032380D02*
X119015904Y-102032380D01*
X119396857Y-102032380D01*
X119492095Y-102080000D01*
X119539714Y-102127619D01*
X119587333Y-102222857D01*
X119587333Y-102365714D01*
X119539714Y-102460952D01*
X119492095Y-102508571D01*
X119396857Y-102556190D01*
X119015904Y-102556190D01*
X120158761Y-102460952D02*
X120063523Y-102413333D01*
X120015904Y-102365714D01*
X119968285Y-102270476D01*
X119968285Y-102222857D01*
X120015904Y-102127619D01*
X120063523Y-102080000D01*
X120158761Y-102032380D01*
X120349238Y-102032380D01*
X120444476Y-102080000D01*
X120492095Y-102127619D01*
X120539714Y-102222857D01*
X120539714Y-102270476D01*
X120492095Y-102365714D01*
X120444476Y-102413333D01*
X120349238Y-102460952D01*
X120158761Y-102460952D01*
X120063523Y-102508571D01*
X120015904Y-102556190D01*
X119968285Y-102651428D01*
X119968285Y-102841904D01*
X120015904Y-102937142D01*
X120063523Y-102984761D01*
X120158761Y-103032380D01*
X120349238Y-103032380D01*
X120444476Y-102984761D01*
X120492095Y-102937142D01*
X120539714Y-102841904D01*
X120539714Y-102651428D01*
X120492095Y-102556190D01*
X120444476Y-102508571D01*
X120349238Y-102460952D01*
%TO.C,D1*%
X104671904Y-107894380D02*
X104671904Y-106894380D01*
X104910000Y-106894380D01*
X105052857Y-106942000D01*
X105148095Y-107037238D01*
X105195714Y-107132476D01*
X105243333Y-107322952D01*
X105243333Y-107465809D01*
X105195714Y-107656285D01*
X105148095Y-107751523D01*
X105052857Y-107846761D01*
X104910000Y-107894380D01*
X104671904Y-107894380D01*
X106195714Y-107894380D02*
X105624285Y-107894380D01*
X105910000Y-107894380D02*
X105910000Y-106894380D01*
X105814761Y-107037238D01*
X105719523Y-107132476D01*
X105624285Y-107180095D01*
%TO.C,R4*%
X97491333Y-101290380D02*
X97158000Y-100814190D01*
X96919904Y-101290380D02*
X96919904Y-100290380D01*
X97300857Y-100290380D01*
X97396095Y-100338000D01*
X97443714Y-100385619D01*
X97491333Y-100480857D01*
X97491333Y-100623714D01*
X97443714Y-100718952D01*
X97396095Y-100766571D01*
X97300857Y-100814190D01*
X96919904Y-100814190D01*
X98348476Y-100623714D02*
X98348476Y-101290380D01*
X98110380Y-100242761D02*
X97872285Y-100957047D01*
X98491333Y-100957047D01*
D11*
%TO.C,con1*%
X100300134Y-114532452D02*
X100210146Y-114577446D01*
X100030168Y-114577446D01*
X99940179Y-114532452D01*
X99895185Y-114487457D01*
X99850191Y-114397469D01*
X99850191Y-114127502D01*
X99895185Y-114037514D01*
X99940179Y-113992519D01*
X100030168Y-113947525D01*
X100210146Y-113947525D01*
X100300134Y-113992519D01*
X100840067Y-114577446D02*
X100750078Y-114532452D01*
X100705084Y-114487457D01*
X100660089Y-114397469D01*
X100660089Y-114127502D01*
X100705084Y-114037514D01*
X100750078Y-113992519D01*
X100840067Y-113947525D01*
X100975050Y-113947525D01*
X101065039Y-113992519D01*
X101110033Y-114037514D01*
X101155028Y-114127502D01*
X101155028Y-114397469D01*
X101110033Y-114487457D01*
X101065039Y-114532452D01*
X100975050Y-114577446D01*
X100840067Y-114577446D01*
X101559977Y-113947525D02*
X101559977Y-114577446D01*
X101559977Y-114037514D02*
X101604971Y-113992519D01*
X101694960Y-113947525D01*
X101829943Y-113947525D01*
X101919932Y-113992519D01*
X101964926Y-114082508D01*
X101964926Y-114577446D01*
X102909808Y-114577446D02*
X102369876Y-114577446D01*
X102639842Y-114577446D02*
X102639842Y-113632564D01*
X102549853Y-113767547D01*
X102459865Y-113857536D01*
X102369876Y-113902530D01*
D10*
%TO.C,C1*%
X108799333Y-94591142D02*
X108751714Y-94638761D01*
X108608857Y-94686380D01*
X108513619Y-94686380D01*
X108370761Y-94638761D01*
X108275523Y-94543523D01*
X108227904Y-94448285D01*
X108180285Y-94257809D01*
X108180285Y-94114952D01*
X108227904Y-93924476D01*
X108275523Y-93829238D01*
X108370761Y-93734000D01*
X108513619Y-93686380D01*
X108608857Y-93686380D01*
X108751714Y-93734000D01*
X108799333Y-93781619D01*
X109751714Y-94686380D02*
X109180285Y-94686380D01*
X109466000Y-94686380D02*
X109466000Y-93686380D01*
X109370761Y-93829238D01*
X109275523Y-93924476D01*
X109180285Y-93972095D01*
%TO.C,U3*%
X95268380Y-74977904D02*
X96077904Y-74977904D01*
X96173142Y-74930285D01*
X96220761Y-74882666D01*
X96268380Y-74787428D01*
X96268380Y-74596952D01*
X96220761Y-74501714D01*
X96173142Y-74454095D01*
X96077904Y-74406476D01*
X95268380Y-74406476D01*
X95268380Y-74025523D02*
X95268380Y-73406476D01*
X95649333Y-73739809D01*
X95649333Y-73596952D01*
X95696952Y-73501714D01*
X95744571Y-73454095D01*
X95839809Y-73406476D01*
X96077904Y-73406476D01*
X96173142Y-73454095D01*
X96220761Y-73501714D01*
X96268380Y-73596952D01*
X96268380Y-73882666D01*
X96220761Y-73977904D01*
X96173142Y-74025523D01*
D11*
%TO.C,U2*%
X88648295Y-97719179D02*
X89459253Y-97719179D01*
X89554660Y-97671476D01*
X89602364Y-97623773D01*
X89650067Y-97528366D01*
X89650067Y-97337552D01*
X89602364Y-97242145D01*
X89554660Y-97194442D01*
X89459253Y-97146738D01*
X88648295Y-97146738D01*
X88743702Y-96717407D02*
X88695999Y-96669704D01*
X88648295Y-96574297D01*
X88648295Y-96335780D01*
X88695999Y-96240373D01*
X88743702Y-96192670D01*
X88839109Y-96144966D01*
X88934516Y-96144966D01*
X89077626Y-96192670D01*
X89650067Y-96765111D01*
X89650067Y-96144966D01*
D12*
%TO.C,R1*%
X91285000Y-60705000D02*
X91285000Y-60070000D01*
X91285000Y-59435000D02*
X93825000Y-59435000D01*
X91285000Y-60070000D02*
X91285000Y-59435000D01*
X93825000Y-59435000D02*
X93825000Y-60705000D01*
X93825000Y-60705000D02*
X91285000Y-60705000D01*
%TO.C,R6*%
X121219000Y-76985000D02*
X121219000Y-74445000D01*
X122489000Y-74445000D02*
X122489000Y-76985000D01*
X121219000Y-74445000D02*
X121854000Y-74445000D01*
X121854000Y-74445000D02*
X122489000Y-74445000D01*
X122489000Y-76985000D02*
X121219000Y-76985000D01*
%TO.C,C2*%
X99695000Y-97663000D02*
X99695000Y-97028000D01*
X102235000Y-96393000D02*
X102235000Y-97663000D01*
X99695000Y-96393000D02*
X102235000Y-96393000D01*
X102235000Y-97663000D02*
X99695000Y-97663000D01*
X99695000Y-97028000D02*
X99695000Y-96393000D01*
%TO.C,R2*%
X111633000Y-105537000D02*
X111633000Y-106172000D01*
X109093000Y-105537000D02*
X111633000Y-105537000D01*
X111633000Y-106807000D02*
X109093000Y-106807000D01*
X111633000Y-106172000D02*
X111633000Y-106807000D01*
X109093000Y-106807000D02*
X109093000Y-105537000D01*
%TO.C,CON1*%
X113157000Y-86106000D02*
X113157000Y-85471000D01*
X113792000Y-86106000D02*
X113157000Y-86106000D01*
%TO.C,R3*%
X100457000Y-102743000D02*
X100457000Y-101473000D01*
X100457000Y-101473000D02*
X102997000Y-101473000D01*
X102997000Y-101473000D02*
X102997000Y-102108000D01*
X102997000Y-102743000D02*
X100457000Y-102743000D01*
X102997000Y-102108000D02*
X102997000Y-102743000D01*
%TO.C,L1*%
X96205000Y-104495000D02*
X97475000Y-104495000D01*
X97475000Y-107035000D02*
X96840000Y-107035000D01*
X97475000Y-104495000D02*
X97475000Y-107035000D01*
X96205000Y-107035000D02*
X96205000Y-104495000D01*
X96840000Y-107035000D02*
X96205000Y-107035000D01*
%TO.C,D2*%
X87215000Y-69419000D02*
X87215000Y-70789000D01*
X87215000Y-70789000D02*
X89700000Y-70789000D01*
X89700000Y-69419000D02*
X87215000Y-69419000D01*
%TO.C,R5*%
X121215000Y-70905000D02*
X121850000Y-70905000D01*
X121850000Y-70905000D02*
X122485000Y-70905000D01*
X122485000Y-73445000D02*
X121215000Y-73445000D01*
X122485000Y-70905000D02*
X122485000Y-73445000D01*
X121215000Y-73445000D02*
X121215000Y-70905000D01*
%TO.C,R7*%
X115205000Y-100675000D02*
X117745000Y-100675000D01*
X117745000Y-101945000D02*
X115205000Y-101945000D01*
X115205000Y-101945000D02*
X115205000Y-100675000D01*
X117745000Y-101310000D02*
X117745000Y-101945000D01*
X117745000Y-100675000D02*
X117745000Y-101310000D01*
%TO.C,U1*%
X104355000Y-101585000D02*
X104355000Y-97775000D01*
X107530000Y-101585000D02*
X104355000Y-101585000D01*
X107530000Y-97775000D02*
X107530000Y-101585000D01*
X104355000Y-97775000D02*
X107530000Y-97775000D01*
X107530000Y-97775000D02*
X107530000Y-98410000D01*
D13*
X106915000Y-97380000D02*
G75*
G03*
X106915000Y-97380000I-80000J0D01*
G01*
X106915000Y-99190000D02*
G75*
G03*
X106915000Y-99190000I-80000J0D01*
G01*
D12*
%TO.C,R9*%
X94310500Y-69469000D02*
X94310500Y-70739000D01*
X91770500Y-69469000D02*
X94310500Y-69469000D01*
X91770500Y-70104000D02*
X91770500Y-69469000D01*
X91770500Y-70739000D02*
X91770500Y-70104000D01*
X94310500Y-70739000D02*
X91770500Y-70739000D01*
%TO.C,R8*%
X121405000Y-101310000D02*
X121405000Y-101945000D01*
X121405000Y-101945000D02*
X118865000Y-101945000D01*
X121405000Y-100675000D02*
X121405000Y-101310000D01*
X118865000Y-100675000D02*
X121405000Y-100675000D01*
X118865000Y-101945000D02*
X118865000Y-100675000D01*
%TO.C,D1*%
X107095000Y-106857000D02*
X107095000Y-105487000D01*
X104610000Y-106857000D02*
X107095000Y-106857000D01*
X107095000Y-105487000D02*
X104610000Y-105487000D01*
%TO.C,R4*%
X96007000Y-102743000D02*
X96007000Y-102108000D01*
X96007000Y-101473000D02*
X98547000Y-101473000D01*
X98547000Y-101473000D02*
X98547000Y-102743000D01*
X96007000Y-102108000D02*
X96007000Y-101473000D01*
X98547000Y-102743000D02*
X96007000Y-102743000D01*
%TO.C,con1*%
X104072700Y-109471800D02*
X104072700Y-117961800D01*
X104072700Y-117961800D02*
X102482700Y-117971800D01*
X94282700Y-117981800D02*
X92682700Y-117971800D01*
X92682700Y-117971800D02*
X92682700Y-109471800D01*
X92682700Y-109471800D02*
X104072700Y-109471800D01*
X94282700Y-119621800D02*
X94282700Y-117981800D01*
X102482700Y-117971800D02*
X102482700Y-119591800D01*
X102482700Y-119591800D02*
X94282700Y-119621800D01*
%TO.C,C1*%
X107061000Y-94869000D02*
X109601000Y-94869000D01*
X109601000Y-96139000D02*
X107061000Y-96139000D01*
X109601000Y-94869000D02*
X109601000Y-96139000D01*
X107061000Y-96139000D02*
X107061000Y-95504000D01*
X107061000Y-95504000D02*
X107061000Y-94869000D01*
%TO.C,U3*%
X115546000Y-49921000D02*
X115546000Y-56341000D01*
X97306000Y-49921000D02*
X115546000Y-49921000D01*
X97306000Y-74886000D02*
X97306000Y-75666000D01*
X115546000Y-74886000D02*
X115546000Y-75666000D01*
X97306000Y-75666000D02*
X98306000Y-75666000D01*
X115546000Y-75666000D02*
X114546000Y-75666000D01*
X97306000Y-49921000D02*
X97306000Y-56341000D01*
X97306000Y-56341000D02*
X96926000Y-56341000D01*
D14*
%TO.C,U2*%
X92481000Y-93080000D02*
X92481000Y-94570000D01*
X92481000Y-98200000D02*
X92481000Y-99800000D01*
X96201000Y-93330000D02*
X96201000Y-93080000D01*
X96201000Y-99800000D02*
X96201000Y-99540000D01*
X96201000Y-99800000D02*
X92481000Y-99800000D01*
X96201000Y-93080000D02*
X92481000Y-93080000D01*
D15*
X98814000Y-98730000D02*
G75*
G03*
X98814000Y-98730000I-100000J0D01*
G01*
%TD*%
M02*
