M48
; DRILL file {KiCad (5.99.0-10506-gb986797469)} date Tue Jun  8 09:07:58 2021
; FORMAT={-:-/ absolute / inch / decimal}
; #@! TF.CreationDate,2021-06-08T09:07:58+02:00
; #@! TF.GenerationSoftware,Kicad,Pcbnew,(5.99.0-10506-gb986797469)
; #@! TF.FileFunction,Plated,1,2,PTH
FMAT,2
INCH
; #@! TA.AperFunction,Plated,PTH,ViaDrill
T1C0.0098
%
G90
G05
T1
X3.47Y-2.84
X3.72Y-4.02
X3.74Y-3.88
X3.8714Y-4.5857
X3.95Y-2.42
X4.08Y-3.94
X4.1506Y-2.5603
X4.1677Y-3.9591
X4.17Y-3.82
X4.21Y-3.92
X4.29Y-3.84
X4.36Y-2.47
X4.4787Y-4.2315
X4.52Y-3.48
X4.53Y-3.21
X4.58Y-3.47
X4.59Y-3.16
X4.69Y-2.42
X4.7563Y-4.1075
X4.7961Y-3.0858
T0
M30
