%TF.GenerationSoftware,KiCad,Pcbnew,(5.99.0-10506-gb986797469)*%
%TF.CreationDate,2021-06-03T16:00:04+02:00*%
%TF.ProjectId,quadkey,71756164-6b65-4792-9e6b-696361645f70,rev?*%
%TF.SameCoordinates,Original*%
%TF.FileFunction,Paste,Top*%
%TF.FilePolarity,Positive*%
%FSLAX46Y46*%
G04 Gerber Fmt 4.6, Leading zero omitted, Abs format (unit mm)*
G04 Created by KiCad (PCBNEW (5.99.0-10506-gb986797469)) date 2021-06-03 16:00:04*
%MOMM*%
%LPD*%
G01*
G04 APERTURE LIST*
G04 Aperture macros list*
%AMRoundRect*
0 Rectangle with rounded corners*
0 $1 Rounding radius*
0 $2 $3 $4 $5 $6 $7 $8 $9 X,Y pos of 4 corners*
0 Add a 4 corners polygon primitive as box body*
4,1,4,$2,$3,$4,$5,$6,$7,$8,$9,$2,$3,0*
0 Add four circle primitives for the rounded corners*
1,1,$1+$1,$2,$3*
1,1,$1+$1,$4,$5*
1,1,$1+$1,$6,$7*
1,1,$1+$1,$8,$9*
0 Add four rect primitives between the rounded corners*
20,1,$1+$1,$2,$3,$4,$5,0*
20,1,$1+$1,$4,$5,$6,$7,0*
20,1,$1+$1,$6,$7,$8,$9,0*
20,1,$1+$1,$8,$9,$2,$3,0*%
G04 Aperture macros list end*
%ADD10C,0.010000*%
%ADD11RoundRect,0.250000X0.250000X0.300000X-0.250000X0.300000X-0.250000X-0.300000X0.250000X-0.300000X0*%
%ADD12R,0.482600X2.311400*%
%ADD13R,2.006600X2.489200*%
%ADD14R,1.210000X1.010000*%
%ADD15RoundRect,0.137500X-0.137500X-0.262500X0.137500X-0.262500X0.137500X0.262500X-0.137500X0.262500X0*%
%ADD16R,0.550000X0.800000*%
%ADD17RoundRect,0.250000X-0.300000X0.250000X-0.300000X-0.250000X0.300000X-0.250000X0.300000X0.250000X0*%
%ADD18RoundRect,0.250000X0.300000X-0.250000X0.300000X0.250000X-0.300000X0.250000X-0.300000X-0.250000X0*%
%ADD19RoundRect,0.250000X-0.250000X-0.300000X0.250000X-0.300000X0.250000X0.300000X-0.250000X0.300000X0*%
%ADD20R,0.220000X0.810000*%
%ADD21R,0.810000X0.220000*%
%ADD22R,0.812800X0.304800*%
%ADD23R,1.651000X2.387600*%
%ADD24RoundRect,0.212500X0.400000X0.212500X-0.400000X0.212500X-0.400000X-0.212500X0.400000X-0.212500X0*%
%ADD25R,3.200000X1.000000*%
G04 APERTURE END LIST*
D10*
%TO.C,U3*%
X98085000Y-68835000D02*
X98085000Y-67205000D01*
X98085000Y-67205000D02*
X99715000Y-67205000D01*
X99715000Y-67205000D02*
X99715000Y-68835000D01*
X99715000Y-68835000D02*
X98085000Y-68835000D01*
G36*
X99715000Y-68835000D02*
G01*
X98085000Y-68835000D01*
X98085000Y-67205000D01*
X99715000Y-67205000D01*
X99715000Y-68835000D01*
G37*
X99715000Y-68835000D02*
X98085000Y-68835000D01*
X98085000Y-67205000D01*
X99715000Y-67205000D01*
X99715000Y-68835000D01*
X98085000Y-66535000D02*
X98085000Y-64905000D01*
X98085000Y-64905000D02*
X99715000Y-64905000D01*
X99715000Y-64905000D02*
X99715000Y-66535000D01*
X99715000Y-66535000D02*
X98085000Y-66535000D01*
G36*
X99715000Y-66535000D02*
G01*
X98085000Y-66535000D01*
X98085000Y-64905000D01*
X99715000Y-64905000D01*
X99715000Y-66535000D01*
G37*
X99715000Y-66535000D02*
X98085000Y-66535000D01*
X98085000Y-64905000D01*
X99715000Y-64905000D01*
X99715000Y-66535000D01*
X100385000Y-68835000D02*
X100385000Y-67205000D01*
X100385000Y-67205000D02*
X102015000Y-67205000D01*
X102015000Y-67205000D02*
X102015000Y-68835000D01*
X102015000Y-68835000D02*
X100385000Y-68835000D01*
G36*
X102015000Y-68835000D02*
G01*
X100385000Y-68835000D01*
X100385000Y-67205000D01*
X102015000Y-67205000D01*
X102015000Y-68835000D01*
G37*
X102015000Y-68835000D02*
X100385000Y-68835000D01*
X100385000Y-67205000D01*
X102015000Y-67205000D01*
X102015000Y-68835000D01*
X100385000Y-66535000D02*
X100385000Y-64905000D01*
X100385000Y-64905000D02*
X102015000Y-64905000D01*
X102015000Y-64905000D02*
X102015000Y-66535000D01*
X102015000Y-66535000D02*
X100385000Y-66535000D01*
G36*
X102015000Y-66535000D02*
G01*
X100385000Y-66535000D01*
X100385000Y-64905000D01*
X102015000Y-64905000D01*
X102015000Y-66535000D01*
G37*
X102015000Y-66535000D02*
X100385000Y-66535000D01*
X100385000Y-64905000D01*
X102015000Y-64905000D01*
X102015000Y-66535000D01*
%TD*%
D11*
%TO.C,C12*%
X93860000Y-59090000D03*
X93860000Y-57820000D03*
%TD*%
D12*
%TO.C,con1*%
X96455200Y-110856500D03*
X97242600Y-110856500D03*
X98030000Y-110856500D03*
X98817400Y-110856500D03*
X99604800Y-110856500D03*
D13*
X102475000Y-110945400D03*
X102475000Y-116457200D03*
X93585000Y-116457200D03*
X93585000Y-110945400D03*
%TD*%
D11*
%TO.C,C3*%
X99255000Y-85895000D03*
X99255000Y-84625000D03*
%TD*%
D14*
%TO.C,Y1*%
X91880000Y-63700000D03*
X94240000Y-63700000D03*
X94240000Y-61840000D03*
X91880000Y-61840000D03*
%TD*%
D15*
%TO.C,U1*%
X100642500Y-98977500D03*
D16*
X99692500Y-98977500D03*
X98742500Y-98977500D03*
X98742500Y-101577500D03*
X100642500Y-101577500D03*
%TD*%
D11*
%TO.C,C4*%
X97345000Y-85895000D03*
X97345000Y-84625000D03*
%TD*%
D17*
%TO.C,R2*%
X102850000Y-96600000D03*
X101580000Y-96600000D03*
%TD*%
%TO.C,C1*%
X95745000Y-94445000D03*
X94475000Y-94445000D03*
%TD*%
D11*
%TO.C,C7*%
X97360000Y-74910000D03*
X97360000Y-73640000D03*
%TD*%
%TO.C,C2*%
X104405000Y-89915000D03*
X104405000Y-88645000D03*
%TD*%
D18*
%TO.C,C8*%
X93055000Y-69025000D03*
X94325000Y-69025000D03*
%TD*%
D19*
%TO.C,R1*%
X104400000Y-92430000D03*
X104400000Y-93700000D03*
%TD*%
D11*
%TO.C,R5*%
X100300000Y-58580000D03*
X100300000Y-57310000D03*
%TD*%
%TO.C,C6*%
X93530000Y-74860000D03*
X93530000Y-73590000D03*
%TD*%
D20*
%TO.C,U3*%
X97850000Y-69820000D03*
X98250000Y-69820000D03*
X98650000Y-69820000D03*
X99050000Y-69820000D03*
X99450000Y-69820000D03*
X99850000Y-69820000D03*
X100250000Y-69820000D03*
X100650000Y-69820000D03*
X101050000Y-69820000D03*
X101450000Y-69820000D03*
X101850000Y-69820000D03*
X102250000Y-69820000D03*
D21*
X103000000Y-69070000D03*
X103000000Y-68670000D03*
X103000000Y-68270000D03*
X103000000Y-67870000D03*
X103000000Y-67470000D03*
X103000000Y-67070000D03*
X103000000Y-66670000D03*
X103000000Y-66270000D03*
X103000000Y-65870000D03*
X103000000Y-65470000D03*
X103000000Y-65070000D03*
X103000000Y-64670000D03*
D20*
X102250000Y-63920000D03*
X101850000Y-63920000D03*
X101450000Y-63920000D03*
X101050000Y-63920000D03*
X100650000Y-63920000D03*
X100250000Y-63920000D03*
X99850000Y-63920000D03*
X99450000Y-63920000D03*
X99050000Y-63920000D03*
X98650000Y-63920000D03*
X98250000Y-63920000D03*
X97850000Y-63920000D03*
D21*
X97100000Y-64670000D03*
X97100000Y-65070000D03*
X97100000Y-65470000D03*
X97100000Y-65870000D03*
X97100000Y-66270000D03*
X97100000Y-66670000D03*
X97100000Y-67070000D03*
X97100000Y-67470000D03*
X97100000Y-67870000D03*
X97100000Y-68270000D03*
X97100000Y-68670000D03*
X97100000Y-69070000D03*
%TD*%
D19*
%TO.C,C9*%
X96135000Y-57985000D03*
X96135000Y-59255000D03*
%TD*%
D17*
%TO.C,R4*%
X109530000Y-101580000D03*
X108260000Y-101580000D03*
%TD*%
D22*
%TO.C,U2*%
X97606800Y-90189400D03*
X97606800Y-90672000D03*
X97606800Y-91180000D03*
X97606800Y-91688000D03*
X97606800Y-92170600D03*
X100553200Y-92170600D03*
X100553200Y-91688000D03*
X100553200Y-91180000D03*
X100553200Y-90672000D03*
X100553200Y-90189400D03*
D23*
X99080000Y-91180000D03*
%TD*%
D17*
%TO.C,C13*%
X92185000Y-66425000D03*
X90915000Y-66425000D03*
%TD*%
D18*
%TO.C,R3*%
X103580000Y-101580000D03*
X104850000Y-101580000D03*
%TD*%
D11*
%TO.C,L1*%
X96510000Y-105660000D03*
X96510000Y-104390000D03*
%TD*%
D17*
%TO.C,C10*%
X100875000Y-72375000D03*
X99605000Y-72375000D03*
%TD*%
D24*
%TO.C,D1*%
X96530000Y-96610000D03*
X94905000Y-96610000D03*
%TD*%
D17*
%TO.C,C11*%
X100280000Y-60840000D03*
X99010000Y-60840000D03*
%TD*%
%TO.C,C14*%
X100270000Y-55030000D03*
X99000000Y-55030000D03*
%TD*%
D25*
%TO.C,L2*%
X94170000Y-92100000D03*
X94170000Y-89900000D03*
%TD*%
D11*
%TO.C,C5*%
X95395000Y-74905000D03*
X95395000Y-73635000D03*
%TD*%
M02*
