%TF.GenerationSoftware,KiCad,Pcbnew,(5.99.0-10506-gb986797469)*%
%TF.CreationDate,2021-06-08T09:07:57+02:00*%
%TF.ProjectId,quadkey,71756164-6b65-4792-9e6b-696361645f70,rev?*%
%TF.SameCoordinates,Original*%
%TF.FileFunction,Paste,Top*%
%TF.FilePolarity,Positive*%
%FSLAX46Y46*%
G04 Gerber Fmt 4.6, Leading zero omitted, Abs format (unit mm)*
G04 Created by KiCad (PCBNEW (5.99.0-10506-gb986797469)) date 2021-06-08 09:07:57*
%MOMM*%
%LPD*%
G01*
G04 APERTURE LIST*
G04 Aperture macros list*
%AMRoundRect*
0 Rectangle with rounded corners*
0 $1 Rounding radius*
0 $2 $3 $4 $5 $6 $7 $8 $9 X,Y pos of 4 corners*
0 Add a 4 corners polygon primitive as box body*
4,1,4,$2,$3,$4,$5,$6,$7,$8,$9,$2,$3,0*
0 Add four circle primitives for the rounded corners*
1,1,$1+$1,$2,$3*
1,1,$1+$1,$4,$5*
1,1,$1+$1,$6,$7*
1,1,$1+$1,$8,$9*
0 Add four rect primitives between the rounded corners*
20,1,$1+$1,$2,$3,$4,$5,0*
20,1,$1+$1,$4,$5,$6,$7,0*
20,1,$1+$1,$6,$7,$8,$9,0*
20,1,$1+$1,$8,$9,$2,$3,0*%
G04 Aperture macros list end*
%ADD10RoundRect,0.250000X0.300000X-0.250000X0.300000X0.250000X-0.300000X0.250000X-0.300000X-0.250000X0*%
%ADD11RoundRect,0.250000X-0.250000X-0.300000X0.250000X-0.300000X0.250000X0.300000X-0.250000X0.300000X0*%
%ADD12RoundRect,0.250000X-0.300000X0.250000X-0.300000X-0.250000X0.300000X-0.250000X0.300000X0.250000X0*%
%ADD13RoundRect,0.250000X0.250000X0.300000X-0.250000X0.300000X-0.250000X-0.300000X0.250000X-0.300000X0*%
%ADD14RoundRect,0.212500X-0.400000X-0.212500X0.400000X-0.212500X0.400000X0.212500X-0.400000X0.212500X0*%
%ADD15RoundRect,0.137500X-0.137500X-0.262500X0.137500X-0.262500X0.137500X0.262500X-0.137500X0.262500X0*%
%ADD16R,0.550000X0.800000*%
%ADD17RoundRect,0.212500X0.400000X0.212500X-0.400000X0.212500X-0.400000X-0.212500X0.400000X-0.212500X0*%
%ADD18R,0.482600X2.311400*%
%ADD19R,2.006600X2.489200*%
%ADD20R,2.000000X0.900000*%
%ADD21R,0.900000X2.000000*%
%ADD22R,5.000000X5.000000*%
%ADD23R,1.310000X0.930000*%
%ADD24R,1.310000X3.240000*%
G04 APERTURE END LIST*
D10*
%TO.C,R1*%
X91920000Y-60070000D03*
X93190000Y-60070000D03*
%TD*%
D11*
%TO.C,R6*%
X121854000Y-75080000D03*
X121854000Y-76350000D03*
%TD*%
D10*
%TO.C,C2*%
X100330000Y-97028000D03*
X101600000Y-97028000D03*
%TD*%
D12*
%TO.C,R2*%
X110998000Y-106172000D03*
X109728000Y-106172000D03*
%TD*%
%TO.C,R3*%
X102362000Y-102108000D03*
X101092000Y-102108000D03*
%TD*%
D13*
%TO.C,L1*%
X96840000Y-106400000D03*
X96840000Y-105130000D03*
%TD*%
D14*
%TO.C,D2*%
X88087500Y-70104000D03*
X89712500Y-70104000D03*
%TD*%
D11*
%TO.C,R5*%
X121850000Y-71540000D03*
X121850000Y-72810000D03*
%TD*%
D12*
%TO.C,R7*%
X117110000Y-101310000D03*
X115840000Y-101310000D03*
%TD*%
D15*
%TO.C,U1*%
X106895000Y-98410000D03*
D16*
X105945000Y-98410000D03*
X104995000Y-98410000D03*
X104995000Y-101010000D03*
X106895000Y-101010000D03*
%TD*%
D10*
%TO.C,R9*%
X92405500Y-70104000D03*
X93675500Y-70104000D03*
%TD*%
D12*
%TO.C,R8*%
X120770000Y-101310000D03*
X119500000Y-101310000D03*
%TD*%
D14*
%TO.C,D1*%
X106222500Y-106172000D03*
D17*
X104597500Y-106172000D03*
%TD*%
D10*
%TO.C,R4*%
X96642000Y-102108000D03*
X97912000Y-102108000D03*
%TD*%
D18*
%TO.C,con1*%
X96805200Y-110876500D03*
X97592600Y-110876500D03*
X98380000Y-110876500D03*
X99167400Y-110876500D03*
X99954800Y-110876500D03*
D19*
X102825000Y-110965400D03*
X102825000Y-116477200D03*
X93935000Y-116477200D03*
X93935000Y-110965400D03*
%TD*%
D10*
%TO.C,C1*%
X107696000Y-95504000D03*
X108966000Y-95504000D03*
%TD*%
D20*
%TO.C,U3*%
X97926000Y-57531000D03*
X97926000Y-58801000D03*
X97926000Y-60071000D03*
X97926000Y-61341000D03*
X97926000Y-62611000D03*
X97926000Y-63881000D03*
X97926000Y-65151000D03*
X97926000Y-66421000D03*
X97926000Y-67691000D03*
X97926000Y-68961000D03*
X97926000Y-70231000D03*
X97926000Y-71501000D03*
X97926000Y-72771000D03*
X97926000Y-74041000D03*
D21*
X100711000Y-75041000D03*
X101981000Y-75041000D03*
X103251000Y-75041000D03*
X104521000Y-75041000D03*
X105791000Y-75041000D03*
X107061000Y-75041000D03*
X108331000Y-75041000D03*
X109601000Y-75041000D03*
X110871000Y-75041000D03*
X112141000Y-75041000D03*
D20*
X114926000Y-74041000D03*
X114926000Y-72771000D03*
X114926000Y-71501000D03*
X114926000Y-70231000D03*
X114926000Y-68961000D03*
X114926000Y-67691000D03*
X114926000Y-66421000D03*
X114926000Y-65151000D03*
X114926000Y-63881000D03*
X114926000Y-62611000D03*
X114926000Y-61341000D03*
X114926000Y-60071000D03*
X114926000Y-58801000D03*
X114926000Y-57531000D03*
D22*
X105426000Y-65031000D03*
%TD*%
D23*
%TO.C,U2*%
X97686000Y-98730000D03*
X97686000Y-96440000D03*
X97686000Y-94150000D03*
D24*
X90996000Y-96440000D03*
%TD*%
M02*
