%TF.GenerationSoftware,KiCad,Pcbnew,(5.99.0-10506-gb986797469)*%
%TF.CreationDate,2021-06-08T09:07:57+02:00*%
%TF.ProjectId,quadkey,71756164-6b65-4792-9e6b-696361645f70,rev?*%
%TF.SameCoordinates,Original*%
%TF.FileFunction,Copper,L2,Bot*%
%TF.FilePolarity,Positive*%
%FSLAX46Y46*%
G04 Gerber Fmt 4.6, Leading zero omitted, Abs format (unit mm)*
G04 Created by KiCad (PCBNEW (5.99.0-10506-gb986797469)) date 2021-06-08 09:07:57*
%MOMM*%
%LPD*%
G01*
G04 APERTURE LIST*
%TA.AperFunction,SMDPad,CuDef*%
%ADD10R,1.000000X3.500000*%
%TD*%
%TA.AperFunction,SMDPad,CuDef*%
%ADD11R,1.500000X3.400000*%
%TD*%
%TA.AperFunction,ViaPad*%
%ADD12C,0.600000*%
%TD*%
%TA.AperFunction,Conductor*%
%ADD13C,0.500000*%
%TD*%
%TA.AperFunction,Conductor*%
%ADD14C,0.250000*%
%TD*%
G04 APERTURE END LIST*
D10*
%TO.P,BT1,1,+*%
%TO.N,VBAT*%
X111776000Y-115980000D03*
%TO.P,BT1,2,-*%
%TO.N,GND*%
X113776000Y-115980000D03*
D11*
%TO.P,BT1,M*%
%TO.N,N/C*%
X109426000Y-110430000D03*
%TO.P,BT1,N*%
X116126000Y-110430000D03*
%TD*%
D12*
%TO.N,VBAT*%
X105860000Y-100560000D03*
X113760000Y-107480000D03*
%TO.N,GND*%
X88138000Y-72136000D03*
X108966000Y-97536000D03*
X121820000Y-78380000D03*
X120810000Y-104330000D03*
X98332800Y-116477200D03*
X105426000Y-65031000D03*
X105918000Y-97028000D03*
X94996000Y-98552000D03*
X116586000Y-80264000D03*
X94488000Y-102108000D03*
%TO.N,/mcu/RESET*%
X114808000Y-88392000D03*
X100330000Y-61468000D03*
%TO.N,/mcu/RX*%
X110744000Y-62738000D03*
X115062000Y-81534000D03*
%TO.N,/mcu/TX*%
X119126000Y-61468000D03*
X116332000Y-88138000D03*
%TO.N,Net-(R3-Pad1)*%
X106934000Y-99568000D03*
X103632000Y-100076000D03*
%TD*%
D13*
%TO.N,VBAT*%
X105860000Y-114242000D02*
X107598000Y-115980000D01*
X105860000Y-100560000D02*
X105860000Y-114242000D01*
X107598000Y-115980000D02*
X111776000Y-115980000D01*
X113810000Y-109710000D02*
X111776000Y-111744000D01*
X111776000Y-111744000D02*
X111776000Y-115980000D01*
X113810000Y-107530000D02*
X113810000Y-109710000D01*
X113760000Y-107480000D02*
X113810000Y-107530000D01*
D14*
%TO.N,/mcu/RESET*%
X100584000Y-78994000D02*
X109982000Y-88392000D01*
X100584000Y-61722000D02*
X100584000Y-78994000D01*
X109982000Y-88392000D02*
X114808000Y-88392000D01*
X100330000Y-61468000D02*
X100584000Y-61722000D01*
%TO.N,/mcu/RX*%
X110744000Y-77470000D02*
X110744000Y-62738000D01*
X113030000Y-79756000D02*
X110744000Y-77470000D01*
X113284000Y-79756000D02*
X113030000Y-79756000D01*
X115062000Y-81534000D02*
X113284000Y-79756000D01*
%TO.N,/mcu/TX*%
X118364000Y-88138000D02*
X119126000Y-87376000D01*
X116332000Y-88138000D02*
X118364000Y-88138000D01*
X119126000Y-87376000D02*
X119126000Y-61468000D01*
%TO.N,Net-(R3-Pad1)*%
X104140000Y-99568000D02*
X106934000Y-99568000D01*
X103632000Y-100076000D02*
X104140000Y-99568000D01*
%TD*%
%TA.AperFunction,Conductor*%
%TO.N,GND*%
G36*
X126433498Y-56588674D02*
G01*
X126469887Y-56637862D01*
X126475000Y-56669265D01*
X126475000Y-60476000D01*
X126456093Y-60534191D01*
X126406593Y-60570155D01*
X126376000Y-60575000D01*
X125603081Y-60575000D01*
X125602776Y-60575069D01*
X125601987Y-60575113D01*
X125590732Y-60575103D01*
X125590729Y-60575104D01*
X125579583Y-60575094D01*
X125568697Y-60580321D01*
X125547869Y-60587594D01*
X125546970Y-60587799D01*
X125546969Y-60587799D01*
X125536100Y-60590279D01*
X125527381Y-60597227D01*
X125526874Y-60597631D01*
X125508024Y-60609456D01*
X125497384Y-60614565D01*
X125490423Y-60623269D01*
X125490421Y-60623271D01*
X125489846Y-60623991D01*
X125474231Y-60639580D01*
X125464788Y-60647105D01*
X125459945Y-60657145D01*
X125459943Y-60657148D01*
X125459659Y-60657738D01*
X125447809Y-60676557D01*
X125440435Y-60685778D01*
X125437936Y-60696644D01*
X125437935Y-60696647D01*
X125437729Y-60697543D01*
X125430419Y-60718359D01*
X125430017Y-60719192D01*
X125430016Y-60719195D01*
X125425174Y-60729234D01*
X125425155Y-60751623D01*
X125425109Y-60752425D01*
X125425000Y-60752899D01*
X125425000Y-85796919D01*
X125425069Y-85797224D01*
X125425113Y-85798013D01*
X125425103Y-85809268D01*
X125425104Y-85809271D01*
X125425094Y-85820417D01*
X125429919Y-85830466D01*
X125430320Y-85831300D01*
X125437594Y-85852131D01*
X125440279Y-85863900D01*
X125447227Y-85872619D01*
X125447631Y-85873126D01*
X125459456Y-85891976D01*
X125464565Y-85902616D01*
X125473269Y-85909577D01*
X125473271Y-85909579D01*
X125473991Y-85910154D01*
X125489580Y-85925769D01*
X125497105Y-85935212D01*
X125507145Y-85940055D01*
X125507148Y-85940057D01*
X125507738Y-85940341D01*
X125526557Y-85952191D01*
X125535778Y-85959565D01*
X125546644Y-85962064D01*
X125546647Y-85962065D01*
X125547543Y-85962271D01*
X125568359Y-85969581D01*
X125569192Y-85969983D01*
X125569195Y-85969984D01*
X125579234Y-85974826D01*
X125601631Y-85974845D01*
X125602425Y-85974891D01*
X125602899Y-85975000D01*
X126376000Y-85975000D01*
X126434191Y-85993907D01*
X126470155Y-86043407D01*
X126475000Y-86074000D01*
X126475000Y-90476000D01*
X126456093Y-90534191D01*
X126406593Y-90570155D01*
X126376000Y-90575000D01*
X124103081Y-90575000D01*
X124102776Y-90575069D01*
X124101987Y-90575113D01*
X124090732Y-90575103D01*
X124090729Y-90575104D01*
X124079583Y-90575094D01*
X124068697Y-90580321D01*
X124047869Y-90587594D01*
X124046970Y-90587799D01*
X124046969Y-90587799D01*
X124036100Y-90590279D01*
X124027381Y-90597227D01*
X124026874Y-90597631D01*
X124008024Y-90609456D01*
X123997384Y-90614565D01*
X123990423Y-90623269D01*
X123990421Y-90623271D01*
X123989846Y-90623991D01*
X123974231Y-90639580D01*
X123964788Y-90647105D01*
X123959945Y-90657145D01*
X123959943Y-90657148D01*
X123959659Y-90657738D01*
X123947809Y-90676557D01*
X123940435Y-90685778D01*
X123937936Y-90696644D01*
X123937935Y-90696647D01*
X123937729Y-90697543D01*
X123930419Y-90718359D01*
X123930017Y-90719192D01*
X123930016Y-90719195D01*
X123925174Y-90729234D01*
X123925155Y-90751623D01*
X123925109Y-90752425D01*
X123925000Y-90752899D01*
X123925000Y-118476000D01*
X123906093Y-118534191D01*
X123856593Y-118570155D01*
X123826000Y-118575000D01*
X122503081Y-118575000D01*
X122502776Y-118575069D01*
X122501987Y-118575113D01*
X122490732Y-118575103D01*
X122490729Y-118575104D01*
X122479583Y-118575094D01*
X122468697Y-118580321D01*
X122447869Y-118587594D01*
X122446970Y-118587799D01*
X122446969Y-118587799D01*
X122436100Y-118590279D01*
X122427381Y-118597227D01*
X122426874Y-118597631D01*
X122408024Y-118609456D01*
X122397384Y-118614565D01*
X122390423Y-118623269D01*
X122390421Y-118623271D01*
X122389846Y-118623991D01*
X122374231Y-118639580D01*
X122364788Y-118647105D01*
X122359945Y-118657145D01*
X122359943Y-118657148D01*
X122359659Y-118657738D01*
X122347809Y-118676557D01*
X122340435Y-118685778D01*
X122337936Y-118696644D01*
X122337935Y-118696647D01*
X122337729Y-118697543D01*
X122330419Y-118718359D01*
X122330017Y-118719192D01*
X122330016Y-118719195D01*
X122325174Y-118729234D01*
X122325155Y-118751623D01*
X122325109Y-118752425D01*
X122325000Y-118752899D01*
X122325000Y-119576000D01*
X122306093Y-119634191D01*
X122256593Y-119670155D01*
X122226000Y-119675000D01*
X118024000Y-119675000D01*
X117965809Y-119656093D01*
X117929845Y-119606593D01*
X117925000Y-119576000D01*
X117925000Y-118753081D01*
X117924931Y-118752776D01*
X117924887Y-118751987D01*
X117924897Y-118740732D01*
X117924896Y-118740729D01*
X117924906Y-118729583D01*
X117919679Y-118718697D01*
X117912406Y-118697869D01*
X117912201Y-118696970D01*
X117912201Y-118696969D01*
X117909721Y-118686100D01*
X117902369Y-118676874D01*
X117890544Y-118658024D01*
X117890260Y-118657433D01*
X117885435Y-118647384D01*
X117876731Y-118640423D01*
X117876729Y-118640421D01*
X117876009Y-118639846D01*
X117860420Y-118624231D01*
X117852895Y-118614788D01*
X117842855Y-118609945D01*
X117842852Y-118609943D01*
X117842262Y-118609659D01*
X117823443Y-118597809D01*
X117814222Y-118590435D01*
X117803356Y-118587936D01*
X117803353Y-118587935D01*
X117802457Y-118587729D01*
X117781641Y-118580419D01*
X117780808Y-118580017D01*
X117780805Y-118580016D01*
X117770766Y-118575174D01*
X117748369Y-118575155D01*
X117747575Y-118575109D01*
X117747101Y-118575000D01*
X108003081Y-118575000D01*
X108002776Y-118575069D01*
X108001987Y-118575113D01*
X107990732Y-118575103D01*
X107990729Y-118575104D01*
X107979583Y-118575094D01*
X107968697Y-118580321D01*
X107947869Y-118587594D01*
X107946970Y-118587799D01*
X107946969Y-118587799D01*
X107936100Y-118590279D01*
X107927381Y-118597227D01*
X107926874Y-118597631D01*
X107908024Y-118609456D01*
X107897384Y-118614565D01*
X107890423Y-118623269D01*
X107890421Y-118623271D01*
X107889846Y-118623991D01*
X107874231Y-118639580D01*
X107864788Y-118647105D01*
X107859945Y-118657145D01*
X107859943Y-118657148D01*
X107859659Y-118657738D01*
X107847809Y-118676557D01*
X107840435Y-118685778D01*
X107837936Y-118696644D01*
X107837935Y-118696647D01*
X107837729Y-118697543D01*
X107830419Y-118718359D01*
X107830017Y-118719192D01*
X107830016Y-118719195D01*
X107825174Y-118729234D01*
X107825155Y-118751623D01*
X107825109Y-118752425D01*
X107825000Y-118752899D01*
X107825000Y-119576000D01*
X107806093Y-119634191D01*
X107756593Y-119670155D01*
X107726000Y-119675000D01*
X103524000Y-119675000D01*
X103465809Y-119656093D01*
X103429845Y-119606593D01*
X103425000Y-119576000D01*
X103425000Y-118753081D01*
X103424931Y-118752776D01*
X103424887Y-118751987D01*
X103424897Y-118740732D01*
X103424896Y-118740729D01*
X103424906Y-118729583D01*
X103419679Y-118718697D01*
X103412406Y-118697869D01*
X103412201Y-118696970D01*
X103412201Y-118696969D01*
X103409721Y-118686100D01*
X103402369Y-118676874D01*
X103390544Y-118658024D01*
X103390260Y-118657433D01*
X103385435Y-118647384D01*
X103376731Y-118640423D01*
X103376729Y-118640421D01*
X103376009Y-118639846D01*
X103360420Y-118624231D01*
X103352895Y-118614788D01*
X103342855Y-118609945D01*
X103342852Y-118609943D01*
X103342262Y-118609659D01*
X103323443Y-118597809D01*
X103314222Y-118590435D01*
X103303356Y-118587936D01*
X103303353Y-118587935D01*
X103302457Y-118587729D01*
X103281641Y-118580419D01*
X103280808Y-118580017D01*
X103280805Y-118580016D01*
X103270766Y-118575174D01*
X103248369Y-118575155D01*
X103247575Y-118575109D01*
X103247101Y-118575000D01*
X93503081Y-118575000D01*
X93502776Y-118575069D01*
X93501987Y-118575113D01*
X93490732Y-118575103D01*
X93490729Y-118575104D01*
X93479583Y-118575094D01*
X93468697Y-118580321D01*
X93447869Y-118587594D01*
X93446970Y-118587799D01*
X93446969Y-118587799D01*
X93436100Y-118590279D01*
X93427381Y-118597227D01*
X93426874Y-118597631D01*
X93408024Y-118609456D01*
X93397384Y-118614565D01*
X93390423Y-118623269D01*
X93390421Y-118623271D01*
X93389846Y-118623991D01*
X93374231Y-118639580D01*
X93364788Y-118647105D01*
X93359945Y-118657145D01*
X93359943Y-118657148D01*
X93359659Y-118657738D01*
X93347809Y-118676557D01*
X93340435Y-118685778D01*
X93337936Y-118696644D01*
X93337935Y-118696647D01*
X93337729Y-118697543D01*
X93330419Y-118718359D01*
X93330017Y-118719192D01*
X93330016Y-118719195D01*
X93325174Y-118729234D01*
X93325155Y-118751623D01*
X93325109Y-118752425D01*
X93325000Y-118752899D01*
X93325000Y-119576000D01*
X93306093Y-119634191D01*
X93256593Y-119670155D01*
X93226000Y-119675000D01*
X89024000Y-119675000D01*
X88965809Y-119656093D01*
X88929845Y-119606593D01*
X88925000Y-119576000D01*
X88925000Y-118753081D01*
X88924931Y-118752776D01*
X88924887Y-118751987D01*
X88924897Y-118740732D01*
X88924896Y-118740729D01*
X88924906Y-118729583D01*
X88919679Y-118718697D01*
X88912406Y-118697869D01*
X88912201Y-118696970D01*
X88912201Y-118696969D01*
X88909721Y-118686100D01*
X88902369Y-118676874D01*
X88890544Y-118658024D01*
X88890260Y-118657433D01*
X88885435Y-118647384D01*
X88876731Y-118640423D01*
X88876729Y-118640421D01*
X88876009Y-118639846D01*
X88860420Y-118624231D01*
X88852895Y-118614788D01*
X88842855Y-118609945D01*
X88842852Y-118609943D01*
X88842262Y-118609659D01*
X88823443Y-118597809D01*
X88814222Y-118590435D01*
X88803356Y-118587936D01*
X88803353Y-118587935D01*
X88802457Y-118587729D01*
X88781641Y-118580419D01*
X88780808Y-118580017D01*
X88780805Y-118580016D01*
X88770766Y-118575174D01*
X88748369Y-118575155D01*
X88747575Y-118575109D01*
X88747101Y-118575000D01*
X87424000Y-118575000D01*
X87365809Y-118556093D01*
X87329845Y-118506593D01*
X87325000Y-118476000D01*
X87325000Y-113371817D01*
X95527608Y-113371817D01*
X95527608Y-113537383D01*
X95529156Y-113543414D01*
X95529157Y-113543418D01*
X95546941Y-113612679D01*
X95568783Y-113697746D01*
X95571784Y-113703204D01*
X95645545Y-113837378D01*
X95645548Y-113837382D01*
X95648544Y-113842832D01*
X95652803Y-113847368D01*
X95652805Y-113847370D01*
X95757618Y-113958985D01*
X95757621Y-113958987D01*
X95761881Y-113963524D01*
X95820313Y-114000606D01*
X95896417Y-114048903D01*
X95896420Y-114048905D01*
X95901673Y-114052238D01*
X95907590Y-114054161D01*
X95907593Y-114054162D01*
X95987487Y-114080121D01*
X96059135Y-114103401D01*
X96224373Y-114113797D01*
X96387006Y-114082773D01*
X96498086Y-114030503D01*
X96531179Y-114014931D01*
X96531181Y-114014930D01*
X96536814Y-114012279D01*
X96664384Y-113906743D01*
X96761701Y-113772798D01*
X96822649Y-113618860D01*
X96843400Y-113454600D01*
X96832942Y-113371817D01*
X99921808Y-113371817D01*
X99921808Y-113537383D01*
X99923356Y-113543414D01*
X99923357Y-113543418D01*
X99941141Y-113612679D01*
X99962983Y-113697746D01*
X99965984Y-113703204D01*
X100039745Y-113837378D01*
X100039748Y-113837382D01*
X100042744Y-113842832D01*
X100047003Y-113847368D01*
X100047005Y-113847370D01*
X100151818Y-113958985D01*
X100151821Y-113958987D01*
X100156081Y-113963524D01*
X100214513Y-114000606D01*
X100290617Y-114048903D01*
X100290620Y-114048905D01*
X100295873Y-114052238D01*
X100301790Y-114054161D01*
X100301793Y-114054162D01*
X100381687Y-114080121D01*
X100453335Y-114103401D01*
X100618573Y-114113797D01*
X100781206Y-114082773D01*
X100892286Y-114030503D01*
X100925379Y-114014931D01*
X100925381Y-114014930D01*
X100931014Y-114012279D01*
X101058584Y-113906743D01*
X101155901Y-113772798D01*
X101216849Y-113618860D01*
X101237600Y-113454600D01*
X101216849Y-113290340D01*
X101155901Y-113136402D01*
X101058584Y-113002457D01*
X100931014Y-112896921D01*
X100925381Y-112894270D01*
X100925379Y-112894269D01*
X100842008Y-112855038D01*
X100781206Y-112826427D01*
X100618573Y-112795403D01*
X100453335Y-112805799D01*
X100447410Y-112807724D01*
X100447411Y-112807724D01*
X100301793Y-112855038D01*
X100301790Y-112855039D01*
X100295873Y-112856962D01*
X100290620Y-112860295D01*
X100290617Y-112860297D01*
X100237086Y-112894269D01*
X100156081Y-112945676D01*
X100151821Y-112950213D01*
X100151818Y-112950215D01*
X100106487Y-112998488D01*
X100042744Y-113066368D01*
X100039748Y-113071818D01*
X100039745Y-113071822D01*
X100007011Y-113131366D01*
X99962983Y-113211454D01*
X99961435Y-113217484D01*
X99961434Y-113217486D01*
X99923357Y-113365782D01*
X99923356Y-113365786D01*
X99921808Y-113371817D01*
X96832942Y-113371817D01*
X96822649Y-113290340D01*
X96761701Y-113136402D01*
X96664384Y-113002457D01*
X96536814Y-112896921D01*
X96531181Y-112894270D01*
X96531179Y-112894269D01*
X96447808Y-112855038D01*
X96387006Y-112826427D01*
X96224373Y-112795403D01*
X96059135Y-112805799D01*
X96053210Y-112807724D01*
X96053211Y-112807724D01*
X95907593Y-112855038D01*
X95907590Y-112855039D01*
X95901673Y-112856962D01*
X95896420Y-112860295D01*
X95896417Y-112860297D01*
X95842886Y-112894269D01*
X95761881Y-112945676D01*
X95757621Y-112950213D01*
X95757618Y-112950215D01*
X95712287Y-112998488D01*
X95648544Y-113066368D01*
X95645548Y-113071818D01*
X95645545Y-113071822D01*
X95612811Y-113131366D01*
X95568783Y-113211454D01*
X95567235Y-113217484D01*
X95567234Y-113217486D01*
X95529157Y-113365782D01*
X95529156Y-113365786D01*
X95527608Y-113371817D01*
X87325000Y-113371817D01*
X87325000Y-100069824D01*
X103126538Y-100069824D01*
X103127453Y-100076822D01*
X103140824Y-100179074D01*
X103145121Y-100211939D01*
X103147962Y-100218395D01*
X103147962Y-100218396D01*
X103149870Y-100222731D01*
X103202845Y-100343126D01*
X103295068Y-100452838D01*
X103300939Y-100456746D01*
X103300940Y-100456747D01*
X103313235Y-100464931D01*
X103414377Y-100532257D01*
X103421104Y-100534359D01*
X103421107Y-100534360D01*
X103544448Y-100572894D01*
X103544449Y-100572894D01*
X103551180Y-100574997D01*
X103622831Y-100576311D01*
X103687427Y-100577495D01*
X103687429Y-100577495D01*
X103694481Y-100577624D01*
X103701284Y-100575769D01*
X103701286Y-100575769D01*
X103773033Y-100556208D01*
X103832758Y-100539925D01*
X103954897Y-100464931D01*
X103990945Y-100425106D01*
X104046346Y-100363900D01*
X104046346Y-100363899D01*
X104051078Y-100358672D01*
X104113570Y-100229689D01*
X104116557Y-100211939D01*
X104136715Y-100092120D01*
X104136715Y-100092117D01*
X104137349Y-100088350D01*
X104137500Y-100076000D01*
X104138034Y-100076007D01*
X104152462Y-100019303D01*
X104166161Y-100002166D01*
X104245831Y-99922496D01*
X104300348Y-99894719D01*
X104315835Y-99893500D01*
X105664428Y-99893500D01*
X105722619Y-99912407D01*
X105758583Y-99961907D01*
X105758583Y-100023093D01*
X105722619Y-100072593D01*
X105691633Y-100087689D01*
X105660369Y-100096624D01*
X105660367Y-100096625D01*
X105653589Y-100098562D01*
X105532375Y-100175042D01*
X105437499Y-100282469D01*
X105376588Y-100412206D01*
X105354538Y-100553824D01*
X105355453Y-100560822D01*
X105357408Y-100575769D01*
X105373121Y-100695939D01*
X105375962Y-100702395D01*
X105375962Y-100702396D01*
X105401116Y-100759562D01*
X105409500Y-100799434D01*
X105409500Y-114210123D01*
X105408814Y-114221759D01*
X105404725Y-114256308D01*
X105406054Y-114263585D01*
X105406054Y-114263588D01*
X105415337Y-114314414D01*
X105415846Y-114317471D01*
X105424636Y-114375935D01*
X105427761Y-114382443D01*
X105429058Y-114389545D01*
X105432469Y-114396111D01*
X105432469Y-114396112D01*
X105456293Y-114441975D01*
X105457682Y-114444754D01*
X105483265Y-114498029D01*
X105487368Y-114502468D01*
X105488892Y-114504729D01*
X105491493Y-114509736D01*
X105496525Y-114515628D01*
X105534951Y-114554054D01*
X105537644Y-114556856D01*
X105575202Y-114597486D01*
X105581077Y-114600899D01*
X105587958Y-114607061D01*
X107256915Y-116276018D01*
X107264651Y-116284724D01*
X107286189Y-116312045D01*
X107334819Y-116345655D01*
X107337310Y-116347436D01*
X107378903Y-116378158D01*
X107378907Y-116378160D01*
X107384857Y-116382555D01*
X107391669Y-116384947D01*
X107397608Y-116389052D01*
X107404669Y-116391285D01*
X107453933Y-116406865D01*
X107456885Y-116407850D01*
X107505661Y-116424979D01*
X107505665Y-116424980D01*
X107512648Y-116427432D01*
X107518689Y-116427669D01*
X107521365Y-116428191D01*
X107526744Y-116429892D01*
X107532365Y-116430334D01*
X107532368Y-116430335D01*
X107532454Y-116430341D01*
X107534469Y-116430500D01*
X107588787Y-116430500D01*
X107592673Y-116430576D01*
X107640590Y-116432459D01*
X107640593Y-116432459D01*
X107647984Y-116432749D01*
X107654551Y-116431008D01*
X107663776Y-116430500D01*
X110971500Y-116430500D01*
X111029691Y-116449407D01*
X111065655Y-116498907D01*
X111070500Y-116529500D01*
X111070500Y-117730000D01*
X111086143Y-117808641D01*
X111130690Y-117875310D01*
X111197359Y-117919857D01*
X111206922Y-117921759D01*
X111206924Y-117921760D01*
X111232047Y-117926757D01*
X111276000Y-117935500D01*
X112276000Y-117935500D01*
X112319953Y-117926757D01*
X112345076Y-117921760D01*
X112345078Y-117921759D01*
X112354641Y-117919857D01*
X112421310Y-117875310D01*
X112465857Y-117808641D01*
X112481500Y-117730000D01*
X112481500Y-116188243D01*
X113071000Y-116188243D01*
X113071000Y-117725142D01*
X113071948Y-117734763D01*
X113084703Y-117798888D01*
X113092022Y-117816557D01*
X113125624Y-117866847D01*
X113139153Y-117880376D01*
X113189443Y-117913978D01*
X113207112Y-117921297D01*
X113271237Y-117934052D01*
X113280858Y-117935000D01*
X113560320Y-117935000D01*
X113573005Y-117930878D01*
X113576000Y-117926757D01*
X113576000Y-116195680D01*
X113573583Y-116188243D01*
X113976000Y-116188243D01*
X113976000Y-117919320D01*
X113980122Y-117932005D01*
X113984243Y-117935000D01*
X114271142Y-117935000D01*
X114280763Y-117934052D01*
X114344888Y-117921297D01*
X114362557Y-117913978D01*
X114412847Y-117880376D01*
X114426376Y-117866847D01*
X114459978Y-117816557D01*
X114467297Y-117798888D01*
X114480052Y-117734763D01*
X114481000Y-117725142D01*
X114481000Y-116195680D01*
X114476878Y-116182995D01*
X114472757Y-116180000D01*
X113991680Y-116180000D01*
X113978995Y-116184122D01*
X113976000Y-116188243D01*
X113573583Y-116188243D01*
X113571878Y-116182995D01*
X113567757Y-116180000D01*
X113086680Y-116180000D01*
X113073995Y-116184122D01*
X113071000Y-116188243D01*
X112481500Y-116188243D01*
X112481500Y-114234858D01*
X113071000Y-114234858D01*
X113071000Y-115764320D01*
X113075122Y-115777005D01*
X113079243Y-115780000D01*
X113560320Y-115780000D01*
X113573005Y-115775878D01*
X113576000Y-115771757D01*
X113576000Y-114040680D01*
X113573583Y-114033243D01*
X113976000Y-114033243D01*
X113976000Y-115764320D01*
X113980122Y-115777005D01*
X113984243Y-115780000D01*
X114465320Y-115780000D01*
X114478005Y-115775878D01*
X114481000Y-115771757D01*
X114481000Y-114234858D01*
X114480052Y-114225237D01*
X114467297Y-114161112D01*
X114459978Y-114143443D01*
X114426376Y-114093153D01*
X114412847Y-114079624D01*
X114362557Y-114046022D01*
X114344888Y-114038703D01*
X114280763Y-114025948D01*
X114271142Y-114025000D01*
X113991680Y-114025000D01*
X113978995Y-114029122D01*
X113976000Y-114033243D01*
X113573583Y-114033243D01*
X113571878Y-114027995D01*
X113567757Y-114025000D01*
X113280858Y-114025000D01*
X113271237Y-114025948D01*
X113207112Y-114038703D01*
X113189443Y-114046022D01*
X113139153Y-114079624D01*
X113125624Y-114093153D01*
X113092022Y-114143443D01*
X113084703Y-114161112D01*
X113071948Y-114225237D01*
X113071000Y-114234858D01*
X112481500Y-114234858D01*
X112481500Y-114230000D01*
X112465857Y-114151359D01*
X112421310Y-114084690D01*
X112354641Y-114040143D01*
X112345075Y-114038240D01*
X112345072Y-114038239D01*
X112306185Y-114030503D01*
X112252801Y-114000606D01*
X112227186Y-113945041D01*
X112226500Y-113933406D01*
X112226500Y-111971611D01*
X112245407Y-111913420D01*
X112255496Y-111901607D01*
X114106018Y-110051085D01*
X114114724Y-110043349D01*
X114142045Y-110021811D01*
X114175655Y-109973181D01*
X114177436Y-109970690D01*
X114208158Y-109929097D01*
X114208160Y-109929093D01*
X114212555Y-109923143D01*
X114214947Y-109916331D01*
X114219052Y-109910392D01*
X114236875Y-109854035D01*
X114237843Y-109851132D01*
X114257431Y-109795352D01*
X114257668Y-109789319D01*
X114258191Y-109786634D01*
X114259892Y-109781256D01*
X114260500Y-109773531D01*
X114260500Y-109719203D01*
X114260576Y-109715316D01*
X114262458Y-109667410D01*
X114262749Y-109660016D01*
X114261008Y-109653449D01*
X114260500Y-109644224D01*
X114260500Y-108730000D01*
X115170500Y-108730000D01*
X115170500Y-112130000D01*
X115186143Y-112208641D01*
X115230690Y-112275310D01*
X115297359Y-112319857D01*
X115306922Y-112321759D01*
X115306924Y-112321760D01*
X115332200Y-112326787D01*
X115376000Y-112335500D01*
X116876000Y-112335500D01*
X116919800Y-112326787D01*
X116945076Y-112321760D01*
X116945078Y-112321759D01*
X116954641Y-112319857D01*
X117021310Y-112275310D01*
X117065857Y-112208641D01*
X117081500Y-112130000D01*
X117081500Y-108730000D01*
X117065857Y-108651359D01*
X117021310Y-108584690D01*
X116954641Y-108540143D01*
X116945078Y-108538241D01*
X116945076Y-108538240D01*
X116919800Y-108533213D01*
X116876000Y-108524500D01*
X115376000Y-108524500D01*
X115332200Y-108533213D01*
X115306924Y-108538240D01*
X115306922Y-108538241D01*
X115297359Y-108540143D01*
X115230690Y-108584690D01*
X115186143Y-108651359D01*
X115170500Y-108730000D01*
X114260500Y-108730000D01*
X114260500Y-107561878D01*
X114261186Y-107550242D01*
X114264405Y-107523041D01*
X114265275Y-107515693D01*
X114264114Y-107509337D01*
X114264394Y-107499681D01*
X114264713Y-107496131D01*
X114265349Y-107492350D01*
X114265500Y-107480000D01*
X114245182Y-107338123D01*
X114185860Y-107207651D01*
X114092303Y-107099074D01*
X113972033Y-107021118D01*
X113965275Y-107019097D01*
X113965273Y-107019096D01*
X113841479Y-106982074D01*
X113834718Y-106980052D01*
X113748694Y-106979527D01*
X113698448Y-106979220D01*
X113691396Y-106979177D01*
X113684620Y-106981114D01*
X113684617Y-106981114D01*
X113560369Y-107016624D01*
X113560367Y-107016625D01*
X113553589Y-107018562D01*
X113432375Y-107095042D01*
X113337499Y-107202469D01*
X113276588Y-107332206D01*
X113254538Y-107473824D01*
X113273121Y-107615939D01*
X113330845Y-107747126D01*
X113335383Y-107752525D01*
X113335384Y-107752526D01*
X113336281Y-107753593D01*
X113336715Y-107754664D01*
X113339110Y-107758512D01*
X113338442Y-107758928D01*
X113359253Y-107810303D01*
X113359500Y-107817297D01*
X113359500Y-109482388D01*
X113340593Y-109540579D01*
X113330504Y-109552392D01*
X111479977Y-111402919D01*
X111471262Y-111410661D01*
X111443955Y-111432189D01*
X111439747Y-111438278D01*
X111410369Y-111480783D01*
X111408562Y-111483312D01*
X111373445Y-111530858D01*
X111371054Y-111537668D01*
X111366948Y-111543608D01*
X111364717Y-111550661D01*
X111364715Y-111550666D01*
X111349127Y-111599957D01*
X111348160Y-111602856D01*
X111328568Y-111658648D01*
X111328331Y-111664688D01*
X111327809Y-111667367D01*
X111326108Y-111672744D01*
X111325500Y-111680469D01*
X111325500Y-111734787D01*
X111325424Y-111738673D01*
X111323251Y-111793984D01*
X111324992Y-111800551D01*
X111325500Y-111809776D01*
X111325500Y-113933406D01*
X111306593Y-113991597D01*
X111257093Y-114027561D01*
X111245815Y-114030503D01*
X111206928Y-114038239D01*
X111206925Y-114038240D01*
X111197359Y-114040143D01*
X111130690Y-114084690D01*
X111086143Y-114151359D01*
X111070500Y-114230000D01*
X111070500Y-115430500D01*
X111051593Y-115488691D01*
X111002093Y-115524655D01*
X110971500Y-115529500D01*
X107825612Y-115529500D01*
X107767421Y-115510593D01*
X107755608Y-115500504D01*
X106339496Y-114084392D01*
X106311719Y-114029875D01*
X106310500Y-114014388D01*
X106310500Y-108730000D01*
X108470500Y-108730000D01*
X108470500Y-112130000D01*
X108486143Y-112208641D01*
X108530690Y-112275310D01*
X108597359Y-112319857D01*
X108606922Y-112321759D01*
X108606924Y-112321760D01*
X108632200Y-112326787D01*
X108676000Y-112335500D01*
X110176000Y-112335500D01*
X110219800Y-112326787D01*
X110245076Y-112321760D01*
X110245078Y-112321759D01*
X110254641Y-112319857D01*
X110321310Y-112275310D01*
X110365857Y-112208641D01*
X110381500Y-112130000D01*
X110381500Y-108730000D01*
X110365857Y-108651359D01*
X110321310Y-108584690D01*
X110254641Y-108540143D01*
X110245078Y-108538241D01*
X110245076Y-108538240D01*
X110219800Y-108533213D01*
X110176000Y-108524500D01*
X108676000Y-108524500D01*
X108632200Y-108533213D01*
X108606924Y-108538240D01*
X108606922Y-108538241D01*
X108597359Y-108540143D01*
X108530690Y-108584690D01*
X108486143Y-108651359D01*
X108470500Y-108730000D01*
X106310500Y-108730000D01*
X106310500Y-100800537D01*
X106320406Y-100757371D01*
X106338494Y-100720038D01*
X106338494Y-100720037D01*
X106341570Y-100713689D01*
X106344557Y-100695939D01*
X106364715Y-100576120D01*
X106364715Y-100576117D01*
X106365349Y-100572350D01*
X106365500Y-100560000D01*
X106345182Y-100418123D01*
X106320529Y-100363900D01*
X106288780Y-100294073D01*
X106288780Y-100294072D01*
X106285860Y-100287651D01*
X106192303Y-100179074D01*
X106072033Y-100101118D01*
X106065275Y-100099097D01*
X106065273Y-100099096D01*
X106025993Y-100087349D01*
X105975659Y-100052561D01*
X105955386Y-99994832D01*
X105972918Y-99936212D01*
X106021557Y-99899092D01*
X106054359Y-99893500D01*
X106507802Y-99893500D01*
X106565993Y-99912407D01*
X106583585Y-99928798D01*
X106592529Y-99939439D01*
X106592532Y-99939441D01*
X106597068Y-99944838D01*
X106602939Y-99948746D01*
X106602940Y-99948747D01*
X106615235Y-99956931D01*
X106716377Y-100024257D01*
X106723104Y-100026359D01*
X106723107Y-100026360D01*
X106846448Y-100064894D01*
X106846449Y-100064894D01*
X106853180Y-100066997D01*
X106924830Y-100068310D01*
X106989427Y-100069495D01*
X106989429Y-100069495D01*
X106996481Y-100069624D01*
X107003284Y-100067769D01*
X107003286Y-100067769D01*
X107059067Y-100052561D01*
X107134758Y-100031925D01*
X107256897Y-99956931D01*
X107353078Y-99850672D01*
X107415570Y-99721689D01*
X107421360Y-99687279D01*
X107438715Y-99584120D01*
X107438715Y-99584117D01*
X107439349Y-99580350D01*
X107439500Y-99568000D01*
X107419182Y-99426123D01*
X107384920Y-99350766D01*
X107362780Y-99302073D01*
X107362780Y-99302072D01*
X107359860Y-99295651D01*
X107266303Y-99187074D01*
X107146033Y-99109118D01*
X107139275Y-99107097D01*
X107139273Y-99107096D01*
X107015479Y-99070074D01*
X107008718Y-99068052D01*
X106922694Y-99067527D01*
X106872448Y-99067220D01*
X106865396Y-99067177D01*
X106858620Y-99069114D01*
X106858617Y-99069114D01*
X106734369Y-99104624D01*
X106734367Y-99104625D01*
X106727589Y-99106562D01*
X106606375Y-99183042D01*
X106601708Y-99188326D01*
X106601706Y-99188328D01*
X106583420Y-99209034D01*
X106530729Y-99240134D01*
X106509216Y-99242500D01*
X104158284Y-99242500D01*
X104149656Y-99242123D01*
X104148525Y-99242024D01*
X104111194Y-99238758D01*
X104073658Y-99248816D01*
X104065233Y-99250683D01*
X104051800Y-99253052D01*
X104035490Y-99255928D01*
X104035489Y-99255928D01*
X104026962Y-99257432D01*
X104019463Y-99261761D01*
X104013994Y-99263752D01*
X104008694Y-99266224D01*
X104000325Y-99268466D01*
X103993230Y-99273434D01*
X103993228Y-99273435D01*
X103968497Y-99290752D01*
X103961215Y-99295391D01*
X103927559Y-99314822D01*
X103902742Y-99344398D01*
X103896907Y-99350766D01*
X103701081Y-99546592D01*
X103646564Y-99574369D01*
X103630473Y-99575586D01*
X103570448Y-99575220D01*
X103563396Y-99575177D01*
X103556620Y-99577114D01*
X103556617Y-99577114D01*
X103432369Y-99612624D01*
X103432367Y-99612625D01*
X103425589Y-99614562D01*
X103304375Y-99691042D01*
X103209499Y-99798469D01*
X103148588Y-99928206D01*
X103126538Y-100069824D01*
X87325000Y-100069824D01*
X87325000Y-90753081D01*
X87324931Y-90752776D01*
X87324887Y-90751987D01*
X87324897Y-90740732D01*
X87324896Y-90740729D01*
X87324906Y-90729583D01*
X87319679Y-90718697D01*
X87312406Y-90697869D01*
X87312201Y-90696970D01*
X87312201Y-90696969D01*
X87309721Y-90686100D01*
X87302369Y-90676874D01*
X87290544Y-90658024D01*
X87290260Y-90657433D01*
X87285435Y-90647384D01*
X87276731Y-90640423D01*
X87276729Y-90640421D01*
X87276009Y-90639846D01*
X87260420Y-90624231D01*
X87252895Y-90614788D01*
X87242855Y-90609945D01*
X87242852Y-90609943D01*
X87242262Y-90609659D01*
X87223443Y-90597809D01*
X87214222Y-90590435D01*
X87203356Y-90587936D01*
X87203353Y-90587935D01*
X87202457Y-90587729D01*
X87181641Y-90580419D01*
X87180808Y-90580017D01*
X87180805Y-90580016D01*
X87170766Y-90575174D01*
X87148369Y-90575155D01*
X87147575Y-90575109D01*
X87147101Y-90575000D01*
X84874000Y-90575000D01*
X84815809Y-90556093D01*
X84779845Y-90506593D01*
X84775000Y-90476000D01*
X84775000Y-86074000D01*
X84793907Y-86015809D01*
X84843407Y-85979845D01*
X84874000Y-85975000D01*
X85646919Y-85975000D01*
X85647224Y-85974931D01*
X85648013Y-85974887D01*
X85659268Y-85974897D01*
X85659271Y-85974896D01*
X85670417Y-85974906D01*
X85681303Y-85969679D01*
X85702131Y-85962406D01*
X85703030Y-85962201D01*
X85703031Y-85962201D01*
X85713900Y-85959721D01*
X85723126Y-85952369D01*
X85741976Y-85940544D01*
X85752616Y-85935435D01*
X85759577Y-85926731D01*
X85759579Y-85926729D01*
X85760154Y-85926009D01*
X85775769Y-85910420D01*
X85785212Y-85902895D01*
X85790055Y-85892855D01*
X85790057Y-85892852D01*
X85790341Y-85892262D01*
X85802191Y-85873443D01*
X85809565Y-85864222D01*
X85812064Y-85853356D01*
X85812065Y-85853353D01*
X85812271Y-85852457D01*
X85819581Y-85831641D01*
X85819983Y-85830808D01*
X85819984Y-85830805D01*
X85824826Y-85820766D01*
X85824845Y-85798369D01*
X85824891Y-85797575D01*
X85825000Y-85797101D01*
X85825000Y-80319059D01*
X90820346Y-80319059D01*
X90820561Y-80321947D01*
X90824868Y-80379905D01*
X90835062Y-80517081D01*
X90844640Y-80645979D01*
X90845189Y-80648819D01*
X90845190Y-80648823D01*
X90881434Y-80836153D01*
X90906911Y-80967832D01*
X91006307Y-81280222D01*
X91141471Y-81578882D01*
X91196292Y-81669939D01*
X91309065Y-81857255D01*
X91309071Y-81857264D01*
X91310557Y-81859732D01*
X91312323Y-81862013D01*
X91312330Y-81862023D01*
X91509476Y-82116641D01*
X91511255Y-82118938D01*
X91513284Y-82121007D01*
X91513289Y-82121012D01*
X91596442Y-82205776D01*
X91740824Y-82352957D01*
X91996128Y-82558594D01*
X92273681Y-82733040D01*
X92427863Y-82806416D01*
X92567078Y-82872670D01*
X92567086Y-82872673D01*
X92569691Y-82873913D01*
X92880115Y-82979288D01*
X93200713Y-83047725D01*
X93527107Y-83078291D01*
X93529997Y-83078223D01*
X93530000Y-83078223D01*
X93851955Y-83070636D01*
X93851956Y-83070636D01*
X93854838Y-83070568D01*
X93944764Y-83057850D01*
X94176567Y-83025066D01*
X94176571Y-83025065D01*
X94179429Y-83024661D01*
X94283225Y-82997334D01*
X94493661Y-82941931D01*
X94493669Y-82941928D01*
X94496447Y-82941197D01*
X94801563Y-82821316D01*
X95090608Y-82666656D01*
X95092972Y-82665010D01*
X95092980Y-82665005D01*
X95357258Y-82480985D01*
X95357260Y-82480983D01*
X95359636Y-82479329D01*
X95604970Y-82261893D01*
X95655057Y-82205776D01*
X95821334Y-82019478D01*
X95821335Y-82019477D01*
X95823260Y-82017320D01*
X95824913Y-82014963D01*
X95824919Y-82014956D01*
X96009868Y-81751310D01*
X96011525Y-81748948D01*
X96044579Y-81687689D01*
X96103287Y-81578882D01*
X96167193Y-81460444D01*
X96243552Y-81268073D01*
X96287070Y-81158440D01*
X96287071Y-81158438D01*
X96288138Y-81155749D01*
X96310208Y-81073096D01*
X96371962Y-80841823D01*
X96371963Y-80841817D01*
X96372709Y-80839024D01*
X96419749Y-80514594D01*
X96430000Y-80275000D01*
X96410844Y-79947739D01*
X96353636Y-79624947D01*
X96299608Y-79445432D01*
X96259995Y-79313811D01*
X96259992Y-79313803D01*
X96259159Y-79311035D01*
X96128703Y-79010288D01*
X95964050Y-78726817D01*
X95767448Y-78464491D01*
X95541583Y-78226895D01*
X95323578Y-78045582D01*
X95291773Y-78019130D01*
X95291771Y-78019129D01*
X95289540Y-78017273D01*
X95066435Y-77872110D01*
X95017183Y-77840064D01*
X95017180Y-77840062D01*
X95014762Y-77838489D01*
X95012178Y-77837209D01*
X94723588Y-77694265D01*
X94723583Y-77694263D01*
X94721001Y-77692984D01*
X94447832Y-77595444D01*
X94414984Y-77583715D01*
X94414983Y-77583715D01*
X94412270Y-77582746D01*
X94092786Y-77509281D01*
X94089919Y-77508967D01*
X94089913Y-77508966D01*
X93895956Y-77487725D01*
X93766913Y-77473592D01*
X93592824Y-77474959D01*
X93441993Y-77476144D01*
X93441988Y-77476144D01*
X93439102Y-77476167D01*
X93436233Y-77476527D01*
X93436231Y-77476527D01*
X93191968Y-77507168D01*
X93113829Y-77516970D01*
X92795539Y-77595444D01*
X92792835Y-77596458D01*
X92792834Y-77596458D01*
X92563474Y-77682441D01*
X92488578Y-77710518D01*
X92197139Y-77860619D01*
X92194746Y-77862230D01*
X92194736Y-77862236D01*
X91927606Y-78042079D01*
X91925203Y-78043697D01*
X91676483Y-78257252D01*
X91454378Y-78498367D01*
X91261921Y-78763748D01*
X91260503Y-78766280D01*
X91116842Y-79022805D01*
X91101740Y-79049771D01*
X91100633Y-79052436D01*
X91100631Y-79052441D01*
X91041690Y-79194388D01*
X90976024Y-79352529D01*
X90886490Y-79667887D01*
X90886029Y-79670751D01*
X90841415Y-79947739D01*
X90834360Y-79991537D01*
X90834236Y-79994428D01*
X90834236Y-79994431D01*
X90829702Y-80100407D01*
X90820346Y-80319059D01*
X85825000Y-80319059D01*
X85825000Y-61461824D01*
X99824538Y-61461824D01*
X99825453Y-61468822D01*
X99830132Y-61504601D01*
X99843121Y-61603939D01*
X99845962Y-61610395D01*
X99845962Y-61610396D01*
X99878715Y-61684831D01*
X99900845Y-61735126D01*
X99993068Y-61844838D01*
X100112377Y-61924257D01*
X100189023Y-61948203D01*
X100238927Y-61983602D01*
X100258500Y-62042698D01*
X100258500Y-78975715D01*
X100258123Y-78984344D01*
X100254758Y-79022805D01*
X100256999Y-79031168D01*
X100264816Y-79060342D01*
X100266685Y-79068774D01*
X100273432Y-79107038D01*
X100277763Y-79114539D01*
X100279757Y-79120017D01*
X100282223Y-79125306D01*
X100284465Y-79133675D01*
X100289433Y-79140771D01*
X100289434Y-79140772D01*
X100306758Y-79165514D01*
X100311396Y-79172795D01*
X100330822Y-79206441D01*
X100360398Y-79231258D01*
X100366766Y-79237093D01*
X109738907Y-88609234D01*
X109744741Y-88615601D01*
X109769559Y-88645178D01*
X109777060Y-88649508D01*
X109777059Y-88649508D01*
X109803204Y-88664603D01*
X109810486Y-88669242D01*
X109825708Y-88679900D01*
X109842325Y-88691535D01*
X109850694Y-88693777D01*
X109855983Y-88696243D01*
X109861461Y-88698237D01*
X109868962Y-88702568D01*
X109877490Y-88704072D01*
X109877491Y-88704072D01*
X109907226Y-88709315D01*
X109915658Y-88711184D01*
X109953195Y-88721242D01*
X109991656Y-88717877D01*
X110000285Y-88717500D01*
X114381802Y-88717500D01*
X114439993Y-88736407D01*
X114457585Y-88752798D01*
X114466529Y-88763439D01*
X114466532Y-88763441D01*
X114471068Y-88768838D01*
X114476939Y-88772746D01*
X114476940Y-88772747D01*
X114489235Y-88780931D01*
X114590377Y-88848257D01*
X114597104Y-88850359D01*
X114597107Y-88850360D01*
X114720448Y-88888894D01*
X114720449Y-88888894D01*
X114727180Y-88890997D01*
X114798830Y-88892310D01*
X114863427Y-88893495D01*
X114863429Y-88893495D01*
X114870481Y-88893624D01*
X114877284Y-88891769D01*
X114877286Y-88891769D01*
X114924065Y-88879015D01*
X115008758Y-88855925D01*
X115130897Y-88780931D01*
X115195721Y-88709315D01*
X115222346Y-88679900D01*
X115222346Y-88679899D01*
X115227078Y-88674672D01*
X115289570Y-88545689D01*
X115294761Y-88514838D01*
X115312715Y-88408120D01*
X115312715Y-88408117D01*
X115313349Y-88404350D01*
X115313419Y-88398670D01*
X115313453Y-88395826D01*
X115313500Y-88392000D01*
X115293182Y-88250123D01*
X115239395Y-88131824D01*
X115826538Y-88131824D01*
X115845121Y-88273939D01*
X115847962Y-88280395D01*
X115847962Y-88280396D01*
X115896708Y-88391178D01*
X115902845Y-88405126D01*
X115907382Y-88410523D01*
X115907383Y-88410525D01*
X115951914Y-88463500D01*
X115995068Y-88514838D01*
X116000939Y-88518746D01*
X116000940Y-88518747D01*
X116013235Y-88526931D01*
X116114377Y-88594257D01*
X116121104Y-88596359D01*
X116121107Y-88596360D01*
X116244448Y-88634894D01*
X116244449Y-88634894D01*
X116251180Y-88636997D01*
X116322831Y-88638311D01*
X116387427Y-88639495D01*
X116387429Y-88639495D01*
X116394481Y-88639624D01*
X116401284Y-88637769D01*
X116401286Y-88637769D01*
X116448065Y-88625015D01*
X116532758Y-88601925D01*
X116654897Y-88526931D01*
X116682837Y-88496063D01*
X116735904Y-88465610D01*
X116756234Y-88463500D01*
X118345715Y-88463500D01*
X118354344Y-88463877D01*
X118392805Y-88467242D01*
X118430342Y-88457184D01*
X118438774Y-88455315D01*
X118468509Y-88450072D01*
X118468510Y-88450072D01*
X118477038Y-88448568D01*
X118484539Y-88444237D01*
X118490017Y-88442243D01*
X118495306Y-88439777D01*
X118503675Y-88437535D01*
X118510772Y-88432566D01*
X118535514Y-88415242D01*
X118542796Y-88410603D01*
X118547097Y-88408120D01*
X118576441Y-88391178D01*
X118582008Y-88384544D01*
X118582011Y-88384541D01*
X118601260Y-88361601D01*
X118607094Y-88355233D01*
X119343228Y-87619098D01*
X119349596Y-87613263D01*
X119372543Y-87594009D01*
X119372545Y-87594007D01*
X119379178Y-87588441D01*
X119398610Y-87554784D01*
X119403249Y-87547503D01*
X119420566Y-87522771D01*
X119425535Y-87515675D01*
X119427777Y-87507307D01*
X119430244Y-87502018D01*
X119432239Y-87496536D01*
X119436568Y-87489038D01*
X119443314Y-87450782D01*
X119445183Y-87442352D01*
X119453002Y-87413172D01*
X119453002Y-87413167D01*
X119455243Y-87404805D01*
X119451877Y-87366335D01*
X119451500Y-87357707D01*
X119451500Y-61892206D01*
X119470407Y-61834015D01*
X119477103Y-61825769D01*
X119540346Y-61755900D01*
X119540346Y-61755899D01*
X119545078Y-61750672D01*
X119607570Y-61621689D01*
X119609712Y-61608962D01*
X119630715Y-61484120D01*
X119630715Y-61484117D01*
X119631349Y-61480350D01*
X119631500Y-61468000D01*
X119611182Y-61326123D01*
X119551860Y-61195651D01*
X119458303Y-61087074D01*
X119338033Y-61009118D01*
X119331275Y-61007097D01*
X119331273Y-61007096D01*
X119207479Y-60970074D01*
X119200718Y-60968052D01*
X119114694Y-60967527D01*
X119064448Y-60967220D01*
X119057396Y-60967177D01*
X119050620Y-60969114D01*
X119050617Y-60969114D01*
X118926369Y-61004624D01*
X118926367Y-61004625D01*
X118919589Y-61006562D01*
X118798375Y-61083042D01*
X118703499Y-61190469D01*
X118642588Y-61320206D01*
X118620538Y-61461824D01*
X118621453Y-61468822D01*
X118626132Y-61504601D01*
X118639121Y-61603939D01*
X118641962Y-61610395D01*
X118641962Y-61610396D01*
X118674715Y-61684831D01*
X118696845Y-61735126D01*
X118701382Y-61740523D01*
X118701383Y-61740525D01*
X118777283Y-61830818D01*
X118800253Y-61887528D01*
X118800500Y-61894520D01*
X118800500Y-87200166D01*
X118781593Y-87258357D01*
X118771504Y-87270170D01*
X118258169Y-87783504D01*
X118203652Y-87811281D01*
X118188165Y-87812500D01*
X116757439Y-87812500D01*
X116699248Y-87793593D01*
X116682446Y-87778129D01*
X116664303Y-87757074D01*
X116544033Y-87679118D01*
X116537275Y-87677097D01*
X116537273Y-87677096D01*
X116413479Y-87640074D01*
X116406718Y-87638052D01*
X116320694Y-87637527D01*
X116270448Y-87637220D01*
X116263396Y-87637177D01*
X116256620Y-87639114D01*
X116256617Y-87639114D01*
X116132369Y-87674624D01*
X116132367Y-87674625D01*
X116125589Y-87676562D01*
X116004375Y-87753042D01*
X115909499Y-87860469D01*
X115848588Y-87990206D01*
X115826538Y-88131824D01*
X115239395Y-88131824D01*
X115233860Y-88119651D01*
X115140303Y-88011074D01*
X115020033Y-87933118D01*
X115013275Y-87931097D01*
X115013273Y-87931096D01*
X114889479Y-87894074D01*
X114882718Y-87892052D01*
X114796694Y-87891527D01*
X114746448Y-87891220D01*
X114739396Y-87891177D01*
X114732620Y-87893114D01*
X114732617Y-87893114D01*
X114608369Y-87928624D01*
X114608367Y-87928625D01*
X114601589Y-87930562D01*
X114480375Y-88007042D01*
X114475708Y-88012326D01*
X114475706Y-88012328D01*
X114457420Y-88033034D01*
X114404729Y-88064134D01*
X114383216Y-88066500D01*
X110157835Y-88066500D01*
X110099644Y-88047593D01*
X110087831Y-88037504D01*
X107894988Y-85844661D01*
X116901238Y-85844661D01*
X116901893Y-85850594D01*
X116901893Y-85850598D01*
X116914497Y-85964758D01*
X116919716Y-86012028D01*
X116921768Y-86017635D01*
X116942395Y-86074000D01*
X116977583Y-86170157D01*
X117071498Y-86309917D01*
X117075910Y-86313932D01*
X117075913Y-86313935D01*
X117191622Y-86419222D01*
X117196040Y-86423242D01*
X117344018Y-86503587D01*
X117349787Y-86505101D01*
X117349791Y-86505102D01*
X117501112Y-86544800D01*
X117506891Y-86546316D01*
X117512860Y-86546410D01*
X117512862Y-86546410D01*
X117573871Y-86547368D01*
X117675254Y-86548961D01*
X117693422Y-86544800D01*
X117833569Y-86512702D01*
X117833571Y-86512701D01*
X117839388Y-86511369D01*
X117854861Y-86503587D01*
X117984491Y-86438390D01*
X117984493Y-86438389D01*
X117989817Y-86435711D01*
X117994353Y-86431837D01*
X118113319Y-86330231D01*
X118113320Y-86330230D01*
X118117857Y-86326355D01*
X118216116Y-86189613D01*
X118223938Y-86170157D01*
X118276697Y-86038913D01*
X118276697Y-86038911D01*
X118278921Y-86033380D01*
X118282805Y-86006094D01*
X118302190Y-85869882D01*
X118302190Y-85869878D01*
X118302646Y-85866676D01*
X118302800Y-85852000D01*
X118282571Y-85684836D01*
X118241133Y-85575174D01*
X118225161Y-85532905D01*
X118225160Y-85532903D01*
X118223051Y-85527322D01*
X118202007Y-85496702D01*
X118131058Y-85393470D01*
X118131055Y-85393467D01*
X118127678Y-85388553D01*
X118044261Y-85314231D01*
X118006410Y-85280507D01*
X118006408Y-85280506D01*
X118001956Y-85276539D01*
X117853144Y-85197747D01*
X117771489Y-85177236D01*
X117695624Y-85158180D01*
X117695621Y-85158180D01*
X117689834Y-85156726D01*
X117604833Y-85156281D01*
X117527418Y-85155875D01*
X117527416Y-85155875D01*
X117521452Y-85155844D01*
X117357721Y-85195153D01*
X117280071Y-85235231D01*
X117213398Y-85269643D01*
X117213396Y-85269645D01*
X117208092Y-85272382D01*
X117081204Y-85383073D01*
X117077773Y-85387955D01*
X117077772Y-85387956D01*
X116987814Y-85515954D01*
X116984383Y-85520836D01*
X116979656Y-85532961D01*
X116935153Y-85647105D01*
X116923217Y-85677718D01*
X116901238Y-85844661D01*
X107894988Y-85844661D01*
X106878988Y-84828661D01*
X111821238Y-84828661D01*
X111821893Y-84834594D01*
X111821893Y-84834598D01*
X111835162Y-84954779D01*
X111839716Y-84996028D01*
X111897583Y-85154157D01*
X111991498Y-85293917D01*
X111995910Y-85297932D01*
X111995913Y-85297935D01*
X112085167Y-85379150D01*
X112116040Y-85407242D01*
X112264018Y-85487587D01*
X112269787Y-85489101D01*
X112269791Y-85489102D01*
X112421112Y-85528800D01*
X112426891Y-85530316D01*
X112432860Y-85530410D01*
X112432862Y-85530410D01*
X112493871Y-85531368D01*
X112595254Y-85532961D01*
X112641348Y-85522404D01*
X112753569Y-85496702D01*
X112753571Y-85496701D01*
X112759388Y-85495369D01*
X112774861Y-85487587D01*
X112904491Y-85422390D01*
X112904493Y-85422389D01*
X112909817Y-85419711D01*
X112914353Y-85415837D01*
X113033319Y-85314231D01*
X113033320Y-85314230D01*
X113037857Y-85310355D01*
X113136116Y-85173613D01*
X113143938Y-85154157D01*
X113196697Y-85022913D01*
X113196697Y-85022911D01*
X113198921Y-85017380D01*
X113202805Y-84990094D01*
X113222190Y-84853882D01*
X113222190Y-84853878D01*
X113222646Y-84850676D01*
X113222800Y-84836000D01*
X113202571Y-84668836D01*
X113143051Y-84511322D01*
X113122007Y-84480702D01*
X113051058Y-84377470D01*
X113051055Y-84377467D01*
X113047678Y-84372553D01*
X112964261Y-84298231D01*
X112926410Y-84264507D01*
X112926408Y-84264506D01*
X112921956Y-84260539D01*
X112773144Y-84181747D01*
X112691489Y-84161236D01*
X112615624Y-84142180D01*
X112615621Y-84142180D01*
X112609834Y-84140726D01*
X112524833Y-84140281D01*
X112447418Y-84139875D01*
X112447416Y-84139875D01*
X112441452Y-84139844D01*
X112277721Y-84179153D01*
X112200071Y-84219231D01*
X112133398Y-84253643D01*
X112133396Y-84253645D01*
X112128092Y-84256382D01*
X112001204Y-84367073D01*
X111997773Y-84371955D01*
X111997772Y-84371956D01*
X111907814Y-84499954D01*
X111904383Y-84504836D01*
X111843217Y-84661718D01*
X111821238Y-84828661D01*
X106878988Y-84828661D01*
X105862988Y-83812661D01*
X116901238Y-83812661D01*
X116901893Y-83818594D01*
X116901893Y-83818598D01*
X116915162Y-83938779D01*
X116919716Y-83980028D01*
X116977583Y-84138157D01*
X117071498Y-84277917D01*
X117075910Y-84281932D01*
X117075913Y-84281935D01*
X117165167Y-84363150D01*
X117196040Y-84391242D01*
X117344018Y-84471587D01*
X117349787Y-84473101D01*
X117349791Y-84473102D01*
X117501112Y-84512800D01*
X117506891Y-84514316D01*
X117512860Y-84514410D01*
X117512862Y-84514410D01*
X117573871Y-84515368D01*
X117675254Y-84516961D01*
X117721348Y-84506404D01*
X117833569Y-84480702D01*
X117833571Y-84480701D01*
X117839388Y-84479369D01*
X117854861Y-84471587D01*
X117984491Y-84406390D01*
X117984493Y-84406389D01*
X117989817Y-84403711D01*
X117994353Y-84399837D01*
X118113319Y-84298231D01*
X118113320Y-84298230D01*
X118117857Y-84294355D01*
X118216116Y-84157613D01*
X118223938Y-84138157D01*
X118276697Y-84006913D01*
X118276697Y-84006911D01*
X118278921Y-84001380D01*
X118282805Y-83974094D01*
X118302190Y-83837882D01*
X118302190Y-83837878D01*
X118302646Y-83834676D01*
X118302800Y-83820000D01*
X118282571Y-83652836D01*
X118223051Y-83495322D01*
X118215238Y-83483954D01*
X118131058Y-83361470D01*
X118131055Y-83361467D01*
X118127678Y-83356553D01*
X118001956Y-83244539D01*
X117853144Y-83165747D01*
X117771489Y-83145236D01*
X117695624Y-83126180D01*
X117695621Y-83126180D01*
X117689834Y-83124726D01*
X117604833Y-83124281D01*
X117527418Y-83123875D01*
X117527416Y-83123875D01*
X117521452Y-83123844D01*
X117357721Y-83163153D01*
X117280071Y-83203231D01*
X117213398Y-83237643D01*
X117213396Y-83237645D01*
X117208092Y-83240382D01*
X117081204Y-83351073D01*
X117077773Y-83355955D01*
X117077772Y-83355956D01*
X117073897Y-83361470D01*
X116984383Y-83488836D01*
X116923217Y-83645718D01*
X116901238Y-83812661D01*
X105862988Y-83812661D01*
X100938496Y-78888169D01*
X100910719Y-78833652D01*
X100909500Y-78818165D01*
X100909500Y-62731824D01*
X110238538Y-62731824D01*
X110257121Y-62873939D01*
X110259962Y-62880395D01*
X110259962Y-62880396D01*
X110261870Y-62884731D01*
X110314845Y-63005126D01*
X110319382Y-63010523D01*
X110319383Y-63010525D01*
X110395283Y-63100818D01*
X110418253Y-63157528D01*
X110418500Y-63164520D01*
X110418500Y-77451715D01*
X110418123Y-77460344D01*
X110414758Y-77498805D01*
X110421154Y-77522675D01*
X110424816Y-77536342D01*
X110426685Y-77544774D01*
X110433432Y-77583038D01*
X110437763Y-77590539D01*
X110439757Y-77596017D01*
X110442223Y-77601306D01*
X110444465Y-77609675D01*
X110449433Y-77616771D01*
X110449434Y-77616772D01*
X110466758Y-77641514D01*
X110471396Y-77648795D01*
X110490822Y-77682441D01*
X110520398Y-77707258D01*
X110526766Y-77713093D01*
X112786907Y-79973234D01*
X112792741Y-79979601D01*
X112817559Y-80009178D01*
X112825060Y-80013508D01*
X112825059Y-80013508D01*
X112851204Y-80028603D01*
X112858486Y-80033242D01*
X112870790Y-80041856D01*
X112890325Y-80055535D01*
X112898689Y-80057776D01*
X112903974Y-80060241D01*
X112909463Y-80062239D01*
X112916962Y-80066568D01*
X112925491Y-80068072D01*
X112955225Y-80073315D01*
X112963654Y-80075183D01*
X113001194Y-80085242D01*
X113039656Y-80081877D01*
X113048284Y-80081500D01*
X113108165Y-80081500D01*
X113166356Y-80100407D01*
X113178169Y-80110496D01*
X114528498Y-81460824D01*
X114556275Y-81515341D01*
X114556977Y-81525007D01*
X114556538Y-81527824D01*
X114575121Y-81669939D01*
X114577962Y-81676395D01*
X114577962Y-81676396D01*
X114608767Y-81746404D01*
X114632845Y-81801126D01*
X114637382Y-81806523D01*
X114637383Y-81806525D01*
X114691003Y-81870313D01*
X114725068Y-81910838D01*
X114730939Y-81914746D01*
X114730940Y-81914747D01*
X114743235Y-81922931D01*
X114844377Y-81990257D01*
X114851104Y-81992359D01*
X114851107Y-81992360D01*
X114974448Y-82030894D01*
X114974449Y-82030894D01*
X114981180Y-82032997D01*
X115052830Y-82034310D01*
X115117427Y-82035495D01*
X115117429Y-82035495D01*
X115124481Y-82035624D01*
X115131284Y-82033769D01*
X115131286Y-82033769D01*
X115183703Y-82019478D01*
X115262758Y-81997925D01*
X115384897Y-81922931D01*
X115481078Y-81816672D01*
X115543570Y-81687689D01*
X115546557Y-81669939D01*
X115566715Y-81550120D01*
X115566715Y-81550117D01*
X115567349Y-81546350D01*
X115567500Y-81534000D01*
X115547182Y-81392123D01*
X115487860Y-81261651D01*
X115394303Y-81153074D01*
X115274033Y-81075118D01*
X115267275Y-81073097D01*
X115267273Y-81073096D01*
X115143479Y-81036074D01*
X115136718Y-81034052D01*
X115099138Y-81033823D01*
X115062330Y-81033598D01*
X115004256Y-81014336D01*
X114992930Y-81004604D01*
X114265824Y-80277497D01*
X113527093Y-79538766D01*
X113521258Y-79532398D01*
X113496441Y-79502822D01*
X113462795Y-79483396D01*
X113455514Y-79478758D01*
X113430772Y-79461434D01*
X113430771Y-79461433D01*
X113423675Y-79456465D01*
X113415306Y-79454223D01*
X113410017Y-79451757D01*
X113404539Y-79449763D01*
X113397038Y-79445432D01*
X113388510Y-79443928D01*
X113388509Y-79443928D01*
X113358774Y-79438685D01*
X113350342Y-79436816D01*
X113321168Y-79428999D01*
X113321169Y-79428999D01*
X113312805Y-79426758D01*
X113274383Y-79430120D01*
X113274344Y-79430123D01*
X113265715Y-79430500D01*
X113205835Y-79430500D01*
X113147644Y-79411593D01*
X113135831Y-79401504D01*
X111098496Y-77364169D01*
X111070719Y-77309652D01*
X111069500Y-77294165D01*
X111069500Y-63162206D01*
X111088407Y-63104015D01*
X111095103Y-63095769D01*
X111158346Y-63025900D01*
X111158346Y-63025899D01*
X111163078Y-63020672D01*
X111225570Y-62891689D01*
X111228557Y-62873939D01*
X111248715Y-62754120D01*
X111248715Y-62754117D01*
X111249349Y-62750350D01*
X111249500Y-62738000D01*
X111229182Y-62596123D01*
X111169860Y-62465651D01*
X111076303Y-62357074D01*
X110956033Y-62279118D01*
X110949275Y-62277097D01*
X110949273Y-62277096D01*
X110825479Y-62240074D01*
X110818718Y-62238052D01*
X110732694Y-62237527D01*
X110682448Y-62237220D01*
X110675396Y-62237177D01*
X110668620Y-62239114D01*
X110668617Y-62239114D01*
X110544369Y-62274624D01*
X110544367Y-62274625D01*
X110537589Y-62276562D01*
X110416375Y-62353042D01*
X110321499Y-62460469D01*
X110260588Y-62590206D01*
X110238538Y-62731824D01*
X100909500Y-62731824D01*
X100909500Y-61740284D01*
X100909877Y-61731656D01*
X100912487Y-61701821D01*
X100913242Y-61693194D01*
X100903183Y-61655654D01*
X100901315Y-61647225D01*
X100896072Y-61617491D01*
X100894568Y-61608962D01*
X100890239Y-61601463D01*
X100888241Y-61595974D01*
X100885776Y-61590689D01*
X100883535Y-61582325D01*
X100869856Y-61562790D01*
X100861242Y-61550486D01*
X100856605Y-61543207D01*
X100854821Y-61540118D01*
X100848627Y-61529390D01*
X100835369Y-61478674D01*
X100835396Y-61476529D01*
X100835500Y-61468000D01*
X100815182Y-61326123D01*
X100755860Y-61195651D01*
X100662303Y-61087074D01*
X100542033Y-61009118D01*
X100535275Y-61007097D01*
X100535273Y-61007096D01*
X100411479Y-60970074D01*
X100404718Y-60968052D01*
X100318694Y-60967527D01*
X100268448Y-60967220D01*
X100261396Y-60967177D01*
X100254620Y-60969114D01*
X100254617Y-60969114D01*
X100130369Y-61004624D01*
X100130367Y-61004625D01*
X100123589Y-61006562D01*
X100002375Y-61083042D01*
X99907499Y-61190469D01*
X99846588Y-61320206D01*
X99824538Y-61461824D01*
X85825000Y-61461824D01*
X85825000Y-60753081D01*
X85824931Y-60752776D01*
X85824887Y-60751987D01*
X85824897Y-60740732D01*
X85824896Y-60740729D01*
X85824906Y-60729583D01*
X85819679Y-60718697D01*
X85812406Y-60697869D01*
X85812201Y-60696970D01*
X85812201Y-60696969D01*
X85809721Y-60686100D01*
X85802369Y-60676874D01*
X85790544Y-60658024D01*
X85790260Y-60657433D01*
X85785435Y-60647384D01*
X85776731Y-60640423D01*
X85776729Y-60640421D01*
X85776009Y-60639846D01*
X85760420Y-60624231D01*
X85752895Y-60614788D01*
X85742855Y-60609945D01*
X85742852Y-60609943D01*
X85742262Y-60609659D01*
X85723443Y-60597809D01*
X85714222Y-60590435D01*
X85703356Y-60587936D01*
X85703353Y-60587935D01*
X85702457Y-60587729D01*
X85681641Y-60580419D01*
X85680808Y-60580017D01*
X85680805Y-60580016D01*
X85670766Y-60575174D01*
X85648369Y-60575155D01*
X85647575Y-60575109D01*
X85647101Y-60575000D01*
X84874000Y-60575000D01*
X84815809Y-60556093D01*
X84779845Y-60506593D01*
X84775000Y-60476000D01*
X84775000Y-57026904D01*
X84793907Y-56968713D01*
X84843407Y-56932749D01*
X84873146Y-56927908D01*
X126375148Y-56570269D01*
X126433498Y-56588674D01*
G37*
%TD.AperFunction*%
%TD*%
M02*
