M48
; DRILL file {KiCad (5.99.0-10506-gb986797469)} date Thu Jun  3 16:00:06 2021
; FORMAT={-:-/ absolute / inch / decimal}
; #@! TF.CreationDate,2021-06-03T16:00:06+02:00
; #@! TF.GenerationSoftware,Kicad,Pcbnew,(5.99.0-10506-gb986797469)
; #@! TF.FileFunction,Plated,1,2,PTH
FMAT,2
INCH
; #@! TA.AperFunction,Plated,PTH,ViaDrill
T1C0.0098
; #@! TA.AperFunction,Plated,PTH,ComponentDrill
T2C0.0118
%
G90
G05
T1
X3.565Y-2.352
X3.565Y-2.5071
X3.5756Y-3.7173
X3.5894Y-2.6976
X3.6978Y-2.1927
X3.7059Y-2.5906
X3.7799Y-2.5236
X3.7819Y-2.7339
X3.7957Y-2.4689
X3.8559Y-2.274
X3.874Y-3.7457
X3.8858Y-3.8382
X3.8992Y-3.6197
X3.9Y-3.5567
X3.9008Y-3.5898
X3.9209Y-4.0602
X3.924Y-3.8496
X3.9291Y-2.9114
X3.9311Y-2.6165
X3.9685Y-3.3346
X4.1114Y-3.4213
X4.152Y-4.5055
X4.213Y-2.55
X4.3496Y-2.8181
X4.3728Y-4.0004
X4.5646Y-2.5528
X4.6024Y-2.6087
T2
X3.8665Y-2.0939
T0
M30
