%TF.GenerationSoftware,KiCad,Pcbnew,(5.99.0-10506-gb986797469)*%
%TF.CreationDate,2021-06-08T09:07:57+02:00*%
%TF.ProjectId,quadkey,71756164-6b65-4792-9e6b-696361645f70,rev?*%
%TF.SameCoordinates,Original*%
%TF.FileFunction,Legend,Bot*%
%TF.FilePolarity,Positive*%
%FSLAX46Y46*%
G04 Gerber Fmt 4.6, Leading zero omitted, Abs format (unit mm)*
G04 Created by KiCad (PCBNEW (5.99.0-10506-gb986797469)) date 2021-06-08 09:07:57*
%MOMM*%
%LPD*%
G01*
G04 APERTURE LIST*
%ADD10C,0.015000*%
%ADD11C,0.120000*%
G04 APERTURE END LIST*
D10*
%TO.C,BT1*%
X114018407Y-112962508D02*
X113883424Y-113007502D01*
X113838429Y-113052497D01*
X113793435Y-113142485D01*
X113793435Y-113277469D01*
X113838429Y-113367457D01*
X113883424Y-113412452D01*
X113973412Y-113457446D01*
X114333367Y-113457446D01*
X114333367Y-112512564D01*
X114018407Y-112512564D01*
X113928418Y-112557559D01*
X113883424Y-112602553D01*
X113838429Y-112692542D01*
X113838429Y-112782530D01*
X113883424Y-112872519D01*
X113928418Y-112917514D01*
X114018407Y-112962508D01*
X114333367Y-112962508D01*
X113523469Y-112512564D02*
X112983536Y-112512564D01*
X113253502Y-113457446D02*
X113253502Y-112512564D01*
X112173637Y-113457446D02*
X112713570Y-113457446D01*
X112443603Y-113457446D02*
X112443603Y-112512564D01*
X112533592Y-112647547D01*
X112623581Y-112737536D01*
X112713570Y-112782530D01*
D11*
X108276000Y-108530000D02*
X108276000Y-118030000D01*
X114776000Y-118030000D02*
X117276000Y-118030000D01*
X117276000Y-117530000D02*
X117276000Y-108530000D01*
X111776000Y-119530000D02*
X111776000Y-120530000D01*
X111776000Y-120530000D02*
X111776000Y-118530000D01*
X108276000Y-118030000D02*
X111276000Y-118030000D01*
X117276000Y-118030000D02*
X117276000Y-117530000D01*
X111276000Y-118030000D02*
X114776000Y-118030000D01*
X112776000Y-119530000D02*
X110776000Y-119530000D01*
X117276000Y-108530000D02*
X108276000Y-108530000D01*
%TD*%
M02*
