%TF.GenerationSoftware,KiCad,Pcbnew,(5.99.0-10117-g2c3ee0d85f)*%
%TF.CreationDate,2021-04-29T08:13:59+02:00*%
%TF.ProjectId,som asset tracker,736f6d20-6173-4736-9574-20747261636b,rev?*%
%TF.SameCoordinates,Original*%
%TF.FileFunction,Soldermask,Top*%
%TF.FilePolarity,Negative*%
%FSLAX46Y46*%
G04 Gerber Fmt 4.6, Leading zero omitted, Abs format (unit mm)*
G04 Created by KiCad (PCBNEW (5.99.0-10117-g2c3ee0d85f)) date 2021-04-29 08:13:59*
%MOMM*%
%LPD*%
G01*
G04 APERTURE LIST*
G04 Aperture macros list*
%AMRoundRect*
0 Rectangle with rounded corners*
0 $1 Rounding radius*
0 $2 $3 $4 $5 $6 $7 $8 $9 X,Y pos of 4 corners*
0 Add a 4 corners polygon primitive as box body*
4,1,4,$2,$3,$4,$5,$6,$7,$8,$9,$2,$3,0*
0 Add four circle primitives for the rounded corners*
1,1,$1+$1,$2,$3*
1,1,$1+$1,$4,$5*
1,1,$1+$1,$6,$7*
1,1,$1+$1,$8,$9*
0 Add four rect primitives between the rounded corners*
20,1,$1+$1,$2,$3,$4,$5,0*
20,1,$1+$1,$4,$5,$6,$7,0*
20,1,$1+$1,$6,$7,$8,$9,0*
20,1,$1+$1,$8,$9,$2,$3,0*%
%AMOutline5P*
0 Free polygon, 5 corners , with rotation*
0 The origin of the aperture is its center*
0 number of corners: always 8*
0 $1 to $10 corner X, Y*
0 $11 Rotation angle, in degrees counterclockwise*
0 create outline with 8 corners*
4,1,5,$1,$2,$3,$4,$5,$6,$7,$8,$9,$10,$1,$2,$11*%
%AMOutline6P*
0 Free polygon, 6 corners , with rotation*
0 The origin of the aperture is its center*
0 number of corners: always 6*
0 $1 to $12 corner X, Y*
0 $13 Rotation angle, in degrees counterclockwise*
0 create outline with 6 corners*
4,1,6,$1,$2,$3,$4,$5,$6,$7,$8,$9,$10,$11,$12,$1,$2,$13*%
%AMOutline7P*
0 Free polygon, 7 corners , with rotation*
0 The origin of the aperture is its center*
0 number of corners: always 7*
0 $1 to $14 corner X, Y*
0 $15 Rotation angle, in degrees counterclockwise*
0 create outline with 7 corners*
4,1,7,$1,$2,$3,$4,$5,$6,$7,$8,$9,$10,$11,$12,$13,$14,$1,$2,$15*%
%AMOutline8P*
0 Free polygon, 8 corners , with rotation*
0 The origin of the aperture is its center*
0 number of corners: always 8*
0 $1 to $16 corner X, Y*
0 $17 Rotation angle, in degrees counterclockwise*
0 create outline with 8 corners*
4,1,8,$1,$2,$3,$4,$5,$6,$7,$8,$9,$10,$11,$12,$13,$14,$15,$16,$1,$2,$17*%
G04 Aperture macros list end*
%ADD10RoundRect,0.212500X0.400000X0.212500X-0.400000X0.212500X-0.400000X-0.212500X0.400000X-0.212500X0*%
%ADD11R,2.310000X4.220000*%
%ADD12RoundRect,0.249999X-0.450001X-1.425001X0.450001X-1.425001X0.450001X1.425001X-0.450001X1.425001X0*%
%ADD13RoundRect,0.250000X0.300000X-0.250000X0.300000X0.250000X-0.300000X0.250000X-0.300000X-0.250000X0*%
%ADD14R,2.000000X2.000000*%
%ADD15C,2.000000*%
%ADD16R,2.790000X0.740000*%
%ADD17RoundRect,0.250000X0.250000X0.300000X-0.250000X0.300000X-0.250000X-0.300000X0.250000X-0.300000X0*%
%ADD18RoundRect,0.250000X-0.250000X-0.300000X0.250000X-0.300000X0.250000X0.300000X-0.250000X0.300000X0*%
%ADD19C,1.500000*%
%ADD20RoundRect,0.250000X-0.300000X0.250000X-0.300000X-0.250000X0.300000X-0.250000X0.300000X0.250000X0*%
%ADD21R,1.399540X0.998220*%
%ADD22C,2.200000*%
%ADD23C,1.700000*%
%ADD24R,3.180000X3.180000*%
%ADD25R,3.960000X3.960000*%
%ADD26RoundRect,0.212500X-0.400000X-0.212500X0.400000X-0.212500X0.400000X0.212500X-0.400000X0.212500X0*%
%ADD27RoundRect,0.137500X0.262500X-0.137500X0.262500X0.137500X-0.262500X0.137500X-0.262500X-0.137500X0*%
%ADD28R,0.800000X0.550000*%
%ADD29Outline5P,0.400000X0.700000X0.400000X-0.700000X-0.400000X-0.700000X-0.400000X0.540000X-0.240000X0.700000X0.000000*%
%ADD30R,0.800000X1.400000*%
%ADD31R,0.600000X1.970000*%
%ADD32R,0.900000X1.600000*%
%ADD33R,2.500000X1.400000*%
%ADD34R,1.400000X2.500000*%
%ADD35R,1.000000X1.000000*%
%ADD36R,1.000000X3.500000*%
%ADD37R,1.500000X3.400000*%
%ADD38R,0.800000X0.300000*%
%ADD39R,0.300000X0.800000*%
G04 APERTURE END LIST*
D10*
%TO.C,D2*%
X196412500Y-71650000D03*
X194787500Y-71650000D03*
%TD*%
D11*
%TO.C,PZ1*%
X174450000Y-54345000D03*
X174450000Y-44255000D03*
%TD*%
D12*
%TO.C,R7*%
X115500000Y-53500000D03*
X121600000Y-53500000D03*
%TD*%
D13*
%TO.C,R3*%
X191400000Y-75200000D03*
X192670000Y-75200000D03*
%TD*%
%TO.C,R1*%
X191420000Y-78890000D03*
X192690000Y-78890000D03*
%TD*%
D14*
%TO.C,J2*%
X155905000Y-49805000D03*
D15*
X150905000Y-49805000D03*
%TD*%
D16*
%TO.C,CON1*%
X195645000Y-89230000D03*
X191575000Y-89230000D03*
X195645000Y-87960000D03*
X191575000Y-87960000D03*
X195645000Y-86690000D03*
X191575000Y-86690000D03*
X195645000Y-85420000D03*
X191575000Y-85420000D03*
X195645000Y-84150000D03*
X191575000Y-84150000D03*
%TD*%
D13*
%TO.C,C12*%
X139950000Y-64150000D03*
X141220000Y-64150000D03*
%TD*%
D17*
%TO.C,C8*%
X129290000Y-113520000D03*
X129290000Y-112250000D03*
%TD*%
D18*
%TO.C,L1*%
X132085000Y-125500000D03*
X132085000Y-126770000D03*
%TD*%
D19*
%TO.C,J7*%
X118600000Y-73000000D03*
X121140000Y-73000000D03*
%TD*%
D13*
%TO.C,R12*%
X115865000Y-67105000D03*
X117135000Y-67105000D03*
%TD*%
D20*
%TO.C,C4*%
X132885000Y-57395000D03*
X131615000Y-57395000D03*
%TD*%
D21*
%TO.C,Q1*%
X174455820Y-62399960D03*
X174455820Y-60500040D03*
X172256180Y-61450000D03*
%TD*%
D19*
%TO.C,J4*%
X128340000Y-95840000D03*
X130880000Y-95840000D03*
X133420000Y-95840000D03*
X135960000Y-95840000D03*
X138500000Y-95840000D03*
%TD*%
D22*
%TO.C,REF\u002A\u002A*%
X100310000Y-41980000D03*
%TD*%
D14*
%TO.C,J1*%
X108145000Y-58455000D03*
D15*
X108145000Y-53455000D03*
%TD*%
D19*
%TO.C,AE1*%
X132300000Y-135950000D03*
D23*
X129700000Y-138550000D03*
X129700000Y-133450000D03*
X134800000Y-138550000D03*
X134800000Y-133450000D03*
%TD*%
D20*
%TO.C,R11*%
X121985000Y-67695000D03*
X120715000Y-67695000D03*
%TD*%
D24*
%TO.C,BT1*%
X107000000Y-98590000D03*
X107000000Y-78550000D03*
D25*
X107000000Y-88570000D03*
%TD*%
D26*
%TO.C,D4*%
X150345000Y-121930000D03*
X151970000Y-121930000D03*
%TD*%
D13*
%TO.C,C1*%
X127530000Y-57520000D03*
X128800000Y-57520000D03*
%TD*%
D19*
%TO.C,U2*%
X128160000Y-53290000D03*
X130700000Y-53290000D03*
X133240000Y-53290000D03*
%TD*%
D27*
%TO.C,U6*%
X102580000Y-70805000D03*
D28*
X102580000Y-71755000D03*
X102580000Y-72705000D03*
X105180000Y-72705000D03*
X105180000Y-70805000D03*
%TD*%
D29*
%TO.C,U5*%
X149590000Y-61600000D03*
D30*
X152130000Y-61600000D03*
X154670000Y-61600000D03*
X154670000Y-55300000D03*
X152130000Y-55300000D03*
X149590000Y-55300000D03*
%TD*%
D13*
%TO.C,C2*%
X127550000Y-59750000D03*
X128820000Y-59750000D03*
%TD*%
D10*
%TO.C,D1*%
X197047500Y-78905000D03*
X195422500Y-78905000D03*
%TD*%
D19*
%TO.C,J6*%
X148450000Y-68200000D03*
X148450000Y-70740000D03*
%TD*%
D13*
%TO.C,C11*%
X136050000Y-70400000D03*
X137320000Y-70400000D03*
%TD*%
D10*
%TO.C,D3*%
X196950000Y-75250000D03*
X195325000Y-75250000D03*
%TD*%
D19*
%TO.C,J3*%
X194740000Y-59260000D03*
X194740000Y-56720000D03*
X194740000Y-54180000D03*
X194740000Y-51640000D03*
X194740000Y-49100000D03*
%TD*%
D24*
%TO.C,BT3*%
X106470000Y-125130000D03*
X106470000Y-105090000D03*
D25*
X106470000Y-115110000D03*
%TD*%
D20*
%TO.C,C3*%
X132900000Y-59950000D03*
X131630000Y-59950000D03*
%TD*%
D31*
%TO.C,U1*%
X121605000Y-58980000D03*
X120335000Y-58980000D03*
X119065000Y-58980000D03*
X117795000Y-58980000D03*
X117795000Y-63920000D03*
X119065000Y-63920000D03*
X120335000Y-63920000D03*
X121605000Y-63920000D03*
%TD*%
D32*
%TO.C,mod2*%
X139840000Y-113180000D03*
X138740000Y-113180000D03*
X137640000Y-113180000D03*
X136540000Y-113180000D03*
X135440000Y-113180000D03*
X134340000Y-113180000D03*
X133240000Y-113180000D03*
X132140000Y-113180000D03*
X131040000Y-113180000D03*
X131040000Y-122380000D03*
X132140000Y-122380000D03*
X133240000Y-122380000D03*
X134340000Y-122380000D03*
X135440000Y-122380000D03*
X136540000Y-122380000D03*
X137640000Y-122380000D03*
X138740000Y-122380000D03*
X139840000Y-122380000D03*
%TD*%
D20*
%TO.C,R4*%
X155710000Y-121920000D03*
X154440000Y-121920000D03*
%TD*%
D13*
%TO.C,R10*%
X144300000Y-60750000D03*
X145570000Y-60750000D03*
%TD*%
D18*
%TO.C,R9*%
X176906000Y-63350000D03*
X176906000Y-64620000D03*
%TD*%
%TO.C,C10*%
X132115000Y-128980000D03*
X132115000Y-130250000D03*
%TD*%
D19*
%TO.C,J5*%
X158300000Y-86350000D03*
X160840000Y-86350000D03*
X163380000Y-86350000D03*
X165920000Y-86350000D03*
X168460000Y-86350000D03*
%TD*%
D13*
%TO.C,R2*%
X191350000Y-71650000D03*
X192620000Y-71650000D03*
%TD*%
D17*
%TO.C,C7*%
X126510000Y-113550000D03*
X126510000Y-112280000D03*
%TD*%
D33*
%TO.C,mod1*%
X160522000Y-137765000D03*
X160522000Y-135765000D03*
X160522000Y-133765000D03*
X160522000Y-131765000D03*
X160522000Y-129765000D03*
X160522000Y-127765000D03*
X160522000Y-125765000D03*
X160522000Y-123765000D03*
X160522000Y-121765000D03*
X160522000Y-119765000D03*
X160522000Y-117765000D03*
X160522000Y-115765000D03*
X160522000Y-113765000D03*
X160522000Y-111765000D03*
X160522000Y-109765000D03*
X160522000Y-107765000D03*
X160522000Y-105765000D03*
X160522000Y-103765000D03*
X160522000Y-101765000D03*
X160522000Y-99765000D03*
D34*
X162530000Y-96757000D03*
X164530000Y-96757000D03*
X166530000Y-96757000D03*
X168530000Y-96757000D03*
X170530000Y-96757000D03*
X172530000Y-96757000D03*
X174530000Y-96757000D03*
X176530000Y-96757000D03*
X178530000Y-96757000D03*
X180530000Y-96757000D03*
X182530000Y-96757000D03*
X184530000Y-96757000D03*
X186530000Y-96757000D03*
X188530000Y-96757000D03*
X190530000Y-96757000D03*
X192530000Y-96757000D03*
X194530000Y-96757000D03*
D33*
X196538000Y-99765000D03*
X196538000Y-101765000D03*
X196538000Y-103765000D03*
X196538000Y-105765000D03*
X196538000Y-107765000D03*
X196538000Y-109765000D03*
X196538000Y-111765000D03*
X196538000Y-113765000D03*
X196538000Y-115765000D03*
X196538000Y-117765000D03*
X196538000Y-119765000D03*
X196538000Y-121765000D03*
X196538000Y-123765000D03*
X196538000Y-125765000D03*
X196538000Y-127765000D03*
X196538000Y-129765000D03*
X196538000Y-131765000D03*
X196538000Y-133765000D03*
X196538000Y-135765000D03*
X196538000Y-137765000D03*
D14*
X192530000Y-136765000D03*
X192530000Y-100765000D03*
X164530000Y-100765000D03*
D35*
X184530000Y-110765000D03*
X186530000Y-110765000D03*
X188530000Y-110765000D03*
%TD*%
D36*
%TO.C,BT2*%
X146770000Y-132290000D03*
X148770000Y-132290000D03*
D37*
X144420000Y-137840000D03*
X151120000Y-137840000D03*
%TD*%
D22*
%TO.C,REF\u002A\u002A*%
X196100000Y-42180000D03*
%TD*%
D38*
%TO.C,U7*%
X137708250Y-66269750D03*
X137708250Y-66769750D03*
X137708250Y-67269750D03*
X137708250Y-67769750D03*
X137708250Y-68269750D03*
D39*
X138483250Y-68544750D03*
X138983250Y-68544750D03*
X139483250Y-68544750D03*
D38*
X140258250Y-68269750D03*
X140258250Y-67769750D03*
X140258250Y-67269750D03*
X140258250Y-66769750D03*
X140258250Y-66269750D03*
D39*
X139483250Y-65994750D03*
X138983250Y-65994750D03*
X138483250Y-65994750D03*
%TD*%
D22*
%TO.C,REF\u002A\u002A*%
X100240000Y-137780000D03*
%TD*%
M02*
