M48
; DRILL file {KiCad (5.99.0-10117-g2c3ee0d85f)} date Thu Apr 29 08:14:02 2021
; FORMAT={2:4/ absolute / inch / suppress leading zeros}
; #@! TF.CreationDate,2021-04-29T08:14:02+02:00
; #@! TF.GenerationSoftware,Kicad,Pcbnew,(5.99.0-10117-g2c3ee0d85f)
; #@! TF.FileFunction,Plated,1,2,PTH
FMAT,2
INCH,TZ
; #@! TA.AperFunction,Plated,PTH,ViaDrill
T1C0.0098
; #@! TA.AperFunction,Plated,PTH,ComponentDrill
T2C0.0402
; #@! TA.AperFunction,Plated,PTH,ComponentDrill
T3C0.0472
; #@! TA.AperFunction,Plated,PTH,ComponentDrill
T4C0.0531
; #@! TA.AperFunction,Plated,PTH,ComponentDrill
T5C0.0551
%
G90
G05
T1
X39882Y-28228
X40094Y-38000
X40256Y-46020
X41933Y-45362
X42126Y-34898
X45984Y-21909
X47382Y-26024
X47693Y-29563
X47776Y-22224
X50305Y-45433
X50551Y-40531
X50551Y-46083
X50925Y-45374
X51256Y-48874
X51720Y-43429
X52028Y-35138
X52618Y-48906
X53307Y-42441
X53776Y-43807
X54142Y-45524
X54272Y-28937
X54469Y-28209
X54488Y-40906
X54819Y-46020
X55059Y-45446
X55571Y-42402
X55669Y-24380
X55827Y-25965
X56201Y-27106
X57146Y-25315
X58238Y-46929
X58547Y-53890
X59185Y-48594
X59252Y-44646
X59843Y-23465
X59961Y-28425
X62087Y-45416
X62126Y-27323
X62142Y-43217
X62193Y-49504
X62193Y-53449
X62252Y-40660
X63976Y-37264
X64154Y-35827
X64516Y-46413
X65358Y-42697
X65689Y-36614
X66535Y-40118
X66555Y-41378
X67854Y-41614
X67894Y-36476
X68563Y-35837
X68681Y-37094
X68705Y-40906
X68760Y-25315
X69646Y-26634
X71106Y-39618
X71752Y-31673
X71752Y-47224
X71772Y-44429
X71791Y-45965
X72165Y-46004
X72185Y-44331
X72205Y-47205
X72638Y-46161
X72638Y-47165
X72677Y-44331
X72717Y-29685
X74055Y-28169
X74098Y-34224
X74134Y-34815
X74150Y-53878
X74386Y-33126
X74559Y-35972
X74685Y-39480
X75091Y-45657
X75429Y-36031
X75610Y-44862
X75650Y-36567
X76291Y-43213
X76484Y-49476
X76516Y-39012
X76677Y-40079
X76972Y-32398
T2
X46693Y-28740
X47693Y-28740
X50457Y-20980
X50528Y-37732
X51457Y-20980
X51528Y-37732
X52457Y-20980
X52528Y-37732
X53528Y-37732
X54528Y-37732
X58445Y-26850
X58445Y-27850
X62323Y-33996
X63323Y-33996
X64323Y-33996
X65323Y-33996
X66323Y-33996
X76669Y-19331
X76669Y-20331
X76669Y-21331
X76669Y-22331
X76669Y-23331
T3
X52087Y-53524
T4
X51063Y-52539
X51063Y-54547
X53071Y-52539
X53071Y-54547
T5
X42577Y-21045
X42577Y-23014
X59411Y-19608
X61380Y-19608
T0
M30
