M48
; DRILL file {KiCad (5.99.0-10506-gb986797469)} date Thu Jun  3 11:04:38 2021
; FORMAT={-:-/ absolute / inch / decimal}
; #@! TF.CreationDate,2021-06-03T11:04:38+02:00
; #@! TF.GenerationSoftware,Kicad,Pcbnew,(5.99.0-10506-gb986797469)
; #@! TF.FileFunction,NonPlated,1,2,NPTH
FMAT,2
INCH
; #@! TA.AperFunction,NonPlated,NPTH,ComponentDrill
T1C0.0390
; #@! TA.AperFunction,NonPlated,NPTH,ComponentDrill
T2C0.0935
%
G90
G05
T1
X3.6261Y-4.7855
X3.7935Y-6.8577
X3.7935Y-6.9377
X3.9261Y-4.7455
X3.9261Y-4.8255
X4.0935Y-6.8977
X5.3724Y-4.6406
X5.6724Y-4.6006
X5.6724Y-4.6806
T2
X3.6261Y-4.6855
X3.6261Y-4.8855
X3.8511Y-4.6855
X3.8511Y-4.8855
X3.8685Y-6.7977
X3.8685Y-6.9977
X4.0935Y-6.7977
X4.0935Y-6.9977
X5.3724Y-4.5406
X5.3724Y-4.7406
X5.5974Y-4.5406
X5.5974Y-4.7406
T0
M30
