M48
; DRILL file {KiCad (5.99.0-10506-gb986797469)} date Fri Jun  4 08:45:00 2021
; FORMAT={-:-/ absolute / inch / decimal}
; #@! TF.CreationDate,2021-06-04T08:45:00+02:00
; #@! TF.GenerationSoftware,Kicad,Pcbnew,(5.99.0-10506-gb986797469)
; #@! TF.FileFunction,NonPlated,1,2,NPTH
FMAT,2
INCH
; #@! TA.AperFunction,NonPlated,NPTH,ComponentDrill
T1C0.0390
; #@! TA.AperFunction,NonPlated,NPTH,ComponentDrill
T2C0.0935
%
G90
G05
T1
X3.6261Y-4.7855
X3.7935Y-6.8577
X3.7935Y-6.9377
X3.9261Y-4.7455
X3.9261Y-4.8255
X4.0935Y-6.8977
X5.3344Y-4.9297
X5.3344Y-5.0097
X5.6344Y-4.9697
T2
X3.6261Y-4.6855
X3.6261Y-4.8855
X3.8511Y-4.6855
X3.8511Y-4.8855
X3.8685Y-6.7977
X3.8685Y-6.9977
X4.0935Y-6.7977
X4.0935Y-6.9977
X5.4094Y-4.8697
X5.4094Y-5.0697
X5.6344Y-4.8697
X5.6344Y-5.0697
T0
M30
