M48
; DRILL file {KiCad (5.99.0-10506-gb986797469)} date Tue Jun  8 11:43:46 2021
; FORMAT={-:-/ absolute / inch / decimal}
; #@! TF.CreationDate,2021-06-08T11:43:46+02:00
; #@! TF.GenerationSoftware,Kicad,Pcbnew,(5.99.0-10506-gb986797469)
; #@! TF.FileFunction,Plated,1,2,PTH
FMAT,2
INCH
; #@! TA.AperFunction,Plated,PTH,ViaDrill
T1C0.0098
; #@! TA.AperFunction,Plated,PTH,ComponentDrill
T2C0.0197
; #@! TA.AperFunction,Plated,PTH,ComponentDrill
T3C0.0315
; #@! TA.AperFunction,Plated,PTH,ComponentDrill
T4C0.0402
; #@! TA.AperFunction,Plated,PTH,ComponentDrill
T5C0.0551
%
G90
G05
T1
X3.0712Y-3.8339
X3.4033Y-6.6867
X3.53Y-5.97
X3.63Y-5.0726
X3.7203Y-5.5294
X3.7921Y-3.8284
X3.8Y-4.77
X3.8Y-4.93
X3.86Y-4.77
X3.92Y-5.31
X3.97Y-5.57
X4.01Y-7.32
X4.0232Y-4.3635
X4.1637Y-3.9202
X4.2043Y-4.8008
X4.2949Y-4.0921
X4.3028Y-4.1807
X4.3575Y-4.2181
X4.7464Y-3.7139
X4.8906Y-4.5406
X4.93Y-5.43
X5.185Y-5.8996
X5.19Y-5.62
X5.2102Y-4.1476
X5.2157Y-5.8059
X5.2531Y-4.8969
X5.2626Y-5.2146
X5.3126Y-5.2161
X5.3445Y-5.698
X5.3764Y-5.8287
X5.4079Y-5.7858
X5.4378Y-5.7071
X5.4752Y-5.6846
X5.4756Y-4.8957
X5.5051Y-4.8421
X5.5343Y-4.8843
X5.635Y-6.3539
X5.64Y-5.33
X5.7768Y-5.635
X5.79Y-6.89
X5.8839Y-5.8496
X5.9Y-5.49
X5.93Y-5.46
X5.9559Y-5.348
X6.04Y-5.39
X6.0889Y-7.5318
X6.1204Y-6.8426
X6.1822Y-6.6379
X6.2125Y-7.5961
X6.228Y-7.3646
X6.2338Y-7.4918
X6.2768Y-6.3713
X6.3031Y-4.5035
X6.3311Y-7.5288
X6.3535Y-7.1737
X6.42Y-4.82
X6.4208Y-5.4603
X6.4224Y-6.4891
X6.4602Y-6.7493
X6.4787Y-6.6324
X6.4897Y-5.9481
X6.5574Y-3.8387
X6.6289Y-4.7562
X6.8194Y-6.4652
X6.8224Y-7.282
X6.8507Y-4.5985
X6.9078Y-5.9485
X7.0972Y-6.4843
T2
X5.778Y-5.1902
X5.778Y-5.2335
T3
X3.6614Y-6.8384
X3.6614Y-6.9172
X3.6614Y-6.9959
X3.6614Y-7.0746
X3.6614Y-7.1534
X3.6614Y-7.2321
X3.6614Y-7.3109
X3.6614Y-7.3896
X4.1969Y-6.8384
X4.1969Y-6.9172
X4.1969Y-6.9959
X4.1969Y-7.0746
X4.1969Y-7.1534
X4.1969Y-7.2321
X4.1969Y-7.3109
X4.1969Y-7.3896
T4
X6.0137Y-4.0524
X6.1137Y-4.0524
X6.2137Y-4.0524
T5
X7.0454Y-4.0483
X7.0454Y-4.2452
X7.1098Y-5.9643
X7.1098Y-6.1611
T0
M30
