%TF.GenerationSoftware,KiCad,Pcbnew,(5.99.0-10506-gb986797469)*%
%TF.CreationDate,2021-06-08T11:43:44+02:00*%
%TF.ProjectId,LoRa tracker,4c6f5261-2074-4726-9163-6b65722e6b69,rev?*%
%TF.SameCoordinates,Original*%
%TF.FileFunction,Legend,Top*%
%TF.FilePolarity,Positive*%
%FSLAX46Y46*%
G04 Gerber Fmt 4.6, Leading zero omitted, Abs format (unit mm)*
G04 Created by KiCad (PCBNEW (5.99.0-10506-gb986797469)) date 2021-06-08 11:43:44*
%MOMM*%
%LPD*%
G01*
G04 APERTURE LIST*
%ADD10C,0.150000*%
%ADD11C,0.015000*%
%ADD12C,0.254000*%
%ADD13C,0.120000*%
%ADD14C,0.177800*%
%ADD15C,0.127000*%
%ADD16C,0.200000*%
%ADD17C,0.342843*%
%ADD18C,0.160000*%
%ADD19C,0.472311*%
%ADD20C,0.100000*%
%ADD21C,0.242809*%
G04 APERTURE END LIST*
D10*
%TO.C,C26*%
X82899394Y-179987026D02*
X82851775Y-180034645D01*
X82708918Y-180082264D01*
X82613680Y-180082264D01*
X82470823Y-180034645D01*
X82375585Y-179939407D01*
X82327966Y-179844169D01*
X82280347Y-179653693D01*
X82280347Y-179510836D01*
X82327966Y-179320360D01*
X82375585Y-179225122D01*
X82470823Y-179129884D01*
X82613680Y-179082264D01*
X82708918Y-179082264D01*
X82851775Y-179129884D01*
X82899394Y-179177503D01*
X83280347Y-179177503D02*
X83327966Y-179129884D01*
X83423204Y-179082264D01*
X83661299Y-179082264D01*
X83756537Y-179129884D01*
X83804156Y-179177503D01*
X83851775Y-179272741D01*
X83851775Y-179367979D01*
X83804156Y-179510836D01*
X83232728Y-180082264D01*
X83851775Y-180082264D01*
X84708918Y-179082264D02*
X84518442Y-179082264D01*
X84423204Y-179129884D01*
X84375585Y-179177503D01*
X84280347Y-179320360D01*
X84232728Y-179510836D01*
X84232728Y-179891788D01*
X84280347Y-179987026D01*
X84327966Y-180034645D01*
X84423204Y-180082264D01*
X84613680Y-180082264D01*
X84708918Y-180034645D01*
X84756537Y-179987026D01*
X84804156Y-179891788D01*
X84804156Y-179653693D01*
X84756537Y-179558455D01*
X84708918Y-179510836D01*
X84613680Y-179463217D01*
X84423204Y-179463217D01*
X84327966Y-179510836D01*
X84280347Y-179558455D01*
X84232728Y-179653693D01*
%TO.C,R9*%
X84209585Y-175442264D02*
X83876252Y-174966074D01*
X83638156Y-175442264D02*
X83638156Y-174442264D01*
X84019109Y-174442264D01*
X84114347Y-174489884D01*
X84161966Y-174537503D01*
X84209585Y-174632741D01*
X84209585Y-174775598D01*
X84161966Y-174870836D01*
X84114347Y-174918455D01*
X84019109Y-174966074D01*
X83638156Y-174966074D01*
X84685775Y-175442264D02*
X84876252Y-175442264D01*
X84971490Y-175394645D01*
X85019109Y-175347026D01*
X85114347Y-175204169D01*
X85161966Y-175013693D01*
X85161966Y-174632741D01*
X85114347Y-174537503D01*
X85066728Y-174489884D01*
X84971490Y-174442264D01*
X84781013Y-174442264D01*
X84685775Y-174489884D01*
X84638156Y-174537503D01*
X84590537Y-174632741D01*
X84590537Y-174870836D01*
X84638156Y-174966074D01*
X84685775Y-175013693D01*
X84781013Y-175061312D01*
X84971490Y-175061312D01*
X85066728Y-175013693D01*
X85114347Y-174966074D01*
X85161966Y-174870836D01*
%TO.C,C7*%
X98982081Y-93749258D02*
X98934462Y-93796877D01*
X98791605Y-93844496D01*
X98696367Y-93844496D01*
X98553509Y-93796877D01*
X98458271Y-93701639D01*
X98410652Y-93606401D01*
X98363033Y-93415925D01*
X98363033Y-93273068D01*
X98410652Y-93082592D01*
X98458271Y-92987354D01*
X98553509Y-92892116D01*
X98696367Y-92844496D01*
X98791605Y-92844496D01*
X98934462Y-92892116D01*
X98982081Y-92939735D01*
X99315414Y-92844496D02*
X99982081Y-92844496D01*
X99553509Y-93844496D01*
D11*
%TO.C,U3*%
X157609743Y-187949673D02*
X157609743Y-188209175D01*
X157625007Y-188239705D01*
X157640272Y-188254969D01*
X157670802Y-188270234D01*
X157731861Y-188270234D01*
X157762391Y-188254969D01*
X157777655Y-188239705D01*
X157792920Y-188209175D01*
X157792920Y-187949673D01*
X157915039Y-187949673D02*
X158113481Y-187949673D01*
X158006628Y-188071792D01*
X158052422Y-188071792D01*
X158082952Y-188087056D01*
X158098216Y-188102321D01*
X158113481Y-188132851D01*
X158113481Y-188209175D01*
X158098216Y-188239705D01*
X158082952Y-188254969D01*
X158052422Y-188270234D01*
X157960833Y-188270234D01*
X157930304Y-188254969D01*
X157915039Y-188239705D01*
D10*
%TO.C,C5*%
X162372081Y-113629258D02*
X162324462Y-113676877D01*
X162181605Y-113724496D01*
X162086367Y-113724496D01*
X161943509Y-113676877D01*
X161848271Y-113581639D01*
X161800652Y-113486401D01*
X161753033Y-113295925D01*
X161753033Y-113153068D01*
X161800652Y-112962592D01*
X161848271Y-112867354D01*
X161943509Y-112772116D01*
X162086367Y-112724496D01*
X162181605Y-112724496D01*
X162324462Y-112772116D01*
X162372081Y-112819735D01*
X163276843Y-112724496D02*
X162800652Y-112724496D01*
X162753033Y-113200687D01*
X162800652Y-113153068D01*
X162895890Y-113105449D01*
X163133986Y-113105449D01*
X163229224Y-113153068D01*
X163276843Y-113200687D01*
X163324462Y-113295925D01*
X163324462Y-113534020D01*
X163276843Y-113629258D01*
X163229224Y-113676877D01*
X163133986Y-113724496D01*
X162895890Y-113724496D01*
X162800652Y-113676877D01*
X162753033Y-113629258D01*
%TO.C,C22*%
X148087142Y-137607142D02*
X148039523Y-137654761D01*
X147896666Y-137702380D01*
X147801428Y-137702380D01*
X147658571Y-137654761D01*
X147563333Y-137559523D01*
X147515714Y-137464285D01*
X147468095Y-137273809D01*
X147468095Y-137130952D01*
X147515714Y-136940476D01*
X147563333Y-136845238D01*
X147658571Y-136750000D01*
X147801428Y-136702380D01*
X147896666Y-136702380D01*
X148039523Y-136750000D01*
X148087142Y-136797619D01*
X148468095Y-136797619D02*
X148515714Y-136750000D01*
X148610952Y-136702380D01*
X148849047Y-136702380D01*
X148944285Y-136750000D01*
X148991904Y-136797619D01*
X149039523Y-136892857D01*
X149039523Y-136988095D01*
X148991904Y-137130952D01*
X148420476Y-137702380D01*
X149039523Y-137702380D01*
X149420476Y-136797619D02*
X149468095Y-136750000D01*
X149563333Y-136702380D01*
X149801428Y-136702380D01*
X149896666Y-136750000D01*
X149944285Y-136797619D01*
X149991904Y-136892857D01*
X149991904Y-136988095D01*
X149944285Y-137130952D01*
X149372857Y-137702380D01*
X149991904Y-137702380D01*
%TO.C,C27*%
X82839394Y-182077026D02*
X82791775Y-182124645D01*
X82648918Y-182172264D01*
X82553680Y-182172264D01*
X82410823Y-182124645D01*
X82315585Y-182029407D01*
X82267966Y-181934169D01*
X82220347Y-181743693D01*
X82220347Y-181600836D01*
X82267966Y-181410360D01*
X82315585Y-181315122D01*
X82410823Y-181219884D01*
X82553680Y-181172264D01*
X82648918Y-181172264D01*
X82791775Y-181219884D01*
X82839394Y-181267503D01*
X83220347Y-181267503D02*
X83267966Y-181219884D01*
X83363204Y-181172264D01*
X83601299Y-181172264D01*
X83696537Y-181219884D01*
X83744156Y-181267503D01*
X83791775Y-181362741D01*
X83791775Y-181457979D01*
X83744156Y-181600836D01*
X83172728Y-182172264D01*
X83791775Y-182172264D01*
X84125109Y-181172264D02*
X84791775Y-181172264D01*
X84363204Y-182172264D01*
%TO.C,R7*%
X115789333Y-181300380D02*
X115456000Y-180824190D01*
X115217904Y-181300380D02*
X115217904Y-180300380D01*
X115598857Y-180300380D01*
X115694095Y-180348000D01*
X115741714Y-180395619D01*
X115789333Y-180490857D01*
X115789333Y-180633714D01*
X115741714Y-180728952D01*
X115694095Y-180776571D01*
X115598857Y-180824190D01*
X115217904Y-180824190D01*
X116122666Y-180300380D02*
X116789333Y-180300380D01*
X116360761Y-181300380D01*
%TO.C,C21*%
X143288142Y-143664142D02*
X143240523Y-143711761D01*
X143097666Y-143759380D01*
X143002428Y-143759380D01*
X142859571Y-143711761D01*
X142764333Y-143616523D01*
X142716714Y-143521285D01*
X142669095Y-143330809D01*
X142669095Y-143187952D01*
X142716714Y-142997476D01*
X142764333Y-142902238D01*
X142859571Y-142807000D01*
X143002428Y-142759380D01*
X143097666Y-142759380D01*
X143240523Y-142807000D01*
X143288142Y-142854619D01*
X143669095Y-142854619D02*
X143716714Y-142807000D01*
X143811952Y-142759380D01*
X144050047Y-142759380D01*
X144145285Y-142807000D01*
X144192904Y-142854619D01*
X144240523Y-142949857D01*
X144240523Y-143045095D01*
X144192904Y-143187952D01*
X143621476Y-143759380D01*
X144240523Y-143759380D01*
X145192904Y-143759380D02*
X144621476Y-143759380D01*
X144907190Y-143759380D02*
X144907190Y-142759380D01*
X144811952Y-142902238D01*
X144716714Y-142997476D01*
X144621476Y-143045095D01*
%TO.C,J2*%
X178091380Y-154125449D02*
X178805666Y-154125449D01*
X178948523Y-154173068D01*
X179043761Y-154268306D01*
X179091380Y-154411163D01*
X179091380Y-154506401D01*
X178186619Y-153696877D02*
X178139000Y-153649258D01*
X178091380Y-153554020D01*
X178091380Y-153315925D01*
X178139000Y-153220687D01*
X178186619Y-153173068D01*
X178281857Y-153125449D01*
X178377095Y-153125449D01*
X178519952Y-153173068D01*
X179091380Y-153744496D01*
X179091380Y-153125449D01*
%TO.C,L1*%
X87712081Y-103234496D02*
X87235890Y-103234496D01*
X87235890Y-102234496D01*
X88569224Y-103234496D02*
X87997795Y-103234496D01*
X88283509Y-103234496D02*
X88283509Y-102234496D01*
X88188271Y-102377354D01*
X88093033Y-102472592D01*
X87997795Y-102520211D01*
D11*
%TO.C,MOD1*%
X102791918Y-190223264D02*
X102791918Y-189223264D01*
X103125252Y-189937550D01*
X103458585Y-189223264D01*
X103458585Y-190223264D01*
X104125252Y-189223264D02*
X104315728Y-189223264D01*
X104410966Y-189270884D01*
X104506204Y-189366122D01*
X104553823Y-189556598D01*
X104553823Y-189889931D01*
X104506204Y-190080407D01*
X104410966Y-190175645D01*
X104315728Y-190223264D01*
X104125252Y-190223264D01*
X104030013Y-190175645D01*
X103934775Y-190080407D01*
X103887156Y-189889931D01*
X103887156Y-189556598D01*
X103934775Y-189366122D01*
X104030013Y-189270884D01*
X104125252Y-189223264D01*
X104982394Y-190223264D02*
X104982394Y-189223264D01*
X105220490Y-189223264D01*
X105363347Y-189270884D01*
X105458585Y-189366122D01*
X105506204Y-189461360D01*
X105553823Y-189651836D01*
X105553823Y-189794693D01*
X105506204Y-189985169D01*
X105458585Y-190080407D01*
X105363347Y-190175645D01*
X105220490Y-190223264D01*
X104982394Y-190223264D01*
X106506204Y-190223264D02*
X105934775Y-190223264D01*
X106220490Y-190223264D02*
X106220490Y-189223264D01*
X106125252Y-189366122D01*
X106030013Y-189461360D01*
X105934775Y-189508979D01*
D10*
%TO.C,C4*%
X148839333Y-115209142D02*
X148791714Y-115256761D01*
X148648857Y-115304380D01*
X148553619Y-115304380D01*
X148410761Y-115256761D01*
X148315523Y-115161523D01*
X148267904Y-115066285D01*
X148220285Y-114875809D01*
X148220285Y-114732952D01*
X148267904Y-114542476D01*
X148315523Y-114447238D01*
X148410761Y-114352000D01*
X148553619Y-114304380D01*
X148648857Y-114304380D01*
X148791714Y-114352000D01*
X148839333Y-114399619D01*
X149696476Y-114637714D02*
X149696476Y-115304380D01*
X149458380Y-114256761D02*
X149220285Y-114971047D01*
X149839333Y-114971047D01*
%TO.C,R6*%
X88844380Y-154984666D02*
X88368190Y-155318000D01*
X88844380Y-155556095D02*
X87844380Y-155556095D01*
X87844380Y-155175142D01*
X87892000Y-155079904D01*
X87939619Y-155032285D01*
X88034857Y-154984666D01*
X88177714Y-154984666D01*
X88272952Y-155032285D01*
X88320571Y-155079904D01*
X88368190Y-155175142D01*
X88368190Y-155556095D01*
X87844380Y-154127523D02*
X87844380Y-154318000D01*
X87892000Y-154413238D01*
X87939619Y-154460857D01*
X88082476Y-154556095D01*
X88272952Y-154603714D01*
X88653904Y-154603714D01*
X88749142Y-154556095D01*
X88796761Y-154508476D01*
X88844380Y-154413238D01*
X88844380Y-154222761D01*
X88796761Y-154127523D01*
X88749142Y-154079904D01*
X88653904Y-154032285D01*
X88415809Y-154032285D01*
X88320571Y-154079904D01*
X88272952Y-154127523D01*
X88225333Y-154222761D01*
X88225333Y-154413238D01*
X88272952Y-154508476D01*
X88320571Y-154556095D01*
X88415809Y-154603714D01*
%TO.C,C31*%
X154735890Y-183789258D02*
X154688271Y-183836877D01*
X154545414Y-183884496D01*
X154450176Y-183884496D01*
X154307319Y-183836877D01*
X154212081Y-183741639D01*
X154164462Y-183646401D01*
X154116843Y-183455925D01*
X154116843Y-183313068D01*
X154164462Y-183122592D01*
X154212081Y-183027354D01*
X154307319Y-182932116D01*
X154450176Y-182884496D01*
X154545414Y-182884496D01*
X154688271Y-182932116D01*
X154735890Y-182979735D01*
X155069224Y-182884496D02*
X155688271Y-182884496D01*
X155354938Y-183265449D01*
X155497795Y-183265449D01*
X155593033Y-183313068D01*
X155640652Y-183360687D01*
X155688271Y-183455925D01*
X155688271Y-183694020D01*
X155640652Y-183789258D01*
X155593033Y-183836877D01*
X155497795Y-183884496D01*
X155212081Y-183884496D01*
X155116843Y-183836877D01*
X155069224Y-183789258D01*
X156640652Y-183884496D02*
X156069224Y-183884496D01*
X156354938Y-183884496D02*
X156354938Y-182884496D01*
X156259700Y-183027354D01*
X156164462Y-183122592D01*
X156069224Y-183170211D01*
D11*
%TO.C,U7*%
X129944150Y-138313607D02*
X129944150Y-139588448D01*
X130019140Y-139738429D01*
X130094131Y-139813420D01*
X130244112Y-139888410D01*
X130544075Y-139888410D01*
X130694056Y-139813420D01*
X130769046Y-139738429D01*
X130844037Y-139588448D01*
X130844037Y-138313607D01*
X131443962Y-138313607D02*
X132493831Y-138313607D01*
X131818915Y-139888410D01*
D10*
%TO.C,U9*%
X162244945Y-175755211D02*
X161435421Y-175755211D01*
X161340183Y-175802830D01*
X161292564Y-175850449D01*
X161244945Y-175945687D01*
X161244945Y-176136163D01*
X161292564Y-176231401D01*
X161340183Y-176279020D01*
X161435421Y-176326639D01*
X162244945Y-176326639D01*
X161244945Y-176850449D02*
X161244945Y-177040925D01*
X161292564Y-177136163D01*
X161340183Y-177183782D01*
X161483040Y-177279020D01*
X161673516Y-177326639D01*
X162054468Y-177326639D01*
X162149706Y-177279020D01*
X162197326Y-177231401D01*
X162244945Y-177136163D01*
X162244945Y-176945687D01*
X162197326Y-176850449D01*
X162149706Y-176802830D01*
X162054468Y-176755211D01*
X161816373Y-176755211D01*
X161721135Y-176802830D01*
X161673516Y-176850449D01*
X161625897Y-176945687D01*
X161625897Y-177136163D01*
X161673516Y-177231401D01*
X161721135Y-177279020D01*
X161816373Y-177326639D01*
%TO.C,R2*%
X174631128Y-183928782D02*
X174154938Y-184262116D01*
X174631128Y-184500211D02*
X173631128Y-184500211D01*
X173631128Y-184119258D01*
X173678748Y-184024020D01*
X173726367Y-183976401D01*
X173821605Y-183928782D01*
X173964462Y-183928782D01*
X174059700Y-183976401D01*
X174107319Y-184024020D01*
X174154938Y-184119258D01*
X174154938Y-184500211D01*
X173726367Y-183547830D02*
X173678748Y-183500211D01*
X173631128Y-183404973D01*
X173631128Y-183166877D01*
X173678748Y-183071639D01*
X173726367Y-183024020D01*
X173821605Y-182976401D01*
X173916843Y-182976401D01*
X174059700Y-183024020D01*
X174631128Y-183595449D01*
X174631128Y-182976401D01*
D11*
%TO.C,PZ1*%
X182141391Y-173859562D02*
X182141391Y-172914680D01*
X182501346Y-172914680D01*
X182591335Y-172959675D01*
X182636329Y-173004669D01*
X182681323Y-173094658D01*
X182681323Y-173229641D01*
X182636329Y-173319630D01*
X182591335Y-173364624D01*
X182501346Y-173409618D01*
X182141391Y-173409618D01*
X182996284Y-172914680D02*
X183626205Y-172914680D01*
X182996284Y-173859562D01*
X183626205Y-173859562D01*
X184481099Y-173859562D02*
X183941166Y-173859562D01*
X184211132Y-173859562D02*
X184211132Y-172914680D01*
X184121144Y-173049663D01*
X184031155Y-173139652D01*
X183941166Y-173184646D01*
D10*
%TO.C,Q1*%
X178383509Y-183699735D02*
X178288271Y-183652116D01*
X178193033Y-183556877D01*
X178050176Y-183414020D01*
X177954938Y-183366401D01*
X177859700Y-183366401D01*
X177907319Y-183604496D02*
X177812081Y-183556877D01*
X177716843Y-183461639D01*
X177669224Y-183271163D01*
X177669224Y-182937830D01*
X177716843Y-182747354D01*
X177812081Y-182652116D01*
X177907319Y-182604496D01*
X178097795Y-182604496D01*
X178193033Y-182652116D01*
X178288271Y-182747354D01*
X178335890Y-182937830D01*
X178335890Y-183271163D01*
X178288271Y-183461639D01*
X178193033Y-183556877D01*
X178097795Y-183604496D01*
X177907319Y-183604496D01*
X179288271Y-183604496D02*
X178716843Y-183604496D01*
X179002557Y-183604496D02*
X179002557Y-182604496D01*
X178907319Y-182747354D01*
X178812081Y-182842592D01*
X178716843Y-182890211D01*
%TO.C,U5*%
X166920343Y-164713996D02*
X166920343Y-165523520D01*
X166967962Y-165618758D01*
X167015581Y-165666377D01*
X167110819Y-165713996D01*
X167301295Y-165713996D01*
X167396533Y-165666377D01*
X167444152Y-165618758D01*
X167491771Y-165523520D01*
X167491771Y-164713996D01*
X168444152Y-164713996D02*
X167967962Y-164713996D01*
X167920343Y-165190187D01*
X167967962Y-165142568D01*
X168063200Y-165094949D01*
X168301295Y-165094949D01*
X168396533Y-165142568D01*
X168444152Y-165190187D01*
X168491771Y-165285425D01*
X168491771Y-165523520D01*
X168444152Y-165618758D01*
X168396533Y-165666377D01*
X168301295Y-165713996D01*
X168063200Y-165713996D01*
X167967962Y-165666377D01*
X167920343Y-165618758D01*
%TO.C,U4*%
X170001128Y-151854020D02*
X170810652Y-151854020D01*
X170905890Y-151806401D01*
X170953509Y-151758782D01*
X171001128Y-151663544D01*
X171001128Y-151473068D01*
X170953509Y-151377830D01*
X170905890Y-151330211D01*
X170810652Y-151282592D01*
X170001128Y-151282592D01*
X170334462Y-150377830D02*
X171001128Y-150377830D01*
X169953509Y-150615925D02*
X170667795Y-150854020D01*
X170667795Y-150234973D01*
%TO.C,J1*%
X178391128Y-105565449D02*
X179105414Y-105565449D01*
X179248271Y-105613068D01*
X179343509Y-105708306D01*
X179391128Y-105851163D01*
X179391128Y-105946401D01*
X179391128Y-104565449D02*
X179391128Y-105136877D01*
X179391128Y-104851163D02*
X178391128Y-104851163D01*
X178533986Y-104946401D01*
X178629224Y-105041639D01*
X178676843Y-105136877D01*
%TO.C,C30*%
X170315890Y-161892130D02*
X170363509Y-161939749D01*
X170411128Y-162082606D01*
X170411128Y-162177844D01*
X170363509Y-162320701D01*
X170268271Y-162415939D01*
X170173033Y-162463558D01*
X169982557Y-162511177D01*
X169839700Y-162511177D01*
X169649224Y-162463558D01*
X169553986Y-162415939D01*
X169458748Y-162320701D01*
X169411128Y-162177844D01*
X169411128Y-162082606D01*
X169458748Y-161939749D01*
X169506367Y-161892130D01*
X169411128Y-161558796D02*
X169411128Y-160939749D01*
X169792081Y-161273082D01*
X169792081Y-161130225D01*
X169839700Y-161034987D01*
X169887319Y-160987368D01*
X169982557Y-160939749D01*
X170220652Y-160939749D01*
X170315890Y-160987368D01*
X170363509Y-161034987D01*
X170411128Y-161130225D01*
X170411128Y-161415939D01*
X170363509Y-161511177D01*
X170315890Y-161558796D01*
X169411128Y-160320701D02*
X169411128Y-160225463D01*
X169458748Y-160130225D01*
X169506367Y-160082606D01*
X169601605Y-160034987D01*
X169792081Y-159987368D01*
X170030176Y-159987368D01*
X170220652Y-160034987D01*
X170315890Y-160082606D01*
X170363509Y-160130225D01*
X170411128Y-160225463D01*
X170411128Y-160320701D01*
X170363509Y-160415939D01*
X170315890Y-160463558D01*
X170220652Y-160511177D01*
X170030176Y-160558796D01*
X169792081Y-160558796D01*
X169601605Y-160511177D01*
X169506367Y-160463558D01*
X169458748Y-160415939D01*
X169411128Y-160320701D01*
%TO.C,C20*%
X143592142Y-140792142D02*
X143544523Y-140839761D01*
X143401666Y-140887380D01*
X143306428Y-140887380D01*
X143163571Y-140839761D01*
X143068333Y-140744523D01*
X143020714Y-140649285D01*
X142973095Y-140458809D01*
X142973095Y-140315952D01*
X143020714Y-140125476D01*
X143068333Y-140030238D01*
X143163571Y-139935000D01*
X143306428Y-139887380D01*
X143401666Y-139887380D01*
X143544523Y-139935000D01*
X143592142Y-139982619D01*
X143973095Y-139982619D02*
X144020714Y-139935000D01*
X144115952Y-139887380D01*
X144354047Y-139887380D01*
X144449285Y-139935000D01*
X144496904Y-139982619D01*
X144544523Y-140077857D01*
X144544523Y-140173095D01*
X144496904Y-140315952D01*
X143925476Y-140887380D01*
X144544523Y-140887380D01*
X145163571Y-139887380D02*
X145258809Y-139887380D01*
X145354047Y-139935000D01*
X145401666Y-139982619D01*
X145449285Y-140077857D01*
X145496904Y-140268333D01*
X145496904Y-140506428D01*
X145449285Y-140696904D01*
X145401666Y-140792142D01*
X145354047Y-140839761D01*
X145258809Y-140887380D01*
X145163571Y-140887380D01*
X145068333Y-140839761D01*
X145020714Y-140792142D01*
X144973095Y-140696904D01*
X144925476Y-140506428D01*
X144925476Y-140268333D01*
X144973095Y-140077857D01*
X145020714Y-139982619D01*
X145068333Y-139935000D01*
X145163571Y-139887380D01*
%TO.C,C6*%
X162302081Y-116299258D02*
X162254462Y-116346877D01*
X162111605Y-116394496D01*
X162016367Y-116394496D01*
X161873509Y-116346877D01*
X161778271Y-116251639D01*
X161730652Y-116156401D01*
X161683033Y-115965925D01*
X161683033Y-115823068D01*
X161730652Y-115632592D01*
X161778271Y-115537354D01*
X161873509Y-115442116D01*
X162016367Y-115394496D01*
X162111605Y-115394496D01*
X162254462Y-115442116D01*
X162302081Y-115489735D01*
X163159224Y-115394496D02*
X162968748Y-115394496D01*
X162873509Y-115442116D01*
X162825890Y-115489735D01*
X162730652Y-115632592D01*
X162683033Y-115823068D01*
X162683033Y-116204020D01*
X162730652Y-116299258D01*
X162778271Y-116346877D01*
X162873509Y-116394496D01*
X163063986Y-116394496D01*
X163159224Y-116346877D01*
X163206843Y-116299258D01*
X163254462Y-116204020D01*
X163254462Y-115965925D01*
X163206843Y-115870687D01*
X163159224Y-115823068D01*
X163063986Y-115775449D01*
X162873509Y-115775449D01*
X162778271Y-115823068D01*
X162730652Y-115870687D01*
X162683033Y-115965925D01*
%TO.C,CON2*%
X138090714Y-121587142D02*
X138043095Y-121634761D01*
X137900238Y-121682380D01*
X137805000Y-121682380D01*
X137662142Y-121634761D01*
X137566904Y-121539523D01*
X137519285Y-121444285D01*
X137471666Y-121253809D01*
X137471666Y-121110952D01*
X137519285Y-120920476D01*
X137566904Y-120825238D01*
X137662142Y-120730000D01*
X137805000Y-120682380D01*
X137900238Y-120682380D01*
X138043095Y-120730000D01*
X138090714Y-120777619D01*
X138709761Y-120682380D02*
X138900238Y-120682380D01*
X138995476Y-120730000D01*
X139090714Y-120825238D01*
X139138333Y-121015714D01*
X139138333Y-121349047D01*
X139090714Y-121539523D01*
X138995476Y-121634761D01*
X138900238Y-121682380D01*
X138709761Y-121682380D01*
X138614523Y-121634761D01*
X138519285Y-121539523D01*
X138471666Y-121349047D01*
X138471666Y-121015714D01*
X138519285Y-120825238D01*
X138614523Y-120730000D01*
X138709761Y-120682380D01*
X139566904Y-121682380D02*
X139566904Y-120682380D01*
X140138333Y-121682380D01*
X140138333Y-120682380D01*
X140566904Y-120777619D02*
X140614523Y-120730000D01*
X140709761Y-120682380D01*
X140947857Y-120682380D01*
X141043095Y-120730000D01*
X141090714Y-120777619D01*
X141138333Y-120872857D01*
X141138333Y-120968095D01*
X141090714Y-121110952D01*
X140519285Y-121682380D01*
X141138333Y-121682380D01*
%TO.C,R10*%
X105952380Y-127666857D02*
X105476190Y-128000190D01*
X105952380Y-128238285D02*
X104952380Y-128238285D01*
X104952380Y-127857333D01*
X105000000Y-127762095D01*
X105047619Y-127714476D01*
X105142857Y-127666857D01*
X105285714Y-127666857D01*
X105380952Y-127714476D01*
X105428571Y-127762095D01*
X105476190Y-127857333D01*
X105476190Y-128238285D01*
X105952380Y-126714476D02*
X105952380Y-127285904D01*
X105952380Y-127000190D02*
X104952380Y-127000190D01*
X105095238Y-127095428D01*
X105190476Y-127190666D01*
X105238095Y-127285904D01*
X104952380Y-126095428D02*
X104952380Y-126000190D01*
X105000000Y-125904952D01*
X105047619Y-125857333D01*
X105142857Y-125809714D01*
X105333333Y-125762095D01*
X105571428Y-125762095D01*
X105761904Y-125809714D01*
X105857142Y-125857333D01*
X105904761Y-125904952D01*
X105952380Y-126000190D01*
X105952380Y-126095428D01*
X105904761Y-126190666D01*
X105857142Y-126238285D01*
X105761904Y-126285904D01*
X105571428Y-126333523D01*
X105333333Y-126333523D01*
X105142857Y-126285904D01*
X105047619Y-126238285D01*
X105000000Y-126190666D01*
X104952380Y-126095428D01*
%TO.C,U2*%
X155923652Y-109067735D02*
X155923652Y-108258211D01*
X155876033Y-108162973D01*
X155828414Y-108115354D01*
X155733176Y-108067735D01*
X155542700Y-108067735D01*
X155447462Y-108115354D01*
X155399843Y-108162973D01*
X155352224Y-108258211D01*
X155352224Y-109067735D01*
X154923652Y-108972496D02*
X154876033Y-109020116D01*
X154780795Y-109067735D01*
X154542700Y-109067735D01*
X154447462Y-109020116D01*
X154399843Y-108972496D01*
X154352224Y-108877258D01*
X154352224Y-108782020D01*
X154399843Y-108639163D01*
X154971271Y-108067735D01*
X154352224Y-108067735D01*
%TO.C,R5*%
X155406128Y-175153782D02*
X154929938Y-175487116D01*
X155406128Y-175725211D02*
X154406128Y-175725211D01*
X154406128Y-175344258D01*
X154453748Y-175249020D01*
X154501367Y-175201401D01*
X154596605Y-175153782D01*
X154739462Y-175153782D01*
X154834700Y-175201401D01*
X154882319Y-175249020D01*
X154929938Y-175344258D01*
X154929938Y-175725211D01*
X154406128Y-174249020D02*
X154406128Y-174725211D01*
X154882319Y-174772830D01*
X154834700Y-174725211D01*
X154787081Y-174629973D01*
X154787081Y-174391877D01*
X154834700Y-174296639D01*
X154882319Y-174249020D01*
X154977557Y-174201401D01*
X155215652Y-174201401D01*
X155310890Y-174249020D01*
X155358509Y-174296639D01*
X155406128Y-174391877D01*
X155406128Y-174629973D01*
X155358509Y-174725211D01*
X155310890Y-174772830D01*
%TO.C,C1*%
X159042081Y-112899258D02*
X158994462Y-112946877D01*
X158851605Y-112994496D01*
X158756367Y-112994496D01*
X158613509Y-112946877D01*
X158518271Y-112851639D01*
X158470652Y-112756401D01*
X158423033Y-112565925D01*
X158423033Y-112423068D01*
X158470652Y-112232592D01*
X158518271Y-112137354D01*
X158613509Y-112042116D01*
X158756367Y-111994496D01*
X158851605Y-111994496D01*
X158994462Y-112042116D01*
X159042081Y-112089735D01*
X159994462Y-112994496D02*
X159423033Y-112994496D01*
X159708748Y-112994496D02*
X159708748Y-111994496D01*
X159613509Y-112137354D01*
X159518271Y-112232592D01*
X159423033Y-112280211D01*
%TO.C,C25*%
X83099394Y-177637026D02*
X83051775Y-177684645D01*
X82908918Y-177732264D01*
X82813680Y-177732264D01*
X82670823Y-177684645D01*
X82575585Y-177589407D01*
X82527966Y-177494169D01*
X82480347Y-177303693D01*
X82480347Y-177160836D01*
X82527966Y-176970360D01*
X82575585Y-176875122D01*
X82670823Y-176779884D01*
X82813680Y-176732264D01*
X82908918Y-176732264D01*
X83051775Y-176779884D01*
X83099394Y-176827503D01*
X83480347Y-176827503D02*
X83527966Y-176779884D01*
X83623204Y-176732264D01*
X83861299Y-176732264D01*
X83956537Y-176779884D01*
X84004156Y-176827503D01*
X84051775Y-176922741D01*
X84051775Y-177017979D01*
X84004156Y-177160836D01*
X83432728Y-177732264D01*
X84051775Y-177732264D01*
X84956537Y-176732264D02*
X84480347Y-176732264D01*
X84432728Y-177208455D01*
X84480347Y-177160836D01*
X84575585Y-177113217D01*
X84813680Y-177113217D01*
X84908918Y-177160836D01*
X84956537Y-177208455D01*
X85004156Y-177303693D01*
X85004156Y-177541788D01*
X84956537Y-177637026D01*
X84908918Y-177684645D01*
X84813680Y-177732264D01*
X84575585Y-177732264D01*
X84480347Y-177684645D01*
X84432728Y-177637026D01*
%TO.C,C24*%
X83274394Y-170037741D02*
X83322013Y-170085360D01*
X83369632Y-170228217D01*
X83369632Y-170323455D01*
X83322013Y-170466312D01*
X83226775Y-170561550D01*
X83131537Y-170609169D01*
X82941061Y-170656788D01*
X82798204Y-170656788D01*
X82607728Y-170609169D01*
X82512490Y-170561550D01*
X82417252Y-170466312D01*
X82369632Y-170323455D01*
X82369632Y-170228217D01*
X82417252Y-170085360D01*
X82464871Y-170037741D01*
X82464871Y-169656788D02*
X82417252Y-169609169D01*
X82369632Y-169513931D01*
X82369632Y-169275836D01*
X82417252Y-169180598D01*
X82464871Y-169132979D01*
X82560109Y-169085360D01*
X82655347Y-169085360D01*
X82798204Y-169132979D01*
X83369632Y-169704407D01*
X83369632Y-169085360D01*
X82702966Y-168228217D02*
X83369632Y-168228217D01*
X82322013Y-168466312D02*
X83036299Y-168704407D01*
X83036299Y-168085360D01*
%TO.C,R11*%
X108852380Y-124512857D02*
X108376190Y-124846190D01*
X108852380Y-125084285D02*
X107852380Y-125084285D01*
X107852380Y-124703333D01*
X107900000Y-124608095D01*
X107947619Y-124560476D01*
X108042857Y-124512857D01*
X108185714Y-124512857D01*
X108280952Y-124560476D01*
X108328571Y-124608095D01*
X108376190Y-124703333D01*
X108376190Y-125084285D01*
X108852380Y-123560476D02*
X108852380Y-124131904D01*
X108852380Y-123846190D02*
X107852380Y-123846190D01*
X107995238Y-123941428D01*
X108090476Y-124036666D01*
X108138095Y-124131904D01*
X108852380Y-122608095D02*
X108852380Y-123179523D01*
X108852380Y-122893809D02*
X107852380Y-122893809D01*
X107995238Y-122989047D01*
X108090476Y-123084285D01*
X108138095Y-123179523D01*
%TO.C,C2*%
X155663333Y-116667142D02*
X155615714Y-116714761D01*
X155472857Y-116762380D01*
X155377619Y-116762380D01*
X155234761Y-116714761D01*
X155139523Y-116619523D01*
X155091904Y-116524285D01*
X155044285Y-116333809D01*
X155044285Y-116190952D01*
X155091904Y-116000476D01*
X155139523Y-115905238D01*
X155234761Y-115810000D01*
X155377619Y-115762380D01*
X155472857Y-115762380D01*
X155615714Y-115810000D01*
X155663333Y-115857619D01*
X156044285Y-115857619D02*
X156091904Y-115810000D01*
X156187142Y-115762380D01*
X156425238Y-115762380D01*
X156520476Y-115810000D01*
X156568095Y-115857619D01*
X156615714Y-115952857D01*
X156615714Y-116048095D01*
X156568095Y-116190952D01*
X155996666Y-116762380D01*
X156615714Y-116762380D01*
D11*
%TO.C,U1*%
X171998128Y-114719020D02*
X172807652Y-114719020D01*
X172902890Y-114671401D01*
X172950509Y-114623782D01*
X172998128Y-114528544D01*
X172998128Y-114338068D01*
X172950509Y-114242830D01*
X172902890Y-114195211D01*
X172807652Y-114147592D01*
X171998128Y-114147592D01*
X172998128Y-113147592D02*
X172998128Y-113719020D01*
X172998128Y-113433306D02*
X171998128Y-113433306D01*
X172140986Y-113528544D01*
X172236224Y-113623782D01*
X172283843Y-113719020D01*
D10*
%TO.C,U6*%
X102918095Y-149508380D02*
X102918095Y-150317904D01*
X102965714Y-150413142D01*
X103013333Y-150460761D01*
X103108571Y-150508380D01*
X103299047Y-150508380D01*
X103394285Y-150460761D01*
X103441904Y-150413142D01*
X103489523Y-150317904D01*
X103489523Y-149508380D01*
X104394285Y-149508380D02*
X104203809Y-149508380D01*
X104108571Y-149556000D01*
X104060952Y-149603619D01*
X103965714Y-149746476D01*
X103918095Y-149936952D01*
X103918095Y-150317904D01*
X103965714Y-150413142D01*
X104013333Y-150460761D01*
X104108571Y-150508380D01*
X104299047Y-150508380D01*
X104394285Y-150460761D01*
X104441904Y-150413142D01*
X104489523Y-150317904D01*
X104489523Y-150079809D01*
X104441904Y-149984571D01*
X104394285Y-149936952D01*
X104299047Y-149889333D01*
X104108571Y-149889333D01*
X104013333Y-149936952D01*
X103965714Y-149984571D01*
X103918095Y-150079809D01*
%TO.C,R4*%
X160416128Y-171103782D02*
X159939938Y-171437116D01*
X160416128Y-171675211D02*
X159416128Y-171675211D01*
X159416128Y-171294258D01*
X159463748Y-171199020D01*
X159511367Y-171151401D01*
X159606605Y-171103782D01*
X159749462Y-171103782D01*
X159844700Y-171151401D01*
X159892319Y-171199020D01*
X159939938Y-171294258D01*
X159939938Y-171675211D01*
X159749462Y-170246639D02*
X160416128Y-170246639D01*
X159368509Y-170484735D02*
X160082795Y-170722830D01*
X160082795Y-170103782D01*
D11*
%TO.C,AE3*%
X77789480Y-172092362D02*
X77789480Y-171642418D01*
X78059446Y-172182351D02*
X77114564Y-171867390D01*
X78059446Y-171552429D01*
X77564508Y-171237469D02*
X77564508Y-170922508D01*
X78059446Y-170787525D02*
X78059446Y-171237469D01*
X77114564Y-171237469D01*
X77114564Y-170787525D01*
X77114564Y-170472564D02*
X77114564Y-169887637D01*
X77474519Y-170202598D01*
X77474519Y-170067615D01*
X77519514Y-169977626D01*
X77564508Y-169932632D01*
X77654497Y-169887637D01*
X77879469Y-169887637D01*
X77969457Y-169932632D01*
X78014452Y-169977626D01*
X78059446Y-170067615D01*
X78059446Y-170337581D01*
X78014452Y-170427570D01*
X77969457Y-170472564D01*
D10*
%TO.C,C28*%
X167420890Y-162527130D02*
X167468509Y-162574749D01*
X167516128Y-162717606D01*
X167516128Y-162812844D01*
X167468509Y-162955701D01*
X167373271Y-163050939D01*
X167278033Y-163098558D01*
X167087557Y-163146177D01*
X166944700Y-163146177D01*
X166754224Y-163098558D01*
X166658986Y-163050939D01*
X166563748Y-162955701D01*
X166516128Y-162812844D01*
X166516128Y-162717606D01*
X166563748Y-162574749D01*
X166611367Y-162527130D01*
X166611367Y-162146177D02*
X166563748Y-162098558D01*
X166516128Y-162003320D01*
X166516128Y-161765225D01*
X166563748Y-161669987D01*
X166611367Y-161622368D01*
X166706605Y-161574749D01*
X166801843Y-161574749D01*
X166944700Y-161622368D01*
X167516128Y-162193796D01*
X167516128Y-161574749D01*
X166944700Y-161003320D02*
X166897081Y-161098558D01*
X166849462Y-161146177D01*
X166754224Y-161193796D01*
X166706605Y-161193796D01*
X166611367Y-161146177D01*
X166563748Y-161098558D01*
X166516128Y-161003320D01*
X166516128Y-160812844D01*
X166563748Y-160717606D01*
X166611367Y-160669987D01*
X166706605Y-160622368D01*
X166754224Y-160622368D01*
X166849462Y-160669987D01*
X166897081Y-160717606D01*
X166944700Y-160812844D01*
X166944700Y-161003320D01*
X166992319Y-161098558D01*
X167039938Y-161146177D01*
X167135176Y-161193796D01*
X167325652Y-161193796D01*
X167420890Y-161146177D01*
X167468509Y-161098558D01*
X167516128Y-161003320D01*
X167516128Y-160812844D01*
X167468509Y-160717606D01*
X167420890Y-160669987D01*
X167325652Y-160622368D01*
X167135176Y-160622368D01*
X167039938Y-160669987D01*
X166992319Y-160717606D01*
X166944700Y-160812844D01*
%TO.C,C9*%
X82117081Y-102514258D02*
X82069462Y-102561877D01*
X81926605Y-102609496D01*
X81831367Y-102609496D01*
X81688509Y-102561877D01*
X81593271Y-102466639D01*
X81545652Y-102371401D01*
X81498033Y-102180925D01*
X81498033Y-102038068D01*
X81545652Y-101847592D01*
X81593271Y-101752354D01*
X81688509Y-101657116D01*
X81831367Y-101609496D01*
X81926605Y-101609496D01*
X82069462Y-101657116D01*
X82117081Y-101704735D01*
X82593271Y-102609496D02*
X82783748Y-102609496D01*
X82878986Y-102561877D01*
X82926605Y-102514258D01*
X83021843Y-102371401D01*
X83069462Y-102180925D01*
X83069462Y-101799973D01*
X83021843Y-101704735D01*
X82974224Y-101657116D01*
X82878986Y-101609496D01*
X82688509Y-101609496D01*
X82593271Y-101657116D01*
X82545652Y-101704735D01*
X82498033Y-101799973D01*
X82498033Y-102038068D01*
X82545652Y-102133306D01*
X82593271Y-102180925D01*
X82688509Y-102228544D01*
X82878986Y-102228544D01*
X82974224Y-102180925D01*
X83021843Y-102133306D01*
X83069462Y-102038068D01*
%TO.C,Y2*%
X149533809Y-132453809D02*
X149057619Y-132453809D01*
X150057619Y-132120476D02*
X149533809Y-132453809D01*
X150057619Y-132787142D01*
X149962380Y-133072857D02*
X150010000Y-133120476D01*
X150057619Y-133215714D01*
X150057619Y-133453809D01*
X150010000Y-133549047D01*
X149962380Y-133596666D01*
X149867142Y-133644285D01*
X149771904Y-133644285D01*
X149629047Y-133596666D01*
X149057619Y-133025238D01*
X149057619Y-133644285D01*
%TO.C,CON1*%
X95305714Y-126374142D02*
X95258095Y-126421761D01*
X95115238Y-126469380D01*
X95020000Y-126469380D01*
X94877142Y-126421761D01*
X94781904Y-126326523D01*
X94734285Y-126231285D01*
X94686666Y-126040809D01*
X94686666Y-125897952D01*
X94734285Y-125707476D01*
X94781904Y-125612238D01*
X94877142Y-125517000D01*
X95020000Y-125469380D01*
X95115238Y-125469380D01*
X95258095Y-125517000D01*
X95305714Y-125564619D01*
X95924761Y-125469380D02*
X96115238Y-125469380D01*
X96210476Y-125517000D01*
X96305714Y-125612238D01*
X96353333Y-125802714D01*
X96353333Y-126136047D01*
X96305714Y-126326523D01*
X96210476Y-126421761D01*
X96115238Y-126469380D01*
X95924761Y-126469380D01*
X95829523Y-126421761D01*
X95734285Y-126326523D01*
X95686666Y-126136047D01*
X95686666Y-125802714D01*
X95734285Y-125612238D01*
X95829523Y-125517000D01*
X95924761Y-125469380D01*
X96781904Y-126469380D02*
X96781904Y-125469380D01*
X97353333Y-126469380D01*
X97353333Y-125469380D01*
X98353333Y-126469380D02*
X97781904Y-126469380D01*
X98067619Y-126469380D02*
X98067619Y-125469380D01*
X97972380Y-125612238D01*
X97877142Y-125707476D01*
X97781904Y-125755095D01*
%TO.C,C8*%
X98732081Y-96329258D02*
X98684462Y-96376877D01*
X98541605Y-96424496D01*
X98446367Y-96424496D01*
X98303509Y-96376877D01*
X98208271Y-96281639D01*
X98160652Y-96186401D01*
X98113033Y-95995925D01*
X98113033Y-95853068D01*
X98160652Y-95662592D01*
X98208271Y-95567354D01*
X98303509Y-95472116D01*
X98446367Y-95424496D01*
X98541605Y-95424496D01*
X98684462Y-95472116D01*
X98732081Y-95519735D01*
X99303509Y-95853068D02*
X99208271Y-95805449D01*
X99160652Y-95757830D01*
X99113033Y-95662592D01*
X99113033Y-95614973D01*
X99160652Y-95519735D01*
X99208271Y-95472116D01*
X99303509Y-95424496D01*
X99493986Y-95424496D01*
X99589224Y-95472116D01*
X99636843Y-95519735D01*
X99684462Y-95614973D01*
X99684462Y-95662592D01*
X99636843Y-95757830D01*
X99589224Y-95805449D01*
X99493986Y-95853068D01*
X99303509Y-95853068D01*
X99208271Y-95900687D01*
X99160652Y-95948306D01*
X99113033Y-96043544D01*
X99113033Y-96234020D01*
X99160652Y-96329258D01*
X99208271Y-96376877D01*
X99303509Y-96424496D01*
X99493986Y-96424496D01*
X99589224Y-96376877D01*
X99636843Y-96329258D01*
X99684462Y-96234020D01*
X99684462Y-96043544D01*
X99636843Y-95948306D01*
X99589224Y-95900687D01*
X99493986Y-95853068D01*
%TO.C,C33*%
X148997142Y-128147142D02*
X148949523Y-128194761D01*
X148806666Y-128242380D01*
X148711428Y-128242380D01*
X148568571Y-128194761D01*
X148473333Y-128099523D01*
X148425714Y-128004285D01*
X148378095Y-127813809D01*
X148378095Y-127670952D01*
X148425714Y-127480476D01*
X148473333Y-127385238D01*
X148568571Y-127290000D01*
X148711428Y-127242380D01*
X148806666Y-127242380D01*
X148949523Y-127290000D01*
X148997142Y-127337619D01*
X149330476Y-127242380D02*
X149949523Y-127242380D01*
X149616190Y-127623333D01*
X149759047Y-127623333D01*
X149854285Y-127670952D01*
X149901904Y-127718571D01*
X149949523Y-127813809D01*
X149949523Y-128051904D01*
X149901904Y-128147142D01*
X149854285Y-128194761D01*
X149759047Y-128242380D01*
X149473333Y-128242380D01*
X149378095Y-128194761D01*
X149330476Y-128147142D01*
X150282857Y-127242380D02*
X150901904Y-127242380D01*
X150568571Y-127623333D01*
X150711428Y-127623333D01*
X150806666Y-127670952D01*
X150854285Y-127718571D01*
X150901904Y-127813809D01*
X150901904Y-128051904D01*
X150854285Y-128147142D01*
X150806666Y-128194761D01*
X150711428Y-128242380D01*
X150425714Y-128242380D01*
X150330476Y-128194761D01*
X150282857Y-128147142D01*
%TO.C,C23*%
X89003142Y-170666741D02*
X89050761Y-170714360D01*
X89098380Y-170857217D01*
X89098380Y-170952455D01*
X89050761Y-171095312D01*
X88955523Y-171190550D01*
X88860285Y-171238169D01*
X88669809Y-171285788D01*
X88526952Y-171285788D01*
X88336476Y-171238169D01*
X88241238Y-171190550D01*
X88146000Y-171095312D01*
X88098380Y-170952455D01*
X88098380Y-170857217D01*
X88146000Y-170714360D01*
X88193619Y-170666741D01*
X88193619Y-170285788D02*
X88146000Y-170238169D01*
X88098380Y-170142931D01*
X88098380Y-169904836D01*
X88146000Y-169809598D01*
X88193619Y-169761979D01*
X88288857Y-169714360D01*
X88384095Y-169714360D01*
X88526952Y-169761979D01*
X89098380Y-170333407D01*
X89098380Y-169714360D01*
X88098380Y-169381026D02*
X88098380Y-168761979D01*
X88479333Y-169095312D01*
X88479333Y-168952455D01*
X88526952Y-168857217D01*
X88574571Y-168809598D01*
X88669809Y-168761979D01*
X88907904Y-168761979D01*
X89003142Y-168809598D01*
X89050761Y-168857217D01*
X89098380Y-168952455D01*
X89098380Y-169238169D01*
X89050761Y-169333407D01*
X89003142Y-169381026D01*
%TO.C,R3*%
X163487081Y-147759496D02*
X163153748Y-147283306D01*
X162915652Y-147759496D02*
X162915652Y-146759496D01*
X163296605Y-146759496D01*
X163391843Y-146807116D01*
X163439462Y-146854735D01*
X163487081Y-146949973D01*
X163487081Y-147092830D01*
X163439462Y-147188068D01*
X163391843Y-147235687D01*
X163296605Y-147283306D01*
X162915652Y-147283306D01*
X163820414Y-146759496D02*
X164439462Y-146759496D01*
X164106128Y-147140449D01*
X164248986Y-147140449D01*
X164344224Y-147188068D01*
X164391843Y-147235687D01*
X164439462Y-147330925D01*
X164439462Y-147569020D01*
X164391843Y-147664258D01*
X164344224Y-147711877D01*
X164248986Y-147759496D01*
X163963271Y-147759496D01*
X163868033Y-147711877D01*
X163820414Y-147664258D01*
%TO.C,C29*%
X160125890Y-180989258D02*
X160078271Y-181036877D01*
X159935414Y-181084496D01*
X159840176Y-181084496D01*
X159697319Y-181036877D01*
X159602081Y-180941639D01*
X159554462Y-180846401D01*
X159506843Y-180655925D01*
X159506843Y-180513068D01*
X159554462Y-180322592D01*
X159602081Y-180227354D01*
X159697319Y-180132116D01*
X159840176Y-180084496D01*
X159935414Y-180084496D01*
X160078271Y-180132116D01*
X160125890Y-180179735D01*
X160506843Y-180179735D02*
X160554462Y-180132116D01*
X160649700Y-180084496D01*
X160887795Y-180084496D01*
X160983033Y-180132116D01*
X161030652Y-180179735D01*
X161078271Y-180274973D01*
X161078271Y-180370211D01*
X161030652Y-180513068D01*
X160459224Y-181084496D01*
X161078271Y-181084496D01*
X161554462Y-181084496D02*
X161744938Y-181084496D01*
X161840176Y-181036877D01*
X161887795Y-180989258D01*
X161983033Y-180846401D01*
X162030652Y-180655925D01*
X162030652Y-180274973D01*
X161983033Y-180179735D01*
X161935414Y-180132116D01*
X161840176Y-180084496D01*
X161649700Y-180084496D01*
X161554462Y-180132116D01*
X161506843Y-180179735D01*
X161459224Y-180274973D01*
X161459224Y-180513068D01*
X161506843Y-180608306D01*
X161554462Y-180655925D01*
X161649700Y-180703544D01*
X161840176Y-180703544D01*
X161935414Y-180655925D01*
X161983033Y-180608306D01*
X162030652Y-180513068D01*
%TO.C,R1*%
X168882081Y-105964496D02*
X168548748Y-105488306D01*
X168310652Y-105964496D02*
X168310652Y-104964496D01*
X168691605Y-104964496D01*
X168786843Y-105012116D01*
X168834462Y-105059735D01*
X168882081Y-105154973D01*
X168882081Y-105297830D01*
X168834462Y-105393068D01*
X168786843Y-105440687D01*
X168691605Y-105488306D01*
X168310652Y-105488306D01*
X169834462Y-105964496D02*
X169263033Y-105964496D01*
X169548748Y-105964496D02*
X169548748Y-104964496D01*
X169453509Y-105107354D01*
X169358271Y-105202592D01*
X169263033Y-105250211D01*
D11*
%TO.C,AE1*%
X77576228Y-99074478D02*
X77576228Y-98624534D01*
X77846194Y-99164467D02*
X76901312Y-98849506D01*
X77846194Y-98534545D01*
X77351256Y-98219585D02*
X77351256Y-97904624D01*
X77846194Y-97769641D02*
X77846194Y-98219585D01*
X76901312Y-98219585D01*
X76901312Y-97769641D01*
X77846194Y-96869753D02*
X77846194Y-97409686D01*
X77846194Y-97139719D02*
X76901312Y-97139719D01*
X77036295Y-97229708D01*
X77126284Y-97319697D01*
X77171278Y-97409686D01*
D12*
%TO.C,BT1*%
X119397690Y-89304601D02*
X119579119Y-89365077D01*
X119639595Y-89425554D01*
X119700071Y-89546506D01*
X119700071Y-89727935D01*
X119639595Y-89848887D01*
X119579119Y-89909363D01*
X119458167Y-89969839D01*
X118974357Y-89969839D01*
X118974357Y-88699839D01*
X119397690Y-88699839D01*
X119518643Y-88760316D01*
X119579119Y-88820792D01*
X119639595Y-88941744D01*
X119639595Y-89062696D01*
X119579119Y-89183649D01*
X119518643Y-89244125D01*
X119397690Y-89304601D01*
X118974357Y-89304601D01*
X120062928Y-88699839D02*
X120788643Y-88699839D01*
X120425786Y-89969839D02*
X120425786Y-88699839D01*
X121877214Y-89969839D02*
X121151500Y-89969839D01*
X121514357Y-89969839D02*
X121514357Y-88699839D01*
X121393405Y-88881268D01*
X121272452Y-89002220D01*
X121151500Y-89062696D01*
D11*
%TO.C,MOD2*%
X97031158Y-107489254D02*
X95456355Y-107489254D01*
X96581215Y-106964320D01*
X95456355Y-106439386D01*
X97031158Y-106439386D01*
X95456355Y-105389517D02*
X95456355Y-105089555D01*
X95531346Y-104939573D01*
X95681327Y-104789592D01*
X95981290Y-104714601D01*
X96506224Y-104714601D01*
X96806187Y-104789592D01*
X96956168Y-104939573D01*
X97031158Y-105089555D01*
X97031158Y-105389517D01*
X96956168Y-105539498D01*
X96806187Y-105689479D01*
X96506224Y-105764470D01*
X95981290Y-105764470D01*
X95681327Y-105689479D01*
X95531346Y-105539498D01*
X95456355Y-105389517D01*
X97031158Y-104039686D02*
X95456355Y-104039686D01*
X95456355Y-103664733D01*
X95531346Y-103439761D01*
X95681327Y-103289780D01*
X95831308Y-103214789D01*
X96131271Y-103139798D01*
X96356243Y-103139798D01*
X96656205Y-103214789D01*
X96806187Y-103289780D01*
X96956168Y-103439761D01*
X97031158Y-103664733D01*
X97031158Y-104039686D01*
X95606337Y-102539873D02*
X95531346Y-102464883D01*
X95456355Y-102314902D01*
X95456355Y-101939949D01*
X95531346Y-101789967D01*
X95606337Y-101714977D01*
X95756318Y-101639986D01*
X95906299Y-101639986D01*
X96131271Y-101714977D01*
X97031158Y-102614864D01*
X97031158Y-101639986D01*
D10*
%TO.C,C3*%
X148933081Y-113034258D02*
X148885462Y-113081877D01*
X148742605Y-113129496D01*
X148647367Y-113129496D01*
X148504509Y-113081877D01*
X148409271Y-112986639D01*
X148361652Y-112891401D01*
X148314033Y-112700925D01*
X148314033Y-112558068D01*
X148361652Y-112367592D01*
X148409271Y-112272354D01*
X148504509Y-112177116D01*
X148647367Y-112129496D01*
X148742605Y-112129496D01*
X148885462Y-112177116D01*
X148933081Y-112224735D01*
X149266414Y-112129496D02*
X149885462Y-112129496D01*
X149552128Y-112510449D01*
X149694986Y-112510449D01*
X149790224Y-112558068D01*
X149837843Y-112605687D01*
X149885462Y-112700925D01*
X149885462Y-112939020D01*
X149837843Y-113034258D01*
X149790224Y-113081877D01*
X149694986Y-113129496D01*
X149409271Y-113129496D01*
X149314033Y-113081877D01*
X149266414Y-113034258D01*
D13*
%TO.C,C26*%
X87777252Y-179004884D02*
X87777252Y-179639884D01*
X85237252Y-179004884D02*
X87777252Y-179004884D01*
X87777252Y-179639884D02*
X87777252Y-180274884D01*
X87777252Y-180274884D02*
X85237252Y-180274884D01*
X85237252Y-180274884D02*
X85237252Y-179004884D01*
%TO.C,R9*%
X83487252Y-174354884D02*
X83487252Y-173084884D01*
X86027252Y-173084884D02*
X86027252Y-173719884D01*
X83487252Y-173084884D02*
X86027252Y-173084884D01*
X86027252Y-174354884D02*
X83487252Y-174354884D01*
X86027252Y-173719884D02*
X86027252Y-174354884D01*
%TO.C,C7*%
X102748748Y-93387116D02*
X102748748Y-94022116D01*
X100208748Y-94022116D02*
X100208748Y-92752116D01*
X102748748Y-94022116D02*
X100208748Y-94022116D01*
X102748748Y-92752116D02*
X102748748Y-93387116D01*
X100208748Y-92752116D02*
X102748748Y-92752116D01*
D14*
%TO.C,U3*%
X159788748Y-188732116D02*
X159131948Y-188732116D01*
X159788748Y-188888916D02*
X159788748Y-188732116D01*
X156788748Y-188732116D02*
X157445548Y-188732116D01*
X156788748Y-191575316D02*
X156788748Y-191732116D01*
X159788748Y-191732116D02*
X159131948Y-191732116D01*
X156788748Y-188888916D02*
X156788748Y-188732116D01*
X159788748Y-191575316D02*
X159788748Y-191732116D01*
X156788748Y-191732116D02*
X157445548Y-191732116D01*
D15*
X156610748Y-188581116D02*
G75*
G03*
X156610748Y-188581116I-100000J0D01*
G01*
D13*
%TO.C,C5*%
X164443748Y-112002116D02*
X164443748Y-112637116D01*
X161903748Y-112637116D02*
X161903748Y-111367116D01*
X164443748Y-112637116D02*
X161903748Y-112637116D01*
X164443748Y-111367116D02*
X164443748Y-112002116D01*
X161903748Y-111367116D02*
X164443748Y-111367116D01*
%TO.C,C22*%
X147395000Y-135085000D02*
X149935000Y-135085000D01*
X149935000Y-136355000D02*
X147395000Y-136355000D01*
X147395000Y-135720000D02*
X147395000Y-135085000D01*
X147395000Y-136355000D02*
X147395000Y-135720000D01*
X149935000Y-135085000D02*
X149935000Y-136355000D01*
%TO.C,C27*%
X87812252Y-182359884D02*
X85272252Y-182359884D01*
X85272252Y-182359884D02*
X85272252Y-181089884D01*
X87812252Y-181724884D02*
X87812252Y-182359884D01*
X87812252Y-181089884D02*
X87812252Y-181724884D01*
X85272252Y-181089884D02*
X87812252Y-181089884D01*
%TO.C,R7*%
X117607000Y-180213000D02*
X115067000Y-180213000D01*
X115067000Y-180213000D02*
X115067000Y-178943000D01*
X117607000Y-179578000D02*
X117607000Y-180213000D01*
X117607000Y-178943000D02*
X117607000Y-179578000D01*
X115067000Y-178943000D02*
X117607000Y-178943000D01*
%TO.C,C21*%
X144566000Y-143942000D02*
X144566000Y-145212000D01*
X142026000Y-144577000D02*
X142026000Y-143942000D01*
X142026000Y-145212000D02*
X142026000Y-144577000D01*
X144566000Y-145212000D02*
X142026000Y-145212000D01*
X142026000Y-143942000D02*
X144566000Y-143942000D01*
%TO.C,J2*%
X179319000Y-157762116D02*
X179319000Y-150142116D01*
X179319000Y-150142116D02*
X181859000Y-150142116D01*
X181859000Y-150142116D02*
X181859000Y-157762116D01*
X180589000Y-157762116D02*
X179319000Y-157762116D01*
X181859000Y-157762116D02*
X180589000Y-157762116D01*
%TO.C,L1*%
X86413748Y-100237116D02*
X88953748Y-100237116D01*
X88953748Y-100237116D02*
X88953748Y-100872116D01*
X88953748Y-101507116D02*
X86413748Y-101507116D01*
X88953748Y-100872116D02*
X88953748Y-101507116D01*
X86413748Y-101507116D02*
X86413748Y-100237116D01*
D15*
%TO.C,MOD1*%
X107800252Y-188695884D02*
X91800252Y-188695884D01*
X91800252Y-172695884D02*
X107800252Y-172695884D01*
D16*
X110035252Y-187760884D02*
G75*
G03*
X110035252Y-187760884I-100000J0D01*
G01*
D13*
%TO.C,C4*%
X150240000Y-115610000D02*
X150240000Y-114975000D01*
X152780000Y-114340000D02*
X152780000Y-115610000D01*
X150240000Y-114340000D02*
X152780000Y-114340000D01*
X150240000Y-114975000D02*
X150240000Y-114340000D01*
X152780000Y-115610000D02*
X150240000Y-115610000D01*
%TO.C,R6*%
X90297000Y-153929000D02*
X90297000Y-156469000D01*
X90297000Y-156469000D02*
X89662000Y-156469000D01*
X89662000Y-156469000D02*
X89027000Y-156469000D01*
X89027000Y-156469000D02*
X89027000Y-153929000D01*
X89027000Y-153929000D02*
X90297000Y-153929000D01*
%TO.C,C31*%
X156848748Y-184082116D02*
X156848748Y-182812116D01*
X159388748Y-182812116D02*
X159388748Y-183447116D01*
X159388748Y-184082116D02*
X156848748Y-184082116D01*
X159388748Y-183447116D02*
X159388748Y-184082116D01*
X156848748Y-182812116D02*
X159388748Y-182812116D01*
%TO.C,U7*%
X139414000Y-141776000D02*
X139744000Y-141776000D01*
X139744000Y-134576000D02*
X139744000Y-134906000D01*
X132874000Y-134576000D02*
X132544000Y-134576000D01*
X132874000Y-141776000D02*
X132544000Y-141776000D01*
X132544000Y-141776000D02*
X132544000Y-141446000D01*
X132544000Y-134576000D02*
X132544000Y-134906000D01*
X139414000Y-134576000D02*
X139744000Y-134576000D01*
X139744000Y-141776000D02*
X139744000Y-141446000D01*
%TO.C,U9*%
X165047326Y-178787116D02*
X157697326Y-178787116D01*
X157697326Y-172437116D02*
X157697326Y-178787116D01*
X157697326Y-172437116D02*
X165047326Y-172437116D01*
X165047326Y-172437116D02*
X165047326Y-178787116D01*
D17*
X165868747Y-177517116D02*
G75*
G03*
X165868747Y-177517116I-171421J0D01*
G01*
D13*
%TO.C,R2*%
X175448748Y-185667116D02*
X174813748Y-185667116D01*
X174813748Y-183127116D02*
X176083748Y-183127116D01*
X176083748Y-185667116D02*
X175448748Y-185667116D01*
X174813748Y-185667116D02*
X174813748Y-183127116D01*
X176083748Y-183127116D02*
X176083748Y-185667116D01*
%TO.C,PZ1*%
X187238748Y-166482116D02*
X187238748Y-181482116D01*
X173738748Y-168482116D02*
X173738748Y-166482116D01*
X187238748Y-181482116D02*
X173738748Y-181482116D01*
X173738748Y-181482116D02*
X173738748Y-168482116D01*
X173738748Y-166482116D02*
X187238748Y-166482116D01*
%TO.C,Q1*%
X179533748Y-185342116D02*
X179533748Y-184707116D01*
X179533748Y-187882116D02*
X179533748Y-187247116D01*
X180803748Y-185342116D02*
X179533748Y-185342116D01*
X176993748Y-184072116D02*
X176993748Y-187882116D01*
X176993748Y-187882116D02*
X179533748Y-187882116D01*
X179533748Y-184707116D02*
X179533748Y-184072116D01*
X179533748Y-186612116D02*
X179533748Y-187247116D01*
X180803748Y-185342116D02*
X180803748Y-186612116D01*
X179533748Y-184072116D02*
X176993748Y-184072116D01*
X180803748Y-186612116D02*
X179533748Y-186612116D01*
%TO.C,U5*%
X165541248Y-165914616D02*
X169351248Y-165914616D01*
X165541248Y-169089616D02*
X165541248Y-165914616D01*
X169351248Y-165914616D02*
X169351248Y-169089616D01*
X165541248Y-165914616D02*
X166176248Y-165914616D01*
X169351248Y-169089616D02*
X165541248Y-169089616D01*
D18*
X167036248Y-166609616D02*
G75*
G03*
X167036248Y-166609616I-80000J0D01*
G01*
X165226248Y-166609616D02*
G75*
G03*
X165226248Y-166609616I-80000J0D01*
G01*
D13*
%TO.C,U4*%
X166048748Y-147092116D02*
X174548748Y-147092116D01*
X165548748Y-155092116D02*
X165548748Y-147632116D01*
X165548748Y-147632116D02*
X166048748Y-147092116D01*
X174548748Y-147092116D02*
X174548748Y-155092116D01*
X174548748Y-155092116D02*
X165548748Y-155092116D01*
%TO.C,J1*%
X178953748Y-109097116D02*
X177683748Y-109097116D01*
X177683748Y-101477116D02*
X180223748Y-101477116D01*
X177683748Y-109097116D02*
X177683748Y-101477116D01*
X180223748Y-109097116D02*
X178953748Y-109097116D01*
X180223748Y-101477116D02*
X180223748Y-109097116D01*
%TO.C,C30*%
X171228748Y-163154273D02*
X170593748Y-163154273D01*
X170593748Y-163154273D02*
X170593748Y-160614273D01*
X171863748Y-163154273D02*
X171228748Y-163154273D01*
X171863748Y-160614273D02*
X171863748Y-163154273D01*
X170593748Y-160614273D02*
X171863748Y-160614273D01*
%TO.C,C20*%
X144870000Y-142340000D02*
X142330000Y-142340000D01*
X142330000Y-141705000D02*
X142330000Y-141070000D01*
X142330000Y-141070000D02*
X144870000Y-141070000D01*
X144870000Y-141070000D02*
X144870000Y-142340000D01*
X142330000Y-142340000D02*
X142330000Y-141705000D01*
%TO.C,C6*%
X164373748Y-114672116D02*
X164373748Y-115307116D01*
X161833748Y-115307116D02*
X161833748Y-114037116D01*
X164373748Y-114037116D02*
X164373748Y-114672116D01*
X164373748Y-115307116D02*
X161833748Y-115307116D01*
X161833748Y-114037116D02*
X164373748Y-114037116D01*
%TO.C,CON2*%
X142480000Y-124960000D02*
X142480000Y-125595000D01*
X141845000Y-124960000D02*
X142480000Y-124960000D01*
%TO.C,R10*%
X106770000Y-128675000D02*
X106135000Y-128675000D01*
X107405000Y-126135000D02*
X107405000Y-128675000D01*
X106135000Y-126135000D02*
X107405000Y-126135000D01*
X106135000Y-128675000D02*
X106135000Y-126135000D01*
X107405000Y-128675000D02*
X106770000Y-128675000D01*
%TO.C,U2*%
X149192748Y-110552116D02*
X149192748Y-100392116D01*
X161384748Y-102932116D02*
X161384748Y-110552116D01*
X161384748Y-110552116D02*
X149192748Y-110552116D01*
X161384748Y-102932116D02*
X159138748Y-100407116D01*
X149192748Y-100392116D02*
X161384748Y-100392116D01*
X161384748Y-100392116D02*
X161384748Y-102932116D01*
%TO.C,R5*%
X153048748Y-173082116D02*
X153683748Y-173082116D01*
X154318748Y-175622116D02*
X153048748Y-175622116D01*
X153048748Y-175622116D02*
X153048748Y-173082116D01*
X154318748Y-173082116D02*
X154318748Y-175622116D01*
X153683748Y-173082116D02*
X154318748Y-173082116D01*
%TO.C,C1*%
X157778748Y-113162116D02*
X155238748Y-113162116D01*
X155238748Y-113162116D02*
X155238748Y-111892116D01*
X157778748Y-112527116D02*
X157778748Y-113162116D01*
X157778748Y-111892116D02*
X157778748Y-112527116D01*
X155238748Y-111892116D02*
X157778748Y-111892116D01*
%TO.C,C25*%
X87777252Y-177884884D02*
X85237252Y-177884884D01*
X87777252Y-177249884D02*
X87777252Y-177884884D01*
X87777252Y-176614884D02*
X87777252Y-177249884D01*
X85237252Y-177884884D02*
X85237252Y-176614884D01*
X85237252Y-176614884D02*
X87777252Y-176614884D01*
%TO.C,C24*%
X84187252Y-171299884D02*
X83552252Y-171299884D01*
X84822252Y-171299884D02*
X84187252Y-171299884D01*
X83552252Y-168759884D02*
X84822252Y-168759884D01*
X84822252Y-168759884D02*
X84822252Y-171299884D01*
X83552252Y-171299884D02*
X83552252Y-168759884D01*
%TO.C,R11*%
X106135000Y-122535000D02*
X107405000Y-122535000D01*
X106770000Y-125075000D02*
X106135000Y-125075000D01*
X107405000Y-122535000D02*
X107405000Y-125075000D01*
X106135000Y-125075000D02*
X106135000Y-122535000D01*
X107405000Y-125075000D02*
X106770000Y-125075000D01*
%TO.C,C2*%
X155195000Y-114405000D02*
X157735000Y-114405000D01*
X157735000Y-115040000D02*
X157735000Y-115675000D01*
X155195000Y-115675000D02*
X155195000Y-114405000D01*
X157735000Y-114405000D02*
X157735000Y-115040000D01*
X157735000Y-115675000D02*
X155195000Y-115675000D01*
D15*
%TO.C,U1*%
X171533748Y-112392116D02*
X171533748Y-116292116D01*
D13*
X166308748Y-118062116D02*
X166318748Y-110642116D01*
X171698748Y-118052116D02*
X166308748Y-118062116D01*
D15*
X166483748Y-112392116D02*
X166483748Y-116292116D01*
D13*
X171708748Y-110632116D02*
X171698748Y-118052116D01*
X166318748Y-110642116D02*
X171708748Y-110632116D01*
D16*
X171413748Y-110302116D02*
G75*
G03*
X171413748Y-110302116I-100000J0D01*
G01*
D13*
%TO.C,U6*%
X79385000Y-130326000D02*
X85805000Y-130326000D01*
X105130000Y-130326000D02*
X105130000Y-131326000D01*
X85805000Y-148566000D02*
X85805000Y-148946000D01*
X105130000Y-148566000D02*
X105130000Y-147566000D01*
X104350000Y-130326000D02*
X105130000Y-130326000D01*
X79385000Y-148566000D02*
X79385000Y-130326000D01*
X79385000Y-148566000D02*
X85805000Y-148566000D01*
X104350000Y-148566000D02*
X105130000Y-148566000D01*
%TO.C,R4*%
X158058748Y-169032116D02*
X158693748Y-169032116D01*
X158693748Y-169032116D02*
X159328748Y-169032116D01*
X158058748Y-171572116D02*
X158058748Y-169032116D01*
X159328748Y-171572116D02*
X158058748Y-171572116D01*
X159328748Y-169032116D02*
X159328748Y-171572116D01*
%TO.C,AE3*%
X76882000Y-172440000D02*
X76882000Y-171740000D01*
X79782000Y-175540000D02*
X79582000Y-175540000D01*
X75982000Y-173240000D02*
X76682000Y-173240000D01*
X79882000Y-174740000D02*
X79782000Y-174840000D01*
X76682000Y-173240000D02*
X76682000Y-172440000D01*
X79782000Y-173240000D02*
X80482000Y-173240000D01*
X79582000Y-176240000D02*
X76882000Y-176240000D01*
X79582000Y-171740000D02*
X79582000Y-172440000D01*
X76882000Y-175540000D02*
X76682000Y-175540000D01*
X79582000Y-175540000D02*
X79582000Y-176240000D01*
X80482000Y-173240000D02*
X80482000Y-174740000D01*
X76682000Y-175540000D02*
X76682000Y-174740000D01*
X76882000Y-171740000D02*
X79582000Y-171740000D01*
X76682000Y-172440000D02*
X76882000Y-172440000D01*
X76882000Y-176240000D02*
X76882000Y-175540000D01*
X79782000Y-174840000D02*
X79782000Y-175540000D01*
X79782000Y-172440000D02*
X79782000Y-173240000D01*
X75982000Y-174740000D02*
X75982000Y-173240000D01*
X79582000Y-172440000D02*
X79782000Y-172440000D01*
X80482000Y-174740000D02*
X79882000Y-174740000D01*
X76682000Y-174740000D02*
X75982000Y-174740000D01*
D19*
X78868155Y-173990000D02*
G75*
G03*
X78868155Y-173990000I-236155J0D01*
G01*
D13*
%TO.C,C28*%
X168558748Y-163197116D02*
X167923748Y-163197116D01*
X169193748Y-160657116D02*
X169193748Y-163197116D01*
X167923748Y-163197116D02*
X167923748Y-160657116D01*
X167923748Y-160657116D02*
X169193748Y-160657116D01*
X169193748Y-163197116D02*
X168558748Y-163197116D01*
%TO.C,C9*%
X84188748Y-100252116D02*
X84188748Y-100887116D01*
X81648748Y-101522116D02*
X81648748Y-100252116D01*
X84188748Y-101522116D02*
X81648748Y-101522116D01*
X84188748Y-100887116D02*
X84188748Y-101522116D01*
X81648748Y-100252116D02*
X84188748Y-100252116D01*
%TO.C,Y2*%
X148760000Y-132380000D02*
G75*
G03*
X148760000Y-132380000I-2000000J0D01*
G01*
X145660000Y-133480000D02*
G75*
G03*
X145660000Y-133480000I0J0D01*
G01*
%TO.C,CON1*%
X94615000Y-124587000D02*
X94615000Y-123952000D01*
X95250000Y-124587000D02*
X94615000Y-124587000D01*
%TO.C,C8*%
X100118748Y-95322116D02*
X102658748Y-95322116D01*
X102658748Y-95957116D02*
X102658748Y-96592116D01*
X102658748Y-96592116D02*
X100118748Y-96592116D01*
X102658748Y-95322116D02*
X102658748Y-95957116D01*
X100118748Y-96592116D02*
X100118748Y-95322116D01*
%TO.C,C33*%
X147735000Y-129060000D02*
X147735000Y-128425000D01*
X147735000Y-128425000D02*
X150275000Y-128425000D01*
X150275000Y-128425000D02*
X150275000Y-129695000D01*
X147735000Y-129695000D02*
X147735000Y-129060000D01*
X150275000Y-129695000D02*
X147735000Y-129695000D01*
%TO.C,C23*%
X87612252Y-174254884D02*
X86977252Y-174254884D01*
X86977252Y-174254884D02*
X86977252Y-171714884D01*
X88247252Y-171714884D02*
X88247252Y-174254884D01*
X88247252Y-174254884D02*
X87612252Y-174254884D01*
X86977252Y-171714884D02*
X88247252Y-171714884D01*
%TO.C,R3*%
X164288748Y-149212116D02*
X161748748Y-149212116D01*
X164288748Y-147942116D02*
X164288748Y-149212116D01*
X161748748Y-149212116D02*
X161748748Y-148577116D01*
X161748748Y-147942116D02*
X164288748Y-147942116D01*
X161748748Y-148577116D02*
X161748748Y-147942116D01*
%TO.C,C29*%
X156860905Y-179977116D02*
X159400905Y-179977116D01*
X159400905Y-179977116D02*
X159400905Y-180612116D01*
X159400905Y-181247116D02*
X156860905Y-181247116D01*
X159400905Y-180612116D02*
X159400905Y-181247116D01*
X156860905Y-181247116D02*
X156860905Y-179977116D01*
%TO.C,R1*%
X171225812Y-101182116D02*
X166871684Y-101182116D01*
X171225812Y-104602116D02*
X166871684Y-104602116D01*
%TO.C,AE1*%
X79568748Y-99422116D02*
X79568748Y-100222116D01*
X76468748Y-99422116D02*
X76668748Y-99422116D01*
X79568748Y-102522116D02*
X79368748Y-102522116D01*
X76468748Y-102522116D02*
X76468748Y-101722116D01*
X76468748Y-101722116D02*
X75768748Y-101722116D01*
X79368748Y-98722116D02*
X79368748Y-99422116D01*
X76668748Y-98722116D02*
X79368748Y-98722116D01*
X79368748Y-102522116D02*
X79368748Y-103222116D01*
X75768748Y-101722116D02*
X75768748Y-100222116D01*
X75768748Y-100222116D02*
X76468748Y-100222116D01*
X76668748Y-99422116D02*
X76668748Y-98722116D01*
X76468748Y-100222116D02*
X76468748Y-99422116D01*
X79568748Y-100222116D02*
X80268748Y-100222116D01*
X80268748Y-101722116D02*
X79668748Y-101722116D01*
X79568748Y-101822116D02*
X79568748Y-102522116D01*
X80268748Y-100222116D02*
X80268748Y-101722116D01*
X79668748Y-101722116D02*
X79568748Y-101822116D01*
X76668748Y-103222116D02*
X76668748Y-102522116D01*
X76668748Y-102522116D02*
X76468748Y-102522116D01*
X79368748Y-103222116D02*
X76668748Y-103222116D01*
X79368748Y-99422116D02*
X79568748Y-99422116D01*
D19*
X78654903Y-100972116D02*
G75*
G03*
X78654903Y-100972116I-236155J0D01*
G01*
D20*
%TO.C,BT1*%
X112098748Y-86737116D02*
X129098748Y-86737116D01*
X129098748Y-101807116D02*
X129098748Y-96772116D01*
X112098748Y-96772116D02*
X112098748Y-101807116D01*
X112098748Y-101807116D02*
X129098748Y-101807116D01*
X129098748Y-86737116D02*
X129098748Y-91772116D01*
X112098748Y-91772116D02*
X112098748Y-86737116D01*
D13*
%TO.C,MOD2*%
X103097344Y-109022116D02*
X103117344Y-98912116D01*
X92407344Y-109002116D02*
X92407344Y-109262116D01*
X102607344Y-98912116D02*
X102607344Y-98662116D01*
X91907344Y-98922116D02*
X91907344Y-109002116D01*
X102617344Y-109262116D02*
X102617344Y-109022116D01*
X103117344Y-98912116D02*
X102607344Y-98912116D01*
X97197344Y-98662116D02*
X92407344Y-98662116D01*
X92407344Y-98922116D02*
X91907344Y-98922116D01*
X102607344Y-98662116D02*
X97197344Y-98662116D01*
X92407344Y-98662116D02*
X92407344Y-98922116D01*
X92407344Y-109262116D02*
X102617344Y-109262116D01*
X102617344Y-109022116D02*
X103097344Y-109022116D01*
X91907344Y-109002116D02*
X92407344Y-109002116D01*
D21*
X104028748Y-108412116D02*
G75*
G03*
X104028748Y-108412116I-121404J0D01*
G01*
X100838748Y-108302116D02*
G75*
G03*
X100838748Y-108302116I-121404J0D01*
G01*
D13*
%TO.C,C3*%
X152763748Y-112017116D02*
X152763748Y-113287116D01*
X150223748Y-112652116D02*
X150223748Y-112017116D01*
X150223748Y-112017116D02*
X152763748Y-112017116D01*
X150223748Y-113287116D02*
X150223748Y-112652116D01*
X152763748Y-113287116D02*
X150223748Y-113287116D01*
%TD*%
M02*
