%TF.GenerationSoftware,KiCad,Pcbnew,(5.99.0-10506-gb986797469)*%
%TF.CreationDate,2021-06-08T11:43:44+02:00*%
%TF.ProjectId,LoRa tracker,4c6f5261-2074-4726-9163-6b65722e6b69,rev?*%
%TF.SameCoordinates,Original*%
%TF.FileFunction,Paste,Top*%
%TF.FilePolarity,Positive*%
%FSLAX46Y46*%
G04 Gerber Fmt 4.6, Leading zero omitted, Abs format (unit mm)*
G04 Created by KiCad (PCBNEW (5.99.0-10506-gb986797469)) date 2021-06-08 11:43:44*
%MOMM*%
%LPD*%
G01*
G04 APERTURE LIST*
G04 Aperture macros list*
%AMRoundRect*
0 Rectangle with rounded corners*
0 $1 Rounding radius*
0 $2 $3 $4 $5 $6 $7 $8 $9 X,Y pos of 4 corners*
0 Add a 4 corners polygon primitive as box body*
4,1,4,$2,$3,$4,$5,$6,$7,$8,$9,$2,$3,0*
0 Add four circle primitives for the rounded corners*
1,1,$1+$1,$2,$3*
1,1,$1+$1,$4,$5*
1,1,$1+$1,$6,$7*
1,1,$1+$1,$8,$9*
0 Add four rect primitives between the rounded corners*
20,1,$1+$1,$2,$3,$4,$5,0*
20,1,$1+$1,$4,$5,$6,$7,0*
20,1,$1+$1,$6,$7,$8,$9,0*
20,1,$1+$1,$8,$9,$2,$3,0*%
%AMOutline5P*
0 Free polygon, 5 corners , with rotation*
0 The origin of the aperture is its center*
0 number of corners: always 8*
0 $1 to $10 corner X, Y*
0 $11 Rotation angle, in degrees counterclockwise*
0 create outline with 8 corners*
4,1,5,$1,$2,$3,$4,$5,$6,$7,$8,$9,$10,$1,$2,$11*%
%AMOutline6P*
0 Free polygon, 6 corners , with rotation*
0 The origin of the aperture is its center*
0 number of corners: always 6*
0 $1 to $12 corner X, Y*
0 $13 Rotation angle, in degrees counterclockwise*
0 create outline with 6 corners*
4,1,6,$1,$2,$3,$4,$5,$6,$7,$8,$9,$10,$11,$12,$1,$2,$13*%
%AMOutline7P*
0 Free polygon, 7 corners , with rotation*
0 The origin of the aperture is its center*
0 number of corners: always 7*
0 $1 to $14 corner X, Y*
0 $15 Rotation angle, in degrees counterclockwise*
0 create outline with 7 corners*
4,1,7,$1,$2,$3,$4,$5,$6,$7,$8,$9,$10,$11,$12,$13,$14,$1,$2,$15*%
%AMOutline8P*
0 Free polygon, 8 corners , with rotation*
0 The origin of the aperture is its center*
0 number of corners: always 8*
0 $1 to $16 corner X, Y*
0 $17 Rotation angle, in degrees counterclockwise*
0 create outline with 8 corners*
4,1,8,$1,$2,$3,$4,$5,$6,$7,$8,$9,$10,$11,$12,$13,$14,$15,$16,$1,$2,$17*%
G04 Aperture macros list end*
%ADD10RoundRect,0.250000X-0.300000X0.250000X-0.300000X-0.250000X0.300000X-0.250000X0.300000X0.250000X0*%
%ADD11R,0.800000X0.300000*%
%ADD12R,0.300000X0.800000*%
%ADD13RoundRect,0.250000X0.300000X-0.250000X0.300000X0.250000X-0.300000X0.250000X-0.300000X-0.250000X0*%
%ADD14R,2.800000X1.200000*%
%ADD15RoundRect,0.250000X0.250000X0.300000X-0.250000X0.300000X-0.250000X-0.300000X0.250000X-0.300000X0*%
%ADD16R,0.570000X1.460000*%
%ADD17R,1.460000X0.570000*%
%ADD18RoundRect,0.150000X-0.625000X0.150000X-0.625000X-0.150000X0.625000X-0.150000X0.625000X0.150000X0*%
%ADD19R,1.550000X0.600000*%
%ADD20R,2.310000X4.220000*%
%ADD21R,1.399540X0.998220*%
%ADD22RoundRect,0.137500X0.262500X-0.137500X0.262500X0.137500X-0.262500X0.137500X-0.262500X-0.137500X0*%
%ADD23R,0.800000X0.550000*%
%ADD24Outline5P,0.400000X0.700000X0.400000X-0.700000X-0.400000X-0.700000X-0.400000X0.540000X-0.240000X0.700000X270.000000*%
%ADD25R,1.400000X0.800000*%
%ADD26RoundRect,0.250000X-0.250000X-0.300000X0.250000X-0.300000X0.250000X0.300000X-0.250000X0.300000X0*%
%ADD27R,0.600000X1.970000*%
%ADD28R,0.900000X2.000000*%
%ADD29R,2.000000X0.900000*%
%ADD30R,5.000000X5.000000*%
%ADD31R,1.000000X1.000000*%
%ADD32R,2.200000X1.050000*%
%ADD33RoundRect,0.249999X0.450001X1.425001X-0.450001X1.425001X-0.450001X-1.425001X0.450001X-1.425001X0*%
%ADD34R,3.180000X3.180000*%
%ADD35R,3.960000X3.960000*%
%ADD36R,1.600000X0.900000*%
G04 APERTURE END LIST*
D10*
%TO.C,C26*%
X87142252Y-179639884D03*
X85872252Y-179639884D03*
%TD*%
%TO.C,R9*%
X85392252Y-173719884D03*
X84122252Y-173719884D03*
%TD*%
%TO.C,C7*%
X102113748Y-93387116D03*
X100843748Y-93387116D03*
%TD*%
D11*
%TO.C,U3*%
X157013748Y-189232116D03*
X157013748Y-189732116D03*
X157013748Y-190232116D03*
X157013748Y-190732116D03*
X157013748Y-191232116D03*
D12*
X157788748Y-191507116D03*
X158288748Y-191507116D03*
X158788748Y-191507116D03*
D11*
X159563748Y-191232116D03*
X159563748Y-190732116D03*
X159563748Y-190232116D03*
X159563748Y-189732116D03*
X159563748Y-189232116D03*
D12*
X158788748Y-188957116D03*
X158288748Y-188957116D03*
X157788748Y-188957116D03*
%TD*%
D10*
%TO.C,C5*%
X163808748Y-112002116D03*
X162538748Y-112002116D03*
%TD*%
D13*
%TO.C,C22*%
X148030000Y-135720000D03*
X149300000Y-135720000D03*
%TD*%
D10*
%TO.C,C27*%
X87177252Y-181724884D03*
X85907252Y-181724884D03*
%TD*%
%TO.C,R7*%
X116972000Y-179578000D03*
X115702000Y-179578000D03*
%TD*%
D13*
%TO.C,C21*%
X142661000Y-144577000D03*
X143931000Y-144577000D03*
%TD*%
D10*
%TO.C,L1*%
X88318748Y-100872116D03*
X87048748Y-100872116D03*
%TD*%
D14*
%TO.C,MOD1*%
X107800252Y-187695884D03*
X107800252Y-185695884D03*
X107800252Y-183695884D03*
X107800252Y-181695884D03*
X107800252Y-179695884D03*
X107800252Y-177695884D03*
X107800252Y-175695884D03*
X107800252Y-173695884D03*
X91800252Y-173695884D03*
X91800252Y-175695884D03*
X91800252Y-177695884D03*
X91800252Y-179695884D03*
X91800252Y-181695884D03*
X91800252Y-183695884D03*
X91800252Y-185695884D03*
X91800252Y-187695884D03*
%TD*%
D13*
%TO.C,C4*%
X150875000Y-114975000D03*
X152145000Y-114975000D03*
%TD*%
D15*
%TO.C,R6*%
X89662000Y-155834000D03*
X89662000Y-154564000D03*
%TD*%
D10*
%TO.C,C31*%
X158753748Y-183447116D03*
X157483748Y-183447116D03*
%TD*%
D16*
%TO.C,U7*%
X138944000Y-134046000D03*
X138144000Y-134046000D03*
X137344000Y-134046000D03*
X136544000Y-134046000D03*
X135744000Y-134046000D03*
X134944000Y-134046000D03*
X134144000Y-134046000D03*
X133344000Y-134046000D03*
D17*
X132014000Y-135376000D03*
X132014000Y-136176000D03*
X132014000Y-136976000D03*
X132014000Y-137776000D03*
X132014000Y-138576000D03*
X132014000Y-139376000D03*
X132014000Y-140176000D03*
X132014000Y-140976000D03*
D16*
X133344000Y-142306000D03*
X134144000Y-142306000D03*
X134944000Y-142306000D03*
X135744000Y-142306000D03*
X136544000Y-142306000D03*
X137344000Y-142306000D03*
X138144000Y-142306000D03*
X138944000Y-142306000D03*
D17*
X140274000Y-140976000D03*
X140274000Y-140176000D03*
X140274000Y-139376000D03*
X140274000Y-138576000D03*
X140274000Y-137776000D03*
X140274000Y-136976000D03*
X140274000Y-136176000D03*
X140274000Y-135376000D03*
%TD*%
D18*
%TO.C,U9*%
X164097326Y-177517116D03*
D19*
X164097326Y-176247116D03*
X164097326Y-174977116D03*
X164097326Y-173707116D03*
X158697326Y-173707116D03*
X158697326Y-174977116D03*
X158697326Y-176247116D03*
X158697326Y-177517116D03*
%TD*%
D15*
%TO.C,R2*%
X175448748Y-185032116D03*
X175448748Y-183762116D03*
%TD*%
D20*
%TO.C,PZ1*%
X180288748Y-179077116D03*
X180288748Y-168987116D03*
%TD*%
D21*
%TO.C,Q1*%
X177798928Y-185027156D03*
X177798928Y-186927076D03*
X179998568Y-185977116D03*
%TD*%
D22*
%TO.C,U5*%
X166176248Y-166549616D03*
D23*
X166176248Y-167499616D03*
X166176248Y-168449616D03*
X168776248Y-168449616D03*
X168776248Y-166549616D03*
%TD*%
D24*
%TO.C,U4*%
X167248748Y-148552116D03*
D25*
X167248748Y-151092116D03*
X167248748Y-153632116D03*
X173548748Y-153632116D03*
X173548748Y-151092116D03*
X173548748Y-148552116D03*
%TD*%
D15*
%TO.C,C30*%
X171228748Y-162519273D03*
X171228748Y-161249273D03*
%TD*%
D13*
%TO.C,C20*%
X142965000Y-141705000D03*
X144235000Y-141705000D03*
%TD*%
D10*
%TO.C,C6*%
X163738748Y-114672116D03*
X162468748Y-114672116D03*
%TD*%
D15*
%TO.C,R10*%
X106770000Y-128040000D03*
X106770000Y-126770000D03*
%TD*%
D26*
%TO.C,R5*%
X153683748Y-173717116D03*
X153683748Y-174987116D03*
%TD*%
D10*
%TO.C,C1*%
X157143748Y-112527116D03*
X155873748Y-112527116D03*
%TD*%
%TO.C,C25*%
X87142252Y-177249884D03*
X85872252Y-177249884D03*
%TD*%
D15*
%TO.C,C24*%
X84187252Y-170664884D03*
X84187252Y-169394884D03*
%TD*%
%TO.C,R11*%
X106770000Y-124440000D03*
X106770000Y-123170000D03*
%TD*%
D10*
%TO.C,C2*%
X157100000Y-115040000D03*
X155830000Y-115040000D03*
%TD*%
D27*
%TO.C,U1*%
X170913748Y-111872116D03*
X169643748Y-111872116D03*
X168373748Y-111872116D03*
X167103748Y-111872116D03*
X167103748Y-116812116D03*
X168373748Y-116812116D03*
X169643748Y-116812116D03*
X170913748Y-116812116D03*
%TD*%
D28*
%TO.C,U6*%
X86995000Y-147946000D03*
X88265000Y-147946000D03*
X89535000Y-147946000D03*
X90805000Y-147946000D03*
X92075000Y-147946000D03*
X93345000Y-147946000D03*
X94615000Y-147946000D03*
X95885000Y-147946000D03*
X97155000Y-147946000D03*
X98425000Y-147946000D03*
X99695000Y-147946000D03*
X100965000Y-147946000D03*
X102235000Y-147946000D03*
X103505000Y-147946000D03*
D29*
X104505000Y-145161000D03*
X104505000Y-143891000D03*
X104505000Y-142621000D03*
X104505000Y-141351000D03*
X104505000Y-140081000D03*
X104505000Y-138811000D03*
X104505000Y-137541000D03*
X104505000Y-136271000D03*
X104505000Y-135001000D03*
X104505000Y-133731000D03*
D28*
X103505000Y-130946000D03*
X102235000Y-130946000D03*
X100965000Y-130946000D03*
X99695000Y-130946000D03*
X98425000Y-130946000D03*
X97155000Y-130946000D03*
X95885000Y-130946000D03*
X94615000Y-130946000D03*
X93345000Y-130946000D03*
X92075000Y-130946000D03*
X90805000Y-130946000D03*
X89535000Y-130946000D03*
X88265000Y-130946000D03*
X86995000Y-130946000D03*
D30*
X94495000Y-140446000D03*
%TD*%
D26*
%TO.C,R4*%
X158693748Y-169667116D03*
X158693748Y-170937116D03*
%TD*%
D31*
%TO.C,AE3*%
X79732000Y-173990000D03*
X76732000Y-173990000D03*
D32*
X78232000Y-172515000D03*
X78232000Y-175465000D03*
%TD*%
D15*
%TO.C,C28*%
X168558748Y-162562116D03*
X168558748Y-161292116D03*
%TD*%
D10*
%TO.C,C9*%
X83553748Y-100887116D03*
X82283748Y-100887116D03*
%TD*%
%TO.C,C8*%
X102023748Y-95957116D03*
X100753748Y-95957116D03*
%TD*%
D13*
%TO.C,C33*%
X148370000Y-129060000D03*
X149640000Y-129060000D03*
%TD*%
D15*
%TO.C,C23*%
X87612252Y-173619884D03*
X87612252Y-172349884D03*
%TD*%
D13*
%TO.C,R3*%
X162383748Y-148577116D03*
X163653748Y-148577116D03*
%TD*%
D10*
%TO.C,C29*%
X158765905Y-180612116D03*
X157495905Y-180612116D03*
%TD*%
D33*
%TO.C,R1*%
X172098748Y-102892116D03*
X165998748Y-102892116D03*
%TD*%
D31*
%TO.C,AE1*%
X79518748Y-100972116D03*
X76518748Y-100972116D03*
D32*
X78018748Y-99497116D03*
X78018748Y-102447116D03*
%TD*%
D34*
%TO.C,BT1*%
X110578748Y-94272116D03*
X130618748Y-94272116D03*
D35*
X120598748Y-94272116D03*
%TD*%
D36*
%TO.C,MOD2*%
X102107344Y-108362116D03*
X102107344Y-107262116D03*
X102107344Y-106162116D03*
X102107344Y-105062116D03*
X102107344Y-103962116D03*
X102107344Y-102862116D03*
X102107344Y-101762116D03*
X102107344Y-100662116D03*
X102107344Y-99562116D03*
X92907344Y-99562116D03*
X92907344Y-100662116D03*
X92907344Y-101762116D03*
X92907344Y-102862116D03*
X92907344Y-103962116D03*
X92907344Y-105062116D03*
X92907344Y-106162116D03*
X92907344Y-107262116D03*
X92907344Y-108362116D03*
%TD*%
D13*
%TO.C,C3*%
X150858748Y-112652116D03*
X152128748Y-112652116D03*
%TD*%
M02*
