M48
; DRILL file {KiCad (5.99.0-10506-gb986797469)} date Mon Jun  7 12:53:32 2021
; FORMAT={-:-/ absolute / inch / decimal}
; #@! TF.CreationDate,2021-06-07T12:53:32+02:00
; #@! TF.GenerationSoftware,Kicad,Pcbnew,(5.99.0-10506-gb986797469)
; #@! TF.FileFunction,Plated,1,2,PTH
FMAT,2
INCH
; #@! TA.AperFunction,Plated,PTH,ViaDrill
T1C0.0098
; #@! TA.AperFunction,Plated,PTH,ComponentDrill
T2C0.0197
; #@! TA.AperFunction,Plated,PTH,ComponentDrill
T3C0.0315
; #@! TA.AperFunction,Plated,PTH,ComponentDrill
T4C0.0402
; #@! TA.AperFunction,Plated,PTH,ComponentDrill
T5C0.0551
%
G90
G05
T1
X3.0712Y-3.8339
X3.1877Y-9.1965
X3.2173Y-9.2729
X3.2523Y-4.8162
X3.3053Y-6.1026
X3.3437Y-5.5536
X3.348Y-5.4067
X3.4047Y-5.1446
X3.472Y-5.6594
X3.5295Y-4.7489
X3.5732Y-5.5162
X3.6881Y-4.5812
X3.724Y-5.0658
X3.7921Y-3.8284
X3.8181Y-5.2572
X3.8748Y-5.5698
X3.9893Y-4.7843
X4.0232Y-4.3635
X4.0307Y-6.0335
X4.1217Y-5.6283
X4.1637Y-3.9202
X4.1949Y-5.5157
X4.207Y-5.3438
X4.2689Y-5.4457
X4.2949Y-4.0921
X4.3028Y-4.1807
X4.3535Y-5.682
X4.3575Y-4.2181
X4.3649Y-5.7662
X4.4224Y-5.5472
X4.563Y-5.6276
X4.5953Y-5.5504
X4.7464Y-3.7139
X4.8079Y-5.5673
X4.8906Y-4.5406
X5.02Y-5.46
X5.08Y-5.33
X5.12Y-5.55
X5.1465Y-5.6094
X5.1528Y-5.2634
X5.1846Y-5.2169
X5.2102Y-4.1476
X5.2504Y-5.424
X5.2531Y-4.8969
X5.2555Y-5.3921
X5.2626Y-5.2146
X5.3126Y-5.2161
X5.3445Y-5.698
X5.3764Y-5.8287
X5.4079Y-5.7858
X5.4378Y-5.7071
X5.4752Y-5.6846
X5.4756Y-4.8957
X5.5051Y-4.8421
X5.5343Y-4.8843
X5.635Y-6.3539
X5.64Y-5.33
X5.7768Y-5.635
X5.8839Y-5.8496
X5.9Y-5.49
X5.93Y-5.46
X5.9559Y-5.348
X6.04Y-5.39
X6.0889Y-7.5318
X6.1204Y-6.8426
X6.1822Y-6.6379
X6.2125Y-7.5961
X6.228Y-7.3646
X6.2338Y-7.4918
X6.2768Y-6.3713
X6.3031Y-4.5035
X6.3311Y-7.5288
X6.3535Y-7.1737
X6.42Y-4.82
X6.4208Y-5.4603
X6.4224Y-6.4891
X6.4602Y-6.7493
X6.4787Y-6.6324
X6.4897Y-5.9481
X6.5574Y-3.8387
X6.6289Y-4.7562
X6.8194Y-6.4652
X6.8224Y-7.282
X6.8507Y-4.5985
X6.9078Y-5.9485
X7.0972Y-6.4843
T2
X5.778Y-5.1902
X5.778Y-5.2335
T3
X3.6523Y-6.4144
X3.6523Y-6.4931
X3.6523Y-6.5719
X3.6523Y-6.6506
X3.6523Y-6.7294
X3.6523Y-6.8081
X3.6523Y-6.8869
X3.6523Y-6.9656
X4.1877Y-6.4144
X4.1877Y-6.4931
X4.1877Y-6.5719
X4.1877Y-6.6506
X4.1877Y-6.7294
X4.1877Y-6.8081
X4.1877Y-6.8869
X4.1877Y-6.9656
T4
X6.0137Y-4.0524
X6.1137Y-4.0524
X6.2137Y-4.0524
T5
X7.0442Y-5.9643
X7.0442Y-6.1611
X7.0454Y-4.0483
X7.0454Y-4.2452
T0
M30
