%TF.GenerationSoftware,KiCad,Pcbnew,(5.99.0-10506-gb986797469)*%
%TF.CreationDate,2021-06-04T08:44:59+02:00*%
%TF.ProjectId,LoRa tracker,4c6f5261-2074-4726-9163-6b65722e6b69,rev?*%
%TF.SameCoordinates,Original*%
%TF.FileFunction,Soldermask,Top*%
%TF.FilePolarity,Negative*%
%FSLAX46Y46*%
G04 Gerber Fmt 4.6, Leading zero omitted, Abs format (unit mm)*
G04 Created by KiCad (PCBNEW (5.99.0-10506-gb986797469)) date 2021-06-04 08:44:59*
%MOMM*%
%LPD*%
G01*
G04 APERTURE LIST*
G04 Aperture macros list*
%AMRoundRect*
0 Rectangle with rounded corners*
0 $1 Rounding radius*
0 $2 $3 $4 $5 $6 $7 $8 $9 X,Y pos of 4 corners*
0 Add a 4 corners polygon primitive as box body*
4,1,4,$2,$3,$4,$5,$6,$7,$8,$9,$2,$3,0*
0 Add four circle primitives for the rounded corners*
1,1,$1+$1,$2,$3*
1,1,$1+$1,$4,$5*
1,1,$1+$1,$6,$7*
1,1,$1+$1,$8,$9*
0 Add four rect primitives between the rounded corners*
20,1,$1+$1,$2,$3,$4,$5,0*
20,1,$1+$1,$4,$5,$6,$7,0*
20,1,$1+$1,$6,$7,$8,$9,0*
20,1,$1+$1,$8,$9,$2,$3,0*%
%AMOutline5P*
0 Free polygon, 5 corners , with rotation*
0 The origin of the aperture is its center*
0 number of corners: always 8*
0 $1 to $10 corner X, Y*
0 $11 Rotation angle, in degrees counterclockwise*
0 create outline with 8 corners*
4,1,5,$1,$2,$3,$4,$5,$6,$7,$8,$9,$10,$1,$2,$11*%
%AMOutline6P*
0 Free polygon, 6 corners , with rotation*
0 The origin of the aperture is its center*
0 number of corners: always 6*
0 $1 to $12 corner X, Y*
0 $13 Rotation angle, in degrees counterclockwise*
0 create outline with 6 corners*
4,1,6,$1,$2,$3,$4,$5,$6,$7,$8,$9,$10,$11,$12,$1,$2,$13*%
%AMOutline7P*
0 Free polygon, 7 corners , with rotation*
0 The origin of the aperture is its center*
0 number of corners: always 7*
0 $1 to $14 corner X, Y*
0 $15 Rotation angle, in degrees counterclockwise*
0 create outline with 7 corners*
4,1,7,$1,$2,$3,$4,$5,$6,$7,$8,$9,$10,$11,$12,$13,$14,$1,$2,$15*%
%AMOutline8P*
0 Free polygon, 8 corners , with rotation*
0 The origin of the aperture is its center*
0 number of corners: always 8*
0 $1 to $16 corner X, Y*
0 $17 Rotation angle, in degrees counterclockwise*
0 create outline with 8 corners*
4,1,8,$1,$2,$3,$4,$5,$6,$7,$8,$9,$10,$11,$12,$13,$14,$15,$16,$1,$2,$17*%
G04 Aperture macros list end*
%ADD10C,1.000000*%
%ADD11R,0.570000X1.460000*%
%ADD12R,1.460000X0.570000*%
%ADD13C,0.990600*%
%ADD14C,0.787400*%
%ADD15C,2.374900*%
%ADD16RoundRect,0.250000X0.300000X-0.250000X0.300000X0.250000X-0.300000X0.250000X-0.300000X-0.250000X0*%
%ADD17RoundRect,0.250000X-0.300000X0.250000X-0.300000X-0.250000X0.300000X-0.250000X0.300000X0.250000X0*%
%ADD18RoundRect,0.250000X0.250000X0.300000X-0.250000X0.300000X-0.250000X-0.300000X0.250000X-0.300000X0*%
%ADD19C,3.000000*%
%ADD20R,0.800000X0.300000*%
%ADD21R,0.300000X0.800000*%
%ADD22R,1.000000X1.000000*%
%ADD23R,2.200000X1.050000*%
%ADD24R,2.000000X2.000000*%
%ADD25C,2.000000*%
%ADD26R,0.810000X0.220000*%
%ADD27R,0.220000X0.810000*%
%ADD28R,4.600000X4.600000*%
%ADD29RoundRect,0.150000X-0.625000X0.150000X-0.625000X-0.150000X0.625000X-0.150000X0.625000X0.150000X0*%
%ADD30R,1.550000X0.600000*%
%ADD31RoundRect,0.250000X-0.250000X-0.300000X0.250000X-0.300000X0.250000X0.300000X-0.250000X0.300000X0*%
%ADD32R,2.310000X4.220000*%
%ADD33R,1.399540X0.998220*%
%ADD34RoundRect,0.137500X0.262500X-0.137500X0.262500X0.137500X-0.262500X0.137500X-0.262500X-0.137500X0*%
%ADD35R,0.800000X0.550000*%
%ADD36Outline5P,0.400000X0.700000X0.400000X-0.700000X-0.400000X-0.700000X-0.400000X0.540000X-0.240000X0.700000X270.000000*%
%ADD37R,1.400000X0.800000*%
%ADD38C,1.500000*%
%ADD39R,0.600000X1.970000*%
%ADD40R,1.210000X1.010000*%
%ADD41R,0.800000X0.500000*%
%ADD42R,0.500000X0.800000*%
%ADD43R,1.600000X1.600000*%
%ADD44RoundRect,0.249999X0.450001X1.425001X-0.450001X1.425001X-0.450001X-1.425001X0.450001X-1.425001X0*%
%ADD45R,3.180000X3.180000*%
%ADD46R,3.960000X3.960000*%
%ADD47R,1.600000X0.900000*%
G04 APERTURE END LIST*
%TO.C,U8*%
G36*
X103428748Y-163002116D02*
G01*
X102928748Y-163502116D01*
X101628748Y-163502116D01*
X101628748Y-161702116D01*
X103428748Y-161702116D01*
X103428748Y-163002116D01*
G37*
%TD*%
D10*
%TO.C,Y2*%
X146760000Y-131830000D03*
X146760000Y-132930000D03*
%TD*%
D11*
%TO.C,U7*%
X138944000Y-134046000D03*
X138144000Y-134046000D03*
X137344000Y-134046000D03*
X136544000Y-134046000D03*
X135744000Y-134046000D03*
X134944000Y-134046000D03*
X134144000Y-134046000D03*
X133344000Y-134046000D03*
D12*
X132014000Y-135376000D03*
X132014000Y-136176000D03*
X132014000Y-136976000D03*
X132014000Y-137776000D03*
X132014000Y-138576000D03*
X132014000Y-139376000D03*
X132014000Y-140176000D03*
X132014000Y-140976000D03*
D11*
X133344000Y-142306000D03*
X134144000Y-142306000D03*
X134944000Y-142306000D03*
X135744000Y-142306000D03*
X136544000Y-142306000D03*
X137344000Y-142306000D03*
X138144000Y-142306000D03*
X138944000Y-142306000D03*
D12*
X140274000Y-140976000D03*
X140274000Y-140176000D03*
X140274000Y-139376000D03*
X140274000Y-138576000D03*
X140274000Y-137776000D03*
X140274000Y-136976000D03*
X140274000Y-136176000D03*
X140274000Y-135376000D03*
%TD*%
D13*
%TO.C,CON2*%
X135495000Y-127246000D03*
X135495000Y-125214000D03*
X143115000Y-126230000D03*
D14*
X141845000Y-125595000D03*
X140575000Y-125595000D03*
X139305000Y-125595000D03*
X138035000Y-125595000D03*
X136765000Y-125595000D03*
X136765000Y-126865000D03*
X138035000Y-126865000D03*
X139305000Y-126865000D03*
X140575000Y-126865000D03*
X141845000Y-126865000D03*
D15*
X143115000Y-128770000D03*
X143115000Y-123690000D03*
X137400000Y-123690000D03*
X137400000Y-128770000D03*
%TD*%
D16*
%TO.C,C33*%
X148370000Y-129060000D03*
X149640000Y-129060000D03*
%TD*%
%TO.C,C22*%
X148030000Y-135720000D03*
X149300000Y-135720000D03*
%TD*%
%TO.C,C21*%
X142661000Y-144577000D03*
X143931000Y-144577000D03*
%TD*%
%TO.C,C20*%
X142965000Y-141705000D03*
X144235000Y-141705000D03*
%TD*%
%TO.C,C4*%
X150875000Y-114975000D03*
X152145000Y-114975000D03*
%TD*%
D17*
%TO.C,C2*%
X157100000Y-115040000D03*
X155830000Y-115040000D03*
%TD*%
D13*
%TO.C,CON3*%
X103973748Y-175202116D03*
D15*
X98258748Y-177742116D03*
D13*
X96353748Y-176218116D03*
D15*
X103973748Y-172662116D03*
X103973748Y-177742116D03*
X98258748Y-172662116D03*
D13*
X96353748Y-174186116D03*
D14*
X102703748Y-174567116D03*
X101433748Y-174567116D03*
X100163748Y-174567116D03*
X98893748Y-174567116D03*
X97623748Y-174567116D03*
X97623748Y-175837116D03*
X98893748Y-175837116D03*
X100163748Y-175837116D03*
X101433748Y-175837116D03*
X102703748Y-175837116D03*
%TD*%
D17*
%TO.C,C7*%
X102113748Y-93387116D03*
X100843748Y-93387116D03*
%TD*%
D16*
%TO.C,C10*%
X87158748Y-126562116D03*
X88428748Y-126562116D03*
%TD*%
D18*
%TO.C,C27*%
X109953748Y-175699616D03*
X109953748Y-174429616D03*
%TD*%
D19*
%TO.C,TP2*%
X107558748Y-145972116D03*
%TD*%
D20*
%TO.C,U3*%
X157013748Y-189232116D03*
X157013748Y-189732116D03*
X157013748Y-190232116D03*
X157013748Y-190732116D03*
X157013748Y-191232116D03*
D21*
X157788748Y-191507116D03*
X158288748Y-191507116D03*
X158788748Y-191507116D03*
D20*
X159563748Y-191232116D03*
X159563748Y-190732116D03*
X159563748Y-190232116D03*
X159563748Y-189732116D03*
X159563748Y-189232116D03*
D21*
X158788748Y-188957116D03*
X158288748Y-188957116D03*
X157788748Y-188957116D03*
%TD*%
D17*
%TO.C,C5*%
X163808748Y-112002116D03*
X162538748Y-112002116D03*
%TD*%
D22*
%TO.C,AE3*%
X79578748Y-156602116D03*
D23*
X78078748Y-158077116D03*
D22*
X76578748Y-156602116D03*
D23*
X78078748Y-155127116D03*
%TD*%
D24*
%TO.C,J2*%
X178923748Y-156492116D03*
D25*
X178923748Y-151492116D03*
%TD*%
D17*
%TO.C,L1*%
X88318748Y-100872116D03*
X87048748Y-100872116D03*
%TD*%
D26*
%TO.C,U6*%
X99958748Y-135702116D03*
X99958748Y-135302116D03*
X99958748Y-134902116D03*
X99958748Y-134502116D03*
X99958748Y-134102116D03*
X99958748Y-133702116D03*
X99958748Y-133302116D03*
X99958748Y-132902116D03*
X99958748Y-132502116D03*
X99958748Y-132102116D03*
X99958748Y-131702116D03*
X99958748Y-131302116D03*
D27*
X99208748Y-130552116D03*
X98808748Y-130552116D03*
X98408748Y-130552116D03*
X98008748Y-130552116D03*
X97608748Y-130552116D03*
X97208748Y-130552116D03*
X96808748Y-130552116D03*
X96408748Y-130552116D03*
X96008748Y-130552116D03*
X95608748Y-130552116D03*
X95208748Y-130552116D03*
X94808748Y-130552116D03*
D26*
X94058748Y-131302116D03*
X94058748Y-131702116D03*
X94058748Y-132102116D03*
X94058748Y-132502116D03*
X94058748Y-132902116D03*
X94058748Y-133302116D03*
X94058748Y-133702116D03*
X94058748Y-134102116D03*
X94058748Y-134502116D03*
X94058748Y-134902116D03*
X94058748Y-135302116D03*
X94058748Y-135702116D03*
D27*
X94808748Y-136452116D03*
X95208748Y-136452116D03*
X95608748Y-136452116D03*
X96008748Y-136452116D03*
X96408748Y-136452116D03*
X96808748Y-136452116D03*
X97208748Y-136452116D03*
X97608748Y-136452116D03*
X98008748Y-136452116D03*
X98408748Y-136452116D03*
X98808748Y-136452116D03*
X99208748Y-136452116D03*
D28*
X97008748Y-133502116D03*
%TD*%
D17*
%TO.C,C15*%
X104893748Y-135707116D03*
X103623748Y-135707116D03*
%TD*%
D19*
%TO.C,REF\u002A\u002A*%
X188248748Y-86772116D03*
%TD*%
D18*
%TO.C,R9*%
X104752748Y-184072116D03*
X104752748Y-182802116D03*
%TD*%
D17*
%TO.C,C31*%
X158753748Y-183447116D03*
X157483748Y-183447116D03*
%TD*%
D29*
%TO.C,U9*%
X164097326Y-177517116D03*
D30*
X164097326Y-176247116D03*
X164097326Y-174977116D03*
X164097326Y-173707116D03*
X158697326Y-173707116D03*
X158697326Y-174977116D03*
X158697326Y-176247116D03*
X158697326Y-177517116D03*
%TD*%
D16*
%TO.C,C11*%
X87198748Y-122292116D03*
X88468748Y-122292116D03*
%TD*%
D31*
%TO.C,C18*%
X93513748Y-138697116D03*
X93513748Y-139967116D03*
%TD*%
D18*
%TO.C,R2*%
X175448748Y-185032116D03*
X175448748Y-183762116D03*
%TD*%
%TO.C,C19*%
X83123748Y-133387116D03*
X83123748Y-132117116D03*
%TD*%
D32*
%TO.C,PZ1*%
X180288748Y-179077116D03*
X180288748Y-168987116D03*
%TD*%
D33*
%TO.C,Q1*%
X177798928Y-185027156D03*
X177798928Y-186927076D03*
X179998568Y-185977116D03*
%TD*%
D34*
%TO.C,U5*%
X166176248Y-166549616D03*
D35*
X166176248Y-167499616D03*
X166176248Y-168449616D03*
X168776248Y-168449616D03*
X168776248Y-166549616D03*
%TD*%
D36*
%TO.C,U4*%
X167248748Y-148552116D03*
D37*
X167248748Y-151092116D03*
X167248748Y-153632116D03*
X173548748Y-153632116D03*
X173548748Y-151092116D03*
X173548748Y-148552116D03*
%TD*%
D17*
%TO.C,R6*%
X86918748Y-133362116D03*
X85648748Y-133362116D03*
%TD*%
D18*
%TO.C,C26*%
X107718748Y-175682116D03*
X107718748Y-174412116D03*
%TD*%
D24*
%TO.C,J1*%
X178953748Y-107827116D03*
D25*
X178953748Y-102827116D03*
%TD*%
D18*
%TO.C,C30*%
X171228748Y-162519273D03*
X171228748Y-161249273D03*
%TD*%
D17*
%TO.C,C6*%
X163738748Y-114672116D03*
X162468748Y-114672116D03*
%TD*%
D38*
%TO.C,U2*%
X157828748Y-102932116D03*
X155288748Y-102932116D03*
X152748748Y-102932116D03*
%TD*%
D16*
%TO.C,R10*%
X97988748Y-150022116D03*
X99258748Y-150022116D03*
%TD*%
D31*
%TO.C,R5*%
X153683748Y-173717116D03*
X153683748Y-174987116D03*
%TD*%
D17*
%TO.C,C1*%
X157143748Y-112527116D03*
X155873748Y-112527116D03*
%TD*%
%TO.C,R7*%
X106530748Y-168446116D03*
X105260748Y-168446116D03*
%TD*%
D18*
%TO.C,C25*%
X112148748Y-175732116D03*
X112148748Y-174462116D03*
%TD*%
%TO.C,C24*%
X82818748Y-156592116D03*
X82818748Y-155322116D03*
%TD*%
D39*
%TO.C,U1*%
X170913748Y-111872116D03*
X169643748Y-111872116D03*
X168373748Y-111872116D03*
X167103748Y-111872116D03*
X167103748Y-116812116D03*
X168373748Y-116812116D03*
X169643748Y-116812116D03*
X170913748Y-116812116D03*
%TD*%
D17*
%TO.C,R8*%
X86818748Y-156572116D03*
X85548748Y-156572116D03*
%TD*%
D40*
%TO.C,Y1*%
X90768748Y-136885725D03*
X88408748Y-136885725D03*
X88408748Y-138745725D03*
X90768748Y-138745725D03*
%TD*%
D16*
%TO.C,C12*%
X87218748Y-124452116D03*
X88488748Y-124452116D03*
%TD*%
D31*
%TO.C,R4*%
X158693748Y-169667116D03*
X158693748Y-170937116D03*
%TD*%
D19*
%TO.C,REF\u002A\u002A*%
X75858748Y-197332116D03*
%TD*%
%TO.C,TP4*%
X101268748Y-146152116D03*
%TD*%
%TO.C,TP3*%
X114018748Y-146352116D03*
%TD*%
D18*
%TO.C,C28*%
X168558748Y-162562116D03*
X168558748Y-161292116D03*
%TD*%
D41*
%TO.C,U8*%
X105678748Y-164502116D03*
X105678748Y-163702116D03*
X105678748Y-162902116D03*
X105678748Y-162102116D03*
X105678748Y-161302116D03*
X105678748Y-160502116D03*
X105678748Y-159702116D03*
X105678748Y-158902116D03*
X105678748Y-158102116D03*
X105678748Y-157302116D03*
X105678748Y-156502116D03*
X105678748Y-155702116D03*
D42*
X104428748Y-154902116D03*
X103628748Y-154902116D03*
X102828748Y-154902116D03*
X102028748Y-154902116D03*
X101228748Y-154902116D03*
X100428748Y-154902116D03*
X99628748Y-154902116D03*
X98828748Y-154902116D03*
X98028748Y-154902116D03*
X97228748Y-154902116D03*
X96428748Y-154902116D03*
X95628748Y-154902116D03*
D41*
X94378748Y-155702116D03*
X94378748Y-156502116D03*
X94378748Y-157302116D03*
X94378748Y-158102116D03*
X94378748Y-158902116D03*
X94378748Y-159702116D03*
X94378748Y-160502116D03*
X94378748Y-161302116D03*
X94378748Y-162102116D03*
X94378748Y-162902116D03*
X94378748Y-163702116D03*
X94378748Y-164502116D03*
D42*
X95628748Y-165302116D03*
X96428748Y-165302116D03*
X97228748Y-165302116D03*
X98028748Y-165302116D03*
X98828748Y-165302116D03*
X99628748Y-165302116D03*
X100428748Y-165302116D03*
X101228748Y-165302116D03*
X102028748Y-165302116D03*
X102828748Y-165302116D03*
X103628748Y-165302116D03*
X104428748Y-165302116D03*
D22*
X102528748Y-162602116D03*
D43*
X100028748Y-162602116D03*
X97528748Y-162602116D03*
X102528748Y-160102116D03*
X100028748Y-160102116D03*
X97528748Y-160102116D03*
X102528748Y-157602116D03*
X100028748Y-157602116D03*
X97528748Y-157602116D03*
%TD*%
D17*
%TO.C,C9*%
X83553748Y-100887116D03*
X82283748Y-100887116D03*
%TD*%
D18*
%TO.C,C16*%
X89368748Y-133352116D03*
X89368748Y-132082116D03*
%TD*%
D19*
%TO.C,TP5*%
X93018748Y-146202116D03*
%TD*%
D15*
%TO.C,CON1*%
X92103748Y-124092116D03*
D13*
X99723748Y-120536116D03*
X92103748Y-121552116D03*
D15*
X97818748Y-119012116D03*
X97818748Y-124092116D03*
D13*
X99723748Y-122568116D03*
D15*
X92103748Y-119012116D03*
D14*
X93373748Y-122187116D03*
X94643748Y-122187116D03*
X95913748Y-122187116D03*
X97183748Y-122187116D03*
X98453748Y-122187116D03*
X98453748Y-120917116D03*
X97183748Y-120917116D03*
X95913748Y-120917116D03*
X94643748Y-120917116D03*
X93373748Y-120917116D03*
%TD*%
D18*
%TO.C,C13*%
X98408748Y-140072116D03*
X98408748Y-138802116D03*
%TD*%
D16*
%TO.C,C32*%
X107546748Y-182670116D03*
X108816748Y-182670116D03*
%TD*%
D17*
%TO.C,C8*%
X102023748Y-95957116D03*
X100753748Y-95957116D03*
%TD*%
D16*
%TO.C,R3*%
X162383748Y-148577116D03*
X163653748Y-148577116D03*
%TD*%
D17*
%TO.C,C17*%
X88333748Y-141087116D03*
X87063748Y-141087116D03*
%TD*%
%TO.C,C29*%
X158765905Y-180612116D03*
X157495905Y-180612116D03*
%TD*%
D19*
%TO.C,TP1*%
X83318748Y-167862116D03*
%TD*%
%TO.C,REF\u002A\u002A*%
X188268748Y-197302116D03*
%TD*%
D18*
%TO.C,C14*%
X83220000Y-137430000D03*
X83220000Y-136160000D03*
%TD*%
D44*
%TO.C,R1*%
X172098748Y-102892116D03*
X165998748Y-102892116D03*
%TD*%
D22*
%TO.C,AE1*%
X79518748Y-100972116D03*
X76518748Y-100972116D03*
D23*
X78018748Y-99497116D03*
X78018748Y-102447116D03*
%TD*%
D45*
%TO.C,BT1*%
X110578748Y-94272116D03*
X130618748Y-94272116D03*
D46*
X120598748Y-94272116D03*
%TD*%
D47*
%TO.C,MOD2*%
X102107344Y-108362116D03*
X102107344Y-107262116D03*
X102107344Y-106162116D03*
X102107344Y-105062116D03*
X102107344Y-103962116D03*
X102107344Y-102862116D03*
X102107344Y-101762116D03*
X102107344Y-100662116D03*
X102107344Y-99562116D03*
X92907344Y-99562116D03*
X92907344Y-100662116D03*
X92907344Y-101762116D03*
X92907344Y-102862116D03*
X92907344Y-103962116D03*
X92907344Y-105062116D03*
X92907344Y-106162116D03*
X92907344Y-107262116D03*
X92907344Y-108362116D03*
%TD*%
D22*
%TO.C,AE2*%
X79718748Y-133502116D03*
D23*
X78218748Y-132027116D03*
X78218748Y-134977116D03*
D22*
X76718748Y-133502116D03*
%TD*%
D18*
%TO.C,C23*%
X89618748Y-156552116D03*
X89618748Y-155282116D03*
%TD*%
D16*
%TO.C,C3*%
X150858748Y-112652116D03*
X152128748Y-112652116D03*
%TD*%
M02*
