%TF.GenerationSoftware,KiCad,Pcbnew,(5.99.0-10506-gb986797469)*%
%TF.CreationDate,2021-06-07T12:53:31+02:00*%
%TF.ProjectId,LoRa tracker,4c6f5261-2074-4726-9163-6b65722e6b69,rev?*%
%TF.SameCoordinates,Original*%
%TF.FileFunction,Legend,Top*%
%TF.FilePolarity,Positive*%
%FSLAX46Y46*%
G04 Gerber Fmt 4.6, Leading zero omitted, Abs format (unit mm)*
G04 Created by KiCad (PCBNEW (5.99.0-10506-gb986797469)) date 2021-06-07 12:53:31*
%MOMM*%
%LPD*%
G01*
G04 APERTURE LIST*
%ADD10C,0.150000*%
%ADD11C,0.015000*%
%ADD12C,0.254000*%
%ADD13C,0.120000*%
%ADD14C,0.177800*%
%ADD15C,0.127000*%
%ADD16C,0.200000*%
%ADD17C,0.342843*%
%ADD18C,0.160000*%
%ADD19C,0.472311*%
%ADD20C,0.100000*%
%ADD21C,0.242809*%
G04 APERTURE END LIST*
D10*
%TO.C,C26*%
X82667142Y-169217142D02*
X82619523Y-169264761D01*
X82476666Y-169312380D01*
X82381428Y-169312380D01*
X82238571Y-169264761D01*
X82143333Y-169169523D01*
X82095714Y-169074285D01*
X82048095Y-168883809D01*
X82048095Y-168740952D01*
X82095714Y-168550476D01*
X82143333Y-168455238D01*
X82238571Y-168360000D01*
X82381428Y-168312380D01*
X82476666Y-168312380D01*
X82619523Y-168360000D01*
X82667142Y-168407619D01*
X83048095Y-168407619D02*
X83095714Y-168360000D01*
X83190952Y-168312380D01*
X83429047Y-168312380D01*
X83524285Y-168360000D01*
X83571904Y-168407619D01*
X83619523Y-168502857D01*
X83619523Y-168598095D01*
X83571904Y-168740952D01*
X83000476Y-169312380D01*
X83619523Y-169312380D01*
X84476666Y-168312380D02*
X84286190Y-168312380D01*
X84190952Y-168360000D01*
X84143333Y-168407619D01*
X84048095Y-168550476D01*
X84000476Y-168740952D01*
X84000476Y-169121904D01*
X84048095Y-169217142D01*
X84095714Y-169264761D01*
X84190952Y-169312380D01*
X84381428Y-169312380D01*
X84476666Y-169264761D01*
X84524285Y-169217142D01*
X84571904Y-169121904D01*
X84571904Y-168883809D01*
X84524285Y-168788571D01*
X84476666Y-168740952D01*
X84381428Y-168693333D01*
X84190952Y-168693333D01*
X84095714Y-168740952D01*
X84048095Y-168788571D01*
X84000476Y-168883809D01*
%TO.C,R9*%
X83977333Y-164672380D02*
X83644000Y-164196190D01*
X83405904Y-164672380D02*
X83405904Y-163672380D01*
X83786857Y-163672380D01*
X83882095Y-163720000D01*
X83929714Y-163767619D01*
X83977333Y-163862857D01*
X83977333Y-164005714D01*
X83929714Y-164100952D01*
X83882095Y-164148571D01*
X83786857Y-164196190D01*
X83405904Y-164196190D01*
X84453523Y-164672380D02*
X84644000Y-164672380D01*
X84739238Y-164624761D01*
X84786857Y-164577142D01*
X84882095Y-164434285D01*
X84929714Y-164243809D01*
X84929714Y-163862857D01*
X84882095Y-163767619D01*
X84834476Y-163720000D01*
X84739238Y-163672380D01*
X84548761Y-163672380D01*
X84453523Y-163720000D01*
X84405904Y-163767619D01*
X84358285Y-163862857D01*
X84358285Y-164100952D01*
X84405904Y-164196190D01*
X84453523Y-164243809D01*
X84548761Y-164291428D01*
X84739238Y-164291428D01*
X84834476Y-164243809D01*
X84882095Y-164196190D01*
X84929714Y-164100952D01*
%TO.C,C7*%
X98982081Y-93749258D02*
X98934462Y-93796877D01*
X98791605Y-93844496D01*
X98696367Y-93844496D01*
X98553509Y-93796877D01*
X98458271Y-93701639D01*
X98410652Y-93606401D01*
X98363033Y-93415925D01*
X98363033Y-93273068D01*
X98410652Y-93082592D01*
X98458271Y-92987354D01*
X98553509Y-92892116D01*
X98696367Y-92844496D01*
X98791605Y-92844496D01*
X98934462Y-92892116D01*
X98982081Y-92939735D01*
X99315414Y-92844496D02*
X99982081Y-92844496D01*
X99553509Y-93844496D01*
%TO.C,C10*%
X84285890Y-126929258D02*
X84238271Y-126976877D01*
X84095414Y-127024496D01*
X84000176Y-127024496D01*
X83857319Y-126976877D01*
X83762081Y-126881639D01*
X83714462Y-126786401D01*
X83666843Y-126595925D01*
X83666843Y-126453068D01*
X83714462Y-126262592D01*
X83762081Y-126167354D01*
X83857319Y-126072116D01*
X84000176Y-126024496D01*
X84095414Y-126024496D01*
X84238271Y-126072116D01*
X84285890Y-126119735D01*
X85238271Y-127024496D02*
X84666843Y-127024496D01*
X84952557Y-127024496D02*
X84952557Y-126024496D01*
X84857319Y-126167354D01*
X84762081Y-126262592D01*
X84666843Y-126310211D01*
X85857319Y-126024496D02*
X85952557Y-126024496D01*
X86047795Y-126072116D01*
X86095414Y-126119735D01*
X86143033Y-126214973D01*
X86190652Y-126405449D01*
X86190652Y-126643544D01*
X86143033Y-126834020D01*
X86095414Y-126929258D01*
X86047795Y-126976877D01*
X85952557Y-127024496D01*
X85857319Y-127024496D01*
X85762081Y-126976877D01*
X85714462Y-126929258D01*
X85666843Y-126834020D01*
X85619224Y-126643544D01*
X85619224Y-126405449D01*
X85666843Y-126214973D01*
X85714462Y-126119735D01*
X85762081Y-126072116D01*
X85857319Y-126024496D01*
%TO.C,TP2*%
X106296843Y-143026496D02*
X106868271Y-143026496D01*
X106582557Y-144026496D02*
X106582557Y-143026496D01*
X107201605Y-144026496D02*
X107201605Y-143026496D01*
X107582557Y-143026496D01*
X107677795Y-143074116D01*
X107725414Y-143121735D01*
X107773033Y-143216973D01*
X107773033Y-143359830D01*
X107725414Y-143455068D01*
X107677795Y-143502687D01*
X107582557Y-143550306D01*
X107201605Y-143550306D01*
X108153986Y-143121735D02*
X108201605Y-143074116D01*
X108296843Y-143026496D01*
X108534938Y-143026496D01*
X108630176Y-143074116D01*
X108677795Y-143121735D01*
X108725414Y-143216973D01*
X108725414Y-143312211D01*
X108677795Y-143455068D01*
X108106367Y-144026496D01*
X108725414Y-144026496D01*
X106047319Y-150154496D02*
X106047319Y-149154496D01*
X106380652Y-149868782D01*
X106713986Y-149154496D01*
X106713986Y-150154496D01*
X107380652Y-149154496D02*
X107571128Y-149154496D01*
X107666367Y-149202116D01*
X107761605Y-149297354D01*
X107809224Y-149487830D01*
X107809224Y-149821163D01*
X107761605Y-150011639D01*
X107666367Y-150106877D01*
X107571128Y-150154496D01*
X107380652Y-150154496D01*
X107285414Y-150106877D01*
X107190176Y-150011639D01*
X107142557Y-149821163D01*
X107142557Y-149487830D01*
X107190176Y-149297354D01*
X107285414Y-149202116D01*
X107380652Y-149154496D01*
X108190176Y-150106877D02*
X108333033Y-150154496D01*
X108571128Y-150154496D01*
X108666367Y-150106877D01*
X108713986Y-150059258D01*
X108761605Y-149964020D01*
X108761605Y-149868782D01*
X108713986Y-149773544D01*
X108666367Y-149725925D01*
X108571128Y-149678306D01*
X108380652Y-149630687D01*
X108285414Y-149583068D01*
X108237795Y-149535449D01*
X108190176Y-149440211D01*
X108190176Y-149344973D01*
X108237795Y-149249735D01*
X108285414Y-149202116D01*
X108380652Y-149154496D01*
X108618748Y-149154496D01*
X108761605Y-149202116D01*
X109190176Y-150154496D02*
X109190176Y-149154496D01*
D11*
%TO.C,U3*%
X157609743Y-187949673D02*
X157609743Y-188209175D01*
X157625007Y-188239705D01*
X157640272Y-188254969D01*
X157670802Y-188270234D01*
X157731861Y-188270234D01*
X157762391Y-188254969D01*
X157777655Y-188239705D01*
X157792920Y-188209175D01*
X157792920Y-187949673D01*
X157915039Y-187949673D02*
X158113481Y-187949673D01*
X158006628Y-188071792D01*
X158052422Y-188071792D01*
X158082952Y-188087056D01*
X158098216Y-188102321D01*
X158113481Y-188132851D01*
X158113481Y-188209175D01*
X158098216Y-188239705D01*
X158082952Y-188254969D01*
X158052422Y-188270234D01*
X157960833Y-188270234D01*
X157930304Y-188254969D01*
X157915039Y-188239705D01*
D10*
%TO.C,C5*%
X162372081Y-113629258D02*
X162324462Y-113676877D01*
X162181605Y-113724496D01*
X162086367Y-113724496D01*
X161943509Y-113676877D01*
X161848271Y-113581639D01*
X161800652Y-113486401D01*
X161753033Y-113295925D01*
X161753033Y-113153068D01*
X161800652Y-112962592D01*
X161848271Y-112867354D01*
X161943509Y-112772116D01*
X162086367Y-112724496D01*
X162181605Y-112724496D01*
X162324462Y-112772116D01*
X162372081Y-112819735D01*
X163276843Y-112724496D02*
X162800652Y-112724496D01*
X162753033Y-113200687D01*
X162800652Y-113153068D01*
X162895890Y-113105449D01*
X163133986Y-113105449D01*
X163229224Y-113153068D01*
X163276843Y-113200687D01*
X163324462Y-113295925D01*
X163324462Y-113534020D01*
X163276843Y-113629258D01*
X163229224Y-113676877D01*
X163133986Y-113724496D01*
X162895890Y-113724496D01*
X162800652Y-113676877D01*
X162753033Y-113629258D01*
%TO.C,C22*%
X148087142Y-137607142D02*
X148039523Y-137654761D01*
X147896666Y-137702380D01*
X147801428Y-137702380D01*
X147658571Y-137654761D01*
X147563333Y-137559523D01*
X147515714Y-137464285D01*
X147468095Y-137273809D01*
X147468095Y-137130952D01*
X147515714Y-136940476D01*
X147563333Y-136845238D01*
X147658571Y-136750000D01*
X147801428Y-136702380D01*
X147896666Y-136702380D01*
X148039523Y-136750000D01*
X148087142Y-136797619D01*
X148468095Y-136797619D02*
X148515714Y-136750000D01*
X148610952Y-136702380D01*
X148849047Y-136702380D01*
X148944285Y-136750000D01*
X148991904Y-136797619D01*
X149039523Y-136892857D01*
X149039523Y-136988095D01*
X148991904Y-137130952D01*
X148420476Y-137702380D01*
X149039523Y-137702380D01*
X149420476Y-136797619D02*
X149468095Y-136750000D01*
X149563333Y-136702380D01*
X149801428Y-136702380D01*
X149896666Y-136750000D01*
X149944285Y-136797619D01*
X149991904Y-136892857D01*
X149991904Y-136988095D01*
X149944285Y-137130952D01*
X149372857Y-137702380D01*
X149991904Y-137702380D01*
%TO.C,C27*%
X82607142Y-171307142D02*
X82559523Y-171354761D01*
X82416666Y-171402380D01*
X82321428Y-171402380D01*
X82178571Y-171354761D01*
X82083333Y-171259523D01*
X82035714Y-171164285D01*
X81988095Y-170973809D01*
X81988095Y-170830952D01*
X82035714Y-170640476D01*
X82083333Y-170545238D01*
X82178571Y-170450000D01*
X82321428Y-170402380D01*
X82416666Y-170402380D01*
X82559523Y-170450000D01*
X82607142Y-170497619D01*
X82988095Y-170497619D02*
X83035714Y-170450000D01*
X83130952Y-170402380D01*
X83369047Y-170402380D01*
X83464285Y-170450000D01*
X83511904Y-170497619D01*
X83559523Y-170592857D01*
X83559523Y-170688095D01*
X83511904Y-170830952D01*
X82940476Y-171402380D01*
X83559523Y-171402380D01*
X83892857Y-170402380D02*
X84559523Y-170402380D01*
X84130952Y-171402380D01*
%TO.C,C21*%
X143288142Y-143664142D02*
X143240523Y-143711761D01*
X143097666Y-143759380D01*
X143002428Y-143759380D01*
X142859571Y-143711761D01*
X142764333Y-143616523D01*
X142716714Y-143521285D01*
X142669095Y-143330809D01*
X142669095Y-143187952D01*
X142716714Y-142997476D01*
X142764333Y-142902238D01*
X142859571Y-142807000D01*
X143002428Y-142759380D01*
X143097666Y-142759380D01*
X143240523Y-142807000D01*
X143288142Y-142854619D01*
X143669095Y-142854619D02*
X143716714Y-142807000D01*
X143811952Y-142759380D01*
X144050047Y-142759380D01*
X144145285Y-142807000D01*
X144192904Y-142854619D01*
X144240523Y-142949857D01*
X144240523Y-143045095D01*
X144192904Y-143187952D01*
X143621476Y-143759380D01*
X144240523Y-143759380D01*
X145192904Y-143759380D02*
X144621476Y-143759380D01*
X144907190Y-143759380D02*
X144907190Y-142759380D01*
X144811952Y-142902238D01*
X144716714Y-142997476D01*
X144621476Y-143045095D01*
%TO.C,J2*%
X176426128Y-154125449D02*
X177140414Y-154125449D01*
X177283271Y-154173068D01*
X177378509Y-154268306D01*
X177426128Y-154411163D01*
X177426128Y-154506401D01*
X176521367Y-153696877D02*
X176473748Y-153649258D01*
X176426128Y-153554020D01*
X176426128Y-153315925D01*
X176473748Y-153220687D01*
X176521367Y-153173068D01*
X176616605Y-153125449D01*
X176711843Y-153125449D01*
X176854700Y-153173068D01*
X177426128Y-153744496D01*
X177426128Y-153125449D01*
%TO.C,L1*%
X87712081Y-103234496D02*
X87235890Y-103234496D01*
X87235890Y-102234496D01*
X88569224Y-103234496D02*
X87997795Y-103234496D01*
X88283509Y-103234496D02*
X88283509Y-102234496D01*
X88188271Y-102377354D01*
X88093033Y-102472592D01*
X87997795Y-102520211D01*
D11*
%TO.C,U6*%
X96359224Y-137272020D02*
X96359224Y-137919639D01*
X96397319Y-137995830D01*
X96435414Y-138033925D01*
X96511605Y-138072020D01*
X96663986Y-138072020D01*
X96740176Y-138033925D01*
X96778271Y-137995830D01*
X96816367Y-137919639D01*
X96816367Y-137272020D01*
X97540176Y-137272020D02*
X97387795Y-137272020D01*
X97311605Y-137310116D01*
X97273509Y-137348211D01*
X97197319Y-137462496D01*
X97159224Y-137614877D01*
X97159224Y-137919639D01*
X97197319Y-137995830D01*
X97235414Y-138033925D01*
X97311605Y-138072020D01*
X97463986Y-138072020D01*
X97540176Y-138033925D01*
X97578271Y-137995830D01*
X97616367Y-137919639D01*
X97616367Y-137729163D01*
X97578271Y-137652973D01*
X97540176Y-137614877D01*
X97463986Y-137576782D01*
X97311605Y-137576782D01*
X97235414Y-137614877D01*
X97197319Y-137652973D01*
X97159224Y-137729163D01*
D10*
%TO.C,C15*%
X102980890Y-137334258D02*
X102933271Y-137381877D01*
X102790414Y-137429496D01*
X102695176Y-137429496D01*
X102552319Y-137381877D01*
X102457081Y-137286639D01*
X102409462Y-137191401D01*
X102361843Y-137000925D01*
X102361843Y-136858068D01*
X102409462Y-136667592D01*
X102457081Y-136572354D01*
X102552319Y-136477116D01*
X102695176Y-136429496D01*
X102790414Y-136429496D01*
X102933271Y-136477116D01*
X102980890Y-136524735D01*
X103933271Y-137429496D02*
X103361843Y-137429496D01*
X103647557Y-137429496D02*
X103647557Y-136429496D01*
X103552319Y-136572354D01*
X103457081Y-136667592D01*
X103361843Y-136715211D01*
X104838033Y-136429496D02*
X104361843Y-136429496D01*
X104314224Y-136905687D01*
X104361843Y-136858068D01*
X104457081Y-136810449D01*
X104695176Y-136810449D01*
X104790414Y-136858068D01*
X104838033Y-136905687D01*
X104885652Y-137000925D01*
X104885652Y-137239020D01*
X104838033Y-137334258D01*
X104790414Y-137381877D01*
X104695176Y-137429496D01*
X104457081Y-137429496D01*
X104361843Y-137381877D01*
X104314224Y-137334258D01*
D11*
%TO.C,MOD1*%
X102559666Y-179453380D02*
X102559666Y-178453380D01*
X102893000Y-179167666D01*
X103226333Y-178453380D01*
X103226333Y-179453380D01*
X103893000Y-178453380D02*
X104083476Y-178453380D01*
X104178714Y-178501000D01*
X104273952Y-178596238D01*
X104321571Y-178786714D01*
X104321571Y-179120047D01*
X104273952Y-179310523D01*
X104178714Y-179405761D01*
X104083476Y-179453380D01*
X103893000Y-179453380D01*
X103797761Y-179405761D01*
X103702523Y-179310523D01*
X103654904Y-179120047D01*
X103654904Y-178786714D01*
X103702523Y-178596238D01*
X103797761Y-178501000D01*
X103893000Y-178453380D01*
X104750142Y-179453380D02*
X104750142Y-178453380D01*
X104988238Y-178453380D01*
X105131095Y-178501000D01*
X105226333Y-178596238D01*
X105273952Y-178691476D01*
X105321571Y-178881952D01*
X105321571Y-179024809D01*
X105273952Y-179215285D01*
X105226333Y-179310523D01*
X105131095Y-179405761D01*
X104988238Y-179453380D01*
X104750142Y-179453380D01*
X106273952Y-179453380D02*
X105702523Y-179453380D01*
X105988238Y-179453380D02*
X105988238Y-178453380D01*
X105893000Y-178596238D01*
X105797761Y-178691476D01*
X105702523Y-178739095D01*
D10*
%TO.C,C4*%
X148839333Y-115209142D02*
X148791714Y-115256761D01*
X148648857Y-115304380D01*
X148553619Y-115304380D01*
X148410761Y-115256761D01*
X148315523Y-115161523D01*
X148267904Y-115066285D01*
X148220285Y-114875809D01*
X148220285Y-114732952D01*
X148267904Y-114542476D01*
X148315523Y-114447238D01*
X148410761Y-114352000D01*
X148553619Y-114304380D01*
X148648857Y-114304380D01*
X148791714Y-114352000D01*
X148839333Y-114399619D01*
X149696476Y-114637714D02*
X149696476Y-115304380D01*
X149458380Y-114256761D02*
X149220285Y-114971047D01*
X149839333Y-114971047D01*
%TO.C,C31*%
X154735890Y-183789258D02*
X154688271Y-183836877D01*
X154545414Y-183884496D01*
X154450176Y-183884496D01*
X154307319Y-183836877D01*
X154212081Y-183741639D01*
X154164462Y-183646401D01*
X154116843Y-183455925D01*
X154116843Y-183313068D01*
X154164462Y-183122592D01*
X154212081Y-183027354D01*
X154307319Y-182932116D01*
X154450176Y-182884496D01*
X154545414Y-182884496D01*
X154688271Y-182932116D01*
X154735890Y-182979735D01*
X155069224Y-182884496D02*
X155688271Y-182884496D01*
X155354938Y-183265449D01*
X155497795Y-183265449D01*
X155593033Y-183313068D01*
X155640652Y-183360687D01*
X155688271Y-183455925D01*
X155688271Y-183694020D01*
X155640652Y-183789258D01*
X155593033Y-183836877D01*
X155497795Y-183884496D01*
X155212081Y-183884496D01*
X155116843Y-183836877D01*
X155069224Y-183789258D01*
X156640652Y-183884496D02*
X156069224Y-183884496D01*
X156354938Y-183884496D02*
X156354938Y-182884496D01*
X156259700Y-183027354D01*
X156164462Y-183122592D01*
X156069224Y-183170211D01*
D11*
%TO.C,U7*%
X129944150Y-138313607D02*
X129944150Y-139588448D01*
X130019140Y-139738429D01*
X130094131Y-139813420D01*
X130244112Y-139888410D01*
X130544075Y-139888410D01*
X130694056Y-139813420D01*
X130769046Y-139738429D01*
X130844037Y-139588448D01*
X130844037Y-138313607D01*
X131443962Y-138313607D02*
X132493831Y-138313607D01*
X131818915Y-139888410D01*
D10*
%TO.C,U9*%
X162244945Y-175755211D02*
X161435421Y-175755211D01*
X161340183Y-175802830D01*
X161292564Y-175850449D01*
X161244945Y-175945687D01*
X161244945Y-176136163D01*
X161292564Y-176231401D01*
X161340183Y-176279020D01*
X161435421Y-176326639D01*
X162244945Y-176326639D01*
X161244945Y-176850449D02*
X161244945Y-177040925D01*
X161292564Y-177136163D01*
X161340183Y-177183782D01*
X161483040Y-177279020D01*
X161673516Y-177326639D01*
X162054468Y-177326639D01*
X162149706Y-177279020D01*
X162197326Y-177231401D01*
X162244945Y-177136163D01*
X162244945Y-176945687D01*
X162197326Y-176850449D01*
X162149706Y-176802830D01*
X162054468Y-176755211D01*
X161816373Y-176755211D01*
X161721135Y-176802830D01*
X161673516Y-176850449D01*
X161625897Y-176945687D01*
X161625897Y-177136163D01*
X161673516Y-177231401D01*
X161721135Y-177279020D01*
X161816373Y-177326639D01*
%TO.C,C11*%
X84415890Y-122669258D02*
X84368271Y-122716877D01*
X84225414Y-122764496D01*
X84130176Y-122764496D01*
X83987319Y-122716877D01*
X83892081Y-122621639D01*
X83844462Y-122526401D01*
X83796843Y-122335925D01*
X83796843Y-122193068D01*
X83844462Y-122002592D01*
X83892081Y-121907354D01*
X83987319Y-121812116D01*
X84130176Y-121764496D01*
X84225414Y-121764496D01*
X84368271Y-121812116D01*
X84415890Y-121859735D01*
X85368271Y-122764496D02*
X84796843Y-122764496D01*
X85082557Y-122764496D02*
X85082557Y-121764496D01*
X84987319Y-121907354D01*
X84892081Y-122002592D01*
X84796843Y-122050211D01*
X86320652Y-122764496D02*
X85749224Y-122764496D01*
X86034938Y-122764496D02*
X86034938Y-121764496D01*
X85939700Y-121907354D01*
X85844462Y-122002592D01*
X85749224Y-122050211D01*
%TO.C,C18*%
X95140890Y-140609973D02*
X95188509Y-140657592D01*
X95236128Y-140800449D01*
X95236128Y-140895687D01*
X95188509Y-141038544D01*
X95093271Y-141133782D01*
X94998033Y-141181401D01*
X94807557Y-141229020D01*
X94664700Y-141229020D01*
X94474224Y-141181401D01*
X94378986Y-141133782D01*
X94283748Y-141038544D01*
X94236128Y-140895687D01*
X94236128Y-140800449D01*
X94283748Y-140657592D01*
X94331367Y-140609973D01*
X95236128Y-139657592D02*
X95236128Y-140229020D01*
X95236128Y-139943306D02*
X94236128Y-139943306D01*
X94378986Y-140038544D01*
X94474224Y-140133782D01*
X94521843Y-140229020D01*
X94664700Y-139086163D02*
X94617081Y-139181401D01*
X94569462Y-139229020D01*
X94474224Y-139276639D01*
X94426605Y-139276639D01*
X94331367Y-139229020D01*
X94283748Y-139181401D01*
X94236128Y-139086163D01*
X94236128Y-138895687D01*
X94283748Y-138800449D01*
X94331367Y-138752830D01*
X94426605Y-138705211D01*
X94474224Y-138705211D01*
X94569462Y-138752830D01*
X94617081Y-138800449D01*
X94664700Y-138895687D01*
X94664700Y-139086163D01*
X94712319Y-139181401D01*
X94759938Y-139229020D01*
X94855176Y-139276639D01*
X95045652Y-139276639D01*
X95140890Y-139229020D01*
X95188509Y-139181401D01*
X95236128Y-139086163D01*
X95236128Y-138895687D01*
X95188509Y-138800449D01*
X95140890Y-138752830D01*
X95045652Y-138705211D01*
X94855176Y-138705211D01*
X94759938Y-138752830D01*
X94712319Y-138800449D01*
X94664700Y-138895687D01*
%TO.C,R2*%
X174631128Y-183928782D02*
X174154938Y-184262116D01*
X174631128Y-184500211D02*
X173631128Y-184500211D01*
X173631128Y-184119258D01*
X173678748Y-184024020D01*
X173726367Y-183976401D01*
X173821605Y-183928782D01*
X173964462Y-183928782D01*
X174059700Y-183976401D01*
X174107319Y-184024020D01*
X174154938Y-184119258D01*
X174154938Y-184500211D01*
X173726367Y-183547830D02*
X173678748Y-183500211D01*
X173631128Y-183404973D01*
X173631128Y-183166877D01*
X173678748Y-183071639D01*
X173726367Y-183024020D01*
X173821605Y-182976401D01*
X173916843Y-182976401D01*
X174059700Y-183024020D01*
X174631128Y-183595449D01*
X174631128Y-182976401D01*
%TO.C,C19*%
X82210890Y-132759973D02*
X82258509Y-132807592D01*
X82306128Y-132950449D01*
X82306128Y-133045687D01*
X82258509Y-133188544D01*
X82163271Y-133283782D01*
X82068033Y-133331401D01*
X81877557Y-133379020D01*
X81734700Y-133379020D01*
X81544224Y-133331401D01*
X81448986Y-133283782D01*
X81353748Y-133188544D01*
X81306128Y-133045687D01*
X81306128Y-132950449D01*
X81353748Y-132807592D01*
X81401367Y-132759973D01*
X82306128Y-131807592D02*
X82306128Y-132379020D01*
X82306128Y-132093306D02*
X81306128Y-132093306D01*
X81448986Y-132188544D01*
X81544224Y-132283782D01*
X81591843Y-132379020D01*
X82306128Y-131331401D02*
X82306128Y-131140925D01*
X82258509Y-131045687D01*
X82210890Y-130998068D01*
X82068033Y-130902830D01*
X81877557Y-130855211D01*
X81496605Y-130855211D01*
X81401367Y-130902830D01*
X81353748Y-130950449D01*
X81306128Y-131045687D01*
X81306128Y-131236163D01*
X81353748Y-131331401D01*
X81401367Y-131379020D01*
X81496605Y-131426639D01*
X81734700Y-131426639D01*
X81829938Y-131379020D01*
X81877557Y-131331401D01*
X81925176Y-131236163D01*
X81925176Y-131045687D01*
X81877557Y-130950449D01*
X81829938Y-130902830D01*
X81734700Y-130855211D01*
D11*
%TO.C,PZ1*%
X182141391Y-173859562D02*
X182141391Y-172914680D01*
X182501346Y-172914680D01*
X182591335Y-172959675D01*
X182636329Y-173004669D01*
X182681323Y-173094658D01*
X182681323Y-173229641D01*
X182636329Y-173319630D01*
X182591335Y-173364624D01*
X182501346Y-173409618D01*
X182141391Y-173409618D01*
X182996284Y-172914680D02*
X183626205Y-172914680D01*
X182996284Y-173859562D01*
X183626205Y-173859562D01*
X184481099Y-173859562D02*
X183941166Y-173859562D01*
X184211132Y-173859562D02*
X184211132Y-172914680D01*
X184121144Y-173049663D01*
X184031155Y-173139652D01*
X183941166Y-173184646D01*
D10*
%TO.C,Q1*%
X178383509Y-183699735D02*
X178288271Y-183652116D01*
X178193033Y-183556877D01*
X178050176Y-183414020D01*
X177954938Y-183366401D01*
X177859700Y-183366401D01*
X177907319Y-183604496D02*
X177812081Y-183556877D01*
X177716843Y-183461639D01*
X177669224Y-183271163D01*
X177669224Y-182937830D01*
X177716843Y-182747354D01*
X177812081Y-182652116D01*
X177907319Y-182604496D01*
X178097795Y-182604496D01*
X178193033Y-182652116D01*
X178288271Y-182747354D01*
X178335890Y-182937830D01*
X178335890Y-183271163D01*
X178288271Y-183461639D01*
X178193033Y-183556877D01*
X178097795Y-183604496D01*
X177907319Y-183604496D01*
X179288271Y-183604496D02*
X178716843Y-183604496D01*
X179002557Y-183604496D02*
X179002557Y-182604496D01*
X178907319Y-182747354D01*
X178812081Y-182842592D01*
X178716843Y-182890211D01*
%TO.C,U5*%
X166920343Y-164713996D02*
X166920343Y-165523520D01*
X166967962Y-165618758D01*
X167015581Y-165666377D01*
X167110819Y-165713996D01*
X167301295Y-165713996D01*
X167396533Y-165666377D01*
X167444152Y-165618758D01*
X167491771Y-165523520D01*
X167491771Y-164713996D01*
X168444152Y-164713996D02*
X167967962Y-164713996D01*
X167920343Y-165190187D01*
X167967962Y-165142568D01*
X168063200Y-165094949D01*
X168301295Y-165094949D01*
X168396533Y-165142568D01*
X168444152Y-165190187D01*
X168491771Y-165285425D01*
X168491771Y-165523520D01*
X168444152Y-165618758D01*
X168396533Y-165666377D01*
X168301295Y-165713996D01*
X168063200Y-165713996D01*
X167967962Y-165666377D01*
X167920343Y-165618758D01*
%TO.C,U4*%
X170001128Y-151854020D02*
X170810652Y-151854020D01*
X170905890Y-151806401D01*
X170953509Y-151758782D01*
X171001128Y-151663544D01*
X171001128Y-151473068D01*
X170953509Y-151377830D01*
X170905890Y-151330211D01*
X170810652Y-151282592D01*
X170001128Y-151282592D01*
X170334462Y-150377830D02*
X171001128Y-150377830D01*
X169953509Y-150615925D02*
X170667795Y-150854020D01*
X170667795Y-150234973D01*
%TO.C,R6*%
X85393333Y-132622380D02*
X85060000Y-132146190D01*
X84821904Y-132622380D02*
X84821904Y-131622380D01*
X85202857Y-131622380D01*
X85298095Y-131670000D01*
X85345714Y-131717619D01*
X85393333Y-131812857D01*
X85393333Y-131955714D01*
X85345714Y-132050952D01*
X85298095Y-132098571D01*
X85202857Y-132146190D01*
X84821904Y-132146190D01*
X86250476Y-131622380D02*
X86060000Y-131622380D01*
X85964761Y-131670000D01*
X85917142Y-131717619D01*
X85821904Y-131860476D01*
X85774285Y-132050952D01*
X85774285Y-132431904D01*
X85821904Y-132527142D01*
X85869523Y-132574761D01*
X85964761Y-132622380D01*
X86155238Y-132622380D01*
X86250476Y-132574761D01*
X86298095Y-132527142D01*
X86345714Y-132431904D01*
X86345714Y-132193809D01*
X86298095Y-132098571D01*
X86250476Y-132050952D01*
X86155238Y-132003333D01*
X85964761Y-132003333D01*
X85869523Y-132050952D01*
X85821904Y-132098571D01*
X85774285Y-132193809D01*
%TO.C,J1*%
X178391128Y-105565449D02*
X179105414Y-105565449D01*
X179248271Y-105613068D01*
X179343509Y-105708306D01*
X179391128Y-105851163D01*
X179391128Y-105946401D01*
X179391128Y-104565449D02*
X179391128Y-105136877D01*
X179391128Y-104851163D02*
X178391128Y-104851163D01*
X178533986Y-104946401D01*
X178629224Y-105041639D01*
X178676843Y-105136877D01*
%TO.C,C30*%
X170315890Y-161892130D02*
X170363509Y-161939749D01*
X170411128Y-162082606D01*
X170411128Y-162177844D01*
X170363509Y-162320701D01*
X170268271Y-162415939D01*
X170173033Y-162463558D01*
X169982557Y-162511177D01*
X169839700Y-162511177D01*
X169649224Y-162463558D01*
X169553986Y-162415939D01*
X169458748Y-162320701D01*
X169411128Y-162177844D01*
X169411128Y-162082606D01*
X169458748Y-161939749D01*
X169506367Y-161892130D01*
X169411128Y-161558796D02*
X169411128Y-160939749D01*
X169792081Y-161273082D01*
X169792081Y-161130225D01*
X169839700Y-161034987D01*
X169887319Y-160987368D01*
X169982557Y-160939749D01*
X170220652Y-160939749D01*
X170315890Y-160987368D01*
X170363509Y-161034987D01*
X170411128Y-161130225D01*
X170411128Y-161415939D01*
X170363509Y-161511177D01*
X170315890Y-161558796D01*
X169411128Y-160320701D02*
X169411128Y-160225463D01*
X169458748Y-160130225D01*
X169506367Y-160082606D01*
X169601605Y-160034987D01*
X169792081Y-159987368D01*
X170030176Y-159987368D01*
X170220652Y-160034987D01*
X170315890Y-160082606D01*
X170363509Y-160130225D01*
X170411128Y-160225463D01*
X170411128Y-160320701D01*
X170363509Y-160415939D01*
X170315890Y-160463558D01*
X170220652Y-160511177D01*
X170030176Y-160558796D01*
X169792081Y-160558796D01*
X169601605Y-160511177D01*
X169506367Y-160463558D01*
X169458748Y-160415939D01*
X169411128Y-160320701D01*
%TO.C,C20*%
X143592142Y-140792142D02*
X143544523Y-140839761D01*
X143401666Y-140887380D01*
X143306428Y-140887380D01*
X143163571Y-140839761D01*
X143068333Y-140744523D01*
X143020714Y-140649285D01*
X142973095Y-140458809D01*
X142973095Y-140315952D01*
X143020714Y-140125476D01*
X143068333Y-140030238D01*
X143163571Y-139935000D01*
X143306428Y-139887380D01*
X143401666Y-139887380D01*
X143544523Y-139935000D01*
X143592142Y-139982619D01*
X143973095Y-139982619D02*
X144020714Y-139935000D01*
X144115952Y-139887380D01*
X144354047Y-139887380D01*
X144449285Y-139935000D01*
X144496904Y-139982619D01*
X144544523Y-140077857D01*
X144544523Y-140173095D01*
X144496904Y-140315952D01*
X143925476Y-140887380D01*
X144544523Y-140887380D01*
X145163571Y-139887380D02*
X145258809Y-139887380D01*
X145354047Y-139935000D01*
X145401666Y-139982619D01*
X145449285Y-140077857D01*
X145496904Y-140268333D01*
X145496904Y-140506428D01*
X145449285Y-140696904D01*
X145401666Y-140792142D01*
X145354047Y-140839761D01*
X145258809Y-140887380D01*
X145163571Y-140887380D01*
X145068333Y-140839761D01*
X145020714Y-140792142D01*
X144973095Y-140696904D01*
X144925476Y-140506428D01*
X144925476Y-140268333D01*
X144973095Y-140077857D01*
X145020714Y-139982619D01*
X145068333Y-139935000D01*
X145163571Y-139887380D01*
%TO.C,C6*%
X162302081Y-116299258D02*
X162254462Y-116346877D01*
X162111605Y-116394496D01*
X162016367Y-116394496D01*
X161873509Y-116346877D01*
X161778271Y-116251639D01*
X161730652Y-116156401D01*
X161683033Y-115965925D01*
X161683033Y-115823068D01*
X161730652Y-115632592D01*
X161778271Y-115537354D01*
X161873509Y-115442116D01*
X162016367Y-115394496D01*
X162111605Y-115394496D01*
X162254462Y-115442116D01*
X162302081Y-115489735D01*
X163159224Y-115394496D02*
X162968748Y-115394496D01*
X162873509Y-115442116D01*
X162825890Y-115489735D01*
X162730652Y-115632592D01*
X162683033Y-115823068D01*
X162683033Y-116204020D01*
X162730652Y-116299258D01*
X162778271Y-116346877D01*
X162873509Y-116394496D01*
X163063986Y-116394496D01*
X163159224Y-116346877D01*
X163206843Y-116299258D01*
X163254462Y-116204020D01*
X163254462Y-115965925D01*
X163206843Y-115870687D01*
X163159224Y-115823068D01*
X163063986Y-115775449D01*
X162873509Y-115775449D01*
X162778271Y-115823068D01*
X162730652Y-115870687D01*
X162683033Y-115965925D01*
%TO.C,CON2*%
X138090714Y-121587142D02*
X138043095Y-121634761D01*
X137900238Y-121682380D01*
X137805000Y-121682380D01*
X137662142Y-121634761D01*
X137566904Y-121539523D01*
X137519285Y-121444285D01*
X137471666Y-121253809D01*
X137471666Y-121110952D01*
X137519285Y-120920476D01*
X137566904Y-120825238D01*
X137662142Y-120730000D01*
X137805000Y-120682380D01*
X137900238Y-120682380D01*
X138043095Y-120730000D01*
X138090714Y-120777619D01*
X138709761Y-120682380D02*
X138900238Y-120682380D01*
X138995476Y-120730000D01*
X139090714Y-120825238D01*
X139138333Y-121015714D01*
X139138333Y-121349047D01*
X139090714Y-121539523D01*
X138995476Y-121634761D01*
X138900238Y-121682380D01*
X138709761Y-121682380D01*
X138614523Y-121634761D01*
X138519285Y-121539523D01*
X138471666Y-121349047D01*
X138471666Y-121015714D01*
X138519285Y-120825238D01*
X138614523Y-120730000D01*
X138709761Y-120682380D01*
X139566904Y-121682380D02*
X139566904Y-120682380D01*
X140138333Y-121682380D01*
X140138333Y-120682380D01*
X140566904Y-120777619D02*
X140614523Y-120730000D01*
X140709761Y-120682380D01*
X140947857Y-120682380D01*
X141043095Y-120730000D01*
X141090714Y-120777619D01*
X141138333Y-120872857D01*
X141138333Y-120968095D01*
X141090714Y-121110952D01*
X140519285Y-121682380D01*
X141138333Y-121682380D01*
%TO.C,U2*%
X155923652Y-109067735D02*
X155923652Y-108258211D01*
X155876033Y-108162973D01*
X155828414Y-108115354D01*
X155733176Y-108067735D01*
X155542700Y-108067735D01*
X155447462Y-108115354D01*
X155399843Y-108162973D01*
X155352224Y-108258211D01*
X155352224Y-109067735D01*
X154923652Y-108972496D02*
X154876033Y-109020116D01*
X154780795Y-109067735D01*
X154542700Y-109067735D01*
X154447462Y-109020116D01*
X154399843Y-108972496D01*
X154352224Y-108877258D01*
X154352224Y-108782020D01*
X154399843Y-108639163D01*
X154971271Y-108067735D01*
X154352224Y-108067735D01*
%TO.C,R5*%
X155406128Y-175153782D02*
X154929938Y-175487116D01*
X155406128Y-175725211D02*
X154406128Y-175725211D01*
X154406128Y-175344258D01*
X154453748Y-175249020D01*
X154501367Y-175201401D01*
X154596605Y-175153782D01*
X154739462Y-175153782D01*
X154834700Y-175201401D01*
X154882319Y-175249020D01*
X154929938Y-175344258D01*
X154929938Y-175725211D01*
X154406128Y-174249020D02*
X154406128Y-174725211D01*
X154882319Y-174772830D01*
X154834700Y-174725211D01*
X154787081Y-174629973D01*
X154787081Y-174391877D01*
X154834700Y-174296639D01*
X154882319Y-174249020D01*
X154977557Y-174201401D01*
X155215652Y-174201401D01*
X155310890Y-174249020D01*
X155358509Y-174296639D01*
X155406128Y-174391877D01*
X155406128Y-174629973D01*
X155358509Y-174725211D01*
X155310890Y-174772830D01*
%TO.C,C1*%
X159042081Y-112899258D02*
X158994462Y-112946877D01*
X158851605Y-112994496D01*
X158756367Y-112994496D01*
X158613509Y-112946877D01*
X158518271Y-112851639D01*
X158470652Y-112756401D01*
X158423033Y-112565925D01*
X158423033Y-112423068D01*
X158470652Y-112232592D01*
X158518271Y-112137354D01*
X158613509Y-112042116D01*
X158756367Y-111994496D01*
X158851605Y-111994496D01*
X158994462Y-112042116D01*
X159042081Y-112089735D01*
X159994462Y-112994496D02*
X159423033Y-112994496D01*
X159708748Y-112994496D02*
X159708748Y-111994496D01*
X159613509Y-112137354D01*
X159518271Y-112232592D01*
X159423033Y-112280211D01*
%TO.C,C25*%
X82867142Y-166867142D02*
X82819523Y-166914761D01*
X82676666Y-166962380D01*
X82581428Y-166962380D01*
X82438571Y-166914761D01*
X82343333Y-166819523D01*
X82295714Y-166724285D01*
X82248095Y-166533809D01*
X82248095Y-166390952D01*
X82295714Y-166200476D01*
X82343333Y-166105238D01*
X82438571Y-166010000D01*
X82581428Y-165962380D01*
X82676666Y-165962380D01*
X82819523Y-166010000D01*
X82867142Y-166057619D01*
X83248095Y-166057619D02*
X83295714Y-166010000D01*
X83390952Y-165962380D01*
X83629047Y-165962380D01*
X83724285Y-166010000D01*
X83771904Y-166057619D01*
X83819523Y-166152857D01*
X83819523Y-166248095D01*
X83771904Y-166390952D01*
X83200476Y-166962380D01*
X83819523Y-166962380D01*
X84724285Y-165962380D02*
X84248095Y-165962380D01*
X84200476Y-166438571D01*
X84248095Y-166390952D01*
X84343333Y-166343333D01*
X84581428Y-166343333D01*
X84676666Y-166390952D01*
X84724285Y-166438571D01*
X84771904Y-166533809D01*
X84771904Y-166771904D01*
X84724285Y-166867142D01*
X84676666Y-166914761D01*
X84581428Y-166962380D01*
X84343333Y-166962380D01*
X84248095Y-166914761D01*
X84200476Y-166867142D01*
%TO.C,C24*%
X83042142Y-159267857D02*
X83089761Y-159315476D01*
X83137380Y-159458333D01*
X83137380Y-159553571D01*
X83089761Y-159696428D01*
X82994523Y-159791666D01*
X82899285Y-159839285D01*
X82708809Y-159886904D01*
X82565952Y-159886904D01*
X82375476Y-159839285D01*
X82280238Y-159791666D01*
X82185000Y-159696428D01*
X82137380Y-159553571D01*
X82137380Y-159458333D01*
X82185000Y-159315476D01*
X82232619Y-159267857D01*
X82232619Y-158886904D02*
X82185000Y-158839285D01*
X82137380Y-158744047D01*
X82137380Y-158505952D01*
X82185000Y-158410714D01*
X82232619Y-158363095D01*
X82327857Y-158315476D01*
X82423095Y-158315476D01*
X82565952Y-158363095D01*
X83137380Y-158934523D01*
X83137380Y-158315476D01*
X82470714Y-157458333D02*
X83137380Y-157458333D01*
X82089761Y-157696428D02*
X82804047Y-157934523D01*
X82804047Y-157315476D01*
%TO.C,C2*%
X155663333Y-116667142D02*
X155615714Y-116714761D01*
X155472857Y-116762380D01*
X155377619Y-116762380D01*
X155234761Y-116714761D01*
X155139523Y-116619523D01*
X155091904Y-116524285D01*
X155044285Y-116333809D01*
X155044285Y-116190952D01*
X155091904Y-116000476D01*
X155139523Y-115905238D01*
X155234761Y-115810000D01*
X155377619Y-115762380D01*
X155472857Y-115762380D01*
X155615714Y-115810000D01*
X155663333Y-115857619D01*
X156044285Y-115857619D02*
X156091904Y-115810000D01*
X156187142Y-115762380D01*
X156425238Y-115762380D01*
X156520476Y-115810000D01*
X156568095Y-115857619D01*
X156615714Y-115952857D01*
X156615714Y-116048095D01*
X156568095Y-116190952D01*
X155996666Y-116762380D01*
X156615714Y-116762380D01*
D11*
%TO.C,U1*%
X171998128Y-114719020D02*
X172807652Y-114719020D01*
X172902890Y-114671401D01*
X172950509Y-114623782D01*
X172998128Y-114528544D01*
X172998128Y-114338068D01*
X172950509Y-114242830D01*
X172902890Y-114195211D01*
X172807652Y-114147592D01*
X171998128Y-114147592D01*
X172998128Y-113147592D02*
X172998128Y-113719020D01*
X172998128Y-113433306D02*
X171998128Y-113433306D01*
X172140986Y-113528544D01*
X172236224Y-113623782D01*
X172283843Y-113719020D01*
%TO.C,Y1*%
X83838841Y-138778229D02*
X83838841Y-139528135D01*
X83313907Y-137953332D02*
X83838841Y-138778229D01*
X84363776Y-137953332D01*
X85713607Y-139528135D02*
X84813719Y-139528135D01*
X85263663Y-139528135D02*
X85263663Y-137953332D01*
X85113682Y-138178304D01*
X84963701Y-138328285D01*
X84813719Y-138403276D01*
D10*
%TO.C,C12*%
X84165890Y-124809258D02*
X84118271Y-124856877D01*
X83975414Y-124904496D01*
X83880176Y-124904496D01*
X83737319Y-124856877D01*
X83642081Y-124761639D01*
X83594462Y-124666401D01*
X83546843Y-124475925D01*
X83546843Y-124333068D01*
X83594462Y-124142592D01*
X83642081Y-124047354D01*
X83737319Y-123952116D01*
X83880176Y-123904496D01*
X83975414Y-123904496D01*
X84118271Y-123952116D01*
X84165890Y-123999735D01*
X85118271Y-124904496D02*
X84546843Y-124904496D01*
X84832557Y-124904496D02*
X84832557Y-123904496D01*
X84737319Y-124047354D01*
X84642081Y-124142592D01*
X84546843Y-124190211D01*
X85499224Y-123999735D02*
X85546843Y-123952116D01*
X85642081Y-123904496D01*
X85880176Y-123904496D01*
X85975414Y-123952116D01*
X86023033Y-123999735D01*
X86070652Y-124094973D01*
X86070652Y-124190211D01*
X86023033Y-124333068D01*
X85451605Y-124904496D01*
X86070652Y-124904496D01*
%TO.C,R4*%
X160416128Y-171103782D02*
X159939938Y-171437116D01*
X160416128Y-171675211D02*
X159416128Y-171675211D01*
X159416128Y-171294258D01*
X159463748Y-171199020D01*
X159511367Y-171151401D01*
X159606605Y-171103782D01*
X159749462Y-171103782D01*
X159844700Y-171151401D01*
X159892319Y-171199020D01*
X159939938Y-171294258D01*
X159939938Y-171675211D01*
X159749462Y-170246639D02*
X160416128Y-170246639D01*
X159368509Y-170484735D02*
X160082795Y-170722830D01*
X160082795Y-170103782D01*
D11*
%TO.C,AE3*%
X77789480Y-161170362D02*
X77789480Y-160720418D01*
X78059446Y-161260351D02*
X77114564Y-160945390D01*
X78059446Y-160630429D01*
X77564508Y-160315469D02*
X77564508Y-160000508D01*
X78059446Y-159865525D02*
X78059446Y-160315469D01*
X77114564Y-160315469D01*
X77114564Y-159865525D01*
X77114564Y-159550564D02*
X77114564Y-158965637D01*
X77474519Y-159280598D01*
X77474519Y-159145615D01*
X77519514Y-159055626D01*
X77564508Y-159010632D01*
X77654497Y-158965637D01*
X77879469Y-158965637D01*
X77969457Y-159010632D01*
X78014452Y-159055626D01*
X78059446Y-159145615D01*
X78059446Y-159415581D01*
X78014452Y-159505570D01*
X77969457Y-159550564D01*
D10*
%TO.C,TP4*%
X100006843Y-143206496D02*
X100578271Y-143206496D01*
X100292557Y-144206496D02*
X100292557Y-143206496D01*
X100911605Y-144206496D02*
X100911605Y-143206496D01*
X101292557Y-143206496D01*
X101387795Y-143254116D01*
X101435414Y-143301735D01*
X101483033Y-143396973D01*
X101483033Y-143539830D01*
X101435414Y-143635068D01*
X101387795Y-143682687D01*
X101292557Y-143730306D01*
X100911605Y-143730306D01*
X102340176Y-143539830D02*
X102340176Y-144206496D01*
X102102081Y-143158877D02*
X101863986Y-143873163D01*
X102483033Y-143873163D01*
X104162081Y-146519258D02*
X104114462Y-146566877D01*
X103971605Y-146614496D01*
X103876367Y-146614496D01*
X103733509Y-146566877D01*
X103638271Y-146471639D01*
X103590652Y-146376401D01*
X103543033Y-146185925D01*
X103543033Y-146043068D01*
X103590652Y-145852592D01*
X103638271Y-145757354D01*
X103733509Y-145662116D01*
X103876367Y-145614496D01*
X103971605Y-145614496D01*
X104114462Y-145662116D01*
X104162081Y-145709735D01*
X104543033Y-146566877D02*
X104685890Y-146614496D01*
X104923986Y-146614496D01*
X105019224Y-146566877D01*
X105066843Y-146519258D01*
X105114462Y-146424020D01*
X105114462Y-146328782D01*
X105066843Y-146233544D01*
X105019224Y-146185925D01*
X104923986Y-146138306D01*
X104733509Y-146090687D01*
X104638271Y-146043068D01*
X104590652Y-145995449D01*
X104543033Y-145900211D01*
X104543033Y-145804973D01*
X104590652Y-145709735D01*
X104638271Y-145662116D01*
X104733509Y-145614496D01*
X104971605Y-145614496D01*
X105114462Y-145662116D01*
%TO.C,TP3*%
X112756843Y-143406496D02*
X113328271Y-143406496D01*
X113042557Y-144406496D02*
X113042557Y-143406496D01*
X113661605Y-144406496D02*
X113661605Y-143406496D01*
X114042557Y-143406496D01*
X114137795Y-143454116D01*
X114185414Y-143501735D01*
X114233033Y-143596973D01*
X114233033Y-143739830D01*
X114185414Y-143835068D01*
X114137795Y-143882687D01*
X114042557Y-143930306D01*
X113661605Y-143930306D01*
X114566367Y-143406496D02*
X115185414Y-143406496D01*
X114852081Y-143787449D01*
X114994938Y-143787449D01*
X115090176Y-143835068D01*
X115137795Y-143882687D01*
X115185414Y-143977925D01*
X115185414Y-144216020D01*
X115137795Y-144311258D01*
X115090176Y-144358877D01*
X114994938Y-144406496D01*
X114709224Y-144406496D01*
X114613986Y-144358877D01*
X114566367Y-144311258D01*
X112397319Y-150104496D02*
X112397319Y-149104496D01*
X112730652Y-149818782D01*
X113063986Y-149104496D01*
X113063986Y-150104496D01*
X113540176Y-150104496D02*
X113540176Y-149104496D01*
X113968748Y-150056877D02*
X114111605Y-150104496D01*
X114349700Y-150104496D01*
X114444938Y-150056877D01*
X114492557Y-150009258D01*
X114540176Y-149914020D01*
X114540176Y-149818782D01*
X114492557Y-149723544D01*
X114444938Y-149675925D01*
X114349700Y-149628306D01*
X114159224Y-149580687D01*
X114063986Y-149533068D01*
X114016367Y-149485449D01*
X113968748Y-149390211D01*
X113968748Y-149294973D01*
X114016367Y-149199735D01*
X114063986Y-149152116D01*
X114159224Y-149104496D01*
X114397319Y-149104496D01*
X114540176Y-149152116D01*
X115159224Y-149104496D02*
X115349700Y-149104496D01*
X115444938Y-149152116D01*
X115540176Y-149247354D01*
X115587795Y-149437830D01*
X115587795Y-149771163D01*
X115540176Y-149961639D01*
X115444938Y-150056877D01*
X115349700Y-150104496D01*
X115159224Y-150104496D01*
X115063986Y-150056877D01*
X114968748Y-149961639D01*
X114921128Y-149771163D01*
X114921128Y-149437830D01*
X114968748Y-149247354D01*
X115063986Y-149152116D01*
X115159224Y-149104496D01*
%TO.C,C28*%
X167420890Y-162527130D02*
X167468509Y-162574749D01*
X167516128Y-162717606D01*
X167516128Y-162812844D01*
X167468509Y-162955701D01*
X167373271Y-163050939D01*
X167278033Y-163098558D01*
X167087557Y-163146177D01*
X166944700Y-163146177D01*
X166754224Y-163098558D01*
X166658986Y-163050939D01*
X166563748Y-162955701D01*
X166516128Y-162812844D01*
X166516128Y-162717606D01*
X166563748Y-162574749D01*
X166611367Y-162527130D01*
X166611367Y-162146177D02*
X166563748Y-162098558D01*
X166516128Y-162003320D01*
X166516128Y-161765225D01*
X166563748Y-161669987D01*
X166611367Y-161622368D01*
X166706605Y-161574749D01*
X166801843Y-161574749D01*
X166944700Y-161622368D01*
X167516128Y-162193796D01*
X167516128Y-161574749D01*
X166944700Y-161003320D02*
X166897081Y-161098558D01*
X166849462Y-161146177D01*
X166754224Y-161193796D01*
X166706605Y-161193796D01*
X166611367Y-161146177D01*
X166563748Y-161098558D01*
X166516128Y-161003320D01*
X166516128Y-160812844D01*
X166563748Y-160717606D01*
X166611367Y-160669987D01*
X166706605Y-160622368D01*
X166754224Y-160622368D01*
X166849462Y-160669987D01*
X166897081Y-160717606D01*
X166944700Y-160812844D01*
X166944700Y-161003320D01*
X166992319Y-161098558D01*
X167039938Y-161146177D01*
X167135176Y-161193796D01*
X167325652Y-161193796D01*
X167420890Y-161146177D01*
X167468509Y-161098558D01*
X167516128Y-161003320D01*
X167516128Y-160812844D01*
X167468509Y-160717606D01*
X167420890Y-160669987D01*
X167325652Y-160622368D01*
X167135176Y-160622368D01*
X167039938Y-160669987D01*
X166992319Y-160717606D01*
X166944700Y-160812844D01*
%TO.C,C9*%
X82117081Y-102514258D02*
X82069462Y-102561877D01*
X81926605Y-102609496D01*
X81831367Y-102609496D01*
X81688509Y-102561877D01*
X81593271Y-102466639D01*
X81545652Y-102371401D01*
X81498033Y-102180925D01*
X81498033Y-102038068D01*
X81545652Y-101847592D01*
X81593271Y-101752354D01*
X81688509Y-101657116D01*
X81831367Y-101609496D01*
X81926605Y-101609496D01*
X82069462Y-101657116D01*
X82117081Y-101704735D01*
X82593271Y-102609496D02*
X82783748Y-102609496D01*
X82878986Y-102561877D01*
X82926605Y-102514258D01*
X83021843Y-102371401D01*
X83069462Y-102180925D01*
X83069462Y-101799973D01*
X83021843Y-101704735D01*
X82974224Y-101657116D01*
X82878986Y-101609496D01*
X82688509Y-101609496D01*
X82593271Y-101657116D01*
X82545652Y-101704735D01*
X82498033Y-101799973D01*
X82498033Y-102038068D01*
X82545652Y-102133306D01*
X82593271Y-102180925D01*
X82688509Y-102228544D01*
X82878986Y-102228544D01*
X82974224Y-102180925D01*
X83021843Y-102133306D01*
X83069462Y-102038068D01*
%TO.C,C16*%
X88455890Y-132724973D02*
X88503509Y-132772592D01*
X88551128Y-132915449D01*
X88551128Y-133010687D01*
X88503509Y-133153544D01*
X88408271Y-133248782D01*
X88313033Y-133296401D01*
X88122557Y-133344020D01*
X87979700Y-133344020D01*
X87789224Y-133296401D01*
X87693986Y-133248782D01*
X87598748Y-133153544D01*
X87551128Y-133010687D01*
X87551128Y-132915449D01*
X87598748Y-132772592D01*
X87646367Y-132724973D01*
X88551128Y-131772592D02*
X88551128Y-132344020D01*
X88551128Y-132058306D02*
X87551128Y-132058306D01*
X87693986Y-132153544D01*
X87789224Y-132248782D01*
X87836843Y-132344020D01*
X87551128Y-130915449D02*
X87551128Y-131105925D01*
X87598748Y-131201163D01*
X87646367Y-131248782D01*
X87789224Y-131344020D01*
X87979700Y-131391639D01*
X88360652Y-131391639D01*
X88455890Y-131344020D01*
X88503509Y-131296401D01*
X88551128Y-131201163D01*
X88551128Y-131010687D01*
X88503509Y-130915449D01*
X88455890Y-130867830D01*
X88360652Y-130820211D01*
X88122557Y-130820211D01*
X88027319Y-130867830D01*
X87979700Y-130915449D01*
X87932081Y-131010687D01*
X87932081Y-131201163D01*
X87979700Y-131296401D01*
X88027319Y-131344020D01*
X88122557Y-131391639D01*
%TO.C,Y2*%
X149533809Y-132453809D02*
X149057619Y-132453809D01*
X150057619Y-132120476D02*
X149533809Y-132453809D01*
X150057619Y-132787142D01*
X149962380Y-133072857D02*
X150010000Y-133120476D01*
X150057619Y-133215714D01*
X150057619Y-133453809D01*
X150010000Y-133549047D01*
X149962380Y-133596666D01*
X149867142Y-133644285D01*
X149771904Y-133644285D01*
X149629047Y-133596666D01*
X149057619Y-133025238D01*
X149057619Y-133644285D01*
%TO.C,TP5*%
X91756843Y-143256496D02*
X92328271Y-143256496D01*
X92042557Y-144256496D02*
X92042557Y-143256496D01*
X92661605Y-144256496D02*
X92661605Y-143256496D01*
X93042557Y-143256496D01*
X93137795Y-143304116D01*
X93185414Y-143351735D01*
X93233033Y-143446973D01*
X93233033Y-143589830D01*
X93185414Y-143685068D01*
X93137795Y-143732687D01*
X93042557Y-143780306D01*
X92661605Y-143780306D01*
X94137795Y-143256496D02*
X93661605Y-143256496D01*
X93613986Y-143732687D01*
X93661605Y-143685068D01*
X93756843Y-143637449D01*
X93994938Y-143637449D01*
X94090176Y-143685068D01*
X94137795Y-143732687D01*
X94185414Y-143827925D01*
X94185414Y-144066020D01*
X94137795Y-144161258D01*
X94090176Y-144208877D01*
X93994938Y-144256496D01*
X93756843Y-144256496D01*
X93661605Y-144208877D01*
X93613986Y-144161258D01*
X90560176Y-150376877D02*
X90703033Y-150424496D01*
X90941128Y-150424496D01*
X91036367Y-150376877D01*
X91083986Y-150329258D01*
X91131605Y-150234020D01*
X91131605Y-150138782D01*
X91083986Y-150043544D01*
X91036367Y-149995925D01*
X90941128Y-149948306D01*
X90750652Y-149900687D01*
X90655414Y-149853068D01*
X90607795Y-149805449D01*
X90560176Y-149710211D01*
X90560176Y-149614973D01*
X90607795Y-149519735D01*
X90655414Y-149472116D01*
X90750652Y-149424496D01*
X90988748Y-149424496D01*
X91131605Y-149472116D01*
X91560176Y-150424496D02*
X91560176Y-149424496D01*
X91941128Y-149424496D01*
X92036367Y-149472116D01*
X92083986Y-149519735D01*
X92131605Y-149614973D01*
X92131605Y-149757830D01*
X92083986Y-149853068D01*
X92036367Y-149900687D01*
X91941128Y-149948306D01*
X91560176Y-149948306D01*
X92560176Y-150424496D02*
X92560176Y-149424496D01*
X93607795Y-150329258D02*
X93560176Y-150376877D01*
X93417319Y-150424496D01*
X93322081Y-150424496D01*
X93179224Y-150376877D01*
X93083986Y-150281639D01*
X93036367Y-150186401D01*
X92988748Y-149995925D01*
X92988748Y-149853068D01*
X93036367Y-149662592D01*
X93083986Y-149567354D01*
X93179224Y-149472116D01*
X93322081Y-149424496D01*
X93417319Y-149424496D01*
X93560176Y-149472116D01*
X93607795Y-149519735D01*
X94512557Y-150424496D02*
X94036367Y-150424496D01*
X94036367Y-149424496D01*
X94845890Y-150424496D02*
X94845890Y-149424496D01*
X95417319Y-150424496D02*
X94988748Y-149853068D01*
X95417319Y-149424496D02*
X94845890Y-149995925D01*
%TO.C,CON1*%
X94699462Y-126909258D02*
X94651843Y-126956877D01*
X94508986Y-127004496D01*
X94413748Y-127004496D01*
X94270890Y-126956877D01*
X94175652Y-126861639D01*
X94128033Y-126766401D01*
X94080414Y-126575925D01*
X94080414Y-126433068D01*
X94128033Y-126242592D01*
X94175652Y-126147354D01*
X94270890Y-126052116D01*
X94413748Y-126004496D01*
X94508986Y-126004496D01*
X94651843Y-126052116D01*
X94699462Y-126099735D01*
X95318509Y-126004496D02*
X95508986Y-126004496D01*
X95604224Y-126052116D01*
X95699462Y-126147354D01*
X95747081Y-126337830D01*
X95747081Y-126671163D01*
X95699462Y-126861639D01*
X95604224Y-126956877D01*
X95508986Y-127004496D01*
X95318509Y-127004496D01*
X95223271Y-126956877D01*
X95128033Y-126861639D01*
X95080414Y-126671163D01*
X95080414Y-126337830D01*
X95128033Y-126147354D01*
X95223271Y-126052116D01*
X95318509Y-126004496D01*
X96175652Y-127004496D02*
X96175652Y-126004496D01*
X96747081Y-127004496D01*
X96747081Y-126004496D01*
X97747081Y-127004496D02*
X97175652Y-127004496D01*
X97461367Y-127004496D02*
X97461367Y-126004496D01*
X97366128Y-126147354D01*
X97270890Y-126242592D01*
X97175652Y-126290211D01*
%TO.C,C13*%
X97495890Y-139444973D02*
X97543509Y-139492592D01*
X97591128Y-139635449D01*
X97591128Y-139730687D01*
X97543509Y-139873544D01*
X97448271Y-139968782D01*
X97353033Y-140016401D01*
X97162557Y-140064020D01*
X97019700Y-140064020D01*
X96829224Y-140016401D01*
X96733986Y-139968782D01*
X96638748Y-139873544D01*
X96591128Y-139730687D01*
X96591128Y-139635449D01*
X96638748Y-139492592D01*
X96686367Y-139444973D01*
X97591128Y-138492592D02*
X97591128Y-139064020D01*
X97591128Y-138778306D02*
X96591128Y-138778306D01*
X96733986Y-138873544D01*
X96829224Y-138968782D01*
X96876843Y-139064020D01*
X96591128Y-138159258D02*
X96591128Y-137540211D01*
X96972081Y-137873544D01*
X96972081Y-137730687D01*
X97019700Y-137635449D01*
X97067319Y-137587830D01*
X97162557Y-137540211D01*
X97400652Y-137540211D01*
X97495890Y-137587830D01*
X97543509Y-137635449D01*
X97591128Y-137730687D01*
X97591128Y-138016401D01*
X97543509Y-138111639D01*
X97495890Y-138159258D01*
%TO.C,C8*%
X98732081Y-96329258D02*
X98684462Y-96376877D01*
X98541605Y-96424496D01*
X98446367Y-96424496D01*
X98303509Y-96376877D01*
X98208271Y-96281639D01*
X98160652Y-96186401D01*
X98113033Y-95995925D01*
X98113033Y-95853068D01*
X98160652Y-95662592D01*
X98208271Y-95567354D01*
X98303509Y-95472116D01*
X98446367Y-95424496D01*
X98541605Y-95424496D01*
X98684462Y-95472116D01*
X98732081Y-95519735D01*
X99303509Y-95853068D02*
X99208271Y-95805449D01*
X99160652Y-95757830D01*
X99113033Y-95662592D01*
X99113033Y-95614973D01*
X99160652Y-95519735D01*
X99208271Y-95472116D01*
X99303509Y-95424496D01*
X99493986Y-95424496D01*
X99589224Y-95472116D01*
X99636843Y-95519735D01*
X99684462Y-95614973D01*
X99684462Y-95662592D01*
X99636843Y-95757830D01*
X99589224Y-95805449D01*
X99493986Y-95853068D01*
X99303509Y-95853068D01*
X99208271Y-95900687D01*
X99160652Y-95948306D01*
X99113033Y-96043544D01*
X99113033Y-96234020D01*
X99160652Y-96329258D01*
X99208271Y-96376877D01*
X99303509Y-96424496D01*
X99493986Y-96424496D01*
X99589224Y-96376877D01*
X99636843Y-96329258D01*
X99684462Y-96234020D01*
X99684462Y-96043544D01*
X99636843Y-95948306D01*
X99589224Y-95900687D01*
X99493986Y-95853068D01*
%TO.C,C33*%
X148997142Y-128147142D02*
X148949523Y-128194761D01*
X148806666Y-128242380D01*
X148711428Y-128242380D01*
X148568571Y-128194761D01*
X148473333Y-128099523D01*
X148425714Y-128004285D01*
X148378095Y-127813809D01*
X148378095Y-127670952D01*
X148425714Y-127480476D01*
X148473333Y-127385238D01*
X148568571Y-127290000D01*
X148711428Y-127242380D01*
X148806666Y-127242380D01*
X148949523Y-127290000D01*
X148997142Y-127337619D01*
X149330476Y-127242380D02*
X149949523Y-127242380D01*
X149616190Y-127623333D01*
X149759047Y-127623333D01*
X149854285Y-127670952D01*
X149901904Y-127718571D01*
X149949523Y-127813809D01*
X149949523Y-128051904D01*
X149901904Y-128147142D01*
X149854285Y-128194761D01*
X149759047Y-128242380D01*
X149473333Y-128242380D01*
X149378095Y-128194761D01*
X149330476Y-128147142D01*
X150282857Y-127242380D02*
X150901904Y-127242380D01*
X150568571Y-127623333D01*
X150711428Y-127623333D01*
X150806666Y-127670952D01*
X150854285Y-127718571D01*
X150901904Y-127813809D01*
X150901904Y-128051904D01*
X150854285Y-128147142D01*
X150806666Y-128194761D01*
X150711428Y-128242380D01*
X150425714Y-128242380D01*
X150330476Y-128194761D01*
X150282857Y-128147142D01*
%TO.C,C23*%
X87931142Y-159896857D02*
X87978761Y-159944476D01*
X88026380Y-160087333D01*
X88026380Y-160182571D01*
X87978761Y-160325428D01*
X87883523Y-160420666D01*
X87788285Y-160468285D01*
X87597809Y-160515904D01*
X87454952Y-160515904D01*
X87264476Y-160468285D01*
X87169238Y-160420666D01*
X87074000Y-160325428D01*
X87026380Y-160182571D01*
X87026380Y-160087333D01*
X87074000Y-159944476D01*
X87121619Y-159896857D01*
X87121619Y-159515904D02*
X87074000Y-159468285D01*
X87026380Y-159373047D01*
X87026380Y-159134952D01*
X87074000Y-159039714D01*
X87121619Y-158992095D01*
X87216857Y-158944476D01*
X87312095Y-158944476D01*
X87454952Y-158992095D01*
X88026380Y-159563523D01*
X88026380Y-158944476D01*
X87026380Y-158611142D02*
X87026380Y-157992095D01*
X87407333Y-158325428D01*
X87407333Y-158182571D01*
X87454952Y-158087333D01*
X87502571Y-158039714D01*
X87597809Y-157992095D01*
X87835904Y-157992095D01*
X87931142Y-158039714D01*
X87978761Y-158087333D01*
X88026380Y-158182571D01*
X88026380Y-158468285D01*
X87978761Y-158563523D01*
X87931142Y-158611142D01*
%TO.C,R7*%
X98769333Y-149212380D02*
X98436000Y-148736190D01*
X98197904Y-149212380D02*
X98197904Y-148212380D01*
X98578857Y-148212380D01*
X98674095Y-148260000D01*
X98721714Y-148307619D01*
X98769333Y-148402857D01*
X98769333Y-148545714D01*
X98721714Y-148640952D01*
X98674095Y-148688571D01*
X98578857Y-148736190D01*
X98197904Y-148736190D01*
X99102666Y-148212380D02*
X99769333Y-148212380D01*
X99340761Y-149212380D01*
%TO.C,R3*%
X163487081Y-147759496D02*
X163153748Y-147283306D01*
X162915652Y-147759496D02*
X162915652Y-146759496D01*
X163296605Y-146759496D01*
X163391843Y-146807116D01*
X163439462Y-146854735D01*
X163487081Y-146949973D01*
X163487081Y-147092830D01*
X163439462Y-147188068D01*
X163391843Y-147235687D01*
X163296605Y-147283306D01*
X162915652Y-147283306D01*
X163820414Y-146759496D02*
X164439462Y-146759496D01*
X164106128Y-147140449D01*
X164248986Y-147140449D01*
X164344224Y-147188068D01*
X164391843Y-147235687D01*
X164439462Y-147330925D01*
X164439462Y-147569020D01*
X164391843Y-147664258D01*
X164344224Y-147711877D01*
X164248986Y-147759496D01*
X163963271Y-147759496D01*
X163868033Y-147711877D01*
X163820414Y-147664258D01*
%TO.C,C17*%
X86420890Y-142714258D02*
X86373271Y-142761877D01*
X86230414Y-142809496D01*
X86135176Y-142809496D01*
X85992319Y-142761877D01*
X85897081Y-142666639D01*
X85849462Y-142571401D01*
X85801843Y-142380925D01*
X85801843Y-142238068D01*
X85849462Y-142047592D01*
X85897081Y-141952354D01*
X85992319Y-141857116D01*
X86135176Y-141809496D01*
X86230414Y-141809496D01*
X86373271Y-141857116D01*
X86420890Y-141904735D01*
X87373271Y-142809496D02*
X86801843Y-142809496D01*
X87087557Y-142809496D02*
X87087557Y-141809496D01*
X86992319Y-141952354D01*
X86897081Y-142047592D01*
X86801843Y-142095211D01*
X87706605Y-141809496D02*
X88373271Y-141809496D01*
X87944700Y-142809496D01*
%TO.C,C29*%
X160125890Y-180989258D02*
X160078271Y-181036877D01*
X159935414Y-181084496D01*
X159840176Y-181084496D01*
X159697319Y-181036877D01*
X159602081Y-180941639D01*
X159554462Y-180846401D01*
X159506843Y-180655925D01*
X159506843Y-180513068D01*
X159554462Y-180322592D01*
X159602081Y-180227354D01*
X159697319Y-180132116D01*
X159840176Y-180084496D01*
X159935414Y-180084496D01*
X160078271Y-180132116D01*
X160125890Y-180179735D01*
X160506843Y-180179735D02*
X160554462Y-180132116D01*
X160649700Y-180084496D01*
X160887795Y-180084496D01*
X160983033Y-180132116D01*
X161030652Y-180179735D01*
X161078271Y-180274973D01*
X161078271Y-180370211D01*
X161030652Y-180513068D01*
X160459224Y-181084496D01*
X161078271Y-181084496D01*
X161554462Y-181084496D02*
X161744938Y-181084496D01*
X161840176Y-181036877D01*
X161887795Y-180989258D01*
X161983033Y-180846401D01*
X162030652Y-180655925D01*
X162030652Y-180274973D01*
X161983033Y-180179735D01*
X161935414Y-180132116D01*
X161840176Y-180084496D01*
X161649700Y-180084496D01*
X161554462Y-180132116D01*
X161506843Y-180179735D01*
X161459224Y-180274973D01*
X161459224Y-180513068D01*
X161506843Y-180608306D01*
X161554462Y-180655925D01*
X161649700Y-180703544D01*
X161840176Y-180703544D01*
X161935414Y-180655925D01*
X161983033Y-180608306D01*
X162030652Y-180513068D01*
%TO.C,TP1*%
X83828095Y-143944380D02*
X84399523Y-143944380D01*
X84113809Y-144944380D02*
X84113809Y-143944380D01*
X84732857Y-144944380D02*
X84732857Y-143944380D01*
X85113809Y-143944380D01*
X85209047Y-143992000D01*
X85256666Y-144039619D01*
X85304285Y-144134857D01*
X85304285Y-144277714D01*
X85256666Y-144372952D01*
X85209047Y-144420571D01*
X85113809Y-144468190D01*
X84732857Y-144468190D01*
X86256666Y-144944380D02*
X85685238Y-144944380D01*
X85970952Y-144944380D02*
X85970952Y-143944380D01*
X85875714Y-144087238D01*
X85780476Y-144182476D01*
X85685238Y-144230095D01*
X83637619Y-149892380D02*
X83304285Y-149416190D01*
X83066190Y-149892380D02*
X83066190Y-148892380D01*
X83447142Y-148892380D01*
X83542380Y-148940000D01*
X83590000Y-148987619D01*
X83637619Y-149082857D01*
X83637619Y-149225714D01*
X83590000Y-149320952D01*
X83542380Y-149368571D01*
X83447142Y-149416190D01*
X83066190Y-149416190D01*
X84066190Y-149368571D02*
X84399523Y-149368571D01*
X84542380Y-149892380D02*
X84066190Y-149892380D01*
X84066190Y-148892380D01*
X84542380Y-148892380D01*
X84923333Y-149844761D02*
X85066190Y-149892380D01*
X85304285Y-149892380D01*
X85399523Y-149844761D01*
X85447142Y-149797142D01*
X85494761Y-149701904D01*
X85494761Y-149606666D01*
X85447142Y-149511428D01*
X85399523Y-149463809D01*
X85304285Y-149416190D01*
X85113809Y-149368571D01*
X85018571Y-149320952D01*
X84970952Y-149273333D01*
X84923333Y-149178095D01*
X84923333Y-149082857D01*
X84970952Y-148987619D01*
X85018571Y-148940000D01*
X85113809Y-148892380D01*
X85351904Y-148892380D01*
X85494761Y-148940000D01*
X85923333Y-149368571D02*
X86256666Y-149368571D01*
X86399523Y-149892380D02*
X85923333Y-149892380D01*
X85923333Y-148892380D01*
X86399523Y-148892380D01*
X86685238Y-148892380D02*
X87256666Y-148892380D01*
X86970952Y-149892380D02*
X86970952Y-148892380D01*
%TO.C,C14*%
X82307142Y-136802857D02*
X82354761Y-136850476D01*
X82402380Y-136993333D01*
X82402380Y-137088571D01*
X82354761Y-137231428D01*
X82259523Y-137326666D01*
X82164285Y-137374285D01*
X81973809Y-137421904D01*
X81830952Y-137421904D01*
X81640476Y-137374285D01*
X81545238Y-137326666D01*
X81450000Y-137231428D01*
X81402380Y-137088571D01*
X81402380Y-136993333D01*
X81450000Y-136850476D01*
X81497619Y-136802857D01*
X82402380Y-135850476D02*
X82402380Y-136421904D01*
X82402380Y-136136190D02*
X81402380Y-136136190D01*
X81545238Y-136231428D01*
X81640476Y-136326666D01*
X81688095Y-136421904D01*
X81735714Y-134993333D02*
X82402380Y-134993333D01*
X81354761Y-135231428D02*
X82069047Y-135469523D01*
X82069047Y-134850476D01*
%TO.C,R1*%
X168882081Y-105964496D02*
X168548748Y-105488306D01*
X168310652Y-105964496D02*
X168310652Y-104964496D01*
X168691605Y-104964496D01*
X168786843Y-105012116D01*
X168834462Y-105059735D01*
X168882081Y-105154973D01*
X168882081Y-105297830D01*
X168834462Y-105393068D01*
X168786843Y-105440687D01*
X168691605Y-105488306D01*
X168310652Y-105488306D01*
X169834462Y-105964496D02*
X169263033Y-105964496D01*
X169548748Y-105964496D02*
X169548748Y-104964496D01*
X169453509Y-105107354D01*
X169358271Y-105202592D01*
X169263033Y-105250211D01*
D11*
%TO.C,AE1*%
X77576228Y-99074478D02*
X77576228Y-98624534D01*
X77846194Y-99164467D02*
X76901312Y-98849506D01*
X77846194Y-98534545D01*
X77351256Y-98219585D02*
X77351256Y-97904624D01*
X77846194Y-97769641D02*
X77846194Y-98219585D01*
X76901312Y-98219585D01*
X76901312Y-97769641D01*
X77846194Y-96869753D02*
X77846194Y-97409686D01*
X77846194Y-97139719D02*
X76901312Y-97139719D01*
X77036295Y-97229708D01*
X77126284Y-97319697D01*
X77171278Y-97409686D01*
D12*
%TO.C,BT1*%
X119397690Y-89304601D02*
X119579119Y-89365077D01*
X119639595Y-89425554D01*
X119700071Y-89546506D01*
X119700071Y-89727935D01*
X119639595Y-89848887D01*
X119579119Y-89909363D01*
X119458167Y-89969839D01*
X118974357Y-89969839D01*
X118974357Y-88699839D01*
X119397690Y-88699839D01*
X119518643Y-88760316D01*
X119579119Y-88820792D01*
X119639595Y-88941744D01*
X119639595Y-89062696D01*
X119579119Y-89183649D01*
X119518643Y-89244125D01*
X119397690Y-89304601D01*
X118974357Y-89304601D01*
X120062928Y-88699839D02*
X120788643Y-88699839D01*
X120425786Y-89969839D02*
X120425786Y-88699839D01*
X121877214Y-89969839D02*
X121151500Y-89969839D01*
X121514357Y-89969839D02*
X121514357Y-88699839D01*
X121393405Y-88881268D01*
X121272452Y-89002220D01*
X121151500Y-89062696D01*
D11*
%TO.C,MOD2*%
X97031158Y-107489254D02*
X95456355Y-107489254D01*
X96581215Y-106964320D01*
X95456355Y-106439386D01*
X97031158Y-106439386D01*
X95456355Y-105389517D02*
X95456355Y-105089555D01*
X95531346Y-104939573D01*
X95681327Y-104789592D01*
X95981290Y-104714601D01*
X96506224Y-104714601D01*
X96806187Y-104789592D01*
X96956168Y-104939573D01*
X97031158Y-105089555D01*
X97031158Y-105389517D01*
X96956168Y-105539498D01*
X96806187Y-105689479D01*
X96506224Y-105764470D01*
X95981290Y-105764470D01*
X95681327Y-105689479D01*
X95531346Y-105539498D01*
X95456355Y-105389517D01*
X97031158Y-104039686D02*
X95456355Y-104039686D01*
X95456355Y-103664733D01*
X95531346Y-103439761D01*
X95681327Y-103289780D01*
X95831308Y-103214789D01*
X96131271Y-103139798D01*
X96356243Y-103139798D01*
X96656205Y-103214789D01*
X96806187Y-103289780D01*
X96956168Y-103439761D01*
X97031158Y-103664733D01*
X97031158Y-104039686D01*
X95606337Y-102539873D02*
X95531346Y-102464883D01*
X95456355Y-102314902D01*
X95456355Y-101939949D01*
X95531346Y-101789967D01*
X95606337Y-101714977D01*
X95756318Y-101639986D01*
X95906299Y-101639986D01*
X96131271Y-101714977D01*
X97031158Y-102614864D01*
X97031158Y-101639986D01*
%TO.C,AE2*%
X77776228Y-131604478D02*
X77776228Y-131154534D01*
X78046194Y-131694467D02*
X77101312Y-131379506D01*
X78046194Y-131064545D01*
X77551256Y-130749585D02*
X77551256Y-130434624D01*
X78046194Y-130299641D02*
X78046194Y-130749585D01*
X77101312Y-130749585D01*
X77101312Y-130299641D01*
X77191301Y-129939686D02*
X77146307Y-129894691D01*
X77101312Y-129804703D01*
X77101312Y-129579731D01*
X77146307Y-129489742D01*
X77191301Y-129444748D01*
X77281290Y-129399753D01*
X77371278Y-129399753D01*
X77506262Y-129444748D01*
X78046194Y-129984680D01*
X78046194Y-129399753D01*
D10*
%TO.C,C3*%
X148933081Y-113034258D02*
X148885462Y-113081877D01*
X148742605Y-113129496D01*
X148647367Y-113129496D01*
X148504509Y-113081877D01*
X148409271Y-112986639D01*
X148361652Y-112891401D01*
X148314033Y-112700925D01*
X148314033Y-112558068D01*
X148361652Y-112367592D01*
X148409271Y-112272354D01*
X148504509Y-112177116D01*
X148647367Y-112129496D01*
X148742605Y-112129496D01*
X148885462Y-112177116D01*
X148933081Y-112224735D01*
X149266414Y-112129496D02*
X149885462Y-112129496D01*
X149552128Y-112510449D01*
X149694986Y-112510449D01*
X149790224Y-112558068D01*
X149837843Y-112605687D01*
X149885462Y-112700925D01*
X149885462Y-112939020D01*
X149837843Y-113034258D01*
X149790224Y-113081877D01*
X149694986Y-113129496D01*
X149409271Y-113129496D01*
X149314033Y-113081877D01*
X149266414Y-113034258D01*
D13*
%TO.C,C26*%
X87545000Y-168235000D02*
X87545000Y-168870000D01*
X85005000Y-168235000D02*
X87545000Y-168235000D01*
X87545000Y-168870000D02*
X87545000Y-169505000D01*
X87545000Y-169505000D02*
X85005000Y-169505000D01*
X85005000Y-169505000D02*
X85005000Y-168235000D01*
%TO.C,R9*%
X83255000Y-163585000D02*
X83255000Y-162315000D01*
X85795000Y-162315000D02*
X85795000Y-162950000D01*
X83255000Y-162315000D02*
X85795000Y-162315000D01*
X85795000Y-163585000D02*
X83255000Y-163585000D01*
X85795000Y-162950000D02*
X85795000Y-163585000D01*
%TO.C,C7*%
X102748748Y-93387116D02*
X102748748Y-94022116D01*
X100208748Y-94022116D02*
X100208748Y-92752116D01*
X102748748Y-94022116D02*
X100208748Y-94022116D01*
X102748748Y-92752116D02*
X102748748Y-93387116D01*
X100208748Y-92752116D02*
X102748748Y-92752116D01*
%TO.C,C10*%
X86523748Y-126562116D02*
X86523748Y-125927116D01*
X89063748Y-127197116D02*
X86523748Y-127197116D01*
X86523748Y-125927116D02*
X89063748Y-125927116D01*
X86523748Y-127197116D02*
X86523748Y-126562116D01*
X89063748Y-125927116D02*
X89063748Y-127197116D01*
%TO.C,TP2*%
X109308748Y-145972116D02*
G75*
G03*
X109308748Y-145972116I-1750000J0D01*
G01*
D14*
%TO.C,U3*%
X159788748Y-188732116D02*
X159131948Y-188732116D01*
X159788748Y-188888916D02*
X159788748Y-188732116D01*
X156788748Y-188732116D02*
X157445548Y-188732116D01*
X156788748Y-191575316D02*
X156788748Y-191732116D01*
X159788748Y-191732116D02*
X159131948Y-191732116D01*
X156788748Y-188888916D02*
X156788748Y-188732116D01*
X159788748Y-191575316D02*
X159788748Y-191732116D01*
X156788748Y-191732116D02*
X157445548Y-191732116D01*
D15*
X156610748Y-188581116D02*
G75*
G03*
X156610748Y-188581116I-100000J0D01*
G01*
D13*
%TO.C,C5*%
X164443748Y-112002116D02*
X164443748Y-112637116D01*
X161903748Y-112637116D02*
X161903748Y-111367116D01*
X164443748Y-112637116D02*
X161903748Y-112637116D01*
X164443748Y-111367116D02*
X164443748Y-112002116D01*
X161903748Y-111367116D02*
X164443748Y-111367116D01*
%TO.C,C22*%
X147395000Y-135085000D02*
X149935000Y-135085000D01*
X149935000Y-136355000D02*
X147395000Y-136355000D01*
X147395000Y-135720000D02*
X147395000Y-135085000D01*
X147395000Y-136355000D02*
X147395000Y-135720000D01*
X149935000Y-135085000D02*
X149935000Y-136355000D01*
%TO.C,C27*%
X87580000Y-171590000D02*
X85040000Y-171590000D01*
X85040000Y-171590000D02*
X85040000Y-170320000D01*
X87580000Y-170955000D02*
X87580000Y-171590000D01*
X87580000Y-170320000D02*
X87580000Y-170955000D01*
X85040000Y-170320000D02*
X87580000Y-170320000D01*
%TO.C,C21*%
X144566000Y-143942000D02*
X144566000Y-145212000D01*
X142026000Y-144577000D02*
X142026000Y-143942000D01*
X142026000Y-145212000D02*
X142026000Y-144577000D01*
X144566000Y-145212000D02*
X142026000Y-145212000D01*
X142026000Y-143942000D02*
X144566000Y-143942000D01*
%TO.C,J2*%
X177653748Y-157762116D02*
X177653748Y-150142116D01*
X177653748Y-150142116D02*
X180193748Y-150142116D01*
X180193748Y-150142116D02*
X180193748Y-157762116D01*
X178923748Y-157762116D02*
X177653748Y-157762116D01*
X180193748Y-157762116D02*
X178923748Y-157762116D01*
%TO.C,L1*%
X86413748Y-100237116D02*
X88953748Y-100237116D01*
X88953748Y-100237116D02*
X88953748Y-100872116D01*
X88953748Y-101507116D02*
X86413748Y-101507116D01*
X88953748Y-100872116D02*
X88953748Y-101507116D01*
X86413748Y-101507116D02*
X86413748Y-100237116D01*
D15*
%TO.C,U6*%
X99638748Y-136502116D02*
X100008748Y-136502116D01*
X94008748Y-136132116D02*
X94008748Y-136502116D01*
X100008748Y-130502116D02*
X99638748Y-130502116D01*
X94008748Y-130502116D02*
X94008748Y-130872116D01*
X94008748Y-136502116D02*
X94378748Y-136502116D01*
X100008748Y-136502116D02*
X100008748Y-136132116D01*
X100008748Y-130872116D02*
X100008748Y-130502116D01*
X94378748Y-130502116D02*
X94008748Y-130502116D01*
D16*
X101008748Y-135702116D02*
G75*
G03*
X101008748Y-135702116I-100000J0D01*
G01*
D13*
%TO.C,C15*%
X105528748Y-136342116D02*
X102988748Y-136342116D01*
X102988748Y-136342116D02*
X102988748Y-135072116D01*
X105528748Y-135707116D02*
X105528748Y-136342116D01*
X105528748Y-135072116D02*
X105528748Y-135707116D01*
X102988748Y-135072116D02*
X105528748Y-135072116D01*
D15*
%TO.C,MOD1*%
X107568000Y-177926000D02*
X91568000Y-177926000D01*
X91568000Y-161926000D02*
X107568000Y-161926000D01*
D16*
X109803000Y-176991000D02*
G75*
G03*
X109803000Y-176991000I-100000J0D01*
G01*
D13*
%TO.C,C4*%
X150240000Y-115610000D02*
X150240000Y-114975000D01*
X152780000Y-114340000D02*
X152780000Y-115610000D01*
X150240000Y-114340000D02*
X152780000Y-114340000D01*
X150240000Y-114975000D02*
X150240000Y-114340000D01*
X152780000Y-115610000D02*
X150240000Y-115610000D01*
%TO.C,C31*%
X156848748Y-184082116D02*
X156848748Y-182812116D01*
X159388748Y-182812116D02*
X159388748Y-183447116D01*
X159388748Y-184082116D02*
X156848748Y-184082116D01*
X159388748Y-183447116D02*
X159388748Y-184082116D01*
X156848748Y-182812116D02*
X159388748Y-182812116D01*
%TO.C,U7*%
X139414000Y-141776000D02*
X139744000Y-141776000D01*
X139744000Y-134576000D02*
X139744000Y-134906000D01*
X132874000Y-134576000D02*
X132544000Y-134576000D01*
X132874000Y-141776000D02*
X132544000Y-141776000D01*
X132544000Y-141776000D02*
X132544000Y-141446000D01*
X132544000Y-134576000D02*
X132544000Y-134906000D01*
X139414000Y-134576000D02*
X139744000Y-134576000D01*
X139744000Y-141776000D02*
X139744000Y-141446000D01*
%TO.C,U9*%
X165047326Y-178787116D02*
X157697326Y-178787116D01*
X157697326Y-172437116D02*
X157697326Y-178787116D01*
X157697326Y-172437116D02*
X165047326Y-172437116D01*
X165047326Y-172437116D02*
X165047326Y-178787116D01*
D17*
X165868747Y-177517116D02*
G75*
G03*
X165868747Y-177517116I-171421J0D01*
G01*
D13*
%TO.C,C11*%
X86563748Y-122292116D02*
X86563748Y-121657116D01*
X86563748Y-122927116D02*
X86563748Y-122292116D01*
X86563748Y-121657116D02*
X89103748Y-121657116D01*
X89103748Y-122927116D02*
X86563748Y-122927116D01*
X89103748Y-121657116D02*
X89103748Y-122927116D01*
%TO.C,C18*%
X93513748Y-138062116D02*
X94148748Y-138062116D01*
X94148748Y-140602116D02*
X92878748Y-140602116D01*
X92878748Y-138062116D02*
X93513748Y-138062116D01*
X92878748Y-140602116D02*
X92878748Y-138062116D01*
X94148748Y-138062116D02*
X94148748Y-140602116D01*
%TO.C,R2*%
X175448748Y-185667116D02*
X174813748Y-185667116D01*
X174813748Y-183127116D02*
X176083748Y-183127116D01*
X176083748Y-185667116D02*
X175448748Y-185667116D01*
X174813748Y-185667116D02*
X174813748Y-183127116D01*
X176083748Y-183127116D02*
X176083748Y-185667116D01*
%TO.C,C19*%
X83758748Y-134022116D02*
X83123748Y-134022116D01*
X83123748Y-134022116D02*
X82488748Y-134022116D01*
X82488748Y-134022116D02*
X82488748Y-131482116D01*
X83758748Y-131482116D02*
X83758748Y-134022116D01*
X82488748Y-131482116D02*
X83758748Y-131482116D01*
%TO.C,PZ1*%
X187238748Y-166482116D02*
X187238748Y-181482116D01*
X173738748Y-168482116D02*
X173738748Y-166482116D01*
X187238748Y-181482116D02*
X173738748Y-181482116D01*
X173738748Y-181482116D02*
X173738748Y-168482116D01*
X173738748Y-166482116D02*
X187238748Y-166482116D01*
%TO.C,Q1*%
X179533748Y-185342116D02*
X179533748Y-184707116D01*
X179533748Y-187882116D02*
X179533748Y-187247116D01*
X180803748Y-185342116D02*
X179533748Y-185342116D01*
X176993748Y-184072116D02*
X176993748Y-187882116D01*
X176993748Y-187882116D02*
X179533748Y-187882116D01*
X179533748Y-184707116D02*
X179533748Y-184072116D01*
X179533748Y-186612116D02*
X179533748Y-187247116D01*
X180803748Y-185342116D02*
X180803748Y-186612116D01*
X179533748Y-184072116D02*
X176993748Y-184072116D01*
X180803748Y-186612116D02*
X179533748Y-186612116D01*
%TO.C,U5*%
X165541248Y-165914616D02*
X169351248Y-165914616D01*
X165541248Y-169089616D02*
X165541248Y-165914616D01*
X169351248Y-165914616D02*
X169351248Y-169089616D01*
X165541248Y-165914616D02*
X166176248Y-165914616D01*
X169351248Y-169089616D02*
X165541248Y-169089616D01*
D18*
X167036248Y-166609616D02*
G75*
G03*
X167036248Y-166609616I-80000J0D01*
G01*
X165226248Y-166609616D02*
G75*
G03*
X165226248Y-166609616I-80000J0D01*
G01*
D13*
%TO.C,U4*%
X166048748Y-147092116D02*
X174548748Y-147092116D01*
X165548748Y-155092116D02*
X165548748Y-147632116D01*
X165548748Y-147632116D02*
X166048748Y-147092116D01*
X174548748Y-147092116D02*
X174548748Y-155092116D01*
X174548748Y-155092116D02*
X165548748Y-155092116D01*
%TO.C,R6*%
X87553748Y-132727116D02*
X87553748Y-133362116D01*
X85013748Y-132727116D02*
X87553748Y-132727116D01*
X87553748Y-133362116D02*
X87553748Y-133997116D01*
X87553748Y-133997116D02*
X85013748Y-133997116D01*
X85013748Y-133997116D02*
X85013748Y-132727116D01*
%TO.C,J1*%
X178953748Y-109097116D02*
X177683748Y-109097116D01*
X177683748Y-101477116D02*
X180223748Y-101477116D01*
X177683748Y-109097116D02*
X177683748Y-101477116D01*
X180223748Y-109097116D02*
X178953748Y-109097116D01*
X180223748Y-101477116D02*
X180223748Y-109097116D01*
%TO.C,C30*%
X171228748Y-163154273D02*
X170593748Y-163154273D01*
X170593748Y-163154273D02*
X170593748Y-160614273D01*
X171863748Y-163154273D02*
X171228748Y-163154273D01*
X171863748Y-160614273D02*
X171863748Y-163154273D01*
X170593748Y-160614273D02*
X171863748Y-160614273D01*
%TO.C,C20*%
X144870000Y-142340000D02*
X142330000Y-142340000D01*
X142330000Y-141705000D02*
X142330000Y-141070000D01*
X142330000Y-141070000D02*
X144870000Y-141070000D01*
X144870000Y-141070000D02*
X144870000Y-142340000D01*
X142330000Y-142340000D02*
X142330000Y-141705000D01*
%TO.C,C6*%
X164373748Y-114672116D02*
X164373748Y-115307116D01*
X161833748Y-115307116D02*
X161833748Y-114037116D01*
X164373748Y-114037116D02*
X164373748Y-114672116D01*
X164373748Y-115307116D02*
X161833748Y-115307116D01*
X161833748Y-114037116D02*
X164373748Y-114037116D01*
%TO.C,CON2*%
X142480000Y-124960000D02*
X142480000Y-125595000D01*
X141845000Y-124960000D02*
X142480000Y-124960000D01*
%TO.C,U2*%
X149192748Y-110552116D02*
X149192748Y-100392116D01*
X161384748Y-102932116D02*
X161384748Y-110552116D01*
X161384748Y-110552116D02*
X149192748Y-110552116D01*
X161384748Y-102932116D02*
X159138748Y-100407116D01*
X149192748Y-100392116D02*
X161384748Y-100392116D01*
X161384748Y-100392116D02*
X161384748Y-102932116D01*
%TO.C,R5*%
X153048748Y-173082116D02*
X153683748Y-173082116D01*
X154318748Y-175622116D02*
X153048748Y-175622116D01*
X153048748Y-175622116D02*
X153048748Y-173082116D01*
X154318748Y-173082116D02*
X154318748Y-175622116D01*
X153683748Y-173082116D02*
X154318748Y-173082116D01*
%TO.C,C1*%
X157778748Y-113162116D02*
X155238748Y-113162116D01*
X155238748Y-113162116D02*
X155238748Y-111892116D01*
X157778748Y-112527116D02*
X157778748Y-113162116D01*
X157778748Y-111892116D02*
X157778748Y-112527116D01*
X155238748Y-111892116D02*
X157778748Y-111892116D01*
%TO.C,C25*%
X87545000Y-167115000D02*
X85005000Y-167115000D01*
X87545000Y-166480000D02*
X87545000Y-167115000D01*
X87545000Y-165845000D02*
X87545000Y-166480000D01*
X85005000Y-167115000D02*
X85005000Y-165845000D01*
X85005000Y-165845000D02*
X87545000Y-165845000D01*
%TO.C,C24*%
X83955000Y-160530000D02*
X83320000Y-160530000D01*
X84590000Y-160530000D02*
X83955000Y-160530000D01*
X83320000Y-157990000D02*
X84590000Y-157990000D01*
X84590000Y-157990000D02*
X84590000Y-160530000D01*
X83320000Y-160530000D02*
X83320000Y-157990000D01*
%TO.C,C2*%
X155195000Y-114405000D02*
X157735000Y-114405000D01*
X157735000Y-115040000D02*
X157735000Y-115675000D01*
X155195000Y-115675000D02*
X155195000Y-114405000D01*
X157735000Y-114405000D02*
X157735000Y-115040000D01*
X157735000Y-115675000D02*
X155195000Y-115675000D01*
D15*
%TO.C,U1*%
X171533748Y-112392116D02*
X171533748Y-116292116D01*
D13*
X166308748Y-118062116D02*
X166318748Y-110642116D01*
X171698748Y-118052116D02*
X166308748Y-118062116D01*
D15*
X166483748Y-112392116D02*
X166483748Y-116292116D01*
D13*
X171708748Y-110632116D02*
X171698748Y-118052116D01*
X166318748Y-110642116D02*
X171708748Y-110632116D01*
D16*
X171413748Y-110302116D02*
G75*
G03*
X171413748Y-110302116I-100000J0D01*
G01*
D13*
%TO.C,C12*%
X86583748Y-124452116D02*
X86583748Y-123817116D01*
X86583748Y-125087116D02*
X86583748Y-124452116D01*
X89123748Y-125087116D02*
X86583748Y-125087116D01*
X86583748Y-123817116D02*
X89123748Y-123817116D01*
X89123748Y-123817116D02*
X89123748Y-125087116D01*
%TO.C,R4*%
X158058748Y-169032116D02*
X158693748Y-169032116D01*
X158693748Y-169032116D02*
X159328748Y-169032116D01*
X158058748Y-171572116D02*
X158058748Y-169032116D01*
X159328748Y-171572116D02*
X158058748Y-171572116D01*
X159328748Y-169032116D02*
X159328748Y-171572116D01*
%TO.C,AE3*%
X76882000Y-161518000D02*
X76882000Y-160818000D01*
X79782000Y-164618000D02*
X79582000Y-164618000D01*
X75982000Y-162318000D02*
X76682000Y-162318000D01*
X79882000Y-163818000D02*
X79782000Y-163918000D01*
X76682000Y-162318000D02*
X76682000Y-161518000D01*
X79782000Y-162318000D02*
X80482000Y-162318000D01*
X79582000Y-165318000D02*
X76882000Y-165318000D01*
X79582000Y-160818000D02*
X79582000Y-161518000D01*
X76882000Y-164618000D02*
X76682000Y-164618000D01*
X79582000Y-164618000D02*
X79582000Y-165318000D01*
X80482000Y-162318000D02*
X80482000Y-163818000D01*
X76682000Y-164618000D02*
X76682000Y-163818000D01*
X76882000Y-160818000D02*
X79582000Y-160818000D01*
X76682000Y-161518000D02*
X76882000Y-161518000D01*
X76882000Y-165318000D02*
X76882000Y-164618000D01*
X79782000Y-163918000D02*
X79782000Y-164618000D01*
X79782000Y-161518000D02*
X79782000Y-162318000D01*
X75982000Y-163818000D02*
X75982000Y-162318000D01*
X79582000Y-161518000D02*
X79782000Y-161518000D01*
X80482000Y-163818000D02*
X79882000Y-163818000D01*
X76682000Y-163818000D02*
X75982000Y-163818000D01*
D19*
X78868155Y-163068000D02*
G75*
G03*
X78868155Y-163068000I-236155J0D01*
G01*
D13*
%TO.C,TP4*%
X103018748Y-146152116D02*
G75*
G03*
X103018748Y-146152116I-1750000J0D01*
G01*
%TO.C,TP3*%
X115768748Y-146352116D02*
G75*
G03*
X115768748Y-146352116I-1750000J0D01*
G01*
%TO.C,C28*%
X168558748Y-163197116D02*
X167923748Y-163197116D01*
X169193748Y-160657116D02*
X169193748Y-163197116D01*
X167923748Y-163197116D02*
X167923748Y-160657116D01*
X167923748Y-160657116D02*
X169193748Y-160657116D01*
X169193748Y-163197116D02*
X168558748Y-163197116D01*
%TO.C,C9*%
X84188748Y-100252116D02*
X84188748Y-100887116D01*
X81648748Y-101522116D02*
X81648748Y-100252116D01*
X84188748Y-101522116D02*
X81648748Y-101522116D01*
X84188748Y-100887116D02*
X84188748Y-101522116D01*
X81648748Y-100252116D02*
X84188748Y-100252116D01*
%TO.C,C16*%
X90003748Y-133987116D02*
X89368748Y-133987116D01*
X88733748Y-131447116D02*
X90003748Y-131447116D01*
X90003748Y-131447116D02*
X90003748Y-133987116D01*
X88733748Y-133987116D02*
X88733748Y-131447116D01*
X89368748Y-133987116D02*
X88733748Y-133987116D01*
%TO.C,Y2*%
X148760000Y-132380000D02*
G75*
G03*
X148760000Y-132380000I-2000000J0D01*
G01*
X145660000Y-133480000D02*
G75*
G03*
X145660000Y-133480000I0J0D01*
G01*
%TO.C,TP5*%
X94768748Y-146202116D02*
G75*
G03*
X94768748Y-146202116I-1750000J0D01*
G01*
%TO.C,CON1*%
X93373748Y-122822116D02*
X92738748Y-122822116D01*
X92738748Y-122822116D02*
X92738748Y-122187116D01*
%TO.C,C13*%
X99043748Y-140707116D02*
X98408748Y-140707116D01*
X97773748Y-140707116D02*
X97773748Y-138167116D01*
X97773748Y-138167116D02*
X99043748Y-138167116D01*
X98408748Y-140707116D02*
X97773748Y-140707116D01*
X99043748Y-138167116D02*
X99043748Y-140707116D01*
%TO.C,C8*%
X100118748Y-95322116D02*
X102658748Y-95322116D01*
X102658748Y-95957116D02*
X102658748Y-96592116D01*
X102658748Y-96592116D02*
X100118748Y-96592116D01*
X102658748Y-95322116D02*
X102658748Y-95957116D01*
X100118748Y-96592116D02*
X100118748Y-95322116D01*
%TO.C,C33*%
X147735000Y-129060000D02*
X147735000Y-128425000D01*
X147735000Y-128425000D02*
X150275000Y-128425000D01*
X150275000Y-128425000D02*
X150275000Y-129695000D01*
X147735000Y-129695000D02*
X147735000Y-129060000D01*
X150275000Y-129695000D02*
X147735000Y-129695000D01*
%TO.C,C23*%
X87380000Y-163485000D02*
X86745000Y-163485000D01*
X86745000Y-163485000D02*
X86745000Y-160945000D01*
X88015000Y-160945000D02*
X88015000Y-163485000D01*
X88015000Y-163485000D02*
X87380000Y-163485000D01*
X86745000Y-160945000D02*
X88015000Y-160945000D01*
%TO.C,R7*%
X99825000Y-149395000D02*
X99825000Y-150665000D01*
X97285000Y-150665000D02*
X97285000Y-150030000D01*
X99825000Y-150665000D02*
X97285000Y-150665000D01*
X97285000Y-149395000D02*
X99825000Y-149395000D01*
X97285000Y-150030000D02*
X97285000Y-149395000D01*
%TO.C,R3*%
X164288748Y-149212116D02*
X161748748Y-149212116D01*
X164288748Y-147942116D02*
X164288748Y-149212116D01*
X161748748Y-149212116D02*
X161748748Y-148577116D01*
X161748748Y-147942116D02*
X164288748Y-147942116D01*
X161748748Y-148577116D02*
X161748748Y-147942116D01*
%TO.C,C17*%
X88968748Y-140452116D02*
X88968748Y-141087116D01*
X86428748Y-140452116D02*
X88968748Y-140452116D01*
X86428748Y-141722116D02*
X86428748Y-140452116D01*
X88968748Y-141087116D02*
X88968748Y-141722116D01*
X88968748Y-141722116D02*
X86428748Y-141722116D01*
%TO.C,C29*%
X156860905Y-179977116D02*
X159400905Y-179977116D01*
X159400905Y-179977116D02*
X159400905Y-180612116D01*
X159400905Y-181247116D02*
X156860905Y-181247116D01*
X159400905Y-180612116D02*
X159400905Y-181247116D01*
X156860905Y-181247116D02*
X156860905Y-179977116D01*
%TO.C,TP1*%
X86840000Y-146890000D02*
G75*
G03*
X86840000Y-146890000I-1750000J0D01*
G01*
%TO.C,C14*%
X82585000Y-135525000D02*
X83855000Y-135525000D01*
X82585000Y-138065000D02*
X82585000Y-135525000D01*
X83220000Y-138065000D02*
X82585000Y-138065000D01*
X83855000Y-135525000D02*
X83855000Y-138065000D01*
X83855000Y-138065000D02*
X83220000Y-138065000D01*
%TO.C,R1*%
X171225812Y-101182116D02*
X166871684Y-101182116D01*
X171225812Y-104602116D02*
X166871684Y-104602116D01*
%TO.C,AE1*%
X79568748Y-99422116D02*
X79568748Y-100222116D01*
X76468748Y-99422116D02*
X76668748Y-99422116D01*
X79568748Y-102522116D02*
X79368748Y-102522116D01*
X76468748Y-102522116D02*
X76468748Y-101722116D01*
X76468748Y-101722116D02*
X75768748Y-101722116D01*
X79368748Y-98722116D02*
X79368748Y-99422116D01*
X76668748Y-98722116D02*
X79368748Y-98722116D01*
X79368748Y-102522116D02*
X79368748Y-103222116D01*
X75768748Y-101722116D02*
X75768748Y-100222116D01*
X75768748Y-100222116D02*
X76468748Y-100222116D01*
X76668748Y-99422116D02*
X76668748Y-98722116D01*
X76468748Y-100222116D02*
X76468748Y-99422116D01*
X79568748Y-100222116D02*
X80268748Y-100222116D01*
X80268748Y-101722116D02*
X79668748Y-101722116D01*
X79568748Y-101822116D02*
X79568748Y-102522116D01*
X80268748Y-100222116D02*
X80268748Y-101722116D01*
X79668748Y-101722116D02*
X79568748Y-101822116D01*
X76668748Y-103222116D02*
X76668748Y-102522116D01*
X76668748Y-102522116D02*
X76468748Y-102522116D01*
X79368748Y-103222116D02*
X76668748Y-103222116D01*
X79368748Y-99422116D02*
X79568748Y-99422116D01*
D19*
X78654903Y-100972116D02*
G75*
G03*
X78654903Y-100972116I-236155J0D01*
G01*
D20*
%TO.C,BT1*%
X112098748Y-86737116D02*
X129098748Y-86737116D01*
X129098748Y-101807116D02*
X129098748Y-96772116D01*
X112098748Y-96772116D02*
X112098748Y-101807116D01*
X112098748Y-101807116D02*
X129098748Y-101807116D01*
X129098748Y-86737116D02*
X129098748Y-91772116D01*
X112098748Y-91772116D02*
X112098748Y-86737116D01*
D13*
%TO.C,MOD2*%
X103097344Y-109022116D02*
X103117344Y-98912116D01*
X92407344Y-109002116D02*
X92407344Y-109262116D01*
X102607344Y-98912116D02*
X102607344Y-98662116D01*
X91907344Y-98922116D02*
X91907344Y-109002116D01*
X102617344Y-109262116D02*
X102617344Y-109022116D01*
X103117344Y-98912116D02*
X102607344Y-98912116D01*
X97197344Y-98662116D02*
X92407344Y-98662116D01*
X92407344Y-98922116D02*
X91907344Y-98922116D01*
X102607344Y-98662116D02*
X97197344Y-98662116D01*
X92407344Y-98662116D02*
X92407344Y-98922116D01*
X92407344Y-109262116D02*
X102617344Y-109262116D01*
X102617344Y-109022116D02*
X103097344Y-109022116D01*
X91907344Y-109002116D02*
X92407344Y-109002116D01*
D21*
X104028748Y-108412116D02*
G75*
G03*
X104028748Y-108412116I-121404J0D01*
G01*
X100838748Y-108302116D02*
G75*
G03*
X100838748Y-108302116I-121404J0D01*
G01*
D13*
%TO.C,AE2*%
X75968748Y-134252116D02*
X75968748Y-132752116D01*
X76868748Y-131952116D02*
X76868748Y-131252116D01*
X76668748Y-131952116D02*
X76868748Y-131952116D01*
X80468748Y-132752116D02*
X80468748Y-134252116D01*
X76868748Y-135052116D02*
X76668748Y-135052116D01*
X79868748Y-134252116D02*
X79768748Y-134352116D01*
X76868748Y-131252116D02*
X79568748Y-131252116D01*
X79568748Y-135052116D02*
X79568748Y-135752116D01*
X79768748Y-131952116D02*
X79768748Y-132752116D01*
X76868748Y-135752116D02*
X76868748Y-135052116D01*
X80468748Y-134252116D02*
X79868748Y-134252116D01*
X76668748Y-135052116D02*
X76668748Y-134252116D01*
X79768748Y-135052116D02*
X79568748Y-135052116D01*
X76668748Y-134252116D02*
X75968748Y-134252116D01*
X79568748Y-131252116D02*
X79568748Y-131952116D01*
X79568748Y-131952116D02*
X79768748Y-131952116D01*
X79768748Y-132752116D02*
X80468748Y-132752116D01*
X76668748Y-132752116D02*
X76668748Y-131952116D01*
X79768748Y-134352116D02*
X79768748Y-135052116D01*
X75968748Y-132752116D02*
X76668748Y-132752116D01*
X79568748Y-135752116D02*
X76868748Y-135752116D01*
D19*
X78854903Y-133502116D02*
G75*
G03*
X78854903Y-133502116I-236155J0D01*
G01*
D13*
%TO.C,C3*%
X152763748Y-112017116D02*
X152763748Y-113287116D01*
X150223748Y-112652116D02*
X150223748Y-112017116D01*
X150223748Y-112017116D02*
X152763748Y-112017116D01*
X150223748Y-113287116D02*
X150223748Y-112652116D01*
X152763748Y-113287116D02*
X150223748Y-113287116D01*
%TD*%
M02*
