M48
; DRILL file {KiCad (5.99.0-10117-g2c3ee0d85f)} date Wed Apr 28 15:41:36 2021
; FORMAT={2:4/ absolute / inch / suppress leading zeros}
; #@! TF.CreationDate,2021-04-28T15:41:36+02:00
; #@! TF.GenerationSoftware,Kicad,Pcbnew,(5.99.0-10117-g2c3ee0d85f)
; #@! TF.FileFunction,Plated,1,2,PTH
FMAT,2
INCH,TZ
; #@! TA.AperFunction,Plated,PTH,ViaDrill
T1C0.0098
; #@! TA.AperFunction,Plated,PTH,ComponentDrill
T2C0.0402
; #@! TA.AperFunction,Plated,PTH,ComponentDrill
T3C0.0472
; #@! TA.AperFunction,Plated,PTH,ComponentDrill
T4C0.0531
; #@! TA.AperFunction,Plated,PTH,ComponentDrill
T5C0.0551
%
G90
G05
T1
X39390Y-36811
X41921Y-55224
X42028Y-44201
X43157Y-36626
X44740Y-36287
X44937Y-37512
X46476Y-39646
X46693Y-28358
X47287Y-31732
X47843Y-47335
X47894Y-29461
X48331Y-51283
X50358Y-45008
X50598Y-52874
X50689Y-48169
X50831Y-53984
X51193Y-51232
X51547Y-49071
X51984Y-44201
X51984Y-50354
X52106Y-53409
X52181Y-53843
X52248Y-54264
X52886Y-46949
X52992Y-44217
X53122Y-48669
X53213Y-43693
X53524Y-46949
X53622Y-37402
X53642Y-33957
X54193Y-33760
X54843Y-35984
X55047Y-46051
X56083Y-34331
X56506Y-34616
X57252Y-54130
X58571Y-60402
X58689Y-45870
X58713Y-41677
X60193Y-48646
X60728Y-58756
X61083Y-41516
X61173Y-55461
X61354Y-50299
X63248Y-37323
X63461Y-40220
X63882Y-41409
X63935Y-46455
X64094Y-37264
X64323Y-40445
X64327Y-41693
X64350Y-38406
X64913Y-29744
X65008Y-40398
X65098Y-41587
X65846Y-40331
X65898Y-42071
X66701Y-39248
X66728Y-42614
X69035Y-41594
X71004Y-53248
X71406Y-44992
X71807Y-45748
X71870Y-37783
X72307Y-37953
X72539Y-34217
X72606Y-41295
X73232Y-41272
X73366Y-50713
X73772Y-43035
X73917Y-59724
X74024Y-40807
X74461Y-41752
X74531Y-45602
X74803Y-44874
X75303Y-49992
X75343Y-43051
X75374Y-57047
X75472Y-49177
X75591Y-52280
X75886Y-54843
X75890Y-51634
X75953Y-46189
X76890Y-44504
X76906Y-39488
T2
X46441Y-36622
X47441Y-36622
X51539Y-27894
X52539Y-27894
X53539Y-27894
X55524Y-32283
X56524Y-32283
X57228Y-42606
X57228Y-43606
X57228Y-44606
X57228Y-45606
X57228Y-46606
X62665Y-36240
X63665Y-36240
X64665Y-36240
X65665Y-36240
X66665Y-36240
X76846Y-27634
X76846Y-28634
X76846Y-29634
X76846Y-30634
X76846Y-31634
T3
X51626Y-59331
T4
X50602Y-58346
X50602Y-60354
X52610Y-58346
X52610Y-60354
T5
X42565Y-27907
X42565Y-29876
X64219Y-26053
X66187Y-26053
T0
M30
