%TF.GenerationSoftware,KiCad,Pcbnew,(5.99.0-10117-g2c3ee0d85f)*%
%TF.CreationDate,2021-04-28T15:41:31+02:00*%
%TF.ProjectId,som asset tracker,736f6d20-6173-4736-9574-20747261636b,rev?*%
%TF.SameCoordinates,Original*%
%TF.FileFunction,Soldermask,Top*%
%TF.FilePolarity,Negative*%
%FSLAX46Y46*%
G04 Gerber Fmt 4.6, Leading zero omitted, Abs format (unit mm)*
G04 Created by KiCad (PCBNEW (5.99.0-10117-g2c3ee0d85f)) date 2021-04-28 15:41:31*
%MOMM*%
%LPD*%
G01*
G04 APERTURE LIST*
G04 Aperture macros list*
%AMRoundRect*
0 Rectangle with rounded corners*
0 $1 Rounding radius*
0 $2 $3 $4 $5 $6 $7 $8 $9 X,Y pos of 4 corners*
0 Add a 4 corners polygon primitive as box body*
4,1,4,$2,$3,$4,$5,$6,$7,$8,$9,$2,$3,0*
0 Add four circle primitives for the rounded corners*
1,1,$1+$1,$2,$3*
1,1,$1+$1,$4,$5*
1,1,$1+$1,$6,$7*
1,1,$1+$1,$8,$9*
0 Add four rect primitives between the rounded corners*
20,1,$1+$1,$2,$3,$4,$5,0*
20,1,$1+$1,$4,$5,$6,$7,0*
20,1,$1+$1,$6,$7,$8,$9,0*
20,1,$1+$1,$8,$9,$2,$3,0*%
%AMOutline5P*
0 Free polygon, 5 corners , with rotation*
0 The origin of the aperture is its center*
0 number of corners: always 8*
0 $1 to $10 corner X, Y*
0 $11 Rotation angle, in degrees counterclockwise*
0 create outline with 8 corners*
4,1,5,$1,$2,$3,$4,$5,$6,$7,$8,$9,$10,$1,$2,$11*%
%AMOutline6P*
0 Free polygon, 6 corners , with rotation*
0 The origin of the aperture is its center*
0 number of corners: always 6*
0 $1 to $12 corner X, Y*
0 $13 Rotation angle, in degrees counterclockwise*
0 create outline with 6 corners*
4,1,6,$1,$2,$3,$4,$5,$6,$7,$8,$9,$10,$11,$12,$1,$2,$13*%
%AMOutline7P*
0 Free polygon, 7 corners , with rotation*
0 The origin of the aperture is its center*
0 number of corners: always 7*
0 $1 to $14 corner X, Y*
0 $15 Rotation angle, in degrees counterclockwise*
0 create outline with 7 corners*
4,1,7,$1,$2,$3,$4,$5,$6,$7,$8,$9,$10,$11,$12,$13,$14,$1,$2,$15*%
%AMOutline8P*
0 Free polygon, 8 corners , with rotation*
0 The origin of the aperture is its center*
0 number of corners: always 8*
0 $1 to $16 corner X, Y*
0 $17 Rotation angle, in degrees counterclockwise*
0 create outline with 8 corners*
4,1,8,$1,$2,$3,$4,$5,$6,$7,$8,$9,$10,$11,$12,$13,$14,$15,$16,$1,$2,$17*%
G04 Aperture macros list end*
%ADD10R,0.300000X0.800000*%
%ADD11R,0.800000X0.300000*%
%ADD12RoundRect,0.250000X-0.300000X0.250000X-0.300000X-0.250000X0.300000X-0.250000X0.300000X0.250000X0*%
%ADD13R,0.325000X0.250000*%
%ADD14RoundRect,0.250000X-0.250000X-0.300000X0.250000X-0.300000X0.250000X0.300000X-0.250000X0.300000X0*%
%ADD15R,0.600000X1.970000*%
%ADD16R,2.000000X2.000000*%
%ADD17C,2.000000*%
%ADD18RoundRect,0.250000X0.300000X-0.250000X0.300000X0.250000X-0.300000X0.250000X-0.300000X-0.250000X0*%
%ADD19RoundRect,0.250000X0.250000X0.300000X-0.250000X0.300000X-0.250000X-0.300000X0.250000X-0.300000X0*%
%ADD20R,1.399540X0.998220*%
%ADD21R,1.000000X3.500000*%
%ADD22R,1.500000X3.400000*%
%ADD23R,3.180000X3.180000*%
%ADD24R,3.960000X3.960000*%
%ADD25R,2.500000X1.400000*%
%ADD26R,1.400000X2.500000*%
%ADD27R,1.000000X1.000000*%
%ADD28C,1.500000*%
%ADD29RoundRect,0.212500X-0.400000X-0.212500X0.400000X-0.212500X0.400000X0.212500X-0.400000X0.212500X0*%
%ADD30R,2.310000X4.220000*%
%ADD31RoundRect,0.212500X0.400000X0.212500X-0.400000X0.212500X-0.400000X-0.212500X0.400000X-0.212500X0*%
%ADD32C,1.700000*%
%ADD33RoundRect,0.137500X-0.262500X0.137500X-0.262500X-0.137500X0.262500X-0.137500X0.262500X0.137500X0*%
%ADD34R,0.800000X0.550000*%
%ADD35R,0.250000X0.250000*%
%ADD36Outline5P,0.400000X0.700000X0.400000X-0.700000X-0.400000X-0.700000X-0.400000X0.540000X-0.240000X0.700000X0.000000*%
%ADD37R,0.800000X1.400000*%
%ADD38R,2.790000X0.740000*%
%ADD39RoundRect,0.249999X-0.450001X-1.425001X0.450001X-1.425001X0.450001X1.425001X-0.450001X1.425001X0*%
%ADD40R,0.900000X1.600000*%
G04 APERTURE END LIST*
D10*
%TO.C,U7*%
X136650000Y-90475000D03*
X137150000Y-90475000D03*
X137650000Y-90475000D03*
X138150000Y-90475000D03*
X138650000Y-90475000D03*
D11*
X138925000Y-89700000D03*
X138925000Y-89200000D03*
X138925000Y-88700000D03*
D10*
X138650000Y-87925000D03*
X138150000Y-87925000D03*
X137650000Y-87925000D03*
X137150000Y-87925000D03*
X136650000Y-87925000D03*
D11*
X136375000Y-88700000D03*
X136375000Y-89200000D03*
X136375000Y-89700000D03*
%TD*%
D12*
%TO.C,C12*%
X103650000Y-92310000D03*
X102380000Y-92310000D03*
%TD*%
D13*
%TO.C,Z1*%
X130830000Y-134760000D03*
X130542500Y-134260000D03*
X130542500Y-133760000D03*
X131117500Y-133760000D03*
X131117500Y-134260000D03*
%TD*%
D14*
%TO.C,C10*%
X130975000Y-143105000D03*
X130975000Y-144375000D03*
%TD*%
D15*
%TO.C,U1*%
X122005000Y-78430000D03*
X120735000Y-78430000D03*
X119465000Y-78430000D03*
X118195000Y-78430000D03*
X118195000Y-83370000D03*
X119465000Y-83370000D03*
X120735000Y-83370000D03*
X122005000Y-83370000D03*
%TD*%
D16*
%TO.C,J2*%
X168115000Y-66175000D03*
D17*
X163115000Y-66175000D03*
%TD*%
D18*
%TO.C,R1*%
X190280000Y-95450000D03*
X191550000Y-95450000D03*
%TD*%
D19*
%TO.C,R10*%
X162250000Y-82320000D03*
X162250000Y-81050000D03*
%TD*%
D20*
%TO.C,Q1*%
X182709640Y-77179960D03*
X182709640Y-75280040D03*
X180510000Y-76230000D03*
%TD*%
D12*
%TO.C,R4*%
X154500000Y-136910000D03*
X153230000Y-136910000D03*
%TD*%
D21*
%TO.C,BT2*%
X146840000Y-147570000D03*
X148840000Y-147570000D03*
D22*
X144490000Y-153120000D03*
X151190000Y-153120000D03*
%TD*%
D23*
%TO.C,BT3*%
X106550000Y-102120000D03*
X106550000Y-122160000D03*
D24*
X106550000Y-112140000D03*
%TD*%
D12*
%TO.C,C11*%
X103650000Y-94700000D03*
X102380000Y-94700000D03*
%TD*%
D25*
%TO.C,mod1*%
X159372000Y-152845000D03*
X159372000Y-150845000D03*
X159372000Y-148845000D03*
X159372000Y-146845000D03*
X159372000Y-144845000D03*
X159372000Y-142845000D03*
X159372000Y-140845000D03*
X159372000Y-138845000D03*
X159372000Y-136845000D03*
X159372000Y-134845000D03*
X159372000Y-132845000D03*
X159372000Y-130845000D03*
X159372000Y-128845000D03*
X159372000Y-126845000D03*
X159372000Y-124845000D03*
X159372000Y-122845000D03*
X159372000Y-120845000D03*
X159372000Y-118845000D03*
X159372000Y-116845000D03*
X159372000Y-114845000D03*
D26*
X161380000Y-111837000D03*
X163380000Y-111837000D03*
X165380000Y-111837000D03*
X167380000Y-111837000D03*
X169380000Y-111837000D03*
X171380000Y-111837000D03*
X173380000Y-111837000D03*
X175380000Y-111837000D03*
X177380000Y-111837000D03*
X179380000Y-111837000D03*
X181380000Y-111837000D03*
X183380000Y-111837000D03*
X185380000Y-111837000D03*
X187380000Y-111837000D03*
X189380000Y-111837000D03*
X191380000Y-111837000D03*
X193380000Y-111837000D03*
D25*
X195388000Y-114845000D03*
X195388000Y-116845000D03*
X195388000Y-118845000D03*
X195388000Y-120845000D03*
X195388000Y-122845000D03*
X195388000Y-124845000D03*
X195388000Y-126845000D03*
X195388000Y-128845000D03*
X195388000Y-130845000D03*
X195388000Y-132845000D03*
X195388000Y-134845000D03*
X195388000Y-136845000D03*
X195388000Y-138845000D03*
X195388000Y-140845000D03*
X195388000Y-142845000D03*
X195388000Y-144845000D03*
X195388000Y-146845000D03*
X195388000Y-148845000D03*
X195388000Y-150845000D03*
X195388000Y-152845000D03*
D16*
X191380000Y-151845000D03*
X191380000Y-115845000D03*
X163380000Y-115845000D03*
D27*
X183380000Y-125845000D03*
X185380000Y-125845000D03*
X187380000Y-125845000D03*
%TD*%
D28*
%TO.C,U2*%
X130910000Y-70850000D03*
X133450000Y-70850000D03*
X135990000Y-70850000D03*
%TD*%
D18*
%TO.C,R9*%
X185789640Y-77199960D03*
X187059640Y-77199960D03*
%TD*%
D12*
%TO.C,C3*%
X136070000Y-78420000D03*
X134800000Y-78420000D03*
%TD*%
D28*
%TO.C,J5*%
X159170000Y-92050000D03*
X161710000Y-92050000D03*
X164250000Y-92050000D03*
X166790000Y-92050000D03*
X169330000Y-92050000D03*
%TD*%
D12*
%TO.C,C4*%
X136095000Y-75535000D03*
X134825000Y-75535000D03*
%TD*%
%TO.C,C7*%
X125240000Y-117405000D03*
X123970000Y-117405000D03*
%TD*%
D29*
%TO.C,D4*%
X147880000Y-136910000D03*
X149505000Y-136910000D03*
%TD*%
D18*
%TO.C,C2*%
X130420000Y-78390000D03*
X131690000Y-78390000D03*
%TD*%
%TO.C,R2*%
X190290000Y-91040000D03*
X191560000Y-91040000D03*
%TD*%
D12*
%TO.C,C8*%
X125120000Y-120270000D03*
X123850000Y-120270000D03*
%TD*%
D18*
%TO.C,R12*%
X116820000Y-86820000D03*
X118090000Y-86820000D03*
%TD*%
D16*
%TO.C,J1*%
X108115000Y-75885000D03*
D17*
X108115000Y-70885000D03*
%TD*%
D14*
%TO.C,L1*%
X130855000Y-138725000D03*
X130855000Y-139995000D03*
%TD*%
D28*
%TO.C,J3*%
X195190000Y-80350000D03*
X195190000Y-77810000D03*
X195190000Y-75270000D03*
X195190000Y-72730000D03*
X195190000Y-70190000D03*
%TD*%
D30*
%TO.C,PZ1*%
X182670000Y-70205000D03*
X182670000Y-60115000D03*
%TD*%
D18*
%TO.C,R3*%
X190260000Y-86470000D03*
X191530000Y-86470000D03*
%TD*%
%TO.C,C9*%
X129870000Y-131560000D03*
X131140000Y-131560000D03*
%TD*%
D23*
%TO.C,BT1*%
X106450000Y-150250000D03*
X106450000Y-130210000D03*
D24*
X106450000Y-140230000D03*
%TD*%
D31*
%TO.C,D1*%
X196622500Y-95410000D03*
X194997500Y-95410000D03*
%TD*%
D28*
%TO.C,AE1*%
X131130000Y-150700000D03*
D32*
X133630000Y-148200000D03*
X128530000Y-148200000D03*
X128530000Y-153300000D03*
X133630000Y-153300000D03*
%TD*%
D12*
%TO.C,R11*%
X122060000Y-86840000D03*
X120790000Y-86840000D03*
%TD*%
D33*
%TO.C,U6*%
X108200000Y-94005000D03*
D34*
X108200000Y-93055000D03*
X108200000Y-92105000D03*
X105600000Y-92105000D03*
X105600000Y-94005000D03*
%TD*%
D28*
%TO.C,J7*%
X117960000Y-93020000D03*
X120500000Y-93020000D03*
%TD*%
D35*
%TO.C,U4*%
X131240000Y-136700000D03*
X130840000Y-136700000D03*
X130440000Y-136700000D03*
X130440000Y-137100000D03*
X130840000Y-137100000D03*
X131240000Y-137100000D03*
%TD*%
D18*
%TO.C,R8*%
X134595000Y-137875000D03*
X135865000Y-137875000D03*
%TD*%
D28*
%TO.C,J6*%
X141030000Y-82000000D03*
X143570000Y-82000000D03*
%TD*%
%TO.C,J4*%
X145360000Y-118380000D03*
X145360000Y-115840000D03*
X145360000Y-113300000D03*
X145360000Y-110760000D03*
X145360000Y-108220000D03*
%TD*%
D18*
%TO.C,C1*%
X130505000Y-75605000D03*
X131775000Y-75605000D03*
%TD*%
D36*
%TO.C,U5*%
X162240000Y-77520000D03*
D37*
X164780000Y-77520000D03*
X167320000Y-77520000D03*
X167320000Y-71220000D03*
X164780000Y-71220000D03*
X162240000Y-71220000D03*
%TD*%
D38*
%TO.C,CON1*%
X195375000Y-107340000D03*
X191305000Y-107340000D03*
X195375000Y-106070000D03*
X191305000Y-106070000D03*
X195375000Y-104800000D03*
X191305000Y-104800000D03*
X195375000Y-103530000D03*
X191305000Y-103530000D03*
X195375000Y-102260000D03*
X191305000Y-102260000D03*
%TD*%
D31*
%TO.C,D3*%
X196562500Y-86520000D03*
X194937500Y-86520000D03*
%TD*%
D39*
%TO.C,R7*%
X116930000Y-70880000D03*
X123030000Y-70880000D03*
%TD*%
D31*
%TO.C,D2*%
X196535000Y-91010000D03*
X194910000Y-91010000D03*
%TD*%
D40*
%TO.C,mod2*%
X136440000Y-117010000D03*
X135340000Y-117010000D03*
X134240000Y-117010000D03*
X133140000Y-117010000D03*
X132040000Y-117010000D03*
X130940000Y-117010000D03*
X129840000Y-117010000D03*
X128740000Y-117010000D03*
X127640000Y-117010000D03*
X127640000Y-126210000D03*
X128740000Y-126210000D03*
X129840000Y-126210000D03*
X130940000Y-126210000D03*
X132040000Y-126210000D03*
X133140000Y-126210000D03*
X134240000Y-126210000D03*
X135340000Y-126210000D03*
X136440000Y-126210000D03*
%TD*%
M02*
