%TF.GenerationSoftware,KiCad,Pcbnew,(5.99.0-11575-g46338403e7)*%
%TF.CreationDate,2021-08-13T15:38:51+02:00*%
%TF.ProjectId,voedings switcher,766f6564-696e-4677-9320-737769746368,rev?*%
%TF.SameCoordinates,Original*%
%TF.FileFunction,Legend,Top*%
%TF.FilePolarity,Positive*%
%FSLAX46Y46*%
G04 Gerber Fmt 4.6, Leading zero omitted, Abs format (unit mm)*
G04 Created by KiCad (PCBNEW (5.99.0-11575-g46338403e7)) date 2021-08-13 15:38:51*
%MOMM*%
%LPD*%
G01*
G04 APERTURE LIST*
%ADD10C,0.150000*%
%ADD11C,0.015000*%
%ADD12C,0.120000*%
%ADD13C,0.200000*%
%ADD14C,0.588558*%
%ADD15C,0.127000*%
%ADD16C,0.609608*%
%ADD17R,2.000000X2.000000*%
%ADD18R,1.500000X2.000000*%
G04 APERTURE END LIST*
D10*
%TO.C,C3*%
X176358333Y-94112142D02*
X176310714Y-94159761D01*
X176167857Y-94207380D01*
X176072619Y-94207380D01*
X175929761Y-94159761D01*
X175834523Y-94064523D01*
X175786904Y-93969285D01*
X175739285Y-93778809D01*
X175739285Y-93635952D01*
X175786904Y-93445476D01*
X175834523Y-93350238D01*
X175929761Y-93255000D01*
X176072619Y-93207380D01*
X176167857Y-93207380D01*
X176310714Y-93255000D01*
X176358333Y-93302619D01*
X176691666Y-93207380D02*
X177310714Y-93207380D01*
X176977380Y-93588333D01*
X177120238Y-93588333D01*
X177215476Y-93635952D01*
X177263095Y-93683571D01*
X177310714Y-93778809D01*
X177310714Y-94016904D01*
X177263095Y-94112142D01*
X177215476Y-94159761D01*
X177120238Y-94207380D01*
X176834523Y-94207380D01*
X176739285Y-94159761D01*
X176691666Y-94112142D01*
%TO.C,R5*%
X129468333Y-112437380D02*
X129135000Y-111961190D01*
X128896904Y-112437380D02*
X128896904Y-111437380D01*
X129277857Y-111437380D01*
X129373095Y-111485000D01*
X129420714Y-111532619D01*
X129468333Y-111627857D01*
X129468333Y-111770714D01*
X129420714Y-111865952D01*
X129373095Y-111913571D01*
X129277857Y-111961190D01*
X128896904Y-111961190D01*
X130373095Y-111437380D02*
X129896904Y-111437380D01*
X129849285Y-111913571D01*
X129896904Y-111865952D01*
X129992142Y-111818333D01*
X130230238Y-111818333D01*
X130325476Y-111865952D01*
X130373095Y-111913571D01*
X130420714Y-112008809D01*
X130420714Y-112246904D01*
X130373095Y-112342142D01*
X130325476Y-112389761D01*
X130230238Y-112437380D01*
X129992142Y-112437380D01*
X129896904Y-112389761D01*
X129849285Y-112342142D01*
D11*
%TO.C,C4*%
X181822532Y-77492429D02*
X181747542Y-77567420D01*
X181522570Y-77642410D01*
X181372589Y-77642410D01*
X181147617Y-77567420D01*
X180997636Y-77417439D01*
X180922645Y-77267457D01*
X180847654Y-76967495D01*
X180847654Y-76742523D01*
X180922645Y-76442560D01*
X180997636Y-76292579D01*
X181147617Y-76142598D01*
X181372589Y-76067607D01*
X181522570Y-76067607D01*
X181747542Y-76142598D01*
X181822532Y-76217589D01*
X183172363Y-76592542D02*
X183172363Y-77642410D01*
X182797410Y-75992617D02*
X182422457Y-77117476D01*
X183397335Y-77117476D01*
D10*
%TO.C,CON1*%
X194077142Y-121764285D02*
X194124761Y-121811904D01*
X194172380Y-121954761D01*
X194172380Y-122050000D01*
X194124761Y-122192857D01*
X194029523Y-122288095D01*
X193934285Y-122335714D01*
X193743809Y-122383333D01*
X193600952Y-122383333D01*
X193410476Y-122335714D01*
X193315238Y-122288095D01*
X193220000Y-122192857D01*
X193172380Y-122050000D01*
X193172380Y-121954761D01*
X193220000Y-121811904D01*
X193267619Y-121764285D01*
X193172380Y-121145238D02*
X193172380Y-120954761D01*
X193220000Y-120859523D01*
X193315238Y-120764285D01*
X193505714Y-120716666D01*
X193839047Y-120716666D01*
X194029523Y-120764285D01*
X194124761Y-120859523D01*
X194172380Y-120954761D01*
X194172380Y-121145238D01*
X194124761Y-121240476D01*
X194029523Y-121335714D01*
X193839047Y-121383333D01*
X193505714Y-121383333D01*
X193315238Y-121335714D01*
X193220000Y-121240476D01*
X193172380Y-121145238D01*
X194172380Y-120288095D02*
X193172380Y-120288095D01*
X194172380Y-119716666D01*
X193172380Y-119716666D01*
X194172380Y-118716666D02*
X194172380Y-119288095D01*
X194172380Y-119002380D02*
X193172380Y-119002380D01*
X193315238Y-119097619D01*
X193410476Y-119192857D01*
X193458095Y-119288095D01*
%TO.C,R6*%
X140643333Y-112462380D02*
X140310000Y-111986190D01*
X140071904Y-112462380D02*
X140071904Y-111462380D01*
X140452857Y-111462380D01*
X140548095Y-111510000D01*
X140595714Y-111557619D01*
X140643333Y-111652857D01*
X140643333Y-111795714D01*
X140595714Y-111890952D01*
X140548095Y-111938571D01*
X140452857Y-111986190D01*
X140071904Y-111986190D01*
X141500476Y-111462380D02*
X141310000Y-111462380D01*
X141214761Y-111510000D01*
X141167142Y-111557619D01*
X141071904Y-111700476D01*
X141024285Y-111890952D01*
X141024285Y-112271904D01*
X141071904Y-112367142D01*
X141119523Y-112414761D01*
X141214761Y-112462380D01*
X141405238Y-112462380D01*
X141500476Y-112414761D01*
X141548095Y-112367142D01*
X141595714Y-112271904D01*
X141595714Y-112033809D01*
X141548095Y-111938571D01*
X141500476Y-111890952D01*
X141405238Y-111843333D01*
X141214761Y-111843333D01*
X141119523Y-111890952D01*
X141071904Y-111938571D01*
X141024285Y-112033809D01*
%TO.C,JP1*%
X138921666Y-115897380D02*
X138921666Y-116611666D01*
X138874047Y-116754523D01*
X138778809Y-116849761D01*
X138635952Y-116897380D01*
X138540714Y-116897380D01*
X139397857Y-116897380D02*
X139397857Y-115897380D01*
X139778809Y-115897380D01*
X139874047Y-115945000D01*
X139921666Y-115992619D01*
X139969285Y-116087857D01*
X139969285Y-116230714D01*
X139921666Y-116325952D01*
X139874047Y-116373571D01*
X139778809Y-116421190D01*
X139397857Y-116421190D01*
X140921666Y-116897380D02*
X140350238Y-116897380D01*
X140635952Y-116897380D02*
X140635952Y-115897380D01*
X140540714Y-116040238D01*
X140445476Y-116135476D01*
X140350238Y-116183095D01*
%TO.C,C7*%
X185383333Y-105957142D02*
X185335714Y-106004761D01*
X185192857Y-106052380D01*
X185097619Y-106052380D01*
X184954761Y-106004761D01*
X184859523Y-105909523D01*
X184811904Y-105814285D01*
X184764285Y-105623809D01*
X184764285Y-105480952D01*
X184811904Y-105290476D01*
X184859523Y-105195238D01*
X184954761Y-105100000D01*
X185097619Y-105052380D01*
X185192857Y-105052380D01*
X185335714Y-105100000D01*
X185383333Y-105147619D01*
X185716666Y-105052380D02*
X186383333Y-105052380D01*
X185954761Y-106052380D01*
%TO.C,RV1*%
X134024761Y-116227772D02*
X133691428Y-115751582D01*
X133453333Y-116227772D02*
X133453333Y-115227772D01*
X133834285Y-115227772D01*
X133929523Y-115275392D01*
X133977142Y-115323011D01*
X134024761Y-115418249D01*
X134024761Y-115561106D01*
X133977142Y-115656344D01*
X133929523Y-115703963D01*
X133834285Y-115751582D01*
X133453333Y-115751582D01*
X134310476Y-115227772D02*
X134643809Y-116227772D01*
X134977142Y-115227772D01*
X135834285Y-116227772D02*
X135262857Y-116227772D01*
X135548571Y-116227772D02*
X135548571Y-115227772D01*
X135453333Y-115370630D01*
X135358095Y-115465868D01*
X135262857Y-115513487D01*
%TO.C,D2*%
X179364380Y-98300095D02*
X178364380Y-98300095D01*
X178364380Y-98062000D01*
X178412000Y-97919142D01*
X178507238Y-97823904D01*
X178602476Y-97776285D01*
X178792952Y-97728666D01*
X178935809Y-97728666D01*
X179126285Y-97776285D01*
X179221523Y-97823904D01*
X179316761Y-97919142D01*
X179364380Y-98062000D01*
X179364380Y-98300095D01*
X178459619Y-97347714D02*
X178412000Y-97300095D01*
X178364380Y-97204857D01*
X178364380Y-96966761D01*
X178412000Y-96871523D01*
X178459619Y-96823904D01*
X178554857Y-96776285D01*
X178650095Y-96776285D01*
X178792952Y-96823904D01*
X179364380Y-97395333D01*
X179364380Y-96776285D01*
%TO.C,U3*%
X152241904Y-116247619D02*
X152241904Y-115438095D01*
X152194285Y-115342857D01*
X152146666Y-115295238D01*
X152051428Y-115247619D01*
X151860952Y-115247619D01*
X151765714Y-115295238D01*
X151718095Y-115342857D01*
X151670476Y-115438095D01*
X151670476Y-116247619D01*
X151289523Y-116247619D02*
X150670476Y-116247619D01*
X151003809Y-115866666D01*
X150860952Y-115866666D01*
X150765714Y-115819047D01*
X150718095Y-115771428D01*
X150670476Y-115676190D01*
X150670476Y-115438095D01*
X150718095Y-115342857D01*
X150765714Y-115295238D01*
X150860952Y-115247619D01*
X151146666Y-115247619D01*
X151241904Y-115295238D01*
X151289523Y-115342857D01*
D11*
%TO.C,U4*%
X184960150Y-114965828D02*
X184960150Y-116240669D01*
X185035140Y-116390650D01*
X185110131Y-116465641D01*
X185260112Y-116540631D01*
X185560075Y-116540631D01*
X185710056Y-116465641D01*
X185785046Y-116390650D01*
X185860037Y-116240669D01*
X185860037Y-114965828D01*
X187284859Y-115490763D02*
X187284859Y-116540631D01*
X186909906Y-114890838D02*
X186534953Y-116015697D01*
X187509831Y-116015697D01*
D10*
%TO.C,C2*%
X183788333Y-86902142D02*
X183740714Y-86949761D01*
X183597857Y-86997380D01*
X183502619Y-86997380D01*
X183359761Y-86949761D01*
X183264523Y-86854523D01*
X183216904Y-86759285D01*
X183169285Y-86568809D01*
X183169285Y-86425952D01*
X183216904Y-86235476D01*
X183264523Y-86140238D01*
X183359761Y-86045000D01*
X183502619Y-85997380D01*
X183597857Y-85997380D01*
X183740714Y-86045000D01*
X183788333Y-86092619D01*
X184169285Y-86092619D02*
X184216904Y-86045000D01*
X184312142Y-85997380D01*
X184550238Y-85997380D01*
X184645476Y-86045000D01*
X184693095Y-86092619D01*
X184740714Y-86187857D01*
X184740714Y-86283095D01*
X184693095Y-86425952D01*
X184121666Y-86997380D01*
X184740714Y-86997380D01*
%TO.C,R4*%
X132777380Y-94431666D02*
X132301190Y-94765000D01*
X132777380Y-95003095D02*
X131777380Y-95003095D01*
X131777380Y-94622142D01*
X131825000Y-94526904D01*
X131872619Y-94479285D01*
X131967857Y-94431666D01*
X132110714Y-94431666D01*
X132205952Y-94479285D01*
X132253571Y-94526904D01*
X132301190Y-94622142D01*
X132301190Y-95003095D01*
X132110714Y-93574523D02*
X132777380Y-93574523D01*
X131729761Y-93812619D02*
X132444047Y-94050714D01*
X132444047Y-93431666D01*
%TO.C,J1*%
X205702380Y-109613333D02*
X206416666Y-109613333D01*
X206559523Y-109660952D01*
X206654761Y-109756190D01*
X206702380Y-109899047D01*
X206702380Y-109994285D01*
X206702380Y-108613333D02*
X206702380Y-109184761D01*
X206702380Y-108899047D02*
X205702380Y-108899047D01*
X205845238Y-108994285D01*
X205940476Y-109089523D01*
X205988095Y-109184761D01*
%TO.C,R2*%
X170472380Y-76816666D02*
X169996190Y-77150000D01*
X170472380Y-77388095D02*
X169472380Y-77388095D01*
X169472380Y-77007142D01*
X169520000Y-76911904D01*
X169567619Y-76864285D01*
X169662857Y-76816666D01*
X169805714Y-76816666D01*
X169900952Y-76864285D01*
X169948571Y-76911904D01*
X169996190Y-77007142D01*
X169996190Y-77388095D01*
X169567619Y-76435714D02*
X169520000Y-76388095D01*
X169472380Y-76292857D01*
X169472380Y-76054761D01*
X169520000Y-75959523D01*
X169567619Y-75911904D01*
X169662857Y-75864285D01*
X169758095Y-75864285D01*
X169900952Y-75911904D01*
X170472380Y-76483333D01*
X170472380Y-75864285D01*
%TO.C,U2*%
X164151904Y-116677619D02*
X164151904Y-115868095D01*
X164104285Y-115772857D01*
X164056666Y-115725238D01*
X163961428Y-115677619D01*
X163770952Y-115677619D01*
X163675714Y-115725238D01*
X163628095Y-115772857D01*
X163580476Y-115868095D01*
X163580476Y-116677619D01*
X163151904Y-116582380D02*
X163104285Y-116630000D01*
X163009047Y-116677619D01*
X162770952Y-116677619D01*
X162675714Y-116630000D01*
X162628095Y-116582380D01*
X162580476Y-116487142D01*
X162580476Y-116391904D01*
X162628095Y-116249047D01*
X163199523Y-115677619D01*
X162580476Y-115677619D01*
%TO.C,R3*%
X132822380Y-89196666D02*
X132346190Y-89530000D01*
X132822380Y-89768095D02*
X131822380Y-89768095D01*
X131822380Y-89387142D01*
X131870000Y-89291904D01*
X131917619Y-89244285D01*
X132012857Y-89196666D01*
X132155714Y-89196666D01*
X132250952Y-89244285D01*
X132298571Y-89291904D01*
X132346190Y-89387142D01*
X132346190Y-89768095D01*
X131822380Y-88863333D02*
X131822380Y-88244285D01*
X132203333Y-88577619D01*
X132203333Y-88434761D01*
X132250952Y-88339523D01*
X132298571Y-88291904D01*
X132393809Y-88244285D01*
X132631904Y-88244285D01*
X132727142Y-88291904D01*
X132774761Y-88339523D01*
X132822380Y-88434761D01*
X132822380Y-88720476D01*
X132774761Y-88815714D01*
X132727142Y-88863333D01*
%TO.C,FID2*%
X207728571Y-78008571D02*
X207395238Y-78008571D01*
X207395238Y-78532380D02*
X207395238Y-77532380D01*
X207871428Y-77532380D01*
X208252380Y-78532380D02*
X208252380Y-77532380D01*
X208728571Y-78532380D02*
X208728571Y-77532380D01*
X208966666Y-77532380D01*
X209109523Y-77580000D01*
X209204761Y-77675238D01*
X209252380Y-77770476D01*
X209300000Y-77960952D01*
X209300000Y-78103809D01*
X209252380Y-78294285D01*
X209204761Y-78389523D01*
X209109523Y-78484761D01*
X208966666Y-78532380D01*
X208728571Y-78532380D01*
X209680952Y-77627619D02*
X209728571Y-77580000D01*
X209823809Y-77532380D01*
X210061904Y-77532380D01*
X210157142Y-77580000D01*
X210204761Y-77627619D01*
X210252380Y-77722857D01*
X210252380Y-77818095D01*
X210204761Y-77960952D01*
X209633333Y-78532380D01*
X210252380Y-78532380D01*
%TO.C,U1*%
X176977380Y-87301904D02*
X177786904Y-87301904D01*
X177882142Y-87254285D01*
X177929761Y-87206666D01*
X177977380Y-87111428D01*
X177977380Y-86920952D01*
X177929761Y-86825714D01*
X177882142Y-86778095D01*
X177786904Y-86730476D01*
X176977380Y-86730476D01*
X177977380Y-85730476D02*
X177977380Y-86301904D01*
X177977380Y-86016190D02*
X176977380Y-86016190D01*
X177120238Y-86111428D01*
X177215476Y-86206666D01*
X177263095Y-86301904D01*
%TO.C,L1*%
X193852380Y-95926666D02*
X193852380Y-96402857D01*
X192852380Y-96402857D01*
X193852380Y-95069523D02*
X193852380Y-95640952D01*
X193852380Y-95355238D02*
X192852380Y-95355238D01*
X192995238Y-95450476D01*
X193090476Y-95545714D01*
X193138095Y-95640952D01*
%TO.C,FID1*%
X205648571Y-119608571D02*
X205315238Y-119608571D01*
X205315238Y-120132380D02*
X205315238Y-119132380D01*
X205791428Y-119132380D01*
X206172380Y-120132380D02*
X206172380Y-119132380D01*
X206648571Y-120132380D02*
X206648571Y-119132380D01*
X206886666Y-119132380D01*
X207029523Y-119180000D01*
X207124761Y-119275238D01*
X207172380Y-119370476D01*
X207220000Y-119560952D01*
X207220000Y-119703809D01*
X207172380Y-119894285D01*
X207124761Y-119989523D01*
X207029523Y-120084761D01*
X206886666Y-120132380D01*
X206648571Y-120132380D01*
X208172380Y-120132380D02*
X207600952Y-120132380D01*
X207886666Y-120132380D02*
X207886666Y-119132380D01*
X207791428Y-119275238D01*
X207696190Y-119370476D01*
X207600952Y-119418095D01*
%TO.C,FID3*%
X114358571Y-74534071D02*
X114025238Y-74534071D01*
X114025238Y-75057880D02*
X114025238Y-74057880D01*
X114501428Y-74057880D01*
X114882380Y-75057880D02*
X114882380Y-74057880D01*
X115358571Y-75057880D02*
X115358571Y-74057880D01*
X115596666Y-74057880D01*
X115739523Y-74105500D01*
X115834761Y-74200738D01*
X115882380Y-74295976D01*
X115930000Y-74486452D01*
X115930000Y-74629309D01*
X115882380Y-74819785D01*
X115834761Y-74915023D01*
X115739523Y-75010261D01*
X115596666Y-75057880D01*
X115358571Y-75057880D01*
X116263333Y-74057880D02*
X116882380Y-74057880D01*
X116549047Y-74438833D01*
X116691904Y-74438833D01*
X116787142Y-74486452D01*
X116834761Y-74534071D01*
X116882380Y-74629309D01*
X116882380Y-74867404D01*
X116834761Y-74962642D01*
X116787142Y-75010261D01*
X116691904Y-75057880D01*
X116406190Y-75057880D01*
X116310952Y-75010261D01*
X116263333Y-74962642D01*
D11*
%TO.C,C1*%
X149652429Y-81057467D02*
X149727420Y-81132457D01*
X149802410Y-81357429D01*
X149802410Y-81507410D01*
X149727420Y-81732382D01*
X149577439Y-81882363D01*
X149427457Y-81957354D01*
X149127495Y-82032345D01*
X148902523Y-82032345D01*
X148602560Y-81957354D01*
X148452579Y-81882363D01*
X148302598Y-81732382D01*
X148227607Y-81507410D01*
X148227607Y-81357429D01*
X148302598Y-81132457D01*
X148377589Y-81057467D01*
X149802410Y-79557654D02*
X149802410Y-80457542D01*
X149802410Y-80007598D02*
X148227607Y-80007598D01*
X148452579Y-80157579D01*
X148602560Y-80307560D01*
X148677551Y-80457542D01*
D10*
%TO.C,R7*%
X159977380Y-124471666D02*
X159501190Y-124805000D01*
X159977380Y-125043095D02*
X158977380Y-125043095D01*
X158977380Y-124662142D01*
X159025000Y-124566904D01*
X159072619Y-124519285D01*
X159167857Y-124471666D01*
X159310714Y-124471666D01*
X159405952Y-124519285D01*
X159453571Y-124566904D01*
X159501190Y-124662142D01*
X159501190Y-125043095D01*
X158977380Y-124138333D02*
X158977380Y-123471666D01*
X159977380Y-123900238D01*
D11*
%TO.C,C5*%
X164132429Y-81147467D02*
X164207420Y-81222457D01*
X164282410Y-81447429D01*
X164282410Y-81597410D01*
X164207420Y-81822382D01*
X164057439Y-81972363D01*
X163907457Y-82047354D01*
X163607495Y-82122345D01*
X163382523Y-82122345D01*
X163082560Y-82047354D01*
X162932579Y-81972363D01*
X162782598Y-81822382D01*
X162707607Y-81597410D01*
X162707607Y-81447429D01*
X162782598Y-81222457D01*
X162857589Y-81147467D01*
X162707607Y-79722645D02*
X162707607Y-80472551D01*
X163457514Y-80547542D01*
X163382523Y-80472551D01*
X163307532Y-80322570D01*
X163307532Y-79947617D01*
X163382523Y-79797636D01*
X163457514Y-79722645D01*
X163607495Y-79647654D01*
X163982448Y-79647654D01*
X164132429Y-79722645D01*
X164207420Y-79797636D01*
X164282410Y-79947617D01*
X164282410Y-80322570D01*
X164207420Y-80472551D01*
X164132429Y-80547542D01*
D10*
%TO.C,R8*%
X148067380Y-124421666D02*
X147591190Y-124755000D01*
X148067380Y-124993095D02*
X147067380Y-124993095D01*
X147067380Y-124612142D01*
X147115000Y-124516904D01*
X147162619Y-124469285D01*
X147257857Y-124421666D01*
X147400714Y-124421666D01*
X147495952Y-124469285D01*
X147543571Y-124516904D01*
X147591190Y-124612142D01*
X147591190Y-124993095D01*
X147495952Y-123850238D02*
X147448333Y-123945476D01*
X147400714Y-123993095D01*
X147305476Y-124040714D01*
X147257857Y-124040714D01*
X147162619Y-123993095D01*
X147115000Y-123945476D01*
X147067380Y-123850238D01*
X147067380Y-123659761D01*
X147115000Y-123564523D01*
X147162619Y-123516904D01*
X147257857Y-123469285D01*
X147305476Y-123469285D01*
X147400714Y-123516904D01*
X147448333Y-123564523D01*
X147495952Y-123659761D01*
X147495952Y-123850238D01*
X147543571Y-123945476D01*
X147591190Y-123993095D01*
X147686428Y-124040714D01*
X147876904Y-124040714D01*
X147972142Y-123993095D01*
X148019761Y-123945476D01*
X148067380Y-123850238D01*
X148067380Y-123659761D01*
X148019761Y-123564523D01*
X147972142Y-123516904D01*
X147876904Y-123469285D01*
X147686428Y-123469285D01*
X147591190Y-123516904D01*
X147543571Y-123564523D01*
X147495952Y-123659761D01*
%TO.C,R1*%
X170472380Y-80476666D02*
X169996190Y-80810000D01*
X170472380Y-81048095D02*
X169472380Y-81048095D01*
X169472380Y-80667142D01*
X169520000Y-80571904D01*
X169567619Y-80524285D01*
X169662857Y-80476666D01*
X169805714Y-80476666D01*
X169900952Y-80524285D01*
X169948571Y-80571904D01*
X169996190Y-80667142D01*
X169996190Y-81048095D01*
X170472380Y-79524285D02*
X170472380Y-80095714D01*
X170472380Y-79810000D02*
X169472380Y-79810000D01*
X169615238Y-79905238D01*
X169710476Y-80000476D01*
X169758095Y-80095714D01*
%TO.C,con1*%
X121474761Y-88242857D02*
X121522380Y-88338095D01*
X121522380Y-88528571D01*
X121474761Y-88623809D01*
X121427142Y-88671428D01*
X121331904Y-88719047D01*
X121046190Y-88719047D01*
X120950952Y-88671428D01*
X120903333Y-88623809D01*
X120855714Y-88528571D01*
X120855714Y-88338095D01*
X120903333Y-88242857D01*
X121522380Y-87671428D02*
X121474761Y-87766666D01*
X121427142Y-87814285D01*
X121331904Y-87861904D01*
X121046190Y-87861904D01*
X120950952Y-87814285D01*
X120903333Y-87766666D01*
X120855714Y-87671428D01*
X120855714Y-87528571D01*
X120903333Y-87433333D01*
X120950952Y-87385714D01*
X121046190Y-87338095D01*
X121331904Y-87338095D01*
X121427142Y-87385714D01*
X121474761Y-87433333D01*
X121522380Y-87528571D01*
X121522380Y-87671428D01*
X120855714Y-86909523D02*
X121522380Y-86909523D01*
X120950952Y-86909523D02*
X120903333Y-86861904D01*
X120855714Y-86766666D01*
X120855714Y-86623809D01*
X120903333Y-86528571D01*
X120998571Y-86480952D01*
X121522380Y-86480952D01*
X121522380Y-85480952D02*
X121522380Y-86052380D01*
X121522380Y-85766666D02*
X120522380Y-85766666D01*
X120665238Y-85861904D01*
X120760476Y-85957142D01*
X120808095Y-86052380D01*
%TO.C,C6*%
X185323333Y-108701750D02*
X185275714Y-108749369D01*
X185132857Y-108796988D01*
X185037619Y-108796988D01*
X184894761Y-108749369D01*
X184799523Y-108654131D01*
X184751904Y-108558893D01*
X184704285Y-108368417D01*
X184704285Y-108225560D01*
X184751904Y-108035084D01*
X184799523Y-107939846D01*
X184894761Y-107844608D01*
X185037619Y-107796988D01*
X185132857Y-107796988D01*
X185275714Y-107844608D01*
X185323333Y-107892227D01*
X186180476Y-107796988D02*
X185990000Y-107796988D01*
X185894761Y-107844608D01*
X185847142Y-107892227D01*
X185751904Y-108035084D01*
X185704285Y-108225560D01*
X185704285Y-108606512D01*
X185751904Y-108701750D01*
X185799523Y-108749369D01*
X185894761Y-108796988D01*
X186085238Y-108796988D01*
X186180476Y-108749369D01*
X186228095Y-108701750D01*
X186275714Y-108606512D01*
X186275714Y-108368417D01*
X186228095Y-108273179D01*
X186180476Y-108225560D01*
X186085238Y-108177941D01*
X185894761Y-108177941D01*
X185799523Y-108225560D01*
X185751904Y-108273179D01*
X185704285Y-108368417D01*
D11*
%TO.C,con2*%
X116602457Y-105682857D02*
X116650076Y-105778095D01*
X116650076Y-105968571D01*
X116602457Y-106063809D01*
X116554838Y-106111428D01*
X116459600Y-106159047D01*
X116173886Y-106159047D01*
X116078648Y-106111428D01*
X116031029Y-106063809D01*
X115983410Y-105968571D01*
X115983410Y-105778095D01*
X116031029Y-105682857D01*
X116650076Y-105111428D02*
X116602457Y-105206666D01*
X116554838Y-105254285D01*
X116459600Y-105301904D01*
X116173886Y-105301904D01*
X116078648Y-105254285D01*
X116031029Y-105206666D01*
X115983410Y-105111428D01*
X115983410Y-104968571D01*
X116031029Y-104873333D01*
X116078648Y-104825714D01*
X116173886Y-104778095D01*
X116459600Y-104778095D01*
X116554838Y-104825714D01*
X116602457Y-104873333D01*
X116650076Y-104968571D01*
X116650076Y-105111428D01*
X115983410Y-104349523D02*
X116650076Y-104349523D01*
X116078648Y-104349523D02*
X116031029Y-104301904D01*
X115983410Y-104206666D01*
X115983410Y-104063809D01*
X116031029Y-103968571D01*
X116126267Y-103920952D01*
X116650076Y-103920952D01*
X115745315Y-103492380D02*
X115697696Y-103444761D01*
X115650076Y-103349523D01*
X115650076Y-103111428D01*
X115697696Y-103016190D01*
X115745315Y-102968571D01*
X115840553Y-102920952D01*
X115935791Y-102920952D01*
X116078648Y-102968571D01*
X116650076Y-103540000D01*
X116650076Y-102920952D01*
D12*
%TO.C,C3*%
X178430000Y-91850000D02*
X178430000Y-92485000D01*
X178430000Y-92485000D02*
X178430000Y-93120000D01*
X178430000Y-93120000D02*
X175890000Y-93120000D01*
X175890000Y-93120000D02*
X175890000Y-91850000D01*
X175890000Y-91850000D02*
X178430000Y-91850000D01*
%TO.C,R5*%
X127730000Y-113890000D02*
X127730000Y-113255000D01*
X127730000Y-112620000D02*
X130270000Y-112620000D01*
X130270000Y-112620000D02*
X130270000Y-113890000D01*
X127730000Y-113255000D02*
X127730000Y-112620000D01*
X130270000Y-113890000D02*
X127730000Y-113890000D01*
%TO.C,C4*%
X175585000Y-78630000D02*
X175585000Y-75730000D01*
X188385000Y-75730000D02*
X189885000Y-75730000D01*
X177485000Y-82430000D02*
X177485000Y-78230000D01*
X187985000Y-78430000D02*
X187985000Y-80330000D01*
X189885000Y-75730000D02*
X189885000Y-78630000D01*
X177085000Y-75730000D02*
X177085000Y-71530000D01*
X177085000Y-78630000D02*
X175585000Y-78630000D01*
X187985000Y-74030000D02*
X187985000Y-78430000D01*
X190485000Y-76730000D02*
X190485000Y-76630000D01*
X190985000Y-77230000D02*
X190085000Y-77230000D01*
X185785000Y-82430000D02*
X177485000Y-82430000D01*
X177485000Y-71930000D02*
X185885000Y-71930000D01*
X189885000Y-78630000D02*
X188385000Y-78630000D01*
X187985000Y-80330000D02*
X185785000Y-82430000D01*
X190485000Y-77730000D02*
X190485000Y-76730000D01*
X175585000Y-75730000D02*
X177085000Y-75730000D01*
X177485000Y-78230000D02*
X177485000Y-71930000D01*
X177085000Y-71530000D02*
X188385000Y-71530000D01*
X188385000Y-78630000D02*
X188385000Y-82830000D01*
X188385000Y-71530000D02*
X188385000Y-75730000D01*
X177085000Y-82830000D02*
X177085000Y-78630000D01*
X185885000Y-71930000D02*
X187985000Y-74030000D01*
X188385000Y-82830000D02*
X177085000Y-82830000D01*
%TO.C,CON1*%
X194990000Y-123725000D02*
X194355000Y-123725000D01*
X194990000Y-123090000D02*
X194990000Y-123725000D01*
X193070000Y-125630000D02*
X191670000Y-123650000D01*
X195770000Y-116070000D02*
X195170000Y-115470000D01*
X194370000Y-125630000D02*
X193070000Y-125630000D01*
X191670000Y-116070000D02*
X192270000Y-115470000D01*
X192270000Y-115470000D02*
X195170000Y-115470000D01*
X195770000Y-116070000D02*
X195770000Y-123650000D01*
X191670000Y-123650000D02*
X191670000Y-116070000D01*
X195770000Y-123650000D02*
X194370000Y-125630000D01*
%TO.C,R6*%
X138905000Y-112645000D02*
X141445000Y-112645000D01*
X141445000Y-112645000D02*
X141445000Y-113915000D01*
X138905000Y-113915000D02*
X138905000Y-113280000D01*
X138905000Y-113280000D02*
X138905000Y-112645000D01*
X141445000Y-113915000D02*
X138905000Y-113915000D01*
%TO.C,JP1*%
X141155000Y-119245000D02*
X138355000Y-119245000D01*
X138355000Y-117245000D02*
X141155000Y-117245000D01*
X138355000Y-119245000D02*
X138355000Y-117245000D01*
X141155000Y-117245000D02*
X141155000Y-119245000D01*
%TO.C,C7*%
X186185000Y-107505000D02*
X183645000Y-107505000D01*
X183645000Y-106235000D02*
X186185000Y-106235000D01*
X183645000Y-106870000D02*
X183645000Y-106235000D01*
X186185000Y-106235000D02*
X186185000Y-107505000D01*
X183645000Y-107505000D02*
X183645000Y-106870000D01*
%TO.C,RV1*%
X137180000Y-119365392D02*
X131150000Y-119365392D01*
X137240000Y-111225392D02*
X137180000Y-119365392D01*
X131150000Y-119365392D02*
X131230000Y-111205392D01*
X131230000Y-111205392D02*
X137240000Y-111225392D01*
%TO.C,D2*%
X170784000Y-103150000D02*
X178150000Y-103150000D01*
X166085000Y-95530000D02*
X166085000Y-103150000D01*
X178150000Y-103150000D02*
X178150000Y-95530000D01*
X166085000Y-103150000D02*
X170784000Y-103150000D01*
X178150000Y-95530000D02*
X166085000Y-95530000D01*
%TO.C,U3*%
X147280000Y-112600000D02*
X155570000Y-112610000D01*
X147270000Y-122210000D02*
X147280000Y-112600000D01*
D13*
X148820000Y-119400000D02*
X148720000Y-119200000D01*
X148720000Y-119000000D02*
X148920000Y-119100000D01*
X147770000Y-120200000D02*
X147770000Y-114600000D01*
X148520000Y-119200000D02*
X148720000Y-119000000D01*
X155070000Y-114600000D02*
X155070000Y-120200000D01*
X148820000Y-119400000D02*
X148520000Y-119200000D01*
X148920000Y-119100000D02*
X148820000Y-119400000D01*
D12*
X155560000Y-122200000D02*
X147270000Y-122210000D01*
X155570000Y-112610000D02*
X155560000Y-122200000D01*
D13*
X147770000Y-114600000D02*
X155070000Y-114600000D01*
X155070000Y-120200000D02*
X147770000Y-120200000D01*
X149002841Y-119200000D02*
G75*
G03*
X149002841Y-119200000I-282841J0D01*
G01*
X147720000Y-121200000D02*
G75*
G03*
X147720000Y-121200000I-100000J0D01*
G01*
D12*
%TO.C,U4*%
X177560000Y-120428221D02*
X177560000Y-120098221D01*
X177560000Y-113228221D02*
X177560000Y-113558221D01*
X177890000Y-113228221D02*
X177560000Y-113228221D01*
X184430000Y-113228221D02*
X184760000Y-113228221D01*
X177890000Y-120428221D02*
X177560000Y-120428221D01*
X184760000Y-120428221D02*
X184760000Y-120098221D01*
X184430000Y-120428221D02*
X184760000Y-120428221D01*
X184760000Y-113228221D02*
X184760000Y-113558221D01*
D14*
X178464279Y-122488221D02*
G75*
G03*
X178464279Y-122488221I-294279J0D01*
G01*
D12*
%TO.C,C2*%
X184590000Y-87180000D02*
X184590000Y-88450000D01*
X184590000Y-88450000D02*
X182050000Y-88450000D01*
X182050000Y-87180000D02*
X184590000Y-87180000D01*
X182050000Y-87815000D02*
X182050000Y-87180000D01*
X182050000Y-88450000D02*
X182050000Y-87815000D01*
%TO.C,R4*%
X130420000Y-94900000D02*
X130420000Y-92360000D01*
X131690000Y-92360000D02*
X131690000Y-94900000D01*
X131690000Y-94900000D02*
X130420000Y-94900000D01*
X130420000Y-92360000D02*
X131055000Y-92360000D01*
X131055000Y-92360000D02*
X131690000Y-92360000D01*
%TO.C,J1*%
X202440000Y-105470000D02*
X203710000Y-105470000D01*
X204980000Y-105470000D02*
X204980000Y-113090000D01*
X203710000Y-105470000D02*
X204980000Y-105470000D01*
X204980000Y-113090000D02*
X202440000Y-113090000D01*
X202440000Y-105470000D02*
X202440000Y-113090000D01*
X203710000Y-113090000D02*
X204980000Y-113090000D01*
%TO.C,R2*%
X171290000Y-78555000D02*
X170655000Y-78555000D01*
X170655000Y-78555000D02*
X170655000Y-76015000D01*
X171925000Y-78555000D02*
X171290000Y-78555000D01*
X171925000Y-76015000D02*
X171925000Y-78555000D01*
X170655000Y-76015000D02*
X171925000Y-76015000D01*
%TO.C,U2*%
X159190000Y-113030000D02*
X167480000Y-113040000D01*
D13*
X160430000Y-119630000D02*
X160630000Y-119430000D01*
X160730000Y-119830000D02*
X160630000Y-119630000D01*
X166980000Y-120630000D02*
X159680000Y-120630000D01*
D12*
X159180000Y-122640000D02*
X159190000Y-113030000D01*
D13*
X159680000Y-115030000D02*
X166980000Y-115030000D01*
X166980000Y-115030000D02*
X166980000Y-120630000D01*
X160630000Y-119430000D02*
X160830000Y-119530000D01*
D12*
X167480000Y-113040000D02*
X167470000Y-122630000D01*
X167470000Y-122630000D02*
X159180000Y-122640000D01*
D13*
X160830000Y-119530000D02*
X160730000Y-119830000D01*
X159680000Y-120630000D02*
X159680000Y-115030000D01*
X160730000Y-119830000D02*
X160430000Y-119630000D01*
X159630000Y-121630000D02*
G75*
G03*
X159630000Y-121630000I-100000J0D01*
G01*
X160912841Y-119630000D02*
G75*
G03*
X160912841Y-119630000I-282841J0D01*
G01*
D12*
%TO.C,R3*%
X130465000Y-87125000D02*
X131100000Y-87125000D01*
X131100000Y-87125000D02*
X131735000Y-87125000D01*
X131735000Y-87125000D02*
X131735000Y-89665000D01*
X131735000Y-89665000D02*
X130465000Y-89665000D01*
X130465000Y-89665000D02*
X130465000Y-87125000D01*
%TO.C,U1*%
X179600000Y-90350000D02*
X180870000Y-89080000D01*
X179600000Y-90350000D02*
X173250000Y-90350000D01*
X173250000Y-84000000D02*
X180870000Y-84000000D01*
X173250000Y-90350000D02*
X173250000Y-84000000D01*
X180870000Y-84000000D02*
X180870000Y-90350000D01*
X180870000Y-90350000D02*
X179600000Y-90350000D01*
%TO.C,L1*%
X190860000Y-104650000D02*
X195940000Y-104650000D01*
X185780000Y-83060000D02*
X185780000Y-104650000D01*
X201020000Y-104650000D02*
X201020000Y-83060000D01*
X195940000Y-104650000D02*
X201020000Y-104650000D01*
X185780000Y-104650000D02*
X190860000Y-104650000D01*
X201020000Y-83060000D02*
X185780000Y-83060000D01*
%TO.C,C1*%
X147390000Y-88595000D02*
X147390000Y-87095000D01*
X147590000Y-86695000D02*
X145690000Y-86695000D01*
X149290000Y-89195000D02*
X149390000Y-89195000D01*
X151990000Y-86695000D02*
X147590000Y-86695000D01*
X154090000Y-84595000D02*
X151990000Y-86695000D01*
X150290000Y-87095000D02*
X150290000Y-88595000D01*
X154090000Y-76195000D02*
X154090000Y-84595000D01*
X143190000Y-75795000D02*
X147390000Y-75795000D01*
X154490000Y-75795000D02*
X154490000Y-87095000D01*
X145690000Y-86695000D02*
X143590000Y-84495000D01*
X147390000Y-87095000D02*
X143190000Y-87095000D01*
X147790000Y-76195000D02*
X154090000Y-76195000D01*
X148290000Y-89195000D02*
X149290000Y-89195000D01*
X150290000Y-88595000D02*
X147390000Y-88595000D01*
X143190000Y-87095000D02*
X143190000Y-75795000D01*
X143590000Y-84495000D02*
X143590000Y-76195000D01*
X147390000Y-75795000D02*
X147390000Y-74295000D01*
X143590000Y-76195000D02*
X147790000Y-76195000D01*
X147390000Y-74295000D02*
X150290000Y-74295000D01*
X148790000Y-89695000D02*
X148790000Y-88795000D01*
X150290000Y-74295000D02*
X150290000Y-75795000D01*
X150290000Y-75795000D02*
X154490000Y-75795000D01*
X154490000Y-87095000D02*
X150290000Y-87095000D01*
%TO.C,R7*%
X160795000Y-126210000D02*
X160160000Y-126210000D01*
X161430000Y-123670000D02*
X161430000Y-126210000D01*
X160160000Y-126210000D02*
X160160000Y-123670000D01*
X161430000Y-126210000D02*
X160795000Y-126210000D01*
X160160000Y-123670000D02*
X161430000Y-123670000D01*
%TO.C,C5*%
X161870000Y-75885000D02*
X161870000Y-74385000D01*
X161870000Y-88685000D02*
X161870000Y-87185000D01*
X163770000Y-89285000D02*
X163870000Y-89285000D01*
X158070000Y-84585000D02*
X158070000Y-76285000D01*
X157670000Y-87185000D02*
X157670000Y-75885000D01*
X162770000Y-89285000D02*
X163770000Y-89285000D01*
X157670000Y-75885000D02*
X161870000Y-75885000D01*
X161870000Y-87185000D02*
X157670000Y-87185000D01*
X164770000Y-74385000D02*
X164770000Y-75885000D01*
X158070000Y-76285000D02*
X162270000Y-76285000D01*
X166470000Y-86785000D02*
X162070000Y-86785000D01*
X162070000Y-86785000D02*
X160170000Y-86785000D01*
X164770000Y-75885000D02*
X168970000Y-75885000D01*
X163270000Y-89785000D02*
X163270000Y-88885000D01*
X164770000Y-88685000D02*
X161870000Y-88685000D01*
X168570000Y-76285000D02*
X168570000Y-84685000D01*
X161870000Y-74385000D02*
X164770000Y-74385000D01*
X160170000Y-86785000D02*
X158070000Y-84585000D01*
X168570000Y-84685000D02*
X166470000Y-86785000D01*
X168970000Y-87185000D02*
X164770000Y-87185000D01*
X164770000Y-87185000D02*
X164770000Y-88685000D01*
X168970000Y-75885000D02*
X168970000Y-87185000D01*
X162270000Y-76285000D02*
X168570000Y-76285000D01*
%TO.C,R8*%
X148885000Y-126160000D02*
X148250000Y-126160000D01*
X149520000Y-123620000D02*
X149520000Y-126160000D01*
X148250000Y-123620000D02*
X149520000Y-123620000D01*
X148250000Y-126160000D02*
X148250000Y-123620000D01*
X149520000Y-126160000D02*
X148885000Y-126160000D01*
%TO.C,R1*%
X170655000Y-79675000D02*
X171925000Y-79675000D01*
X170655000Y-82215000D02*
X170655000Y-79675000D01*
X171925000Y-82215000D02*
X171290000Y-82215000D01*
X171290000Y-82215000D02*
X170655000Y-82215000D01*
X171925000Y-79675000D02*
X171925000Y-82215000D01*
%TO.C,con1*%
X123020000Y-91070000D02*
X121750000Y-91070000D01*
X124290000Y-83450000D02*
X124290000Y-91070000D01*
X121750000Y-83450000D02*
X124290000Y-83450000D01*
X124290000Y-91070000D02*
X123020000Y-91070000D01*
X121750000Y-91070000D02*
X121750000Y-83450000D01*
%TO.C,C6*%
X183585000Y-109614608D02*
X183585000Y-108979608D01*
X186125000Y-110249608D02*
X183585000Y-110249608D01*
X183585000Y-108979608D02*
X186125000Y-108979608D01*
X183585000Y-110249608D02*
X183585000Y-109614608D01*
X186125000Y-108979608D02*
X186125000Y-110249608D01*
D15*
%TO.C,con2*%
X107757696Y-112060000D02*
X107757696Y-96560000D01*
X124957696Y-96560000D02*
X124957696Y-98600000D01*
X124957696Y-112060000D02*
X107757696Y-112060000D01*
X124957696Y-102820000D02*
X124957696Y-105800000D01*
X124957696Y-110020000D02*
X124957696Y-112060000D01*
X107757696Y-96560000D02*
X124957696Y-96560000D01*
D16*
X126552500Y-100620000D02*
G75*
G03*
X126552500Y-100620000I-304804J0D01*
G01*
%TD*%
D17*
%TO.C,RV1*%
X134350000Y-118235392D03*
D18*
X135440000Y-113235392D03*
%TD*%
M02*
