%TF.GenerationSoftware,KiCad,Pcbnew,(5.99.0-11575-g46338403e7)*%
%TF.CreationDate,2021-08-13T15:38:51+02:00*%
%TF.ProjectId,voedings switcher,766f6564-696e-4677-9320-737769746368,rev?*%
%TF.SameCoordinates,Original*%
%TF.FileFunction,Soldermask,Top*%
%TF.FilePolarity,Negative*%
%FSLAX46Y46*%
G04 Gerber Fmt 4.6, Leading zero omitted, Abs format (unit mm)*
G04 Created by KiCad (PCBNEW (5.99.0-11575-g46338403e7)) date 2021-08-13 15:38:51*
%MOMM*%
%LPD*%
G01*
G04 APERTURE LIST*
G04 Aperture macros list*
%AMRoundRect*
0 Rectangle with rounded corners*
0 $1 Rounding radius*
0 $2 $3 $4 $5 $6 $7 $8 $9 X,Y pos of 4 corners*
0 Add a 4 corners polygon primitive as box body*
4,1,4,$2,$3,$4,$5,$6,$7,$8,$9,$2,$3,0*
0 Add four circle primitives for the rounded corners*
1,1,$1+$1,$2,$3*
1,1,$1+$1,$4,$5*
1,1,$1+$1,$6,$7*
1,1,$1+$1,$8,$9*
0 Add four rect primitives between the rounded corners*
20,1,$1+$1,$2,$3,$4,$5,0*
20,1,$1+$1,$4,$5,$6,$7,0*
20,1,$1+$1,$6,$7,$8,$9,0*
20,1,$1+$1,$8,$9,$2,$3,0*%
G04 Aperture macros list end*
%ADD10RoundRect,0.250000X-0.300000X0.250000X-0.300000X-0.250000X0.300000X-0.250000X0.300000X0.250000X0*%
%ADD11RoundRect,0.250000X0.300000X-0.250000X0.300000X0.250000X-0.300000X0.250000X-0.300000X-0.250000X0*%
%ADD12R,4.510000X2.120000*%
%ADD13C,0.990600*%
%ADD14C,0.787400*%
%ADD15R,1.000000X1.500000*%
%ADD16R,1.800000X2.000000*%
%ADD17R,2.000000X2.000000*%
%ADD18R,1.500000X2.000000*%
%ADD19R,2.999740X1.597660*%
%ADD20R,6.740000X6.740000*%
%ADD21R,1.400000X1.400000*%
%ADD22C,1.400000*%
%ADD23R,0.570000X1.460000*%
%ADD24R,1.460000X0.570000*%
%ADD25RoundRect,0.250000X-0.250000X-0.300000X0.250000X-0.300000X0.250000X0.300000X-0.250000X0.300000X0*%
%ADD26C,2.000000*%
%ADD27RoundRect,0.250000X0.250000X0.300000X-0.250000X0.300000X-0.250000X-0.300000X0.250000X-0.300000X0*%
%ADD28C,1.500000*%
%ADD29RoundRect,0.132500X0.592500X-0.132500X0.592500X0.132500X-0.592500X0.132500X-0.592500X-0.132500X0*%
%ADD30R,1.450000X0.530000*%
%ADD31R,2.790000X2.920000*%
%ADD32R,2.120000X4.510000*%
%ADD33C,3.716000*%
%ADD34O,2.600000X1.300000*%
G04 APERTURE END LIST*
D10*
%TO.C,C3*%
X177795000Y-92485000D03*
X176525000Y-92485000D03*
%TD*%
D11*
%TO.C,R5*%
X128365000Y-113255000D03*
X129635000Y-113255000D03*
%TD*%
D12*
%TO.C,C4*%
X187230000Y-77190000D03*
X178230000Y-77190000D03*
%TD*%
D13*
%TO.C,CON1*%
X193720000Y-124360000D03*
X192704000Y-116740000D03*
X194736000Y-116740000D03*
D14*
X194355000Y-123090000D03*
X194355000Y-121820000D03*
X194355000Y-120550000D03*
X194355000Y-119280000D03*
X194355000Y-118010000D03*
X193085000Y-118010000D03*
X193085000Y-119280000D03*
X193085000Y-120550000D03*
X193085000Y-121820000D03*
X193085000Y-123090000D03*
%TD*%
D11*
%TO.C,R6*%
X139540000Y-113280000D03*
X140810000Y-113280000D03*
%TD*%
D15*
%TO.C,JP1*%
X139105000Y-118245000D03*
X140405000Y-118245000D03*
%TD*%
D11*
%TO.C,C7*%
X184280000Y-106870000D03*
X185550000Y-106870000D03*
%TD*%
D16*
%TO.C,RV1*%
X133140000Y-113235392D03*
D17*
X134350000Y-118235392D03*
D18*
X135440000Y-113235392D03*
%TD*%
D19*
%TO.C,D2*%
X167761400Y-97061620D03*
X167761400Y-101618380D03*
D20*
X174657500Y-99340000D03*
%TD*%
D21*
%TO.C,U3*%
X148880000Y-121210000D03*
D22*
X151420000Y-121210000D03*
X153960000Y-121210000D03*
X153960000Y-113590000D03*
X151420000Y-113590000D03*
X148880000Y-113590000D03*
%TD*%
D23*
%TO.C,U4*%
X178360000Y-120958221D03*
X179160000Y-120958221D03*
X179960000Y-120958221D03*
X180760000Y-120958221D03*
X181560000Y-120958221D03*
X182360000Y-120958221D03*
X183160000Y-120958221D03*
X183960000Y-120958221D03*
D24*
X185290000Y-119628221D03*
X185290000Y-118828221D03*
X185290000Y-118028221D03*
X185290000Y-117228221D03*
X185290000Y-116428221D03*
X185290000Y-115628221D03*
X185290000Y-114828221D03*
X185290000Y-114028221D03*
D23*
X183960000Y-112698221D03*
X183160000Y-112698221D03*
X182360000Y-112698221D03*
X181560000Y-112698221D03*
X180760000Y-112698221D03*
X179960000Y-112698221D03*
X179160000Y-112698221D03*
X178360000Y-112698221D03*
D24*
X177030000Y-114028221D03*
X177030000Y-114828221D03*
X177030000Y-115628221D03*
X177030000Y-116428221D03*
X177030000Y-117228221D03*
X177030000Y-118028221D03*
X177030000Y-118828221D03*
X177030000Y-119628221D03*
%TD*%
D11*
%TO.C,C2*%
X182685000Y-87815000D03*
X183955000Y-87815000D03*
%TD*%
D25*
%TO.C,R4*%
X131055000Y-92995000D03*
X131055000Y-94265000D03*
%TD*%
D26*
%TO.C,J1*%
X203710000Y-106820000D03*
X203710000Y-111820000D03*
%TD*%
D27*
%TO.C,R2*%
X171290000Y-77920000D03*
X171290000Y-76650000D03*
%TD*%
D21*
%TO.C,U2*%
X160790000Y-121640000D03*
D22*
X163330000Y-121640000D03*
X165870000Y-121640000D03*
X165870000Y-114020000D03*
X163330000Y-114020000D03*
X160790000Y-114020000D03*
%TD*%
D25*
%TO.C,R3*%
X131100000Y-87760000D03*
X131100000Y-89030000D03*
%TD*%
D28*
%TO.C,FID2*%
X209320000Y-76340000D03*
%TD*%
D29*
%TO.C,U1*%
X179600000Y-89080000D03*
D30*
X179600000Y-87810000D03*
X179600000Y-86540000D03*
X179600000Y-85270000D03*
X174150000Y-85270000D03*
X174150000Y-86540000D03*
X174150000Y-87810000D03*
X174150000Y-89080000D03*
%TD*%
D31*
%TO.C,L1*%
X193400000Y-102110000D03*
X193400000Y-85600000D03*
%TD*%
D28*
%TO.C,FID1*%
X209300000Y-119720000D03*
%TD*%
%TO.C,FID3*%
X115430000Y-76320000D03*
%TD*%
D32*
%TO.C,C1*%
X148830000Y-85940000D03*
X148830000Y-76940000D03*
%TD*%
D27*
%TO.C,R7*%
X160795000Y-125575000D03*
X160795000Y-124305000D03*
%TD*%
D32*
%TO.C,C5*%
X163310000Y-86030000D03*
X163310000Y-77030000D03*
%TD*%
D27*
%TO.C,R8*%
X148885000Y-125525000D03*
X148885000Y-124255000D03*
%TD*%
%TO.C,R1*%
X171290000Y-81580000D03*
X171290000Y-80310000D03*
%TD*%
D17*
%TO.C,con1*%
X123020000Y-89800000D03*
D26*
X123020000Y-84800000D03*
%TD*%
D11*
%TO.C,C6*%
X184220000Y-109614608D03*
X185490000Y-109614608D03*
%TD*%
D33*
%TO.C,con2*%
X123107696Y-100710000D03*
X123107696Y-107910000D03*
D34*
X117107696Y-97560000D03*
X117107696Y-111060000D03*
%TD*%
M02*
