%TF.GenerationSoftware,KiCad,Pcbnew,(5.99.0-11575-g46338403e7)*%
%TF.CreationDate,2021-08-13T15:38:51+02:00*%
%TF.ProjectId,voedings switcher,766f6564-696e-4677-9320-737769746368,rev?*%
%TF.SameCoordinates,Original*%
%TF.FileFunction,Profile,NP*%
%FSLAX46Y46*%
G04 Gerber Fmt 4.6, Leading zero omitted, Abs format (unit mm)*
G04 Created by KiCad (PCBNEW (5.99.0-11575-g46338403e7)) date 2021-08-13 15:38:51*
%MOMM*%
%LPD*%
G01*
G04 APERTURE LIST*
%TA.AperFunction,Profile*%
%ADD10C,0.500000*%
%TD*%
G04 APERTURE END LIST*
D10*
X124380000Y-68560000D02*
X124380000Y-70060000D01*
X202130000Y-78060000D02*
G75*
G03*
X202130000Y-78060000I-1750000J0D01*
G01*
X210630000Y-75060000D02*
X210630000Y-121060000D01*
X200380000Y-127560000D02*
X124380000Y-127560000D01*
X119380000Y-75060000D02*
X114130000Y-75060000D01*
X124380000Y-126060000D02*
X124380000Y-127560000D01*
X126130000Y-78060000D02*
G75*
G03*
X126130000Y-78060000I-1750000J0D01*
G01*
X200380000Y-127560000D02*
X200380000Y-126060000D01*
X205380000Y-121060000D02*
X210630000Y-121060000D01*
X126130000Y-118060000D02*
G75*
G03*
X126130000Y-118060000I-1750000J0D01*
G01*
X114130000Y-121060000D02*
X119380000Y-121060000D01*
X124380000Y-70060000D02*
G75*
G02*
X119380000Y-75060000I-5000000J0D01*
G01*
X114130000Y-121060000D02*
X114130000Y-75060000D01*
X200380000Y-126060000D02*
G75*
G02*
X205380000Y-121060000I5000000J0D01*
G01*
X124380000Y-68560000D02*
X200380000Y-68560000D01*
X202130000Y-118060000D02*
G75*
G03*
X202130000Y-118060000I-1750000J0D01*
G01*
X205380000Y-75060000D02*
G75*
G02*
X200380000Y-70060000I0J5000000D01*
G01*
X119380000Y-121060000D02*
G75*
G02*
X124380000Y-126060000I0J-5000000D01*
G01*
X210630000Y-75060000D02*
X205380000Y-75060000D01*
X200380000Y-70060000D02*
X200380000Y-68560000D01*
M02*
