M48
; DRILL file {KiCad (5.99.0-11575-g46338403e7)} date Fri Aug 13 15:38:48 2021
; FORMAT={-:-/ absolute / inch / decimal}
; #@! TF.CreationDate,2021-08-13T15:38:48+02:00
; #@! TF.GenerationSoftware,Kicad,Pcbnew,(5.99.0-11575-g46338403e7)
; #@! TF.FileFunction,Plated,1,2,PTH
FMAT,2
INCH
; #@! TA.AperFunction,Plated,PTH,ViaDrill
T1C0.0138
; #@! TA.AperFunction,Plated,PTH,ComponentDrill
T2C0.0236
; #@! TA.AperFunction,Plated,PTH,ComponentDrill
T3C0.0354
; #@! TA.AperFunction,Plated,PTH,ComponentDrill
T4C0.0512
; #@! TA.AperFunction,Plated,PTH,ComponentDrill
T5C0.0551
; #@! TA.AperFunction,Plated,PTH,ComponentDrill
T6C0.1063
%
G90
G05
T1
X5.1575Y-3.8091
X5.1657Y-3.3386
X5.64Y-4.46
X5.8685Y-4.1476
X5.9323Y-4.9398
X6.1386Y-3.0327
X6.1709Y-4.626
X6.4697Y-4.6878
X6.49Y-3.92
X6.5591Y-4.9705
X6.8638Y-3.0264
X6.887Y-4.6787
X6.9629Y-3.4071
X7.0224Y-4.3276
X7.0295Y-4.6059
X7.0457Y-4.9878
X7.0543Y-4.3551
X7.0819Y-4.5039
X7.1177Y-4.2441
X7.1374Y-4.6858
X7.2425Y-3.6882
X7.2965Y-4.4453
X7.7307Y-4.6465
X7.7378Y-4.6953
X7.7433Y-4.7984
X7.7445Y-4.7476
T3
X5.8614Y-4.472
X5.8614Y-4.772
X5.9614Y-4.472
X5.9614Y-4.772
X6.0614Y-4.472
X6.0614Y-4.772
X6.3303Y-4.489
X6.3303Y-4.789
X6.4303Y-4.489
X6.4303Y-4.789
X6.5303Y-4.489
X6.5303Y-4.789
T4
X8.0201Y-4.2055
X8.0201Y-4.4024
T5
X4.8433Y-3.3386
X4.8433Y-3.5354
T6
X4.8468Y-3.965
X4.8468Y-4.2484
T2
G00X4.6322Y-3.8409
M15
G01X4.5889Y-3.8409
M16
G05
G00X4.6322Y-4.3724
M15
G01X4.5889Y-4.3724
M16
G05
T0
M30
