%TF.GenerationSoftware,KiCad,Pcbnew,(5.99.0-10483-ga6ad7a4a70)*%
%TF.CreationDate,2021-05-18T08:29:19+02:00*%
%TF.ProjectId,quadkey,71756164-6b65-4792-9e6b-696361645f70,rev?*%
%TF.SameCoordinates,Original*%
%TF.FileFunction,Copper,L1,Top*%
%TF.FilePolarity,Positive*%
%FSLAX46Y46*%
G04 Gerber Fmt 4.6, Leading zero omitted, Abs format (unit mm)*
G04 Created by KiCad (PCBNEW (5.99.0-10483-ga6ad7a4a70)) date 2021-05-18 08:29:19*
%MOMM*%
%LPD*%
G01*
G04 APERTURE LIST*
G04 Aperture macros list*
%AMRoundRect*
0 Rectangle with rounded corners*
0 $1 Rounding radius*
0 $2 $3 $4 $5 $6 $7 $8 $9 X,Y pos of 4 corners*
0 Add a 4 corners polygon primitive as box body*
4,1,4,$2,$3,$4,$5,$6,$7,$8,$9,$2,$3,0*
0 Add four circle primitives for the rounded corners*
1,1,$1+$1,$2,$3*
1,1,$1+$1,$4,$5*
1,1,$1+$1,$6,$7*
1,1,$1+$1,$8,$9*
0 Add four rect primitives between the rounded corners*
20,1,$1+$1,$2,$3,$4,$5,0*
20,1,$1+$1,$4,$5,$6,$7,0*
20,1,$1+$1,$6,$7,$8,$9,0*
20,1,$1+$1,$8,$9,$2,$3,0*%
G04 Aperture macros list end*
%TA.AperFunction,SMDPad,CuDef*%
%ADD10RoundRect,0.250000X0.250000X0.300000X-0.250000X0.300000X-0.250000X-0.300000X0.250000X-0.300000X0*%
%TD*%
%TA.AperFunction,ConnectorPad*%
%ADD11C,0.787400*%
%TD*%
%TA.AperFunction,SMDPad,CuDef*%
%ADD12R,1.210000X1.010000*%
%TD*%
%TA.AperFunction,SMDPad,CuDef*%
%ADD13RoundRect,0.137500X-0.137500X-0.262500X0.137500X-0.262500X0.137500X0.262500X-0.137500X0.262500X0*%
%TD*%
%TA.AperFunction,SMDPad,CuDef*%
%ADD14R,0.550000X0.800000*%
%TD*%
%TA.AperFunction,SMDPad,CuDef*%
%ADD15RoundRect,0.250000X-0.300000X0.250000X-0.300000X-0.250000X0.300000X-0.250000X0.300000X0.250000X0*%
%TD*%
%TA.AperFunction,SMDPad,CuDef*%
%ADD16R,0.398780X1.348740*%
%TD*%
%TA.AperFunction,SMDPad,CuDef*%
%ADD17R,2.098040X1.597660*%
%TD*%
%TA.AperFunction,SMDPad,CuDef*%
%ADD18R,1.798320X1.899920*%
%TD*%
%TA.AperFunction,SMDPad,CuDef*%
%ADD19R,1.899920X1.899920*%
%TD*%
%TA.AperFunction,SMDPad,CuDef*%
%ADD20RoundRect,0.250000X0.300000X-0.250000X0.300000X0.250000X-0.300000X0.250000X-0.300000X-0.250000X0*%
%TD*%
%TA.AperFunction,SMDPad,CuDef*%
%ADD21RoundRect,0.250000X-0.250000X-0.300000X0.250000X-0.300000X0.250000X0.300000X-0.250000X0.300000X0*%
%TD*%
%TA.AperFunction,ConnectorPad*%
%ADD22R,0.500000X0.500000*%
%TD*%
%TA.AperFunction,ComponentPad*%
%ADD23R,0.900000X0.500000*%
%TD*%
%TA.AperFunction,SMDPad,CuDef*%
%ADD24R,0.220000X0.810000*%
%TD*%
%TA.AperFunction,SMDPad,CuDef*%
%ADD25R,0.810000X0.220000*%
%TD*%
%TA.AperFunction,SMDPad,CuDef*%
%ADD26R,4.600000X4.600000*%
%TD*%
%TA.AperFunction,SMDPad,CuDef*%
%ADD27R,0.812800X0.304800*%
%TD*%
%TA.AperFunction,SMDPad,CuDef*%
%ADD28R,1.651000X2.387600*%
%TD*%
%TA.AperFunction,SMDPad,CuDef*%
%ADD29RoundRect,0.212500X0.400000X0.212500X-0.400000X0.212500X-0.400000X-0.212500X0.400000X-0.212500X0*%
%TD*%
%TA.AperFunction,SMDPad,CuDef*%
%ADD30R,3.200000X1.000000*%
%TD*%
%TA.AperFunction,ViaPad*%
%ADD31C,0.600000*%
%TD*%
%TA.AperFunction,Conductor*%
%ADD32C,0.250000*%
%TD*%
%TA.AperFunction,Conductor*%
%ADD33C,0.500000*%
%TD*%
G04 APERTURE END LIST*
%TO.C,AE1*%
G36*
X102760000Y-48035000D02*
G01*
X102760000Y-50675000D01*
X104760000Y-50675000D01*
X104760000Y-48035000D01*
X107460000Y-48035000D01*
X107460000Y-50675000D01*
X109460000Y-50675000D01*
X109460000Y-48035000D01*
X112160000Y-48035000D01*
X112160000Y-52475000D01*
X111660000Y-52475000D01*
X111660000Y-48535000D01*
X109960000Y-48535000D01*
X109960000Y-51175000D01*
X106960000Y-51175000D01*
X106960000Y-48535000D01*
X105260000Y-48535000D01*
X105260000Y-51175000D01*
X102260000Y-51175000D01*
X102260000Y-48535000D01*
X100560000Y-48535000D01*
X100560000Y-53435000D01*
X100060000Y-53435000D01*
X100060000Y-48535000D01*
X98660000Y-48535000D01*
X98660000Y-53435000D01*
X97760000Y-53435000D01*
X97760000Y-53191785D01*
X98062417Y-53191785D01*
X98072258Y-53239395D01*
X98096326Y-53281797D01*
X98134269Y-53314581D01*
X98142181Y-53318935D01*
X98184844Y-53331043D01*
X98233363Y-53330300D01*
X98278878Y-53317400D01*
X98297489Y-53306787D01*
X98331132Y-53271553D01*
X98351691Y-53226368D01*
X98358222Y-53176842D01*
X98349782Y-53128583D01*
X98332888Y-53096357D01*
X98297628Y-53063687D01*
X98252318Y-53043592D01*
X98202733Y-53037018D01*
X98154647Y-53044908D01*
X98121755Y-53061814D01*
X98086815Y-53098584D01*
X98067153Y-53143378D01*
X98062417Y-53191785D01*
X97760000Y-53191785D01*
X97760000Y-48035000D01*
X102760000Y-48035000D01*
G37*
%TD*%
D10*
%TO.P,C12,1*%
%TO.N,Net-(C12-Pad1)*%
X93855000Y-60365000D03*
%TO.P,C12,2*%
%TO.N,GND*%
X93855000Y-59095000D03*
%TD*%
%TO.P,C3,1*%
%TO.N,+3V3*%
X99255000Y-85895000D03*
%TO.P,C3,2*%
%TO.N,GND*%
X99255000Y-84625000D03*
%TD*%
D11*
%TO.P,CON1,1,VCC*%
%TO.N,+3V3*%
X113355000Y-64000000D03*
%TO.P,CON1,2,SWDIO/TMS*%
%TO.N,/mcu/SWDIO*%
X113355000Y-65270000D03*
%TO.P,CON1,3,GND*%
%TO.N,GND*%
X113355000Y-66540000D03*
%TO.P,CON1,4,SWDCLK/TCK*%
%TO.N,/mcu/SWDCLK*%
X113355000Y-67810000D03*
%TO.P,CON1,5,GND*%
%TO.N,GND*%
X113355000Y-69080000D03*
%TO.P,CON1,6,SWO/TDO*%
%TO.N,unconnected-(CON1-Pad6)*%
X114625000Y-69080000D03*
%TO.P,CON1,7,KEY*%
%TO.N,unconnected-(CON1-Pad7)*%
X114625000Y-67810000D03*
%TO.P,CON1,8,NC/TDI*%
%TO.N,unconnected-(CON1-Pad8)*%
X114625000Y-66540000D03*
%TO.P,CON1,9,GND*%
%TO.N,GND*%
X114625000Y-65270000D03*
%TO.P,CON1,10,tRST*%
%TO.N,/mcu/RST*%
X114625000Y-64000000D03*
%TD*%
D12*
%TO.P,Y1,1,1*%
%TO.N,Net-(C13-Pad1)*%
X91880000Y-63700000D03*
%TO.P,Y1,2,2*%
%TO.N,GND*%
X94240000Y-63700000D03*
%TO.P,Y1,3,3*%
%TO.N,Net-(C12-Pad1)*%
X94240000Y-61840000D03*
%TO.P,Y1,4,4*%
%TO.N,GND*%
X91880000Y-61840000D03*
%TD*%
D13*
%TO.P,U1,1,STAT*%
%TO.N,Net-(R2-Pad1)*%
X100642500Y-98977500D03*
D14*
%TO.P,U1,2,VSS*%
%TO.N,GND*%
X99692500Y-98977500D03*
%TO.P,U1,3,VBAT*%
%TO.N,VBAT*%
X98742500Y-98977500D03*
%TO.P,U1,4,VDD*%
%TO.N,VBUS*%
X98742500Y-101577500D03*
%TO.P,U1,5,Prog*%
%TO.N,Net-(R3-Pad1)*%
X100642500Y-101577500D03*
%TD*%
D10*
%TO.P,C4,1*%
%TO.N,+3V3*%
X97345000Y-85895000D03*
%TO.P,C4,2*%
%TO.N,GND*%
X97345000Y-84625000D03*
%TD*%
D15*
%TO.P,R2,1*%
%TO.N,Net-(R2-Pad1)*%
X102850000Y-96600000D03*
%TO.P,R2,2*%
%TO.N,Net-(D1-Pad1)*%
X101580000Y-96600000D03*
%TD*%
%TO.P,C1,1*%
%TO.N,VBAT*%
X95745000Y-94445000D03*
%TO.P,C1,2*%
%TO.N,GND*%
X94475000Y-94445000D03*
%TD*%
D16*
%TO.P,J1,1,VBUS*%
%TO.N,Net-(J1-Pad1)*%
X96822060Y-113718801D03*
%TO.P,J1,2,D-*%
%TO.N,unconnected-(J1-Pad2)*%
X97472300Y-113718801D03*
%TO.P,J1,3,D+*%
%TO.N,unconnected-(J1-Pad3)*%
X98120000Y-113718801D03*
%TO.P,J1,4,ID*%
%TO.N,unconnected-(J1-Pad4)*%
X98767700Y-113718801D03*
%TO.P,J1,5,GND*%
%TO.N,GND*%
X99417940Y-113718801D03*
D17*
X101218800Y-113843261D03*
D18*
%TO.P,J1,6,Shield*%
X94320160Y-116390881D03*
X101919840Y-116390881D03*
D17*
X95021200Y-113843261D03*
D19*
X99318880Y-116390881D03*
X96921120Y-116390881D03*
%TD*%
D10*
%TO.P,C7,1*%
%TO.N,GND*%
X97360000Y-74910000D03*
%TO.P,C7,2*%
%TO.N,+3V3*%
X97360000Y-73640000D03*
%TD*%
%TO.P,C2,1*%
%TO.N,Net-(C2-Pad1)*%
X104405000Y-89915000D03*
%TO.P,C2,2*%
%TO.N,GND*%
X104405000Y-88645000D03*
%TD*%
D20*
%TO.P,C8,1*%
%TO.N,GND*%
X93055000Y-69025000D03*
%TO.P,C8,2*%
%TO.N,Net-(C8-Pad2)*%
X94325000Y-69025000D03*
%TD*%
D21*
%TO.P,R1,1*%
%TO.N,Net-(C2-Pad1)*%
X104400000Y-92430000D03*
%TO.P,R1,2*%
%TO.N,VBAT*%
X104400000Y-93700000D03*
%TD*%
D10*
%TO.P,R5,1*%
%TO.N,Net-(C11-Pad1)*%
X100300000Y-58580000D03*
%TO.P,R5,2*%
%TO.N,Net-(AE1-Pad1)*%
X100300000Y-57310000D03*
%TD*%
D22*
%TO.P,AE1,1,A*%
%TO.N,Net-(AE1-Pad1)*%
X100310000Y-53185000D03*
D23*
%TO.P,AE1,2*%
%TO.N,N/C*%
X98210000Y-53185000D03*
%TD*%
D10*
%TO.P,C6,1*%
%TO.N,GND*%
X93530000Y-74860000D03*
%TO.P,C6,2*%
%TO.N,+3V3*%
X93530000Y-73590000D03*
%TD*%
D24*
%TO.P,U3,1,DEC1*%
%TO.N,Net-(C10-Pad2)*%
X97850000Y-69820000D03*
%TO.P,U3,2,P0.00/XL1*%
%TO.N,unconnected-(U3-Pad2)*%
X98250000Y-69820000D03*
%TO.P,U3,3,P0.01/XL2*%
%TO.N,unconnected-(U3-Pad3)*%
X98650000Y-69820000D03*
%TO.P,U3,4,P0.02/AIN0*%
%TO.N,unconnected-(U3-Pad4)*%
X99050000Y-69820000D03*
%TO.P,U3,5,P0.03/AIN1*%
%TO.N,unconnected-(U3-Pad5)*%
X99450000Y-69820000D03*
%TO.P,U3,6,P0.04/AIN2*%
%TO.N,unconnected-(U3-Pad6)*%
X99850000Y-69820000D03*
%TO.P,U3,7,P0.05/AIN3*%
%TO.N,unconnected-(U3-Pad7)*%
X100250000Y-69820000D03*
%TO.P,U3,8,P0.06*%
%TO.N,unconnected-(U3-Pad8)*%
X100650000Y-69820000D03*
%TO.P,U3,9,P0.07*%
%TO.N,unconnected-(U3-Pad9)*%
X101050000Y-69820000D03*
%TO.P,U3,10,P0.08*%
%TO.N,unconnected-(U3-Pad10)*%
X101450000Y-69820000D03*
%TO.P,U3,11,P0.09*%
%TO.N,unconnected-(U3-Pad11)*%
X101850000Y-69820000D03*
%TO.P,U3,12,P0.10*%
%TO.N,unconnected-(U3-Pad12)*%
X102250000Y-69820000D03*
D25*
%TO.P,U3,13,VDD*%
%TO.N,+3V3*%
X103000000Y-69070000D03*
%TO.P,U3,14,P0.11*%
%TO.N,unconnected-(U3-Pad14)*%
X103000000Y-68670000D03*
%TO.P,U3,15,P0.12*%
%TO.N,unconnected-(U3-Pad15)*%
X103000000Y-68270000D03*
%TO.P,U3,16,P0.13*%
%TO.N,unconnected-(U3-Pad16)*%
X103000000Y-67870000D03*
%TO.P,U3,17,P0.14*%
%TO.N,unconnected-(U3-Pad17)*%
X103000000Y-67470000D03*
%TO.P,U3,18,P0.15*%
%TO.N,unconnected-(U3-Pad18)*%
X103000000Y-67070000D03*
%TO.P,U3,19,P0.16*%
%TO.N,unconnected-(U3-Pad19)*%
X103000000Y-66670000D03*
%TO.P,U3,20,P0.17*%
%TO.N,unconnected-(U3-Pad20)*%
X103000000Y-66270000D03*
%TO.P,U3,21,P0.18*%
%TO.N,unconnected-(U3-Pad21)*%
X103000000Y-65870000D03*
%TO.P,U3,22,P0.19*%
%TO.N,unconnected-(U3-Pad22)*%
X103000000Y-65470000D03*
%TO.P,U3,23,P0.20*%
%TO.N,unconnected-(U3-Pad23)*%
X103000000Y-65070000D03*
%TO.P,U3,24,P0.21/~RESET*%
%TO.N,/mcu/RST*%
X103000000Y-64670000D03*
D24*
%TO.P,U3,25,SWDCLK*%
%TO.N,/mcu/SWDCLK*%
X102250000Y-63920000D03*
%TO.P,U3,26,SWDIO*%
%TO.N,/mcu/SWDIO*%
X101850000Y-63920000D03*
%TO.P,U3,27,P0.22*%
%TO.N,unconnected-(U3-Pad27)*%
X101450000Y-63920000D03*
%TO.P,U3,28,P0.23*%
%TO.N,unconnected-(U3-Pad28)*%
X101050000Y-63920000D03*
%TO.P,U3,29,P0.24*%
%TO.N,unconnected-(U3-Pad29)*%
X100650000Y-63920000D03*
%TO.P,U3,30,ANT*%
%TO.N,Net-(C11-Pad1)*%
X100250000Y-63920000D03*
%TO.P,U3,31,VSS*%
%TO.N,GND*%
X99850000Y-63920000D03*
%TO.P,U3,32,DEC2*%
X99450000Y-63920000D03*
%TO.P,U3,33,DEC3*%
%TO.N,Net-(C9-Pad2)*%
X99050000Y-63920000D03*
%TO.P,U3,34,XC1*%
%TO.N,Net-(C12-Pad1)*%
X98650000Y-63920000D03*
%TO.P,U3,35,XC2*%
%TO.N,Net-(C13-Pad1)*%
X98250000Y-63920000D03*
%TO.P,U3,36,VDD*%
%TO.N,+3V3*%
X97850000Y-63920000D03*
D25*
%TO.P,U3,37,P0.25*%
%TO.N,unconnected-(U3-Pad37)*%
X97100000Y-64670000D03*
%TO.P,U3,38,P0.26*%
%TO.N,unconnected-(U3-Pad38)*%
X97100000Y-65070000D03*
%TO.P,U3,39,P0.27*%
%TO.N,unconnected-(U3-Pad39)*%
X97100000Y-65470000D03*
%TO.P,U3,40,P0.28/AIN4*%
%TO.N,unconnected-(U3-Pad40)*%
X97100000Y-65870000D03*
%TO.P,U3,41,P0.29/AIN5*%
%TO.N,unconnected-(U3-Pad41)*%
X97100000Y-66270000D03*
%TO.P,U3,42,P0.30/AIN6*%
%TO.N,unconnected-(U3-Pad42)*%
X97100000Y-66670000D03*
%TO.P,U3,43,P0.31/AIN7*%
%TO.N,unconnected-(U3-Pad43)*%
X97100000Y-67070000D03*
%TO.P,U3,44,NC*%
%TO.N,unconnected-(U3-Pad44)*%
X97100000Y-67470000D03*
%TO.P,U3,45,VSS*%
%TO.N,GND*%
X97100000Y-67870000D03*
%TO.P,U3,46,DEC4*%
%TO.N,Net-(C8-Pad2)*%
X97100000Y-68270000D03*
%TO.P,U3,47,DCC*%
%TO.N,unconnected-(U3-Pad47)*%
X97100000Y-68670000D03*
%TO.P,U3,48,VDD*%
%TO.N,+3V3*%
X97100000Y-69070000D03*
D26*
%TO.P,U3,49,VSS*%
%TO.N,GND*%
X100050000Y-66870000D03*
%TD*%
D15*
%TO.P,R4,1*%
%TO.N,GND*%
X109530000Y-101580000D03*
%TO.P,R4,2*%
%TO.N,Net-(R3-Pad2)*%
X108260000Y-101580000D03*
%TD*%
D27*
%TO.P,U2,1,VOUT*%
%TO.N,+3V3*%
X97606800Y-90189400D03*
%TO.P,U2,2,L2*%
%TO.N,Net-(L2-Pad2)*%
X97606800Y-90672000D03*
%TO.P,U2,3,PGND*%
%TO.N,GND*%
X97606800Y-91180000D03*
%TO.P,U2,4,L1*%
%TO.N,Net-(L2-Pad1)*%
X97606800Y-91688000D03*
%TO.P,U2,5,VIN*%
%TO.N,VBAT*%
X97606800Y-92170600D03*
%TO.P,U2,6,EN*%
%TO.N,Net-(C2-Pad1)*%
X100553200Y-92170600D03*
%TO.P,U2,7,PS/SYNC*%
X100553200Y-91688000D03*
%TO.P,U2,8,VINA*%
X100553200Y-91180000D03*
%TO.P,U2,9,GND*%
%TO.N,GND*%
X100553200Y-90672000D03*
%TO.P,U2,10,FB*%
%TO.N,+3V3*%
X100553200Y-90189400D03*
D28*
%TO.P,U2,11,PGND*%
%TO.N,GND*%
X99080000Y-91180000D03*
%TD*%
D15*
%TO.P,C13,1*%
%TO.N,Net-(C13-Pad1)*%
X92185000Y-66425000D03*
%TO.P,C13,2*%
%TO.N,GND*%
X90915000Y-66425000D03*
%TD*%
D20*
%TO.P,R3,1*%
%TO.N,Net-(R3-Pad1)*%
X103580000Y-101580000D03*
%TO.P,R3,2*%
%TO.N,Net-(R3-Pad2)*%
X104850000Y-101580000D03*
%TD*%
D10*
%TO.P,L1,1,1*%
%TO.N,Net-(J1-Pad1)*%
X96510000Y-105660000D03*
%TO.P,L1,2,2*%
%TO.N,VBUS*%
X96510000Y-104390000D03*
%TD*%
D15*
%TO.P,C10,1*%
%TO.N,GND*%
X100875000Y-72375000D03*
%TO.P,C10,2*%
%TO.N,Net-(C10-Pad2)*%
X99605000Y-72375000D03*
%TD*%
D29*
%TO.P,D1,1,K*%
%TO.N,Net-(D1-Pad1)*%
X96530000Y-96610000D03*
%TO.P,D1,2,A*%
%TO.N,VBUS*%
X94905000Y-96610000D03*
%TD*%
D15*
%TO.P,C11,1*%
%TO.N,Net-(C11-Pad1)*%
X100280000Y-60840000D03*
%TO.P,C11,2*%
%TO.N,GND*%
X99010000Y-60840000D03*
%TD*%
%TO.P,C14,1*%
%TO.N,Net-(AE1-Pad1)*%
X100270000Y-55030000D03*
%TO.P,C14,2*%
%TO.N,GND*%
X99000000Y-55030000D03*
%TD*%
D30*
%TO.P,L2,1,1*%
%TO.N,Net-(L2-Pad1)*%
X94170000Y-92100000D03*
%TO.P,L2,2,2*%
%TO.N,Net-(L2-Pad2)*%
X94170000Y-89900000D03*
%TD*%
D10*
%TO.P,C5,1*%
%TO.N,GND*%
X95395000Y-74905000D03*
%TO.P,C5,2*%
%TO.N,+3V3*%
X95395000Y-73635000D03*
%TD*%
D31*
%TO.N,+3V3*%
X96010000Y-64100000D03*
X96060000Y-69440000D03*
%TO.N,VBAT*%
X98700000Y-97490000D03*
X98400000Y-95140000D03*
X99590000Y-103130000D03*
%TO.N,GND*%
X90820000Y-94420000D03*
X94130000Y-65800000D03*
X99040000Y-91940000D03*
X99850000Y-66460000D03*
X93890000Y-57360000D03*
X111270000Y-65920000D03*
X116900000Y-66260000D03*
X101220000Y-110720000D03*
X90550000Y-59740000D03*
X111070000Y-101610000D03*
X99670000Y-97780000D03*
X91170000Y-68520000D03*
X104430000Y-86900000D03*
X110480000Y-71580000D03*
X97940000Y-57760000D03*
X99060000Y-90340000D03*
X99080000Y-91180000D03*
X99800000Y-73950000D03*
X100800000Y-84700000D03*
%TO.N,Net-(C9-Pad2)*%
X98900000Y-62110000D03*
%TO.N,Net-(C13-Pad1)*%
X90550000Y-63680000D03*
X96410000Y-62710000D03*
%TO.N,/mcu/RST*%
X115940000Y-64840000D03*
X107010000Y-64770000D03*
%TD*%
D32*
%TO.N,+3V3*%
X97850000Y-63920000D02*
X96190000Y-63920000D01*
X96190000Y-63920000D02*
X96010000Y-64100000D01*
%TO.N,Net-(AE1-Pad1)*%
X100300000Y-57310000D02*
X100300000Y-55060000D01*
X100300000Y-55060000D02*
X100270000Y-55030000D01*
X100270000Y-55030000D02*
X100270000Y-53225000D01*
X100270000Y-53225000D02*
X100310000Y-53185000D01*
%TO.N,VBAT*%
X98700000Y-97490000D02*
X98700000Y-98935000D01*
X95745000Y-94235000D02*
X95745000Y-94445000D01*
X104400000Y-93700000D02*
X97690000Y-93700000D01*
D33*
X99590000Y-100730000D02*
X98742500Y-99882500D01*
D32*
X97606800Y-94346800D02*
X98400000Y-95140000D01*
X96430000Y-93550000D02*
X95745000Y-94235000D01*
X98700000Y-98935000D02*
X98742500Y-98977500D01*
D33*
X99590000Y-103130000D02*
X99590000Y-100730000D01*
D32*
X97690000Y-93700000D02*
X97540000Y-93550000D01*
X97606800Y-92170600D02*
X97606800Y-93783200D01*
X97540000Y-93550000D02*
X96430000Y-93550000D01*
D33*
X98742500Y-99882500D02*
X98742500Y-98977500D01*
D32*
X97690000Y-93700000D02*
X97606800Y-93783200D01*
X97606800Y-93783200D02*
X97606800Y-94346800D01*
%TO.N,GND*%
X99050000Y-67870000D02*
X100050000Y-66870000D01*
X94240000Y-63700000D02*
X94240000Y-65690000D01*
X115585000Y-66230000D02*
X115820000Y-66230000D01*
X99010000Y-60840000D02*
X99010000Y-57760000D01*
X91880000Y-61840000D02*
X91880000Y-61070000D01*
X99010000Y-55040000D02*
X99000000Y-55030000D01*
X100875000Y-72875000D02*
X99800000Y-73950000D01*
X113355000Y-66540000D02*
X111890000Y-66540000D01*
X99692500Y-98977500D02*
X99692500Y-97802500D01*
X101919840Y-116390881D02*
X94320160Y-116390881D01*
X99542400Y-113843261D02*
X99417940Y-113718801D01*
X93530000Y-74860000D02*
X93530000Y-75220000D01*
X111890000Y-66540000D02*
X111270000Y-65920000D01*
X97345000Y-84625000D02*
X99255000Y-84625000D01*
X94240000Y-65690000D02*
X94130000Y-65800000D01*
X99450000Y-66270000D02*
X100050000Y-66870000D01*
X97310000Y-74860000D02*
X97360000Y-74910000D01*
X91880000Y-61070000D02*
X90550000Y-59740000D01*
X93055000Y-69025000D02*
X91675000Y-69025000D01*
X91675000Y-69025000D02*
X91170000Y-68520000D01*
X99850000Y-66460000D02*
X99850000Y-66670000D01*
X99588000Y-90672000D02*
X99080000Y-91180000D01*
X101218800Y-115689841D02*
X101919840Y-116390881D01*
X111040000Y-101580000D02*
X111070000Y-101610000D01*
X93855000Y-59095000D02*
X93855000Y-57395000D01*
X101218800Y-113843261D02*
X101218800Y-110721200D01*
X100725000Y-84625000D02*
X100800000Y-84700000D01*
X99850000Y-63920000D02*
X99850000Y-66460000D01*
X99450000Y-63920000D02*
X99450000Y-66270000D01*
X94475000Y-94445000D02*
X90845000Y-94445000D01*
X99255000Y-84625000D02*
X100725000Y-84625000D01*
X90845000Y-94445000D02*
X90820000Y-94420000D01*
X97100000Y-67870000D02*
X99050000Y-67870000D01*
X93855000Y-57395000D02*
X93890000Y-57360000D01*
X99010000Y-57760000D02*
X99010000Y-55040000D01*
X104405000Y-88645000D02*
X104405000Y-86925000D01*
X116870000Y-66230000D02*
X116900000Y-66260000D01*
X104405000Y-86925000D02*
X104430000Y-86900000D01*
X101218800Y-110721200D02*
X101220000Y-110720000D01*
X100875000Y-72375000D02*
X100875000Y-72875000D01*
X91170000Y-68520000D02*
X90915000Y-68265000D01*
X99010000Y-57760000D02*
X97940000Y-57760000D01*
X114625000Y-65270000D02*
X115585000Y-66230000D01*
X113355000Y-69080000D02*
X112980000Y-69080000D01*
X99850000Y-66670000D02*
X100050000Y-66870000D01*
X97606800Y-91180000D02*
X99080000Y-91180000D01*
X99692500Y-97802500D02*
X99670000Y-97780000D01*
X101218800Y-113843261D02*
X101218800Y-115689841D01*
X95021200Y-115689841D02*
X94320160Y-116390881D01*
X100553200Y-90672000D02*
X99588000Y-90672000D01*
X109530000Y-101580000D02*
X111040000Y-101580000D01*
X90915000Y-68265000D02*
X90915000Y-66425000D01*
X93530000Y-74860000D02*
X97310000Y-74860000D01*
X98840000Y-74910000D02*
X97360000Y-74910000D01*
X101218800Y-113843261D02*
X99542400Y-113843261D01*
X115820000Y-66230000D02*
X116870000Y-66230000D01*
X95021200Y-113843261D02*
X95021200Y-115689841D01*
X112980000Y-69080000D02*
X110480000Y-71580000D01*
X110480000Y-71580000D02*
X110480000Y-71610000D01*
X99800000Y-73950000D02*
X98840000Y-74910000D01*
%TO.N,Net-(C2-Pad1)*%
X100553200Y-91688000D02*
X102442000Y-91688000D01*
X102442000Y-91688000D02*
X102500000Y-91630000D01*
X102719400Y-92170600D02*
X103000000Y-91890000D01*
X100553200Y-91180000D02*
X102500000Y-91180000D01*
X102500000Y-91630000D02*
X102500000Y-91180000D01*
X102980000Y-91180000D02*
X104400000Y-91180000D01*
X103000000Y-91200000D02*
X102980000Y-91180000D01*
X104400000Y-91180000D02*
X104400000Y-92430000D01*
X102500000Y-91180000D02*
X102980000Y-91180000D01*
X100553200Y-92170600D02*
X102719400Y-92170600D01*
X104405000Y-91175000D02*
X104405000Y-89915000D01*
X103000000Y-91890000D02*
X103000000Y-91200000D01*
X104405000Y-91175000D02*
X104400000Y-91180000D01*
%TO.N,Net-(C8-Pad2)*%
X94325000Y-67625000D02*
X94719511Y-67230489D01*
X95405489Y-67230489D02*
X96445000Y-68270000D01*
X94325000Y-69025000D02*
X94325000Y-67625000D01*
X96445000Y-68270000D02*
X97100000Y-68270000D01*
X94719511Y-67230489D02*
X95405489Y-67230489D01*
%TO.N,Net-(C9-Pad2)*%
X99050000Y-63920000D02*
X99050000Y-62260000D01*
X99050000Y-62260000D02*
X98900000Y-62110000D01*
%TO.N,Net-(C10-Pad2)*%
X99605000Y-72375000D02*
X98935000Y-72375000D01*
X97800000Y-69870000D02*
X97850000Y-69820000D01*
X97800000Y-71240000D02*
X97800000Y-69870000D01*
X98935000Y-72375000D02*
X97800000Y-71240000D01*
%TO.N,Net-(C11-Pad1)*%
X100280000Y-60840000D02*
X100280000Y-58600000D01*
X100280000Y-60840000D02*
X100250000Y-60870000D01*
X100280000Y-58600000D02*
X100300000Y-58580000D01*
X100250000Y-60870000D02*
X100250000Y-63920000D01*
%TO.N,Net-(C12-Pad1)*%
X93855000Y-60365000D02*
X93855000Y-61455000D01*
X98650000Y-63920000D02*
X98650000Y-63100006D01*
X95914994Y-60365000D02*
X93855000Y-60365000D01*
X93855000Y-61455000D02*
X94240000Y-61840000D01*
X98650000Y-63100006D02*
X95914994Y-60365000D01*
%TO.N,Net-(C13-Pad1)*%
X92185000Y-66425000D02*
X92185000Y-64344795D01*
X91520205Y-63680000D02*
X90550000Y-63680000D01*
X92185000Y-64344795D02*
X91520205Y-63680000D01*
X97695000Y-62710000D02*
X96410000Y-62710000D01*
X98250000Y-63920000D02*
X98250000Y-63265000D01*
X98250000Y-63265000D02*
X97695000Y-62710000D01*
%TO.N,/mcu/SWDIO*%
X110090000Y-65270000D02*
X106790000Y-61970000D01*
X106790000Y-61970000D02*
X102560000Y-61970000D01*
X101850000Y-62680000D02*
X101850000Y-63920000D01*
X113355000Y-65270000D02*
X110090000Y-65270000D01*
X102560000Y-61970000D02*
X101850000Y-62680000D01*
%TO.N,Net-(D1-Pad1)*%
X96540000Y-96600000D02*
X96530000Y-96610000D01*
X101580000Y-96600000D02*
X96540000Y-96600000D01*
%TO.N,VBUS*%
X94905000Y-96610000D02*
X94905000Y-98155000D01*
X97687500Y-101577500D02*
X97252500Y-101577500D01*
X94905000Y-98155000D02*
X97687500Y-100937500D01*
X96510000Y-102320000D02*
X96510000Y-104390000D01*
X98742500Y-101577500D02*
X97687500Y-101577500D01*
X97252500Y-101577500D02*
X96510000Y-102320000D01*
X97687500Y-100937500D02*
X97687500Y-101577500D01*
%TO.N,Net-(J1-Pad1)*%
X96742060Y-113178801D02*
X96822060Y-113098801D01*
X96510000Y-105660000D02*
X96510000Y-110445000D01*
X96822060Y-110757060D02*
X96510000Y-110445000D01*
X96510000Y-110445000D02*
X96520000Y-110455000D01*
X96822060Y-113098801D02*
X96822060Y-110757060D01*
%TO.N,Net-(L2-Pad1)*%
X94582000Y-91688000D02*
X94170000Y-92100000D01*
X97606800Y-91688000D02*
X94582000Y-91688000D01*
X97606800Y-91688000D02*
X97382000Y-91688000D01*
X97382000Y-91688000D02*
X97326311Y-91743689D01*
%TO.N,Net-(L2-Pad2)*%
X94942000Y-90672000D02*
X94170000Y-89900000D01*
X97606800Y-90672000D02*
X94942000Y-90672000D01*
%TO.N,Net-(R2-Pad1)*%
X100642500Y-98977500D02*
X102892500Y-98977500D01*
X103300000Y-98570000D02*
X103300000Y-97050000D01*
X102892500Y-98977500D02*
X103300000Y-98570000D01*
X103300000Y-97050000D02*
X102850000Y-96600000D01*
%TO.N,Net-(R3-Pad1)*%
X100645000Y-101580000D02*
X100642500Y-101577500D01*
X103580000Y-101580000D02*
X100645000Y-101580000D01*
%TO.N,Net-(R3-Pad2)*%
X108260000Y-101580000D02*
X104850000Y-101580000D01*
%TO.N,/mcu/RST*%
X103000000Y-64670000D02*
X106910000Y-64670000D01*
X106910000Y-64670000D02*
X107010000Y-64770000D01*
X115940000Y-64840000D02*
X115465000Y-64840000D01*
X115465000Y-64840000D02*
X114625000Y-64000000D01*
%TO.N,/mcu/SWDCLK*%
X112484511Y-66939511D02*
X113355000Y-67810000D01*
X110519511Y-66939511D02*
X112484511Y-66939511D01*
X107500000Y-63920000D02*
X110519511Y-66939511D01*
X102250000Y-63920000D02*
X107500000Y-63920000D01*
%TD*%
%TA.AperFunction,Conductor*%
%TO.N,+3V3*%
G36*
X123883489Y-53718983D02*
G01*
X123919884Y-53768167D01*
X123925000Y-53799581D01*
X123925000Y-55796919D01*
X123925069Y-55797224D01*
X123925113Y-55798013D01*
X123925103Y-55809268D01*
X123925104Y-55809271D01*
X123925094Y-55820417D01*
X123929919Y-55830466D01*
X123930320Y-55831300D01*
X123937594Y-55852131D01*
X123940279Y-55863900D01*
X123947227Y-55872619D01*
X123947631Y-55873126D01*
X123959456Y-55891976D01*
X123964565Y-55902616D01*
X123973269Y-55909577D01*
X123973271Y-55909579D01*
X123973991Y-55910154D01*
X123989580Y-55925769D01*
X123997105Y-55935212D01*
X124007145Y-55940055D01*
X124007148Y-55940057D01*
X124007738Y-55940341D01*
X124026557Y-55952191D01*
X124035778Y-55959565D01*
X124046644Y-55962064D01*
X124046647Y-55962065D01*
X124047543Y-55962271D01*
X124068359Y-55969581D01*
X124069192Y-55969983D01*
X124069195Y-55969984D01*
X124079234Y-55974826D01*
X124101631Y-55974845D01*
X124102425Y-55974891D01*
X124102899Y-55975000D01*
X126376000Y-55975000D01*
X126434191Y-55993907D01*
X126470155Y-56043407D01*
X126475000Y-56074000D01*
X126475000Y-60476000D01*
X126456093Y-60534191D01*
X126406593Y-60570155D01*
X126376000Y-60575000D01*
X125603081Y-60575000D01*
X125602776Y-60575069D01*
X125601987Y-60575113D01*
X125590732Y-60575103D01*
X125590729Y-60575104D01*
X125579583Y-60575094D01*
X125568697Y-60580321D01*
X125547869Y-60587594D01*
X125546970Y-60587799D01*
X125546969Y-60587799D01*
X125536100Y-60590279D01*
X125527381Y-60597227D01*
X125526874Y-60597631D01*
X125508024Y-60609456D01*
X125497384Y-60614565D01*
X125490423Y-60623269D01*
X125490421Y-60623271D01*
X125489846Y-60623991D01*
X125474231Y-60639580D01*
X125464788Y-60647105D01*
X125459945Y-60657145D01*
X125459943Y-60657148D01*
X125459659Y-60657738D01*
X125447809Y-60676557D01*
X125440435Y-60685778D01*
X125437936Y-60696644D01*
X125437935Y-60696647D01*
X125437729Y-60697543D01*
X125430419Y-60718359D01*
X125430017Y-60719192D01*
X125430016Y-60719195D01*
X125425174Y-60729234D01*
X125425155Y-60751623D01*
X125425109Y-60752425D01*
X125425000Y-60752899D01*
X125425000Y-85796919D01*
X125425069Y-85797224D01*
X125425113Y-85798013D01*
X125425103Y-85809268D01*
X125425104Y-85809271D01*
X125425094Y-85820417D01*
X125429919Y-85830466D01*
X125430320Y-85831300D01*
X125437594Y-85852131D01*
X125440279Y-85863900D01*
X125447227Y-85872619D01*
X125447631Y-85873126D01*
X125459456Y-85891976D01*
X125464565Y-85902616D01*
X125473269Y-85909577D01*
X125473271Y-85909579D01*
X125473991Y-85910154D01*
X125489580Y-85925769D01*
X125497105Y-85935212D01*
X125507145Y-85940055D01*
X125507148Y-85940057D01*
X125507738Y-85940341D01*
X125526557Y-85952191D01*
X125535778Y-85959565D01*
X125546644Y-85962064D01*
X125546647Y-85962065D01*
X125547543Y-85962271D01*
X125568359Y-85969581D01*
X125569192Y-85969983D01*
X125569195Y-85969984D01*
X125579234Y-85974826D01*
X125601631Y-85974845D01*
X125602425Y-85974891D01*
X125602899Y-85975000D01*
X126376000Y-85975000D01*
X126434191Y-85993907D01*
X126470155Y-86043407D01*
X126475000Y-86074000D01*
X126475000Y-90476000D01*
X126456093Y-90534191D01*
X126406593Y-90570155D01*
X126376000Y-90575000D01*
X124103081Y-90575000D01*
X124102776Y-90575069D01*
X124101987Y-90575113D01*
X124090732Y-90575103D01*
X124090729Y-90575104D01*
X124079583Y-90575094D01*
X124068697Y-90580321D01*
X124047869Y-90587594D01*
X124046970Y-90587799D01*
X124046969Y-90587799D01*
X124036100Y-90590279D01*
X124027381Y-90597227D01*
X124026874Y-90597631D01*
X124008024Y-90609456D01*
X123997384Y-90614565D01*
X123990423Y-90623269D01*
X123990421Y-90623271D01*
X123989846Y-90623991D01*
X123974231Y-90639580D01*
X123964788Y-90647105D01*
X123959945Y-90657145D01*
X123959943Y-90657148D01*
X123959659Y-90657738D01*
X123947809Y-90676557D01*
X123940435Y-90685778D01*
X123937936Y-90696644D01*
X123937935Y-90696647D01*
X123937729Y-90697543D01*
X123930419Y-90718359D01*
X123930017Y-90719192D01*
X123930016Y-90719195D01*
X123925174Y-90729234D01*
X123925155Y-90751623D01*
X123925109Y-90752425D01*
X123925000Y-90752899D01*
X123925000Y-118476000D01*
X123906093Y-118534191D01*
X123856593Y-118570155D01*
X123826000Y-118575000D01*
X122503081Y-118575000D01*
X122502776Y-118575069D01*
X122501987Y-118575113D01*
X122490732Y-118575103D01*
X122490729Y-118575104D01*
X122479583Y-118575094D01*
X122468697Y-118580321D01*
X122447869Y-118587594D01*
X122446970Y-118587799D01*
X122446969Y-118587799D01*
X122436100Y-118590279D01*
X122427381Y-118597227D01*
X122426874Y-118597631D01*
X122408024Y-118609456D01*
X122397384Y-118614565D01*
X122390423Y-118623269D01*
X122390421Y-118623271D01*
X122389846Y-118623991D01*
X122374231Y-118639580D01*
X122364788Y-118647105D01*
X122359945Y-118657145D01*
X122359943Y-118657148D01*
X122359659Y-118657738D01*
X122347809Y-118676557D01*
X122340435Y-118685778D01*
X122337936Y-118696644D01*
X122337935Y-118696647D01*
X122337729Y-118697543D01*
X122330419Y-118718359D01*
X122330017Y-118719192D01*
X122330016Y-118719195D01*
X122325174Y-118729234D01*
X122325155Y-118751623D01*
X122325109Y-118752425D01*
X122325000Y-118752899D01*
X122325000Y-119576000D01*
X122306093Y-119634191D01*
X122256593Y-119670155D01*
X122226000Y-119675000D01*
X118024000Y-119675000D01*
X117965809Y-119656093D01*
X117929845Y-119606593D01*
X117925000Y-119576000D01*
X117925000Y-118753081D01*
X117924931Y-118752776D01*
X117924887Y-118751987D01*
X117924897Y-118740732D01*
X117924896Y-118740729D01*
X117924906Y-118729583D01*
X117919679Y-118718697D01*
X117912406Y-118697869D01*
X117912201Y-118696970D01*
X117912201Y-118696969D01*
X117909721Y-118686100D01*
X117902369Y-118676874D01*
X117890544Y-118658024D01*
X117890260Y-118657433D01*
X117885435Y-118647384D01*
X117876731Y-118640423D01*
X117876729Y-118640421D01*
X117876009Y-118639846D01*
X117860420Y-118624231D01*
X117852895Y-118614788D01*
X117842855Y-118609945D01*
X117842852Y-118609943D01*
X117842262Y-118609659D01*
X117823443Y-118597809D01*
X117814222Y-118590435D01*
X117803356Y-118587936D01*
X117803353Y-118587935D01*
X117802457Y-118587729D01*
X117781641Y-118580419D01*
X117780808Y-118580017D01*
X117780805Y-118580016D01*
X117770766Y-118575174D01*
X117748369Y-118575155D01*
X117747575Y-118575109D01*
X117747101Y-118575000D01*
X108003081Y-118575000D01*
X108002776Y-118575069D01*
X108001987Y-118575113D01*
X107990732Y-118575103D01*
X107990729Y-118575104D01*
X107979583Y-118575094D01*
X107968697Y-118580321D01*
X107947869Y-118587594D01*
X107946970Y-118587799D01*
X107946969Y-118587799D01*
X107936100Y-118590279D01*
X107927381Y-118597227D01*
X107926874Y-118597631D01*
X107908024Y-118609456D01*
X107897384Y-118614565D01*
X107890423Y-118623269D01*
X107890421Y-118623271D01*
X107889846Y-118623991D01*
X107874231Y-118639580D01*
X107864788Y-118647105D01*
X107859945Y-118657145D01*
X107859943Y-118657148D01*
X107859659Y-118657738D01*
X107847809Y-118676557D01*
X107840435Y-118685778D01*
X107837936Y-118696644D01*
X107837935Y-118696647D01*
X107837729Y-118697543D01*
X107830419Y-118718359D01*
X107830017Y-118719192D01*
X107830016Y-118719195D01*
X107825174Y-118729234D01*
X107825155Y-118751623D01*
X107825109Y-118752425D01*
X107825000Y-118752899D01*
X107825000Y-119576000D01*
X107806093Y-119634191D01*
X107756593Y-119670155D01*
X107726000Y-119675000D01*
X103524000Y-119675000D01*
X103465809Y-119656093D01*
X103429845Y-119606593D01*
X103425000Y-119576000D01*
X103425000Y-118753081D01*
X103424931Y-118752776D01*
X103424887Y-118751987D01*
X103424897Y-118740732D01*
X103424896Y-118740729D01*
X103424906Y-118729583D01*
X103419679Y-118718697D01*
X103412406Y-118697869D01*
X103412201Y-118696970D01*
X103412201Y-118696969D01*
X103409721Y-118686100D01*
X103402369Y-118676874D01*
X103390544Y-118658024D01*
X103390260Y-118657433D01*
X103385435Y-118647384D01*
X103376731Y-118640423D01*
X103376729Y-118640421D01*
X103376009Y-118639846D01*
X103360420Y-118624231D01*
X103352895Y-118614788D01*
X103342855Y-118609945D01*
X103342852Y-118609943D01*
X103342262Y-118609659D01*
X103323443Y-118597809D01*
X103314222Y-118590435D01*
X103303356Y-118587936D01*
X103303353Y-118587935D01*
X103302457Y-118587729D01*
X103281641Y-118580419D01*
X103280808Y-118580017D01*
X103280805Y-118580016D01*
X103270766Y-118575174D01*
X103248369Y-118575155D01*
X103247575Y-118575109D01*
X103247101Y-118575000D01*
X93503081Y-118575000D01*
X93502776Y-118575069D01*
X93501987Y-118575113D01*
X93490732Y-118575103D01*
X93490729Y-118575104D01*
X93479583Y-118575094D01*
X93468697Y-118580321D01*
X93447869Y-118587594D01*
X93446970Y-118587799D01*
X93446969Y-118587799D01*
X93436100Y-118590279D01*
X93427381Y-118597227D01*
X93426874Y-118597631D01*
X93408024Y-118609456D01*
X93397384Y-118614565D01*
X93390423Y-118623269D01*
X93390421Y-118623271D01*
X93389846Y-118623991D01*
X93374231Y-118639580D01*
X93364788Y-118647105D01*
X93359945Y-118657145D01*
X93359943Y-118657148D01*
X93359659Y-118657738D01*
X93347809Y-118676557D01*
X93340435Y-118685778D01*
X93337936Y-118696644D01*
X93337935Y-118696647D01*
X93337729Y-118697543D01*
X93330419Y-118718359D01*
X93330017Y-118719192D01*
X93330016Y-118719195D01*
X93325174Y-118729234D01*
X93325155Y-118751623D01*
X93325109Y-118752425D01*
X93325000Y-118752899D01*
X93325000Y-119576000D01*
X93306093Y-119634191D01*
X93256593Y-119670155D01*
X93226000Y-119675000D01*
X89024000Y-119675000D01*
X88965809Y-119656093D01*
X88929845Y-119606593D01*
X88925000Y-119576000D01*
X88925000Y-118753081D01*
X88924931Y-118752776D01*
X88924887Y-118751987D01*
X88924897Y-118740732D01*
X88924896Y-118740729D01*
X88924906Y-118729583D01*
X88919679Y-118718697D01*
X88912406Y-118697869D01*
X88912201Y-118696970D01*
X88912201Y-118696969D01*
X88909721Y-118686100D01*
X88902369Y-118676874D01*
X88890544Y-118658024D01*
X88890260Y-118657433D01*
X88885435Y-118647384D01*
X88876731Y-118640423D01*
X88876729Y-118640421D01*
X88876009Y-118639846D01*
X88860420Y-118624231D01*
X88852895Y-118614788D01*
X88842855Y-118609945D01*
X88842852Y-118609943D01*
X88842262Y-118609659D01*
X88823443Y-118597809D01*
X88814222Y-118590435D01*
X88803356Y-118587936D01*
X88803353Y-118587935D01*
X88802457Y-118587729D01*
X88781641Y-118580419D01*
X88780808Y-118580017D01*
X88780805Y-118580016D01*
X88770766Y-118575174D01*
X88748369Y-118575155D01*
X88747575Y-118575109D01*
X88747101Y-118575000D01*
X87424000Y-118575000D01*
X87365809Y-118556093D01*
X87329845Y-118506593D01*
X87325000Y-118476000D01*
X87325000Y-115440921D01*
X93215500Y-115440921D01*
X93215500Y-117340841D01*
X93231143Y-117419482D01*
X93275690Y-117486151D01*
X93342359Y-117530698D01*
X93351922Y-117532600D01*
X93351924Y-117532601D01*
X93377200Y-117537628D01*
X93421000Y-117546341D01*
X95219320Y-117546341D01*
X95263120Y-117537628D01*
X95288396Y-117532601D01*
X95288398Y-117532600D01*
X95297961Y-117530698D01*
X95364630Y-117486151D01*
X95409177Y-117419482D01*
X95424820Y-117340841D01*
X95424820Y-116815381D01*
X95443727Y-116757190D01*
X95493227Y-116721226D01*
X95523820Y-116716381D01*
X95666660Y-116716381D01*
X95724851Y-116735288D01*
X95760815Y-116784788D01*
X95765660Y-116815381D01*
X95765660Y-117340841D01*
X95781303Y-117419482D01*
X95825850Y-117486151D01*
X95892519Y-117530698D01*
X95902082Y-117532600D01*
X95902084Y-117532601D01*
X95927360Y-117537628D01*
X95971160Y-117546341D01*
X97871080Y-117546341D01*
X97914880Y-117537628D01*
X97940156Y-117532601D01*
X97940158Y-117532600D01*
X97949721Y-117530698D01*
X98016390Y-117486151D01*
X98037685Y-117454281D01*
X98085735Y-117416402D01*
X98146873Y-117414000D01*
X98197747Y-117447993D01*
X98202315Y-117454281D01*
X98223610Y-117486151D01*
X98290279Y-117530698D01*
X98299842Y-117532600D01*
X98299844Y-117532601D01*
X98325120Y-117537628D01*
X98368920Y-117546341D01*
X100268840Y-117546341D01*
X100312640Y-117537628D01*
X100337916Y-117532601D01*
X100337918Y-117532600D01*
X100347481Y-117530698D01*
X100414150Y-117486151D01*
X100458697Y-117419482D01*
X100474340Y-117340841D01*
X100474340Y-116815381D01*
X100493247Y-116757190D01*
X100542747Y-116721226D01*
X100573340Y-116716381D01*
X100716180Y-116716381D01*
X100774371Y-116735288D01*
X100810335Y-116784788D01*
X100815180Y-116815381D01*
X100815180Y-117340841D01*
X100830823Y-117419482D01*
X100875370Y-117486151D01*
X100942039Y-117530698D01*
X100951602Y-117532600D01*
X100951604Y-117532601D01*
X100976880Y-117537628D01*
X101020680Y-117546341D01*
X102819000Y-117546341D01*
X102862800Y-117537628D01*
X102888076Y-117532601D01*
X102888078Y-117532600D01*
X102897641Y-117530698D01*
X102964310Y-117486151D01*
X103008857Y-117419482D01*
X103024500Y-117340841D01*
X103024500Y-115440921D01*
X103008857Y-115362280D01*
X102964310Y-115295611D01*
X102897641Y-115251064D01*
X102888078Y-115249162D01*
X102888076Y-115249161D01*
X102862800Y-115244134D01*
X102819000Y-115235421D01*
X101643300Y-115235421D01*
X101585109Y-115216514D01*
X101549145Y-115167014D01*
X101544300Y-115136421D01*
X101544300Y-114946591D01*
X101563207Y-114888400D01*
X101612707Y-114852436D01*
X101643300Y-114847591D01*
X102267820Y-114847591D01*
X102311620Y-114838878D01*
X102336896Y-114833851D01*
X102336898Y-114833850D01*
X102346461Y-114831948D01*
X102413130Y-114787401D01*
X102457677Y-114720732D01*
X102473320Y-114642091D01*
X102473320Y-113044431D01*
X102464607Y-113000631D01*
X102459580Y-112975355D01*
X102459579Y-112975353D01*
X102457677Y-112965790D01*
X102413130Y-112899121D01*
X102346461Y-112854574D01*
X102336898Y-112852672D01*
X102336896Y-112852671D01*
X102311620Y-112847644D01*
X102267820Y-112838931D01*
X101643300Y-112838931D01*
X101585109Y-112820024D01*
X101549145Y-112770524D01*
X101544300Y-112739931D01*
X101544300Y-111145532D01*
X101563207Y-111087341D01*
X101569903Y-111079095D01*
X101634346Y-111007900D01*
X101634346Y-111007899D01*
X101639078Y-111002672D01*
X101701570Y-110873689D01*
X101704557Y-110855939D01*
X101724715Y-110736120D01*
X101724715Y-110736117D01*
X101725349Y-110732350D01*
X101725500Y-110720000D01*
X101705182Y-110578123D01*
X101701952Y-110571017D01*
X101648780Y-110454073D01*
X101648780Y-110454072D01*
X101645860Y-110447651D01*
X101552303Y-110339074D01*
X101432033Y-110261118D01*
X101425275Y-110259097D01*
X101425273Y-110259096D01*
X101301479Y-110222074D01*
X101294718Y-110220052D01*
X101208694Y-110219527D01*
X101158448Y-110219220D01*
X101151396Y-110219177D01*
X101144620Y-110221114D01*
X101144617Y-110221114D01*
X101020369Y-110256624D01*
X101020367Y-110256625D01*
X101013589Y-110258562D01*
X100892375Y-110335042D01*
X100797499Y-110442469D01*
X100736588Y-110572206D01*
X100714538Y-110713824D01*
X100733121Y-110855939D01*
X100735962Y-110862395D01*
X100735962Y-110862396D01*
X100766983Y-110932895D01*
X100790845Y-110987126D01*
X100842418Y-111048479D01*
X100870083Y-111081391D01*
X100893053Y-111138101D01*
X100893300Y-111145093D01*
X100893300Y-112739931D01*
X100874393Y-112798122D01*
X100824893Y-112834086D01*
X100794300Y-112838931D01*
X100169780Y-112838931D01*
X100125980Y-112847644D01*
X100100704Y-112852671D01*
X100100702Y-112852672D01*
X100091139Y-112854574D01*
X100024470Y-112899121D01*
X99979923Y-112965790D01*
X99979181Y-112965294D01*
X99945280Y-113004985D01*
X99885785Y-113019267D01*
X99829257Y-112995850D01*
X99807342Y-112965686D01*
X99807187Y-112965790D01*
X99804548Y-112961840D01*
X99804544Y-112961835D01*
X99762640Y-112899121D01*
X99695971Y-112854574D01*
X99686408Y-112852672D01*
X99686406Y-112852671D01*
X99661130Y-112847644D01*
X99617330Y-112838931D01*
X99218550Y-112838931D01*
X99139909Y-112854574D01*
X99131802Y-112859991D01*
X99130706Y-112860445D01*
X99069710Y-112865246D01*
X99054934Y-112860445D01*
X99053838Y-112859991D01*
X99045731Y-112854574D01*
X98967090Y-112838931D01*
X98568310Y-112838931D01*
X98489669Y-112854574D01*
X98481661Y-112859925D01*
X98420740Y-112864720D01*
X98406093Y-112859961D01*
X98398031Y-112854574D01*
X98319390Y-112838931D01*
X97920610Y-112838931D01*
X97841969Y-112854574D01*
X97833961Y-112859925D01*
X97773040Y-112864720D01*
X97758393Y-112859961D01*
X97750331Y-112854574D01*
X97671690Y-112838931D01*
X97272910Y-112838931D01*
X97265878Y-112840330D01*
X97264827Y-112840205D01*
X97263298Y-112840356D01*
X97263265Y-112840021D01*
X97205118Y-112833142D01*
X97160186Y-112791612D01*
X97147560Y-112743233D01*
X97147560Y-110775344D01*
X97147937Y-110766716D01*
X97150547Y-110736881D01*
X97151302Y-110728254D01*
X97141244Y-110690718D01*
X97139376Y-110682290D01*
X97139371Y-110682258D01*
X97132628Y-110644022D01*
X97128299Y-110636523D01*
X97126308Y-110631054D01*
X97123836Y-110625754D01*
X97121594Y-110617385D01*
X97099308Y-110585557D01*
X97094668Y-110578274D01*
X97090254Y-110570629D01*
X97075238Y-110544619D01*
X97045661Y-110519801D01*
X97039294Y-110513967D01*
X96864496Y-110339169D01*
X96836719Y-110284652D01*
X96835500Y-110269165D01*
X96835500Y-106485312D01*
X96854407Y-106427121D01*
X96895192Y-106397982D01*
X96893935Y-106395364D01*
X97009361Y-106339937D01*
X97016029Y-106336735D01*
X97115486Y-106244798D01*
X97144585Y-106194700D01*
X97179795Y-106134083D01*
X97179796Y-106134080D01*
X97183513Y-106127681D01*
X97210500Y-106011252D01*
X97210500Y-105326742D01*
X97195364Y-105226065D01*
X97182624Y-105199533D01*
X97139937Y-105110639D01*
X97136735Y-105103971D01*
X97127009Y-105093449D01*
X97101395Y-105037883D01*
X97113333Y-104977874D01*
X97115273Y-104974995D01*
X97115486Y-104974798D01*
X97136299Y-104938966D01*
X97179795Y-104864083D01*
X97179796Y-104864080D01*
X97183513Y-104857681D01*
X97210500Y-104741252D01*
X97210500Y-104056742D01*
X97195364Y-103956065D01*
X97182624Y-103929533D01*
X97139937Y-103840639D01*
X97136735Y-103833971D01*
X97044798Y-103734514D01*
X96927681Y-103666487D01*
X96912146Y-103662886D01*
X96859727Y-103631328D01*
X96835869Y-103574986D01*
X96835500Y-103566443D01*
X96835500Y-102495835D01*
X96854407Y-102437644D01*
X96864496Y-102425831D01*
X97358330Y-101931996D01*
X97412847Y-101904219D01*
X97428334Y-101903000D01*
X98165934Y-101903000D01*
X98224125Y-101921907D01*
X98260089Y-101971407D01*
X98263030Y-101982679D01*
X98277643Y-102056141D01*
X98283062Y-102064251D01*
X98314630Y-102111495D01*
X98322190Y-102122810D01*
X98388859Y-102167357D01*
X98398422Y-102169259D01*
X98398424Y-102169260D01*
X98423700Y-102174287D01*
X98467500Y-102183000D01*
X99017500Y-102183000D01*
X99022263Y-102182052D01*
X99027112Y-102181575D01*
X99027251Y-102182984D01*
X99081952Y-102189461D01*
X99126880Y-102230996D01*
X99139500Y-102279365D01*
X99139500Y-102890021D01*
X99130115Y-102932094D01*
X99106588Y-102982206D01*
X99084538Y-103123824D01*
X99103121Y-103265939D01*
X99105962Y-103272395D01*
X99105962Y-103272396D01*
X99107870Y-103276731D01*
X99160845Y-103397126D01*
X99253068Y-103506838D01*
X99258939Y-103510746D01*
X99258940Y-103510747D01*
X99271235Y-103518931D01*
X99372377Y-103586257D01*
X99379104Y-103588359D01*
X99379107Y-103588360D01*
X99502448Y-103626894D01*
X99502449Y-103626894D01*
X99509180Y-103628997D01*
X99580831Y-103630311D01*
X99645427Y-103631495D01*
X99645429Y-103631495D01*
X99652481Y-103631624D01*
X99659284Y-103629769D01*
X99659286Y-103629769D01*
X99706065Y-103617015D01*
X99790758Y-103593925D01*
X99912897Y-103518931D01*
X100009078Y-103412672D01*
X100071570Y-103283689D01*
X100074557Y-103265939D01*
X100094715Y-103146120D01*
X100094715Y-103146117D01*
X100095349Y-103142350D01*
X100095500Y-103130000D01*
X100075182Y-102988123D01*
X100049378Y-102931370D01*
X100040500Y-102890394D01*
X100040500Y-102177251D01*
X100059407Y-102119060D01*
X100108907Y-102083096D01*
X100170093Y-102083096D01*
X100206805Y-102110882D01*
X100209879Y-102107808D01*
X100216771Y-102114700D01*
X100222190Y-102122810D01*
X100288859Y-102167357D01*
X100298422Y-102169259D01*
X100298424Y-102169260D01*
X100323700Y-102174287D01*
X100367500Y-102183000D01*
X100917500Y-102183000D01*
X100961300Y-102174287D01*
X100986576Y-102169260D01*
X100986578Y-102169259D01*
X100996141Y-102167357D01*
X101062810Y-102122810D01*
X101070371Y-102111495D01*
X101101938Y-102064251D01*
X101107357Y-102056141D01*
X101121471Y-101985186D01*
X101151368Y-101931802D01*
X101206933Y-101906186D01*
X101218569Y-101905500D01*
X102754688Y-101905500D01*
X102812879Y-101924407D01*
X102842018Y-101965192D01*
X102844636Y-101963935D01*
X102903265Y-102086029D01*
X102995202Y-102185486D01*
X103045300Y-102214585D01*
X103105917Y-102249795D01*
X103105920Y-102249796D01*
X103112319Y-102253513D01*
X103149624Y-102262160D01*
X103223246Y-102279225D01*
X103223249Y-102279225D01*
X103228748Y-102280500D01*
X103913258Y-102280500D01*
X103949697Y-102275022D01*
X104006614Y-102266465D01*
X104006616Y-102266464D01*
X104013935Y-102265364D01*
X104020606Y-102262161D01*
X104020608Y-102262160D01*
X104129361Y-102209937D01*
X104136029Y-102206735D01*
X104146550Y-102197009D01*
X104202117Y-102171395D01*
X104262126Y-102183333D01*
X104265005Y-102185273D01*
X104265202Y-102185486D01*
X104293139Y-102201713D01*
X104375917Y-102249795D01*
X104375920Y-102249796D01*
X104382319Y-102253513D01*
X104419624Y-102262160D01*
X104493246Y-102279225D01*
X104493249Y-102279225D01*
X104498748Y-102280500D01*
X105183258Y-102280500D01*
X105219697Y-102275022D01*
X105276614Y-102266465D01*
X105276616Y-102266464D01*
X105283935Y-102265364D01*
X105290606Y-102262161D01*
X105290608Y-102262160D01*
X105399361Y-102209937D01*
X105406029Y-102206735D01*
X105505486Y-102114798D01*
X105573513Y-101997681D01*
X105577114Y-101982146D01*
X105608672Y-101929727D01*
X105665014Y-101905869D01*
X105673557Y-101905500D01*
X107434688Y-101905500D01*
X107492879Y-101924407D01*
X107522018Y-101965192D01*
X107524636Y-101963935D01*
X107583265Y-102086029D01*
X107675202Y-102185486D01*
X107725300Y-102214585D01*
X107785917Y-102249795D01*
X107785920Y-102249796D01*
X107792319Y-102253513D01*
X107829624Y-102262160D01*
X107903246Y-102279225D01*
X107903249Y-102279225D01*
X107908748Y-102280500D01*
X108593258Y-102280500D01*
X108629697Y-102275022D01*
X108686614Y-102266465D01*
X108686616Y-102266464D01*
X108693935Y-102265364D01*
X108700606Y-102262161D01*
X108700608Y-102262160D01*
X108809361Y-102209937D01*
X108816029Y-102206735D01*
X108826550Y-102197009D01*
X108882117Y-102171395D01*
X108942126Y-102183333D01*
X108945005Y-102185273D01*
X108945202Y-102185486D01*
X108973139Y-102201713D01*
X109055917Y-102249795D01*
X109055920Y-102249796D01*
X109062319Y-102253513D01*
X109099624Y-102262160D01*
X109173246Y-102279225D01*
X109173249Y-102279225D01*
X109178748Y-102280500D01*
X109863258Y-102280500D01*
X109899697Y-102275022D01*
X109956614Y-102266465D01*
X109956616Y-102266464D01*
X109963935Y-102265364D01*
X109970606Y-102262161D01*
X109970608Y-102262160D01*
X110079361Y-102209937D01*
X110086029Y-102206735D01*
X110185486Y-102114798D01*
X110253513Y-101997681D01*
X110257114Y-101982146D01*
X110288672Y-101929727D01*
X110345014Y-101905869D01*
X110353557Y-101905500D01*
X110618584Y-101905500D01*
X110676775Y-101924407D01*
X110694367Y-101940798D01*
X110733068Y-101986838D01*
X110738939Y-101990746D01*
X110738940Y-101990747D01*
X110749357Y-101997681D01*
X110852377Y-102066257D01*
X110859104Y-102068359D01*
X110859107Y-102068360D01*
X110982448Y-102106894D01*
X110982449Y-102106894D01*
X110989180Y-102108997D01*
X111060830Y-102110310D01*
X111125427Y-102111495D01*
X111125429Y-102111495D01*
X111132481Y-102111624D01*
X111139284Y-102109769D01*
X111139286Y-102109769D01*
X111226361Y-102086029D01*
X111270758Y-102073925D01*
X111392897Y-101998931D01*
X111403843Y-101986838D01*
X111484346Y-101897900D01*
X111484346Y-101897899D01*
X111489078Y-101892672D01*
X111551570Y-101763689D01*
X111575349Y-101622350D01*
X111575500Y-101610000D01*
X111555182Y-101468123D01*
X111495860Y-101337651D01*
X111402303Y-101229074D01*
X111282033Y-101151118D01*
X111275275Y-101149097D01*
X111275273Y-101149096D01*
X111151479Y-101112074D01*
X111144718Y-101110052D01*
X111058694Y-101109527D01*
X111008448Y-101109220D01*
X111001396Y-101109177D01*
X110994620Y-101111114D01*
X110994617Y-101111114D01*
X110870369Y-101146624D01*
X110870367Y-101146625D01*
X110863589Y-101148562D01*
X110742375Y-101225042D01*
X110737703Y-101230332D01*
X110737045Y-101230892D01*
X110680476Y-101254208D01*
X110672880Y-101254500D01*
X110355312Y-101254500D01*
X110297121Y-101235593D01*
X110267982Y-101194808D01*
X110265364Y-101196065D01*
X110209937Y-101080639D01*
X110206735Y-101073971D01*
X110114798Y-100974514D01*
X110064700Y-100945415D01*
X110004083Y-100910205D01*
X110004080Y-100910204D01*
X109997681Y-100906487D01*
X109941803Y-100893535D01*
X109886754Y-100880775D01*
X109886751Y-100880775D01*
X109881252Y-100879500D01*
X109196742Y-100879500D01*
X109160303Y-100884978D01*
X109103386Y-100893535D01*
X109103384Y-100893536D01*
X109096065Y-100894636D01*
X109089394Y-100897839D01*
X109089392Y-100897840D01*
X109047524Y-100917945D01*
X108973971Y-100953265D01*
X108968539Y-100958287D01*
X108968538Y-100958287D01*
X108963449Y-100962991D01*
X108907883Y-100988605D01*
X108847874Y-100976667D01*
X108844995Y-100974727D01*
X108844798Y-100974514D01*
X108797698Y-100947156D01*
X108734083Y-100910205D01*
X108734080Y-100910204D01*
X108727681Y-100906487D01*
X108671803Y-100893535D01*
X108616754Y-100880775D01*
X108616751Y-100880775D01*
X108611252Y-100879500D01*
X107926742Y-100879500D01*
X107890303Y-100884978D01*
X107833386Y-100893535D01*
X107833384Y-100893536D01*
X107826065Y-100894636D01*
X107819394Y-100897839D01*
X107819392Y-100897840D01*
X107777524Y-100917945D01*
X107703971Y-100953265D01*
X107604514Y-101045202D01*
X107600797Y-101051602D01*
X107544168Y-101149096D01*
X107536487Y-101162319D01*
X107534816Y-101169529D01*
X107532886Y-101177854D01*
X107501328Y-101230273D01*
X107444986Y-101254131D01*
X107436443Y-101254500D01*
X105675312Y-101254500D01*
X105617121Y-101235593D01*
X105587982Y-101194808D01*
X105585364Y-101196065D01*
X105529937Y-101080639D01*
X105526735Y-101073971D01*
X105434798Y-100974514D01*
X105384700Y-100945415D01*
X105324083Y-100910205D01*
X105324080Y-100910204D01*
X105317681Y-100906487D01*
X105261803Y-100893535D01*
X105206754Y-100880775D01*
X105206751Y-100880775D01*
X105201252Y-100879500D01*
X104516742Y-100879500D01*
X104480303Y-100884978D01*
X104423386Y-100893535D01*
X104423384Y-100893536D01*
X104416065Y-100894636D01*
X104409394Y-100897839D01*
X104409392Y-100897840D01*
X104367524Y-100917945D01*
X104293971Y-100953265D01*
X104288539Y-100958287D01*
X104288538Y-100958287D01*
X104283449Y-100962991D01*
X104227883Y-100988605D01*
X104167874Y-100976667D01*
X104164995Y-100974727D01*
X104164798Y-100974514D01*
X104117698Y-100947156D01*
X104054083Y-100910205D01*
X104054080Y-100910204D01*
X104047681Y-100906487D01*
X103991803Y-100893535D01*
X103936754Y-100880775D01*
X103936751Y-100880775D01*
X103931252Y-100879500D01*
X103246742Y-100879500D01*
X103210303Y-100884978D01*
X103153386Y-100893535D01*
X103153384Y-100893536D01*
X103146065Y-100894636D01*
X103139394Y-100897839D01*
X103139392Y-100897840D01*
X103097524Y-100917945D01*
X103023971Y-100953265D01*
X102924514Y-101045202D01*
X102920797Y-101051602D01*
X102864168Y-101149096D01*
X102856487Y-101162319D01*
X102854816Y-101169529D01*
X102852886Y-101177854D01*
X102821328Y-101230273D01*
X102764986Y-101254131D01*
X102756443Y-101254500D01*
X101219564Y-101254500D01*
X101161373Y-101235593D01*
X101125409Y-101186093D01*
X101122466Y-101174815D01*
X101118516Y-101154956D01*
X101107357Y-101098859D01*
X101062810Y-101032190D01*
X100996141Y-100987643D01*
X100986578Y-100985741D01*
X100986576Y-100985740D01*
X100957461Y-100979949D01*
X100917500Y-100972000D01*
X100367500Y-100972000D01*
X100327539Y-100979949D01*
X100298424Y-100985740D01*
X100298422Y-100985741D01*
X100288859Y-100987643D01*
X100222190Y-101032190D01*
X100216771Y-101040300D01*
X100209879Y-101047192D01*
X100207067Y-101044380D01*
X100173748Y-101070636D01*
X100112610Y-101073027D01*
X100061742Y-101039025D01*
X100040500Y-100977749D01*
X100040500Y-100761877D01*
X100041186Y-100750241D01*
X100044405Y-100723040D01*
X100045275Y-100715692D01*
X100043946Y-100708415D01*
X100043946Y-100708412D01*
X100034663Y-100657586D01*
X100034152Y-100654518D01*
X100026464Y-100603381D01*
X100025364Y-100596065D01*
X100022239Y-100589557D01*
X100020942Y-100582455D01*
X99993706Y-100530023D01*
X99992317Y-100527244D01*
X99969938Y-100480642D01*
X99966735Y-100473971D01*
X99962632Y-100469532D01*
X99961108Y-100467271D01*
X99958507Y-100462264D01*
X99953475Y-100456372D01*
X99915048Y-100417945D01*
X99912354Y-100415142D01*
X99879822Y-100379949D01*
X99874798Y-100374514D01*
X99868923Y-100371101D01*
X99862042Y-100364939D01*
X99221996Y-99724892D01*
X99194219Y-99670375D01*
X99193000Y-99654888D01*
X99193000Y-99653045D01*
X99211907Y-99594854D01*
X99261407Y-99558890D01*
X99322593Y-99558890D01*
X99329887Y-99561581D01*
X99330749Y-99561938D01*
X99338859Y-99567357D01*
X99348422Y-99569259D01*
X99348424Y-99569260D01*
X99373700Y-99574287D01*
X99417500Y-99583000D01*
X99967500Y-99583000D01*
X100011300Y-99574287D01*
X100036576Y-99569260D01*
X100036578Y-99569259D01*
X100046141Y-99567357D01*
X100079476Y-99545083D01*
X100104700Y-99528229D01*
X100112810Y-99522810D01*
X100124644Y-99505099D01*
X100172693Y-99467220D01*
X100233831Y-99464818D01*
X100270595Y-99484263D01*
X100333500Y-99537047D01*
X100445439Y-99577789D01*
X100447851Y-99578000D01*
X100808357Y-99578000D01*
X100897313Y-99562315D01*
X100904809Y-99557987D01*
X100904812Y-99557986D01*
X100992974Y-99507085D01*
X100992977Y-99507083D01*
X101000476Y-99502753D01*
X101077047Y-99411500D01*
X101092828Y-99368141D01*
X101130497Y-99319926D01*
X101185858Y-99303000D01*
X102874215Y-99303000D01*
X102882844Y-99303377D01*
X102921305Y-99306742D01*
X102958842Y-99296684D01*
X102967274Y-99294815D01*
X102997009Y-99289572D01*
X102997010Y-99289572D01*
X103005538Y-99288068D01*
X103013039Y-99283737D01*
X103018517Y-99281743D01*
X103023806Y-99279277D01*
X103032175Y-99277035D01*
X103039272Y-99272066D01*
X103064014Y-99254742D01*
X103071296Y-99250103D01*
X103097441Y-99235008D01*
X103097440Y-99235008D01*
X103104941Y-99230678D01*
X103129759Y-99201101D01*
X103135593Y-99194734D01*
X103517234Y-98813093D01*
X103523602Y-98807258D01*
X103553178Y-98782441D01*
X103572604Y-98748795D01*
X103577242Y-98741514D01*
X103594566Y-98716772D01*
X103594567Y-98716771D01*
X103599535Y-98709675D01*
X103601777Y-98701306D01*
X103604243Y-98696017D01*
X103606237Y-98690539D01*
X103610568Y-98683038D01*
X103617315Y-98644774D01*
X103619184Y-98636342D01*
X103627001Y-98607168D01*
X103629242Y-98598805D01*
X103625877Y-98560344D01*
X103625500Y-98551715D01*
X103625500Y-97068285D01*
X103625877Y-97059656D01*
X103628487Y-97029822D01*
X103629242Y-97021195D01*
X103619184Y-96983658D01*
X103617315Y-96975226D01*
X103612072Y-96945489D01*
X103612071Y-96945486D01*
X103610568Y-96936962D01*
X103606411Y-96929763D01*
X103600500Y-96896242D01*
X103600500Y-96316742D01*
X103585364Y-96216065D01*
X103569160Y-96182319D01*
X103529937Y-96100639D01*
X103526735Y-96093971D01*
X103434798Y-95994514D01*
X103384700Y-95965415D01*
X103324083Y-95930205D01*
X103324080Y-95930204D01*
X103317681Y-95926487D01*
X103261803Y-95913535D01*
X103206754Y-95900775D01*
X103206751Y-95900775D01*
X103201252Y-95899500D01*
X102516742Y-95899500D01*
X102480303Y-95904978D01*
X102423386Y-95913535D01*
X102423384Y-95913536D01*
X102416065Y-95914636D01*
X102409394Y-95917839D01*
X102409392Y-95917840D01*
X102300639Y-95970063D01*
X102293971Y-95973265D01*
X102288539Y-95978287D01*
X102288538Y-95978287D01*
X102283449Y-95982991D01*
X102227883Y-96008605D01*
X102167874Y-95996667D01*
X102164995Y-95994727D01*
X102164798Y-95994514D01*
X102122703Y-95970063D01*
X102054083Y-95930205D01*
X102054080Y-95930204D01*
X102047681Y-95926487D01*
X101991803Y-95913535D01*
X101936754Y-95900775D01*
X101936751Y-95900775D01*
X101931252Y-95899500D01*
X101246742Y-95899500D01*
X101210303Y-95904978D01*
X101153386Y-95913535D01*
X101153384Y-95913536D01*
X101146065Y-95914636D01*
X101139394Y-95917839D01*
X101139392Y-95917840D01*
X101030639Y-95970063D01*
X101023971Y-95973265D01*
X100924514Y-96065202D01*
X100920797Y-96071602D01*
X100870178Y-96158749D01*
X100856487Y-96182319D01*
X100854816Y-96189529D01*
X100852886Y-96197854D01*
X100821328Y-96250273D01*
X100764986Y-96274131D01*
X100756443Y-96274500D01*
X97391352Y-96274500D01*
X97333161Y-96255593D01*
X97303143Y-96220446D01*
X97283716Y-96182319D01*
X97268169Y-96151806D01*
X97175694Y-96059331D01*
X97168750Y-96055793D01*
X97168749Y-96055792D01*
X97066113Y-96003496D01*
X97066112Y-96003496D01*
X97059169Y-95999958D01*
X97051474Y-95998739D01*
X97051473Y-95998739D01*
X96965415Y-95985109D01*
X96965413Y-95985109D01*
X96961569Y-95984500D01*
X96098431Y-95984500D01*
X96094587Y-95985109D01*
X96094585Y-95985109D01*
X96008527Y-95998739D01*
X96008526Y-95998739D01*
X96000831Y-95999958D01*
X95993888Y-96003496D01*
X95993887Y-96003496D01*
X95891251Y-96055792D01*
X95891250Y-96055793D01*
X95884306Y-96059331D01*
X95791831Y-96151806D01*
X95790863Y-96150838D01*
X95748096Y-96181912D01*
X95686910Y-96181914D01*
X95644137Y-96150838D01*
X95643169Y-96151806D01*
X95550694Y-96059331D01*
X95543750Y-96055793D01*
X95543749Y-96055792D01*
X95441113Y-96003496D01*
X95441112Y-96003496D01*
X95434169Y-95999958D01*
X95426474Y-95998739D01*
X95426473Y-95998739D01*
X95340415Y-95985109D01*
X95340413Y-95985109D01*
X95336569Y-95984500D01*
X94473431Y-95984500D01*
X94469587Y-95985109D01*
X94469585Y-95985109D01*
X94383527Y-95998739D01*
X94383526Y-95998739D01*
X94375831Y-95999958D01*
X94368888Y-96003496D01*
X94368887Y-96003496D01*
X94266251Y-96055792D01*
X94266250Y-96055793D01*
X94259306Y-96059331D01*
X94166831Y-96151806D01*
X94163293Y-96158749D01*
X94163292Y-96158751D01*
X94147610Y-96189529D01*
X94107458Y-96268331D01*
X94106239Y-96276026D01*
X94106239Y-96276027D01*
X94099205Y-96320442D01*
X94092000Y-96365931D01*
X94092000Y-96854069D01*
X94092609Y-96857913D01*
X94092609Y-96857915D01*
X94103313Y-96925500D01*
X94107458Y-96951669D01*
X94110996Y-96958612D01*
X94110996Y-96958613D01*
X94162481Y-97059656D01*
X94166831Y-97068194D01*
X94259306Y-97160669D01*
X94266250Y-97164207D01*
X94266251Y-97164208D01*
X94350598Y-97207185D01*
X94375831Y-97220042D01*
X94383526Y-97221261D01*
X94383527Y-97221261D01*
X94469585Y-97234891D01*
X94469587Y-97234891D01*
X94473431Y-97235500D01*
X94480500Y-97235500D01*
X94538691Y-97254407D01*
X94574655Y-97303907D01*
X94579500Y-97334500D01*
X94579500Y-98136715D01*
X94579123Y-98145344D01*
X94575758Y-98183805D01*
X94577999Y-98192168D01*
X94585816Y-98221342D01*
X94587685Y-98229774D01*
X94594432Y-98268038D01*
X94598763Y-98275539D01*
X94600757Y-98281017D01*
X94603223Y-98286306D01*
X94605465Y-98294675D01*
X94610433Y-98301771D01*
X94610434Y-98301772D01*
X94627758Y-98326514D01*
X94632396Y-98333795D01*
X94651822Y-98367441D01*
X94673647Y-98385754D01*
X94681398Y-98392258D01*
X94687766Y-98398093D01*
X97333004Y-101043331D01*
X97360781Y-101097848D01*
X97362000Y-101113335D01*
X97362000Y-101152318D01*
X97343093Y-101210509D01*
X97293593Y-101246473D01*
X97254372Y-101250941D01*
X97223695Y-101248257D01*
X97215328Y-101250499D01*
X97186160Y-101258315D01*
X97177729Y-101260185D01*
X97165193Y-101262395D01*
X97147991Y-101265428D01*
X97147990Y-101265428D01*
X97139462Y-101266932D01*
X97131962Y-101271262D01*
X97126473Y-101273260D01*
X97121189Y-101275724D01*
X97112826Y-101277965D01*
X97105731Y-101282933D01*
X97081000Y-101300250D01*
X97073721Y-101304887D01*
X97040059Y-101324322D01*
X97028875Y-101337651D01*
X97015237Y-101353904D01*
X97009402Y-101360272D01*
X96292767Y-102076906D01*
X96286399Y-102082740D01*
X96263459Y-102101989D01*
X96263456Y-102101992D01*
X96256822Y-102107559D01*
X96237397Y-102141204D01*
X96232758Y-102148486D01*
X96215434Y-102173228D01*
X96210465Y-102180325D01*
X96208223Y-102188694D01*
X96205757Y-102193983D01*
X96203763Y-102199461D01*
X96199432Y-102206962D01*
X96197928Y-102215490D01*
X96197928Y-102215491D01*
X96192685Y-102245226D01*
X96190816Y-102253658D01*
X96180758Y-102291195D01*
X96181513Y-102299822D01*
X96184123Y-102329656D01*
X96184500Y-102338285D01*
X96184500Y-103564688D01*
X96165593Y-103622879D01*
X96124808Y-103652018D01*
X96126065Y-103654636D01*
X96108885Y-103662886D01*
X96003971Y-103713265D01*
X95904514Y-103805202D01*
X95900797Y-103811602D01*
X95840205Y-103915917D01*
X95840204Y-103915920D01*
X95836487Y-103922319D01*
X95809500Y-104038748D01*
X95809500Y-104723258D01*
X95824636Y-104823935D01*
X95827839Y-104830606D01*
X95827840Y-104830608D01*
X95843915Y-104864083D01*
X95883265Y-104946029D01*
X95888287Y-104951461D01*
X95888287Y-104951462D01*
X95892991Y-104956551D01*
X95918605Y-105012117D01*
X95906667Y-105072126D01*
X95904727Y-105075005D01*
X95904514Y-105075202D01*
X95904013Y-105076065D01*
X95840205Y-105185917D01*
X95840204Y-105185920D01*
X95836487Y-105192319D01*
X95809500Y-105308748D01*
X95809500Y-105993258D01*
X95824636Y-106093935D01*
X95827839Y-106100606D01*
X95827840Y-106100608D01*
X95843915Y-106134083D01*
X95883265Y-106216029D01*
X95975202Y-106315486D01*
X96092319Y-106383513D01*
X96105723Y-106386620D01*
X96107854Y-106387114D01*
X96160273Y-106418672D01*
X96184131Y-106475014D01*
X96184500Y-106483557D01*
X96184500Y-110426715D01*
X96184123Y-110435344D01*
X96180758Y-110473805D01*
X96182999Y-110482168D01*
X96190816Y-110511342D01*
X96192685Y-110519774D01*
X96199432Y-110558038D01*
X96203763Y-110565539D01*
X96205757Y-110571017D01*
X96208223Y-110576306D01*
X96210465Y-110584675D01*
X96215433Y-110591771D01*
X96215434Y-110591772D01*
X96232758Y-110616514D01*
X96237396Y-110623795D01*
X96256822Y-110657441D01*
X96286398Y-110682258D01*
X96292766Y-110688093D01*
X96467564Y-110862891D01*
X96495341Y-110917408D01*
X96496560Y-110932895D01*
X96496560Y-112841604D01*
X96478014Y-112898684D01*
X96477360Y-112899121D01*
X96474240Y-112903791D01*
X96474237Y-112903794D01*
X96471941Y-112907231D01*
X96432813Y-112965790D01*
X96432071Y-112965294D01*
X96398170Y-113004985D01*
X96338675Y-113019267D01*
X96282147Y-112995850D01*
X96260232Y-112965686D01*
X96260077Y-112965790D01*
X96257438Y-112961840D01*
X96257434Y-112961835D01*
X96215530Y-112899121D01*
X96148861Y-112854574D01*
X96139298Y-112852672D01*
X96139296Y-112852671D01*
X96114020Y-112847644D01*
X96070220Y-112838931D01*
X93972180Y-112838931D01*
X93928380Y-112847644D01*
X93903104Y-112852671D01*
X93903102Y-112852672D01*
X93893539Y-112854574D01*
X93826870Y-112899121D01*
X93782323Y-112965790D01*
X93780421Y-112975353D01*
X93780420Y-112975355D01*
X93775393Y-113000631D01*
X93766680Y-113044431D01*
X93766680Y-114642091D01*
X93782323Y-114720732D01*
X93826870Y-114787401D01*
X93893539Y-114831948D01*
X93903102Y-114833850D01*
X93903104Y-114833851D01*
X93928380Y-114838878D01*
X93972180Y-114847591D01*
X94596700Y-114847591D01*
X94654891Y-114866498D01*
X94690855Y-114915998D01*
X94695700Y-114946591D01*
X94695700Y-115136421D01*
X94676793Y-115194612D01*
X94627293Y-115230576D01*
X94596700Y-115235421D01*
X93421000Y-115235421D01*
X93377200Y-115244134D01*
X93351924Y-115249161D01*
X93351922Y-115249162D01*
X93342359Y-115251064D01*
X93275690Y-115295611D01*
X93231143Y-115362280D01*
X93215500Y-115440921D01*
X87325000Y-115440921D01*
X87325000Y-94413824D01*
X90314538Y-94413824D01*
X90315453Y-94420822D01*
X90319440Y-94451309D01*
X90333121Y-94555939D01*
X90335962Y-94562395D01*
X90335962Y-94562396D01*
X90387312Y-94679096D01*
X90390845Y-94687126D01*
X90483068Y-94796838D01*
X90488939Y-94800746D01*
X90488940Y-94800747D01*
X90501235Y-94808931D01*
X90602377Y-94876257D01*
X90609104Y-94878359D01*
X90609107Y-94878360D01*
X90732448Y-94916894D01*
X90732449Y-94916894D01*
X90739180Y-94918997D01*
X90810830Y-94920310D01*
X90875427Y-94921495D01*
X90875429Y-94921495D01*
X90882481Y-94921624D01*
X90889284Y-94919769D01*
X90889286Y-94919769D01*
X90936065Y-94907015D01*
X91020758Y-94883925D01*
X91142897Y-94808931D01*
X91147630Y-94803702D01*
X91147635Y-94803698D01*
X91148211Y-94803061D01*
X91148828Y-94802707D01*
X91153057Y-94799196D01*
X91153667Y-94799930D01*
X91201280Y-94772609D01*
X91221606Y-94770500D01*
X93649688Y-94770500D01*
X93707879Y-94789407D01*
X93737018Y-94830192D01*
X93739636Y-94828935D01*
X93781874Y-94916894D01*
X93798265Y-94951029D01*
X93890202Y-95050486D01*
X93940300Y-95079585D01*
X94000917Y-95114795D01*
X94000920Y-95114796D01*
X94007319Y-95118513D01*
X94044624Y-95127160D01*
X94118246Y-95144225D01*
X94118249Y-95144225D01*
X94123748Y-95145500D01*
X94808258Y-95145500D01*
X94844841Y-95140000D01*
X94901614Y-95131465D01*
X94901616Y-95131464D01*
X94908935Y-95130364D01*
X94915606Y-95127161D01*
X94915608Y-95127160D01*
X95024361Y-95074937D01*
X95031029Y-95071735D01*
X95041550Y-95062009D01*
X95097117Y-95036395D01*
X95157126Y-95048333D01*
X95160005Y-95050273D01*
X95160202Y-95050486D01*
X95188139Y-95066713D01*
X95270917Y-95114795D01*
X95270920Y-95114796D01*
X95277319Y-95118513D01*
X95314624Y-95127160D01*
X95388246Y-95144225D01*
X95388249Y-95144225D01*
X95393748Y-95145500D01*
X96078258Y-95145500D01*
X96114841Y-95140000D01*
X96171614Y-95131465D01*
X96171616Y-95131464D01*
X96178935Y-95130364D01*
X96185606Y-95127161D01*
X96185608Y-95127160D01*
X96294361Y-95074937D01*
X96301029Y-95071735D01*
X96400486Y-94979798D01*
X96455097Y-94885779D01*
X96464795Y-94869083D01*
X96464796Y-94869080D01*
X96468513Y-94862681D01*
X96483775Y-94796838D01*
X96494225Y-94751754D01*
X96494225Y-94751751D01*
X96495500Y-94746252D01*
X96495500Y-94161742D01*
X96480364Y-94061065D01*
X96477160Y-94054392D01*
X96474984Y-94047320D01*
X96476700Y-94046792D01*
X96469789Y-93995378D01*
X96497176Y-93943151D01*
X96535831Y-93904496D01*
X96590348Y-93876719D01*
X96605835Y-93875500D01*
X97182300Y-93875500D01*
X97240491Y-93894407D01*
X97276455Y-93943907D01*
X97281300Y-93974500D01*
X97281300Y-94328515D01*
X97280923Y-94337144D01*
X97277558Y-94375605D01*
X97279799Y-94383968D01*
X97287616Y-94413142D01*
X97289485Y-94421574D01*
X97294585Y-94450500D01*
X97296232Y-94459838D01*
X97300563Y-94467339D01*
X97302557Y-94472817D01*
X97305023Y-94478106D01*
X97307265Y-94486475D01*
X97312233Y-94493571D01*
X97312234Y-94493572D01*
X97329558Y-94518314D01*
X97334196Y-94525595D01*
X97353622Y-94559241D01*
X97383198Y-94584058D01*
X97389566Y-94589893D01*
X97866498Y-95066825D01*
X97894275Y-95121342D01*
X97894977Y-95131007D01*
X97894538Y-95133824D01*
X97913121Y-95275939D01*
X97915962Y-95282395D01*
X97915962Y-95282396D01*
X97917870Y-95286731D01*
X97970845Y-95407126D01*
X98063068Y-95516838D01*
X98068939Y-95520746D01*
X98068940Y-95520747D01*
X98081235Y-95528931D01*
X98182377Y-95596257D01*
X98189104Y-95598359D01*
X98189107Y-95598360D01*
X98312448Y-95636894D01*
X98312449Y-95636894D01*
X98319180Y-95638997D01*
X98390830Y-95640310D01*
X98455427Y-95641495D01*
X98455429Y-95641495D01*
X98462481Y-95641624D01*
X98469284Y-95639769D01*
X98469286Y-95639769D01*
X98516065Y-95627015D01*
X98600758Y-95603925D01*
X98722897Y-95528931D01*
X98819078Y-95422672D01*
X98881570Y-95293689D01*
X98884557Y-95275939D01*
X98904715Y-95156120D01*
X98904715Y-95156117D01*
X98905349Y-95152350D01*
X98905500Y-95140000D01*
X98885182Y-94998123D01*
X98879135Y-94984822D01*
X98828780Y-94874073D01*
X98828780Y-94874072D01*
X98825860Y-94867651D01*
X98732303Y-94759074D01*
X98612033Y-94681118D01*
X98605275Y-94679097D01*
X98605273Y-94679096D01*
X98481479Y-94642074D01*
X98474718Y-94640052D01*
X98437508Y-94639825D01*
X98400331Y-94639598D01*
X98342257Y-94620336D01*
X98330931Y-94610604D01*
X97961296Y-94240969D01*
X97933519Y-94186452D01*
X97932300Y-94170965D01*
X97932300Y-94124500D01*
X97951207Y-94066309D01*
X98000707Y-94030345D01*
X98031300Y-94025500D01*
X103613105Y-94025500D01*
X103671296Y-94044407D01*
X103707260Y-94093907D01*
X103711004Y-94109779D01*
X103714636Y-94133935D01*
X103717839Y-94140606D01*
X103717840Y-94140608D01*
X103766033Y-94240969D01*
X103773265Y-94256029D01*
X103865202Y-94355486D01*
X103914237Y-94383968D01*
X103975917Y-94419795D01*
X103975920Y-94419796D01*
X103982319Y-94423513D01*
X104019624Y-94432160D01*
X104093246Y-94449225D01*
X104093249Y-94449225D01*
X104098748Y-94450500D01*
X104683258Y-94450500D01*
X104719697Y-94445022D01*
X104776614Y-94436465D01*
X104776616Y-94436464D01*
X104783935Y-94435364D01*
X104790606Y-94432161D01*
X104790608Y-94432160D01*
X104899361Y-94379937D01*
X104906029Y-94376735D01*
X105005486Y-94284798D01*
X105062610Y-94186452D01*
X105069795Y-94174083D01*
X105069796Y-94174080D01*
X105073513Y-94167681D01*
X105089063Y-94100593D01*
X105099225Y-94056754D01*
X105099225Y-94056751D01*
X105100500Y-94051252D01*
X105100500Y-93366742D01*
X105091382Y-93306093D01*
X105086465Y-93273386D01*
X105086464Y-93273384D01*
X105085364Y-93266065D01*
X105077874Y-93250466D01*
X105029937Y-93150639D01*
X105026735Y-93143971D01*
X105017009Y-93133449D01*
X104991395Y-93077883D01*
X105003333Y-93017874D01*
X105005273Y-93014995D01*
X105005486Y-93014798D01*
X105026299Y-92978966D01*
X105069795Y-92904083D01*
X105069796Y-92904080D01*
X105073513Y-92897681D01*
X105094880Y-92805500D01*
X105099225Y-92786754D01*
X105099225Y-92786751D01*
X105100500Y-92781252D01*
X105100500Y-92096742D01*
X105085364Y-91996065D01*
X105072624Y-91969533D01*
X105029937Y-91880639D01*
X105026735Y-91873971D01*
X104934798Y-91774514D01*
X104817681Y-91706487D01*
X104802146Y-91702886D01*
X104749727Y-91671328D01*
X104725869Y-91614986D01*
X104725500Y-91606443D01*
X104725500Y-91249466D01*
X104728873Y-91223844D01*
X104732001Y-91212170D01*
X104732001Y-91212168D01*
X104734242Y-91203805D01*
X104730877Y-91165344D01*
X104730500Y-91156715D01*
X104730500Y-90740312D01*
X104749407Y-90682121D01*
X104790192Y-90652982D01*
X104788935Y-90650364D01*
X104904361Y-90594937D01*
X104911029Y-90591735D01*
X105010486Y-90499798D01*
X105040132Y-90448758D01*
X105074795Y-90389083D01*
X105074796Y-90389080D01*
X105078513Y-90382681D01*
X105089736Y-90334264D01*
X105104225Y-90271754D01*
X105104225Y-90271751D01*
X105105500Y-90266252D01*
X105105500Y-89581742D01*
X105090364Y-89481065D01*
X105077624Y-89454533D01*
X105034937Y-89365639D01*
X105031735Y-89358971D01*
X105022009Y-89348449D01*
X104996395Y-89292883D01*
X105008333Y-89232874D01*
X105010273Y-89229995D01*
X105010486Y-89229798D01*
X105031299Y-89193966D01*
X105074795Y-89119083D01*
X105074796Y-89119080D01*
X105078513Y-89112681D01*
X105105500Y-88996252D01*
X105105500Y-88311742D01*
X105090364Y-88211065D01*
X105077624Y-88184533D01*
X105034937Y-88095639D01*
X105031735Y-88088971D01*
X104939798Y-87989514D01*
X104822681Y-87921487D01*
X104807146Y-87917886D01*
X104754727Y-87886328D01*
X104730869Y-87829986D01*
X104730500Y-87821443D01*
X104730500Y-87351826D01*
X104749407Y-87293635D01*
X104756102Y-87285390D01*
X104844346Y-87187900D01*
X104844346Y-87187899D01*
X104849078Y-87182672D01*
X104911570Y-87053689D01*
X104914557Y-87035939D01*
X104934715Y-86916120D01*
X104934715Y-86916117D01*
X104935349Y-86912350D01*
X104935500Y-86900000D01*
X104915182Y-86758123D01*
X104863169Y-86643725D01*
X104858780Y-86634073D01*
X104858780Y-86634072D01*
X104855860Y-86627651D01*
X104762303Y-86519074D01*
X104642033Y-86441118D01*
X104635275Y-86439097D01*
X104635273Y-86439096D01*
X104511479Y-86402074D01*
X104504718Y-86400052D01*
X104418694Y-86399527D01*
X104368448Y-86399220D01*
X104361396Y-86399177D01*
X104354620Y-86401114D01*
X104354617Y-86401114D01*
X104230369Y-86436624D01*
X104230367Y-86436625D01*
X104223589Y-86438562D01*
X104102375Y-86515042D01*
X104007499Y-86622469D01*
X103946588Y-86752206D01*
X103924538Y-86893824D01*
X103943121Y-87035939D01*
X103945962Y-87042395D01*
X103945962Y-87042396D01*
X103947870Y-87046731D01*
X104000845Y-87167126D01*
X104005382Y-87172523D01*
X104005383Y-87172525D01*
X104056283Y-87233077D01*
X104079253Y-87289787D01*
X104079500Y-87296779D01*
X104079500Y-87819688D01*
X104060593Y-87877879D01*
X104019808Y-87907018D01*
X104021065Y-87909636D01*
X104003885Y-87917886D01*
X103898971Y-87968265D01*
X103799514Y-88060202D01*
X103795797Y-88066602D01*
X103735205Y-88170917D01*
X103735204Y-88170920D01*
X103731487Y-88177319D01*
X103704500Y-88293748D01*
X103704500Y-88978258D01*
X103719636Y-89078935D01*
X103722839Y-89085606D01*
X103722840Y-89085608D01*
X103738915Y-89119083D01*
X103778265Y-89201029D01*
X103783287Y-89206461D01*
X103783287Y-89206462D01*
X103787991Y-89211551D01*
X103813605Y-89267117D01*
X103801667Y-89327126D01*
X103799727Y-89330005D01*
X103799514Y-89330202D01*
X103799013Y-89331065D01*
X103735205Y-89440917D01*
X103735204Y-89440920D01*
X103731487Y-89447319D01*
X103704500Y-89563748D01*
X103704500Y-90248258D01*
X103708264Y-90273291D01*
X103716751Y-90329743D01*
X103719636Y-90348935D01*
X103722839Y-90355606D01*
X103722840Y-90355608D01*
X103775063Y-90464361D01*
X103778265Y-90471029D01*
X103870202Y-90570486D01*
X103916936Y-90597631D01*
X103977673Y-90632910D01*
X103987319Y-90638513D01*
X104000723Y-90641620D01*
X104002854Y-90642114D01*
X104055273Y-90673672D01*
X104079131Y-90730014D01*
X104079500Y-90738557D01*
X104079500Y-90755500D01*
X104060593Y-90813691D01*
X104011093Y-90849655D01*
X103980500Y-90854500D01*
X103035804Y-90854500D01*
X103025849Y-90853189D01*
X103025800Y-90853754D01*
X103017169Y-90852999D01*
X103008805Y-90850758D01*
X102974562Y-90853754D01*
X102970344Y-90854123D01*
X102961715Y-90854500D01*
X101264100Y-90854500D01*
X101205909Y-90835593D01*
X101169945Y-90786093D01*
X101165100Y-90755500D01*
X101165100Y-90519600D01*
X101151008Y-90448756D01*
X101151008Y-90410128D01*
X101161541Y-90357178D01*
X101159973Y-90343934D01*
X101159941Y-90343899D01*
X101151897Y-90341800D01*
X101082071Y-90341800D01*
X101045356Y-90334497D01*
X101038241Y-90329743D01*
X100959600Y-90314100D01*
X100499800Y-90314100D01*
X100441609Y-90295193D01*
X100405645Y-90245693D01*
X100400800Y-90215100D01*
X100400800Y-89847680D01*
X100398383Y-89840243D01*
X100705600Y-89840243D01*
X100705600Y-90021320D01*
X100709722Y-90034005D01*
X100713843Y-90037000D01*
X101148920Y-90037000D01*
X101161605Y-90032878D01*
X101161633Y-90032841D01*
X101162122Y-90024543D01*
X101150897Y-89968112D01*
X101143578Y-89950443D01*
X101109976Y-89900153D01*
X101096447Y-89886624D01*
X101046157Y-89853022D01*
X101028488Y-89845703D01*
X100964363Y-89832948D01*
X100954742Y-89832000D01*
X100721280Y-89832000D01*
X100708595Y-89836122D01*
X100705600Y-89840243D01*
X100398383Y-89840243D01*
X100396678Y-89834995D01*
X100392557Y-89832000D01*
X100151658Y-89832000D01*
X100142037Y-89832948D01*
X100102797Y-89840753D01*
X100042036Y-89833561D01*
X100028482Y-89825971D01*
X99984141Y-89796343D01*
X99974578Y-89794441D01*
X99974576Y-89794440D01*
X99949300Y-89789413D01*
X99905500Y-89780700D01*
X98254500Y-89780700D01*
X98210700Y-89789413D01*
X98185424Y-89794440D01*
X98185422Y-89794441D01*
X98175859Y-89796343D01*
X98131518Y-89825971D01*
X98072630Y-89842579D01*
X98057203Y-89840753D01*
X98017963Y-89832948D01*
X98008342Y-89832000D01*
X97774880Y-89832000D01*
X97762195Y-89836122D01*
X97759200Y-89840243D01*
X97759200Y-90215100D01*
X97740293Y-90273291D01*
X97690793Y-90309255D01*
X97660200Y-90314100D01*
X97200400Y-90314100D01*
X97121759Y-90329743D01*
X97114644Y-90334497D01*
X97077929Y-90341800D01*
X97010612Y-90341800D01*
X96980935Y-90346500D01*
X96074500Y-90346500D01*
X96016309Y-90327593D01*
X95980345Y-90278093D01*
X95975500Y-90247500D01*
X95975500Y-90021621D01*
X96998459Y-90021621D01*
X97000027Y-90034866D01*
X97000059Y-90034901D01*
X97008103Y-90037000D01*
X97438720Y-90037000D01*
X97451405Y-90032878D01*
X97454400Y-90028757D01*
X97454400Y-89847680D01*
X97450278Y-89834995D01*
X97446157Y-89832000D01*
X97205258Y-89832000D01*
X97195637Y-89832948D01*
X97131512Y-89845703D01*
X97113843Y-89853022D01*
X97063553Y-89886624D01*
X97050024Y-89900153D01*
X97016422Y-89950443D01*
X97009103Y-89968112D01*
X96998459Y-90021621D01*
X95975500Y-90021621D01*
X95975500Y-89400000D01*
X95959857Y-89321359D01*
X95931370Y-89278725D01*
X95920729Y-89262800D01*
X95915310Y-89254690D01*
X95848641Y-89210143D01*
X95839078Y-89208241D01*
X95839076Y-89208240D01*
X95813800Y-89203213D01*
X95770000Y-89194500D01*
X92570000Y-89194500D01*
X92526200Y-89203213D01*
X92500924Y-89208240D01*
X92500922Y-89208241D01*
X92491359Y-89210143D01*
X92424690Y-89254690D01*
X92419271Y-89262800D01*
X92408630Y-89278725D01*
X92380143Y-89321359D01*
X92364500Y-89400000D01*
X92364500Y-90400000D01*
X92380143Y-90478641D01*
X92424690Y-90545310D01*
X92491359Y-90589857D01*
X92500922Y-90591759D01*
X92500924Y-90591760D01*
X92516897Y-90594937D01*
X92570000Y-90605500D01*
X94374166Y-90605500D01*
X94432357Y-90624407D01*
X94444170Y-90634496D01*
X94698901Y-90889227D01*
X94704736Y-90895595D01*
X94723991Y-90918543D01*
X94723993Y-90918545D01*
X94729559Y-90925178D01*
X94763214Y-90944609D01*
X94770495Y-90949248D01*
X94802325Y-90971535D01*
X94810694Y-90973777D01*
X94815978Y-90976241D01*
X94821461Y-90978237D01*
X94828962Y-90982568D01*
X94837490Y-90984072D01*
X94837491Y-90984072D01*
X94867226Y-90989315D01*
X94875658Y-90991184D01*
X94913195Y-91001242D01*
X94951657Y-90997877D01*
X94960285Y-90997500D01*
X96895900Y-90997500D01*
X96954091Y-91016407D01*
X96990055Y-91065907D01*
X96994900Y-91096500D01*
X96994900Y-91263500D01*
X96975993Y-91321691D01*
X96926493Y-91357655D01*
X96895900Y-91362500D01*
X94600285Y-91362500D01*
X94591656Y-91362123D01*
X94591617Y-91362120D01*
X94553195Y-91358758D01*
X94544831Y-91360999D01*
X94544832Y-91360999D01*
X94515658Y-91368816D01*
X94507226Y-91370685D01*
X94477491Y-91375928D01*
X94477490Y-91375928D01*
X94468962Y-91377432D01*
X94461461Y-91381763D01*
X94455978Y-91383759D01*
X94452833Y-91385225D01*
X94448146Y-91386264D01*
X94443762Y-91388080D01*
X94442309Y-91388469D01*
X94442079Y-91387609D01*
X94410995Y-91394500D01*
X92570000Y-91394500D01*
X92526200Y-91403213D01*
X92500924Y-91408240D01*
X92500922Y-91408241D01*
X92491359Y-91410143D01*
X92424690Y-91454690D01*
X92380143Y-91521359D01*
X92364500Y-91600000D01*
X92364500Y-92600000D01*
X92380143Y-92678641D01*
X92424690Y-92745310D01*
X92491359Y-92789857D01*
X92500922Y-92791759D01*
X92500924Y-92791760D01*
X92526200Y-92796787D01*
X92570000Y-92805500D01*
X95770000Y-92805500D01*
X95813800Y-92796787D01*
X95839076Y-92791760D01*
X95839078Y-92791759D01*
X95848641Y-92789857D01*
X95915310Y-92745310D01*
X95959857Y-92678641D01*
X95975500Y-92600000D01*
X95975500Y-92112500D01*
X95994407Y-92054309D01*
X96043907Y-92018345D01*
X96074500Y-92013500D01*
X96895900Y-92013500D01*
X96954091Y-92032407D01*
X96990055Y-92081907D01*
X96994900Y-92112500D01*
X96994900Y-92323000D01*
X97003613Y-92366800D01*
X97007797Y-92387834D01*
X97010543Y-92401641D01*
X97055090Y-92468310D01*
X97121759Y-92512857D01*
X97131322Y-92514759D01*
X97131324Y-92514760D01*
X97200400Y-92528500D01*
X97199968Y-92530670D01*
X97248087Y-92551738D01*
X97279007Y-92604535D01*
X97281300Y-92625718D01*
X97281300Y-93125500D01*
X97262393Y-93183691D01*
X97212893Y-93219655D01*
X97182300Y-93224500D01*
X96448284Y-93224500D01*
X96439656Y-93224123D01*
X96438525Y-93224024D01*
X96401194Y-93220758D01*
X96363658Y-93230816D01*
X96355233Y-93232683D01*
X96341800Y-93235052D01*
X96325490Y-93237928D01*
X96325489Y-93237928D01*
X96316962Y-93239432D01*
X96309463Y-93243761D01*
X96303994Y-93245752D01*
X96298694Y-93248224D01*
X96290325Y-93250466D01*
X96283230Y-93255434D01*
X96283228Y-93255435D01*
X96258497Y-93272752D01*
X96251215Y-93277391D01*
X96217559Y-93296822D01*
X96209780Y-93306093D01*
X96192742Y-93326398D01*
X96186907Y-93332766D01*
X95804169Y-93715504D01*
X95749652Y-93743281D01*
X95734165Y-93744500D01*
X95411742Y-93744500D01*
X95375303Y-93749978D01*
X95318386Y-93758535D01*
X95318384Y-93758536D01*
X95311065Y-93759636D01*
X95304394Y-93762839D01*
X95304392Y-93762840D01*
X95195639Y-93815063D01*
X95188971Y-93818265D01*
X95183539Y-93823287D01*
X95183538Y-93823287D01*
X95178449Y-93827991D01*
X95122883Y-93853605D01*
X95062874Y-93841667D01*
X95059995Y-93839727D01*
X95059798Y-93839514D01*
X95017703Y-93815063D01*
X94949083Y-93775205D01*
X94949080Y-93775204D01*
X94942681Y-93771487D01*
X94886803Y-93758535D01*
X94831754Y-93745775D01*
X94831751Y-93745775D01*
X94826252Y-93744500D01*
X94141742Y-93744500D01*
X94105303Y-93749978D01*
X94048386Y-93758535D01*
X94048384Y-93758536D01*
X94041065Y-93759636D01*
X94034394Y-93762839D01*
X94034392Y-93762840D01*
X93925639Y-93815063D01*
X93918971Y-93818265D01*
X93819514Y-93910202D01*
X93751487Y-94027319D01*
X93749816Y-94034529D01*
X93747886Y-94042854D01*
X93716328Y-94095273D01*
X93659986Y-94119131D01*
X93651443Y-94119500D01*
X91266981Y-94119500D01*
X91208790Y-94100593D01*
X91191983Y-94085124D01*
X91156909Y-94044419D01*
X91156907Y-94044418D01*
X91152303Y-94039074D01*
X91032033Y-93961118D01*
X91025275Y-93959097D01*
X91025273Y-93959096D01*
X90901479Y-93922074D01*
X90894718Y-93920052D01*
X90808694Y-93919527D01*
X90758448Y-93919220D01*
X90751396Y-93919177D01*
X90744620Y-93921114D01*
X90744617Y-93921114D01*
X90620369Y-93956624D01*
X90620367Y-93956625D01*
X90613589Y-93958562D01*
X90492375Y-94035042D01*
X90397499Y-94142469D01*
X90336588Y-94272206D01*
X90314538Y-94413824D01*
X87325000Y-94413824D01*
X87325000Y-90753081D01*
X87324931Y-90752776D01*
X87324887Y-90751987D01*
X87324897Y-90740732D01*
X87324896Y-90740729D01*
X87324906Y-90729583D01*
X87319679Y-90718697D01*
X87312406Y-90697869D01*
X87312201Y-90696970D01*
X87312201Y-90696969D01*
X87309721Y-90686100D01*
X87302369Y-90676874D01*
X87290544Y-90658024D01*
X87290260Y-90657433D01*
X87285435Y-90647384D01*
X87276731Y-90640423D01*
X87276729Y-90640421D01*
X87276009Y-90639846D01*
X87260420Y-90624231D01*
X87252895Y-90614788D01*
X87242855Y-90609945D01*
X87242852Y-90609943D01*
X87242262Y-90609659D01*
X87223443Y-90597809D01*
X87214222Y-90590435D01*
X87203356Y-90587936D01*
X87203353Y-90587935D01*
X87202457Y-90587729D01*
X87181641Y-90580419D01*
X87180808Y-90580017D01*
X87180805Y-90580016D01*
X87170766Y-90575174D01*
X87148369Y-90575155D01*
X87147575Y-90575109D01*
X87147101Y-90575000D01*
X84874000Y-90575000D01*
X84815809Y-90556093D01*
X84779845Y-90506593D01*
X84775000Y-90476000D01*
X84775000Y-86103243D01*
X96645000Y-86103243D01*
X96645000Y-86224558D01*
X96645550Y-86231914D01*
X96659014Y-86321471D01*
X96663317Y-86335459D01*
X96715476Y-86444079D01*
X96723698Y-86456179D01*
X96805492Y-86544662D01*
X96816915Y-86553814D01*
X96921101Y-86614330D01*
X96934717Y-86619720D01*
X97038280Y-86643725D01*
X97049429Y-86645000D01*
X97129320Y-86645000D01*
X97142005Y-86640878D01*
X97145000Y-86636757D01*
X97145000Y-86110680D01*
X97142583Y-86103243D01*
X97545000Y-86103243D01*
X97545000Y-86629320D01*
X97549122Y-86642005D01*
X97553243Y-86645000D01*
X97624558Y-86645000D01*
X97631914Y-86644450D01*
X97721471Y-86630986D01*
X97735459Y-86626683D01*
X97844079Y-86574524D01*
X97856179Y-86566302D01*
X97944662Y-86484508D01*
X97953814Y-86473085D01*
X98014330Y-86368899D01*
X98019720Y-86355283D01*
X98043725Y-86251720D01*
X98045000Y-86240571D01*
X98045000Y-86110680D01*
X98042583Y-86103243D01*
X98555000Y-86103243D01*
X98555000Y-86224558D01*
X98555550Y-86231914D01*
X98569014Y-86321471D01*
X98573317Y-86335459D01*
X98625476Y-86444079D01*
X98633698Y-86456179D01*
X98715492Y-86544662D01*
X98726915Y-86553814D01*
X98831101Y-86614330D01*
X98844717Y-86619720D01*
X98948280Y-86643725D01*
X98959429Y-86645000D01*
X99039320Y-86645000D01*
X99052005Y-86640878D01*
X99055000Y-86636757D01*
X99055000Y-86110680D01*
X99052583Y-86103243D01*
X99455000Y-86103243D01*
X99455000Y-86629320D01*
X99459122Y-86642005D01*
X99463243Y-86645000D01*
X99534558Y-86645000D01*
X99541914Y-86644450D01*
X99631471Y-86630986D01*
X99645459Y-86626683D01*
X99754079Y-86574524D01*
X99766179Y-86566302D01*
X99854662Y-86484508D01*
X99863814Y-86473085D01*
X99924330Y-86368899D01*
X99929720Y-86355283D01*
X99953725Y-86251720D01*
X99955000Y-86240571D01*
X99955000Y-86110680D01*
X99950878Y-86097995D01*
X99946757Y-86095000D01*
X99470680Y-86095000D01*
X99457995Y-86099122D01*
X99455000Y-86103243D01*
X99052583Y-86103243D01*
X99050878Y-86097995D01*
X99046757Y-86095000D01*
X98570680Y-86095000D01*
X98557995Y-86099122D01*
X98555000Y-86103243D01*
X98042583Y-86103243D01*
X98040878Y-86097995D01*
X98036757Y-86095000D01*
X97560680Y-86095000D01*
X97547995Y-86099122D01*
X97545000Y-86103243D01*
X97142583Y-86103243D01*
X97140878Y-86097995D01*
X97136757Y-86095000D01*
X96660680Y-86095000D01*
X96647995Y-86099122D01*
X96645000Y-86103243D01*
X84775000Y-86103243D01*
X84775000Y-86074000D01*
X84793907Y-86015809D01*
X84843407Y-85979845D01*
X84874000Y-85975000D01*
X85646919Y-85975000D01*
X85647224Y-85974931D01*
X85648013Y-85974887D01*
X85659268Y-85974897D01*
X85659271Y-85974896D01*
X85670417Y-85974906D01*
X85681303Y-85969679D01*
X85702131Y-85962406D01*
X85703030Y-85962201D01*
X85703031Y-85962201D01*
X85713900Y-85959721D01*
X85723126Y-85952369D01*
X85741976Y-85940544D01*
X85752616Y-85935435D01*
X85759577Y-85926731D01*
X85759579Y-85926729D01*
X85760154Y-85926009D01*
X85775769Y-85910420D01*
X85785212Y-85902895D01*
X85790055Y-85892855D01*
X85790057Y-85892852D01*
X85790341Y-85892262D01*
X85802191Y-85873443D01*
X85809565Y-85864222D01*
X85812064Y-85853356D01*
X85812065Y-85853353D01*
X85812271Y-85852457D01*
X85819581Y-85831641D01*
X85819983Y-85830808D01*
X85819984Y-85830805D01*
X85824826Y-85820766D01*
X85824845Y-85798369D01*
X85824891Y-85797575D01*
X85825000Y-85797101D01*
X85825000Y-84273748D01*
X96644500Y-84273748D01*
X96644500Y-84958258D01*
X96659636Y-85058935D01*
X96662839Y-85065606D01*
X96662840Y-85065608D01*
X96707379Y-85158360D01*
X96718265Y-85181029D01*
X96723285Y-85186460D01*
X96723286Y-85186461D01*
X96728331Y-85191918D01*
X96753949Y-85247483D01*
X96742013Y-85307493D01*
X96739451Y-85311294D01*
X96675670Y-85421101D01*
X96670280Y-85434717D01*
X96646275Y-85538280D01*
X96645000Y-85549429D01*
X96645000Y-85679320D01*
X96649122Y-85692005D01*
X96653243Y-85695000D01*
X98029320Y-85695000D01*
X98042005Y-85690878D01*
X98045000Y-85686757D01*
X98045000Y-85565443D01*
X98044450Y-85558086D01*
X98030986Y-85468529D01*
X98026683Y-85454541D01*
X97974526Y-85345924D01*
X97966299Y-85333818D01*
X97961699Y-85328842D01*
X97936082Y-85273277D01*
X97948018Y-85213267D01*
X97950141Y-85210117D01*
X97950486Y-85209798D01*
X97955309Y-85201495D01*
X98014795Y-85099083D01*
X98014796Y-85099080D01*
X98018513Y-85092681D01*
X98033704Y-85027145D01*
X98065261Y-84974727D01*
X98121603Y-84950869D01*
X98130146Y-84950500D01*
X98468105Y-84950500D01*
X98526296Y-84969407D01*
X98562260Y-85018907D01*
X98566004Y-85034779D01*
X98569636Y-85058935D01*
X98572839Y-85065606D01*
X98572840Y-85065608D01*
X98617379Y-85158360D01*
X98628265Y-85181029D01*
X98633285Y-85186460D01*
X98633286Y-85186461D01*
X98638331Y-85191918D01*
X98663949Y-85247483D01*
X98652013Y-85307493D01*
X98649451Y-85311294D01*
X98585670Y-85421101D01*
X98580280Y-85434717D01*
X98556275Y-85538280D01*
X98555000Y-85549429D01*
X98555000Y-85679320D01*
X98559122Y-85692005D01*
X98563243Y-85695000D01*
X99939320Y-85695000D01*
X99952005Y-85690878D01*
X99955000Y-85686757D01*
X99955000Y-85565443D01*
X99954450Y-85558086D01*
X99940986Y-85468529D01*
X99936683Y-85454541D01*
X99884526Y-85345924D01*
X99876299Y-85333818D01*
X99871699Y-85328842D01*
X99846082Y-85273277D01*
X99858018Y-85213267D01*
X99860141Y-85210117D01*
X99860486Y-85209798D01*
X99865309Y-85201495D01*
X99924795Y-85099083D01*
X99924796Y-85099080D01*
X99928513Y-85092681D01*
X99943704Y-85027145D01*
X99975261Y-84974727D01*
X100031603Y-84950869D01*
X100040146Y-84950500D01*
X100310758Y-84950500D01*
X100368949Y-84969407D01*
X100386539Y-84985796D01*
X100463068Y-85076838D01*
X100468939Y-85080746D01*
X100468940Y-85080747D01*
X100496486Y-85099083D01*
X100582377Y-85156257D01*
X100589104Y-85158359D01*
X100589107Y-85158360D01*
X100712448Y-85196894D01*
X100712449Y-85196894D01*
X100719180Y-85198997D01*
X100790831Y-85200311D01*
X100855427Y-85201495D01*
X100855429Y-85201495D01*
X100862481Y-85201624D01*
X100869284Y-85199769D01*
X100869286Y-85199769D01*
X100918098Y-85186461D01*
X101000758Y-85163925D01*
X101122897Y-85088931D01*
X101219078Y-84982672D01*
X101281570Y-84853689D01*
X101305349Y-84712350D01*
X101305500Y-84700000D01*
X101285182Y-84558123D01*
X101225860Y-84427651D01*
X101132303Y-84319074D01*
X101012033Y-84241118D01*
X101005275Y-84239097D01*
X101005273Y-84239096D01*
X100881479Y-84202074D01*
X100874718Y-84200052D01*
X100788694Y-84199527D01*
X100738448Y-84199220D01*
X100731396Y-84199177D01*
X100724620Y-84201114D01*
X100724617Y-84201114D01*
X100600369Y-84236624D01*
X100600367Y-84236625D01*
X100593589Y-84238562D01*
X100587625Y-84242325D01*
X100521214Y-84284227D01*
X100468386Y-84299500D01*
X100041895Y-84299500D01*
X99983704Y-84280593D01*
X99947740Y-84231093D01*
X99943995Y-84215218D01*
X99942019Y-84202074D01*
X99940364Y-84191065D01*
X99927624Y-84164533D01*
X99884937Y-84075639D01*
X99881735Y-84068971D01*
X99789798Y-83969514D01*
X99739700Y-83940415D01*
X99679083Y-83905205D01*
X99679080Y-83905204D01*
X99672681Y-83901487D01*
X99616803Y-83888535D01*
X99561754Y-83875775D01*
X99561751Y-83875775D01*
X99556252Y-83874500D01*
X98971742Y-83874500D01*
X98935303Y-83879978D01*
X98878386Y-83888535D01*
X98878384Y-83888536D01*
X98871065Y-83889636D01*
X98864394Y-83892839D01*
X98864392Y-83892840D01*
X98755639Y-83945063D01*
X98748971Y-83948265D01*
X98649514Y-84040202D01*
X98645797Y-84046602D01*
X98585205Y-84150917D01*
X98585204Y-84150920D01*
X98581487Y-84157319D01*
X98571114Y-84202074D01*
X98566297Y-84222854D01*
X98534739Y-84275273D01*
X98478397Y-84299131D01*
X98469854Y-84299500D01*
X98131895Y-84299500D01*
X98073704Y-84280593D01*
X98037740Y-84231093D01*
X98033995Y-84215218D01*
X98032019Y-84202074D01*
X98030364Y-84191065D01*
X98017624Y-84164533D01*
X97974937Y-84075639D01*
X97971735Y-84068971D01*
X97879798Y-83969514D01*
X97829700Y-83940415D01*
X97769083Y-83905205D01*
X97769080Y-83905204D01*
X97762681Y-83901487D01*
X97706803Y-83888535D01*
X97651754Y-83875775D01*
X97651751Y-83875775D01*
X97646252Y-83874500D01*
X97061742Y-83874500D01*
X97025303Y-83879978D01*
X96968386Y-83888535D01*
X96968384Y-83888536D01*
X96961065Y-83889636D01*
X96954394Y-83892839D01*
X96954392Y-83892840D01*
X96845639Y-83945063D01*
X96838971Y-83948265D01*
X96739514Y-84040202D01*
X96735797Y-84046602D01*
X96675205Y-84150917D01*
X96675204Y-84150920D01*
X96671487Y-84157319D01*
X96669815Y-84164533D01*
X96651174Y-84244956D01*
X96644500Y-84273748D01*
X85825000Y-84273748D01*
X85825000Y-80319059D01*
X90820346Y-80319059D01*
X90820561Y-80321947D01*
X90824868Y-80379905D01*
X90835062Y-80517081D01*
X90844640Y-80645979D01*
X90845189Y-80648819D01*
X90845190Y-80648823D01*
X90881434Y-80836153D01*
X90906911Y-80967832D01*
X91006307Y-81280222D01*
X91141471Y-81578882D01*
X91211488Y-81695180D01*
X91309065Y-81857255D01*
X91309071Y-81857264D01*
X91310557Y-81859732D01*
X91312323Y-81862013D01*
X91312330Y-81862023D01*
X91509476Y-82116641D01*
X91511255Y-82118938D01*
X91513284Y-82121007D01*
X91513289Y-82121012D01*
X91596442Y-82205776D01*
X91740824Y-82352957D01*
X91996128Y-82558594D01*
X92273681Y-82733040D01*
X92427863Y-82806416D01*
X92567078Y-82872670D01*
X92567086Y-82872673D01*
X92569691Y-82873913D01*
X92880115Y-82979288D01*
X93200713Y-83047725D01*
X93527107Y-83078291D01*
X93529997Y-83078223D01*
X93530000Y-83078223D01*
X93851955Y-83070636D01*
X93851956Y-83070636D01*
X93854838Y-83070568D01*
X93944764Y-83057850D01*
X94176567Y-83025066D01*
X94176571Y-83025065D01*
X94179429Y-83024661D01*
X94283225Y-82997334D01*
X94493661Y-82941931D01*
X94493669Y-82941928D01*
X94496447Y-82941197D01*
X94801563Y-82821316D01*
X95090608Y-82666656D01*
X95092972Y-82665010D01*
X95092980Y-82665005D01*
X95357258Y-82480985D01*
X95357260Y-82480983D01*
X95359636Y-82479329D01*
X95604970Y-82261893D01*
X95655057Y-82205776D01*
X95821334Y-82019478D01*
X95821335Y-82019477D01*
X95823260Y-82017320D01*
X95824913Y-82014963D01*
X95824919Y-82014956D01*
X96009868Y-81751310D01*
X96011525Y-81748948D01*
X96167193Y-81460444D01*
X96243377Y-81268516D01*
X96287070Y-81158440D01*
X96287071Y-81158438D01*
X96288138Y-81155749D01*
X96288885Y-81152952D01*
X96371962Y-80841823D01*
X96371963Y-80841817D01*
X96372709Y-80839024D01*
X96419749Y-80514594D01*
X96430000Y-80275000D01*
X96410844Y-79947739D01*
X96353636Y-79624947D01*
X96308854Y-79476152D01*
X96259995Y-79313811D01*
X96259992Y-79313803D01*
X96259159Y-79311035D01*
X96128703Y-79010288D01*
X95964050Y-78726817D01*
X95767448Y-78464491D01*
X95541583Y-78226895D01*
X95323578Y-78045582D01*
X95291773Y-78019130D01*
X95291771Y-78019129D01*
X95289540Y-78017273D01*
X95066435Y-77872110D01*
X95017183Y-77840064D01*
X95017180Y-77840062D01*
X95014762Y-77838489D01*
X94756401Y-77710518D01*
X94723588Y-77694265D01*
X94723583Y-77694263D01*
X94721001Y-77692984D01*
X94447832Y-77595444D01*
X94414984Y-77583715D01*
X94414983Y-77583715D01*
X94412270Y-77582746D01*
X94092786Y-77509281D01*
X94089919Y-77508967D01*
X94089913Y-77508966D01*
X93895956Y-77487725D01*
X93766913Y-77473592D01*
X93592824Y-77474959D01*
X93441993Y-77476144D01*
X93441988Y-77476144D01*
X93439102Y-77476167D01*
X93436233Y-77476527D01*
X93436231Y-77476527D01*
X93177635Y-77508966D01*
X93113829Y-77516970D01*
X92795539Y-77595444D01*
X92488578Y-77710518D01*
X92197139Y-77860619D01*
X92194746Y-77862230D01*
X92194736Y-77862236D01*
X91927606Y-78042079D01*
X91925203Y-78043697D01*
X91676483Y-78257252D01*
X91454378Y-78498367D01*
X91261921Y-78763748D01*
X91260503Y-78766280D01*
X91123852Y-79010288D01*
X91101740Y-79049771D01*
X90976024Y-79352529D01*
X90886490Y-79667887D01*
X90886029Y-79670751D01*
X90841415Y-79947739D01*
X90834360Y-79991537D01*
X90820346Y-80319059D01*
X85825000Y-80319059D01*
X85825000Y-73244429D01*
X92830000Y-73244429D01*
X92830000Y-73374320D01*
X92834122Y-73387005D01*
X92838243Y-73390000D01*
X93314320Y-73390000D01*
X93327005Y-73385878D01*
X93330000Y-73381757D01*
X93330000Y-72855680D01*
X93327583Y-72848243D01*
X93730000Y-72848243D01*
X93730000Y-73374320D01*
X93734122Y-73387005D01*
X93738243Y-73390000D01*
X94214320Y-73390000D01*
X94227005Y-73385878D01*
X94230000Y-73381757D01*
X94230000Y-73289429D01*
X94695000Y-73289429D01*
X94695000Y-73419320D01*
X94699122Y-73432005D01*
X94703243Y-73435000D01*
X95179320Y-73435000D01*
X95192005Y-73430878D01*
X95195000Y-73426757D01*
X95195000Y-72900680D01*
X95192583Y-72893243D01*
X95595000Y-72893243D01*
X95595000Y-73419320D01*
X95599122Y-73432005D01*
X95603243Y-73435000D01*
X96079320Y-73435000D01*
X96092005Y-73430878D01*
X96095000Y-73426757D01*
X96095000Y-73305443D01*
X96094450Y-73298086D01*
X96093900Y-73294429D01*
X96660000Y-73294429D01*
X96660000Y-73424320D01*
X96664122Y-73437005D01*
X96668243Y-73440000D01*
X97144320Y-73440000D01*
X97157005Y-73435878D01*
X97160000Y-73431757D01*
X97160000Y-72905680D01*
X97157583Y-72898243D01*
X97560000Y-72898243D01*
X97560000Y-73424320D01*
X97564122Y-73437005D01*
X97568243Y-73440000D01*
X98044320Y-73440000D01*
X98057005Y-73435878D01*
X98060000Y-73431757D01*
X98060000Y-73310443D01*
X98059450Y-73303086D01*
X98045986Y-73213529D01*
X98041683Y-73199541D01*
X97989524Y-73090921D01*
X97981302Y-73078821D01*
X97899508Y-72990338D01*
X97888085Y-72981186D01*
X97783899Y-72920670D01*
X97770283Y-72915280D01*
X97666720Y-72891275D01*
X97655571Y-72890000D01*
X97575680Y-72890000D01*
X97562995Y-72894122D01*
X97560000Y-72898243D01*
X97157583Y-72898243D01*
X97155878Y-72892995D01*
X97151757Y-72890000D01*
X97080443Y-72890000D01*
X97073086Y-72890550D01*
X96983529Y-72904014D01*
X96969541Y-72908317D01*
X96860921Y-72960476D01*
X96848821Y-72968698D01*
X96760338Y-73050492D01*
X96751186Y-73061915D01*
X96690670Y-73166101D01*
X96685280Y-73179717D01*
X96661275Y-73283280D01*
X96660000Y-73294429D01*
X96093900Y-73294429D01*
X96080986Y-73208529D01*
X96076683Y-73194541D01*
X96024524Y-73085921D01*
X96016302Y-73073821D01*
X95934508Y-72985338D01*
X95923085Y-72976186D01*
X95818899Y-72915670D01*
X95805283Y-72910280D01*
X95701720Y-72886275D01*
X95690571Y-72885000D01*
X95610680Y-72885000D01*
X95597995Y-72889122D01*
X95595000Y-72893243D01*
X95192583Y-72893243D01*
X95190878Y-72887995D01*
X95186757Y-72885000D01*
X95115443Y-72885000D01*
X95108086Y-72885550D01*
X95018529Y-72899014D01*
X95004541Y-72903317D01*
X94895921Y-72955476D01*
X94883821Y-72963698D01*
X94795338Y-73045492D01*
X94786186Y-73056915D01*
X94725670Y-73161101D01*
X94720280Y-73174717D01*
X94696275Y-73278280D01*
X94695000Y-73289429D01*
X94230000Y-73289429D01*
X94230000Y-73260443D01*
X94229450Y-73253086D01*
X94215986Y-73163529D01*
X94211683Y-73149541D01*
X94159524Y-73040921D01*
X94151302Y-73028821D01*
X94069508Y-72940338D01*
X94058085Y-72931186D01*
X93953899Y-72870670D01*
X93940283Y-72865280D01*
X93836720Y-72841275D01*
X93825571Y-72840000D01*
X93745680Y-72840000D01*
X93732995Y-72844122D01*
X93730000Y-72848243D01*
X93327583Y-72848243D01*
X93325878Y-72842995D01*
X93321757Y-72840000D01*
X93250443Y-72840000D01*
X93243086Y-72840550D01*
X93153529Y-72854014D01*
X93139541Y-72858317D01*
X93030921Y-72910476D01*
X93018821Y-72918698D01*
X92930338Y-73000492D01*
X92921186Y-73011915D01*
X92860670Y-73116101D01*
X92855280Y-73129717D01*
X92831275Y-73233280D01*
X92830000Y-73244429D01*
X85825000Y-73244429D01*
X85825000Y-60753081D01*
X85824931Y-60752776D01*
X85824887Y-60751987D01*
X85824897Y-60740732D01*
X85824896Y-60740729D01*
X85824906Y-60729583D01*
X85819679Y-60718697D01*
X85812406Y-60697869D01*
X85812201Y-60696970D01*
X85812201Y-60696969D01*
X85809721Y-60686100D01*
X85802369Y-60676874D01*
X85790544Y-60658024D01*
X85790260Y-60657433D01*
X85785435Y-60647384D01*
X85776731Y-60640423D01*
X85776729Y-60640421D01*
X85776009Y-60639846D01*
X85760420Y-60624231D01*
X85752895Y-60614788D01*
X85742855Y-60609945D01*
X85742852Y-60609943D01*
X85742262Y-60609659D01*
X85723443Y-60597809D01*
X85714222Y-60590435D01*
X85703356Y-60587936D01*
X85703353Y-60587935D01*
X85702457Y-60587729D01*
X85681641Y-60580419D01*
X85680808Y-60580017D01*
X85680805Y-60580016D01*
X85670766Y-60575174D01*
X85648369Y-60575155D01*
X85647575Y-60575109D01*
X85647101Y-60575000D01*
X84874000Y-60575000D01*
X84815809Y-60556093D01*
X84779845Y-60506593D01*
X84775000Y-60476000D01*
X84775000Y-59733824D01*
X90044538Y-59733824D01*
X90045453Y-59740822D01*
X90045723Y-59742883D01*
X90063121Y-59875939D01*
X90065962Y-59882395D01*
X90065962Y-59882396D01*
X90069712Y-59890917D01*
X90120845Y-60007126D01*
X90125382Y-60012523D01*
X90125383Y-60012525D01*
X90160610Y-60054432D01*
X90213068Y-60116838D01*
X90218939Y-60120746D01*
X90218940Y-60120747D01*
X90249964Y-60141398D01*
X90332377Y-60196257D01*
X90339104Y-60198359D01*
X90339107Y-60198360D01*
X90462448Y-60236894D01*
X90462449Y-60236894D01*
X90469180Y-60238997D01*
X90530846Y-60240127D01*
X90550958Y-60240496D01*
X90608793Y-60260466D01*
X90619148Y-60269475D01*
X91314331Y-60964658D01*
X91342108Y-61019175D01*
X91332537Y-61079607D01*
X91289272Y-61122872D01*
X91263644Y-61131759D01*
X91230014Y-61138449D01*
X91205924Y-61143240D01*
X91205922Y-61143241D01*
X91196359Y-61145143D01*
X91129690Y-61189690D01*
X91085143Y-61256359D01*
X91069500Y-61335000D01*
X91069500Y-62345000D01*
X91077357Y-62384500D01*
X91082610Y-62410905D01*
X91085143Y-62423641D01*
X91129690Y-62490310D01*
X91196359Y-62534857D01*
X91205922Y-62536759D01*
X91205924Y-62536760D01*
X91231200Y-62541787D01*
X91275000Y-62550500D01*
X92485000Y-62550500D01*
X92528800Y-62541787D01*
X92554076Y-62536760D01*
X92554078Y-62536759D01*
X92563641Y-62534857D01*
X92630310Y-62490310D01*
X92674857Y-62423641D01*
X92677391Y-62410905D01*
X92682643Y-62384500D01*
X92690500Y-62345000D01*
X92690500Y-61335000D01*
X92674857Y-61256359D01*
X92630310Y-61189690D01*
X92563641Y-61145143D01*
X92554078Y-61143241D01*
X92554076Y-61143240D01*
X92528800Y-61138213D01*
X92485000Y-61129500D01*
X92306175Y-61129500D01*
X92247984Y-61110593D01*
X92212020Y-61061093D01*
X92208860Y-61045559D01*
X92209242Y-61041195D01*
X92199184Y-61003658D01*
X92197315Y-60995226D01*
X92192072Y-60965491D01*
X92192072Y-60965490D01*
X92190568Y-60956962D01*
X92186237Y-60949461D01*
X92184243Y-60943983D01*
X92181777Y-60938694D01*
X92179535Y-60930325D01*
X92173026Y-60921029D01*
X92157242Y-60898486D01*
X92152603Y-60891204D01*
X92137508Y-60865059D01*
X92133178Y-60857559D01*
X92103601Y-60832741D01*
X92097234Y-60826907D01*
X91084453Y-59814126D01*
X91056676Y-59759609D01*
X91055808Y-59747638D01*
X91055702Y-59747645D01*
X91055453Y-59743826D01*
X91055500Y-59740000D01*
X91035182Y-59598123D01*
X91021979Y-59569083D01*
X90978780Y-59474073D01*
X90978780Y-59474072D01*
X90975860Y-59467651D01*
X90882303Y-59359074D01*
X90762033Y-59281118D01*
X90755275Y-59279097D01*
X90755273Y-59279096D01*
X90631479Y-59242074D01*
X90624718Y-59240052D01*
X90538694Y-59239527D01*
X90488448Y-59239220D01*
X90481396Y-59239177D01*
X90474620Y-59241114D01*
X90474617Y-59241114D01*
X90350369Y-59276624D01*
X90350367Y-59276625D01*
X90343589Y-59278562D01*
X90222375Y-59355042D01*
X90127499Y-59462469D01*
X90066588Y-59592206D01*
X90044538Y-59733824D01*
X84775000Y-59733824D01*
X84775000Y-56074000D01*
X84793907Y-56015809D01*
X84843407Y-55979845D01*
X84874000Y-55975000D01*
X87146919Y-55975000D01*
X87147224Y-55974931D01*
X87148013Y-55974887D01*
X87159268Y-55974897D01*
X87159271Y-55974896D01*
X87170417Y-55974906D01*
X87181303Y-55969679D01*
X87202131Y-55962406D01*
X87203030Y-55962201D01*
X87203031Y-55962201D01*
X87213900Y-55959721D01*
X87223126Y-55952369D01*
X87241976Y-55940544D01*
X87252616Y-55935435D01*
X87259577Y-55926731D01*
X87259579Y-55926729D01*
X87260154Y-55926009D01*
X87275769Y-55910420D01*
X87285212Y-55902895D01*
X87290055Y-55892855D01*
X87290057Y-55892852D01*
X87290341Y-55892262D01*
X87302191Y-55873443D01*
X87309565Y-55864222D01*
X87312064Y-55853356D01*
X87312065Y-55853353D01*
X87312271Y-55852457D01*
X87319581Y-55831641D01*
X87319983Y-55830808D01*
X87319984Y-55830805D01*
X87324826Y-55820766D01*
X87324845Y-55798369D01*
X87324891Y-55797575D01*
X87325000Y-55797101D01*
X87325000Y-54117641D01*
X87343907Y-54059450D01*
X87393407Y-54023486D01*
X87423135Y-54018645D01*
X99844635Y-53910113D01*
X99902989Y-53928511D01*
X99939384Y-53977695D01*
X99944500Y-54009109D01*
X99944500Y-54243105D01*
X99925593Y-54301296D01*
X99876093Y-54337260D01*
X99860221Y-54341004D01*
X99836065Y-54344636D01*
X99829394Y-54347839D01*
X99829392Y-54347840D01*
X99720639Y-54400063D01*
X99713971Y-54403265D01*
X99708539Y-54408287D01*
X99708538Y-54408287D01*
X99703449Y-54412991D01*
X99647883Y-54438605D01*
X99587874Y-54426667D01*
X99584995Y-54424727D01*
X99584798Y-54424514D01*
X99542703Y-54400063D01*
X99474083Y-54360205D01*
X99474080Y-54360204D01*
X99467681Y-54356487D01*
X99411803Y-54343535D01*
X99356754Y-54330775D01*
X99356751Y-54330775D01*
X99351252Y-54329500D01*
X98666742Y-54329500D01*
X98630303Y-54334978D01*
X98573386Y-54343535D01*
X98573384Y-54343536D01*
X98566065Y-54344636D01*
X98559394Y-54347839D01*
X98559392Y-54347840D01*
X98450639Y-54400063D01*
X98443971Y-54403265D01*
X98344514Y-54495202D01*
X98340797Y-54501602D01*
X98280205Y-54605917D01*
X98280204Y-54605920D01*
X98276487Y-54612319D01*
X98249500Y-54728748D01*
X98249500Y-55313258D01*
X98264636Y-55413935D01*
X98267839Y-55420606D01*
X98267840Y-55420608D01*
X98283915Y-55454083D01*
X98323265Y-55536029D01*
X98415202Y-55635486D01*
X98465300Y-55664585D01*
X98525917Y-55699795D01*
X98525920Y-55699796D01*
X98532319Y-55703513D01*
X98607855Y-55721021D01*
X98660273Y-55752579D01*
X98684131Y-55808922D01*
X98684500Y-55817464D01*
X98684500Y-57335500D01*
X98665593Y-57393691D01*
X98616093Y-57429655D01*
X98585500Y-57434500D01*
X98365439Y-57434500D01*
X98307248Y-57415593D01*
X98290446Y-57400129D01*
X98272303Y-57379074D01*
X98152033Y-57301118D01*
X98145275Y-57299097D01*
X98145273Y-57299096D01*
X98021479Y-57262074D01*
X98014718Y-57260052D01*
X97928694Y-57259527D01*
X97878448Y-57259220D01*
X97871396Y-57259177D01*
X97864620Y-57261114D01*
X97864617Y-57261114D01*
X97740369Y-57296624D01*
X97740367Y-57296625D01*
X97733589Y-57298562D01*
X97612375Y-57375042D01*
X97517499Y-57482469D01*
X97456588Y-57612206D01*
X97434538Y-57753824D01*
X97435453Y-57760822D01*
X97437658Y-57777681D01*
X97453121Y-57895939D01*
X97455962Y-57902395D01*
X97455962Y-57902396D01*
X97495445Y-57992126D01*
X97510845Y-58027126D01*
X97603068Y-58136838D01*
X97608939Y-58140746D01*
X97608940Y-58140747D01*
X97628710Y-58153907D01*
X97722377Y-58216257D01*
X97729104Y-58218359D01*
X97729107Y-58218360D01*
X97852448Y-58256894D01*
X97852449Y-58256894D01*
X97859180Y-58258997D01*
X97930830Y-58260310D01*
X97995427Y-58261495D01*
X97995429Y-58261495D01*
X98002481Y-58261624D01*
X98009284Y-58259769D01*
X98009286Y-58259769D01*
X98057067Y-58246742D01*
X98140758Y-58223925D01*
X98262897Y-58148931D01*
X98290837Y-58118063D01*
X98343904Y-58087610D01*
X98364234Y-58085500D01*
X98585500Y-58085500D01*
X98643691Y-58104407D01*
X98679655Y-58153907D01*
X98684500Y-58184500D01*
X98684500Y-60053105D01*
X98665593Y-60111296D01*
X98616093Y-60147260D01*
X98600221Y-60151004D01*
X98576065Y-60154636D01*
X98569394Y-60157839D01*
X98569392Y-60157840D01*
X98497528Y-60192349D01*
X98453971Y-60213265D01*
X98354514Y-60305202D01*
X98350797Y-60311602D01*
X98290205Y-60415917D01*
X98290204Y-60415920D01*
X98286487Y-60422319D01*
X98259500Y-60538748D01*
X98259500Y-61123258D01*
X98263605Y-61150562D01*
X98269488Y-61189690D01*
X98274636Y-61223935D01*
X98277839Y-61230606D01*
X98277840Y-61230608D01*
X98293915Y-61264083D01*
X98333265Y-61346029D01*
X98425202Y-61445486D01*
X98475300Y-61474585D01*
X98535917Y-61509795D01*
X98535920Y-61509796D01*
X98542319Y-61513513D01*
X98578361Y-61521867D01*
X98630780Y-61553425D01*
X98654638Y-61609767D01*
X98640822Y-61669373D01*
X98608836Y-61702037D01*
X98572375Y-61725042D01*
X98477499Y-61832469D01*
X98416588Y-61962206D01*
X98394538Y-62103824D01*
X98398959Y-62137631D01*
X98387757Y-62197780D01*
X98343339Y-62239859D01*
X98282670Y-62247793D01*
X98230791Y-62220470D01*
X96158087Y-60147766D01*
X96152252Y-60141398D01*
X96150659Y-60139500D01*
X96127435Y-60111822D01*
X96093789Y-60092396D01*
X96086508Y-60087758D01*
X96061766Y-60070434D01*
X96061765Y-60070433D01*
X96054669Y-60065465D01*
X96046300Y-60063223D01*
X96041011Y-60060757D01*
X96035533Y-60058763D01*
X96028032Y-60054432D01*
X96019504Y-60052928D01*
X96019503Y-60052928D01*
X95989768Y-60047685D01*
X95981336Y-60045816D01*
X95952162Y-60037999D01*
X95952163Y-60037999D01*
X95943799Y-60035758D01*
X95905377Y-60039120D01*
X95905338Y-60039123D01*
X95896709Y-60039500D01*
X94641895Y-60039500D01*
X94583704Y-60020593D01*
X94547740Y-59971093D01*
X94543995Y-59955218D01*
X94540364Y-59931065D01*
X94527624Y-59904533D01*
X94484937Y-59815639D01*
X94481735Y-59808971D01*
X94472009Y-59798449D01*
X94446395Y-59742883D01*
X94458333Y-59682874D01*
X94460273Y-59679995D01*
X94460486Y-59679798D01*
X94511364Y-59592206D01*
X94524795Y-59569083D01*
X94524796Y-59569080D01*
X94528513Y-59562681D01*
X94538032Y-59521614D01*
X94554225Y-59451754D01*
X94554225Y-59451751D01*
X94555500Y-59446252D01*
X94555500Y-58761742D01*
X94540364Y-58661065D01*
X94527624Y-58634533D01*
X94484937Y-58545639D01*
X94481735Y-58538971D01*
X94389798Y-58439514D01*
X94272681Y-58371487D01*
X94257146Y-58367886D01*
X94204727Y-58336328D01*
X94180869Y-58279986D01*
X94180500Y-58271443D01*
X94180500Y-57821008D01*
X94199407Y-57762817D01*
X94211785Y-57749614D01*
X94212897Y-57748931D01*
X94309078Y-57642672D01*
X94371570Y-57513689D01*
X94374557Y-57495939D01*
X94394715Y-57376120D01*
X94394715Y-57376117D01*
X94395349Y-57372350D01*
X94395500Y-57360000D01*
X94375182Y-57218123D01*
X94315860Y-57087651D01*
X94222303Y-56979074D01*
X94102033Y-56901118D01*
X94095275Y-56899097D01*
X94095273Y-56899096D01*
X93971479Y-56862074D01*
X93964718Y-56860052D01*
X93878694Y-56859527D01*
X93828448Y-56859220D01*
X93821396Y-56859177D01*
X93814620Y-56861114D01*
X93814617Y-56861114D01*
X93690369Y-56896624D01*
X93690367Y-56896625D01*
X93683589Y-56898562D01*
X93562375Y-56975042D01*
X93467499Y-57082469D01*
X93406588Y-57212206D01*
X93384538Y-57353824D01*
X93385453Y-57360822D01*
X93388004Y-57380327D01*
X93403121Y-57495939D01*
X93405962Y-57502395D01*
X93405962Y-57502396D01*
X93407870Y-57506731D01*
X93460845Y-57627126D01*
X93484784Y-57655605D01*
X93506283Y-57681181D01*
X93529253Y-57737891D01*
X93529500Y-57744883D01*
X93529500Y-58269688D01*
X93510593Y-58327879D01*
X93469808Y-58357018D01*
X93471065Y-58359636D01*
X93453885Y-58367886D01*
X93348971Y-58418265D01*
X93249514Y-58510202D01*
X93245797Y-58516602D01*
X93185205Y-58620917D01*
X93185204Y-58620920D01*
X93181487Y-58627319D01*
X93154500Y-58743748D01*
X93154500Y-59428258D01*
X93169636Y-59528935D01*
X93172839Y-59535606D01*
X93172840Y-59535608D01*
X93188915Y-59569083D01*
X93228265Y-59651029D01*
X93233287Y-59656461D01*
X93233287Y-59656462D01*
X93237991Y-59661551D01*
X93263605Y-59717117D01*
X93251667Y-59777126D01*
X93249727Y-59780005D01*
X93249514Y-59780202D01*
X93249013Y-59781065D01*
X93185205Y-59890917D01*
X93185204Y-59890920D01*
X93181487Y-59897319D01*
X93154500Y-60013748D01*
X93154500Y-60698258D01*
X93155050Y-60701915D01*
X93162885Y-60754028D01*
X93169636Y-60798935D01*
X93172839Y-60805606D01*
X93172840Y-60805608D01*
X93201388Y-60865059D01*
X93228265Y-60921029D01*
X93320202Y-61020486D01*
X93356785Y-61041735D01*
X93432588Y-61085765D01*
X93473410Y-61131342D01*
X93479646Y-61192209D01*
X93465181Y-61226370D01*
X93445143Y-61256359D01*
X93429500Y-61335000D01*
X93429500Y-62345000D01*
X93437357Y-62384500D01*
X93442610Y-62410905D01*
X93445143Y-62423641D01*
X93489690Y-62490310D01*
X93556359Y-62534857D01*
X93565922Y-62536759D01*
X93565924Y-62536760D01*
X93591200Y-62541787D01*
X93635000Y-62550500D01*
X94845000Y-62550500D01*
X94888800Y-62541787D01*
X94914076Y-62536760D01*
X94914078Y-62536759D01*
X94923641Y-62534857D01*
X94990310Y-62490310D01*
X95034857Y-62423641D01*
X95037391Y-62410905D01*
X95042643Y-62384500D01*
X95050500Y-62345000D01*
X95050500Y-61335000D01*
X95034857Y-61256359D01*
X94990310Y-61189690D01*
X94923641Y-61145143D01*
X94914078Y-61143241D01*
X94914076Y-61143240D01*
X94888800Y-61138213D01*
X94845000Y-61129500D01*
X94519028Y-61129500D01*
X94460837Y-61110593D01*
X94424873Y-61061093D01*
X94424873Y-60999907D01*
X94451828Y-60957801D01*
X94460486Y-60949798D01*
X94499934Y-60881884D01*
X94524795Y-60839083D01*
X94524796Y-60839080D01*
X94528513Y-60832681D01*
X94543704Y-60767145D01*
X94575261Y-60714727D01*
X94631603Y-60690869D01*
X94640146Y-60690500D01*
X95739159Y-60690500D01*
X95797350Y-60709407D01*
X95809163Y-60719496D01*
X96626918Y-61537250D01*
X97305164Y-62215496D01*
X97332941Y-62270013D01*
X97323370Y-62330445D01*
X97280105Y-62373710D01*
X97235160Y-62384500D01*
X96835439Y-62384500D01*
X96777248Y-62365593D01*
X96760446Y-62350129D01*
X96742303Y-62329074D01*
X96622033Y-62251118D01*
X96615275Y-62249097D01*
X96615273Y-62249096D01*
X96491479Y-62212074D01*
X96484718Y-62210052D01*
X96398694Y-62209527D01*
X96348448Y-62209220D01*
X96341396Y-62209177D01*
X96334620Y-62211114D01*
X96334617Y-62211114D01*
X96210369Y-62246624D01*
X96210367Y-62246625D01*
X96203589Y-62248562D01*
X96082375Y-62325042D01*
X95987499Y-62432469D01*
X95926588Y-62562206D01*
X95904538Y-62703824D01*
X95905453Y-62710822D01*
X95921070Y-62830250D01*
X95923121Y-62845939D01*
X95980845Y-62977126D01*
X96073068Y-63086838D01*
X96078939Y-63090746D01*
X96078940Y-63090747D01*
X96091235Y-63098931D01*
X96192377Y-63166257D01*
X96199104Y-63168359D01*
X96199107Y-63168360D01*
X96322448Y-63206894D01*
X96322449Y-63206894D01*
X96329180Y-63208997D01*
X96400830Y-63210310D01*
X96465427Y-63211495D01*
X96465429Y-63211495D01*
X96472481Y-63211624D01*
X96479284Y-63209769D01*
X96479286Y-63209769D01*
X96526065Y-63197015D01*
X96610758Y-63173925D01*
X96732897Y-63098931D01*
X96760837Y-63068063D01*
X96813904Y-63037610D01*
X96834234Y-63035500D01*
X97519166Y-63035500D01*
X97577357Y-63054407D01*
X97589170Y-63064496D01*
X97691690Y-63167016D01*
X97719467Y-63221532D01*
X97709896Y-63281964D01*
X97666631Y-63325228D01*
X97659572Y-63328483D01*
X97653443Y-63331022D01*
X97603153Y-63364624D01*
X97589624Y-63378153D01*
X97556022Y-63428443D01*
X97548703Y-63446112D01*
X97535948Y-63510237D01*
X97535000Y-63519858D01*
X97535000Y-63794320D01*
X97539122Y-63807005D01*
X97543243Y-63810000D01*
X97825500Y-63810000D01*
X97883691Y-63828907D01*
X97919655Y-63878407D01*
X97924500Y-63909000D01*
X97924500Y-63931000D01*
X97905593Y-63989191D01*
X97856093Y-64025155D01*
X97825500Y-64030000D01*
X97550680Y-64030000D01*
X97537995Y-64034122D01*
X97535000Y-64038243D01*
X97535000Y-64255500D01*
X97516093Y-64313691D01*
X97466593Y-64349655D01*
X97436000Y-64354500D01*
X96695000Y-64354500D01*
X96658176Y-64361825D01*
X96625924Y-64368240D01*
X96625922Y-64368241D01*
X96616359Y-64370143D01*
X96608249Y-64375562D01*
X96563552Y-64405428D01*
X96549690Y-64414690D01*
X96505143Y-64481359D01*
X96489500Y-64560000D01*
X96489500Y-64780000D01*
X96503561Y-64850688D01*
X96503561Y-64889312D01*
X96489500Y-64960000D01*
X96489500Y-65180000D01*
X96503561Y-65250688D01*
X96503561Y-65289312D01*
X96489500Y-65360000D01*
X96489500Y-65580000D01*
X96503561Y-65650688D01*
X96503561Y-65689312D01*
X96489500Y-65760000D01*
X96489500Y-65980000D01*
X96503561Y-66050688D01*
X96503561Y-66089312D01*
X96489500Y-66160000D01*
X96489500Y-66380000D01*
X96503561Y-66450688D01*
X96503561Y-66489312D01*
X96489500Y-66560000D01*
X96489500Y-66780000D01*
X96503561Y-66850688D01*
X96503561Y-66889312D01*
X96489500Y-66960000D01*
X96489500Y-67180000D01*
X96503561Y-67250688D01*
X96503561Y-67289312D01*
X96489500Y-67360000D01*
X96489500Y-67580000D01*
X96490448Y-67584766D01*
X96493908Y-67602163D01*
X96486716Y-67662924D01*
X96445182Y-67707854D01*
X96385173Y-67719790D01*
X96326806Y-67691480D01*
X96066585Y-67431258D01*
X95648583Y-67013256D01*
X95642749Y-67006888D01*
X95623500Y-66983948D01*
X95623497Y-66983945D01*
X95617930Y-66977311D01*
X95584284Y-66957885D01*
X95577003Y-66953247D01*
X95552261Y-66935923D01*
X95552260Y-66935922D01*
X95545164Y-66930954D01*
X95536795Y-66928712D01*
X95531506Y-66926246D01*
X95526028Y-66924252D01*
X95518527Y-66919921D01*
X95509999Y-66918417D01*
X95509998Y-66918417D01*
X95480263Y-66913174D01*
X95471831Y-66911305D01*
X95442657Y-66903488D01*
X95442658Y-66903488D01*
X95434294Y-66901247D01*
X95395872Y-66904609D01*
X95395833Y-66904612D01*
X95387204Y-66904989D01*
X94737796Y-66904989D01*
X94729168Y-66904612D01*
X94728037Y-66904513D01*
X94690706Y-66901247D01*
X94682342Y-66903488D01*
X94682343Y-66903488D01*
X94653169Y-66911305D01*
X94644737Y-66913174D01*
X94615002Y-66918417D01*
X94615001Y-66918417D01*
X94606473Y-66919921D01*
X94598972Y-66924252D01*
X94593489Y-66926248D01*
X94588205Y-66928712D01*
X94579836Y-66930954D01*
X94548008Y-66953240D01*
X94540727Y-66957879D01*
X94507070Y-66977311D01*
X94501504Y-66983944D01*
X94501502Y-66983946D01*
X94482247Y-67006894D01*
X94476412Y-67013262D01*
X94107769Y-67381905D01*
X94101400Y-67387741D01*
X94071822Y-67412559D01*
X94067492Y-67420059D01*
X94052397Y-67446204D01*
X94047758Y-67453486D01*
X94033476Y-67473884D01*
X94025465Y-67485325D01*
X94023223Y-67493694D01*
X94020757Y-67498983D01*
X94018763Y-67504461D01*
X94014432Y-67511962D01*
X94012928Y-67520490D01*
X94012928Y-67520491D01*
X94007685Y-67550226D01*
X94005816Y-67558658D01*
X93995758Y-67596195D01*
X93997521Y-67616349D01*
X93999123Y-67634656D01*
X93999500Y-67643285D01*
X93999500Y-68238105D01*
X93980593Y-68296296D01*
X93931093Y-68332260D01*
X93915221Y-68336004D01*
X93891065Y-68339636D01*
X93884394Y-68342839D01*
X93884392Y-68342840D01*
X93797093Y-68384761D01*
X93768971Y-68398265D01*
X93763539Y-68403287D01*
X93763538Y-68403287D01*
X93758449Y-68407991D01*
X93702883Y-68433605D01*
X93642874Y-68421667D01*
X93639995Y-68419727D01*
X93639798Y-68419514D01*
X93586891Y-68388783D01*
X93529083Y-68355205D01*
X93529080Y-68355204D01*
X93522681Y-68351487D01*
X93466803Y-68338535D01*
X93411754Y-68325775D01*
X93411751Y-68325775D01*
X93406252Y-68324500D01*
X92721742Y-68324500D01*
X92685303Y-68329978D01*
X92628386Y-68338535D01*
X92628384Y-68338536D01*
X92621065Y-68339636D01*
X92614394Y-68342839D01*
X92614392Y-68342840D01*
X92527093Y-68384761D01*
X92498971Y-68398265D01*
X92399514Y-68490202D01*
X92359788Y-68558595D01*
X92342671Y-68588065D01*
X92331487Y-68607319D01*
X92329816Y-68614529D01*
X92327886Y-68622854D01*
X92296328Y-68675273D01*
X92239986Y-68699131D01*
X92231443Y-68699500D01*
X91850833Y-68699500D01*
X91792642Y-68680593D01*
X91780837Y-68670511D01*
X91704451Y-68594124D01*
X91676676Y-68539611D01*
X91675808Y-68527638D01*
X91675702Y-68527645D01*
X91675453Y-68523826D01*
X91675500Y-68520000D01*
X91665574Y-68450685D01*
X91658786Y-68403287D01*
X91655182Y-68378123D01*
X91651266Y-68369509D01*
X91598780Y-68254073D01*
X91598780Y-68254072D01*
X91595860Y-68247651D01*
X91502303Y-68139074D01*
X91382033Y-68061118D01*
X91311133Y-68039914D01*
X91260801Y-68005128D01*
X91240500Y-67945066D01*
X91240500Y-67211895D01*
X91259407Y-67153704D01*
X91308907Y-67117740D01*
X91324779Y-67113996D01*
X91348935Y-67110364D01*
X91355606Y-67107161D01*
X91355608Y-67107160D01*
X91464361Y-67054937D01*
X91471029Y-67051735D01*
X91481550Y-67042009D01*
X91537117Y-67016395D01*
X91597126Y-67028333D01*
X91600005Y-67030273D01*
X91600202Y-67030486D01*
X91628139Y-67046713D01*
X91710917Y-67094795D01*
X91710920Y-67094796D01*
X91717319Y-67098513D01*
X91754624Y-67107160D01*
X91828246Y-67124225D01*
X91828249Y-67124225D01*
X91833748Y-67125500D01*
X92518258Y-67125500D01*
X92569874Y-67117740D01*
X92611614Y-67111465D01*
X92611616Y-67111464D01*
X92618935Y-67110364D01*
X92625606Y-67107161D01*
X92625608Y-67107160D01*
X92734361Y-67054937D01*
X92741029Y-67051735D01*
X92840486Y-66959798D01*
X92872541Y-66904612D01*
X92904795Y-66849083D01*
X92904796Y-66849080D01*
X92908513Y-66842681D01*
X92928398Y-66756894D01*
X92934225Y-66731754D01*
X92934225Y-66731751D01*
X92935500Y-66726252D01*
X92935500Y-66141742D01*
X92926422Y-66081359D01*
X92921465Y-66048386D01*
X92921464Y-66048384D01*
X92920364Y-66041065D01*
X92910767Y-66021078D01*
X92864937Y-65925639D01*
X92861735Y-65918971D01*
X92769798Y-65819514D01*
X92700351Y-65779176D01*
X92659083Y-65755205D01*
X92659080Y-65755204D01*
X92652681Y-65751487D01*
X92587145Y-65736296D01*
X92534727Y-65704739D01*
X92510869Y-65648397D01*
X92510500Y-65639854D01*
X92510500Y-64480959D01*
X92529407Y-64422768D01*
X92564045Y-64395462D01*
X92563641Y-64394857D01*
X92571331Y-64389719D01*
X92571334Y-64389717D01*
X92630310Y-64350310D01*
X92674857Y-64283641D01*
X92690500Y-64205000D01*
X92690500Y-63195000D01*
X93429500Y-63195000D01*
X93429500Y-64205000D01*
X93445143Y-64283641D01*
X93489690Y-64350310D01*
X93556359Y-64394857D01*
X93565922Y-64396759D01*
X93565924Y-64396760D01*
X93591200Y-64401787D01*
X93635000Y-64410500D01*
X93815500Y-64410500D01*
X93873691Y-64429407D01*
X93909655Y-64478907D01*
X93914500Y-64509500D01*
X93914500Y-65289702D01*
X93895593Y-65347893D01*
X93868328Y-65373429D01*
X93802375Y-65415042D01*
X93707499Y-65522469D01*
X93646588Y-65652206D01*
X93624538Y-65793824D01*
X93625453Y-65800822D01*
X93642036Y-65927638D01*
X93643121Y-65935939D01*
X93645962Y-65942395D01*
X93645962Y-65942396D01*
X93695923Y-66055939D01*
X93700845Y-66067126D01*
X93705382Y-66072523D01*
X93705383Y-66072525D01*
X93753188Y-66129395D01*
X93793068Y-66176838D01*
X93798939Y-66180746D01*
X93798940Y-66180747D01*
X93808523Y-66187126D01*
X93912377Y-66256257D01*
X93919104Y-66258359D01*
X93919107Y-66258360D01*
X94042448Y-66296894D01*
X94042449Y-66296894D01*
X94049180Y-66298997D01*
X94120831Y-66300311D01*
X94185427Y-66301495D01*
X94185429Y-66301495D01*
X94192481Y-66301624D01*
X94199284Y-66299769D01*
X94199286Y-66299769D01*
X94246065Y-66287015D01*
X94330758Y-66263925D01*
X94452897Y-66188931D01*
X94460305Y-66180747D01*
X94544346Y-66087900D01*
X94544346Y-66087899D01*
X94549078Y-66082672D01*
X94592004Y-65994073D01*
X94608494Y-65960038D01*
X94611570Y-65953689D01*
X94613739Y-65940800D01*
X94634715Y-65816120D01*
X94634715Y-65816117D01*
X94635349Y-65812350D01*
X94635403Y-65807991D01*
X94635453Y-65803826D01*
X94635500Y-65800000D01*
X94615182Y-65658123D01*
X94611801Y-65650685D01*
X94574378Y-65568379D01*
X94565500Y-65527403D01*
X94565500Y-64509500D01*
X94584407Y-64451309D01*
X94633907Y-64415345D01*
X94664500Y-64410500D01*
X94845000Y-64410500D01*
X94888800Y-64401787D01*
X94914076Y-64396760D01*
X94914078Y-64396759D01*
X94923641Y-64394857D01*
X94990310Y-64350310D01*
X95034857Y-64283641D01*
X95050500Y-64205000D01*
X95050500Y-63195000D01*
X95034857Y-63116359D01*
X94990310Y-63049690D01*
X94923641Y-63005143D01*
X94914078Y-63003241D01*
X94914076Y-63003240D01*
X94888800Y-62998213D01*
X94845000Y-62989500D01*
X93635000Y-62989500D01*
X93591200Y-62998213D01*
X93565924Y-63003240D01*
X93565922Y-63003241D01*
X93556359Y-63005143D01*
X93489690Y-63049690D01*
X93445143Y-63116359D01*
X93429500Y-63195000D01*
X92690500Y-63195000D01*
X92674857Y-63116359D01*
X92630310Y-63049690D01*
X92563641Y-63005143D01*
X92554078Y-63003241D01*
X92554076Y-63003240D01*
X92528800Y-62998213D01*
X92485000Y-62989500D01*
X91275000Y-62989500D01*
X91231200Y-62998213D01*
X91205924Y-63003240D01*
X91205922Y-63003241D01*
X91196359Y-63005143D01*
X91129690Y-63049690D01*
X91085143Y-63116359D01*
X91069500Y-63195000D01*
X91069500Y-63249768D01*
X91050593Y-63307959D01*
X91001093Y-63343923D01*
X90939907Y-63343923D01*
X90895504Y-63314394D01*
X90882303Y-63299074D01*
X90762033Y-63221118D01*
X90755275Y-63219097D01*
X90755273Y-63219096D01*
X90631479Y-63182074D01*
X90624718Y-63180052D01*
X90538694Y-63179527D01*
X90488448Y-63179220D01*
X90481396Y-63179177D01*
X90474620Y-63181114D01*
X90474617Y-63181114D01*
X90350369Y-63216624D01*
X90350367Y-63216625D01*
X90343589Y-63218562D01*
X90222375Y-63295042D01*
X90127499Y-63402469D01*
X90066588Y-63532206D01*
X90044538Y-63673824D01*
X90045453Y-63680822D01*
X90060758Y-63797864D01*
X90063121Y-63815939D01*
X90065962Y-63822395D01*
X90065962Y-63822396D01*
X90074487Y-63841769D01*
X90120845Y-63947126D01*
X90125382Y-63952523D01*
X90125383Y-63952525D01*
X90156204Y-63989191D01*
X90213068Y-64056838D01*
X90332377Y-64136257D01*
X90339104Y-64138359D01*
X90339107Y-64138360D01*
X90462448Y-64176894D01*
X90462449Y-64176894D01*
X90469180Y-64178997D01*
X90540830Y-64180310D01*
X90605427Y-64181495D01*
X90605429Y-64181495D01*
X90612481Y-64181624D01*
X90619284Y-64179769D01*
X90619286Y-64179769D01*
X90701923Y-64157239D01*
X90750758Y-64143925D01*
X90872897Y-64068931D01*
X90897102Y-64042189D01*
X90950171Y-64011736D01*
X91011004Y-64018291D01*
X91056366Y-64059351D01*
X91069500Y-64108626D01*
X91069500Y-64205000D01*
X91085143Y-64283641D01*
X91129690Y-64350310D01*
X91196359Y-64394857D01*
X91205922Y-64396759D01*
X91205924Y-64396760D01*
X91231200Y-64401787D01*
X91275000Y-64410500D01*
X91749370Y-64410500D01*
X91807561Y-64429407D01*
X91819374Y-64439496D01*
X91830504Y-64450626D01*
X91858281Y-64505143D01*
X91859500Y-64520630D01*
X91859500Y-65638105D01*
X91840593Y-65696296D01*
X91791093Y-65732260D01*
X91775221Y-65736004D01*
X91751065Y-65739636D01*
X91744394Y-65742839D01*
X91744392Y-65742840D01*
X91643257Y-65791405D01*
X91628971Y-65798265D01*
X91623539Y-65803287D01*
X91623538Y-65803287D01*
X91618449Y-65807991D01*
X91562883Y-65833605D01*
X91502874Y-65821667D01*
X91499995Y-65819727D01*
X91499798Y-65819514D01*
X91457703Y-65795063D01*
X91389083Y-65755205D01*
X91389080Y-65755204D01*
X91382681Y-65751487D01*
X91326803Y-65738535D01*
X91271754Y-65725775D01*
X91271751Y-65725775D01*
X91266252Y-65724500D01*
X90581742Y-65724500D01*
X90545303Y-65729978D01*
X90488386Y-65738535D01*
X90488384Y-65738536D01*
X90481065Y-65739636D01*
X90474394Y-65742839D01*
X90474392Y-65742840D01*
X90373257Y-65791405D01*
X90358971Y-65798265D01*
X90259514Y-65890202D01*
X90232948Y-65935939D01*
X90195205Y-66000917D01*
X90195204Y-66000920D01*
X90191487Y-66007319D01*
X90164500Y-66123748D01*
X90164500Y-66708258D01*
X90168318Y-66733651D01*
X90176002Y-66784761D01*
X90179636Y-66808935D01*
X90182839Y-66815606D01*
X90182840Y-66815608D01*
X90208959Y-66870000D01*
X90238265Y-66931029D01*
X90330202Y-67030486D01*
X90372356Y-67054971D01*
X90440917Y-67094795D01*
X90440920Y-67094796D01*
X90447319Y-67098513D01*
X90512855Y-67113704D01*
X90565273Y-67145261D01*
X90589131Y-67201603D01*
X90589500Y-67210146D01*
X90589500Y-68246715D01*
X90589123Y-68255344D01*
X90585758Y-68293805D01*
X90587999Y-68302168D01*
X90595816Y-68331342D01*
X90597685Y-68339774D01*
X90599750Y-68351487D01*
X90604432Y-68378038D01*
X90608763Y-68385539D01*
X90610757Y-68391017D01*
X90613223Y-68396306D01*
X90615465Y-68404675D01*
X90620433Y-68411771D01*
X90620434Y-68411772D01*
X90637758Y-68436514D01*
X90642396Y-68443795D01*
X90646375Y-68450685D01*
X90652307Y-68460960D01*
X90665132Y-68510011D01*
X90664538Y-68513824D01*
X90673462Y-68582072D01*
X90680304Y-68634392D01*
X90683121Y-68655939D01*
X90685962Y-68662395D01*
X90685962Y-68662396D01*
X90703322Y-68701848D01*
X90740845Y-68787126D01*
X90833068Y-68896838D01*
X90952377Y-68976257D01*
X90959104Y-68978359D01*
X90959107Y-68978360D01*
X91082448Y-69016894D01*
X91082449Y-69016894D01*
X91089180Y-69018997D01*
X91151631Y-69020142D01*
X91170959Y-69020496D01*
X91228794Y-69040466D01*
X91239149Y-69049475D01*
X91431901Y-69242227D01*
X91437736Y-69248595D01*
X91456991Y-69271543D01*
X91456993Y-69271545D01*
X91462559Y-69278178D01*
X91496214Y-69297609D01*
X91503495Y-69302248D01*
X91535325Y-69324535D01*
X91543694Y-69326777D01*
X91548978Y-69329241D01*
X91554461Y-69331237D01*
X91561962Y-69335568D01*
X91570490Y-69337072D01*
X91570491Y-69337072D01*
X91600226Y-69342315D01*
X91608658Y-69344184D01*
X91646195Y-69354242D01*
X91684657Y-69350877D01*
X91693285Y-69350500D01*
X92229688Y-69350500D01*
X92287879Y-69369407D01*
X92317018Y-69410192D01*
X92319636Y-69408935D01*
X92378265Y-69531029D01*
X92470202Y-69630486D01*
X92514642Y-69656299D01*
X92580917Y-69694795D01*
X92580920Y-69694796D01*
X92587319Y-69698513D01*
X92624624Y-69707160D01*
X92698246Y-69724225D01*
X92698249Y-69724225D01*
X92703748Y-69725500D01*
X93388258Y-69725500D01*
X93428599Y-69719435D01*
X93481614Y-69711465D01*
X93481616Y-69711464D01*
X93488935Y-69710364D01*
X93495606Y-69707161D01*
X93495608Y-69707160D01*
X93604361Y-69654937D01*
X93611029Y-69651735D01*
X93621550Y-69642009D01*
X93677117Y-69616395D01*
X93737126Y-69628333D01*
X93740005Y-69630273D01*
X93740202Y-69630486D01*
X93761283Y-69642731D01*
X93850917Y-69694795D01*
X93850920Y-69694796D01*
X93857319Y-69698513D01*
X93894624Y-69707160D01*
X93968246Y-69724225D01*
X93968249Y-69724225D01*
X93973748Y-69725500D01*
X94658258Y-69725500D01*
X94698599Y-69719435D01*
X94751614Y-69711465D01*
X94751616Y-69711464D01*
X94758935Y-69710364D01*
X94765606Y-69707161D01*
X94765608Y-69707160D01*
X94874361Y-69654937D01*
X94881029Y-69651735D01*
X94980486Y-69559798D01*
X95011859Y-69505785D01*
X95044795Y-69449083D01*
X95044796Y-69449080D01*
X95048513Y-69442681D01*
X95063135Y-69379600D01*
X95074225Y-69331754D01*
X95074225Y-69331751D01*
X95075500Y-69326252D01*
X95075500Y-68741742D01*
X95063571Y-68662396D01*
X95061465Y-68648386D01*
X95061464Y-68648384D01*
X95060364Y-68641065D01*
X95056275Y-68632548D01*
X95004937Y-68525639D01*
X95001735Y-68518971D01*
X94909798Y-68419514D01*
X94850560Y-68385106D01*
X94799083Y-68355205D01*
X94799080Y-68355204D01*
X94792681Y-68351487D01*
X94727145Y-68336296D01*
X94674727Y-68304739D01*
X94650869Y-68248397D01*
X94650500Y-68239854D01*
X94650500Y-67800834D01*
X94669407Y-67742643D01*
X94679496Y-67730831D01*
X94825340Y-67584986D01*
X94879857Y-67557208D01*
X94895344Y-67555989D01*
X95229654Y-67555989D01*
X95287845Y-67574896D01*
X95299658Y-67584985D01*
X96201902Y-68487228D01*
X96207736Y-68493595D01*
X96232559Y-68523178D01*
X96266221Y-68542613D01*
X96273498Y-68547249D01*
X96305326Y-68569535D01*
X96313689Y-68571776D01*
X96318973Y-68574240D01*
X96324462Y-68576238D01*
X96331962Y-68580568D01*
X96340490Y-68582072D01*
X96340491Y-68582072D01*
X96357693Y-68585105D01*
X96370229Y-68587315D01*
X96378658Y-68589185D01*
X96402227Y-68595500D01*
X96416124Y-68599224D01*
X96467438Y-68632548D01*
X96489500Y-68694850D01*
X96489500Y-68780000D01*
X96503811Y-68851945D01*
X96503811Y-68890572D01*
X96493059Y-68944622D01*
X96494627Y-68957866D01*
X96494659Y-68957901D01*
X96502703Y-68960000D01*
X96577841Y-68960000D01*
X96611682Y-68966732D01*
X96616359Y-68969857D01*
X96625919Y-68971759D01*
X96625920Y-68971759D01*
X96686966Y-68983902D01*
X96740350Y-69013799D01*
X96765966Y-69069364D01*
X96754029Y-69129374D01*
X96709099Y-69170906D01*
X96667652Y-69180000D01*
X96505680Y-69180000D01*
X96492995Y-69184122D01*
X96492967Y-69184159D01*
X96492478Y-69192457D01*
X96503703Y-69248888D01*
X96511022Y-69266557D01*
X96544624Y-69316847D01*
X96558153Y-69330376D01*
X96608443Y-69363978D01*
X96626112Y-69371297D01*
X96690237Y-69384052D01*
X96699858Y-69385000D01*
X96974320Y-69385000D01*
X96987005Y-69380878D01*
X96990000Y-69376757D01*
X96990000Y-69195680D01*
X96985878Y-69182995D01*
X96962402Y-69165938D01*
X96962979Y-69165144D01*
X96942098Y-69154505D01*
X96914319Y-69099989D01*
X96923890Y-69039557D01*
X96967153Y-68996291D01*
X97012100Y-68985500D01*
X97111000Y-68985500D01*
X97169191Y-69004407D01*
X97205155Y-69053907D01*
X97210000Y-69084500D01*
X97210000Y-69369320D01*
X97214122Y-69382005D01*
X97218243Y-69385000D01*
X97435500Y-69385000D01*
X97493691Y-69403907D01*
X97529655Y-69453407D01*
X97534500Y-69484000D01*
X97534500Y-69650503D01*
X97516596Y-69707287D01*
X97500465Y-69730325D01*
X97498223Y-69738695D01*
X97495757Y-69743983D01*
X97493763Y-69749461D01*
X97489432Y-69756962D01*
X97487928Y-69765490D01*
X97487928Y-69765491D01*
X97482685Y-69795226D01*
X97480816Y-69803658D01*
X97470758Y-69841195D01*
X97471513Y-69849822D01*
X97474123Y-69879656D01*
X97474500Y-69888285D01*
X97474500Y-71221715D01*
X97474123Y-71230344D01*
X97470758Y-71268805D01*
X97472999Y-71277168D01*
X97480816Y-71306342D01*
X97482685Y-71314774D01*
X97489432Y-71353038D01*
X97493763Y-71360539D01*
X97495757Y-71366017D01*
X97498223Y-71371306D01*
X97500465Y-71379675D01*
X97505433Y-71386771D01*
X97505434Y-71386772D01*
X97522758Y-71411514D01*
X97527396Y-71418795D01*
X97546822Y-71452441D01*
X97576398Y-71477258D01*
X97582766Y-71483093D01*
X98691907Y-72592234D01*
X98697741Y-72598601D01*
X98722559Y-72628178D01*
X98756214Y-72647608D01*
X98763497Y-72652248D01*
X98788228Y-72669565D01*
X98788230Y-72669566D01*
X98795325Y-72674534D01*
X98803694Y-72676777D01*
X98811540Y-72680435D01*
X98811299Y-72680952D01*
X98820781Y-72684886D01*
X98820909Y-72684960D01*
X98861782Y-72730492D01*
X98865913Y-72744680D01*
X98866360Y-72744543D01*
X98868536Y-72751615D01*
X98869636Y-72758935D01*
X98872839Y-72765606D01*
X98872840Y-72765608D01*
X98917359Y-72858317D01*
X98928265Y-72881029D01*
X99020202Y-72980486D01*
X99070300Y-73009585D01*
X99130917Y-73044795D01*
X99130920Y-73044796D01*
X99137319Y-73048513D01*
X99145857Y-73050492D01*
X99248246Y-73074225D01*
X99248249Y-73074225D01*
X99253748Y-73075500D01*
X99938258Y-73075500D01*
X99954379Y-73073076D01*
X99965670Y-73071379D01*
X100026025Y-73081425D01*
X100068948Y-73125029D01*
X100078044Y-73185534D01*
X100050392Y-73239282D01*
X99915353Y-73374320D01*
X99869081Y-73420592D01*
X99814565Y-73448369D01*
X99798474Y-73449586D01*
X99738448Y-73449220D01*
X99731396Y-73449177D01*
X99724620Y-73451114D01*
X99724617Y-73451114D01*
X99600369Y-73486624D01*
X99600367Y-73486625D01*
X99593589Y-73488562D01*
X99472375Y-73565042D01*
X99377499Y-73672469D01*
X99316588Y-73802206D01*
X99294538Y-73943824D01*
X99295453Y-73950824D01*
X99295409Y-73954458D01*
X99275792Y-74012413D01*
X99266420Y-74023253D01*
X98734169Y-74555504D01*
X98679652Y-74583281D01*
X98664165Y-74584500D01*
X98146895Y-74584500D01*
X98088704Y-74565593D01*
X98052740Y-74516093D01*
X98048995Y-74500218D01*
X98045364Y-74476065D01*
X98040576Y-74466093D01*
X97989937Y-74360639D01*
X97986735Y-74353971D01*
X97976669Y-74343081D01*
X97951051Y-74287517D01*
X97962987Y-74227507D01*
X97965549Y-74223706D01*
X98029330Y-74113899D01*
X98034720Y-74100283D01*
X98058725Y-73996720D01*
X98060000Y-73985571D01*
X98060000Y-73855680D01*
X98055878Y-73842995D01*
X98051757Y-73840000D01*
X96675680Y-73840000D01*
X96662995Y-73844122D01*
X96660000Y-73848243D01*
X96660000Y-73969558D01*
X96660550Y-73976914D01*
X96674014Y-74066471D01*
X96678317Y-74080459D01*
X96730474Y-74189076D01*
X96738701Y-74201182D01*
X96743301Y-74206158D01*
X96768918Y-74261723D01*
X96756982Y-74321733D01*
X96754859Y-74324883D01*
X96754514Y-74325202D01*
X96753704Y-74326597D01*
X96753701Y-74326601D01*
X96699804Y-74419392D01*
X96686487Y-74442319D01*
X96684360Y-74451495D01*
X96682886Y-74457854D01*
X96651328Y-74510273D01*
X96594986Y-74534131D01*
X96586443Y-74534500D01*
X96171851Y-74534500D01*
X96113660Y-74515593D01*
X96081462Y-74470538D01*
X96080364Y-74471065D01*
X96077343Y-74464773D01*
X96077342Y-74464771D01*
X96074021Y-74457854D01*
X96024937Y-74355639D01*
X96021735Y-74348971D01*
X96016292Y-74343082D01*
X96011669Y-74338082D01*
X95986051Y-74282517D01*
X95997987Y-74222507D01*
X96000549Y-74218706D01*
X96064330Y-74108899D01*
X96069720Y-74095283D01*
X96093725Y-73991720D01*
X96095000Y-73980571D01*
X96095000Y-73850680D01*
X96090878Y-73837995D01*
X96086757Y-73835000D01*
X94710680Y-73835000D01*
X94697995Y-73839122D01*
X94695000Y-73843243D01*
X94695000Y-73964558D01*
X94695550Y-73971914D01*
X94709014Y-74061471D01*
X94713317Y-74075459D01*
X94765474Y-74184076D01*
X94773701Y-74196182D01*
X94778301Y-74201158D01*
X94803918Y-74256723D01*
X94791982Y-74316733D01*
X94789859Y-74319883D01*
X94789514Y-74320202D01*
X94788704Y-74321597D01*
X94788701Y-74321601D01*
X94747625Y-74392319D01*
X94721487Y-74437319D01*
X94718201Y-74451495D01*
X94716727Y-74457854D01*
X94685169Y-74510273D01*
X94628826Y-74534131D01*
X94620284Y-74534500D01*
X94316895Y-74534500D01*
X94258704Y-74515593D01*
X94222740Y-74466093D01*
X94218995Y-74450218D01*
X94215364Y-74426065D01*
X94209535Y-74413925D01*
X94159937Y-74310639D01*
X94156735Y-74303971D01*
X94146669Y-74293081D01*
X94121051Y-74237517D01*
X94132987Y-74177507D01*
X94135549Y-74173706D01*
X94199330Y-74063899D01*
X94204720Y-74050283D01*
X94228725Y-73946720D01*
X94230000Y-73935571D01*
X94230000Y-73805680D01*
X94225878Y-73792995D01*
X94221757Y-73790000D01*
X92845680Y-73790000D01*
X92832995Y-73794122D01*
X92830000Y-73798243D01*
X92830000Y-73919558D01*
X92830550Y-73926914D01*
X92844014Y-74016471D01*
X92848317Y-74030459D01*
X92900474Y-74139076D01*
X92908701Y-74151182D01*
X92913301Y-74156158D01*
X92938918Y-74211723D01*
X92926982Y-74271733D01*
X92924859Y-74274883D01*
X92924514Y-74275202D01*
X92923704Y-74276597D01*
X92923701Y-74276601D01*
X92860205Y-74385917D01*
X92860204Y-74385920D01*
X92856487Y-74392319D01*
X92854815Y-74399533D01*
X92837076Y-74476065D01*
X92829500Y-74508748D01*
X92829500Y-75193258D01*
X92830050Y-75196915D01*
X92841005Y-75269781D01*
X92844636Y-75293935D01*
X92847839Y-75300606D01*
X92847840Y-75300608D01*
X92862730Y-75331615D01*
X92903265Y-75416029D01*
X92995202Y-75515486D01*
X93045300Y-75544585D01*
X93105917Y-75579795D01*
X93105920Y-75579796D01*
X93112319Y-75583513D01*
X93126220Y-75586735D01*
X93223246Y-75609225D01*
X93223249Y-75609225D01*
X93228748Y-75610500D01*
X93813258Y-75610500D01*
X93849697Y-75605022D01*
X93906614Y-75596465D01*
X93906616Y-75596464D01*
X93913935Y-75595364D01*
X93920606Y-75592161D01*
X93920608Y-75592160D01*
X94029361Y-75539937D01*
X94036029Y-75536735D01*
X94135486Y-75444798D01*
X94190196Y-75350608D01*
X94199795Y-75334083D01*
X94199796Y-75334080D01*
X94203513Y-75327681D01*
X94218704Y-75262145D01*
X94250261Y-75209727D01*
X94306603Y-75185869D01*
X94315146Y-75185500D01*
X94601339Y-75185500D01*
X94659530Y-75204407D01*
X94695494Y-75253907D01*
X94699239Y-75269781D01*
X94709636Y-75338935D01*
X94712839Y-75345606D01*
X94712840Y-75345608D01*
X94757398Y-75438398D01*
X94768265Y-75461029D01*
X94860202Y-75560486D01*
X94905393Y-75586735D01*
X94970917Y-75624795D01*
X94970920Y-75624796D01*
X94977319Y-75628513D01*
X95006104Y-75635185D01*
X95088246Y-75654225D01*
X95088249Y-75654225D01*
X95093748Y-75655500D01*
X95678258Y-75655500D01*
X95714697Y-75650022D01*
X95771614Y-75641465D01*
X95771616Y-75641464D01*
X95778935Y-75640364D01*
X95785606Y-75637161D01*
X95785608Y-75637160D01*
X95894361Y-75584937D01*
X95901029Y-75581735D01*
X96000486Y-75489798D01*
X96040179Y-75421461D01*
X96064795Y-75379083D01*
X96064796Y-75379080D01*
X96068513Y-75372681D01*
X96094134Y-75262145D01*
X96125693Y-75209727D01*
X96182035Y-75185869D01*
X96190577Y-75185500D01*
X96565588Y-75185500D01*
X96623779Y-75204407D01*
X96659743Y-75253907D01*
X96663488Y-75269782D01*
X96672784Y-75331615D01*
X96674636Y-75343935D01*
X96677839Y-75350606D01*
X96677840Y-75350608D01*
X96719997Y-75438398D01*
X96733265Y-75466029D01*
X96825202Y-75565486D01*
X96871125Y-75592160D01*
X96935917Y-75629795D01*
X96935920Y-75629796D01*
X96942319Y-75633513D01*
X96971876Y-75640364D01*
X97053246Y-75659225D01*
X97053249Y-75659225D01*
X97058748Y-75660500D01*
X97643258Y-75660500D01*
X97684996Y-75654225D01*
X97736614Y-75646465D01*
X97736616Y-75646464D01*
X97743935Y-75645364D01*
X97750606Y-75642161D01*
X97750608Y-75642160D01*
X97859361Y-75589937D01*
X97866029Y-75586735D01*
X97965486Y-75494798D01*
X98015112Y-75409361D01*
X98029795Y-75384083D01*
X98029796Y-75384080D01*
X98033513Y-75377681D01*
X98048704Y-75312145D01*
X98080261Y-75259727D01*
X98136603Y-75235869D01*
X98145146Y-75235500D01*
X98821715Y-75235500D01*
X98830344Y-75235877D01*
X98868805Y-75239242D01*
X98906342Y-75229184D01*
X98914774Y-75227315D01*
X98944509Y-75222072D01*
X98944510Y-75222072D01*
X98953038Y-75220568D01*
X98960539Y-75216237D01*
X98966017Y-75214243D01*
X98971306Y-75211777D01*
X98979675Y-75209535D01*
X98997699Y-75196915D01*
X99011514Y-75187242D01*
X99018796Y-75182603D01*
X99044941Y-75167508D01*
X99044940Y-75167508D01*
X99052441Y-75163178D01*
X99077259Y-75133601D01*
X99083093Y-75127234D01*
X99730821Y-74479506D01*
X99785338Y-74451729D01*
X99802639Y-74450527D01*
X99818493Y-74450818D01*
X99855428Y-74451495D01*
X99855430Y-74451495D01*
X99862481Y-74451624D01*
X99869284Y-74449769D01*
X99869286Y-74449769D01*
X99956229Y-74426065D01*
X100000758Y-74413925D01*
X100122897Y-74338931D01*
X100169435Y-74287517D01*
X100214346Y-74237900D01*
X100214346Y-74237899D01*
X100219078Y-74232672D01*
X100281570Y-74103689D01*
X100282985Y-74095283D01*
X100304715Y-73966120D01*
X100304715Y-73966117D01*
X100305349Y-73962350D01*
X100305500Y-73950000D01*
X100306034Y-73950007D01*
X100320462Y-73893303D01*
X100334161Y-73876166D01*
X101092228Y-73118098D01*
X101098595Y-73112264D01*
X101114805Y-73098662D01*
X101171535Y-73075741D01*
X101178442Y-73075500D01*
X101208258Y-73075500D01*
X101244697Y-73070022D01*
X101301614Y-73061465D01*
X101301616Y-73061464D01*
X101308935Y-73060364D01*
X101315606Y-73057161D01*
X101315608Y-73057160D01*
X101424361Y-73004937D01*
X101431029Y-73001735D01*
X101530486Y-72909798D01*
X101569288Y-72842995D01*
X101594795Y-72799083D01*
X101594796Y-72799080D01*
X101598513Y-72792681D01*
X101612928Y-72730492D01*
X101624225Y-72681754D01*
X101624225Y-72681751D01*
X101625500Y-72676252D01*
X101625500Y-72091742D01*
X101618311Y-72043925D01*
X101611465Y-71998386D01*
X101611464Y-71998384D01*
X101610364Y-71991065D01*
X101601509Y-71972623D01*
X101554937Y-71875639D01*
X101551735Y-71868971D01*
X101459798Y-71769514D01*
X101386142Y-71726731D01*
X101349083Y-71705205D01*
X101349080Y-71705204D01*
X101342681Y-71701487D01*
X101286803Y-71688535D01*
X101231754Y-71675775D01*
X101231751Y-71675775D01*
X101226252Y-71674500D01*
X100541742Y-71674500D01*
X100505303Y-71679978D01*
X100448386Y-71688535D01*
X100448384Y-71688536D01*
X100441065Y-71689636D01*
X100434394Y-71692839D01*
X100434392Y-71692840D01*
X100325639Y-71745063D01*
X100318971Y-71748265D01*
X100313539Y-71753287D01*
X100313538Y-71753287D01*
X100308449Y-71757991D01*
X100252883Y-71783605D01*
X100192874Y-71771667D01*
X100189995Y-71769727D01*
X100189798Y-71769514D01*
X100147703Y-71745063D01*
X100079083Y-71705205D01*
X100079080Y-71705204D01*
X100072681Y-71701487D01*
X100016803Y-71688535D01*
X99961754Y-71675775D01*
X99961751Y-71675775D01*
X99956252Y-71674500D01*
X99271742Y-71674500D01*
X99235303Y-71679978D01*
X99178386Y-71688535D01*
X99178384Y-71688536D01*
X99171065Y-71689636D01*
X99164394Y-71692839D01*
X99164392Y-71692840D01*
X99055639Y-71745063D01*
X99048971Y-71748265D01*
X99043539Y-71753286D01*
X99043538Y-71753287D01*
X98973171Y-71818333D01*
X98917606Y-71843949D01*
X98857596Y-71832012D01*
X98835966Y-71815639D01*
X98154496Y-71134169D01*
X98126719Y-71079652D01*
X98125500Y-71064165D01*
X98125500Y-70529500D01*
X98144407Y-70471309D01*
X98193907Y-70435345D01*
X98224500Y-70430500D01*
X98360000Y-70430500D01*
X98430688Y-70416439D01*
X98469312Y-70416439D01*
X98540000Y-70430500D01*
X98760000Y-70430500D01*
X98830688Y-70416439D01*
X98869312Y-70416439D01*
X98940000Y-70430500D01*
X99160000Y-70430500D01*
X99230688Y-70416439D01*
X99269312Y-70416439D01*
X99340000Y-70430500D01*
X99560000Y-70430500D01*
X99630688Y-70416439D01*
X99669312Y-70416439D01*
X99740000Y-70430500D01*
X99960000Y-70430500D01*
X100030688Y-70416439D01*
X100069312Y-70416439D01*
X100140000Y-70430500D01*
X100360000Y-70430500D01*
X100430688Y-70416439D01*
X100469312Y-70416439D01*
X100540000Y-70430500D01*
X100760000Y-70430500D01*
X100830688Y-70416439D01*
X100869312Y-70416439D01*
X100940000Y-70430500D01*
X101160000Y-70430500D01*
X101230688Y-70416439D01*
X101269312Y-70416439D01*
X101340000Y-70430500D01*
X101560000Y-70430500D01*
X101630688Y-70416439D01*
X101669312Y-70416439D01*
X101740000Y-70430500D01*
X101960000Y-70430500D01*
X102030688Y-70416439D01*
X102069312Y-70416439D01*
X102140000Y-70430500D01*
X102360000Y-70430500D01*
X102403800Y-70421787D01*
X102429076Y-70416760D01*
X102429078Y-70416759D01*
X102438641Y-70414857D01*
X102505310Y-70370310D01*
X102549857Y-70303641D01*
X102565500Y-70225000D01*
X102565500Y-69484000D01*
X102584407Y-69425809D01*
X102633907Y-69389845D01*
X102664500Y-69385000D01*
X102874320Y-69385000D01*
X102887005Y-69380878D01*
X102890000Y-69376757D01*
X102890000Y-69084500D01*
X102908907Y-69026309D01*
X102958407Y-68990345D01*
X102989000Y-68985500D01*
X103099228Y-68985500D01*
X103157419Y-69004407D01*
X103193383Y-69053907D01*
X103193383Y-69115093D01*
X103157419Y-69164593D01*
X103129820Y-69178655D01*
X103112995Y-69184122D01*
X103110000Y-69188243D01*
X103110000Y-69369320D01*
X103114122Y-69382005D01*
X103118243Y-69385000D01*
X103400142Y-69385000D01*
X103409763Y-69384052D01*
X103473888Y-69371297D01*
X103491557Y-69363978D01*
X103541847Y-69330376D01*
X103555376Y-69316847D01*
X103588978Y-69266557D01*
X103596297Y-69248888D01*
X103606941Y-69195379D01*
X103605373Y-69182134D01*
X103605341Y-69182099D01*
X103597297Y-69180000D01*
X103432348Y-69180000D01*
X103374157Y-69161093D01*
X103338193Y-69111593D01*
X103338193Y-69050407D01*
X103374157Y-69000907D01*
X103413034Y-68983902D01*
X103474080Y-68971759D01*
X103474081Y-68971759D01*
X103483641Y-68969857D01*
X103488318Y-68966732D01*
X103522159Y-68960000D01*
X103594320Y-68960000D01*
X103607005Y-68955878D01*
X103607033Y-68955841D01*
X103607522Y-68947544D01*
X103596189Y-68890572D01*
X103596189Y-68851945D01*
X103610500Y-68780000D01*
X103610500Y-68560000D01*
X103596439Y-68489312D01*
X103596439Y-68450688D01*
X103610500Y-68380000D01*
X103610500Y-68160000D01*
X103596439Y-68089312D01*
X103596439Y-68050688D01*
X103610500Y-67980000D01*
X103610500Y-67760000D01*
X103596439Y-67689312D01*
X103596439Y-67650688D01*
X103610500Y-67580000D01*
X103610500Y-67360000D01*
X103596439Y-67289312D01*
X103596439Y-67250688D01*
X103610500Y-67180000D01*
X103610500Y-66960000D01*
X103596439Y-66889312D01*
X103596439Y-66850688D01*
X103610500Y-66780000D01*
X103610500Y-66560000D01*
X103596439Y-66489312D01*
X103596439Y-66450688D01*
X103610500Y-66380000D01*
X103610500Y-66160000D01*
X103596439Y-66089312D01*
X103596439Y-66050688D01*
X103610500Y-65980000D01*
X103610500Y-65760000D01*
X103596439Y-65689312D01*
X103596439Y-65650688D01*
X103610500Y-65580000D01*
X103610500Y-65360000D01*
X103596439Y-65289312D01*
X103596439Y-65250688D01*
X103610500Y-65180000D01*
X103610500Y-65094500D01*
X103629407Y-65036309D01*
X103678907Y-65000345D01*
X103709500Y-64995500D01*
X106501123Y-64995500D01*
X106559314Y-65014407D01*
X106580630Y-65037306D01*
X106580845Y-65037126D01*
X106673068Y-65146838D01*
X106678939Y-65150746D01*
X106678940Y-65150747D01*
X106696781Y-65162623D01*
X106792377Y-65226257D01*
X106799104Y-65228359D01*
X106799107Y-65228360D01*
X106922448Y-65266894D01*
X106922449Y-65266894D01*
X106929180Y-65268997D01*
X107000830Y-65270310D01*
X107065427Y-65271495D01*
X107065429Y-65271495D01*
X107072481Y-65271624D01*
X107079284Y-65269769D01*
X107079286Y-65269769D01*
X107130588Y-65255782D01*
X107210758Y-65233925D01*
X107332897Y-65158931D01*
X107337632Y-65153700D01*
X107424346Y-65057900D01*
X107424346Y-65057899D01*
X107429078Y-65052672D01*
X107491570Y-64923689D01*
X107494586Y-64905767D01*
X107514715Y-64786120D01*
X107514715Y-64786117D01*
X107515349Y-64782350D01*
X107515500Y-64770000D01*
X107495182Y-64628123D01*
X107498318Y-64627674D01*
X107499751Y-64579879D01*
X107537183Y-64531480D01*
X107595914Y-64514326D01*
X107653512Y-64534969D01*
X107662950Y-64543277D01*
X110276418Y-67156745D01*
X110282252Y-67163112D01*
X110307070Y-67192689D01*
X110338440Y-67210800D01*
X110340725Y-67212119D01*
X110348008Y-67216759D01*
X110372739Y-67234076D01*
X110372741Y-67234077D01*
X110379836Y-67239045D01*
X110388205Y-67241287D01*
X110393505Y-67243759D01*
X110398974Y-67245750D01*
X110406473Y-67250079D01*
X110415000Y-67251583D01*
X110415001Y-67251583D01*
X110431311Y-67254459D01*
X110444744Y-67256828D01*
X110453177Y-67258698D01*
X110461244Y-67260860D01*
X110512557Y-67294186D01*
X110534481Y-67351309D01*
X110518642Y-67410409D01*
X110500501Y-67431258D01*
X110451379Y-67473884D01*
X110448720Y-67477127D01*
X110448718Y-67477129D01*
X110360281Y-67584986D01*
X110302033Y-67656024D01*
X110185511Y-67860724D01*
X110105145Y-68082130D01*
X110063232Y-68313912D01*
X110062616Y-68378123D01*
X110061037Y-68542608D01*
X110060971Y-68549442D01*
X110098427Y-68781985D01*
X110174528Y-69004893D01*
X110199292Y-69050407D01*
X110264361Y-69170000D01*
X110287099Y-69211792D01*
X110305461Y-69235084D01*
X110430322Y-69393470D01*
X110432920Y-69396766D01*
X110607824Y-69554526D01*
X110806807Y-69680562D01*
X110878226Y-69710364D01*
X111020313Y-69769655D01*
X111020318Y-69769657D01*
X111024182Y-69771269D01*
X111028270Y-69772209D01*
X111249647Y-69823114D01*
X111249651Y-69823115D01*
X111253732Y-69824053D01*
X111257910Y-69824290D01*
X111257915Y-69824291D01*
X111484712Y-69837170D01*
X111484717Y-69837170D01*
X111488893Y-69837407D01*
X111515808Y-69834364D01*
X111575753Y-69846614D01*
X111617051Y-69891760D01*
X111623924Y-69952558D01*
X111596933Y-70002741D01*
X111070173Y-70529500D01*
X110549081Y-71050592D01*
X110494564Y-71078369D01*
X110478473Y-71079586D01*
X110418448Y-71079220D01*
X110411396Y-71079177D01*
X110404620Y-71081114D01*
X110404617Y-71081114D01*
X110280369Y-71116624D01*
X110280367Y-71116625D01*
X110273589Y-71118562D01*
X110152375Y-71195042D01*
X110057499Y-71302469D01*
X109996588Y-71432206D01*
X109974538Y-71573824D01*
X109975453Y-71580822D01*
X109990101Y-71692840D01*
X109993121Y-71715939D01*
X109995962Y-71722395D01*
X109995962Y-71722396D01*
X110044195Y-71832012D01*
X110050845Y-71847126D01*
X110055382Y-71852523D01*
X110055383Y-71852525D01*
X110074813Y-71875639D01*
X110143068Y-71956838D01*
X110148939Y-71960746D01*
X110148940Y-71960747D01*
X110161235Y-71968931D01*
X110262377Y-72036257D01*
X110269104Y-72038359D01*
X110269107Y-72038360D01*
X110392448Y-72076894D01*
X110392449Y-72076894D01*
X110399180Y-72078997D01*
X110470830Y-72080310D01*
X110535427Y-72081495D01*
X110535429Y-72081495D01*
X110542481Y-72081624D01*
X110549284Y-72079769D01*
X110549286Y-72079769D01*
X110596065Y-72067015D01*
X110680758Y-72043925D01*
X110802897Y-71968931D01*
X110887341Y-71875639D01*
X110894346Y-71867900D01*
X110894346Y-71867899D01*
X110899078Y-71862672D01*
X110961570Y-71733689D01*
X110964557Y-71715939D01*
X110984715Y-71596120D01*
X110984715Y-71596117D01*
X110985349Y-71592350D01*
X110985500Y-71580000D01*
X110986034Y-71580007D01*
X111000462Y-71523303D01*
X111014161Y-71506166D01*
X111521587Y-70998740D01*
X112117954Y-70402372D01*
X112172471Y-70374595D01*
X112232903Y-70384166D01*
X112276168Y-70427431D01*
X112286360Y-70461512D01*
X112291716Y-70510028D01*
X112349583Y-70668157D01*
X112443498Y-70807917D01*
X112447910Y-70811932D01*
X112447913Y-70811935D01*
X112563622Y-70917222D01*
X112568040Y-70921242D01*
X112716018Y-71001587D01*
X112721787Y-71003101D01*
X112721791Y-71003102D01*
X112873112Y-71042800D01*
X112878891Y-71044316D01*
X112884860Y-71044410D01*
X112884862Y-71044410D01*
X112945871Y-71045368D01*
X113047254Y-71046961D01*
X113065422Y-71042800D01*
X113205569Y-71010702D01*
X113205571Y-71010701D01*
X113211388Y-71009369D01*
X113226861Y-71001587D01*
X113356491Y-70936390D01*
X113356493Y-70936389D01*
X113361817Y-70933711D01*
X113366353Y-70929837D01*
X113485319Y-70828231D01*
X113485320Y-70828230D01*
X113489857Y-70824355D01*
X113588116Y-70687613D01*
X113595938Y-70668157D01*
X113648697Y-70536913D01*
X113648697Y-70536911D01*
X113650921Y-70531380D01*
X113654805Y-70504094D01*
X113674190Y-70367882D01*
X113674190Y-70367878D01*
X113674646Y-70364676D01*
X113674800Y-70350000D01*
X113660250Y-70229763D01*
X113655288Y-70188758D01*
X113655287Y-70188755D01*
X113654571Y-70182836D01*
X113595051Y-70025322D01*
X113503257Y-69891760D01*
X113503058Y-69891470D01*
X113503055Y-69891467D01*
X113499678Y-69886553D01*
X113487110Y-69875355D01*
X113439735Y-69833145D01*
X113408865Y-69780317D01*
X113414943Y-69719435D01*
X113455645Y-69673751D01*
X113492672Y-69661075D01*
X113510084Y-69658783D01*
X113519879Y-69654726D01*
X113583596Y-69628333D01*
X113654600Y-69598922D01*
X113778698Y-69503698D01*
X113873922Y-69379600D01*
X113898536Y-69320177D01*
X113938273Y-69273651D01*
X113997768Y-69259368D01*
X114054296Y-69282783D01*
X114081464Y-69320177D01*
X114106078Y-69379600D01*
X114201302Y-69503698D01*
X114325400Y-69598922D01*
X114396404Y-69628333D01*
X114460122Y-69654726D01*
X114469916Y-69658783D01*
X114485257Y-69660803D01*
X114487219Y-69661061D01*
X114542443Y-69687403D01*
X114571638Y-69741174D01*
X114563650Y-69801836D01*
X114539375Y-69833816D01*
X114485204Y-69881073D01*
X114481773Y-69885955D01*
X114481772Y-69885956D01*
X114480135Y-69888285D01*
X114388383Y-70018836D01*
X114327217Y-70175718D01*
X114305238Y-70342661D01*
X114305893Y-70348594D01*
X114305893Y-70348598D01*
X114309820Y-70384166D01*
X114323716Y-70510028D01*
X114381583Y-70668157D01*
X114475498Y-70807917D01*
X114479910Y-70811932D01*
X114479913Y-70811935D01*
X114595622Y-70917222D01*
X114600040Y-70921242D01*
X114748018Y-71001587D01*
X114753787Y-71003101D01*
X114753791Y-71003102D01*
X114905112Y-71042800D01*
X114910891Y-71044316D01*
X114916860Y-71044410D01*
X114916862Y-71044410D01*
X114977871Y-71045368D01*
X115079254Y-71046961D01*
X115097422Y-71042800D01*
X115237569Y-71010702D01*
X115237571Y-71010701D01*
X115243388Y-71009369D01*
X115258861Y-71001587D01*
X115388491Y-70936390D01*
X115388493Y-70936389D01*
X115393817Y-70933711D01*
X115398353Y-70929837D01*
X115517319Y-70828231D01*
X115517320Y-70828230D01*
X115521857Y-70824355D01*
X115620116Y-70687613D01*
X115627938Y-70668157D01*
X115680697Y-70536913D01*
X115680697Y-70536911D01*
X115682921Y-70531380D01*
X115686805Y-70504094D01*
X115706190Y-70367882D01*
X115706190Y-70367878D01*
X115706646Y-70364676D01*
X115706800Y-70350000D01*
X115692250Y-70229763D01*
X115687288Y-70188758D01*
X115687287Y-70188755D01*
X115686571Y-70182836D01*
X115627051Y-70025322D01*
X115535257Y-69891760D01*
X115535058Y-69891470D01*
X115535055Y-69891467D01*
X115531678Y-69886553D01*
X115461797Y-69824291D01*
X115410410Y-69778507D01*
X115410408Y-69778506D01*
X115405956Y-69774539D01*
X115257144Y-69695747D01*
X115124246Y-69662365D01*
X115105002Y-69657531D01*
X115053170Y-69625017D01*
X115030349Y-69568247D01*
X115045255Y-69508905D01*
X115050564Y-69501267D01*
X115143922Y-69379600D01*
X115198065Y-69248888D01*
X115201722Y-69240060D01*
X115241459Y-69193534D01*
X115300954Y-69179251D01*
X115357482Y-69202666D01*
X115370932Y-69216656D01*
X115510321Y-69393470D01*
X115510325Y-69393474D01*
X115512920Y-69396766D01*
X115687824Y-69554526D01*
X115886807Y-69680562D01*
X115958226Y-69710364D01*
X116100313Y-69769655D01*
X116100318Y-69769657D01*
X116104182Y-69771269D01*
X116108270Y-69772209D01*
X116329647Y-69823114D01*
X116329651Y-69823115D01*
X116333732Y-69824053D01*
X116337910Y-69824290D01*
X116337915Y-69824291D01*
X116564712Y-69837170D01*
X116564717Y-69837170D01*
X116568893Y-69837407D01*
X116802943Y-69810947D01*
X116806966Y-69809782D01*
X116806971Y-69809781D01*
X116989369Y-69756962D01*
X117029189Y-69745431D01*
X117241161Y-69642731D01*
X117432799Y-69505785D01*
X117557887Y-69379600D01*
X117595668Y-69341488D01*
X117595668Y-69341487D01*
X117598623Y-69338507D01*
X117733892Y-69145682D01*
X117779030Y-69050407D01*
X117832940Y-68936617D01*
X117832942Y-68936613D01*
X117834738Y-68932821D01*
X117898277Y-68706013D01*
X117922693Y-68471741D01*
X117922950Y-68445000D01*
X117922753Y-68442671D01*
X117903390Y-68214474D01*
X117903390Y-68214473D01*
X117903036Y-68210303D01*
X117868746Y-68078189D01*
X117844915Y-67986372D01*
X117844914Y-67986369D01*
X117843862Y-67982316D01*
X117747121Y-67767559D01*
X117615579Y-67572172D01*
X117452997Y-67401742D01*
X117403423Y-67364858D01*
X117267389Y-67263646D01*
X117267386Y-67263644D01*
X117264023Y-67261142D01*
X117135468Y-67195781D01*
X117057794Y-67156289D01*
X117057790Y-67156287D01*
X117054062Y-67154392D01*
X116829116Y-67084544D01*
X116797991Y-67080419D01*
X116599769Y-67054146D01*
X116599765Y-67054146D01*
X116595617Y-67053596D01*
X116591432Y-67053753D01*
X116591429Y-67053753D01*
X116499819Y-67057193D01*
X116360242Y-67062433D01*
X116129721Y-67110801D01*
X115910645Y-67197318D01*
X115907069Y-67199488D01*
X115907065Y-67199490D01*
X115822699Y-67250685D01*
X115709279Y-67319510D01*
X115531379Y-67473884D01*
X115528720Y-67477127D01*
X115528718Y-67477129D01*
X115440281Y-67584986D01*
X115382033Y-67656024D01*
X115379955Y-67659675D01*
X115379954Y-67659676D01*
X115379201Y-67660999D01*
X115378784Y-67661379D01*
X115377586Y-67663122D01*
X115377179Y-67662842D01*
X115333977Y-67702212D01*
X115273167Y-67708972D01*
X115219996Y-67678698D01*
X115201705Y-67649900D01*
X115179460Y-67596195D01*
X115143922Y-67510400D01*
X115048698Y-67386302D01*
X114924600Y-67291078D01*
X114865177Y-67266464D01*
X114818651Y-67226727D01*
X114804368Y-67167232D01*
X114827783Y-67110704D01*
X114865177Y-67083536D01*
X114914045Y-67063294D01*
X114924600Y-67058922D01*
X115048698Y-66963698D01*
X115143922Y-66839600D01*
X115203783Y-66695084D01*
X115222374Y-66553867D01*
X115248715Y-66498643D01*
X115302485Y-66469448D01*
X115363147Y-66477434D01*
X115372430Y-66483404D01*
X115372560Y-66483178D01*
X115383189Y-66489315D01*
X115406204Y-66502603D01*
X115413486Y-66507242D01*
X115438228Y-66524566D01*
X115445325Y-66529535D01*
X115453694Y-66531777D01*
X115458983Y-66534243D01*
X115464461Y-66536237D01*
X115471962Y-66540568D01*
X115480490Y-66542072D01*
X115480491Y-66542072D01*
X115510226Y-66547315D01*
X115518658Y-66549184D01*
X115556195Y-66559242D01*
X115594656Y-66555877D01*
X115603285Y-66555500D01*
X116448584Y-66555500D01*
X116506775Y-66574407D01*
X116524367Y-66590798D01*
X116563068Y-66636838D01*
X116568939Y-66640746D01*
X116568940Y-66640747D01*
X116581235Y-66648931D01*
X116682377Y-66716257D01*
X116689104Y-66718359D01*
X116689107Y-66718360D01*
X116812448Y-66756894D01*
X116812449Y-66756894D01*
X116819180Y-66758997D01*
X116890831Y-66760311D01*
X116955427Y-66761495D01*
X116955429Y-66761495D01*
X116962481Y-66761624D01*
X116969284Y-66759769D01*
X116969286Y-66759769D01*
X117031588Y-66742783D01*
X117100758Y-66723925D01*
X117222897Y-66648931D01*
X117254505Y-66614011D01*
X117314346Y-66547900D01*
X117314346Y-66547899D01*
X117319078Y-66542672D01*
X117381570Y-66413689D01*
X117388056Y-66375142D01*
X117404715Y-66276120D01*
X117404715Y-66276117D01*
X117405349Y-66272350D01*
X117405500Y-66260000D01*
X117385182Y-66118123D01*
X117371441Y-66087900D01*
X117328780Y-65994073D01*
X117328780Y-65994072D01*
X117325860Y-65987651D01*
X117232303Y-65879074D01*
X117112033Y-65801118D01*
X117105275Y-65799097D01*
X117105273Y-65799096D01*
X116981479Y-65762074D01*
X116974718Y-65760052D01*
X116888694Y-65759527D01*
X116838448Y-65759220D01*
X116831396Y-65759177D01*
X116824620Y-65761114D01*
X116824617Y-65761114D01*
X116700369Y-65796624D01*
X116700367Y-65796625D01*
X116693589Y-65798562D01*
X116572375Y-65875042D01*
X116567703Y-65880332D01*
X116567045Y-65880892D01*
X116510476Y-65904208D01*
X116502880Y-65904500D01*
X115760835Y-65904500D01*
X115702644Y-65885593D01*
X115690831Y-65875504D01*
X115242566Y-65427239D01*
X115214789Y-65372722D01*
X115214417Y-65344314D01*
X115223353Y-65276435D01*
X115223353Y-65276434D01*
X115224200Y-65270000D01*
X115223353Y-65263566D01*
X115223353Y-65263562D01*
X115222329Y-65255782D01*
X115233481Y-65195622D01*
X115277864Y-65153506D01*
X115338526Y-65145521D01*
X115347422Y-65147947D01*
X115351962Y-65150568D01*
X115360489Y-65152072D01*
X115360490Y-65152072D01*
X115368623Y-65153506D01*
X115390233Y-65157317D01*
X115398658Y-65159184D01*
X115436194Y-65169242D01*
X115474656Y-65165877D01*
X115483284Y-65165500D01*
X115513802Y-65165500D01*
X115571993Y-65184407D01*
X115589585Y-65200798D01*
X115598529Y-65211439D01*
X115598532Y-65211441D01*
X115603068Y-65216838D01*
X115608939Y-65220746D01*
X115608940Y-65220747D01*
X115641581Y-65242474D01*
X115722377Y-65296257D01*
X115729104Y-65298359D01*
X115729107Y-65298360D01*
X115852448Y-65336894D01*
X115852449Y-65336894D01*
X115859180Y-65338997D01*
X115930831Y-65340311D01*
X115995427Y-65341495D01*
X115995429Y-65341495D01*
X116002481Y-65341624D01*
X116009284Y-65339769D01*
X116009286Y-65339769D01*
X116056065Y-65327015D01*
X116140758Y-65303925D01*
X116262897Y-65228931D01*
X116307187Y-65180000D01*
X116354346Y-65127900D01*
X116354346Y-65127899D01*
X116359078Y-65122672D01*
X116421570Y-64993689D01*
X116425489Y-64970400D01*
X116444715Y-64856120D01*
X116444715Y-64856117D01*
X116445349Y-64852350D01*
X116445500Y-64840000D01*
X116436908Y-64780000D01*
X116426182Y-64705106D01*
X116425182Y-64698123D01*
X116399892Y-64642499D01*
X116368780Y-64574073D01*
X116368780Y-64574072D01*
X116365860Y-64567651D01*
X116272303Y-64459074D01*
X116152033Y-64381118D01*
X116145275Y-64379097D01*
X116145273Y-64379096D01*
X116021479Y-64342074D01*
X116014718Y-64340052D01*
X115928694Y-64339527D01*
X115878448Y-64339220D01*
X115871396Y-64339177D01*
X115864620Y-64341114D01*
X115864617Y-64341114D01*
X115740369Y-64376624D01*
X115740367Y-64376625D01*
X115733589Y-64378562D01*
X115727624Y-64382326D01*
X115727621Y-64382327D01*
X115635123Y-64440688D01*
X115575821Y-64455749D01*
X115518991Y-64433076D01*
X115512292Y-64426965D01*
X115242566Y-64157239D01*
X115214789Y-64102722D01*
X115214417Y-64074314D01*
X115223353Y-64006435D01*
X115223353Y-64006434D01*
X115224200Y-64000000D01*
X115203783Y-63844916D01*
X115143922Y-63700400D01*
X115048698Y-63576302D01*
X114924600Y-63481078D01*
X114793951Y-63426961D01*
X114786081Y-63423701D01*
X114780084Y-63421217D01*
X114649258Y-63403994D01*
X114631434Y-63401647D01*
X114625000Y-63400800D01*
X114618566Y-63401647D01*
X114563846Y-63408851D01*
X114543580Y-63411519D01*
X114483419Y-63400369D01*
X114441302Y-63355986D01*
X114433316Y-63295325D01*
X114466363Y-63238086D01*
X114501319Y-63208231D01*
X114501320Y-63208230D01*
X114505857Y-63204355D01*
X114562215Y-63125924D01*
X114600632Y-63072462D01*
X114600633Y-63072460D01*
X114604116Y-63067613D01*
X114611938Y-63048157D01*
X114664697Y-62916913D01*
X114664697Y-62916911D01*
X114666921Y-62911380D01*
X114670805Y-62884094D01*
X114677871Y-62834442D01*
X115140971Y-62834442D01*
X115178427Y-63066985D01*
X115254528Y-63289893D01*
X115367099Y-63496792D01*
X115369688Y-63500076D01*
X115469343Y-63626488D01*
X115512920Y-63681766D01*
X115687824Y-63839526D01*
X115691364Y-63841768D01*
X115691365Y-63841769D01*
X115706495Y-63851352D01*
X115886807Y-63965562D01*
X115955370Y-63994172D01*
X116100313Y-64054655D01*
X116100318Y-64054657D01*
X116104182Y-64056269D01*
X116108270Y-64057209D01*
X116329647Y-64108114D01*
X116329651Y-64108115D01*
X116333732Y-64109053D01*
X116337910Y-64109290D01*
X116337915Y-64109291D01*
X116564712Y-64122170D01*
X116564717Y-64122170D01*
X116568893Y-64122407D01*
X116802943Y-64095947D01*
X116806966Y-64094782D01*
X116806971Y-64094781D01*
X116945536Y-64054655D01*
X117029189Y-64030431D01*
X117241161Y-63927731D01*
X117432799Y-63790785D01*
X117555657Y-63666850D01*
X117595668Y-63626488D01*
X117595668Y-63626487D01*
X117598623Y-63623507D01*
X117733892Y-63430682D01*
X117736286Y-63425629D01*
X117832940Y-63221617D01*
X117832942Y-63221613D01*
X117834738Y-63217821D01*
X117898277Y-62991013D01*
X117922693Y-62756741D01*
X117922950Y-62730000D01*
X117922328Y-62722661D01*
X117903390Y-62499474D01*
X117903390Y-62499473D01*
X117903036Y-62495303D01*
X117895835Y-62467559D01*
X117844915Y-62271372D01*
X117844914Y-62271369D01*
X117843862Y-62267316D01*
X117835655Y-62249096D01*
X117794847Y-62158507D01*
X117747121Y-62052559D01*
X117615579Y-61857172D01*
X117452997Y-61686742D01*
X117401681Y-61648562D01*
X117267389Y-61548646D01*
X117267386Y-61548644D01*
X117264023Y-61546142D01*
X117135468Y-61480781D01*
X117057794Y-61441289D01*
X117057790Y-61441287D01*
X117054062Y-61439392D01*
X116829116Y-61369544D01*
X116797991Y-61365419D01*
X116599769Y-61339146D01*
X116599765Y-61339146D01*
X116595617Y-61338596D01*
X116591432Y-61338753D01*
X116591429Y-61338753D01*
X116499819Y-61342193D01*
X116360242Y-61347433D01*
X116129721Y-61395801D01*
X115910645Y-61482318D01*
X115907069Y-61484488D01*
X115907065Y-61484490D01*
X115793464Y-61553425D01*
X115709279Y-61604510D01*
X115531379Y-61758884D01*
X115528720Y-61762127D01*
X115528718Y-61762129D01*
X115447929Y-61860658D01*
X115382033Y-61941024D01*
X115265511Y-62145724D01*
X115185145Y-62367130D01*
X115143232Y-62598912D01*
X115140971Y-62834442D01*
X114677871Y-62834442D01*
X114690190Y-62747882D01*
X114690190Y-62747878D01*
X114690646Y-62744676D01*
X114690800Y-62730000D01*
X114672578Y-62579417D01*
X114671288Y-62568758D01*
X114671287Y-62568755D01*
X114670571Y-62562836D01*
X114625190Y-62442740D01*
X114613161Y-62410905D01*
X114613160Y-62410903D01*
X114611051Y-62405322D01*
X114603238Y-62393954D01*
X114519058Y-62271470D01*
X114519055Y-62271467D01*
X114515678Y-62266553D01*
X114478031Y-62233011D01*
X114394410Y-62158507D01*
X114394408Y-62158506D01*
X114389956Y-62154539D01*
X114380755Y-62149667D01*
X114336282Y-62126120D01*
X114241144Y-62075747D01*
X114148830Y-62052559D01*
X114083624Y-62036180D01*
X114083621Y-62036180D01*
X114077834Y-62034726D01*
X113992833Y-62034281D01*
X113915418Y-62033875D01*
X113915416Y-62033875D01*
X113909452Y-62033844D01*
X113745721Y-62073153D01*
X113699809Y-62096850D01*
X113601398Y-62147643D01*
X113601396Y-62147645D01*
X113596092Y-62150382D01*
X113527740Y-62210009D01*
X113486553Y-62245939D01*
X113469204Y-62261073D01*
X113465773Y-62265955D01*
X113465772Y-62265956D01*
X113410219Y-62345000D01*
X113372383Y-62398836D01*
X113347761Y-62461989D01*
X113317219Y-62540325D01*
X113311217Y-62555718D01*
X113289238Y-62722661D01*
X113289893Y-62728594D01*
X113289893Y-62728598D01*
X113301116Y-62830250D01*
X113307716Y-62890028D01*
X113309768Y-62895635D01*
X113349146Y-63003240D01*
X113365583Y-63048157D01*
X113459498Y-63187917D01*
X113517694Y-63240871D01*
X113548007Y-63294018D01*
X113541293Y-63354833D01*
X113500114Y-63400088D01*
X113438142Y-63412246D01*
X113361434Y-63402147D01*
X113348566Y-63402147D01*
X113206481Y-63420853D01*
X113194048Y-63424184D01*
X113115180Y-63456852D01*
X113106519Y-63464250D01*
X113109649Y-63471806D01*
X113343914Y-63706071D01*
X113355797Y-63712125D01*
X113360828Y-63711329D01*
X113598219Y-63473938D01*
X113618418Y-63434294D01*
X113618714Y-63432423D01*
X113661972Y-63389152D01*
X113722402Y-63379572D01*
X113732035Y-63381591D01*
X113894891Y-63424316D01*
X113900860Y-63424410D01*
X113900862Y-63424410D01*
X113961871Y-63425368D01*
X114063254Y-63426961D01*
X114069068Y-63425629D01*
X114069072Y-63425629D01*
X114102137Y-63418056D01*
X114163080Y-63423495D01*
X114209187Y-63463717D01*
X114222846Y-63523358D01*
X114200520Y-63575702D01*
X114201302Y-63576302D01*
X114106078Y-63700400D01*
X114084904Y-63751519D01*
X114081196Y-63760470D01*
X114041459Y-63806996D01*
X113981964Y-63821279D01*
X113925436Y-63797864D01*
X113898268Y-63760470D01*
X113898148Y-63760180D01*
X113890750Y-63751519D01*
X113883194Y-63754649D01*
X113648929Y-63988914D01*
X113642875Y-64000797D01*
X113643671Y-64005828D01*
X113881062Y-64243219D01*
X113891210Y-64248390D01*
X113896994Y-64242606D01*
X113898268Y-64239530D01*
X113938005Y-64193005D01*
X113997499Y-64178721D01*
X114054027Y-64202136D01*
X114081196Y-64239530D01*
X114106078Y-64299600D01*
X114201302Y-64423698D01*
X114325400Y-64518922D01*
X114364141Y-64534969D01*
X114384823Y-64543536D01*
X114431349Y-64583273D01*
X114445632Y-64642768D01*
X114422217Y-64699296D01*
X114384823Y-64726464D01*
X114325400Y-64751078D01*
X114201302Y-64846302D01*
X114106078Y-64970400D01*
X114093674Y-65000345D01*
X114081464Y-65029823D01*
X114041727Y-65076349D01*
X113982232Y-65090632D01*
X113925704Y-65067217D01*
X113898536Y-65029823D01*
X113886326Y-65000345D01*
X113873922Y-64970400D01*
X113778698Y-64846302D01*
X113654600Y-64751078D01*
X113594530Y-64726196D01*
X113548004Y-64686459D01*
X113533721Y-64626964D01*
X113557136Y-64570436D01*
X113594530Y-64543268D01*
X113594820Y-64543148D01*
X113603481Y-64535750D01*
X113600351Y-64528194D01*
X113366086Y-64293929D01*
X113354203Y-64287875D01*
X113349172Y-64288671D01*
X113111781Y-64526062D01*
X113106610Y-64536210D01*
X113112394Y-64541994D01*
X113115470Y-64543268D01*
X113161995Y-64583005D01*
X113176279Y-64642499D01*
X113152864Y-64699027D01*
X113115470Y-64726196D01*
X113055400Y-64751078D01*
X112931302Y-64846302D01*
X112927348Y-64851455D01*
X112885673Y-64905767D01*
X112835249Y-64940423D01*
X112807131Y-64944500D01*
X110265834Y-64944500D01*
X110207643Y-64925593D01*
X110195830Y-64915504D01*
X108624250Y-63343923D01*
X108114769Y-62834442D01*
X110060971Y-62834442D01*
X110098427Y-63066985D01*
X110174528Y-63289893D01*
X110287099Y-63496792D01*
X110289688Y-63500076D01*
X110389343Y-63626488D01*
X110432920Y-63681766D01*
X110607824Y-63839526D01*
X110611364Y-63841768D01*
X110611365Y-63841769D01*
X110626495Y-63851352D01*
X110806807Y-63965562D01*
X110875370Y-63994172D01*
X111020313Y-64054655D01*
X111020318Y-64054657D01*
X111024182Y-64056269D01*
X111028270Y-64057209D01*
X111249647Y-64108114D01*
X111249651Y-64108115D01*
X111253732Y-64109053D01*
X111257910Y-64109290D01*
X111257915Y-64109291D01*
X111484712Y-64122170D01*
X111484717Y-64122170D01*
X111488893Y-64122407D01*
X111722943Y-64095947D01*
X111726966Y-64094782D01*
X111726971Y-64094781D01*
X111865536Y-64054655D01*
X111949189Y-64030431D01*
X112025278Y-63993566D01*
X112757147Y-63993566D01*
X112757147Y-64006434D01*
X112775853Y-64148519D01*
X112779184Y-64160952D01*
X112811852Y-64239820D01*
X112819250Y-64248481D01*
X112826806Y-64245351D01*
X113061071Y-64011086D01*
X113067125Y-63999203D01*
X113066329Y-63994172D01*
X112828938Y-63756781D01*
X112818790Y-63751610D01*
X112813006Y-63757394D01*
X112779184Y-63839048D01*
X112775853Y-63851481D01*
X112757147Y-63993566D01*
X112025278Y-63993566D01*
X112161161Y-63927731D01*
X112352799Y-63790785D01*
X112475657Y-63666850D01*
X112515668Y-63626488D01*
X112515668Y-63626487D01*
X112518623Y-63623507D01*
X112653892Y-63430682D01*
X112656286Y-63425629D01*
X112752940Y-63221617D01*
X112752942Y-63221613D01*
X112754738Y-63217821D01*
X112818277Y-62991013D01*
X112842693Y-62756741D01*
X112842950Y-62730000D01*
X112842328Y-62722661D01*
X112823390Y-62499474D01*
X112823390Y-62499473D01*
X112823036Y-62495303D01*
X112815835Y-62467559D01*
X112764915Y-62271372D01*
X112764914Y-62271369D01*
X112763862Y-62267316D01*
X112755655Y-62249096D01*
X112714847Y-62158507D01*
X112667121Y-62052559D01*
X112535579Y-61857172D01*
X112372997Y-61686742D01*
X112321681Y-61648562D01*
X112187389Y-61548646D01*
X112187386Y-61548644D01*
X112184023Y-61546142D01*
X112055468Y-61480781D01*
X111977794Y-61441289D01*
X111977790Y-61441287D01*
X111974062Y-61439392D01*
X111749116Y-61369544D01*
X111717991Y-61365419D01*
X111519769Y-61339146D01*
X111519765Y-61339146D01*
X111515617Y-61338596D01*
X111511432Y-61338753D01*
X111511429Y-61338753D01*
X111419819Y-61342193D01*
X111280242Y-61347433D01*
X111049721Y-61395801D01*
X110830645Y-61482318D01*
X110827069Y-61484488D01*
X110827065Y-61484490D01*
X110713464Y-61553425D01*
X110629279Y-61604510D01*
X110451379Y-61758884D01*
X110448720Y-61762127D01*
X110448718Y-61762129D01*
X110367929Y-61860658D01*
X110302033Y-61941024D01*
X110185511Y-62145724D01*
X110105145Y-62367130D01*
X110063232Y-62598912D01*
X110060971Y-62834442D01*
X108114769Y-62834442D01*
X107033093Y-61752766D01*
X107027258Y-61746398D01*
X107013773Y-61730327D01*
X107002441Y-61716822D01*
X106968795Y-61697396D01*
X106961514Y-61692758D01*
X106936772Y-61675434D01*
X106936771Y-61675433D01*
X106929675Y-61670465D01*
X106921306Y-61668223D01*
X106916017Y-61665757D01*
X106910539Y-61663763D01*
X106903038Y-61659432D01*
X106894510Y-61657928D01*
X106894509Y-61657928D01*
X106864774Y-61652685D01*
X106856342Y-61650816D01*
X106827168Y-61642999D01*
X106827169Y-61642999D01*
X106818805Y-61640758D01*
X106780383Y-61644120D01*
X106780344Y-61644123D01*
X106771715Y-61644500D01*
X102578293Y-61644500D01*
X102569664Y-61644123D01*
X102531195Y-61640757D01*
X102522833Y-61642998D01*
X102522828Y-61642998D01*
X102493648Y-61650817D01*
X102485218Y-61652686D01*
X102478373Y-61653893D01*
X102455489Y-61657928D01*
X102455487Y-61657929D01*
X102446962Y-61659432D01*
X102439464Y-61663761D01*
X102433982Y-61665756D01*
X102428693Y-61668223D01*
X102420325Y-61670465D01*
X102400661Y-61684234D01*
X102388497Y-61692751D01*
X102381216Y-61697390D01*
X102347559Y-61716822D01*
X102341993Y-61723455D01*
X102341991Y-61723457D01*
X102322737Y-61746404D01*
X102316902Y-61752772D01*
X101632767Y-62436906D01*
X101626399Y-62442740D01*
X101603459Y-62461989D01*
X101603456Y-62461992D01*
X101596822Y-62467559D01*
X101580804Y-62495303D01*
X101577397Y-62501204D01*
X101572758Y-62508486D01*
X101558088Y-62529438D01*
X101550465Y-62540325D01*
X101548223Y-62548694D01*
X101545757Y-62553983D01*
X101543763Y-62559461D01*
X101539432Y-62566962D01*
X101537928Y-62575490D01*
X101537928Y-62575491D01*
X101532685Y-62605226D01*
X101530816Y-62613658D01*
X101520758Y-62651195D01*
X101521513Y-62659822D01*
X101524123Y-62689656D01*
X101524500Y-62698285D01*
X101524500Y-63210500D01*
X101505593Y-63268691D01*
X101456093Y-63304655D01*
X101425500Y-63309500D01*
X101340000Y-63309500D01*
X101269312Y-63323561D01*
X101230688Y-63323561D01*
X101160000Y-63309500D01*
X100940000Y-63309500D01*
X100869312Y-63323561D01*
X100830688Y-63323561D01*
X100760000Y-63309500D01*
X100674500Y-63309500D01*
X100616309Y-63290593D01*
X100580345Y-63241093D01*
X100575500Y-63210500D01*
X100575500Y-61631405D01*
X100594407Y-61573214D01*
X100643907Y-61537250D01*
X100659776Y-61533506D01*
X100713935Y-61525364D01*
X100720606Y-61522161D01*
X100720608Y-61522160D01*
X100829361Y-61469937D01*
X100836029Y-61466735D01*
X100935486Y-61374798D01*
X100964585Y-61324700D01*
X100999795Y-61264083D01*
X100999796Y-61264080D01*
X101003513Y-61257681D01*
X101030500Y-61141252D01*
X101030500Y-60556742D01*
X101025022Y-60520303D01*
X101016465Y-60463386D01*
X101016464Y-60463384D01*
X101015364Y-60456065D01*
X101002624Y-60429533D01*
X100959937Y-60340639D01*
X100956735Y-60333971D01*
X100864798Y-60234514D01*
X100814700Y-60205415D01*
X100754083Y-60170205D01*
X100754080Y-60170204D01*
X100747681Y-60166487D01*
X100682145Y-60151296D01*
X100629727Y-60119739D01*
X100605869Y-60063397D01*
X100605500Y-60054854D01*
X100605500Y-59411465D01*
X100624407Y-59353274D01*
X100675391Y-59316841D01*
X100676615Y-59316465D01*
X100683935Y-59315364D01*
X100806029Y-59256735D01*
X100905486Y-59164798D01*
X100934585Y-59114700D01*
X100969795Y-59054083D01*
X100969796Y-59054080D01*
X100973513Y-59047681D01*
X101000500Y-58931252D01*
X101000500Y-58246742D01*
X100995022Y-58210303D01*
X100986465Y-58153386D01*
X100986464Y-58153384D01*
X100985364Y-58146065D01*
X100980934Y-58136838D01*
X100929937Y-58030639D01*
X100926735Y-58023971D01*
X100917009Y-58013449D01*
X100891395Y-57957883D01*
X100903333Y-57897874D01*
X100905273Y-57894995D01*
X100905486Y-57894798D01*
X100948347Y-57821008D01*
X100969795Y-57784083D01*
X100969796Y-57784080D01*
X100973513Y-57777681D01*
X101000500Y-57661252D01*
X101000500Y-56976742D01*
X100988827Y-56899096D01*
X100986465Y-56883386D01*
X100986464Y-56883384D01*
X100985364Y-56876065D01*
X100977255Y-56859177D01*
X100929937Y-56760639D01*
X100926735Y-56753971D01*
X100834798Y-56654514D01*
X100717681Y-56586487D01*
X100702146Y-56582886D01*
X100649727Y-56551328D01*
X100625869Y-56494986D01*
X100625500Y-56486443D01*
X100625500Y-55811465D01*
X100644407Y-55753274D01*
X100695391Y-55716841D01*
X100696615Y-55716465D01*
X100703935Y-55715364D01*
X100826029Y-55656735D01*
X100925486Y-55564798D01*
X100954585Y-55514700D01*
X100989795Y-55454083D01*
X100989796Y-55454080D01*
X100993513Y-55447681D01*
X101020500Y-55331252D01*
X101020500Y-54746742D01*
X101005364Y-54646065D01*
X100992624Y-54619533D01*
X100949937Y-54530639D01*
X100946735Y-54523971D01*
X100854798Y-54424514D01*
X100804700Y-54395415D01*
X100744083Y-54360205D01*
X100744080Y-54360204D01*
X100737681Y-54356487D01*
X100672145Y-54341296D01*
X100619727Y-54309739D01*
X100595869Y-54253397D01*
X100595500Y-54244854D01*
X100595500Y-54001691D01*
X100614407Y-53943500D01*
X100663907Y-53907536D01*
X100693635Y-53902695D01*
X123825135Y-53700585D01*
X123883489Y-53718983D01*
G37*
%TD.AperFunction*%
%TD*%
M02*
