M48
; DRILL file {KiCad (5.99.0-10483-ga6ad7a4a70)} date Tue May 18 08:29:21 2021
; FORMAT={2:4/ absolute / inch / suppress leading zeros}
; #@! TF.CreationDate,2021-05-18T08:29:21+02:00
; #@! TF.GenerationSoftware,Kicad,Pcbnew,(5.99.0-10483-ga6ad7a4a70)
; #@! TF.FileFunction,Plated,1,2,PTH
FMAT,2
INCH,TZ
; #@! TA.AperFunction,Plated,PTH,ViaDrill
T1C0.0098
; #@! TA.AperFunction,Plated,PTH,ComponentDrill
T2C0.0118
%
G90
G05
T1
X35650Y-23520
X35650Y-25071
X35756Y-37173
X35894Y-26976
X36965Y-22583
X37059Y-25906
X37799Y-25236
X37819Y-27339
X37957Y-24689
X38559Y-22740
X38740Y-37457
X38858Y-38382
X38937Y-24453
X38992Y-36197
X39000Y-35567
X39008Y-35898
X39209Y-40602
X39240Y-38496
X39291Y-29114
X39311Y-26165
X39685Y-33346
X39850Y-43591
X41114Y-34213
X42130Y-25500
X43496Y-28181
X43728Y-40004
X43807Y-25953
X45646Y-25528
X46024Y-26087
T2
X38665Y-20939
T0
M30
