M48
; DRILL file {KiCad (5.99.0-10483-ga6ad7a4a70)} date Mon May 17 14:47:57 2021
; FORMAT={2:4/ absolute / inch / suppress leading zeros}
; #@! TF.CreationDate,2021-05-17T14:47:57+02:00
; #@! TF.GenerationSoftware,Kicad,Pcbnew,(5.99.0-10483-ga6ad7a4a70)
; #@! TF.FileFunction,Plated,1,2,PTH
FMAT,2
INCH,TZ
; #@! TA.AperFunction,Plated,PTH,ViaDrill
T1C0.0098
; #@! TA.AperFunction,Plated,PTH,ComponentDrill
T2C0.0118
; #@! TA.AperFunction,Plated,PTH,ComponentDrill
T3C0.0280
%
G90
G05
T1
X35650Y-23520
X35756Y-37173
X35827Y-26224
X35909Y-25012
X36965Y-22583
X37425Y-24776
X37799Y-25236
X37819Y-27339
X38559Y-22740
X38563Y-44445
X38740Y-37457
X38858Y-38382
X38937Y-24453
X38992Y-36197
X39000Y-35567
X39008Y-35898
X39209Y-40602
X39240Y-38496
X39291Y-29114
X39311Y-26165
X39685Y-33346
X40181Y-24327
X41114Y-34213
X42500Y-25118
X43728Y-40004
T2
X38665Y-20939
T3
X44646Y-25480
X44646Y-25980
X44646Y-26480
X44646Y-26980
X44646Y-27480
X45146Y-25480
X45146Y-25980
X45146Y-26480
X45146Y-26980
X45146Y-27480
T0
M30
