%TF.GenerationSoftware,KiCad,Pcbnew,(5.99.0-10483-ga6ad7a4a70)*%
%TF.CreationDate,2021-05-18T08:29:19+02:00*%
%TF.ProjectId,quadkey,71756164-6b65-4792-9e6b-696361645f70,rev?*%
%TF.SameCoordinates,Original*%
%TF.FileFunction,Copper,L2,Bot*%
%TF.FilePolarity,Positive*%
%FSLAX46Y46*%
G04 Gerber Fmt 4.6, Leading zero omitted, Abs format (unit mm)*
G04 Created by KiCad (PCBNEW (5.99.0-10483-ga6ad7a4a70)) date 2021-05-18 08:29:19*
%MOMM*%
%LPD*%
G01*
G04 APERTURE LIST*
G04 Aperture macros list*
%AMRoundRect*
0 Rectangle with rounded corners*
0 $1 Rounding radius*
0 $2 $3 $4 $5 $6 $7 $8 $9 X,Y pos of 4 corners*
0 Add a 4 corners polygon primitive as box body*
4,1,4,$2,$3,$4,$5,$6,$7,$8,$9,$2,$3,0*
0 Add four circle primitives for the rounded corners*
1,1,$1+$1,$2,$3*
1,1,$1+$1,$4,$5*
1,1,$1+$1,$6,$7*
1,1,$1+$1,$8,$9*
0 Add four rect primitives between the rounded corners*
20,1,$1+$1,$2,$3,$4,$5,0*
20,1,$1+$1,$4,$5,$6,$7,0*
20,1,$1+$1,$6,$7,$8,$9,0*
20,1,$1+$1,$8,$9,$2,$3,0*%
G04 Aperture macros list end*
%TA.AperFunction,ComponentPad*%
%ADD10R,0.900000X0.500000*%
%TD*%
%TA.AperFunction,SMDPad,CuDef*%
%ADD11RoundRect,0.250000X0.250000X0.300000X-0.250000X0.300000X-0.250000X-0.300000X0.250000X-0.300000X0*%
%TD*%
%TA.AperFunction,SMDPad,CuDef*%
%ADD12R,1.000000X3.500000*%
%TD*%
%TA.AperFunction,SMDPad,CuDef*%
%ADD13R,1.500000X3.400000*%
%TD*%
%TA.AperFunction,ViaPad*%
%ADD14C,0.600000*%
%TD*%
%TA.AperFunction,Conductor*%
%ADD15C,0.250000*%
%TD*%
%TA.AperFunction,Conductor*%
%ADD16C,0.500000*%
%TD*%
G04 APERTURE END LIST*
D10*
%TO.P,AE1,2*%
%TO.N,N/C*%
X98210000Y-53185000D03*
%TD*%
D11*
%TO.P,C9,1*%
%TO.N,GND*%
X96905000Y-59555000D03*
%TO.P,C9,2*%
%TO.N,Net-(C9-Pad2)*%
X96905000Y-60825000D03*
%TD*%
D12*
%TO.P,BT1,1,+*%
%TO.N,VBAT*%
X111090000Y-116210000D03*
%TO.P,BT1,2,-*%
%TO.N,GND*%
X113090000Y-116210000D03*
D13*
%TO.P,BT1,M*%
%TO.N,N/C*%
X108740000Y-110660000D03*
%TO.P,BT1,N*%
X115440000Y-110660000D03*
%TD*%
D14*
%TO.N,+3V3*%
X96010000Y-64100000D03*
X96060000Y-69440000D03*
%TO.N,VBAT*%
X98700000Y-97490000D03*
X98400000Y-95140000D03*
X99590000Y-103130000D03*
%TO.N,GND*%
X90820000Y-94420000D03*
X94130000Y-65800000D03*
X99040000Y-91940000D03*
X99850000Y-66460000D03*
X93890000Y-57360000D03*
X111270000Y-65920000D03*
X116900000Y-66260000D03*
X101220000Y-110720000D03*
X90550000Y-59740000D03*
X111070000Y-101610000D03*
X99670000Y-97780000D03*
X91170000Y-68520000D03*
X104430000Y-86900000D03*
X110480000Y-71580000D03*
X97940000Y-57760000D03*
X99060000Y-90340000D03*
X99080000Y-91180000D03*
X99800000Y-73950000D03*
X100800000Y-84700000D03*
%TO.N,Net-(C9-Pad2)*%
X98900000Y-62110000D03*
%TO.N,Net-(C13-Pad1)*%
X90550000Y-63680000D03*
X96410000Y-62710000D03*
%TO.N,/mcu/RST*%
X115940000Y-64840000D03*
X107010000Y-64770000D03*
%TD*%
D15*
%TO.N,+3V3*%
X96010000Y-64100000D02*
X96010000Y-69390000D01*
X96010000Y-69390000D02*
X96060000Y-69440000D01*
%TO.N,VBAT*%
X98400000Y-97190000D02*
X98700000Y-97490000D01*
D16*
X111090000Y-116210000D02*
X111090000Y-107610000D01*
D15*
X98400000Y-95140000D02*
X98400000Y-97190000D01*
D16*
X111090000Y-107610000D02*
X108660000Y-105180000D01*
X99590000Y-104830000D02*
X99590000Y-103130000D01*
X108660000Y-105180000D02*
X99940000Y-105180000D01*
X99940000Y-105180000D02*
X99590000Y-104830000D01*
D15*
%TO.N,Net-(C9-Pad2)*%
X97615000Y-60825000D02*
X98900000Y-62110000D01*
X96905000Y-60825000D02*
X97615000Y-60825000D01*
%TO.N,Net-(C13-Pad1)*%
X90880000Y-62710000D02*
X96410000Y-62710000D01*
X90550000Y-63040000D02*
X90880000Y-62710000D01*
X90550000Y-63680000D02*
X90550000Y-63040000D01*
%TO.N,/mcu/RST*%
X107010000Y-64770000D02*
X115870000Y-64770000D01*
X115870000Y-64770000D02*
X115940000Y-64840000D01*
%TD*%
%TA.AperFunction,Conductor*%
%TO.N,GND*%
G36*
X123883498Y-53699967D02*
G01*
X123919887Y-53749155D01*
X123925000Y-53780558D01*
X123925000Y-55796919D01*
X123925069Y-55797224D01*
X123925113Y-55798013D01*
X123925103Y-55809268D01*
X123925104Y-55809271D01*
X123925094Y-55820417D01*
X123929919Y-55830466D01*
X123930320Y-55831300D01*
X123937594Y-55852131D01*
X123940279Y-55863900D01*
X123947227Y-55872619D01*
X123947631Y-55873126D01*
X123959456Y-55891976D01*
X123964565Y-55902616D01*
X123973269Y-55909577D01*
X123973271Y-55909579D01*
X123973991Y-55910154D01*
X123989580Y-55925769D01*
X123997105Y-55935212D01*
X124007145Y-55940055D01*
X124007148Y-55940057D01*
X124007738Y-55940341D01*
X124026557Y-55952191D01*
X124035778Y-55959565D01*
X124046644Y-55962064D01*
X124046647Y-55962065D01*
X124047543Y-55962271D01*
X124068359Y-55969581D01*
X124069192Y-55969983D01*
X124069195Y-55969984D01*
X124079234Y-55974826D01*
X124101631Y-55974845D01*
X124102425Y-55974891D01*
X124102899Y-55975000D01*
X126376000Y-55975000D01*
X126434191Y-55993907D01*
X126470155Y-56043407D01*
X126475000Y-56074000D01*
X126475000Y-60476000D01*
X126456093Y-60534191D01*
X126406593Y-60570155D01*
X126376000Y-60575000D01*
X125603081Y-60575000D01*
X125602776Y-60575069D01*
X125601987Y-60575113D01*
X125590732Y-60575103D01*
X125590729Y-60575104D01*
X125579583Y-60575094D01*
X125568697Y-60580321D01*
X125547869Y-60587594D01*
X125546970Y-60587799D01*
X125546969Y-60587799D01*
X125536100Y-60590279D01*
X125527381Y-60597227D01*
X125526874Y-60597631D01*
X125508024Y-60609456D01*
X125497384Y-60614565D01*
X125490423Y-60623269D01*
X125490421Y-60623271D01*
X125489846Y-60623991D01*
X125474231Y-60639580D01*
X125464788Y-60647105D01*
X125459945Y-60657145D01*
X125459943Y-60657148D01*
X125459659Y-60657738D01*
X125447809Y-60676557D01*
X125440435Y-60685778D01*
X125437936Y-60696644D01*
X125437935Y-60696647D01*
X125437729Y-60697543D01*
X125430419Y-60718359D01*
X125430017Y-60719192D01*
X125430016Y-60719195D01*
X125425174Y-60729234D01*
X125425155Y-60751623D01*
X125425109Y-60752425D01*
X125425000Y-60752899D01*
X125425000Y-85796919D01*
X125425069Y-85797224D01*
X125425113Y-85798013D01*
X125425103Y-85809268D01*
X125425104Y-85809271D01*
X125425094Y-85820417D01*
X125429919Y-85830466D01*
X125430320Y-85831300D01*
X125437594Y-85852131D01*
X125440279Y-85863900D01*
X125447227Y-85872619D01*
X125447631Y-85873126D01*
X125459456Y-85891976D01*
X125464565Y-85902616D01*
X125473269Y-85909577D01*
X125473271Y-85909579D01*
X125473991Y-85910154D01*
X125489580Y-85925769D01*
X125497105Y-85935212D01*
X125507145Y-85940055D01*
X125507148Y-85940057D01*
X125507738Y-85940341D01*
X125526557Y-85952191D01*
X125535778Y-85959565D01*
X125546644Y-85962064D01*
X125546647Y-85962065D01*
X125547543Y-85962271D01*
X125568359Y-85969581D01*
X125569192Y-85969983D01*
X125569195Y-85969984D01*
X125579234Y-85974826D01*
X125601631Y-85974845D01*
X125602425Y-85974891D01*
X125602899Y-85975000D01*
X126376000Y-85975000D01*
X126434191Y-85993907D01*
X126470155Y-86043407D01*
X126475000Y-86074000D01*
X126475000Y-90476000D01*
X126456093Y-90534191D01*
X126406593Y-90570155D01*
X126376000Y-90575000D01*
X124103081Y-90575000D01*
X124102776Y-90575069D01*
X124101987Y-90575113D01*
X124090732Y-90575103D01*
X124090729Y-90575104D01*
X124079583Y-90575094D01*
X124068697Y-90580321D01*
X124047869Y-90587594D01*
X124046970Y-90587799D01*
X124046969Y-90587799D01*
X124036100Y-90590279D01*
X124027381Y-90597227D01*
X124026874Y-90597631D01*
X124008024Y-90609456D01*
X123997384Y-90614565D01*
X123990423Y-90623269D01*
X123990421Y-90623271D01*
X123989846Y-90623991D01*
X123974231Y-90639580D01*
X123964788Y-90647105D01*
X123959945Y-90657145D01*
X123959943Y-90657148D01*
X123959659Y-90657738D01*
X123947809Y-90676557D01*
X123940435Y-90685778D01*
X123937936Y-90696644D01*
X123937935Y-90696647D01*
X123937729Y-90697543D01*
X123930419Y-90718359D01*
X123930017Y-90719192D01*
X123930016Y-90719195D01*
X123925174Y-90729234D01*
X123925155Y-90751623D01*
X123925109Y-90752425D01*
X123925000Y-90752899D01*
X123925000Y-118476000D01*
X123906093Y-118534191D01*
X123856593Y-118570155D01*
X123826000Y-118575000D01*
X122503081Y-118575000D01*
X122502776Y-118575069D01*
X122501987Y-118575113D01*
X122490732Y-118575103D01*
X122490729Y-118575104D01*
X122479583Y-118575094D01*
X122468697Y-118580321D01*
X122447869Y-118587594D01*
X122446970Y-118587799D01*
X122446969Y-118587799D01*
X122436100Y-118590279D01*
X122427381Y-118597227D01*
X122426874Y-118597631D01*
X122408024Y-118609456D01*
X122397384Y-118614565D01*
X122390423Y-118623269D01*
X122390421Y-118623271D01*
X122389846Y-118623991D01*
X122374231Y-118639580D01*
X122364788Y-118647105D01*
X122359945Y-118657145D01*
X122359943Y-118657148D01*
X122359659Y-118657738D01*
X122347809Y-118676557D01*
X122340435Y-118685778D01*
X122337936Y-118696644D01*
X122337935Y-118696647D01*
X122337729Y-118697543D01*
X122330419Y-118718359D01*
X122330017Y-118719192D01*
X122330016Y-118719195D01*
X122325174Y-118729234D01*
X122325155Y-118751623D01*
X122325109Y-118752425D01*
X122325000Y-118752899D01*
X122325000Y-119576000D01*
X122306093Y-119634191D01*
X122256593Y-119670155D01*
X122226000Y-119675000D01*
X118024000Y-119675000D01*
X117965809Y-119656093D01*
X117929845Y-119606593D01*
X117925000Y-119576000D01*
X117925000Y-118753081D01*
X117924931Y-118752776D01*
X117924887Y-118751987D01*
X117924897Y-118740732D01*
X117924896Y-118740729D01*
X117924906Y-118729583D01*
X117919679Y-118718697D01*
X117912406Y-118697869D01*
X117912201Y-118696970D01*
X117912201Y-118696969D01*
X117909721Y-118686100D01*
X117902369Y-118676874D01*
X117890544Y-118658024D01*
X117890260Y-118657433D01*
X117885435Y-118647384D01*
X117876731Y-118640423D01*
X117876729Y-118640421D01*
X117876009Y-118639846D01*
X117860420Y-118624231D01*
X117852895Y-118614788D01*
X117842855Y-118609945D01*
X117842852Y-118609943D01*
X117842262Y-118609659D01*
X117823443Y-118597809D01*
X117814222Y-118590435D01*
X117803356Y-118587936D01*
X117803353Y-118587935D01*
X117802457Y-118587729D01*
X117781641Y-118580419D01*
X117780808Y-118580017D01*
X117780805Y-118580016D01*
X117770766Y-118575174D01*
X117748369Y-118575155D01*
X117747575Y-118575109D01*
X117747101Y-118575000D01*
X108003081Y-118575000D01*
X108002776Y-118575069D01*
X108001987Y-118575113D01*
X107990732Y-118575103D01*
X107990729Y-118575104D01*
X107979583Y-118575094D01*
X107968697Y-118580321D01*
X107947869Y-118587594D01*
X107946970Y-118587799D01*
X107946969Y-118587799D01*
X107936100Y-118590279D01*
X107927381Y-118597227D01*
X107926874Y-118597631D01*
X107908024Y-118609456D01*
X107897384Y-118614565D01*
X107890423Y-118623269D01*
X107890421Y-118623271D01*
X107889846Y-118623991D01*
X107874231Y-118639580D01*
X107864788Y-118647105D01*
X107859945Y-118657145D01*
X107859943Y-118657148D01*
X107859659Y-118657738D01*
X107847809Y-118676557D01*
X107840435Y-118685778D01*
X107837936Y-118696644D01*
X107837935Y-118696647D01*
X107837729Y-118697543D01*
X107830419Y-118718359D01*
X107830017Y-118719192D01*
X107830016Y-118719195D01*
X107825174Y-118729234D01*
X107825155Y-118751623D01*
X107825109Y-118752425D01*
X107825000Y-118752899D01*
X107825000Y-119576000D01*
X107806093Y-119634191D01*
X107756593Y-119670155D01*
X107726000Y-119675000D01*
X103524000Y-119675000D01*
X103465809Y-119656093D01*
X103429845Y-119606593D01*
X103425000Y-119576000D01*
X103425000Y-118753081D01*
X103424931Y-118752776D01*
X103424887Y-118751987D01*
X103424897Y-118740732D01*
X103424896Y-118740729D01*
X103424906Y-118729583D01*
X103419679Y-118718697D01*
X103412406Y-118697869D01*
X103412201Y-118696970D01*
X103412201Y-118696969D01*
X103409721Y-118686100D01*
X103402369Y-118676874D01*
X103390544Y-118658024D01*
X103390260Y-118657433D01*
X103385435Y-118647384D01*
X103376731Y-118640423D01*
X103376729Y-118640421D01*
X103376009Y-118639846D01*
X103360420Y-118624231D01*
X103352895Y-118614788D01*
X103342855Y-118609945D01*
X103342852Y-118609943D01*
X103342262Y-118609659D01*
X103323443Y-118597809D01*
X103314222Y-118590435D01*
X103303356Y-118587936D01*
X103303353Y-118587935D01*
X103302457Y-118587729D01*
X103281641Y-118580419D01*
X103280808Y-118580017D01*
X103280805Y-118580016D01*
X103270766Y-118575174D01*
X103248369Y-118575155D01*
X103247575Y-118575109D01*
X103247101Y-118575000D01*
X93503081Y-118575000D01*
X93502776Y-118575069D01*
X93501987Y-118575113D01*
X93490732Y-118575103D01*
X93490729Y-118575104D01*
X93479583Y-118575094D01*
X93468697Y-118580321D01*
X93447869Y-118587594D01*
X93446970Y-118587799D01*
X93446969Y-118587799D01*
X93436100Y-118590279D01*
X93427381Y-118597227D01*
X93426874Y-118597631D01*
X93408024Y-118609456D01*
X93397384Y-118614565D01*
X93390423Y-118623269D01*
X93390421Y-118623271D01*
X93389846Y-118623991D01*
X93374231Y-118639580D01*
X93364788Y-118647105D01*
X93359945Y-118657145D01*
X93359943Y-118657148D01*
X93359659Y-118657738D01*
X93347809Y-118676557D01*
X93340435Y-118685778D01*
X93337936Y-118696644D01*
X93337935Y-118696647D01*
X93337729Y-118697543D01*
X93330419Y-118718359D01*
X93330017Y-118719192D01*
X93330016Y-118719195D01*
X93325174Y-118729234D01*
X93325155Y-118751623D01*
X93325109Y-118752425D01*
X93325000Y-118752899D01*
X93325000Y-119576000D01*
X93306093Y-119634191D01*
X93256593Y-119670155D01*
X93226000Y-119675000D01*
X89024000Y-119675000D01*
X88965809Y-119656093D01*
X88929845Y-119606593D01*
X88925000Y-119576000D01*
X88925000Y-118753081D01*
X88924931Y-118752776D01*
X88924887Y-118751987D01*
X88924897Y-118740732D01*
X88924896Y-118740729D01*
X88924906Y-118729583D01*
X88919679Y-118718697D01*
X88912406Y-118697869D01*
X88912201Y-118696970D01*
X88912201Y-118696969D01*
X88909721Y-118686100D01*
X88902369Y-118676874D01*
X88890544Y-118658024D01*
X88890260Y-118657433D01*
X88885435Y-118647384D01*
X88876731Y-118640423D01*
X88876729Y-118640421D01*
X88876009Y-118639846D01*
X88860420Y-118624231D01*
X88852895Y-118614788D01*
X88842855Y-118609945D01*
X88842852Y-118609943D01*
X88842262Y-118609659D01*
X88823443Y-118597809D01*
X88814222Y-118590435D01*
X88803356Y-118587936D01*
X88803353Y-118587935D01*
X88802457Y-118587729D01*
X88781641Y-118580419D01*
X88780808Y-118580017D01*
X88780805Y-118580016D01*
X88770766Y-118575174D01*
X88748369Y-118575155D01*
X88747575Y-118575109D01*
X88747101Y-118575000D01*
X87424000Y-118575000D01*
X87365809Y-118556093D01*
X87329845Y-118506593D01*
X87325000Y-118476000D01*
X87325000Y-108960000D01*
X107784500Y-108960000D01*
X107784500Y-112360000D01*
X107800143Y-112438641D01*
X107844690Y-112505310D01*
X107911359Y-112549857D01*
X107920922Y-112551759D01*
X107920924Y-112551760D01*
X107946200Y-112556787D01*
X107990000Y-112565500D01*
X109490000Y-112565500D01*
X109533800Y-112556787D01*
X109559076Y-112551760D01*
X109559078Y-112551759D01*
X109568641Y-112549857D01*
X109635310Y-112505310D01*
X109679857Y-112438641D01*
X109695500Y-112360000D01*
X109695500Y-108960000D01*
X109679857Y-108881359D01*
X109635310Y-108814690D01*
X109568641Y-108770143D01*
X109559078Y-108768241D01*
X109559076Y-108768240D01*
X109533800Y-108763213D01*
X109490000Y-108754500D01*
X107990000Y-108754500D01*
X107946200Y-108763213D01*
X107920924Y-108768240D01*
X107920922Y-108768241D01*
X107911359Y-108770143D01*
X107844690Y-108814690D01*
X107800143Y-108881359D01*
X107784500Y-108960000D01*
X87325000Y-108960000D01*
X87325000Y-103123824D01*
X99084538Y-103123824D01*
X99103121Y-103265939D01*
X99105962Y-103272395D01*
X99105962Y-103272396D01*
X99131116Y-103329562D01*
X99139500Y-103369434D01*
X99139500Y-104798123D01*
X99138814Y-104809759D01*
X99134725Y-104844308D01*
X99136054Y-104851585D01*
X99136054Y-104851588D01*
X99145337Y-104902414D01*
X99145846Y-104905471D01*
X99154636Y-104963935D01*
X99157761Y-104970443D01*
X99159058Y-104977545D01*
X99162469Y-104984111D01*
X99162469Y-104984112D01*
X99186293Y-105029975D01*
X99187682Y-105032754D01*
X99213265Y-105086029D01*
X99217368Y-105090468D01*
X99218892Y-105092729D01*
X99221493Y-105097736D01*
X99226525Y-105103628D01*
X99264951Y-105142054D01*
X99267644Y-105144856D01*
X99305202Y-105185486D01*
X99311077Y-105188899D01*
X99317958Y-105195061D01*
X99598915Y-105476018D01*
X99606651Y-105484724D01*
X99628189Y-105512045D01*
X99634276Y-105516252D01*
X99634277Y-105516253D01*
X99676807Y-105545648D01*
X99679322Y-105547445D01*
X99726858Y-105582555D01*
X99733668Y-105584946D01*
X99739608Y-105589052D01*
X99746661Y-105591283D01*
X99746666Y-105591285D01*
X99784441Y-105603231D01*
X99795971Y-105606878D01*
X99798856Y-105607840D01*
X99854648Y-105627432D01*
X99860688Y-105627669D01*
X99863367Y-105628191D01*
X99868744Y-105629892D01*
X99874365Y-105630334D01*
X99874368Y-105630335D01*
X99874454Y-105630341D01*
X99876469Y-105630500D01*
X99930787Y-105630500D01*
X99934673Y-105630576D01*
X99982590Y-105632459D01*
X99982593Y-105632459D01*
X99989984Y-105632749D01*
X99996551Y-105631008D01*
X100005776Y-105630500D01*
X108432389Y-105630500D01*
X108490580Y-105649407D01*
X108502393Y-105659496D01*
X110610504Y-107767608D01*
X110638281Y-107822125D01*
X110639500Y-107837612D01*
X110639500Y-114163406D01*
X110620593Y-114221597D01*
X110571093Y-114257561D01*
X110559815Y-114260503D01*
X110520928Y-114268239D01*
X110520925Y-114268240D01*
X110511359Y-114270143D01*
X110444690Y-114314690D01*
X110400143Y-114381359D01*
X110384500Y-114460000D01*
X110384500Y-117960000D01*
X110400143Y-118038641D01*
X110444690Y-118105310D01*
X110511359Y-118149857D01*
X110520922Y-118151759D01*
X110520924Y-118151760D01*
X110546047Y-118156757D01*
X110590000Y-118165500D01*
X111590000Y-118165500D01*
X111633953Y-118156757D01*
X111659076Y-118151760D01*
X111659078Y-118151759D01*
X111668641Y-118149857D01*
X111735310Y-118105310D01*
X111779857Y-118038641D01*
X111795500Y-117960000D01*
X111795500Y-116418243D01*
X112385000Y-116418243D01*
X112385000Y-117955142D01*
X112385948Y-117964763D01*
X112398703Y-118028888D01*
X112406022Y-118046557D01*
X112439624Y-118096847D01*
X112453153Y-118110376D01*
X112503443Y-118143978D01*
X112521112Y-118151297D01*
X112585237Y-118164052D01*
X112594858Y-118165000D01*
X112874320Y-118165000D01*
X112887005Y-118160878D01*
X112890000Y-118156757D01*
X112890000Y-116425680D01*
X112887583Y-116418243D01*
X113290000Y-116418243D01*
X113290000Y-118149320D01*
X113294122Y-118162005D01*
X113298243Y-118165000D01*
X113585142Y-118165000D01*
X113594763Y-118164052D01*
X113658888Y-118151297D01*
X113676557Y-118143978D01*
X113726847Y-118110376D01*
X113740376Y-118096847D01*
X113773978Y-118046557D01*
X113781297Y-118028888D01*
X113794052Y-117964763D01*
X113795000Y-117955142D01*
X113795000Y-116425680D01*
X113790878Y-116412995D01*
X113786757Y-116410000D01*
X113305680Y-116410000D01*
X113292995Y-116414122D01*
X113290000Y-116418243D01*
X112887583Y-116418243D01*
X112885878Y-116412995D01*
X112881757Y-116410000D01*
X112400680Y-116410000D01*
X112387995Y-116414122D01*
X112385000Y-116418243D01*
X111795500Y-116418243D01*
X111795500Y-114464858D01*
X112385000Y-114464858D01*
X112385000Y-115994320D01*
X112389122Y-116007005D01*
X112393243Y-116010000D01*
X112874320Y-116010000D01*
X112887005Y-116005878D01*
X112890000Y-116001757D01*
X112890000Y-114270680D01*
X112887583Y-114263243D01*
X113290000Y-114263243D01*
X113290000Y-115994320D01*
X113294122Y-116007005D01*
X113298243Y-116010000D01*
X113779320Y-116010000D01*
X113792005Y-116005878D01*
X113795000Y-116001757D01*
X113795000Y-114464858D01*
X113794052Y-114455237D01*
X113781297Y-114391112D01*
X113773978Y-114373443D01*
X113740376Y-114323153D01*
X113726847Y-114309624D01*
X113676557Y-114276022D01*
X113658888Y-114268703D01*
X113594763Y-114255948D01*
X113585142Y-114255000D01*
X113305680Y-114255000D01*
X113292995Y-114259122D01*
X113290000Y-114263243D01*
X112887583Y-114263243D01*
X112885878Y-114257995D01*
X112881757Y-114255000D01*
X112594858Y-114255000D01*
X112585237Y-114255948D01*
X112521112Y-114268703D01*
X112503443Y-114276022D01*
X112453153Y-114309624D01*
X112439624Y-114323153D01*
X112406022Y-114373443D01*
X112398703Y-114391112D01*
X112385948Y-114455237D01*
X112385000Y-114464858D01*
X111795500Y-114464858D01*
X111795500Y-114460000D01*
X111779857Y-114381359D01*
X111735310Y-114314690D01*
X111668641Y-114270143D01*
X111659075Y-114268240D01*
X111659072Y-114268239D01*
X111620185Y-114260503D01*
X111566801Y-114230606D01*
X111541186Y-114175041D01*
X111540500Y-114163406D01*
X111540500Y-108960000D01*
X114484500Y-108960000D01*
X114484500Y-112360000D01*
X114500143Y-112438641D01*
X114544690Y-112505310D01*
X114611359Y-112549857D01*
X114620922Y-112551759D01*
X114620924Y-112551760D01*
X114646200Y-112556787D01*
X114690000Y-112565500D01*
X116190000Y-112565500D01*
X116233800Y-112556787D01*
X116259076Y-112551760D01*
X116259078Y-112551759D01*
X116268641Y-112549857D01*
X116335310Y-112505310D01*
X116379857Y-112438641D01*
X116395500Y-112360000D01*
X116395500Y-108960000D01*
X116379857Y-108881359D01*
X116335310Y-108814690D01*
X116268641Y-108770143D01*
X116259078Y-108768241D01*
X116259076Y-108768240D01*
X116233800Y-108763213D01*
X116190000Y-108754500D01*
X114690000Y-108754500D01*
X114646200Y-108763213D01*
X114620924Y-108768240D01*
X114620922Y-108768241D01*
X114611359Y-108770143D01*
X114544690Y-108814690D01*
X114500143Y-108881359D01*
X114484500Y-108960000D01*
X111540500Y-108960000D01*
X111540500Y-107641877D01*
X111541186Y-107630241D01*
X111544405Y-107603040D01*
X111545275Y-107595692D01*
X111543946Y-107588415D01*
X111543946Y-107588412D01*
X111534663Y-107537586D01*
X111534152Y-107534518D01*
X111526464Y-107483381D01*
X111525364Y-107476065D01*
X111522239Y-107469557D01*
X111520942Y-107462455D01*
X111493706Y-107410023D01*
X111492317Y-107407244D01*
X111469938Y-107360642D01*
X111466735Y-107353971D01*
X111462632Y-107349532D01*
X111461108Y-107347271D01*
X111458507Y-107342264D01*
X111453475Y-107336372D01*
X111415049Y-107297946D01*
X111412355Y-107295143D01*
X111379822Y-107259949D01*
X111374798Y-107254514D01*
X111368923Y-107251101D01*
X111362042Y-107244939D01*
X109001081Y-104883977D01*
X108993339Y-104875263D01*
X108976394Y-104853768D01*
X108976393Y-104853767D01*
X108971811Y-104847955D01*
X108945544Y-104829800D01*
X108923217Y-104814369D01*
X108920688Y-104812562D01*
X108879097Y-104781843D01*
X108879095Y-104781842D01*
X108873142Y-104777445D01*
X108866332Y-104775054D01*
X108860392Y-104770948D01*
X108853339Y-104768717D01*
X108853334Y-104768715D01*
X108815559Y-104756769D01*
X108804029Y-104753122D01*
X108801144Y-104752160D01*
X108745352Y-104732568D01*
X108739312Y-104732331D01*
X108736633Y-104731809D01*
X108731256Y-104730108D01*
X108725635Y-104729666D01*
X108725632Y-104729665D01*
X108725546Y-104729659D01*
X108723531Y-104729500D01*
X108669213Y-104729500D01*
X108665327Y-104729424D01*
X108617410Y-104727541D01*
X108617407Y-104727541D01*
X108610016Y-104727251D01*
X108603449Y-104728992D01*
X108594224Y-104729500D01*
X100167610Y-104729500D01*
X100109419Y-104710593D01*
X100097605Y-104700502D01*
X100069495Y-104672391D01*
X100041719Y-104617874D01*
X100040500Y-104602389D01*
X100040500Y-103370537D01*
X100050406Y-103327371D01*
X100068494Y-103290038D01*
X100068494Y-103290037D01*
X100071570Y-103283689D01*
X100074557Y-103265939D01*
X100094715Y-103146120D01*
X100094715Y-103146117D01*
X100095349Y-103142350D01*
X100095500Y-103130000D01*
X100075182Y-102988123D01*
X100015860Y-102857651D01*
X99922303Y-102749074D01*
X99802033Y-102671118D01*
X99795275Y-102669097D01*
X99795273Y-102669096D01*
X99671479Y-102632074D01*
X99664718Y-102630052D01*
X99578694Y-102629527D01*
X99528448Y-102629220D01*
X99521396Y-102629177D01*
X99514620Y-102631114D01*
X99514617Y-102631114D01*
X99390369Y-102666624D01*
X99390367Y-102666625D01*
X99383589Y-102668562D01*
X99262375Y-102745042D01*
X99167499Y-102852469D01*
X99106588Y-102982206D01*
X99084538Y-103123824D01*
X87325000Y-103123824D01*
X87325000Y-95133824D01*
X97894538Y-95133824D01*
X97913121Y-95275939D01*
X97915962Y-95282395D01*
X97915962Y-95282396D01*
X97917870Y-95286731D01*
X97970845Y-95407126D01*
X97975382Y-95412523D01*
X97975383Y-95412525D01*
X98051283Y-95502818D01*
X98074253Y-95559528D01*
X98074500Y-95566520D01*
X98074500Y-97171715D01*
X98074123Y-97180344D01*
X98070758Y-97218805D01*
X98072999Y-97227168D01*
X98080816Y-97256342D01*
X98082685Y-97264774D01*
X98089432Y-97303038D01*
X98093763Y-97310539D01*
X98095757Y-97316017D01*
X98098223Y-97321306D01*
X98100465Y-97329675D01*
X98105433Y-97336771D01*
X98105434Y-97336772D01*
X98122758Y-97361514D01*
X98127396Y-97368795D01*
X98146822Y-97402441D01*
X98153456Y-97408008D01*
X98153459Y-97408011D01*
X98160098Y-97413582D01*
X98192521Y-97465470D01*
X98194609Y-97483369D01*
X98194538Y-97483824D01*
X98213121Y-97625939D01*
X98215962Y-97632395D01*
X98215962Y-97632396D01*
X98217870Y-97636731D01*
X98270845Y-97757126D01*
X98363068Y-97866838D01*
X98368939Y-97870746D01*
X98368940Y-97870747D01*
X98381235Y-97878931D01*
X98482377Y-97946257D01*
X98489104Y-97948359D01*
X98489107Y-97948360D01*
X98612448Y-97986894D01*
X98612449Y-97986894D01*
X98619180Y-97988997D01*
X98690830Y-97990310D01*
X98755427Y-97991495D01*
X98755429Y-97991495D01*
X98762481Y-97991624D01*
X98769284Y-97989769D01*
X98769286Y-97989769D01*
X98816065Y-97977015D01*
X98900758Y-97953925D01*
X99022897Y-97878931D01*
X99119078Y-97772672D01*
X99181570Y-97643689D01*
X99184557Y-97625939D01*
X99204715Y-97506120D01*
X99204715Y-97506117D01*
X99205349Y-97502350D01*
X99205500Y-97490000D01*
X99185182Y-97348123D01*
X99176795Y-97329675D01*
X99128780Y-97224073D01*
X99128780Y-97224072D01*
X99125860Y-97217651D01*
X99032303Y-97109074D01*
X98912033Y-97031118D01*
X98796133Y-96996457D01*
X98745801Y-96961670D01*
X98725500Y-96901608D01*
X98725500Y-95564206D01*
X98744407Y-95506015D01*
X98751103Y-95497769D01*
X98814346Y-95427900D01*
X98814346Y-95427899D01*
X98819078Y-95422672D01*
X98881570Y-95293689D01*
X98884557Y-95275939D01*
X98904715Y-95156120D01*
X98904715Y-95156117D01*
X98905349Y-95152350D01*
X98905500Y-95140000D01*
X98885182Y-94998123D01*
X98825860Y-94867651D01*
X98732303Y-94759074D01*
X98612033Y-94681118D01*
X98605275Y-94679097D01*
X98605273Y-94679096D01*
X98481479Y-94642074D01*
X98474718Y-94640052D01*
X98388694Y-94639527D01*
X98338448Y-94639220D01*
X98331396Y-94639177D01*
X98324620Y-94641114D01*
X98324617Y-94641114D01*
X98200369Y-94676624D01*
X98200367Y-94676625D01*
X98193589Y-94678562D01*
X98072375Y-94755042D01*
X97977499Y-94862469D01*
X97916588Y-94992206D01*
X97894538Y-95133824D01*
X87325000Y-95133824D01*
X87325000Y-90753081D01*
X87324931Y-90752776D01*
X87324887Y-90751987D01*
X87324897Y-90740732D01*
X87324896Y-90740729D01*
X87324906Y-90729583D01*
X87319679Y-90718697D01*
X87312406Y-90697869D01*
X87312201Y-90696970D01*
X87312201Y-90696969D01*
X87309721Y-90686100D01*
X87302369Y-90676874D01*
X87290544Y-90658024D01*
X87290260Y-90657433D01*
X87285435Y-90647384D01*
X87276731Y-90640423D01*
X87276729Y-90640421D01*
X87276009Y-90639846D01*
X87260420Y-90624231D01*
X87252895Y-90614788D01*
X87242855Y-90609945D01*
X87242852Y-90609943D01*
X87242262Y-90609659D01*
X87223443Y-90597809D01*
X87214222Y-90590435D01*
X87203356Y-90587936D01*
X87203353Y-90587935D01*
X87202457Y-90587729D01*
X87181641Y-90580419D01*
X87180808Y-90580017D01*
X87180805Y-90580016D01*
X87170766Y-90575174D01*
X87148369Y-90575155D01*
X87147575Y-90575109D01*
X87147101Y-90575000D01*
X84874000Y-90575000D01*
X84815809Y-90556093D01*
X84779845Y-90506593D01*
X84775000Y-90476000D01*
X84775000Y-86074000D01*
X84793907Y-86015809D01*
X84843407Y-85979845D01*
X84874000Y-85975000D01*
X85646919Y-85975000D01*
X85647224Y-85974931D01*
X85648013Y-85974887D01*
X85659268Y-85974897D01*
X85659271Y-85974896D01*
X85670417Y-85974906D01*
X85681303Y-85969679D01*
X85702131Y-85962406D01*
X85703030Y-85962201D01*
X85703031Y-85962201D01*
X85713900Y-85959721D01*
X85723126Y-85952369D01*
X85741976Y-85940544D01*
X85752616Y-85935435D01*
X85759577Y-85926731D01*
X85759579Y-85926729D01*
X85760154Y-85926009D01*
X85775769Y-85910420D01*
X85785212Y-85902895D01*
X85790055Y-85892855D01*
X85790057Y-85892852D01*
X85790341Y-85892262D01*
X85802191Y-85873443D01*
X85809565Y-85864222D01*
X85812064Y-85853356D01*
X85812065Y-85853353D01*
X85812271Y-85852457D01*
X85819581Y-85831641D01*
X85819983Y-85830808D01*
X85819984Y-85830805D01*
X85824826Y-85820766D01*
X85824845Y-85798369D01*
X85824891Y-85797575D01*
X85825000Y-85797101D01*
X85825000Y-80319059D01*
X90820346Y-80319059D01*
X90820561Y-80321947D01*
X90824868Y-80379905D01*
X90835062Y-80517081D01*
X90844640Y-80645979D01*
X90845189Y-80648819D01*
X90845190Y-80648823D01*
X90881434Y-80836153D01*
X90906911Y-80967832D01*
X91006307Y-81280222D01*
X91141471Y-81578882D01*
X91211488Y-81695180D01*
X91309065Y-81857255D01*
X91309071Y-81857264D01*
X91310557Y-81859732D01*
X91312323Y-81862013D01*
X91312330Y-81862023D01*
X91509476Y-82116641D01*
X91511255Y-82118938D01*
X91513284Y-82121007D01*
X91513289Y-82121012D01*
X91596442Y-82205776D01*
X91740824Y-82352957D01*
X91996128Y-82558594D01*
X92273681Y-82733040D01*
X92427863Y-82806416D01*
X92567078Y-82872670D01*
X92567086Y-82872673D01*
X92569691Y-82873913D01*
X92880115Y-82979288D01*
X93200713Y-83047725D01*
X93527107Y-83078291D01*
X93529997Y-83078223D01*
X93530000Y-83078223D01*
X93851955Y-83070636D01*
X93851956Y-83070636D01*
X93854838Y-83070568D01*
X93944764Y-83057850D01*
X94176567Y-83025066D01*
X94176571Y-83025065D01*
X94179429Y-83024661D01*
X94283225Y-82997334D01*
X94493661Y-82941931D01*
X94493669Y-82941928D01*
X94496447Y-82941197D01*
X94801563Y-82821316D01*
X95090608Y-82666656D01*
X95092972Y-82665010D01*
X95092980Y-82665005D01*
X95357258Y-82480985D01*
X95357260Y-82480983D01*
X95359636Y-82479329D01*
X95604970Y-82261893D01*
X95655057Y-82205776D01*
X95821334Y-82019478D01*
X95821335Y-82019477D01*
X95823260Y-82017320D01*
X95824913Y-82014963D01*
X95824919Y-82014956D01*
X96009868Y-81751310D01*
X96011525Y-81748948D01*
X96167193Y-81460444D01*
X96243377Y-81268516D01*
X96287070Y-81158440D01*
X96287071Y-81158438D01*
X96288138Y-81155749D01*
X96288885Y-81152952D01*
X96371962Y-80841823D01*
X96371963Y-80841817D01*
X96372709Y-80839024D01*
X96419749Y-80514594D01*
X96430000Y-80275000D01*
X96410844Y-79947739D01*
X96353636Y-79624947D01*
X96308854Y-79476152D01*
X96259995Y-79313811D01*
X96259992Y-79313803D01*
X96259159Y-79311035D01*
X96128703Y-79010288D01*
X95964050Y-78726817D01*
X95767448Y-78464491D01*
X95541583Y-78226895D01*
X95323578Y-78045582D01*
X95291773Y-78019130D01*
X95291771Y-78019129D01*
X95289540Y-78017273D01*
X95066435Y-77872110D01*
X95017183Y-77840064D01*
X95017180Y-77840062D01*
X95014762Y-77838489D01*
X94756401Y-77710518D01*
X94723588Y-77694265D01*
X94723583Y-77694263D01*
X94721001Y-77692984D01*
X94447832Y-77595444D01*
X94414984Y-77583715D01*
X94414983Y-77583715D01*
X94412270Y-77582746D01*
X94092786Y-77509281D01*
X94089919Y-77508967D01*
X94089913Y-77508966D01*
X93895956Y-77487725D01*
X93766913Y-77473592D01*
X93592824Y-77474959D01*
X93441993Y-77476144D01*
X93441988Y-77476144D01*
X93439102Y-77476167D01*
X93436233Y-77476527D01*
X93436231Y-77476527D01*
X93177635Y-77508966D01*
X93113829Y-77516970D01*
X92795539Y-77595444D01*
X92488578Y-77710518D01*
X92197139Y-77860619D01*
X92194746Y-77862230D01*
X92194736Y-77862236D01*
X91927606Y-78042079D01*
X91925203Y-78043697D01*
X91676483Y-78257252D01*
X91454378Y-78498367D01*
X91261921Y-78763748D01*
X91260503Y-78766280D01*
X91123852Y-79010288D01*
X91101740Y-79049771D01*
X90976024Y-79352529D01*
X90886490Y-79667887D01*
X90886029Y-79670751D01*
X90841415Y-79947739D01*
X90834360Y-79991537D01*
X90820346Y-80319059D01*
X85825000Y-80319059D01*
X85825000Y-70342661D01*
X112273238Y-70342661D01*
X112273893Y-70348594D01*
X112273893Y-70348598D01*
X112287162Y-70468779D01*
X112291716Y-70510028D01*
X112349583Y-70668157D01*
X112443498Y-70807917D01*
X112447910Y-70811932D01*
X112447913Y-70811935D01*
X112563622Y-70917222D01*
X112568040Y-70921242D01*
X112716018Y-71001587D01*
X112721787Y-71003101D01*
X112721791Y-71003102D01*
X112873112Y-71042800D01*
X112878891Y-71044316D01*
X112884860Y-71044410D01*
X112884862Y-71044410D01*
X112945871Y-71045368D01*
X113047254Y-71046961D01*
X113065422Y-71042800D01*
X113205569Y-71010702D01*
X113205571Y-71010701D01*
X113211388Y-71009369D01*
X113226861Y-71001587D01*
X113356491Y-70936390D01*
X113356493Y-70936389D01*
X113361817Y-70933711D01*
X113366353Y-70929837D01*
X113485319Y-70828231D01*
X113485320Y-70828230D01*
X113489857Y-70824355D01*
X113588116Y-70687613D01*
X113595938Y-70668157D01*
X113648697Y-70536913D01*
X113648697Y-70536911D01*
X113650921Y-70531380D01*
X113654805Y-70504094D01*
X113674190Y-70367882D01*
X113674190Y-70367878D01*
X113674646Y-70364676D01*
X113674800Y-70350000D01*
X113673912Y-70342661D01*
X114305238Y-70342661D01*
X114305893Y-70348594D01*
X114305893Y-70348598D01*
X114319162Y-70468779D01*
X114323716Y-70510028D01*
X114381583Y-70668157D01*
X114475498Y-70807917D01*
X114479910Y-70811932D01*
X114479913Y-70811935D01*
X114595622Y-70917222D01*
X114600040Y-70921242D01*
X114748018Y-71001587D01*
X114753787Y-71003101D01*
X114753791Y-71003102D01*
X114905112Y-71042800D01*
X114910891Y-71044316D01*
X114916860Y-71044410D01*
X114916862Y-71044410D01*
X114977871Y-71045368D01*
X115079254Y-71046961D01*
X115097422Y-71042800D01*
X115237569Y-71010702D01*
X115237571Y-71010701D01*
X115243388Y-71009369D01*
X115258861Y-71001587D01*
X115388491Y-70936390D01*
X115388493Y-70936389D01*
X115393817Y-70933711D01*
X115398353Y-70929837D01*
X115517319Y-70828231D01*
X115517320Y-70828230D01*
X115521857Y-70824355D01*
X115620116Y-70687613D01*
X115627938Y-70668157D01*
X115680697Y-70536913D01*
X115680697Y-70536911D01*
X115682921Y-70531380D01*
X115686805Y-70504094D01*
X115706190Y-70367882D01*
X115706190Y-70367878D01*
X115706646Y-70364676D01*
X115706800Y-70350000D01*
X115686571Y-70182836D01*
X115627051Y-70025322D01*
X115619238Y-70013954D01*
X115535058Y-69891470D01*
X115535055Y-69891467D01*
X115531678Y-69886553D01*
X115461797Y-69824291D01*
X115410410Y-69778507D01*
X115410408Y-69778506D01*
X115405956Y-69774539D01*
X115257144Y-69695747D01*
X115175489Y-69675237D01*
X115099624Y-69656180D01*
X115099621Y-69656180D01*
X115093834Y-69654726D01*
X115008833Y-69654281D01*
X114931418Y-69653875D01*
X114931416Y-69653875D01*
X114925452Y-69653844D01*
X114761721Y-69693153D01*
X114716822Y-69716327D01*
X114617398Y-69767643D01*
X114617396Y-69767645D01*
X114612092Y-69770382D01*
X114485204Y-69881073D01*
X114481773Y-69885955D01*
X114481772Y-69885956D01*
X114444404Y-69939126D01*
X114388383Y-70018836D01*
X114327217Y-70175718D01*
X114305238Y-70342661D01*
X113673912Y-70342661D01*
X113654571Y-70182836D01*
X113595051Y-70025322D01*
X113587238Y-70013954D01*
X113503058Y-69891470D01*
X113503055Y-69891467D01*
X113499678Y-69886553D01*
X113429797Y-69824291D01*
X113378410Y-69778507D01*
X113378408Y-69778506D01*
X113373956Y-69774539D01*
X113225144Y-69695747D01*
X113143489Y-69675237D01*
X113067624Y-69656180D01*
X113067621Y-69656180D01*
X113061834Y-69654726D01*
X112976833Y-69654281D01*
X112899418Y-69653875D01*
X112899416Y-69653875D01*
X112893452Y-69653844D01*
X112729721Y-69693153D01*
X112684822Y-69716327D01*
X112585398Y-69767643D01*
X112585396Y-69767645D01*
X112580092Y-69770382D01*
X112453204Y-69881073D01*
X112449773Y-69885955D01*
X112449772Y-69885956D01*
X112412404Y-69939126D01*
X112356383Y-70018836D01*
X112295217Y-70175718D01*
X112273238Y-70342661D01*
X85825000Y-70342661D01*
X85825000Y-63673824D01*
X90044538Y-63673824D01*
X90045453Y-63680822D01*
X90059442Y-63787800D01*
X90063121Y-63815939D01*
X90065962Y-63822395D01*
X90065962Y-63822396D01*
X90074487Y-63841769D01*
X90120845Y-63947126D01*
X90213068Y-64056838D01*
X90218939Y-64060746D01*
X90218940Y-64060747D01*
X90231235Y-64068931D01*
X90332377Y-64136257D01*
X90339104Y-64138359D01*
X90339107Y-64138360D01*
X90462448Y-64176894D01*
X90462449Y-64176894D01*
X90469180Y-64178997D01*
X90540830Y-64180310D01*
X90605427Y-64181495D01*
X90605429Y-64181495D01*
X90612481Y-64181624D01*
X90619284Y-64179769D01*
X90619286Y-64179769D01*
X90666065Y-64167015D01*
X90750758Y-64143925D01*
X90832355Y-64093824D01*
X95504538Y-64093824D01*
X95505453Y-64100822D01*
X95510362Y-64138360D01*
X95523121Y-64235939D01*
X95525962Y-64242395D01*
X95525962Y-64242396D01*
X95557890Y-64314956D01*
X95580845Y-64367126D01*
X95585382Y-64372523D01*
X95585383Y-64372525D01*
X95661283Y-64462818D01*
X95684253Y-64519528D01*
X95684500Y-64526520D01*
X95684500Y-69071792D01*
X95665593Y-69129983D01*
X95659711Y-69137318D01*
X95637499Y-69162469D01*
X95576588Y-69292206D01*
X95554538Y-69433824D01*
X95573121Y-69575939D01*
X95575962Y-69582395D01*
X95575962Y-69582396D01*
X95624697Y-69693153D01*
X95630845Y-69707126D01*
X95723068Y-69816838D01*
X95728939Y-69820746D01*
X95728940Y-69820747D01*
X95733907Y-69824053D01*
X95842377Y-69896257D01*
X95849104Y-69898359D01*
X95849107Y-69898360D01*
X95972448Y-69936894D01*
X95972449Y-69936894D01*
X95979180Y-69938997D01*
X96050830Y-69940310D01*
X96115427Y-69941495D01*
X96115429Y-69941495D01*
X96122481Y-69941624D01*
X96129284Y-69939769D01*
X96129286Y-69939769D01*
X96176065Y-69927015D01*
X96260758Y-69903925D01*
X96382897Y-69828931D01*
X96458478Y-69745431D01*
X96474346Y-69727900D01*
X96474346Y-69727899D01*
X96479078Y-69722672D01*
X96541570Y-69593689D01*
X96544557Y-69575939D01*
X96564715Y-69456120D01*
X96564715Y-69456117D01*
X96565349Y-69452350D01*
X96565500Y-69440000D01*
X96545182Y-69298123D01*
X96485860Y-69167651D01*
X96392303Y-69059074D01*
X96380653Y-69051523D01*
X96342107Y-69004008D01*
X96335500Y-68968448D01*
X96335500Y-68549442D01*
X110060971Y-68549442D01*
X110098427Y-68781985D01*
X110174528Y-69004893D01*
X110287099Y-69211792D01*
X110289688Y-69215076D01*
X110389343Y-69341488D01*
X110432920Y-69396766D01*
X110607824Y-69554526D01*
X110806807Y-69680562D01*
X110883405Y-69712525D01*
X111020313Y-69769655D01*
X111020318Y-69769657D01*
X111024182Y-69771269D01*
X111028270Y-69772209D01*
X111249647Y-69823114D01*
X111249651Y-69823115D01*
X111253732Y-69824053D01*
X111257910Y-69824290D01*
X111257915Y-69824291D01*
X111484712Y-69837170D01*
X111484717Y-69837170D01*
X111488893Y-69837407D01*
X111722943Y-69810947D01*
X111726966Y-69809782D01*
X111726971Y-69809781D01*
X111872484Y-69767643D01*
X111949189Y-69745431D01*
X112161161Y-69642731D01*
X112352799Y-69505785D01*
X112518623Y-69338507D01*
X112637637Y-69168853D01*
X112651481Y-69149119D01*
X112651481Y-69149118D01*
X112653892Y-69145682D01*
X112671152Y-69109250D01*
X112752940Y-68936617D01*
X112752942Y-68936613D01*
X112754738Y-68932821D01*
X112818277Y-68706013D01*
X112834595Y-68549442D01*
X115140971Y-68549442D01*
X115178427Y-68781985D01*
X115254528Y-69004893D01*
X115367099Y-69211792D01*
X115369688Y-69215076D01*
X115469343Y-69341488D01*
X115512920Y-69396766D01*
X115687824Y-69554526D01*
X115886807Y-69680562D01*
X115963405Y-69712525D01*
X116100313Y-69769655D01*
X116100318Y-69769657D01*
X116104182Y-69771269D01*
X116108270Y-69772209D01*
X116329647Y-69823114D01*
X116329651Y-69823115D01*
X116333732Y-69824053D01*
X116337910Y-69824290D01*
X116337915Y-69824291D01*
X116564712Y-69837170D01*
X116564717Y-69837170D01*
X116568893Y-69837407D01*
X116802943Y-69810947D01*
X116806966Y-69809782D01*
X116806971Y-69809781D01*
X116952484Y-69767643D01*
X117029189Y-69745431D01*
X117241161Y-69642731D01*
X117432799Y-69505785D01*
X117598623Y-69338507D01*
X117717637Y-69168853D01*
X117731481Y-69149119D01*
X117731481Y-69149118D01*
X117733892Y-69145682D01*
X117751152Y-69109250D01*
X117832940Y-68936617D01*
X117832942Y-68936613D01*
X117834738Y-68932821D01*
X117898277Y-68706013D01*
X117922693Y-68471741D01*
X117922950Y-68445000D01*
X117912184Y-68318110D01*
X117903390Y-68214474D01*
X117903390Y-68214473D01*
X117903036Y-68210303D01*
X117843862Y-67982316D01*
X117747121Y-67767559D01*
X117615579Y-67572172D01*
X117452997Y-67401742D01*
X117264023Y-67261142D01*
X117135468Y-67195781D01*
X117057794Y-67156289D01*
X117057790Y-67156287D01*
X117054062Y-67154392D01*
X116829116Y-67084544D01*
X116797991Y-67080419D01*
X116599769Y-67054146D01*
X116599765Y-67054146D01*
X116595617Y-67053596D01*
X116591432Y-67053753D01*
X116591429Y-67053753D01*
X116499819Y-67057193D01*
X116360242Y-67062433D01*
X116129721Y-67110801D01*
X115910645Y-67197318D01*
X115907069Y-67199488D01*
X115907065Y-67199490D01*
X115808596Y-67259243D01*
X115709279Y-67319510D01*
X115531379Y-67473884D01*
X115528720Y-67477127D01*
X115528718Y-67477129D01*
X115447929Y-67575658D01*
X115382033Y-67656024D01*
X115265511Y-67860724D01*
X115185145Y-68082130D01*
X115143232Y-68313912D01*
X115140971Y-68549442D01*
X112834595Y-68549442D01*
X112842693Y-68471741D01*
X112842950Y-68445000D01*
X112832184Y-68318110D01*
X112823390Y-68214474D01*
X112823390Y-68214473D01*
X112823036Y-68210303D01*
X112763862Y-67982316D01*
X112667121Y-67767559D01*
X112535579Y-67572172D01*
X112372997Y-67401742D01*
X112184023Y-67261142D01*
X112055468Y-67195781D01*
X111977794Y-67156289D01*
X111977790Y-67156287D01*
X111974062Y-67154392D01*
X111749116Y-67084544D01*
X111717991Y-67080419D01*
X111519769Y-67054146D01*
X111519765Y-67054146D01*
X111515617Y-67053596D01*
X111511432Y-67053753D01*
X111511429Y-67053753D01*
X111419819Y-67057193D01*
X111280242Y-67062433D01*
X111049721Y-67110801D01*
X110830645Y-67197318D01*
X110827069Y-67199488D01*
X110827065Y-67199490D01*
X110728596Y-67259243D01*
X110629279Y-67319510D01*
X110451379Y-67473884D01*
X110448720Y-67477127D01*
X110448718Y-67477129D01*
X110367929Y-67575658D01*
X110302033Y-67656024D01*
X110185511Y-67860724D01*
X110105145Y-68082130D01*
X110063232Y-68313912D01*
X110060971Y-68549442D01*
X96335500Y-68549442D01*
X96335500Y-64763824D01*
X106504538Y-64763824D01*
X106523121Y-64905939D01*
X106525962Y-64912395D01*
X106525962Y-64912396D01*
X106558671Y-64986731D01*
X106580845Y-65037126D01*
X106673068Y-65146838D01*
X106678939Y-65150746D01*
X106678940Y-65150747D01*
X106691235Y-65158931D01*
X106792377Y-65226257D01*
X106799104Y-65228359D01*
X106799107Y-65228360D01*
X106922448Y-65266894D01*
X106922449Y-65266894D01*
X106929180Y-65268997D01*
X107000830Y-65270310D01*
X107065427Y-65271495D01*
X107065429Y-65271495D01*
X107072481Y-65271624D01*
X107079284Y-65269769D01*
X107079286Y-65269769D01*
X107126065Y-65257015D01*
X107210758Y-65233925D01*
X107332897Y-65158931D01*
X107360837Y-65128063D01*
X107413904Y-65097610D01*
X107434234Y-65095500D01*
X115454960Y-65095500D01*
X115513151Y-65114407D01*
X115530742Y-65130797D01*
X115598528Y-65211438D01*
X115598531Y-65211441D01*
X115603068Y-65216838D01*
X115608939Y-65220746D01*
X115608940Y-65220747D01*
X115641581Y-65242474D01*
X115722377Y-65296257D01*
X115729104Y-65298359D01*
X115729107Y-65298360D01*
X115852448Y-65336894D01*
X115852449Y-65336894D01*
X115859180Y-65338997D01*
X115930831Y-65340311D01*
X115995427Y-65341495D01*
X115995429Y-65341495D01*
X116002481Y-65341624D01*
X116009284Y-65339769D01*
X116009286Y-65339769D01*
X116056065Y-65327015D01*
X116140758Y-65303925D01*
X116262897Y-65228931D01*
X116351724Y-65130797D01*
X116354346Y-65127900D01*
X116354346Y-65127899D01*
X116359078Y-65122672D01*
X116421570Y-64993689D01*
X116437511Y-64898942D01*
X116444715Y-64856120D01*
X116444715Y-64856117D01*
X116445349Y-64852350D01*
X116445500Y-64840000D01*
X116425182Y-64698123D01*
X116387763Y-64615823D01*
X116368780Y-64574073D01*
X116368780Y-64574072D01*
X116365860Y-64567651D01*
X116272303Y-64459074D01*
X116152033Y-64381118D01*
X116145275Y-64379097D01*
X116145273Y-64379096D01*
X116021479Y-64342074D01*
X116014718Y-64340052D01*
X115928694Y-64339527D01*
X115878448Y-64339220D01*
X115871396Y-64339177D01*
X115864620Y-64341114D01*
X115864617Y-64341114D01*
X115740369Y-64376624D01*
X115740367Y-64376625D01*
X115733589Y-64378562D01*
X115727624Y-64382326D01*
X115727621Y-64382327D01*
X115653288Y-64429227D01*
X115600461Y-64444500D01*
X107435439Y-64444500D01*
X107377248Y-64425593D01*
X107360446Y-64410129D01*
X107342303Y-64389074D01*
X107222033Y-64311118D01*
X107215275Y-64309097D01*
X107215273Y-64309096D01*
X107091479Y-64272074D01*
X107084718Y-64270052D01*
X106998694Y-64269527D01*
X106948448Y-64269220D01*
X106941396Y-64269177D01*
X106934620Y-64271114D01*
X106934617Y-64271114D01*
X106810369Y-64306624D01*
X106810367Y-64306625D01*
X106803589Y-64308562D01*
X106797625Y-64312325D01*
X106696188Y-64376327D01*
X106682375Y-64385042D01*
X106587499Y-64492469D01*
X106526588Y-64622206D01*
X106504538Y-64763824D01*
X96335500Y-64763824D01*
X96335500Y-64524206D01*
X96354407Y-64466015D01*
X96361103Y-64457769D01*
X96424346Y-64387900D01*
X96424346Y-64387899D01*
X96429078Y-64382672D01*
X96491570Y-64253689D01*
X96494557Y-64235939D01*
X96514715Y-64116120D01*
X96514715Y-64116117D01*
X96515349Y-64112350D01*
X96515500Y-64100000D01*
X96495182Y-63958123D01*
X96482195Y-63929558D01*
X96438780Y-63834073D01*
X96438780Y-63834072D01*
X96435860Y-63827651D01*
X96342303Y-63719074D01*
X96222033Y-63641118D01*
X96215275Y-63639097D01*
X96215273Y-63639096D01*
X96091479Y-63602074D01*
X96084718Y-63600052D01*
X95998694Y-63599527D01*
X95948448Y-63599220D01*
X95941396Y-63599177D01*
X95934620Y-63601114D01*
X95934617Y-63601114D01*
X95810369Y-63636624D01*
X95810367Y-63636625D01*
X95803589Y-63638562D01*
X95797625Y-63642325D01*
X95735115Y-63681766D01*
X95682375Y-63715042D01*
X95587499Y-63822469D01*
X95526588Y-63952206D01*
X95504538Y-64093824D01*
X90832355Y-64093824D01*
X90872897Y-64068931D01*
X90969078Y-63962672D01*
X91031570Y-63833689D01*
X91034557Y-63815939D01*
X91054715Y-63696120D01*
X91054715Y-63696117D01*
X91055349Y-63692350D01*
X91055500Y-63680000D01*
X91035182Y-63538123D01*
X91014721Y-63493120D01*
X90978780Y-63414073D01*
X90978780Y-63414072D01*
X90975860Y-63407651D01*
X90899501Y-63319033D01*
X90875840Y-63262608D01*
X90875500Y-63254409D01*
X90875500Y-63215835D01*
X90894407Y-63157644D01*
X90904496Y-63145831D01*
X90985831Y-63064496D01*
X91040348Y-63036719D01*
X91055835Y-63035500D01*
X95983802Y-63035500D01*
X96041993Y-63054407D01*
X96059585Y-63070798D01*
X96068529Y-63081439D01*
X96068532Y-63081441D01*
X96073068Y-63086838D01*
X96078939Y-63090746D01*
X96078940Y-63090747D01*
X96091235Y-63098931D01*
X96192377Y-63166257D01*
X96199104Y-63168359D01*
X96199107Y-63168360D01*
X96322448Y-63206894D01*
X96322449Y-63206894D01*
X96329180Y-63208997D01*
X96400830Y-63210310D01*
X96465427Y-63211495D01*
X96465429Y-63211495D01*
X96472481Y-63211624D01*
X96479284Y-63209769D01*
X96479286Y-63209769D01*
X96526065Y-63197015D01*
X96610758Y-63173925D01*
X96732897Y-63098931D01*
X96777499Y-63049656D01*
X96824346Y-62997900D01*
X96824346Y-62997899D01*
X96829078Y-62992672D01*
X96891570Y-62863689D01*
X96895795Y-62838580D01*
X96896491Y-62834442D01*
X110060971Y-62834442D01*
X110098427Y-63066985D01*
X110174528Y-63289893D01*
X110287099Y-63496792D01*
X110345912Y-63571397D01*
X110389343Y-63626488D01*
X110432920Y-63681766D01*
X110607824Y-63839526D01*
X110806807Y-63965562D01*
X110915494Y-64010915D01*
X111020313Y-64054655D01*
X111020318Y-64054657D01*
X111024182Y-64056269D01*
X111028270Y-64057209D01*
X111249647Y-64108114D01*
X111249651Y-64108115D01*
X111253732Y-64109053D01*
X111257910Y-64109290D01*
X111257915Y-64109291D01*
X111484712Y-64122170D01*
X111484717Y-64122170D01*
X111488893Y-64122407D01*
X111722943Y-64095947D01*
X111726966Y-64094782D01*
X111726971Y-64094781D01*
X111865536Y-64054655D01*
X111949189Y-64030431D01*
X112161161Y-63927731D01*
X112352799Y-63790785D01*
X112475657Y-63666850D01*
X112515668Y-63626488D01*
X112515668Y-63626487D01*
X112518623Y-63623507D01*
X112653892Y-63430682D01*
X112656286Y-63425629D01*
X112752940Y-63221617D01*
X112752942Y-63221613D01*
X112754738Y-63217821D01*
X112818277Y-62991013D01*
X112837899Y-62802742D01*
X112842452Y-62759054D01*
X112842452Y-62759053D01*
X112842693Y-62756741D01*
X112842950Y-62730000D01*
X112842328Y-62722661D01*
X113289238Y-62722661D01*
X113289893Y-62728594D01*
X113289893Y-62728598D01*
X113293256Y-62759054D01*
X113307716Y-62890028D01*
X113309768Y-62895635D01*
X113355214Y-63019822D01*
X113365583Y-63048157D01*
X113459498Y-63187917D01*
X113463910Y-63191932D01*
X113463913Y-63191935D01*
X113576811Y-63294664D01*
X113584040Y-63301242D01*
X113589289Y-63304092D01*
X113619898Y-63320711D01*
X113732018Y-63381587D01*
X113737787Y-63383101D01*
X113737791Y-63383102D01*
X113889112Y-63422800D01*
X113894891Y-63424316D01*
X113900860Y-63424410D01*
X113900862Y-63424410D01*
X113961871Y-63425368D01*
X114063254Y-63426961D01*
X114142326Y-63408851D01*
X114221569Y-63390702D01*
X114221571Y-63390701D01*
X114227388Y-63389369D01*
X114242861Y-63381587D01*
X114372491Y-63316390D01*
X114372493Y-63316389D01*
X114377817Y-63313711D01*
X114382353Y-63309837D01*
X114501319Y-63208231D01*
X114501320Y-63208230D01*
X114505857Y-63204355D01*
X114587493Y-63090747D01*
X114600632Y-63072462D01*
X114600633Y-63072460D01*
X114604116Y-63067613D01*
X114609603Y-63053965D01*
X114664697Y-62916913D01*
X114664697Y-62916911D01*
X114666921Y-62911380D01*
X114668495Y-62900325D01*
X114677871Y-62834442D01*
X115140971Y-62834442D01*
X115178427Y-63066985D01*
X115254528Y-63289893D01*
X115367099Y-63496792D01*
X115425912Y-63571397D01*
X115469343Y-63626488D01*
X115512920Y-63681766D01*
X115687824Y-63839526D01*
X115886807Y-63965562D01*
X115995494Y-64010915D01*
X116100313Y-64054655D01*
X116100318Y-64054657D01*
X116104182Y-64056269D01*
X116108270Y-64057209D01*
X116329647Y-64108114D01*
X116329651Y-64108115D01*
X116333732Y-64109053D01*
X116337910Y-64109290D01*
X116337915Y-64109291D01*
X116564712Y-64122170D01*
X116564717Y-64122170D01*
X116568893Y-64122407D01*
X116802943Y-64095947D01*
X116806966Y-64094782D01*
X116806971Y-64094781D01*
X116945536Y-64054655D01*
X117029189Y-64030431D01*
X117241161Y-63927731D01*
X117432799Y-63790785D01*
X117555657Y-63666850D01*
X117595668Y-63626488D01*
X117595668Y-63626487D01*
X117598623Y-63623507D01*
X117733892Y-63430682D01*
X117736286Y-63425629D01*
X117832940Y-63221617D01*
X117832942Y-63221613D01*
X117834738Y-63217821D01*
X117898277Y-62991013D01*
X117917899Y-62802742D01*
X117922452Y-62759054D01*
X117922452Y-62759053D01*
X117922693Y-62756741D01*
X117922950Y-62730000D01*
X117922328Y-62722661D01*
X117903390Y-62499474D01*
X117903390Y-62499473D01*
X117903036Y-62495303D01*
X117901984Y-62491249D01*
X117844915Y-62271372D01*
X117844914Y-62271369D01*
X117843862Y-62267316D01*
X117835655Y-62249096D01*
X117794847Y-62158507D01*
X117747121Y-62052559D01*
X117615579Y-61857172D01*
X117452997Y-61686742D01*
X117352639Y-61612074D01*
X117267389Y-61548646D01*
X117267386Y-61548644D01*
X117264023Y-61546142D01*
X117142763Y-61484490D01*
X117057794Y-61441289D01*
X117057790Y-61441287D01*
X117054062Y-61439392D01*
X116829116Y-61369544D01*
X116797991Y-61365419D01*
X116599769Y-61339146D01*
X116599765Y-61339146D01*
X116595617Y-61338596D01*
X116591432Y-61338753D01*
X116591429Y-61338753D01*
X116499819Y-61342193D01*
X116360242Y-61347433D01*
X116129721Y-61395801D01*
X115910645Y-61482318D01*
X115907069Y-61484488D01*
X115907065Y-61484490D01*
X115873370Y-61504937D01*
X115709279Y-61604510D01*
X115531379Y-61758884D01*
X115528720Y-61762127D01*
X115528718Y-61762129D01*
X115447929Y-61860658D01*
X115382033Y-61941024D01*
X115265511Y-62145724D01*
X115185145Y-62367130D01*
X115143232Y-62598912D01*
X115143135Y-62608997D01*
X115141091Y-62821993D01*
X115140971Y-62834442D01*
X114677871Y-62834442D01*
X114690190Y-62747882D01*
X114690190Y-62747878D01*
X114690646Y-62744676D01*
X114690800Y-62730000D01*
X114676475Y-62611624D01*
X114671288Y-62568758D01*
X114671287Y-62568755D01*
X114670571Y-62562836D01*
X114645052Y-62495303D01*
X114613161Y-62410905D01*
X114613160Y-62410903D01*
X114611051Y-62405322D01*
X114597996Y-62386327D01*
X114519058Y-62271470D01*
X114519055Y-62271467D01*
X114515678Y-62266553D01*
X114451329Y-62209220D01*
X114394410Y-62158507D01*
X114394408Y-62158506D01*
X114389956Y-62154539D01*
X114380755Y-62149667D01*
X114336282Y-62126120D01*
X114241144Y-62075747D01*
X114148830Y-62052559D01*
X114083624Y-62036180D01*
X114083621Y-62036180D01*
X114077834Y-62034726D01*
X113992833Y-62034281D01*
X113915418Y-62033875D01*
X113915416Y-62033875D01*
X113909452Y-62033844D01*
X113745721Y-62073153D01*
X113686297Y-62103824D01*
X113601398Y-62147643D01*
X113601396Y-62147645D01*
X113596092Y-62150382D01*
X113527740Y-62210009D01*
X113486553Y-62245939D01*
X113469204Y-62261073D01*
X113465773Y-62265955D01*
X113465772Y-62265956D01*
X113383513Y-62382999D01*
X113372383Y-62398836D01*
X113365911Y-62415435D01*
X113336353Y-62491249D01*
X113311217Y-62555718D01*
X113289238Y-62722661D01*
X112842328Y-62722661D01*
X112823390Y-62499474D01*
X112823390Y-62499473D01*
X112823036Y-62495303D01*
X112821984Y-62491249D01*
X112764915Y-62271372D01*
X112764914Y-62271369D01*
X112763862Y-62267316D01*
X112755655Y-62249096D01*
X112714847Y-62158507D01*
X112667121Y-62052559D01*
X112535579Y-61857172D01*
X112372997Y-61686742D01*
X112272639Y-61612074D01*
X112187389Y-61548646D01*
X112187386Y-61548644D01*
X112184023Y-61546142D01*
X112062763Y-61484490D01*
X111977794Y-61441289D01*
X111977790Y-61441287D01*
X111974062Y-61439392D01*
X111749116Y-61369544D01*
X111717991Y-61365419D01*
X111519769Y-61339146D01*
X111519765Y-61339146D01*
X111515617Y-61338596D01*
X111511432Y-61338753D01*
X111511429Y-61338753D01*
X111419819Y-61342193D01*
X111280242Y-61347433D01*
X111049721Y-61395801D01*
X110830645Y-61482318D01*
X110827069Y-61484488D01*
X110827065Y-61484490D01*
X110793370Y-61504937D01*
X110629279Y-61604510D01*
X110451379Y-61758884D01*
X110448720Y-61762127D01*
X110448718Y-61762129D01*
X110367929Y-61860658D01*
X110302033Y-61941024D01*
X110185511Y-62145724D01*
X110105145Y-62367130D01*
X110063232Y-62598912D01*
X110063135Y-62608997D01*
X110061091Y-62821993D01*
X110060971Y-62834442D01*
X96896491Y-62834442D01*
X96914715Y-62726120D01*
X96914715Y-62726117D01*
X96915349Y-62722350D01*
X96915500Y-62710000D01*
X96895182Y-62568123D01*
X96887014Y-62550157D01*
X96838780Y-62444073D01*
X96838780Y-62444072D01*
X96835860Y-62437651D01*
X96742303Y-62329074D01*
X96622033Y-62251118D01*
X96615275Y-62249097D01*
X96615273Y-62249096D01*
X96491479Y-62212074D01*
X96484718Y-62210052D01*
X96398694Y-62209527D01*
X96348448Y-62209220D01*
X96341396Y-62209177D01*
X96334620Y-62211114D01*
X96334617Y-62211114D01*
X96210369Y-62246624D01*
X96210367Y-62246625D01*
X96203589Y-62248562D01*
X96082375Y-62325042D01*
X96077708Y-62330326D01*
X96077706Y-62330328D01*
X96059420Y-62351034D01*
X96006729Y-62382134D01*
X95985216Y-62384500D01*
X90898284Y-62384500D01*
X90889656Y-62384123D01*
X90888525Y-62384024D01*
X90851194Y-62380758D01*
X90813658Y-62390816D01*
X90805233Y-62392683D01*
X90791800Y-62395052D01*
X90775490Y-62397928D01*
X90775489Y-62397928D01*
X90766962Y-62399432D01*
X90759463Y-62403761D01*
X90753994Y-62405752D01*
X90748694Y-62408224D01*
X90740325Y-62410466D01*
X90733230Y-62415434D01*
X90733228Y-62415435D01*
X90708497Y-62432752D01*
X90701215Y-62437391D01*
X90667559Y-62456822D01*
X90646904Y-62481438D01*
X90642742Y-62486398D01*
X90636907Y-62492766D01*
X90332766Y-62796907D01*
X90326399Y-62802741D01*
X90296822Y-62827559D01*
X90277397Y-62861204D01*
X90272758Y-62868486D01*
X90257675Y-62890028D01*
X90250465Y-62900325D01*
X90248223Y-62908694D01*
X90245757Y-62913983D01*
X90243763Y-62919461D01*
X90239432Y-62926962D01*
X90237928Y-62935490D01*
X90237928Y-62935491D01*
X90232685Y-62965226D01*
X90230816Y-62973658D01*
X90220758Y-63011195D01*
X90222991Y-63036719D01*
X90224123Y-63049656D01*
X90224500Y-63058285D01*
X90224500Y-63255177D01*
X90205593Y-63313368D01*
X90199704Y-63320711D01*
X90145941Y-63381587D01*
X90127499Y-63402469D01*
X90066588Y-63532206D01*
X90044538Y-63673824D01*
X85825000Y-63673824D01*
X85825000Y-60753081D01*
X85824931Y-60752776D01*
X85824887Y-60751987D01*
X85824897Y-60740732D01*
X85824896Y-60740729D01*
X85824906Y-60729583D01*
X85819679Y-60718697D01*
X85812406Y-60697869D01*
X85812201Y-60696970D01*
X85812201Y-60696969D01*
X85809721Y-60686100D01*
X85802369Y-60676874D01*
X85790544Y-60658024D01*
X85790260Y-60657433D01*
X85785435Y-60647384D01*
X85776731Y-60640423D01*
X85776729Y-60640421D01*
X85776009Y-60639846D01*
X85760420Y-60624231D01*
X85752895Y-60614788D01*
X85742855Y-60609945D01*
X85742852Y-60609943D01*
X85742262Y-60609659D01*
X85723443Y-60597809D01*
X85714222Y-60590435D01*
X85703356Y-60587936D01*
X85703353Y-60587935D01*
X85702457Y-60587729D01*
X85681641Y-60580419D01*
X85680808Y-60580017D01*
X85680805Y-60580016D01*
X85670766Y-60575174D01*
X85648369Y-60575155D01*
X85647575Y-60575109D01*
X85647101Y-60575000D01*
X84874000Y-60575000D01*
X84815809Y-60556093D01*
X84779845Y-60506593D01*
X84775000Y-60476000D01*
X84775000Y-60473748D01*
X96204500Y-60473748D01*
X96204500Y-61158258D01*
X96219636Y-61258935D01*
X96222839Y-61265606D01*
X96222840Y-61265608D01*
X96272486Y-61368994D01*
X96278265Y-61381029D01*
X96370202Y-61480486D01*
X96420300Y-61509585D01*
X96480917Y-61544795D01*
X96480920Y-61544796D01*
X96487319Y-61548513D01*
X96524624Y-61557160D01*
X96598246Y-61574225D01*
X96598249Y-61574225D01*
X96603748Y-61575500D01*
X97188258Y-61575500D01*
X97224697Y-61570022D01*
X97281614Y-61561465D01*
X97281616Y-61561464D01*
X97288935Y-61560364D01*
X97295606Y-61557161D01*
X97295608Y-61557160D01*
X97404361Y-61504937D01*
X97411029Y-61501735D01*
X97510486Y-61409798D01*
X97529995Y-61376211D01*
X97575570Y-61335390D01*
X97636437Y-61329153D01*
X97685605Y-61355932D01*
X98366498Y-62036825D01*
X98394275Y-62091342D01*
X98394977Y-62101007D01*
X98394538Y-62103824D01*
X98395453Y-62110822D01*
X98401170Y-62154539D01*
X98413121Y-62245939D01*
X98415962Y-62252395D01*
X98415962Y-62252396D01*
X98466447Y-62367130D01*
X98470845Y-62377126D01*
X98475382Y-62382523D01*
X98475383Y-62382525D01*
X98517604Y-62432752D01*
X98563068Y-62486838D01*
X98568939Y-62490746D01*
X98568940Y-62490747D01*
X98586781Y-62502623D01*
X98682377Y-62566257D01*
X98689104Y-62568359D01*
X98689107Y-62568360D01*
X98812448Y-62606894D01*
X98812449Y-62606894D01*
X98819180Y-62608997D01*
X98890831Y-62610311D01*
X98955427Y-62611495D01*
X98955429Y-62611495D01*
X98962481Y-62611624D01*
X98969284Y-62609769D01*
X98969286Y-62609769D01*
X99024252Y-62594783D01*
X99100758Y-62573925D01*
X99222897Y-62498931D01*
X99228477Y-62492766D01*
X99314346Y-62397900D01*
X99314346Y-62397899D01*
X99319078Y-62392672D01*
X99381570Y-62263689D01*
X99383040Y-62254956D01*
X99404715Y-62126120D01*
X99404715Y-62126117D01*
X99405349Y-62122350D01*
X99405500Y-62110000D01*
X99385182Y-61968123D01*
X99325860Y-61837651D01*
X99232303Y-61729074D01*
X99112033Y-61651118D01*
X99105275Y-61649097D01*
X99105273Y-61649096D01*
X98981479Y-61612074D01*
X98974718Y-61610052D01*
X98937508Y-61609825D01*
X98900331Y-61609598D01*
X98842257Y-61590336D01*
X98830931Y-61580604D01*
X97858093Y-60607766D01*
X97852258Y-60601398D01*
X97840675Y-60587594D01*
X97827441Y-60571822D01*
X97793795Y-60552396D01*
X97786514Y-60547758D01*
X97761772Y-60530434D01*
X97761771Y-60530433D01*
X97754675Y-60525465D01*
X97746306Y-60523223D01*
X97741017Y-60520757D01*
X97735539Y-60518763D01*
X97728038Y-60514432D01*
X97719510Y-60512928D01*
X97719509Y-60512928D01*
X97689774Y-60507685D01*
X97681341Y-60505815D01*
X97667156Y-60502014D01*
X97615842Y-60468690D01*
X97594880Y-60421105D01*
X97591465Y-60398386D01*
X97591464Y-60398384D01*
X97590364Y-60391065D01*
X97577624Y-60364533D01*
X97534937Y-60275639D01*
X97531735Y-60268971D01*
X97521669Y-60258081D01*
X97496051Y-60202517D01*
X97507987Y-60142507D01*
X97510549Y-60138706D01*
X97574330Y-60028899D01*
X97579720Y-60015283D01*
X97603725Y-59911720D01*
X97605000Y-59900571D01*
X97605000Y-59770680D01*
X97600878Y-59757995D01*
X97596757Y-59755000D01*
X96220680Y-59755000D01*
X96207995Y-59759122D01*
X96205000Y-59763243D01*
X96205000Y-59884558D01*
X96205550Y-59891914D01*
X96219014Y-59981471D01*
X96223317Y-59995459D01*
X96275474Y-60104076D01*
X96283701Y-60116182D01*
X96288301Y-60121158D01*
X96313918Y-60176723D01*
X96301982Y-60236733D01*
X96299859Y-60239883D01*
X96299514Y-60240202D01*
X96298704Y-60241597D01*
X96298701Y-60241601D01*
X96235205Y-60350917D01*
X96235204Y-60350920D01*
X96231487Y-60357319D01*
X96204500Y-60473748D01*
X84775000Y-60473748D01*
X84775000Y-59209429D01*
X96205000Y-59209429D01*
X96205000Y-59339320D01*
X96209122Y-59352005D01*
X96213243Y-59355000D01*
X96689320Y-59355000D01*
X96702005Y-59350878D01*
X96705000Y-59346757D01*
X96705000Y-58820680D01*
X96702583Y-58813243D01*
X97105000Y-58813243D01*
X97105000Y-59339320D01*
X97109122Y-59352005D01*
X97113243Y-59355000D01*
X97589320Y-59355000D01*
X97602005Y-59350878D01*
X97605000Y-59346757D01*
X97605000Y-59225443D01*
X97604450Y-59218086D01*
X97590986Y-59128529D01*
X97586683Y-59114541D01*
X97534524Y-59005921D01*
X97526302Y-58993821D01*
X97444508Y-58905338D01*
X97433085Y-58896186D01*
X97328899Y-58835670D01*
X97315283Y-58830280D01*
X97211720Y-58806275D01*
X97200571Y-58805000D01*
X97120680Y-58805000D01*
X97107995Y-58809122D01*
X97105000Y-58813243D01*
X96702583Y-58813243D01*
X96700878Y-58807995D01*
X96696757Y-58805000D01*
X96625443Y-58805000D01*
X96618086Y-58805550D01*
X96528529Y-58819014D01*
X96514541Y-58823317D01*
X96405921Y-58875476D01*
X96393821Y-58883698D01*
X96305338Y-58965492D01*
X96296186Y-58976915D01*
X96235670Y-59081101D01*
X96230280Y-59094717D01*
X96206275Y-59198280D01*
X96205000Y-59209429D01*
X84775000Y-59209429D01*
X84775000Y-56074000D01*
X84793907Y-56015809D01*
X84843407Y-55979845D01*
X84874000Y-55975000D01*
X87146919Y-55975000D01*
X87147224Y-55974931D01*
X87148013Y-55974887D01*
X87159268Y-55974897D01*
X87159271Y-55974896D01*
X87170417Y-55974906D01*
X87181303Y-55969679D01*
X87202131Y-55962406D01*
X87203030Y-55962201D01*
X87203031Y-55962201D01*
X87213900Y-55959721D01*
X87223126Y-55952369D01*
X87241976Y-55940544D01*
X87252616Y-55935435D01*
X87259577Y-55926731D01*
X87259579Y-55926729D01*
X87260154Y-55926009D01*
X87275769Y-55910420D01*
X87285212Y-55902895D01*
X87290055Y-55892855D01*
X87290057Y-55892852D01*
X87290341Y-55892262D01*
X87302191Y-55873443D01*
X87309565Y-55864222D01*
X87312064Y-55853356D01*
X87312065Y-55853353D01*
X87312271Y-55852457D01*
X87319581Y-55831641D01*
X87319983Y-55830808D01*
X87319984Y-55830805D01*
X87324826Y-55820766D01*
X87324845Y-55798369D01*
X87324891Y-55797575D01*
X87325000Y-55797101D01*
X87325000Y-54094248D01*
X87343907Y-54036057D01*
X87393407Y-54000093D01*
X87423145Y-53995252D01*
X109130747Y-53808190D01*
X123825148Y-53681562D01*
X123883498Y-53699967D01*
G37*
%TD.AperFunction*%
%TD*%
M02*
