%TF.GenerationSoftware,KiCad,Pcbnew,(5.99.0-10483-ga6ad7a4a70)*%
%TF.CreationDate,2021-05-17T14:47:55+02:00*%
%TF.ProjectId,quadkey,71756164-6b65-4792-9e6b-696361645f70,rev?*%
%TF.SameCoordinates,Original*%
%TF.FileFunction,Legend,Bot*%
%TF.FilePolarity,Positive*%
%FSLAX46Y46*%
G04 Gerber Fmt 4.6, Leading zero omitted, Abs format (unit mm)*
G04 Created by KiCad (PCBNEW (5.99.0-10483-ga6ad7a4a70)) date 2021-05-17 14:47:55*
%MOMM*%
%LPD*%
G01*
G04 APERTURE LIST*
%ADD10C,0.150000*%
%ADD11C,0.015000*%
%ADD12C,0.120000*%
G04 APERTURE END LIST*
D10*
%TO.C,C9*%
X95992142Y-60658333D02*
X96039761Y-60610714D01*
X96087380Y-60467857D01*
X96087380Y-60372619D01*
X96039761Y-60229761D01*
X95944523Y-60134523D01*
X95849285Y-60086904D01*
X95658809Y-60039285D01*
X95515952Y-60039285D01*
X95325476Y-60086904D01*
X95230238Y-60134523D01*
X95135000Y-60229761D01*
X95087380Y-60372619D01*
X95087380Y-60467857D01*
X95135000Y-60610714D01*
X95182619Y-60658333D01*
X96087380Y-61134523D02*
X96087380Y-61325000D01*
X96039761Y-61420238D01*
X95992142Y-61467857D01*
X95849285Y-61563095D01*
X95658809Y-61610714D01*
X95277857Y-61610714D01*
X95182619Y-61563095D01*
X95135000Y-61515476D01*
X95087380Y-61420238D01*
X95087380Y-61229761D01*
X95135000Y-61134523D01*
X95182619Y-61086904D01*
X95277857Y-61039285D01*
X95515952Y-61039285D01*
X95611190Y-61086904D01*
X95658809Y-61134523D01*
X95706428Y-61229761D01*
X95706428Y-61420238D01*
X95658809Y-61515476D01*
X95611190Y-61563095D01*
X95515952Y-61610714D01*
D11*
%TO.C,BT1*%
X113332407Y-113192508D02*
X113197424Y-113237502D01*
X113152429Y-113282497D01*
X113107435Y-113372485D01*
X113107435Y-113507469D01*
X113152429Y-113597457D01*
X113197424Y-113642452D01*
X113287412Y-113687446D01*
X113647367Y-113687446D01*
X113647367Y-112742564D01*
X113332407Y-112742564D01*
X113242418Y-112787559D01*
X113197424Y-112832553D01*
X113152429Y-112922542D01*
X113152429Y-113012530D01*
X113197424Y-113102519D01*
X113242418Y-113147514D01*
X113332407Y-113192508D01*
X113647367Y-113192508D01*
X112837469Y-112742564D02*
X112297536Y-112742564D01*
X112567502Y-113687446D02*
X112567502Y-112742564D01*
X111487637Y-113687446D02*
X112027570Y-113687446D01*
X111757603Y-113687446D02*
X111757603Y-112742564D01*
X111847592Y-112877547D01*
X111937581Y-112967536D01*
X112027570Y-113012530D01*
D12*
%TO.C,C9*%
X96270000Y-61460000D02*
X97540000Y-61460000D01*
X97540000Y-58920000D02*
X96905000Y-58920000D01*
X97540000Y-61460000D02*
X97540000Y-58920000D01*
X96905000Y-58920000D02*
X96270000Y-58920000D01*
X96270000Y-58920000D02*
X96270000Y-61460000D01*
%TO.C,BT1*%
X111090000Y-119760000D02*
X111090000Y-120760000D01*
X107590000Y-108760000D02*
X107590000Y-118260000D01*
X107590000Y-118260000D02*
X110590000Y-118260000D01*
X112090000Y-119760000D02*
X110090000Y-119760000D01*
X110590000Y-118260000D02*
X114090000Y-118260000D01*
X116590000Y-118260000D02*
X116590000Y-117760000D01*
X116590000Y-108760000D02*
X107590000Y-108760000D01*
X111090000Y-120760000D02*
X111090000Y-118760000D01*
X116590000Y-117760000D02*
X116590000Y-108760000D01*
X114090000Y-118260000D02*
X116590000Y-118260000D01*
%TD*%
M02*
