%TF.GenerationSoftware,KiCad,Pcbnew,(5.99.0-10483-ga6ad7a4a70)*%
%TF.CreationDate,2021-05-17T14:47:55+02:00*%
%TF.ProjectId,quadkey,71756164-6b65-4792-9e6b-696361645f70,rev?*%
%TF.SameCoordinates,Original*%
%TF.FileFunction,Copper,L1,Top*%
%TF.FilePolarity,Positive*%
%FSLAX46Y46*%
G04 Gerber Fmt 4.6, Leading zero omitted, Abs format (unit mm)*
G04 Created by KiCad (PCBNEW (5.99.0-10483-ga6ad7a4a70)) date 2021-05-17 14:47:55*
%MOMM*%
%LPD*%
G01*
G04 APERTURE LIST*
G04 Aperture macros list*
%AMRoundRect*
0 Rectangle with rounded corners*
0 $1 Rounding radius*
0 $2 $3 $4 $5 $6 $7 $8 $9 X,Y pos of 4 corners*
0 Add a 4 corners polygon primitive as box body*
4,1,4,$2,$3,$4,$5,$6,$7,$8,$9,$2,$3,0*
0 Add four circle primitives for the rounded corners*
1,1,$1+$1,$2,$3*
1,1,$1+$1,$4,$5*
1,1,$1+$1,$6,$7*
1,1,$1+$1,$8,$9*
0 Add four rect primitives between the rounded corners*
20,1,$1+$1,$2,$3,$4,$5,0*
20,1,$1+$1,$4,$5,$6,$7,0*
20,1,$1+$1,$6,$7,$8,$9,0*
20,1,$1+$1,$8,$9,$2,$3,0*%
G04 Aperture macros list end*
%TA.AperFunction,SMDPad,CuDef*%
%ADD10RoundRect,0.250000X0.250000X0.300000X-0.250000X0.300000X-0.250000X-0.300000X0.250000X-0.300000X0*%
%TD*%
%TA.AperFunction,SMDPad,CuDef*%
%ADD11R,0.500000X2.500000*%
%TD*%
%TA.AperFunction,SMDPad,CuDef*%
%ADD12R,2.000000X2.500000*%
%TD*%
%TA.AperFunction,SMDPad,CuDef*%
%ADD13RoundRect,0.137500X-0.137500X-0.262500X0.137500X-0.262500X0.137500X0.262500X-0.137500X0.262500X0*%
%TD*%
%TA.AperFunction,SMDPad,CuDef*%
%ADD14R,0.550000X0.800000*%
%TD*%
%TA.AperFunction,SMDPad,CuDef*%
%ADD15R,1.200000X1.500000*%
%TD*%
%TA.AperFunction,SMDPad,CuDef*%
%ADD16RoundRect,0.250000X-0.300000X0.250000X-0.300000X-0.250000X0.300000X-0.250000X0.300000X0.250000X0*%
%TD*%
%TA.AperFunction,SMDPad,CuDef*%
%ADD17RoundRect,0.250000X0.300000X-0.250000X0.300000X0.250000X-0.300000X0.250000X-0.300000X-0.250000X0*%
%TD*%
%TA.AperFunction,SMDPad,CuDef*%
%ADD18RoundRect,0.250000X-0.250000X-0.300000X0.250000X-0.300000X0.250000X0.300000X-0.250000X0.300000X0*%
%TD*%
%TA.AperFunction,ConnectorPad*%
%ADD19R,0.500000X0.500000*%
%TD*%
%TA.AperFunction,ComponentPad*%
%ADD20R,0.900000X0.500000*%
%TD*%
%TA.AperFunction,SMDPad,CuDef*%
%ADD21R,0.220000X0.810000*%
%TD*%
%TA.AperFunction,SMDPad,CuDef*%
%ADD22R,0.810000X0.220000*%
%TD*%
%TA.AperFunction,SMDPad,CuDef*%
%ADD23R,4.600000X4.600000*%
%TD*%
%TA.AperFunction,SMDPad,CuDef*%
%ADD24R,0.812800X0.304800*%
%TD*%
%TA.AperFunction,SMDPad,CuDef*%
%ADD25R,1.651000X2.387600*%
%TD*%
%TA.AperFunction,SMDPad,CuDef*%
%ADD26R,0.850000X0.750000*%
%TD*%
%TA.AperFunction,SMDPad,CuDef*%
%ADD27RoundRect,0.212500X0.400000X0.212500X-0.400000X0.212500X-0.400000X-0.212500X0.400000X-0.212500X0*%
%TD*%
%TA.AperFunction,ComponentPad*%
%ADD28R,1.060000X1.060000*%
%TD*%
%TA.AperFunction,ComponentPad*%
%ADD29C,1.060000*%
%TD*%
%TA.AperFunction,ViaPad*%
%ADD30C,0.600000*%
%TD*%
%TA.AperFunction,Conductor*%
%ADD31C,0.250000*%
%TD*%
%TA.AperFunction,Conductor*%
%ADD32C,0.500000*%
%TD*%
G04 APERTURE END LIST*
%TO.C,AE1*%
G36*
X102760000Y-48035000D02*
G01*
X102760000Y-50675000D01*
X104760000Y-50675000D01*
X104760000Y-48035000D01*
X107460000Y-48035000D01*
X107460000Y-50675000D01*
X109460000Y-50675000D01*
X109460000Y-48035000D01*
X112160000Y-48035000D01*
X112160000Y-52475000D01*
X111660000Y-52475000D01*
X111660000Y-48535000D01*
X109960000Y-48535000D01*
X109960000Y-51175000D01*
X106960000Y-51175000D01*
X106960000Y-48535000D01*
X105260000Y-48535000D01*
X105260000Y-51175000D01*
X102260000Y-51175000D01*
X102260000Y-48535000D01*
X100560000Y-48535000D01*
X100560000Y-53435000D01*
X100060000Y-53435000D01*
X100060000Y-48535000D01*
X98660000Y-48535000D01*
X98660000Y-53435000D01*
X97760000Y-53435000D01*
X97760000Y-53191785D01*
X98062417Y-53191785D01*
X98072258Y-53239395D01*
X98096326Y-53281797D01*
X98134269Y-53314581D01*
X98142181Y-53318935D01*
X98184844Y-53331043D01*
X98233363Y-53330300D01*
X98278878Y-53317400D01*
X98297489Y-53306787D01*
X98331132Y-53271553D01*
X98351691Y-53226368D01*
X98358222Y-53176842D01*
X98349782Y-53128583D01*
X98332888Y-53096357D01*
X98297628Y-53063687D01*
X98252318Y-53043592D01*
X98202733Y-53037018D01*
X98154647Y-53044908D01*
X98121755Y-53061814D01*
X98086815Y-53098584D01*
X98067153Y-53143378D01*
X98062417Y-53191785D01*
X97760000Y-53191785D01*
X97760000Y-48035000D01*
X102760000Y-48035000D01*
G37*
%TD*%
D10*
%TO.P,C12,1*%
%TO.N,Net-(C12-Pad1)*%
X93855000Y-60365000D03*
%TO.P,C12,2*%
%TO.N,GND*%
X93855000Y-59095000D03*
%TD*%
%TO.P,C3,1*%
%TO.N,+3V3*%
X99255000Y-85895000D03*
%TO.P,C3,2*%
%TO.N,GND*%
X99255000Y-84625000D03*
%TD*%
D11*
%TO.P,con1,1,VBUS*%
%TO.N,Net-(L1-Pad1)*%
X96520000Y-110455000D03*
%TO.P,con1,2,D-*%
%TO.N,unconnected-(con1-Pad2)*%
X97320000Y-110455000D03*
%TO.P,con1,3,D+*%
%TO.N,unconnected-(con1-Pad3)*%
X98120000Y-110455000D03*
%TO.P,con1,4,ID*%
%TO.N,unconnected-(con1-Pad4)*%
X98920000Y-110455000D03*
%TO.P,con1,5,GND*%
%TO.N,GND*%
X99720000Y-110455000D03*
D12*
%TO.P,con1,6*%
%TO.N,unconnected-(con1-Pad6)*%
X93720000Y-110455000D03*
%TO.P,con1,7*%
%TO.N,unconnected-(con1-Pad7)*%
X102520000Y-110455000D03*
%TO.P,con1,8*%
%TO.N,unconnected-(con1-Pad8)*%
X102520000Y-115955000D03*
%TO.P,con1,9*%
%TO.N,unconnected-(con1-Pad9)*%
X93720000Y-115955000D03*
%TD*%
D13*
%TO.P,U1,1,STAT*%
%TO.N,Net-(R2-Pad1)*%
X100642500Y-98977500D03*
D14*
%TO.P,U1,2,VSS*%
%TO.N,GND*%
X99692500Y-98977500D03*
%TO.P,U1,3,VBAT*%
%TO.N,VBAT*%
X98742500Y-98977500D03*
%TO.P,U1,4,VDD*%
%TO.N,VBUS*%
X98742500Y-101577500D03*
%TO.P,U1,5,Prog*%
%TO.N,Net-(R3-Pad1)*%
X100642500Y-101577500D03*
%TD*%
D10*
%TO.P,C4,1*%
%TO.N,+3V3*%
X97345000Y-85895000D03*
%TO.P,C4,2*%
%TO.N,GND*%
X97345000Y-84625000D03*
%TD*%
D15*
%TO.P,L2,1,1*%
%TO.N,Net-(L2-Pad1)*%
X94710000Y-92470000D03*
%TO.P,L2,2,2*%
%TO.N,Net-(L2-Pad2)*%
X94710000Y-89770000D03*
%TD*%
D16*
%TO.P,R2,1*%
%TO.N,Net-(R2-Pad1)*%
X102850000Y-96600000D03*
%TO.P,R2,2*%
%TO.N,Net-(D1-Pad1)*%
X101580000Y-96600000D03*
%TD*%
%TO.P,C1,1*%
%TO.N,VBAT*%
X95745000Y-94445000D03*
%TO.P,C1,2*%
%TO.N,GND*%
X94475000Y-94445000D03*
%TD*%
D10*
%TO.P,C7,1*%
%TO.N,GND*%
X97360000Y-74910000D03*
%TO.P,C7,2*%
%TO.N,+3V3*%
X97360000Y-73640000D03*
%TD*%
%TO.P,C2,1*%
%TO.N,Net-(C2-Pad1)*%
X104405000Y-89915000D03*
%TO.P,C2,2*%
%TO.N,GND*%
X104405000Y-88645000D03*
%TD*%
D17*
%TO.P,C8,1*%
%TO.N,GND*%
X93055000Y-69025000D03*
%TO.P,C8,2*%
%TO.N,Net-(C8-Pad2)*%
X94325000Y-69025000D03*
%TD*%
D18*
%TO.P,R1,1*%
%TO.N,Net-(C2-Pad1)*%
X104400000Y-92430000D03*
%TO.P,R1,2*%
%TO.N,VBAT*%
X104400000Y-93700000D03*
%TD*%
D10*
%TO.P,R5,1*%
%TO.N,Net-(C11-Pad1)*%
X100300000Y-58580000D03*
%TO.P,R5,2*%
%TO.N,Net-(AE1-Pad1)*%
X100300000Y-57310000D03*
%TD*%
D19*
%TO.P,AE1,1,A*%
%TO.N,Net-(AE1-Pad1)*%
X100310000Y-53185000D03*
D20*
%TO.P,AE1,2*%
%TO.N,N/C*%
X98210000Y-53185000D03*
%TD*%
D10*
%TO.P,C6,1*%
%TO.N,GND*%
X93530000Y-74860000D03*
%TO.P,C6,2*%
%TO.N,+3V3*%
X93530000Y-73590000D03*
%TD*%
D21*
%TO.P,U3,1,DEC1*%
%TO.N,Net-(C10-Pad2)*%
X97850000Y-69820000D03*
%TO.P,U3,2,P0.00/XL1*%
%TO.N,unconnected-(U3-Pad2)*%
X98250000Y-69820000D03*
%TO.P,U3,3,P0.01/XL2*%
%TO.N,unconnected-(U3-Pad3)*%
X98650000Y-69820000D03*
%TO.P,U3,4,P0.02/AIN0*%
%TO.N,unconnected-(U3-Pad4)*%
X99050000Y-69820000D03*
%TO.P,U3,5,P0.03/AIN1*%
%TO.N,unconnected-(U3-Pad5)*%
X99450000Y-69820000D03*
%TO.P,U3,6,P0.04/AIN2*%
%TO.N,unconnected-(U3-Pad6)*%
X99850000Y-69820000D03*
%TO.P,U3,7,P0.05/AIN3*%
%TO.N,unconnected-(U3-Pad7)*%
X100250000Y-69820000D03*
%TO.P,U3,8,P0.06*%
%TO.N,unconnected-(U3-Pad8)*%
X100650000Y-69820000D03*
%TO.P,U3,9,P0.07*%
%TO.N,unconnected-(U3-Pad9)*%
X101050000Y-69820000D03*
%TO.P,U3,10,P0.08*%
%TO.N,unconnected-(U3-Pad10)*%
X101450000Y-69820000D03*
%TO.P,U3,11,P0.09*%
%TO.N,unconnected-(U3-Pad11)*%
X101850000Y-69820000D03*
%TO.P,U3,12,P0.10*%
%TO.N,unconnected-(U3-Pad12)*%
X102250000Y-69820000D03*
D22*
%TO.P,U3,13,VDD*%
%TO.N,+3V3*%
X103000000Y-69070000D03*
%TO.P,U3,14,P0.11*%
%TO.N,unconnected-(U3-Pad14)*%
X103000000Y-68670000D03*
%TO.P,U3,15,P0.12*%
%TO.N,unconnected-(U3-Pad15)*%
X103000000Y-68270000D03*
%TO.P,U3,16,P0.13*%
%TO.N,unconnected-(U3-Pad16)*%
X103000000Y-67870000D03*
%TO.P,U3,17,P0.14*%
%TO.N,unconnected-(U3-Pad17)*%
X103000000Y-67470000D03*
%TO.P,U3,18,P0.15*%
%TO.N,unconnected-(U3-Pad18)*%
X103000000Y-67070000D03*
%TO.P,U3,19,P0.16*%
%TO.N,unconnected-(U3-Pad19)*%
X103000000Y-66670000D03*
%TO.P,U3,20,P0.17*%
%TO.N,unconnected-(U3-Pad20)*%
X103000000Y-66270000D03*
%TO.P,U3,21,P0.18*%
%TO.N,unconnected-(U3-Pad21)*%
X103000000Y-65870000D03*
%TO.P,U3,22,P0.19*%
%TO.N,unconnected-(U3-Pad22)*%
X103000000Y-65470000D03*
%TO.P,U3,23,P0.20*%
%TO.N,unconnected-(U3-Pad23)*%
X103000000Y-65070000D03*
%TO.P,U3,24,P0.21/~RESET*%
%TO.N,/mcu/RST*%
X103000000Y-64670000D03*
D21*
%TO.P,U3,25,SWDCLK*%
%TO.N,/mcu/SWDCLK*%
X102250000Y-63920000D03*
%TO.P,U3,26,SWDIO*%
%TO.N,/mcu/SWDIO*%
X101850000Y-63920000D03*
%TO.P,U3,27,P0.22*%
%TO.N,unconnected-(U3-Pad27)*%
X101450000Y-63920000D03*
%TO.P,U3,28,P0.23*%
%TO.N,unconnected-(U3-Pad28)*%
X101050000Y-63920000D03*
%TO.P,U3,29,P0.24*%
%TO.N,unconnected-(U3-Pad29)*%
X100650000Y-63920000D03*
%TO.P,U3,30,ANT*%
%TO.N,Net-(C11-Pad1)*%
X100250000Y-63920000D03*
%TO.P,U3,31,VSS*%
%TO.N,GND*%
X99850000Y-63920000D03*
%TO.P,U3,32,DEC2*%
X99450000Y-63920000D03*
%TO.P,U3,33,DEC3*%
%TO.N,Net-(C9-Pad2)*%
X99050000Y-63920000D03*
%TO.P,U3,34,XC1*%
%TO.N,Net-(C12-Pad1)*%
X98650000Y-63920000D03*
%TO.P,U3,35,XC2*%
%TO.N,Net-(C13-Pad1)*%
X98250000Y-63920000D03*
%TO.P,U3,36,VDD*%
%TO.N,+3V3*%
X97850000Y-63920000D03*
D22*
%TO.P,U3,37,P0.25*%
%TO.N,unconnected-(U3-Pad37)*%
X97100000Y-64670000D03*
%TO.P,U3,38,P0.26*%
%TO.N,unconnected-(U3-Pad38)*%
X97100000Y-65070000D03*
%TO.P,U3,39,P0.27*%
%TO.N,unconnected-(U3-Pad39)*%
X97100000Y-65470000D03*
%TO.P,U3,40,P0.28/AIN4*%
%TO.N,unconnected-(U3-Pad40)*%
X97100000Y-65870000D03*
%TO.P,U3,41,P0.29/AIN5*%
%TO.N,unconnected-(U3-Pad41)*%
X97100000Y-66270000D03*
%TO.P,U3,42,P0.30/AIN6*%
%TO.N,unconnected-(U3-Pad42)*%
X97100000Y-66670000D03*
%TO.P,U3,43,P0.31/AIN7*%
%TO.N,unconnected-(U3-Pad43)*%
X97100000Y-67070000D03*
%TO.P,U3,44,NC*%
%TO.N,unconnected-(U3-Pad44)*%
X97100000Y-67470000D03*
%TO.P,U3,45,VSS*%
%TO.N,GND*%
X97100000Y-67870000D03*
%TO.P,U3,46,DEC4*%
%TO.N,Net-(C8-Pad2)*%
X97100000Y-68270000D03*
%TO.P,U3,47,DCC*%
%TO.N,unconnected-(U3-Pad47)*%
X97100000Y-68670000D03*
%TO.P,U3,48,VDD*%
%TO.N,+3V3*%
X97100000Y-69070000D03*
D23*
%TO.P,U3,49,VSS*%
%TO.N,GND*%
X100050000Y-66870000D03*
%TD*%
D16*
%TO.P,R4,1*%
%TO.N,GND*%
X109530000Y-101580000D03*
%TO.P,R4,2*%
%TO.N,Net-(R3-Pad2)*%
X108260000Y-101580000D03*
%TD*%
D24*
%TO.P,U2,1,VOUT*%
%TO.N,+3V3*%
X97606800Y-90189400D03*
%TO.P,U2,2,L2*%
%TO.N,Net-(L2-Pad2)*%
X97606800Y-90672000D03*
%TO.P,U2,3,PGND*%
%TO.N,GND*%
X97606800Y-91180000D03*
%TO.P,U2,4,L1*%
%TO.N,Net-(L2-Pad1)*%
X97606800Y-91688000D03*
%TO.P,U2,5,VIN*%
%TO.N,VBAT*%
X97606800Y-92170600D03*
%TO.P,U2,6,EN*%
%TO.N,Net-(C2-Pad1)*%
X100553200Y-92170600D03*
%TO.P,U2,7,PS/SYNC*%
X100553200Y-91688000D03*
%TO.P,U2,8,VINA*%
X100553200Y-91180000D03*
%TO.P,U2,9,GND*%
%TO.N,GND*%
X100553200Y-90672000D03*
%TO.P,U2,10,FB*%
%TO.N,+3V3*%
X100553200Y-90189400D03*
D25*
%TO.P,U2,11,PGND*%
%TO.N,GND*%
X99080000Y-91180000D03*
%TD*%
D18*
%TO.P,C13,1*%
%TO.N,Net-(C13-Pad1)*%
X92460000Y-65330000D03*
%TO.P,C13,2*%
%TO.N,GND*%
X92460000Y-66600000D03*
%TD*%
D26*
%TO.P,Y1,1,1*%
%TO.N,Net-(C13-Pad1)*%
X92484795Y-63435000D03*
%TO.P,Y1,2,2*%
%TO.N,GND*%
X93834795Y-63435000D03*
%TO.P,Y1,3,3*%
%TO.N,Net-(C12-Pad1)*%
X93834795Y-62385000D03*
%TO.P,Y1,4,4*%
%TO.N,GND*%
X92484795Y-62385000D03*
%TD*%
D17*
%TO.P,R3,1*%
%TO.N,Net-(R3-Pad1)*%
X103580000Y-101580000D03*
%TO.P,R3,2*%
%TO.N,Net-(R3-Pad2)*%
X104850000Y-101580000D03*
%TD*%
D10*
%TO.P,L1,1,1*%
%TO.N,Net-(L1-Pad1)*%
X96510000Y-105660000D03*
%TO.P,L1,2,2*%
%TO.N,VBUS*%
X96510000Y-104390000D03*
%TD*%
D16*
%TO.P,C10,1*%
%TO.N,GND*%
X100875000Y-72375000D03*
%TO.P,C10,2*%
%TO.N,Net-(C10-Pad2)*%
X99605000Y-72375000D03*
%TD*%
D27*
%TO.P,D1,1,K*%
%TO.N,Net-(D1-Pad1)*%
X96530000Y-96610000D03*
%TO.P,D1,2,A*%
%TO.N,VBUS*%
X94905000Y-96610000D03*
%TD*%
D16*
%TO.P,C11,1*%
%TO.N,Net-(C11-Pad1)*%
X100280000Y-60840000D03*
%TO.P,C11,2*%
%TO.N,GND*%
X99010000Y-60840000D03*
%TD*%
%TO.P,C14,1*%
%TO.N,Net-(AE1-Pad1)*%
X100270000Y-55030000D03*
%TO.P,C14,2*%
%TO.N,GND*%
X99000000Y-55030000D03*
%TD*%
D28*
%TO.P,CON1,1,VCC*%
%TO.N,+3V3*%
X114670000Y-69800000D03*
D29*
%TO.P,CON1,2,SWDIO/TMS*%
%TO.N,/mcu/SWDIO*%
X113400000Y-69800000D03*
%TO.P,CON1,3,GND*%
%TO.N,GND*%
X114670000Y-68530000D03*
%TO.P,CON1,4,SWDCLK/TCK*%
%TO.N,/mcu/SWDCLK*%
X113400000Y-68530000D03*
%TO.P,CON1,5,GND*%
%TO.N,GND*%
X114670000Y-67260000D03*
%TO.P,CON1,6,SWO/TDO*%
%TO.N,unconnected-(CON1-Pad6)*%
X113400000Y-67260000D03*
%TO.P,CON1,7,KEY*%
%TO.N,unconnected-(CON1-Pad7)*%
X114670000Y-65990000D03*
%TO.P,CON1,8,NC/TDI*%
%TO.N,unconnected-(CON1-Pad8)*%
X113400000Y-65990000D03*
%TO.P,CON1,9,GND*%
%TO.N,GND*%
X114670000Y-64720000D03*
%TO.P,CON1,10,tRST*%
%TO.N,/mcu/RST*%
X113400000Y-64720000D03*
%TD*%
D10*
%TO.P,C5,1*%
%TO.N,GND*%
X95395000Y-74905000D03*
%TO.P,C5,2*%
%TO.N,+3V3*%
X95395000Y-73635000D03*
%TD*%
D30*
%TO.N,+3V3*%
X96010000Y-64100000D03*
X96060000Y-69440000D03*
%TO.N,VBAT*%
X98700000Y-97490000D03*
X98400000Y-95140000D03*
X99590000Y-103130000D03*
%TO.N,GND*%
X91000000Y-66610000D03*
X90820000Y-94420000D03*
X97950000Y-112890000D03*
X99040000Y-91940000D03*
X99850000Y-66460000D03*
X93890000Y-57360000D03*
X90550000Y-59740000D03*
X111070000Y-101610000D03*
X99670000Y-97780000D03*
X104430000Y-86900000D03*
X97940000Y-57760000D03*
X99060000Y-90340000D03*
X99080000Y-91180000D03*
X99800000Y-73950000D03*
X100800000Y-84700000D03*
%TO.N,Net-(C9-Pad2)*%
X98900000Y-62110000D03*
%TO.N,Net-(C13-Pad1)*%
X91210000Y-63530000D03*
X95060000Y-62930000D03*
%TO.N,/mcu/SWDIO*%
X102060000Y-61790000D03*
%TO.N,/mcu/SWDCLK*%
X107950000Y-63800000D03*
%TD*%
D31*
%TO.N,+3V3*%
X97850000Y-63920000D02*
X96190000Y-63920000D01*
X96190000Y-63920000D02*
X96010000Y-64100000D01*
%TO.N,Net-(AE1-Pad1)*%
X100300000Y-57310000D02*
X100300000Y-55060000D01*
X100300000Y-55060000D02*
X100270000Y-55030000D01*
X100270000Y-55030000D02*
X100270000Y-53225000D01*
X100270000Y-53225000D02*
X100310000Y-53185000D01*
%TO.N,VBAT*%
X98700000Y-97490000D02*
X98700000Y-98935000D01*
X95745000Y-94235000D02*
X95745000Y-94445000D01*
X104400000Y-93700000D02*
X97690000Y-93700000D01*
D32*
X99590000Y-100730000D02*
X98742500Y-99882500D01*
D31*
X97606800Y-94346800D02*
X98400000Y-95140000D01*
X96430000Y-93550000D02*
X95745000Y-94235000D01*
X98700000Y-98935000D02*
X98742500Y-98977500D01*
D32*
X99590000Y-103130000D02*
X99590000Y-100730000D01*
D31*
X97690000Y-93700000D02*
X97540000Y-93550000D01*
X97606800Y-92170600D02*
X97606800Y-93783200D01*
X97540000Y-93550000D02*
X96430000Y-93550000D01*
D32*
X98742500Y-99882500D02*
X98742500Y-98977500D01*
D31*
X97690000Y-93700000D02*
X97606800Y-93783200D01*
X97606800Y-93783200D02*
X97606800Y-94346800D01*
%TO.N,GND*%
X99050000Y-67870000D02*
X100050000Y-66870000D01*
X92484795Y-60594795D02*
X91750000Y-59860000D01*
X91630000Y-59740000D02*
X90550000Y-59740000D01*
X99010000Y-60840000D02*
X99010000Y-57760000D01*
X99010000Y-55040000D02*
X99000000Y-55030000D01*
X100875000Y-72875000D02*
X99800000Y-73950000D01*
X99692500Y-98977500D02*
X99692500Y-97802500D01*
X93530000Y-74860000D02*
X93530000Y-75220000D01*
X97345000Y-84625000D02*
X99255000Y-84625000D01*
X99720000Y-110455000D02*
X99720000Y-111955000D01*
X92400000Y-66660000D02*
X92460000Y-66600000D01*
X99450000Y-66270000D02*
X100050000Y-66870000D01*
X97310000Y-74860000D02*
X97360000Y-74910000D01*
X91010000Y-66600000D02*
X91000000Y-66610000D01*
X99850000Y-66460000D02*
X99850000Y-66670000D01*
X99588000Y-90672000D02*
X99080000Y-91180000D01*
X111040000Y-101580000D02*
X111070000Y-101610000D01*
X93760000Y-66600000D02*
X92460000Y-66600000D01*
X99720000Y-111955000D02*
X98785000Y-112890000D01*
X93855000Y-59095000D02*
X93855000Y-57395000D01*
X100725000Y-84625000D02*
X100800000Y-84700000D01*
X99850000Y-63920000D02*
X99850000Y-66460000D01*
X91750000Y-59860000D02*
X91630000Y-59740000D01*
X99450000Y-63920000D02*
X99450000Y-66270000D01*
X94475000Y-94445000D02*
X90845000Y-94445000D01*
X99255000Y-84625000D02*
X100725000Y-84625000D01*
X90845000Y-94445000D02*
X90820000Y-94420000D01*
X92460000Y-66600000D02*
X91010000Y-66600000D01*
X98785000Y-112890000D02*
X97950000Y-112890000D01*
X97100000Y-67870000D02*
X99050000Y-67870000D01*
X93855000Y-57395000D02*
X93890000Y-57360000D01*
X92484795Y-62385000D02*
X92484795Y-60594795D01*
X99010000Y-57760000D02*
X99010000Y-55040000D01*
X104405000Y-88645000D02*
X104405000Y-86925000D01*
X104405000Y-86925000D02*
X104430000Y-86900000D01*
X100875000Y-72375000D02*
X100875000Y-72875000D01*
X93834795Y-63435000D02*
X93834795Y-66525205D01*
X99010000Y-57760000D02*
X97940000Y-57760000D01*
X99850000Y-66670000D02*
X100050000Y-66870000D01*
X97606800Y-91180000D02*
X99080000Y-91180000D01*
X92400000Y-68370000D02*
X92400000Y-66660000D01*
X99692500Y-97802500D02*
X99670000Y-97780000D01*
X100553200Y-90672000D02*
X99588000Y-90672000D01*
X109530000Y-101580000D02*
X111040000Y-101580000D01*
X93530000Y-74860000D02*
X97310000Y-74860000D01*
X93055000Y-69025000D02*
X92400000Y-68370000D01*
X98840000Y-74910000D02*
X97360000Y-74910000D01*
X93834795Y-66525205D02*
X93760000Y-66600000D01*
X99800000Y-73950000D02*
X98840000Y-74910000D01*
%TO.N,Net-(C2-Pad1)*%
X100553200Y-91688000D02*
X102442000Y-91688000D01*
X102442000Y-91688000D02*
X102500000Y-91630000D01*
X102719400Y-92170600D02*
X103000000Y-91890000D01*
X100553200Y-91180000D02*
X102500000Y-91180000D01*
X102500000Y-91630000D02*
X102500000Y-91180000D01*
X102980000Y-91180000D02*
X104400000Y-91180000D01*
X103000000Y-91200000D02*
X102980000Y-91180000D01*
X104400000Y-91180000D02*
X104400000Y-92430000D01*
X102500000Y-91180000D02*
X102980000Y-91180000D01*
X100553200Y-92170600D02*
X102719400Y-92170600D01*
X104405000Y-91175000D02*
X104405000Y-89915000D01*
X103000000Y-91890000D02*
X103000000Y-91200000D01*
X104405000Y-91175000D02*
X104400000Y-91180000D01*
%TO.N,Net-(C8-Pad2)*%
X93620489Y-67795482D02*
X93620489Y-67464518D01*
X95405489Y-67230489D02*
X96445000Y-68270000D01*
X94325000Y-69025000D02*
X94325000Y-68499993D01*
X96445000Y-68270000D02*
X97100000Y-68270000D01*
X93620489Y-67464518D02*
X93854518Y-67230489D01*
X94325000Y-68499993D02*
X93620489Y-67795482D01*
X93854518Y-67230489D02*
X95405489Y-67230489D01*
%TO.N,Net-(C9-Pad2)*%
X99050000Y-63920000D02*
X99050000Y-62260000D01*
X99050000Y-62260000D02*
X98900000Y-62110000D01*
%TO.N,Net-(C10-Pad2)*%
X99605000Y-72375000D02*
X98935000Y-72375000D01*
X97800000Y-69870000D02*
X97850000Y-69820000D01*
X97800000Y-71240000D02*
X97800000Y-69870000D01*
X98935000Y-72375000D02*
X97800000Y-71240000D01*
%TO.N,Net-(C11-Pad1)*%
X100280000Y-60840000D02*
X100280000Y-58600000D01*
X100280000Y-60840000D02*
X100250000Y-60870000D01*
X100280000Y-58600000D02*
X100300000Y-58580000D01*
X100250000Y-60870000D02*
X100250000Y-63920000D01*
%TO.N,Net-(C12-Pad1)*%
X98265499Y-62355499D02*
X93864296Y-62355499D01*
X98650000Y-62740000D02*
X98265499Y-62355499D01*
X93855000Y-60365000D02*
X93855000Y-62364795D01*
X98650000Y-63920000D02*
X98650000Y-62740000D01*
X93864296Y-62355499D02*
X93834795Y-62385000D01*
X93855000Y-62364795D02*
X93834795Y-62385000D01*
%TO.N,Net-(C13-Pad1)*%
X98250000Y-63265000D02*
X97915000Y-62930000D01*
X98250000Y-63920000D02*
X98250000Y-63265000D01*
X92484795Y-63435000D02*
X91305000Y-63435000D01*
X97900000Y-62930000D02*
X95060000Y-62930000D01*
X91305000Y-63435000D02*
X91210000Y-63530000D01*
X97915000Y-62930000D02*
X97900000Y-62930000D01*
X92460000Y-65330000D02*
X92460000Y-63459795D01*
X92460000Y-63459795D02*
X92484795Y-63435000D01*
%TO.N,/mcu/SWDIO*%
X101850000Y-62000000D02*
X102060000Y-61790000D01*
X101850000Y-63920000D02*
X101850000Y-62000000D01*
%TO.N,Net-(D1-Pad1)*%
X96540000Y-96600000D02*
X96530000Y-96610000D01*
X101580000Y-96600000D02*
X96540000Y-96600000D01*
%TO.N,VBUS*%
X94905000Y-96610000D02*
X94905000Y-98155000D01*
X97687500Y-101577500D02*
X97252500Y-101577500D01*
X94905000Y-98155000D02*
X97687500Y-100937500D01*
X96510000Y-102320000D02*
X96510000Y-104390000D01*
X98742500Y-101577500D02*
X97687500Y-101577500D01*
X97252500Y-101577500D02*
X96510000Y-102320000D01*
X97687500Y-100937500D02*
X97687500Y-101577500D01*
%TO.N,Net-(L1-Pad1)*%
X96510000Y-105660000D02*
X96510000Y-110445000D01*
X96510000Y-110445000D02*
X96520000Y-110455000D01*
%TO.N,Net-(L2-Pad1)*%
X95436311Y-91743689D02*
X94710000Y-92470000D01*
X97326311Y-91743689D02*
X95436311Y-91743689D01*
X97606800Y-91688000D02*
X97382000Y-91688000D01*
X97382000Y-91688000D02*
X97326311Y-91743689D01*
%TO.N,Net-(L2-Pad2)*%
X95612000Y-90672000D02*
X94710000Y-89770000D01*
X97606800Y-90672000D02*
X95612000Y-90672000D01*
%TO.N,Net-(R2-Pad1)*%
X100642500Y-98977500D02*
X102892500Y-98977500D01*
X103300000Y-98570000D02*
X103300000Y-97050000D01*
X102892500Y-98977500D02*
X103300000Y-98570000D01*
X103300000Y-97050000D02*
X102850000Y-96600000D01*
%TO.N,Net-(R3-Pad1)*%
X100645000Y-101580000D02*
X100642500Y-101577500D01*
X103580000Y-101580000D02*
X100645000Y-101580000D01*
%TO.N,Net-(R3-Pad2)*%
X108260000Y-101580000D02*
X104850000Y-101580000D01*
%TO.N,/mcu/RST*%
X113350000Y-64670000D02*
X103000000Y-64670000D01*
X113400000Y-64720000D02*
X113350000Y-64670000D01*
%TO.N,/mcu/SWDCLK*%
X107950000Y-63280000D02*
X107950000Y-63800000D01*
X102250000Y-63920000D02*
X102250000Y-62670000D01*
X104790000Y-62480000D02*
X107150000Y-62480000D01*
X102250000Y-62670000D02*
X102280000Y-62640000D01*
X107150000Y-62480000D02*
X107930000Y-63260000D01*
X102280000Y-62640000D02*
X102440000Y-62480000D01*
X102440000Y-62480000D02*
X104790000Y-62480000D01*
X107930000Y-63260000D02*
X107950000Y-63280000D01*
%TD*%
%TA.AperFunction,Conductor*%
%TO.N,+3V3*%
G36*
X123883489Y-53718983D02*
G01*
X123919884Y-53768167D01*
X123925000Y-53799581D01*
X123925000Y-55796919D01*
X123925069Y-55797224D01*
X123925113Y-55798013D01*
X123925103Y-55809268D01*
X123925104Y-55809271D01*
X123925094Y-55820417D01*
X123929919Y-55830466D01*
X123930320Y-55831300D01*
X123937594Y-55852131D01*
X123940279Y-55863900D01*
X123947227Y-55872619D01*
X123947631Y-55873126D01*
X123959456Y-55891976D01*
X123964565Y-55902616D01*
X123973269Y-55909577D01*
X123973271Y-55909579D01*
X123973991Y-55910154D01*
X123989580Y-55925769D01*
X123997105Y-55935212D01*
X124007145Y-55940055D01*
X124007148Y-55940057D01*
X124007738Y-55940341D01*
X124026557Y-55952191D01*
X124035778Y-55959565D01*
X124046644Y-55962064D01*
X124046647Y-55962065D01*
X124047543Y-55962271D01*
X124068359Y-55969581D01*
X124069192Y-55969983D01*
X124069195Y-55969984D01*
X124079234Y-55974826D01*
X124101631Y-55974845D01*
X124102425Y-55974891D01*
X124102899Y-55975000D01*
X126376000Y-55975000D01*
X126434191Y-55993907D01*
X126470155Y-56043407D01*
X126475000Y-56074000D01*
X126475000Y-60476000D01*
X126456093Y-60534191D01*
X126406593Y-60570155D01*
X126376000Y-60575000D01*
X125603081Y-60575000D01*
X125602776Y-60575069D01*
X125601987Y-60575113D01*
X125590732Y-60575103D01*
X125590729Y-60575104D01*
X125579583Y-60575094D01*
X125568697Y-60580321D01*
X125547869Y-60587594D01*
X125546970Y-60587799D01*
X125546969Y-60587799D01*
X125536100Y-60590279D01*
X125527381Y-60597227D01*
X125526874Y-60597631D01*
X125508024Y-60609456D01*
X125497384Y-60614565D01*
X125490423Y-60623269D01*
X125490421Y-60623271D01*
X125489846Y-60623991D01*
X125474231Y-60639580D01*
X125464788Y-60647105D01*
X125459945Y-60657145D01*
X125459943Y-60657148D01*
X125459659Y-60657738D01*
X125447809Y-60676557D01*
X125440435Y-60685778D01*
X125437936Y-60696644D01*
X125437935Y-60696647D01*
X125437729Y-60697543D01*
X125430419Y-60718359D01*
X125430017Y-60719192D01*
X125430016Y-60719195D01*
X125425174Y-60729234D01*
X125425155Y-60751623D01*
X125425109Y-60752425D01*
X125425000Y-60752899D01*
X125425000Y-85796919D01*
X125425069Y-85797224D01*
X125425113Y-85798013D01*
X125425103Y-85809268D01*
X125425104Y-85809271D01*
X125425094Y-85820417D01*
X125429919Y-85830466D01*
X125430320Y-85831300D01*
X125437594Y-85852131D01*
X125440279Y-85863900D01*
X125447227Y-85872619D01*
X125447631Y-85873126D01*
X125459456Y-85891976D01*
X125464565Y-85902616D01*
X125473269Y-85909577D01*
X125473271Y-85909579D01*
X125473991Y-85910154D01*
X125489580Y-85925769D01*
X125497105Y-85935212D01*
X125507145Y-85940055D01*
X125507148Y-85940057D01*
X125507738Y-85940341D01*
X125526557Y-85952191D01*
X125535778Y-85959565D01*
X125546644Y-85962064D01*
X125546647Y-85962065D01*
X125547543Y-85962271D01*
X125568359Y-85969581D01*
X125569192Y-85969983D01*
X125569195Y-85969984D01*
X125579234Y-85974826D01*
X125601631Y-85974845D01*
X125602425Y-85974891D01*
X125602899Y-85975000D01*
X126376000Y-85975000D01*
X126434191Y-85993907D01*
X126470155Y-86043407D01*
X126475000Y-86074000D01*
X126475000Y-90476000D01*
X126456093Y-90534191D01*
X126406593Y-90570155D01*
X126376000Y-90575000D01*
X124103081Y-90575000D01*
X124102776Y-90575069D01*
X124101987Y-90575113D01*
X124090732Y-90575103D01*
X124090729Y-90575104D01*
X124079583Y-90575094D01*
X124068697Y-90580321D01*
X124047869Y-90587594D01*
X124046970Y-90587799D01*
X124046969Y-90587799D01*
X124036100Y-90590279D01*
X124027381Y-90597227D01*
X124026874Y-90597631D01*
X124008024Y-90609456D01*
X123997384Y-90614565D01*
X123990423Y-90623269D01*
X123990421Y-90623271D01*
X123989846Y-90623991D01*
X123974231Y-90639580D01*
X123964788Y-90647105D01*
X123959945Y-90657145D01*
X123959943Y-90657148D01*
X123959659Y-90657738D01*
X123947809Y-90676557D01*
X123940435Y-90685778D01*
X123937936Y-90696644D01*
X123937935Y-90696647D01*
X123937729Y-90697543D01*
X123930419Y-90718359D01*
X123930017Y-90719192D01*
X123930016Y-90719195D01*
X123925174Y-90729234D01*
X123925161Y-90744407D01*
X123925155Y-90751623D01*
X123925109Y-90752425D01*
X123925000Y-90752899D01*
X123925000Y-118476000D01*
X123906093Y-118534191D01*
X123856593Y-118570155D01*
X123826000Y-118575000D01*
X122503081Y-118575000D01*
X122502776Y-118575069D01*
X122501987Y-118575113D01*
X122490732Y-118575103D01*
X122490729Y-118575104D01*
X122479583Y-118575094D01*
X122468697Y-118580321D01*
X122447869Y-118587594D01*
X122446970Y-118587799D01*
X122446969Y-118587799D01*
X122436100Y-118590279D01*
X122427381Y-118597227D01*
X122426874Y-118597631D01*
X122408024Y-118609456D01*
X122397384Y-118614565D01*
X122390423Y-118623269D01*
X122390421Y-118623271D01*
X122389846Y-118623991D01*
X122374231Y-118639580D01*
X122364788Y-118647105D01*
X122359945Y-118657145D01*
X122359943Y-118657148D01*
X122359659Y-118657738D01*
X122347809Y-118676557D01*
X122340435Y-118685778D01*
X122337936Y-118696644D01*
X122337935Y-118696647D01*
X122337729Y-118697543D01*
X122330419Y-118718359D01*
X122330017Y-118719192D01*
X122330016Y-118719195D01*
X122325174Y-118729234D01*
X122325155Y-118751623D01*
X122325109Y-118752425D01*
X122325000Y-118752899D01*
X122325000Y-119576000D01*
X122306093Y-119634191D01*
X122256593Y-119670155D01*
X122226000Y-119675000D01*
X118024000Y-119675000D01*
X117965809Y-119656093D01*
X117929845Y-119606593D01*
X117925000Y-119576000D01*
X117925000Y-118753081D01*
X117924931Y-118752776D01*
X117924887Y-118751987D01*
X117924897Y-118740732D01*
X117924896Y-118740729D01*
X117924906Y-118729583D01*
X117919679Y-118718697D01*
X117912406Y-118697869D01*
X117912201Y-118696970D01*
X117912201Y-118696969D01*
X117909721Y-118686100D01*
X117902369Y-118676874D01*
X117890544Y-118658024D01*
X117890260Y-118657433D01*
X117885435Y-118647384D01*
X117876731Y-118640423D01*
X117876729Y-118640421D01*
X117876009Y-118639846D01*
X117860420Y-118624231D01*
X117852895Y-118614788D01*
X117842855Y-118609945D01*
X117842852Y-118609943D01*
X117842262Y-118609659D01*
X117823443Y-118597809D01*
X117814222Y-118590435D01*
X117803356Y-118587936D01*
X117803353Y-118587935D01*
X117802457Y-118587729D01*
X117781641Y-118580419D01*
X117780808Y-118580017D01*
X117780805Y-118580016D01*
X117770766Y-118575174D01*
X117748369Y-118575155D01*
X117747575Y-118575109D01*
X117747101Y-118575000D01*
X108003081Y-118575000D01*
X108002776Y-118575069D01*
X108001987Y-118575113D01*
X107990732Y-118575103D01*
X107990729Y-118575104D01*
X107979583Y-118575094D01*
X107968697Y-118580321D01*
X107947869Y-118587594D01*
X107946970Y-118587799D01*
X107946969Y-118587799D01*
X107936100Y-118590279D01*
X107927381Y-118597227D01*
X107926874Y-118597631D01*
X107908024Y-118609456D01*
X107897384Y-118614565D01*
X107890423Y-118623269D01*
X107890421Y-118623271D01*
X107889846Y-118623991D01*
X107874231Y-118639580D01*
X107864788Y-118647105D01*
X107859945Y-118657145D01*
X107859943Y-118657148D01*
X107859659Y-118657738D01*
X107847809Y-118676557D01*
X107840435Y-118685778D01*
X107837936Y-118696644D01*
X107837935Y-118696647D01*
X107837729Y-118697543D01*
X107830419Y-118718359D01*
X107830017Y-118719192D01*
X107830016Y-118719195D01*
X107825174Y-118729234D01*
X107825155Y-118751623D01*
X107825109Y-118752425D01*
X107825000Y-118752899D01*
X107825000Y-119576000D01*
X107806093Y-119634191D01*
X107756593Y-119670155D01*
X107726000Y-119675000D01*
X103524000Y-119675000D01*
X103465809Y-119656093D01*
X103429845Y-119606593D01*
X103425000Y-119576000D01*
X103425000Y-118753081D01*
X103424931Y-118752776D01*
X103424887Y-118751987D01*
X103424897Y-118740732D01*
X103424896Y-118740729D01*
X103424906Y-118729583D01*
X103419679Y-118718697D01*
X103412406Y-118697869D01*
X103412201Y-118696970D01*
X103412201Y-118696969D01*
X103409721Y-118686100D01*
X103402369Y-118676874D01*
X103390544Y-118658024D01*
X103390260Y-118657433D01*
X103385435Y-118647384D01*
X103376731Y-118640423D01*
X103376729Y-118640421D01*
X103376009Y-118639846D01*
X103360420Y-118624231D01*
X103352895Y-118614788D01*
X103342855Y-118609945D01*
X103342852Y-118609943D01*
X103342262Y-118609659D01*
X103323443Y-118597809D01*
X103314222Y-118590435D01*
X103303356Y-118587936D01*
X103303353Y-118587935D01*
X103302457Y-118587729D01*
X103281641Y-118580419D01*
X103280808Y-118580017D01*
X103280805Y-118580016D01*
X103270766Y-118575174D01*
X103248369Y-118575155D01*
X103247575Y-118575109D01*
X103247101Y-118575000D01*
X93503081Y-118575000D01*
X93502776Y-118575069D01*
X93501987Y-118575113D01*
X93490732Y-118575103D01*
X93490729Y-118575104D01*
X93479583Y-118575094D01*
X93468697Y-118580321D01*
X93447869Y-118587594D01*
X93446970Y-118587799D01*
X93446969Y-118587799D01*
X93436100Y-118590279D01*
X93427381Y-118597227D01*
X93426874Y-118597631D01*
X93408024Y-118609456D01*
X93397384Y-118614565D01*
X93390423Y-118623269D01*
X93390421Y-118623271D01*
X93389846Y-118623991D01*
X93374231Y-118639580D01*
X93364788Y-118647105D01*
X93359945Y-118657145D01*
X93359943Y-118657148D01*
X93359659Y-118657738D01*
X93347809Y-118676557D01*
X93340435Y-118685778D01*
X93337936Y-118696644D01*
X93337935Y-118696647D01*
X93337729Y-118697543D01*
X93330419Y-118718359D01*
X93330017Y-118719192D01*
X93330016Y-118719195D01*
X93325174Y-118729234D01*
X93325155Y-118751623D01*
X93325109Y-118752425D01*
X93325000Y-118752899D01*
X93325000Y-119576000D01*
X93306093Y-119634191D01*
X93256593Y-119670155D01*
X93226000Y-119675000D01*
X89024000Y-119675000D01*
X88965809Y-119656093D01*
X88929845Y-119606593D01*
X88925000Y-119576000D01*
X88925000Y-118753081D01*
X88924931Y-118752776D01*
X88924887Y-118751987D01*
X88924897Y-118740732D01*
X88924896Y-118740729D01*
X88924906Y-118729583D01*
X88919679Y-118718697D01*
X88912406Y-118697869D01*
X88912201Y-118696970D01*
X88912201Y-118696969D01*
X88909721Y-118686100D01*
X88902369Y-118676874D01*
X88890544Y-118658024D01*
X88890260Y-118657433D01*
X88885435Y-118647384D01*
X88876731Y-118640423D01*
X88876729Y-118640421D01*
X88876009Y-118639846D01*
X88860420Y-118624231D01*
X88852895Y-118614788D01*
X88842855Y-118609945D01*
X88842852Y-118609943D01*
X88842262Y-118609659D01*
X88823443Y-118597809D01*
X88814222Y-118590435D01*
X88803356Y-118587936D01*
X88803353Y-118587935D01*
X88802457Y-118587729D01*
X88781641Y-118580419D01*
X88780808Y-118580017D01*
X88780805Y-118580016D01*
X88770766Y-118575174D01*
X88748369Y-118575155D01*
X88747575Y-118575109D01*
X88747101Y-118575000D01*
X87424000Y-118575000D01*
X87365809Y-118556093D01*
X87329845Y-118506593D01*
X87325000Y-118476000D01*
X87325000Y-114705000D01*
X92514500Y-114705000D01*
X92514500Y-117205000D01*
X92530143Y-117283641D01*
X92574690Y-117350310D01*
X92641359Y-117394857D01*
X92650922Y-117396759D01*
X92650924Y-117396760D01*
X92676200Y-117401787D01*
X92720000Y-117410500D01*
X94720000Y-117410500D01*
X94763800Y-117401787D01*
X94789076Y-117396760D01*
X94789078Y-117396759D01*
X94798641Y-117394857D01*
X94865310Y-117350310D01*
X94909857Y-117283641D01*
X94925500Y-117205000D01*
X94925500Y-114705000D01*
X101314500Y-114705000D01*
X101314500Y-117205000D01*
X101330143Y-117283641D01*
X101374690Y-117350310D01*
X101441359Y-117394857D01*
X101450922Y-117396759D01*
X101450924Y-117396760D01*
X101476200Y-117401787D01*
X101520000Y-117410500D01*
X103520000Y-117410500D01*
X103563800Y-117401787D01*
X103589076Y-117396760D01*
X103589078Y-117396759D01*
X103598641Y-117394857D01*
X103665310Y-117350310D01*
X103709857Y-117283641D01*
X103725500Y-117205000D01*
X103725500Y-114705000D01*
X103709857Y-114626359D01*
X103665310Y-114559690D01*
X103598641Y-114515143D01*
X103589078Y-114513241D01*
X103589076Y-114513240D01*
X103563800Y-114508213D01*
X103520000Y-114499500D01*
X101520000Y-114499500D01*
X101476200Y-114508213D01*
X101450924Y-114513240D01*
X101450922Y-114513241D01*
X101441359Y-114515143D01*
X101374690Y-114559690D01*
X101330143Y-114626359D01*
X101314500Y-114705000D01*
X94925500Y-114705000D01*
X94909857Y-114626359D01*
X94865310Y-114559690D01*
X94798641Y-114515143D01*
X94789078Y-114513241D01*
X94789076Y-114513240D01*
X94763800Y-114508213D01*
X94720000Y-114499500D01*
X92720000Y-114499500D01*
X92676200Y-114508213D01*
X92650924Y-114513240D01*
X92650922Y-114513241D01*
X92641359Y-114515143D01*
X92574690Y-114559690D01*
X92530143Y-114626359D01*
X92514500Y-114705000D01*
X87325000Y-114705000D01*
X87325000Y-112972844D01*
X95269669Y-112972844D01*
X95269669Y-113137156D01*
X95310532Y-113296306D01*
X95389689Y-113440293D01*
X95502169Y-113560071D01*
X95640902Y-113648114D01*
X95797172Y-113698889D01*
X95803380Y-113699280D01*
X95803382Y-113699280D01*
X95889195Y-113704679D01*
X95961159Y-113709207D01*
X96041860Y-113693813D01*
X96116445Y-113679585D01*
X96116447Y-113679584D01*
X96122561Y-113678418D01*
X96271234Y-113608457D01*
X96276033Y-113604487D01*
X96393042Y-113507690D01*
X96393045Y-113507687D01*
X96397839Y-113503721D01*
X96494419Y-113370790D01*
X96554906Y-113218016D01*
X96575500Y-113055000D01*
X96554906Y-112891984D01*
X96494419Y-112739210D01*
X96397839Y-112606279D01*
X96393045Y-112602313D01*
X96393042Y-112602310D01*
X96276033Y-112505513D01*
X96271234Y-112501543D01*
X96122561Y-112431582D01*
X96116447Y-112430416D01*
X96116445Y-112430415D01*
X96041860Y-112416187D01*
X95961159Y-112400793D01*
X95889195Y-112405321D01*
X95803382Y-112410720D01*
X95803380Y-112410720D01*
X95797172Y-112411111D01*
X95640902Y-112461886D01*
X95502169Y-112549929D01*
X95497909Y-112554465D01*
X95497907Y-112554467D01*
X95453996Y-112601227D01*
X95389689Y-112669707D01*
X95310532Y-112813694D01*
X95269669Y-112972844D01*
X87325000Y-112972844D01*
X87325000Y-109205000D01*
X92514500Y-109205000D01*
X92514500Y-111705000D01*
X92530143Y-111783641D01*
X92574690Y-111850310D01*
X92641359Y-111894857D01*
X92650922Y-111896759D01*
X92650924Y-111896760D01*
X92676200Y-111901787D01*
X92720000Y-111910500D01*
X94720000Y-111910500D01*
X94763800Y-111901787D01*
X94789076Y-111896760D01*
X94789078Y-111896759D01*
X94798641Y-111894857D01*
X94865310Y-111850310D01*
X94909857Y-111783641D01*
X94925500Y-111705000D01*
X94925500Y-109205000D01*
X94909857Y-109126359D01*
X94865310Y-109059690D01*
X94798641Y-109015143D01*
X94789078Y-109013241D01*
X94789076Y-109013240D01*
X94763800Y-109008213D01*
X94720000Y-108999500D01*
X92720000Y-108999500D01*
X92676200Y-109008213D01*
X92650924Y-109013240D01*
X92650922Y-109013241D01*
X92641359Y-109015143D01*
X92574690Y-109059690D01*
X92530143Y-109126359D01*
X92514500Y-109205000D01*
X87325000Y-109205000D01*
X87325000Y-96365931D01*
X94092000Y-96365931D01*
X94092000Y-96854069D01*
X94092609Y-96857913D01*
X94092609Y-96857915D01*
X94103313Y-96925500D01*
X94107458Y-96951669D01*
X94110996Y-96958612D01*
X94110996Y-96958613D01*
X94162481Y-97059656D01*
X94166831Y-97068194D01*
X94259306Y-97160669D01*
X94266250Y-97164207D01*
X94266251Y-97164208D01*
X94350598Y-97207185D01*
X94375831Y-97220042D01*
X94383526Y-97221261D01*
X94383527Y-97221261D01*
X94469585Y-97234891D01*
X94469587Y-97234891D01*
X94473431Y-97235500D01*
X94480500Y-97235500D01*
X94538691Y-97254407D01*
X94574655Y-97303907D01*
X94579500Y-97334500D01*
X94579500Y-98136715D01*
X94579123Y-98145344D01*
X94575758Y-98183805D01*
X94577999Y-98192168D01*
X94585816Y-98221342D01*
X94587685Y-98229774D01*
X94594432Y-98268038D01*
X94598763Y-98275539D01*
X94600757Y-98281017D01*
X94603223Y-98286306D01*
X94605465Y-98294675D01*
X94610433Y-98301771D01*
X94610434Y-98301772D01*
X94627758Y-98326514D01*
X94632396Y-98333795D01*
X94651822Y-98367441D01*
X94673647Y-98385754D01*
X94681398Y-98392258D01*
X94687766Y-98398093D01*
X97333004Y-101043331D01*
X97360781Y-101097848D01*
X97362000Y-101113335D01*
X97362000Y-101152318D01*
X97343093Y-101210509D01*
X97293593Y-101246473D01*
X97254372Y-101250941D01*
X97223695Y-101248257D01*
X97215328Y-101250499D01*
X97186160Y-101258315D01*
X97177729Y-101260185D01*
X97165193Y-101262395D01*
X97147991Y-101265428D01*
X97147990Y-101265428D01*
X97139462Y-101266932D01*
X97131962Y-101271262D01*
X97126473Y-101273260D01*
X97121189Y-101275724D01*
X97112826Y-101277965D01*
X97105731Y-101282933D01*
X97081000Y-101300250D01*
X97073721Y-101304887D01*
X97040059Y-101324322D01*
X97028875Y-101337651D01*
X97015237Y-101353904D01*
X97009402Y-101360272D01*
X96292767Y-102076906D01*
X96286399Y-102082740D01*
X96263459Y-102101989D01*
X96263456Y-102101992D01*
X96256822Y-102107559D01*
X96237397Y-102141204D01*
X96232758Y-102148486D01*
X96215434Y-102173228D01*
X96210465Y-102180325D01*
X96208223Y-102188694D01*
X96205757Y-102193983D01*
X96203763Y-102199461D01*
X96199432Y-102206962D01*
X96197928Y-102215490D01*
X96197928Y-102215491D01*
X96192685Y-102245226D01*
X96190816Y-102253658D01*
X96180758Y-102291195D01*
X96181513Y-102299822D01*
X96184123Y-102329656D01*
X96184500Y-102338285D01*
X96184500Y-103564688D01*
X96165593Y-103622879D01*
X96124808Y-103652018D01*
X96126065Y-103654636D01*
X96108885Y-103662886D01*
X96003971Y-103713265D01*
X95904514Y-103805202D01*
X95900797Y-103811602D01*
X95840205Y-103915917D01*
X95840204Y-103915920D01*
X95836487Y-103922319D01*
X95809500Y-104038748D01*
X95809500Y-104723258D01*
X95824636Y-104823935D01*
X95827839Y-104830606D01*
X95827840Y-104830608D01*
X95843915Y-104864083D01*
X95883265Y-104946029D01*
X95888287Y-104951461D01*
X95888287Y-104951462D01*
X95892991Y-104956551D01*
X95918605Y-105012117D01*
X95906667Y-105072126D01*
X95904727Y-105075005D01*
X95904514Y-105075202D01*
X95904013Y-105076065D01*
X95840205Y-105185917D01*
X95840204Y-105185920D01*
X95836487Y-105192319D01*
X95809500Y-105308748D01*
X95809500Y-105993258D01*
X95824636Y-106093935D01*
X95827839Y-106100606D01*
X95827840Y-106100608D01*
X95843915Y-106134083D01*
X95883265Y-106216029D01*
X95975202Y-106315486D01*
X96092319Y-106383513D01*
X96105723Y-106386620D01*
X96107854Y-106387114D01*
X96160273Y-106418672D01*
X96184131Y-106475014D01*
X96184500Y-106483557D01*
X96184500Y-108966810D01*
X96165593Y-109025001D01*
X96140503Y-109049124D01*
X96124690Y-109059690D01*
X96080143Y-109126359D01*
X96064500Y-109205000D01*
X96064500Y-111705000D01*
X96080143Y-111783641D01*
X96124690Y-111850310D01*
X96191359Y-111894857D01*
X96200922Y-111896759D01*
X96200924Y-111896760D01*
X96226200Y-111901787D01*
X96270000Y-111910500D01*
X96770000Y-111910500D01*
X96813800Y-111901787D01*
X96839076Y-111896760D01*
X96839078Y-111896759D01*
X96848641Y-111894857D01*
X96856753Y-111889437D01*
X96865000Y-111883927D01*
X96923888Y-111867319D01*
X96975000Y-111883927D01*
X96983247Y-111889437D01*
X96991359Y-111894857D01*
X97000922Y-111896759D01*
X97000924Y-111896760D01*
X97026200Y-111901787D01*
X97070000Y-111910500D01*
X97570000Y-111910500D01*
X97613800Y-111901787D01*
X97639076Y-111896760D01*
X97639078Y-111896759D01*
X97648641Y-111894857D01*
X97656753Y-111889437D01*
X97665000Y-111883927D01*
X97723888Y-111867319D01*
X97775000Y-111883927D01*
X97783247Y-111889437D01*
X97791359Y-111894857D01*
X97800922Y-111896759D01*
X97800924Y-111896760D01*
X97826200Y-111901787D01*
X97870000Y-111910500D01*
X98370000Y-111910500D01*
X98413800Y-111901787D01*
X98439076Y-111896760D01*
X98439078Y-111896759D01*
X98448641Y-111894857D01*
X98456753Y-111889437D01*
X98465000Y-111883927D01*
X98523888Y-111867319D01*
X98575000Y-111883927D01*
X98583247Y-111889437D01*
X98591359Y-111894857D01*
X98600922Y-111896759D01*
X98600924Y-111896760D01*
X98626200Y-111901787D01*
X98670000Y-111910500D01*
X99065166Y-111910500D01*
X99123357Y-111929407D01*
X99159321Y-111978907D01*
X99159321Y-112040093D01*
X99135169Y-112079504D01*
X98679168Y-112535504D01*
X98624652Y-112563281D01*
X98609165Y-112564500D01*
X98375439Y-112564500D01*
X98317248Y-112545593D01*
X98300446Y-112530129D01*
X98282303Y-112509074D01*
X98162033Y-112431118D01*
X98155275Y-112429097D01*
X98155273Y-112429096D01*
X98031479Y-112392074D01*
X98024718Y-112390052D01*
X97938694Y-112389527D01*
X97888448Y-112389220D01*
X97881396Y-112389177D01*
X97874620Y-112391114D01*
X97874617Y-112391114D01*
X97750369Y-112426624D01*
X97750367Y-112426625D01*
X97743589Y-112428562D01*
X97622375Y-112505042D01*
X97527499Y-112612469D01*
X97466588Y-112742206D01*
X97444538Y-112883824D01*
X97463121Y-113025939D01*
X97465962Y-113032395D01*
X97465962Y-113032396D01*
X97514708Y-113143178D01*
X97520845Y-113157126D01*
X97525382Y-113162523D01*
X97525383Y-113162525D01*
X97566833Y-113211835D01*
X97613068Y-113266838D01*
X97618939Y-113270746D01*
X97618940Y-113270747D01*
X97631235Y-113278931D01*
X97732377Y-113346257D01*
X97739104Y-113348359D01*
X97739107Y-113348360D01*
X97862448Y-113386894D01*
X97862449Y-113386894D01*
X97869180Y-113388997D01*
X97940830Y-113390310D01*
X98005427Y-113391495D01*
X98005429Y-113391495D01*
X98012481Y-113391624D01*
X98019284Y-113389769D01*
X98019286Y-113389769D01*
X98088898Y-113370790D01*
X98150758Y-113353925D01*
X98272897Y-113278931D01*
X98300837Y-113248063D01*
X98353904Y-113217610D01*
X98374234Y-113215500D01*
X98766715Y-113215500D01*
X98775344Y-113215877D01*
X98813805Y-113219242D01*
X98851342Y-113209184D01*
X98859774Y-113207315D01*
X98889509Y-113202072D01*
X98889510Y-113202072D01*
X98898038Y-113200568D01*
X98905539Y-113196237D01*
X98911017Y-113194243D01*
X98916306Y-113191777D01*
X98924675Y-113189535D01*
X98931772Y-113184566D01*
X98956514Y-113167242D01*
X98963796Y-113162603D01*
X98963931Y-113162525D01*
X98997441Y-113143178D01*
X99003008Y-113136544D01*
X99003011Y-113136541D01*
X99022260Y-113113601D01*
X99028094Y-113107233D01*
X99162483Y-112972844D01*
X99669669Y-112972844D01*
X99669669Y-113137156D01*
X99710532Y-113296306D01*
X99789689Y-113440293D01*
X99902169Y-113560071D01*
X100040902Y-113648114D01*
X100197172Y-113698889D01*
X100203380Y-113699280D01*
X100203382Y-113699280D01*
X100289195Y-113704679D01*
X100361159Y-113709207D01*
X100441860Y-113693813D01*
X100516445Y-113679585D01*
X100516447Y-113679584D01*
X100522561Y-113678418D01*
X100671234Y-113608457D01*
X100676033Y-113604487D01*
X100793042Y-113507690D01*
X100793045Y-113507687D01*
X100797839Y-113503721D01*
X100894419Y-113370790D01*
X100954906Y-113218016D01*
X100975500Y-113055000D01*
X100954906Y-112891984D01*
X100894419Y-112739210D01*
X100797839Y-112606279D01*
X100793045Y-112602313D01*
X100793042Y-112602310D01*
X100676033Y-112505513D01*
X100671234Y-112501543D01*
X100522561Y-112431582D01*
X100516447Y-112430416D01*
X100516445Y-112430415D01*
X100441860Y-112416187D01*
X100361159Y-112400793D01*
X100289195Y-112405321D01*
X100203382Y-112410720D01*
X100203380Y-112410720D01*
X100197172Y-112411111D01*
X100040902Y-112461886D01*
X99902169Y-112549929D01*
X99897909Y-112554465D01*
X99897907Y-112554467D01*
X99853996Y-112601227D01*
X99789689Y-112669707D01*
X99710532Y-112813694D01*
X99669669Y-112972844D01*
X99162483Y-112972844D01*
X99937228Y-112198098D01*
X99943596Y-112192263D01*
X99966543Y-112173009D01*
X99966545Y-112173007D01*
X99973178Y-112167441D01*
X99992610Y-112133784D01*
X99997249Y-112126503D01*
X100014566Y-112101771D01*
X100019535Y-112094675D01*
X100021777Y-112086307D01*
X100024244Y-112081018D01*
X100026239Y-112075536D01*
X100030568Y-112068038D01*
X100037314Y-112029782D01*
X100039183Y-112021352D01*
X100047002Y-111992172D01*
X100047002Y-111992167D01*
X100049243Y-111983805D01*
X100046965Y-111957774D01*
X100060727Y-111898158D01*
X100090586Y-111866830D01*
X100115310Y-111850310D01*
X100159857Y-111783641D01*
X100175500Y-111705000D01*
X100175500Y-109205000D01*
X101314500Y-109205000D01*
X101314500Y-111705000D01*
X101330143Y-111783641D01*
X101374690Y-111850310D01*
X101441359Y-111894857D01*
X101450922Y-111896759D01*
X101450924Y-111896760D01*
X101476200Y-111901787D01*
X101520000Y-111910500D01*
X103520000Y-111910500D01*
X103563800Y-111901787D01*
X103589076Y-111896760D01*
X103589078Y-111896759D01*
X103598641Y-111894857D01*
X103665310Y-111850310D01*
X103709857Y-111783641D01*
X103725500Y-111705000D01*
X103725500Y-109205000D01*
X103709857Y-109126359D01*
X103665310Y-109059690D01*
X103598641Y-109015143D01*
X103589078Y-109013241D01*
X103589076Y-109013240D01*
X103563800Y-109008213D01*
X103520000Y-108999500D01*
X101520000Y-108999500D01*
X101476200Y-109008213D01*
X101450924Y-109013240D01*
X101450922Y-109013241D01*
X101441359Y-109015143D01*
X101374690Y-109059690D01*
X101330143Y-109126359D01*
X101314500Y-109205000D01*
X100175500Y-109205000D01*
X100159857Y-109126359D01*
X100115310Y-109059690D01*
X100048641Y-109015143D01*
X100039078Y-109013241D01*
X100039076Y-109013240D01*
X100013800Y-109008213D01*
X99970000Y-108999500D01*
X99470000Y-108999500D01*
X99426200Y-109008213D01*
X99400924Y-109013240D01*
X99400922Y-109013241D01*
X99391359Y-109015143D01*
X99383249Y-109020562D01*
X99383247Y-109020563D01*
X99375000Y-109026073D01*
X99316112Y-109042681D01*
X99265000Y-109026073D01*
X99256753Y-109020563D01*
X99256751Y-109020562D01*
X99248641Y-109015143D01*
X99239078Y-109013241D01*
X99239076Y-109013240D01*
X99213800Y-109008213D01*
X99170000Y-108999500D01*
X98670000Y-108999500D01*
X98626200Y-109008213D01*
X98600924Y-109013240D01*
X98600922Y-109013241D01*
X98591359Y-109015143D01*
X98583249Y-109020562D01*
X98583247Y-109020563D01*
X98575000Y-109026073D01*
X98516112Y-109042681D01*
X98465000Y-109026073D01*
X98456753Y-109020563D01*
X98456751Y-109020562D01*
X98448641Y-109015143D01*
X98439078Y-109013241D01*
X98439076Y-109013240D01*
X98413800Y-109008213D01*
X98370000Y-108999500D01*
X97870000Y-108999500D01*
X97826200Y-109008213D01*
X97800924Y-109013240D01*
X97800922Y-109013241D01*
X97791359Y-109015143D01*
X97783249Y-109020562D01*
X97783247Y-109020563D01*
X97775000Y-109026073D01*
X97716112Y-109042681D01*
X97665000Y-109026073D01*
X97656753Y-109020563D01*
X97656751Y-109020562D01*
X97648641Y-109015143D01*
X97639078Y-109013241D01*
X97639076Y-109013240D01*
X97613800Y-109008213D01*
X97570000Y-108999500D01*
X97070000Y-108999500D01*
X97026200Y-109008213D01*
X97000924Y-109013240D01*
X97000922Y-109013241D01*
X96991359Y-109015143D01*
X96983250Y-109020561D01*
X96974244Y-109024292D01*
X96972907Y-109021064D01*
X96930620Y-109032993D01*
X96873215Y-109011820D01*
X96839219Y-108960948D01*
X96835500Y-108934069D01*
X96835500Y-106485312D01*
X96854407Y-106427121D01*
X96895192Y-106397982D01*
X96893935Y-106395364D01*
X97009361Y-106339937D01*
X97016029Y-106336735D01*
X97115486Y-106244798D01*
X97144585Y-106194700D01*
X97179795Y-106134083D01*
X97179796Y-106134080D01*
X97183513Y-106127681D01*
X97210500Y-106011252D01*
X97210500Y-105326742D01*
X97195364Y-105226065D01*
X97182624Y-105199533D01*
X97139937Y-105110639D01*
X97136735Y-105103971D01*
X97127009Y-105093449D01*
X97101395Y-105037883D01*
X97113333Y-104977874D01*
X97115273Y-104974995D01*
X97115486Y-104974798D01*
X97136299Y-104938966D01*
X97179795Y-104864083D01*
X97179796Y-104864080D01*
X97183513Y-104857681D01*
X97210500Y-104741252D01*
X97210500Y-104056742D01*
X97195364Y-103956065D01*
X97182624Y-103929533D01*
X97139937Y-103840639D01*
X97136735Y-103833971D01*
X97044798Y-103734514D01*
X96927681Y-103666487D01*
X96912146Y-103662886D01*
X96859727Y-103631328D01*
X96835869Y-103574986D01*
X96835500Y-103566443D01*
X96835500Y-102495835D01*
X96854407Y-102437644D01*
X96864496Y-102425831D01*
X97358330Y-101931996D01*
X97412847Y-101904219D01*
X97428334Y-101903000D01*
X98165934Y-101903000D01*
X98224125Y-101921907D01*
X98260089Y-101971407D01*
X98263030Y-101982679D01*
X98277643Y-102056141D01*
X98283062Y-102064251D01*
X98314630Y-102111495D01*
X98322190Y-102122810D01*
X98388859Y-102167357D01*
X98398422Y-102169259D01*
X98398424Y-102169260D01*
X98423700Y-102174287D01*
X98467500Y-102183000D01*
X99017500Y-102183000D01*
X99022263Y-102182052D01*
X99027112Y-102181575D01*
X99027251Y-102182984D01*
X99081952Y-102189461D01*
X99126880Y-102230996D01*
X99139500Y-102279365D01*
X99139500Y-102890021D01*
X99130115Y-102932094D01*
X99106588Y-102982206D01*
X99084538Y-103123824D01*
X99103121Y-103265939D01*
X99105962Y-103272395D01*
X99105962Y-103272396D01*
X99107870Y-103276731D01*
X99160845Y-103397126D01*
X99253068Y-103506838D01*
X99258939Y-103510746D01*
X99258940Y-103510747D01*
X99271235Y-103518931D01*
X99372377Y-103586257D01*
X99379104Y-103588359D01*
X99379107Y-103588360D01*
X99502448Y-103626894D01*
X99502449Y-103626894D01*
X99509180Y-103628997D01*
X99580831Y-103630311D01*
X99645427Y-103631495D01*
X99645429Y-103631495D01*
X99652481Y-103631624D01*
X99659284Y-103629769D01*
X99659286Y-103629769D01*
X99706065Y-103617015D01*
X99790758Y-103593925D01*
X99912897Y-103518931D01*
X100009078Y-103412672D01*
X100071570Y-103283689D01*
X100074557Y-103265939D01*
X100094715Y-103146120D01*
X100094715Y-103146117D01*
X100095349Y-103142350D01*
X100095500Y-103130000D01*
X100075182Y-102988123D01*
X100049378Y-102931370D01*
X100040500Y-102890394D01*
X100040500Y-102177251D01*
X100059407Y-102119060D01*
X100108907Y-102083096D01*
X100170093Y-102083096D01*
X100206805Y-102110882D01*
X100209879Y-102107808D01*
X100216771Y-102114700D01*
X100222190Y-102122810D01*
X100288859Y-102167357D01*
X100298422Y-102169259D01*
X100298424Y-102169260D01*
X100323700Y-102174287D01*
X100367500Y-102183000D01*
X100917500Y-102183000D01*
X100961300Y-102174287D01*
X100986576Y-102169260D01*
X100986578Y-102169259D01*
X100996141Y-102167357D01*
X101062810Y-102122810D01*
X101070371Y-102111495D01*
X101101938Y-102064251D01*
X101107357Y-102056141D01*
X101121471Y-101985186D01*
X101151368Y-101931802D01*
X101206933Y-101906186D01*
X101218569Y-101905500D01*
X102754688Y-101905500D01*
X102812879Y-101924407D01*
X102842018Y-101965192D01*
X102844636Y-101963935D01*
X102903265Y-102086029D01*
X102995202Y-102185486D01*
X103045300Y-102214585D01*
X103105917Y-102249795D01*
X103105920Y-102249796D01*
X103112319Y-102253513D01*
X103149624Y-102262160D01*
X103223246Y-102279225D01*
X103223249Y-102279225D01*
X103228748Y-102280500D01*
X103913258Y-102280500D01*
X103949697Y-102275022D01*
X104006614Y-102266465D01*
X104006616Y-102266464D01*
X104013935Y-102265364D01*
X104020606Y-102262161D01*
X104020608Y-102262160D01*
X104129361Y-102209937D01*
X104136029Y-102206735D01*
X104146550Y-102197009D01*
X104202117Y-102171395D01*
X104262126Y-102183333D01*
X104265005Y-102185273D01*
X104265202Y-102185486D01*
X104293139Y-102201713D01*
X104375917Y-102249795D01*
X104375920Y-102249796D01*
X104382319Y-102253513D01*
X104419624Y-102262160D01*
X104493246Y-102279225D01*
X104493249Y-102279225D01*
X104498748Y-102280500D01*
X105183258Y-102280500D01*
X105219697Y-102275022D01*
X105276614Y-102266465D01*
X105276616Y-102266464D01*
X105283935Y-102265364D01*
X105290606Y-102262161D01*
X105290608Y-102262160D01*
X105399361Y-102209937D01*
X105406029Y-102206735D01*
X105505486Y-102114798D01*
X105573513Y-101997681D01*
X105577114Y-101982146D01*
X105608672Y-101929727D01*
X105665014Y-101905869D01*
X105673557Y-101905500D01*
X107434688Y-101905500D01*
X107492879Y-101924407D01*
X107522018Y-101965192D01*
X107524636Y-101963935D01*
X107583265Y-102086029D01*
X107675202Y-102185486D01*
X107725300Y-102214585D01*
X107785917Y-102249795D01*
X107785920Y-102249796D01*
X107792319Y-102253513D01*
X107829624Y-102262160D01*
X107903246Y-102279225D01*
X107903249Y-102279225D01*
X107908748Y-102280500D01*
X108593258Y-102280500D01*
X108629697Y-102275022D01*
X108686614Y-102266465D01*
X108686616Y-102266464D01*
X108693935Y-102265364D01*
X108700606Y-102262161D01*
X108700608Y-102262160D01*
X108809361Y-102209937D01*
X108816029Y-102206735D01*
X108826550Y-102197009D01*
X108882117Y-102171395D01*
X108942126Y-102183333D01*
X108945005Y-102185273D01*
X108945202Y-102185486D01*
X108973139Y-102201713D01*
X109055917Y-102249795D01*
X109055920Y-102249796D01*
X109062319Y-102253513D01*
X109099624Y-102262160D01*
X109173246Y-102279225D01*
X109173249Y-102279225D01*
X109178748Y-102280500D01*
X109863258Y-102280500D01*
X109899697Y-102275022D01*
X109956614Y-102266465D01*
X109956616Y-102266464D01*
X109963935Y-102265364D01*
X109970606Y-102262161D01*
X109970608Y-102262160D01*
X110079361Y-102209937D01*
X110086029Y-102206735D01*
X110185486Y-102114798D01*
X110253513Y-101997681D01*
X110257114Y-101982146D01*
X110288672Y-101929727D01*
X110345014Y-101905869D01*
X110353557Y-101905500D01*
X110618584Y-101905500D01*
X110676775Y-101924407D01*
X110694367Y-101940798D01*
X110733068Y-101986838D01*
X110738939Y-101990746D01*
X110738940Y-101990747D01*
X110749357Y-101997681D01*
X110852377Y-102066257D01*
X110859104Y-102068359D01*
X110859107Y-102068360D01*
X110982448Y-102106894D01*
X110982449Y-102106894D01*
X110989180Y-102108997D01*
X111060830Y-102110310D01*
X111125427Y-102111495D01*
X111125429Y-102111495D01*
X111132481Y-102111624D01*
X111139284Y-102109769D01*
X111139286Y-102109769D01*
X111226361Y-102086029D01*
X111270758Y-102073925D01*
X111392897Y-101998931D01*
X111403843Y-101986838D01*
X111484346Y-101897900D01*
X111484346Y-101897899D01*
X111489078Y-101892672D01*
X111551570Y-101763689D01*
X111575349Y-101622350D01*
X111575500Y-101610000D01*
X111555182Y-101468123D01*
X111495860Y-101337651D01*
X111402303Y-101229074D01*
X111282033Y-101151118D01*
X111275275Y-101149097D01*
X111275273Y-101149096D01*
X111151479Y-101112074D01*
X111144718Y-101110052D01*
X111058694Y-101109527D01*
X111008448Y-101109220D01*
X111001396Y-101109177D01*
X110994620Y-101111114D01*
X110994617Y-101111114D01*
X110870369Y-101146624D01*
X110870367Y-101146625D01*
X110863589Y-101148562D01*
X110742375Y-101225042D01*
X110737703Y-101230332D01*
X110737045Y-101230892D01*
X110680476Y-101254208D01*
X110672880Y-101254500D01*
X110355312Y-101254500D01*
X110297121Y-101235593D01*
X110267982Y-101194808D01*
X110265364Y-101196065D01*
X110209937Y-101080639D01*
X110206735Y-101073971D01*
X110114798Y-100974514D01*
X110064700Y-100945415D01*
X110004083Y-100910205D01*
X110004080Y-100910204D01*
X109997681Y-100906487D01*
X109941803Y-100893535D01*
X109886754Y-100880775D01*
X109886751Y-100880775D01*
X109881252Y-100879500D01*
X109196742Y-100879500D01*
X109160303Y-100884978D01*
X109103386Y-100893535D01*
X109103384Y-100893536D01*
X109096065Y-100894636D01*
X109089394Y-100897839D01*
X109089392Y-100897840D01*
X109047524Y-100917945D01*
X108973971Y-100953265D01*
X108968539Y-100958287D01*
X108968538Y-100958287D01*
X108963449Y-100962991D01*
X108907883Y-100988605D01*
X108847874Y-100976667D01*
X108844995Y-100974727D01*
X108844798Y-100974514D01*
X108797698Y-100947156D01*
X108734083Y-100910205D01*
X108734080Y-100910204D01*
X108727681Y-100906487D01*
X108671803Y-100893535D01*
X108616754Y-100880775D01*
X108616751Y-100880775D01*
X108611252Y-100879500D01*
X107926742Y-100879500D01*
X107890303Y-100884978D01*
X107833386Y-100893535D01*
X107833384Y-100893536D01*
X107826065Y-100894636D01*
X107819394Y-100897839D01*
X107819392Y-100897840D01*
X107777524Y-100917945D01*
X107703971Y-100953265D01*
X107604514Y-101045202D01*
X107600797Y-101051602D01*
X107544168Y-101149096D01*
X107536487Y-101162319D01*
X107534816Y-101169529D01*
X107532886Y-101177854D01*
X107501328Y-101230273D01*
X107444986Y-101254131D01*
X107436443Y-101254500D01*
X105675312Y-101254500D01*
X105617121Y-101235593D01*
X105587982Y-101194808D01*
X105585364Y-101196065D01*
X105529937Y-101080639D01*
X105526735Y-101073971D01*
X105434798Y-100974514D01*
X105384700Y-100945415D01*
X105324083Y-100910205D01*
X105324080Y-100910204D01*
X105317681Y-100906487D01*
X105261803Y-100893535D01*
X105206754Y-100880775D01*
X105206751Y-100880775D01*
X105201252Y-100879500D01*
X104516742Y-100879500D01*
X104480303Y-100884978D01*
X104423386Y-100893535D01*
X104423384Y-100893536D01*
X104416065Y-100894636D01*
X104409394Y-100897839D01*
X104409392Y-100897840D01*
X104367524Y-100917945D01*
X104293971Y-100953265D01*
X104288539Y-100958287D01*
X104288538Y-100958287D01*
X104283449Y-100962991D01*
X104227883Y-100988605D01*
X104167874Y-100976667D01*
X104164995Y-100974727D01*
X104164798Y-100974514D01*
X104117698Y-100947156D01*
X104054083Y-100910205D01*
X104054080Y-100910204D01*
X104047681Y-100906487D01*
X103991803Y-100893535D01*
X103936754Y-100880775D01*
X103936751Y-100880775D01*
X103931252Y-100879500D01*
X103246742Y-100879500D01*
X103210303Y-100884978D01*
X103153386Y-100893535D01*
X103153384Y-100893536D01*
X103146065Y-100894636D01*
X103139394Y-100897839D01*
X103139392Y-100897840D01*
X103097524Y-100917945D01*
X103023971Y-100953265D01*
X102924514Y-101045202D01*
X102920797Y-101051602D01*
X102864168Y-101149096D01*
X102856487Y-101162319D01*
X102854816Y-101169529D01*
X102852886Y-101177854D01*
X102821328Y-101230273D01*
X102764986Y-101254131D01*
X102756443Y-101254500D01*
X101219564Y-101254500D01*
X101161373Y-101235593D01*
X101125409Y-101186093D01*
X101122466Y-101174815D01*
X101118516Y-101154956D01*
X101107357Y-101098859D01*
X101062810Y-101032190D01*
X100996141Y-100987643D01*
X100986578Y-100985741D01*
X100986576Y-100985740D01*
X100957461Y-100979949D01*
X100917500Y-100972000D01*
X100367500Y-100972000D01*
X100327539Y-100979949D01*
X100298424Y-100985740D01*
X100298422Y-100985741D01*
X100288859Y-100987643D01*
X100222190Y-101032190D01*
X100216771Y-101040300D01*
X100209879Y-101047192D01*
X100207067Y-101044380D01*
X100173748Y-101070636D01*
X100112610Y-101073027D01*
X100061742Y-101039025D01*
X100040500Y-100977749D01*
X100040500Y-100761877D01*
X100041186Y-100750241D01*
X100044405Y-100723040D01*
X100045275Y-100715692D01*
X100043946Y-100708415D01*
X100043946Y-100708412D01*
X100034663Y-100657586D01*
X100034152Y-100654518D01*
X100026464Y-100603381D01*
X100025364Y-100596065D01*
X100022239Y-100589557D01*
X100020942Y-100582455D01*
X99993706Y-100530023D01*
X99992317Y-100527244D01*
X99969938Y-100480642D01*
X99966735Y-100473971D01*
X99962632Y-100469532D01*
X99961108Y-100467271D01*
X99958507Y-100462264D01*
X99953475Y-100456372D01*
X99915048Y-100417945D01*
X99912354Y-100415142D01*
X99879822Y-100379949D01*
X99874798Y-100374514D01*
X99868923Y-100371101D01*
X99862042Y-100364939D01*
X99221996Y-99724892D01*
X99194219Y-99670375D01*
X99193000Y-99654888D01*
X99193000Y-99653045D01*
X99211907Y-99594854D01*
X99261407Y-99558890D01*
X99322593Y-99558890D01*
X99329887Y-99561581D01*
X99330749Y-99561938D01*
X99338859Y-99567357D01*
X99348422Y-99569259D01*
X99348424Y-99569260D01*
X99373700Y-99574287D01*
X99417500Y-99583000D01*
X99967500Y-99583000D01*
X100011300Y-99574287D01*
X100036576Y-99569260D01*
X100036578Y-99569259D01*
X100046141Y-99567357D01*
X100079476Y-99545083D01*
X100104700Y-99528229D01*
X100112810Y-99522810D01*
X100124644Y-99505099D01*
X100172693Y-99467220D01*
X100233831Y-99464818D01*
X100270595Y-99484263D01*
X100333500Y-99537047D01*
X100445439Y-99577789D01*
X100447851Y-99578000D01*
X100808357Y-99578000D01*
X100897313Y-99562315D01*
X100904809Y-99557987D01*
X100904812Y-99557986D01*
X100992974Y-99507085D01*
X100992977Y-99507083D01*
X101000476Y-99502753D01*
X101077047Y-99411500D01*
X101092828Y-99368141D01*
X101130497Y-99319926D01*
X101185858Y-99303000D01*
X102874215Y-99303000D01*
X102882844Y-99303377D01*
X102921305Y-99306742D01*
X102958842Y-99296684D01*
X102967274Y-99294815D01*
X102997009Y-99289572D01*
X102997010Y-99289572D01*
X103005538Y-99288068D01*
X103013039Y-99283737D01*
X103018517Y-99281743D01*
X103023806Y-99279277D01*
X103032175Y-99277035D01*
X103039272Y-99272066D01*
X103064014Y-99254742D01*
X103071296Y-99250103D01*
X103097441Y-99235008D01*
X103097440Y-99235008D01*
X103104941Y-99230678D01*
X103129759Y-99201101D01*
X103135593Y-99194734D01*
X103517234Y-98813093D01*
X103523602Y-98807258D01*
X103553178Y-98782441D01*
X103572604Y-98748795D01*
X103577242Y-98741514D01*
X103594566Y-98716772D01*
X103594567Y-98716771D01*
X103599535Y-98709675D01*
X103601777Y-98701306D01*
X103604243Y-98696017D01*
X103606237Y-98690539D01*
X103610568Y-98683038D01*
X103617315Y-98644774D01*
X103619184Y-98636342D01*
X103627001Y-98607168D01*
X103629242Y-98598805D01*
X103625877Y-98560344D01*
X103625500Y-98551715D01*
X103625500Y-97068285D01*
X103625877Y-97059656D01*
X103628487Y-97029822D01*
X103629242Y-97021195D01*
X103619184Y-96983658D01*
X103617315Y-96975226D01*
X103612072Y-96945489D01*
X103612071Y-96945486D01*
X103610568Y-96936962D01*
X103606411Y-96929763D01*
X103600500Y-96896242D01*
X103600500Y-96316742D01*
X103585364Y-96216065D01*
X103569160Y-96182319D01*
X103529937Y-96100639D01*
X103526735Y-96093971D01*
X103434798Y-95994514D01*
X103384700Y-95965415D01*
X103324083Y-95930205D01*
X103324080Y-95930204D01*
X103317681Y-95926487D01*
X103261803Y-95913535D01*
X103206754Y-95900775D01*
X103206751Y-95900775D01*
X103201252Y-95899500D01*
X102516742Y-95899500D01*
X102480303Y-95904978D01*
X102423386Y-95913535D01*
X102423384Y-95913536D01*
X102416065Y-95914636D01*
X102409394Y-95917839D01*
X102409392Y-95917840D01*
X102300639Y-95970063D01*
X102293971Y-95973265D01*
X102288539Y-95978287D01*
X102288538Y-95978287D01*
X102283449Y-95982991D01*
X102227883Y-96008605D01*
X102167874Y-95996667D01*
X102164995Y-95994727D01*
X102164798Y-95994514D01*
X102122703Y-95970063D01*
X102054083Y-95930205D01*
X102054080Y-95930204D01*
X102047681Y-95926487D01*
X101991803Y-95913535D01*
X101936754Y-95900775D01*
X101936751Y-95900775D01*
X101931252Y-95899500D01*
X101246742Y-95899500D01*
X101210303Y-95904978D01*
X101153386Y-95913535D01*
X101153384Y-95913536D01*
X101146065Y-95914636D01*
X101139394Y-95917839D01*
X101139392Y-95917840D01*
X101030639Y-95970063D01*
X101023971Y-95973265D01*
X100924514Y-96065202D01*
X100920797Y-96071602D01*
X100870178Y-96158749D01*
X100856487Y-96182319D01*
X100854816Y-96189529D01*
X100852886Y-96197854D01*
X100821328Y-96250273D01*
X100764986Y-96274131D01*
X100756443Y-96274500D01*
X97391352Y-96274500D01*
X97333161Y-96255593D01*
X97303143Y-96220446D01*
X97283716Y-96182319D01*
X97268169Y-96151806D01*
X97175694Y-96059331D01*
X97168750Y-96055793D01*
X97168749Y-96055792D01*
X97066113Y-96003496D01*
X97066112Y-96003496D01*
X97059169Y-95999958D01*
X97051474Y-95998739D01*
X97051473Y-95998739D01*
X96965415Y-95985109D01*
X96965413Y-95985109D01*
X96961569Y-95984500D01*
X96098431Y-95984500D01*
X96094587Y-95985109D01*
X96094585Y-95985109D01*
X96008527Y-95998739D01*
X96008526Y-95998739D01*
X96000831Y-95999958D01*
X95993888Y-96003496D01*
X95993887Y-96003496D01*
X95891251Y-96055792D01*
X95891250Y-96055793D01*
X95884306Y-96059331D01*
X95791831Y-96151806D01*
X95790863Y-96150838D01*
X95748096Y-96181912D01*
X95686910Y-96181914D01*
X95644137Y-96150838D01*
X95643169Y-96151806D01*
X95550694Y-96059331D01*
X95543750Y-96055793D01*
X95543749Y-96055792D01*
X95441113Y-96003496D01*
X95441112Y-96003496D01*
X95434169Y-95999958D01*
X95426474Y-95998739D01*
X95426473Y-95998739D01*
X95340415Y-95985109D01*
X95340413Y-95985109D01*
X95336569Y-95984500D01*
X94473431Y-95984500D01*
X94469587Y-95985109D01*
X94469585Y-95985109D01*
X94383527Y-95998739D01*
X94383526Y-95998739D01*
X94375831Y-95999958D01*
X94368888Y-96003496D01*
X94368887Y-96003496D01*
X94266251Y-96055792D01*
X94266250Y-96055793D01*
X94259306Y-96059331D01*
X94166831Y-96151806D01*
X94163293Y-96158749D01*
X94163292Y-96158751D01*
X94147610Y-96189529D01*
X94107458Y-96268331D01*
X94106239Y-96276026D01*
X94106239Y-96276027D01*
X94099205Y-96320442D01*
X94092000Y-96365931D01*
X87325000Y-96365931D01*
X87325000Y-94413824D01*
X90314538Y-94413824D01*
X90315453Y-94420822D01*
X90319440Y-94451309D01*
X90333121Y-94555939D01*
X90335962Y-94562395D01*
X90335962Y-94562396D01*
X90387312Y-94679096D01*
X90390845Y-94687126D01*
X90483068Y-94796838D01*
X90488939Y-94800746D01*
X90488940Y-94800747D01*
X90501235Y-94808931D01*
X90602377Y-94876257D01*
X90609104Y-94878359D01*
X90609107Y-94878360D01*
X90732448Y-94916894D01*
X90732449Y-94916894D01*
X90739180Y-94918997D01*
X90810830Y-94920310D01*
X90875427Y-94921495D01*
X90875429Y-94921495D01*
X90882481Y-94921624D01*
X90889284Y-94919769D01*
X90889286Y-94919769D01*
X90936065Y-94907015D01*
X91020758Y-94883925D01*
X91142897Y-94808931D01*
X91147630Y-94803702D01*
X91147635Y-94803698D01*
X91148211Y-94803061D01*
X91148828Y-94802707D01*
X91153057Y-94799196D01*
X91153667Y-94799930D01*
X91201280Y-94772609D01*
X91221606Y-94770500D01*
X93649688Y-94770500D01*
X93707879Y-94789407D01*
X93737018Y-94830192D01*
X93739636Y-94828935D01*
X93781874Y-94916894D01*
X93798265Y-94951029D01*
X93890202Y-95050486D01*
X93940300Y-95079585D01*
X94000917Y-95114795D01*
X94000920Y-95114796D01*
X94007319Y-95118513D01*
X94044624Y-95127160D01*
X94118246Y-95144225D01*
X94118249Y-95144225D01*
X94123748Y-95145500D01*
X94808258Y-95145500D01*
X94844841Y-95140000D01*
X94901614Y-95131465D01*
X94901616Y-95131464D01*
X94908935Y-95130364D01*
X94915606Y-95127161D01*
X94915608Y-95127160D01*
X95024361Y-95074937D01*
X95031029Y-95071735D01*
X95041550Y-95062009D01*
X95097117Y-95036395D01*
X95157126Y-95048333D01*
X95160005Y-95050273D01*
X95160202Y-95050486D01*
X95188139Y-95066713D01*
X95270917Y-95114795D01*
X95270920Y-95114796D01*
X95277319Y-95118513D01*
X95314624Y-95127160D01*
X95388246Y-95144225D01*
X95388249Y-95144225D01*
X95393748Y-95145500D01*
X96078258Y-95145500D01*
X96114841Y-95140000D01*
X96171614Y-95131465D01*
X96171616Y-95131464D01*
X96178935Y-95130364D01*
X96185606Y-95127161D01*
X96185608Y-95127160D01*
X96294361Y-95074937D01*
X96301029Y-95071735D01*
X96400486Y-94979798D01*
X96455097Y-94885779D01*
X96464795Y-94869083D01*
X96464796Y-94869080D01*
X96468513Y-94862681D01*
X96483775Y-94796838D01*
X96494225Y-94751754D01*
X96494225Y-94751751D01*
X96495500Y-94746252D01*
X96495500Y-94161742D01*
X96480364Y-94061065D01*
X96477160Y-94054392D01*
X96474984Y-94047320D01*
X96476700Y-94046792D01*
X96469789Y-93995378D01*
X96497176Y-93943151D01*
X96535831Y-93904496D01*
X96590348Y-93876719D01*
X96605835Y-93875500D01*
X97182300Y-93875500D01*
X97240491Y-93894407D01*
X97276455Y-93943907D01*
X97281300Y-93974500D01*
X97281300Y-94328515D01*
X97280923Y-94337144D01*
X97277558Y-94375605D01*
X97279799Y-94383968D01*
X97287616Y-94413142D01*
X97289485Y-94421574D01*
X97294585Y-94450500D01*
X97296232Y-94459838D01*
X97300563Y-94467339D01*
X97302557Y-94472817D01*
X97305023Y-94478106D01*
X97307265Y-94486475D01*
X97312233Y-94493571D01*
X97312234Y-94493572D01*
X97329558Y-94518314D01*
X97334196Y-94525595D01*
X97353622Y-94559241D01*
X97383198Y-94584058D01*
X97389566Y-94589893D01*
X97866498Y-95066825D01*
X97894275Y-95121342D01*
X97894977Y-95131007D01*
X97894538Y-95133824D01*
X97913121Y-95275939D01*
X97915962Y-95282395D01*
X97915962Y-95282396D01*
X97917870Y-95286731D01*
X97970845Y-95407126D01*
X98063068Y-95516838D01*
X98068939Y-95520746D01*
X98068940Y-95520747D01*
X98081235Y-95528931D01*
X98182377Y-95596257D01*
X98189104Y-95598359D01*
X98189107Y-95598360D01*
X98312448Y-95636894D01*
X98312449Y-95636894D01*
X98319180Y-95638997D01*
X98390830Y-95640310D01*
X98455427Y-95641495D01*
X98455429Y-95641495D01*
X98462481Y-95641624D01*
X98469284Y-95639769D01*
X98469286Y-95639769D01*
X98516065Y-95627015D01*
X98600758Y-95603925D01*
X98722897Y-95528931D01*
X98819078Y-95422672D01*
X98881570Y-95293689D01*
X98884557Y-95275939D01*
X98904715Y-95156120D01*
X98904715Y-95156117D01*
X98905349Y-95152350D01*
X98905500Y-95140000D01*
X98885182Y-94998123D01*
X98879135Y-94984822D01*
X98828780Y-94874073D01*
X98828780Y-94874072D01*
X98825860Y-94867651D01*
X98732303Y-94759074D01*
X98612033Y-94681118D01*
X98605275Y-94679097D01*
X98605273Y-94679096D01*
X98481479Y-94642074D01*
X98474718Y-94640052D01*
X98437508Y-94639825D01*
X98400331Y-94639598D01*
X98342257Y-94620336D01*
X98330931Y-94610604D01*
X97961296Y-94240969D01*
X97933519Y-94186452D01*
X97932300Y-94170965D01*
X97932300Y-94124500D01*
X97951207Y-94066309D01*
X98000707Y-94030345D01*
X98031300Y-94025500D01*
X103613105Y-94025500D01*
X103671296Y-94044407D01*
X103707260Y-94093907D01*
X103711004Y-94109779D01*
X103714636Y-94133935D01*
X103717839Y-94140606D01*
X103717840Y-94140608D01*
X103766033Y-94240969D01*
X103773265Y-94256029D01*
X103865202Y-94355486D01*
X103914237Y-94383968D01*
X103975917Y-94419795D01*
X103975920Y-94419796D01*
X103982319Y-94423513D01*
X104019624Y-94432160D01*
X104093246Y-94449225D01*
X104093249Y-94449225D01*
X104098748Y-94450500D01*
X104683258Y-94450500D01*
X104719697Y-94445022D01*
X104776614Y-94436465D01*
X104776616Y-94436464D01*
X104783935Y-94435364D01*
X104790606Y-94432161D01*
X104790608Y-94432160D01*
X104899361Y-94379937D01*
X104906029Y-94376735D01*
X105005486Y-94284798D01*
X105062610Y-94186452D01*
X105069795Y-94174083D01*
X105069796Y-94174080D01*
X105073513Y-94167681D01*
X105089063Y-94100593D01*
X105099225Y-94056754D01*
X105099225Y-94056751D01*
X105100500Y-94051252D01*
X105100500Y-93366742D01*
X105091382Y-93306093D01*
X105086465Y-93273386D01*
X105086464Y-93273384D01*
X105085364Y-93266065D01*
X105077874Y-93250466D01*
X105029937Y-93150639D01*
X105026735Y-93143971D01*
X105017009Y-93133449D01*
X104991395Y-93077883D01*
X105003333Y-93017874D01*
X105005273Y-93014995D01*
X105005486Y-93014798D01*
X105026299Y-92978966D01*
X105069795Y-92904083D01*
X105069796Y-92904080D01*
X105073513Y-92897681D01*
X105100500Y-92781252D01*
X105100500Y-92096742D01*
X105085364Y-91996065D01*
X105072624Y-91969533D01*
X105029937Y-91880639D01*
X105026735Y-91873971D01*
X104934798Y-91774514D01*
X104849309Y-91724858D01*
X104824079Y-91710203D01*
X104824078Y-91710202D01*
X104817681Y-91706487D01*
X104802146Y-91702886D01*
X104749727Y-91671328D01*
X104725869Y-91614986D01*
X104725500Y-91606443D01*
X104725500Y-91249466D01*
X104728873Y-91223844D01*
X104732001Y-91212170D01*
X104732001Y-91212168D01*
X104734242Y-91203805D01*
X104730877Y-91165344D01*
X104730500Y-91156715D01*
X104730500Y-90740312D01*
X104749407Y-90682121D01*
X104790192Y-90652982D01*
X104788935Y-90650364D01*
X104904361Y-90594937D01*
X104911029Y-90591735D01*
X105010486Y-90499798D01*
X105040132Y-90448758D01*
X105074795Y-90389083D01*
X105074796Y-90389080D01*
X105078513Y-90382681D01*
X105089736Y-90334264D01*
X105104225Y-90271754D01*
X105104225Y-90271751D01*
X105105500Y-90266252D01*
X105105500Y-89581742D01*
X105090364Y-89481065D01*
X105077624Y-89454533D01*
X105034937Y-89365639D01*
X105031735Y-89358971D01*
X105022009Y-89348449D01*
X104996395Y-89292883D01*
X105008333Y-89232874D01*
X105010273Y-89229995D01*
X105010486Y-89229798D01*
X105031299Y-89193966D01*
X105074795Y-89119083D01*
X105074796Y-89119080D01*
X105078513Y-89112681D01*
X105088032Y-89071614D01*
X105104225Y-89001754D01*
X105104225Y-89001751D01*
X105105500Y-88996252D01*
X105105500Y-88311742D01*
X105090364Y-88211065D01*
X105077624Y-88184533D01*
X105034937Y-88095639D01*
X105031735Y-88088971D01*
X104939798Y-87989514D01*
X104822681Y-87921487D01*
X104807146Y-87917886D01*
X104754727Y-87886328D01*
X104730869Y-87829986D01*
X104730500Y-87821443D01*
X104730500Y-87351826D01*
X104749407Y-87293635D01*
X104756102Y-87285390D01*
X104844346Y-87187900D01*
X104844346Y-87187899D01*
X104849078Y-87182672D01*
X104911570Y-87053689D01*
X104914557Y-87035939D01*
X104934715Y-86916120D01*
X104934715Y-86916117D01*
X104935349Y-86912350D01*
X104935500Y-86900000D01*
X104915182Y-86758123D01*
X104863169Y-86643725D01*
X104858780Y-86634073D01*
X104858780Y-86634072D01*
X104855860Y-86627651D01*
X104762303Y-86519074D01*
X104642033Y-86441118D01*
X104635275Y-86439097D01*
X104635273Y-86439096D01*
X104511479Y-86402074D01*
X104504718Y-86400052D01*
X104418694Y-86399527D01*
X104368448Y-86399220D01*
X104361396Y-86399177D01*
X104354620Y-86401114D01*
X104354617Y-86401114D01*
X104230369Y-86436624D01*
X104230367Y-86436625D01*
X104223589Y-86438562D01*
X104102375Y-86515042D01*
X104007499Y-86622469D01*
X103946588Y-86752206D01*
X103924538Y-86893824D01*
X103943121Y-87035939D01*
X103945962Y-87042395D01*
X103945962Y-87042396D01*
X103947870Y-87046731D01*
X104000845Y-87167126D01*
X104005382Y-87172523D01*
X104005383Y-87172525D01*
X104056283Y-87233077D01*
X104079253Y-87289787D01*
X104079500Y-87296779D01*
X104079500Y-87819688D01*
X104060593Y-87877879D01*
X104019808Y-87907018D01*
X104021065Y-87909636D01*
X104003885Y-87917886D01*
X103898971Y-87968265D01*
X103799514Y-88060202D01*
X103795797Y-88066602D01*
X103735205Y-88170917D01*
X103735204Y-88170920D01*
X103731487Y-88177319D01*
X103704500Y-88293748D01*
X103704500Y-88978258D01*
X103719636Y-89078935D01*
X103722839Y-89085606D01*
X103722840Y-89085608D01*
X103738915Y-89119083D01*
X103778265Y-89201029D01*
X103783287Y-89206461D01*
X103783287Y-89206462D01*
X103787991Y-89211551D01*
X103813605Y-89267117D01*
X103801667Y-89327126D01*
X103799727Y-89330005D01*
X103799514Y-89330202D01*
X103799013Y-89331065D01*
X103735205Y-89440917D01*
X103735204Y-89440920D01*
X103731487Y-89447319D01*
X103704500Y-89563748D01*
X103704500Y-90248258D01*
X103708264Y-90273291D01*
X103716751Y-90329743D01*
X103719636Y-90348935D01*
X103722839Y-90355606D01*
X103722840Y-90355608D01*
X103775063Y-90464361D01*
X103778265Y-90471029D01*
X103870202Y-90570486D01*
X103928951Y-90604610D01*
X103977673Y-90632910D01*
X103987319Y-90638513D01*
X104000723Y-90641620D01*
X104002854Y-90642114D01*
X104055273Y-90673672D01*
X104079131Y-90730014D01*
X104079500Y-90738557D01*
X104079500Y-90755500D01*
X104060593Y-90813691D01*
X104011093Y-90849655D01*
X103980500Y-90854500D01*
X103035804Y-90854500D01*
X103025849Y-90853189D01*
X103025800Y-90853754D01*
X103017169Y-90852999D01*
X103008805Y-90850758D01*
X102974562Y-90853754D01*
X102970344Y-90854123D01*
X102961715Y-90854500D01*
X101264100Y-90854500D01*
X101205909Y-90835593D01*
X101169945Y-90786093D01*
X101165100Y-90755500D01*
X101165100Y-90519600D01*
X101151008Y-90448756D01*
X101151008Y-90410128D01*
X101161541Y-90357178D01*
X101159973Y-90343934D01*
X101159941Y-90343899D01*
X101151897Y-90341800D01*
X101082071Y-90341800D01*
X101045356Y-90334497D01*
X101038241Y-90329743D01*
X100959600Y-90314100D01*
X100499800Y-90314100D01*
X100441609Y-90295193D01*
X100405645Y-90245693D01*
X100400800Y-90215100D01*
X100400800Y-89847680D01*
X100398383Y-89840243D01*
X100705600Y-89840243D01*
X100705600Y-90021320D01*
X100709722Y-90034005D01*
X100713843Y-90037000D01*
X101148920Y-90037000D01*
X101161605Y-90032878D01*
X101161633Y-90032841D01*
X101162122Y-90024543D01*
X101150897Y-89968112D01*
X101143578Y-89950443D01*
X101109976Y-89900153D01*
X101096447Y-89886624D01*
X101046157Y-89853022D01*
X101028488Y-89845703D01*
X100964363Y-89832948D01*
X100954742Y-89832000D01*
X100721280Y-89832000D01*
X100708595Y-89836122D01*
X100705600Y-89840243D01*
X100398383Y-89840243D01*
X100396678Y-89834995D01*
X100392557Y-89832000D01*
X100151658Y-89832000D01*
X100142037Y-89832948D01*
X100102797Y-89840753D01*
X100042036Y-89833561D01*
X100028482Y-89825971D01*
X99984141Y-89796343D01*
X99974578Y-89794441D01*
X99974576Y-89794440D01*
X99949300Y-89789413D01*
X99905500Y-89780700D01*
X98254500Y-89780700D01*
X98210700Y-89789413D01*
X98185424Y-89794440D01*
X98185422Y-89794441D01*
X98175859Y-89796343D01*
X98131518Y-89825971D01*
X98072630Y-89842579D01*
X98057203Y-89840753D01*
X98017963Y-89832948D01*
X98008342Y-89832000D01*
X97774880Y-89832000D01*
X97762195Y-89836122D01*
X97759200Y-89840243D01*
X97759200Y-90215100D01*
X97740293Y-90273291D01*
X97690793Y-90309255D01*
X97660200Y-90314100D01*
X97200400Y-90314100D01*
X97121759Y-90329743D01*
X97114644Y-90334497D01*
X97077929Y-90341800D01*
X97010612Y-90341800D01*
X96980935Y-90346500D01*
X95787834Y-90346500D01*
X95729643Y-90327593D01*
X95717830Y-90317504D01*
X95544496Y-90144170D01*
X95516719Y-90089653D01*
X95515500Y-90074166D01*
X95515500Y-90021621D01*
X96998459Y-90021621D01*
X97000027Y-90034866D01*
X97000059Y-90034901D01*
X97008103Y-90037000D01*
X97438720Y-90037000D01*
X97451405Y-90032878D01*
X97454400Y-90028757D01*
X97454400Y-89847680D01*
X97450278Y-89834995D01*
X97446157Y-89832000D01*
X97205258Y-89832000D01*
X97195637Y-89832948D01*
X97131512Y-89845703D01*
X97113843Y-89853022D01*
X97063553Y-89886624D01*
X97050024Y-89900153D01*
X97016422Y-89950443D01*
X97009103Y-89968112D01*
X96998459Y-90021621D01*
X95515500Y-90021621D01*
X95515500Y-89020000D01*
X95499857Y-88941359D01*
X95455310Y-88874690D01*
X95388641Y-88830143D01*
X95379078Y-88828241D01*
X95379076Y-88828240D01*
X95353800Y-88823213D01*
X95310000Y-88814500D01*
X94110000Y-88814500D01*
X94066200Y-88823213D01*
X94040924Y-88828240D01*
X94040922Y-88828241D01*
X94031359Y-88830143D01*
X93964690Y-88874690D01*
X93920143Y-88941359D01*
X93904500Y-89020000D01*
X93904500Y-90520000D01*
X93913213Y-90563800D01*
X93917946Y-90587594D01*
X93920143Y-90598641D01*
X93964690Y-90665310D01*
X94031359Y-90709857D01*
X94040922Y-90711759D01*
X94040924Y-90711760D01*
X94066200Y-90716787D01*
X94110000Y-90725500D01*
X95164166Y-90725500D01*
X95222357Y-90744407D01*
X95234170Y-90754496D01*
X95368901Y-90889227D01*
X95374736Y-90895595D01*
X95393991Y-90918543D01*
X95393993Y-90918545D01*
X95399559Y-90925178D01*
X95433214Y-90944609D01*
X95440495Y-90949248D01*
X95472325Y-90971535D01*
X95480693Y-90973777D01*
X95485982Y-90976244D01*
X95491464Y-90978239D01*
X95498962Y-90982568D01*
X95507487Y-90984071D01*
X95507489Y-90984072D01*
X95530373Y-90988107D01*
X95537218Y-90989314D01*
X95545648Y-90991183D01*
X95574828Y-90999002D01*
X95574833Y-90999002D01*
X95583195Y-91001243D01*
X95621665Y-90997877D01*
X95630293Y-90997500D01*
X96895900Y-90997500D01*
X96954091Y-91016407D01*
X96990055Y-91065907D01*
X96994900Y-91096500D01*
X96994900Y-91319189D01*
X96975993Y-91377380D01*
X96926493Y-91413344D01*
X96895900Y-91418189D01*
X95454596Y-91418189D01*
X95445968Y-91417812D01*
X95444837Y-91417713D01*
X95407506Y-91414447D01*
X95399142Y-91416688D01*
X95399143Y-91416688D01*
X95369969Y-91424505D01*
X95361537Y-91426374D01*
X95331802Y-91431617D01*
X95331801Y-91431617D01*
X95323273Y-91433121D01*
X95315772Y-91437452D01*
X95310289Y-91439448D01*
X95305005Y-91441912D01*
X95296636Y-91444154D01*
X95264808Y-91466440D01*
X95257527Y-91471079D01*
X95223870Y-91490511D01*
X95222126Y-91492590D01*
X95168491Y-91514259D01*
X95161587Y-91514500D01*
X94110000Y-91514500D01*
X94066200Y-91523213D01*
X94040924Y-91528240D01*
X94040922Y-91528241D01*
X94031359Y-91530143D01*
X93964690Y-91574690D01*
X93959271Y-91582800D01*
X93944646Y-91604688D01*
X93920143Y-91641359D01*
X93904500Y-91720000D01*
X93904500Y-93220000D01*
X93920143Y-93298641D01*
X93964690Y-93365310D01*
X93972800Y-93370729D01*
X93978444Y-93374500D01*
X94031359Y-93409857D01*
X94040922Y-93411759D01*
X94040924Y-93411760D01*
X94066200Y-93416787D01*
X94110000Y-93425500D01*
X95310000Y-93425500D01*
X95353800Y-93416787D01*
X95379076Y-93411760D01*
X95379078Y-93411759D01*
X95388641Y-93409857D01*
X95441556Y-93374500D01*
X95447200Y-93370729D01*
X95455310Y-93365310D01*
X95499857Y-93298641D01*
X95515500Y-93220000D01*
X95515500Y-92168189D01*
X95534407Y-92109998D01*
X95583907Y-92074034D01*
X95614500Y-92069189D01*
X96895900Y-92069189D01*
X96954091Y-92088096D01*
X96990055Y-92137596D01*
X96994900Y-92168189D01*
X96994900Y-92323000D01*
X97003613Y-92366800D01*
X97007797Y-92387834D01*
X97010543Y-92401641D01*
X97055090Y-92468310D01*
X97121759Y-92512857D01*
X97131322Y-92514759D01*
X97131324Y-92514760D01*
X97200400Y-92528500D01*
X97199968Y-92530670D01*
X97248087Y-92551738D01*
X97279007Y-92604535D01*
X97281300Y-92625718D01*
X97281300Y-93125500D01*
X97262393Y-93183691D01*
X97212893Y-93219655D01*
X97182300Y-93224500D01*
X96448284Y-93224500D01*
X96439656Y-93224123D01*
X96438525Y-93224024D01*
X96401194Y-93220758D01*
X96363658Y-93230816D01*
X96355233Y-93232683D01*
X96341800Y-93235052D01*
X96325490Y-93237928D01*
X96325489Y-93237928D01*
X96316962Y-93239432D01*
X96309463Y-93243761D01*
X96303994Y-93245752D01*
X96298694Y-93248224D01*
X96290325Y-93250466D01*
X96283230Y-93255434D01*
X96283228Y-93255435D01*
X96258497Y-93272752D01*
X96251215Y-93277391D01*
X96217559Y-93296822D01*
X96209780Y-93306093D01*
X96192742Y-93326398D01*
X96186907Y-93332766D01*
X95804169Y-93715504D01*
X95749652Y-93743281D01*
X95734165Y-93744500D01*
X95411742Y-93744500D01*
X95375303Y-93749978D01*
X95318386Y-93758535D01*
X95318384Y-93758536D01*
X95311065Y-93759636D01*
X95304394Y-93762839D01*
X95304392Y-93762840D01*
X95195639Y-93815063D01*
X95188971Y-93818265D01*
X95183539Y-93823287D01*
X95183538Y-93823287D01*
X95178449Y-93827991D01*
X95122883Y-93853605D01*
X95062874Y-93841667D01*
X95059995Y-93839727D01*
X95059798Y-93839514D01*
X95017703Y-93815063D01*
X94949083Y-93775205D01*
X94949080Y-93775204D01*
X94942681Y-93771487D01*
X94886803Y-93758535D01*
X94831754Y-93745775D01*
X94831751Y-93745775D01*
X94826252Y-93744500D01*
X94141742Y-93744500D01*
X94105303Y-93749978D01*
X94048386Y-93758535D01*
X94048384Y-93758536D01*
X94041065Y-93759636D01*
X94034394Y-93762839D01*
X94034392Y-93762840D01*
X93925639Y-93815063D01*
X93918971Y-93818265D01*
X93819514Y-93910202D01*
X93751487Y-94027319D01*
X93749816Y-94034529D01*
X93747886Y-94042854D01*
X93716328Y-94095273D01*
X93659986Y-94119131D01*
X93651443Y-94119500D01*
X91266981Y-94119500D01*
X91208790Y-94100593D01*
X91191983Y-94085124D01*
X91156909Y-94044419D01*
X91156907Y-94044418D01*
X91152303Y-94039074D01*
X91032033Y-93961118D01*
X91025275Y-93959097D01*
X91025273Y-93959096D01*
X90901479Y-93922074D01*
X90894718Y-93920052D01*
X90808694Y-93919527D01*
X90758448Y-93919220D01*
X90751396Y-93919177D01*
X90744620Y-93921114D01*
X90744617Y-93921114D01*
X90620369Y-93956624D01*
X90620367Y-93956625D01*
X90613589Y-93958562D01*
X90492375Y-94035042D01*
X90397499Y-94142469D01*
X90336588Y-94272206D01*
X90314538Y-94413824D01*
X87325000Y-94413824D01*
X87325000Y-90753081D01*
X87324931Y-90752776D01*
X87324887Y-90751987D01*
X87324897Y-90740732D01*
X87324896Y-90740729D01*
X87324906Y-90729583D01*
X87319679Y-90718697D01*
X87312406Y-90697869D01*
X87312201Y-90696970D01*
X87312201Y-90696969D01*
X87309721Y-90686100D01*
X87302369Y-90676874D01*
X87290544Y-90658024D01*
X87290260Y-90657433D01*
X87285435Y-90647384D01*
X87276731Y-90640423D01*
X87276729Y-90640421D01*
X87276009Y-90639846D01*
X87260420Y-90624231D01*
X87252895Y-90614788D01*
X87242855Y-90609945D01*
X87242852Y-90609943D01*
X87242262Y-90609659D01*
X87223443Y-90597809D01*
X87214222Y-90590435D01*
X87203356Y-90587936D01*
X87203353Y-90587935D01*
X87202457Y-90587729D01*
X87181641Y-90580419D01*
X87180808Y-90580017D01*
X87180805Y-90580016D01*
X87170766Y-90575174D01*
X87148369Y-90575155D01*
X87147575Y-90575109D01*
X87147101Y-90575000D01*
X84874000Y-90575000D01*
X84815809Y-90556093D01*
X84779845Y-90506593D01*
X84775000Y-90476000D01*
X84775000Y-86103243D01*
X96645000Y-86103243D01*
X96645000Y-86224558D01*
X96645550Y-86231914D01*
X96659014Y-86321471D01*
X96663317Y-86335459D01*
X96715476Y-86444079D01*
X96723698Y-86456179D01*
X96805492Y-86544662D01*
X96816915Y-86553814D01*
X96921101Y-86614330D01*
X96934717Y-86619720D01*
X97038280Y-86643725D01*
X97049429Y-86645000D01*
X97129320Y-86645000D01*
X97142005Y-86640878D01*
X97145000Y-86636757D01*
X97145000Y-86110680D01*
X97142583Y-86103243D01*
X97545000Y-86103243D01*
X97545000Y-86629320D01*
X97549122Y-86642005D01*
X97553243Y-86645000D01*
X97624558Y-86645000D01*
X97631914Y-86644450D01*
X97721471Y-86630986D01*
X97735459Y-86626683D01*
X97844079Y-86574524D01*
X97856179Y-86566302D01*
X97944662Y-86484508D01*
X97953814Y-86473085D01*
X98014330Y-86368899D01*
X98019720Y-86355283D01*
X98043725Y-86251720D01*
X98045000Y-86240571D01*
X98045000Y-86110680D01*
X98042583Y-86103243D01*
X98555000Y-86103243D01*
X98555000Y-86224558D01*
X98555550Y-86231914D01*
X98569014Y-86321471D01*
X98573317Y-86335459D01*
X98625476Y-86444079D01*
X98633698Y-86456179D01*
X98715492Y-86544662D01*
X98726915Y-86553814D01*
X98831101Y-86614330D01*
X98844717Y-86619720D01*
X98948280Y-86643725D01*
X98959429Y-86645000D01*
X99039320Y-86645000D01*
X99052005Y-86640878D01*
X99055000Y-86636757D01*
X99055000Y-86110680D01*
X99052583Y-86103243D01*
X99455000Y-86103243D01*
X99455000Y-86629320D01*
X99459122Y-86642005D01*
X99463243Y-86645000D01*
X99534558Y-86645000D01*
X99541914Y-86644450D01*
X99631471Y-86630986D01*
X99645459Y-86626683D01*
X99754079Y-86574524D01*
X99766179Y-86566302D01*
X99854662Y-86484508D01*
X99863814Y-86473085D01*
X99924330Y-86368899D01*
X99929720Y-86355283D01*
X99953725Y-86251720D01*
X99955000Y-86240571D01*
X99955000Y-86110680D01*
X99950878Y-86097995D01*
X99946757Y-86095000D01*
X99470680Y-86095000D01*
X99457995Y-86099122D01*
X99455000Y-86103243D01*
X99052583Y-86103243D01*
X99050878Y-86097995D01*
X99046757Y-86095000D01*
X98570680Y-86095000D01*
X98557995Y-86099122D01*
X98555000Y-86103243D01*
X98042583Y-86103243D01*
X98040878Y-86097995D01*
X98036757Y-86095000D01*
X97560680Y-86095000D01*
X97547995Y-86099122D01*
X97545000Y-86103243D01*
X97142583Y-86103243D01*
X97140878Y-86097995D01*
X97136757Y-86095000D01*
X96660680Y-86095000D01*
X96647995Y-86099122D01*
X96645000Y-86103243D01*
X84775000Y-86103243D01*
X84775000Y-86074000D01*
X84793907Y-86015809D01*
X84843407Y-85979845D01*
X84874000Y-85975000D01*
X85646919Y-85975000D01*
X85647224Y-85974931D01*
X85648013Y-85974887D01*
X85659268Y-85974897D01*
X85659271Y-85974896D01*
X85670417Y-85974906D01*
X85681303Y-85969679D01*
X85702131Y-85962406D01*
X85703030Y-85962201D01*
X85703031Y-85962201D01*
X85713900Y-85959721D01*
X85723126Y-85952369D01*
X85741976Y-85940544D01*
X85752616Y-85935435D01*
X85759577Y-85926731D01*
X85759579Y-85926729D01*
X85760154Y-85926009D01*
X85775769Y-85910420D01*
X85785212Y-85902895D01*
X85790055Y-85892855D01*
X85790057Y-85892852D01*
X85790341Y-85892262D01*
X85802191Y-85873443D01*
X85809565Y-85864222D01*
X85812064Y-85853356D01*
X85812065Y-85853353D01*
X85812271Y-85852457D01*
X85819581Y-85831641D01*
X85819983Y-85830808D01*
X85819984Y-85830805D01*
X85824826Y-85820766D01*
X85824845Y-85798369D01*
X85824891Y-85797575D01*
X85825000Y-85797101D01*
X85825000Y-84273748D01*
X96644500Y-84273748D01*
X96644500Y-84958258D01*
X96659636Y-85058935D01*
X96662839Y-85065606D01*
X96662840Y-85065608D01*
X96707379Y-85158360D01*
X96718265Y-85181029D01*
X96723285Y-85186460D01*
X96723286Y-85186461D01*
X96728331Y-85191918D01*
X96753949Y-85247483D01*
X96742013Y-85307493D01*
X96739451Y-85311294D01*
X96675670Y-85421101D01*
X96670280Y-85434717D01*
X96646275Y-85538280D01*
X96645000Y-85549429D01*
X96645000Y-85679320D01*
X96649122Y-85692005D01*
X96653243Y-85695000D01*
X98029320Y-85695000D01*
X98042005Y-85690878D01*
X98045000Y-85686757D01*
X98045000Y-85565443D01*
X98044450Y-85558086D01*
X98030986Y-85468529D01*
X98026683Y-85454541D01*
X97974526Y-85345924D01*
X97966299Y-85333818D01*
X97961699Y-85328842D01*
X97936082Y-85273277D01*
X97948018Y-85213267D01*
X97950141Y-85210117D01*
X97950486Y-85209798D01*
X97955309Y-85201495D01*
X98014795Y-85099083D01*
X98014796Y-85099080D01*
X98018513Y-85092681D01*
X98033704Y-85027145D01*
X98065261Y-84974727D01*
X98121603Y-84950869D01*
X98130146Y-84950500D01*
X98468105Y-84950500D01*
X98526296Y-84969407D01*
X98562260Y-85018907D01*
X98566004Y-85034779D01*
X98569636Y-85058935D01*
X98572839Y-85065606D01*
X98572840Y-85065608D01*
X98617379Y-85158360D01*
X98628265Y-85181029D01*
X98633285Y-85186460D01*
X98633286Y-85186461D01*
X98638331Y-85191918D01*
X98663949Y-85247483D01*
X98652013Y-85307493D01*
X98649451Y-85311294D01*
X98585670Y-85421101D01*
X98580280Y-85434717D01*
X98556275Y-85538280D01*
X98555000Y-85549429D01*
X98555000Y-85679320D01*
X98559122Y-85692005D01*
X98563243Y-85695000D01*
X99939320Y-85695000D01*
X99952005Y-85690878D01*
X99955000Y-85686757D01*
X99955000Y-85565443D01*
X99954450Y-85558086D01*
X99940986Y-85468529D01*
X99936683Y-85454541D01*
X99884526Y-85345924D01*
X99876299Y-85333818D01*
X99871699Y-85328842D01*
X99846082Y-85273277D01*
X99858018Y-85213267D01*
X99860141Y-85210117D01*
X99860486Y-85209798D01*
X99865309Y-85201495D01*
X99924795Y-85099083D01*
X99924796Y-85099080D01*
X99928513Y-85092681D01*
X99943704Y-85027145D01*
X99975261Y-84974727D01*
X100031603Y-84950869D01*
X100040146Y-84950500D01*
X100310758Y-84950500D01*
X100368949Y-84969407D01*
X100386539Y-84985796D01*
X100463068Y-85076838D01*
X100468939Y-85080746D01*
X100468940Y-85080747D01*
X100496486Y-85099083D01*
X100582377Y-85156257D01*
X100589104Y-85158359D01*
X100589107Y-85158360D01*
X100712448Y-85196894D01*
X100712449Y-85196894D01*
X100719180Y-85198997D01*
X100790831Y-85200311D01*
X100855427Y-85201495D01*
X100855429Y-85201495D01*
X100862481Y-85201624D01*
X100869284Y-85199769D01*
X100869286Y-85199769D01*
X100918098Y-85186461D01*
X101000758Y-85163925D01*
X101122897Y-85088931D01*
X101219078Y-84982672D01*
X101281570Y-84853689D01*
X101305349Y-84712350D01*
X101305500Y-84700000D01*
X101285182Y-84558123D01*
X101225860Y-84427651D01*
X101132303Y-84319074D01*
X101012033Y-84241118D01*
X101005275Y-84239097D01*
X101005273Y-84239096D01*
X100881479Y-84202074D01*
X100874718Y-84200052D01*
X100788694Y-84199527D01*
X100738448Y-84199220D01*
X100731396Y-84199177D01*
X100724620Y-84201114D01*
X100724617Y-84201114D01*
X100600369Y-84236624D01*
X100600367Y-84236625D01*
X100593589Y-84238562D01*
X100587625Y-84242325D01*
X100521214Y-84284227D01*
X100468386Y-84299500D01*
X100041895Y-84299500D01*
X99983704Y-84280593D01*
X99947740Y-84231093D01*
X99943995Y-84215218D01*
X99942019Y-84202074D01*
X99940364Y-84191065D01*
X99927624Y-84164533D01*
X99884937Y-84075639D01*
X99881735Y-84068971D01*
X99789798Y-83969514D01*
X99739700Y-83940415D01*
X99679083Y-83905205D01*
X99679080Y-83905204D01*
X99672681Y-83901487D01*
X99616803Y-83888535D01*
X99561754Y-83875775D01*
X99561751Y-83875775D01*
X99556252Y-83874500D01*
X98971742Y-83874500D01*
X98935303Y-83879978D01*
X98878386Y-83888535D01*
X98878384Y-83888536D01*
X98871065Y-83889636D01*
X98864394Y-83892839D01*
X98864392Y-83892840D01*
X98755639Y-83945063D01*
X98748971Y-83948265D01*
X98649514Y-84040202D01*
X98645797Y-84046602D01*
X98585205Y-84150917D01*
X98585204Y-84150920D01*
X98581487Y-84157319D01*
X98571114Y-84202074D01*
X98566297Y-84222854D01*
X98534739Y-84275273D01*
X98478397Y-84299131D01*
X98469854Y-84299500D01*
X98131895Y-84299500D01*
X98073704Y-84280593D01*
X98037740Y-84231093D01*
X98033995Y-84215218D01*
X98032019Y-84202074D01*
X98030364Y-84191065D01*
X98017624Y-84164533D01*
X97974937Y-84075639D01*
X97971735Y-84068971D01*
X97879798Y-83969514D01*
X97829700Y-83940415D01*
X97769083Y-83905205D01*
X97769080Y-83905204D01*
X97762681Y-83901487D01*
X97706803Y-83888535D01*
X97651754Y-83875775D01*
X97651751Y-83875775D01*
X97646252Y-83874500D01*
X97061742Y-83874500D01*
X97025303Y-83879978D01*
X96968386Y-83888535D01*
X96968384Y-83888536D01*
X96961065Y-83889636D01*
X96954394Y-83892839D01*
X96954392Y-83892840D01*
X96845639Y-83945063D01*
X96838971Y-83948265D01*
X96739514Y-84040202D01*
X96735797Y-84046602D01*
X96675205Y-84150917D01*
X96675204Y-84150920D01*
X96671487Y-84157319D01*
X96669815Y-84164533D01*
X96651174Y-84244956D01*
X96644500Y-84273748D01*
X85825000Y-84273748D01*
X85825000Y-80319059D01*
X90820346Y-80319059D01*
X90820561Y-80321947D01*
X90824868Y-80379905D01*
X90835062Y-80517081D01*
X90844640Y-80645979D01*
X90845189Y-80648819D01*
X90845190Y-80648823D01*
X90881434Y-80836153D01*
X90906911Y-80967832D01*
X91006307Y-81280222D01*
X91141471Y-81578882D01*
X91211488Y-81695180D01*
X91309065Y-81857255D01*
X91309071Y-81857264D01*
X91310557Y-81859732D01*
X91312323Y-81862013D01*
X91312330Y-81862023D01*
X91509476Y-82116641D01*
X91511255Y-82118938D01*
X91513284Y-82121007D01*
X91513289Y-82121012D01*
X91596442Y-82205776D01*
X91740824Y-82352957D01*
X91996128Y-82558594D01*
X92273681Y-82733040D01*
X92427863Y-82806416D01*
X92567078Y-82872670D01*
X92567086Y-82872673D01*
X92569691Y-82873913D01*
X92880115Y-82979288D01*
X93200713Y-83047725D01*
X93527107Y-83078291D01*
X93529997Y-83078223D01*
X93530000Y-83078223D01*
X93851955Y-83070636D01*
X93851956Y-83070636D01*
X93854838Y-83070568D01*
X93944764Y-83057850D01*
X94176567Y-83025066D01*
X94176571Y-83025065D01*
X94179429Y-83024661D01*
X94283225Y-82997334D01*
X94493661Y-82941931D01*
X94493669Y-82941928D01*
X94496447Y-82941197D01*
X94801563Y-82821316D01*
X95090608Y-82666656D01*
X95092972Y-82665010D01*
X95092980Y-82665005D01*
X95357258Y-82480985D01*
X95357260Y-82480983D01*
X95359636Y-82479329D01*
X95604970Y-82261893D01*
X95655057Y-82205776D01*
X95821334Y-82019478D01*
X95821335Y-82019477D01*
X95823260Y-82017320D01*
X95824913Y-82014963D01*
X95824919Y-82014956D01*
X96009868Y-81751310D01*
X96011525Y-81748948D01*
X96167193Y-81460444D01*
X96243377Y-81268516D01*
X96287070Y-81158440D01*
X96287071Y-81158438D01*
X96288138Y-81155749D01*
X96288885Y-81152952D01*
X96371962Y-80841823D01*
X96371963Y-80841817D01*
X96372709Y-80839024D01*
X96419749Y-80514594D01*
X96430000Y-80275000D01*
X96410844Y-79947739D01*
X96353636Y-79624947D01*
X96308854Y-79476152D01*
X96259995Y-79313811D01*
X96259992Y-79313803D01*
X96259159Y-79311035D01*
X96128703Y-79010288D01*
X95964050Y-78726817D01*
X95767448Y-78464491D01*
X95541583Y-78226895D01*
X95323578Y-78045582D01*
X95291773Y-78019130D01*
X95291771Y-78019129D01*
X95289540Y-78017273D01*
X95066435Y-77872110D01*
X95017183Y-77840064D01*
X95017180Y-77840062D01*
X95014762Y-77838489D01*
X94756401Y-77710518D01*
X94723588Y-77694265D01*
X94723583Y-77694263D01*
X94721001Y-77692984D01*
X94447832Y-77595444D01*
X94414984Y-77583715D01*
X94414983Y-77583715D01*
X94412270Y-77582746D01*
X94092786Y-77509281D01*
X94089919Y-77508967D01*
X94089913Y-77508966D01*
X93895956Y-77487725D01*
X93766913Y-77473592D01*
X93592824Y-77474959D01*
X93441993Y-77476144D01*
X93441988Y-77476144D01*
X93439102Y-77476167D01*
X93436233Y-77476527D01*
X93436231Y-77476527D01*
X93177635Y-77508966D01*
X93113829Y-77516970D01*
X92795539Y-77595444D01*
X92488578Y-77710518D01*
X92197139Y-77860619D01*
X92194746Y-77862230D01*
X92194736Y-77862236D01*
X91927606Y-78042079D01*
X91925203Y-78043697D01*
X91676483Y-78257252D01*
X91454378Y-78498367D01*
X91261921Y-78763748D01*
X91260503Y-78766280D01*
X91123852Y-79010288D01*
X91101740Y-79049771D01*
X90976024Y-79352529D01*
X90886490Y-79667887D01*
X90886029Y-79670751D01*
X90841415Y-79947739D01*
X90834360Y-79991537D01*
X90820346Y-80319059D01*
X85825000Y-80319059D01*
X85825000Y-73244429D01*
X92830000Y-73244429D01*
X92830000Y-73374320D01*
X92834122Y-73387005D01*
X92838243Y-73390000D01*
X93314320Y-73390000D01*
X93327005Y-73385878D01*
X93330000Y-73381757D01*
X93330000Y-72855680D01*
X93327583Y-72848243D01*
X93730000Y-72848243D01*
X93730000Y-73374320D01*
X93734122Y-73387005D01*
X93738243Y-73390000D01*
X94214320Y-73390000D01*
X94227005Y-73385878D01*
X94230000Y-73381757D01*
X94230000Y-73289429D01*
X94695000Y-73289429D01*
X94695000Y-73419320D01*
X94699122Y-73432005D01*
X94703243Y-73435000D01*
X95179320Y-73435000D01*
X95192005Y-73430878D01*
X95195000Y-73426757D01*
X95195000Y-72900680D01*
X95192583Y-72893243D01*
X95595000Y-72893243D01*
X95595000Y-73419320D01*
X95599122Y-73432005D01*
X95603243Y-73435000D01*
X96079320Y-73435000D01*
X96092005Y-73430878D01*
X96095000Y-73426757D01*
X96095000Y-73305443D01*
X96094450Y-73298086D01*
X96093900Y-73294429D01*
X96660000Y-73294429D01*
X96660000Y-73424320D01*
X96664122Y-73437005D01*
X96668243Y-73440000D01*
X97144320Y-73440000D01*
X97157005Y-73435878D01*
X97160000Y-73431757D01*
X97160000Y-72905680D01*
X97157583Y-72898243D01*
X97560000Y-72898243D01*
X97560000Y-73424320D01*
X97564122Y-73437005D01*
X97568243Y-73440000D01*
X98044320Y-73440000D01*
X98057005Y-73435878D01*
X98060000Y-73431757D01*
X98060000Y-73310443D01*
X98059450Y-73303086D01*
X98045986Y-73213529D01*
X98041683Y-73199541D01*
X97989524Y-73090921D01*
X97981302Y-73078821D01*
X97899508Y-72990338D01*
X97888085Y-72981186D01*
X97783899Y-72920670D01*
X97770283Y-72915280D01*
X97666720Y-72891275D01*
X97655571Y-72890000D01*
X97575680Y-72890000D01*
X97562995Y-72894122D01*
X97560000Y-72898243D01*
X97157583Y-72898243D01*
X97155878Y-72892995D01*
X97151757Y-72890000D01*
X97080443Y-72890000D01*
X97073086Y-72890550D01*
X96983529Y-72904014D01*
X96969541Y-72908317D01*
X96860921Y-72960476D01*
X96848821Y-72968698D01*
X96760338Y-73050492D01*
X96751186Y-73061915D01*
X96690670Y-73166101D01*
X96685280Y-73179717D01*
X96661275Y-73283280D01*
X96660000Y-73294429D01*
X96093900Y-73294429D01*
X96080986Y-73208529D01*
X96076683Y-73194541D01*
X96024524Y-73085921D01*
X96016302Y-73073821D01*
X95934508Y-72985338D01*
X95923085Y-72976186D01*
X95818899Y-72915670D01*
X95805283Y-72910280D01*
X95701720Y-72886275D01*
X95690571Y-72885000D01*
X95610680Y-72885000D01*
X95597995Y-72889122D01*
X95595000Y-72893243D01*
X95192583Y-72893243D01*
X95190878Y-72887995D01*
X95186757Y-72885000D01*
X95115443Y-72885000D01*
X95108086Y-72885550D01*
X95018529Y-72899014D01*
X95004541Y-72903317D01*
X94895921Y-72955476D01*
X94883821Y-72963698D01*
X94795338Y-73045492D01*
X94786186Y-73056915D01*
X94725670Y-73161101D01*
X94720280Y-73174717D01*
X94696275Y-73278280D01*
X94695000Y-73289429D01*
X94230000Y-73289429D01*
X94230000Y-73260443D01*
X94229450Y-73253086D01*
X94215986Y-73163529D01*
X94211683Y-73149541D01*
X94159524Y-73040921D01*
X94151302Y-73028821D01*
X94069508Y-72940338D01*
X94058085Y-72931186D01*
X93953899Y-72870670D01*
X93940283Y-72865280D01*
X93836720Y-72841275D01*
X93825571Y-72840000D01*
X93745680Y-72840000D01*
X93732995Y-72844122D01*
X93730000Y-72848243D01*
X93327583Y-72848243D01*
X93325878Y-72842995D01*
X93321757Y-72840000D01*
X93250443Y-72840000D01*
X93243086Y-72840550D01*
X93153529Y-72854014D01*
X93139541Y-72858317D01*
X93030921Y-72910476D01*
X93018821Y-72918698D01*
X92930338Y-73000492D01*
X92921186Y-73011915D01*
X92860670Y-73116101D01*
X92855280Y-73129717D01*
X92831275Y-73233280D01*
X92830000Y-73244429D01*
X85825000Y-73244429D01*
X85825000Y-60753081D01*
X85824931Y-60752776D01*
X85824887Y-60751987D01*
X85824897Y-60740732D01*
X85824896Y-60740729D01*
X85824906Y-60729583D01*
X85819679Y-60718697D01*
X85812406Y-60697869D01*
X85812201Y-60696970D01*
X85812201Y-60696969D01*
X85809721Y-60686100D01*
X85802369Y-60676874D01*
X85790544Y-60658024D01*
X85790260Y-60657433D01*
X85785435Y-60647384D01*
X85776731Y-60640423D01*
X85776729Y-60640421D01*
X85776009Y-60639846D01*
X85760420Y-60624231D01*
X85752895Y-60614788D01*
X85742855Y-60609945D01*
X85742852Y-60609943D01*
X85742262Y-60609659D01*
X85723443Y-60597809D01*
X85714222Y-60590435D01*
X85703356Y-60587936D01*
X85703353Y-60587935D01*
X85702457Y-60587729D01*
X85681641Y-60580419D01*
X85680808Y-60580017D01*
X85680805Y-60580016D01*
X85670766Y-60575174D01*
X85648369Y-60575155D01*
X85647575Y-60575109D01*
X85647101Y-60575000D01*
X84874000Y-60575000D01*
X84815809Y-60556093D01*
X84779845Y-60506593D01*
X84775000Y-60476000D01*
X84775000Y-56074000D01*
X84793907Y-56015809D01*
X84843407Y-55979845D01*
X84874000Y-55975000D01*
X87146919Y-55975000D01*
X87147224Y-55974931D01*
X87148013Y-55974887D01*
X87159268Y-55974897D01*
X87159271Y-55974896D01*
X87170417Y-55974906D01*
X87181303Y-55969679D01*
X87202131Y-55962406D01*
X87203030Y-55962201D01*
X87203031Y-55962201D01*
X87213900Y-55959721D01*
X87223126Y-55952369D01*
X87241976Y-55940544D01*
X87252616Y-55935435D01*
X87259577Y-55926731D01*
X87259579Y-55926729D01*
X87260154Y-55926009D01*
X87275769Y-55910420D01*
X87285212Y-55902895D01*
X87290055Y-55892855D01*
X87290057Y-55892852D01*
X87290341Y-55892262D01*
X87302191Y-55873443D01*
X87309565Y-55864222D01*
X87312064Y-55853356D01*
X87312065Y-55853353D01*
X87312271Y-55852457D01*
X87319581Y-55831641D01*
X87319983Y-55830808D01*
X87319984Y-55830805D01*
X87324826Y-55820766D01*
X87324845Y-55798369D01*
X87324891Y-55797575D01*
X87325000Y-55797101D01*
X87325000Y-54117641D01*
X87343907Y-54059450D01*
X87393407Y-54023486D01*
X87423135Y-54018645D01*
X99844635Y-53910113D01*
X99902989Y-53928511D01*
X99939384Y-53977695D01*
X99944500Y-54009109D01*
X99944500Y-54243105D01*
X99925593Y-54301296D01*
X99876093Y-54337260D01*
X99860221Y-54341004D01*
X99836065Y-54344636D01*
X99829394Y-54347839D01*
X99829392Y-54347840D01*
X99720639Y-54400063D01*
X99713971Y-54403265D01*
X99708539Y-54408287D01*
X99708538Y-54408287D01*
X99703449Y-54412991D01*
X99647883Y-54438605D01*
X99587874Y-54426667D01*
X99584995Y-54424727D01*
X99584798Y-54424514D01*
X99542703Y-54400063D01*
X99474083Y-54360205D01*
X99474080Y-54360204D01*
X99467681Y-54356487D01*
X99411803Y-54343535D01*
X99356754Y-54330775D01*
X99356751Y-54330775D01*
X99351252Y-54329500D01*
X98666742Y-54329500D01*
X98630303Y-54334978D01*
X98573386Y-54343535D01*
X98573384Y-54343536D01*
X98566065Y-54344636D01*
X98559394Y-54347839D01*
X98559392Y-54347840D01*
X98450639Y-54400063D01*
X98443971Y-54403265D01*
X98344514Y-54495202D01*
X98340797Y-54501602D01*
X98280205Y-54605917D01*
X98280204Y-54605920D01*
X98276487Y-54612319D01*
X98249500Y-54728748D01*
X98249500Y-55313258D01*
X98264636Y-55413935D01*
X98267839Y-55420606D01*
X98267840Y-55420608D01*
X98283915Y-55454083D01*
X98323265Y-55536029D01*
X98415202Y-55635486D01*
X98465300Y-55664585D01*
X98525917Y-55699795D01*
X98525920Y-55699796D01*
X98532319Y-55703513D01*
X98607855Y-55721021D01*
X98660273Y-55752579D01*
X98684131Y-55808922D01*
X98684500Y-55817464D01*
X98684500Y-57335500D01*
X98665593Y-57393691D01*
X98616093Y-57429655D01*
X98585500Y-57434500D01*
X98365439Y-57434500D01*
X98307248Y-57415593D01*
X98290446Y-57400129D01*
X98272303Y-57379074D01*
X98152033Y-57301118D01*
X98145275Y-57299097D01*
X98145273Y-57299096D01*
X98021479Y-57262074D01*
X98014718Y-57260052D01*
X97928694Y-57259527D01*
X97878448Y-57259220D01*
X97871396Y-57259177D01*
X97864620Y-57261114D01*
X97864617Y-57261114D01*
X97740369Y-57296624D01*
X97740367Y-57296625D01*
X97733589Y-57298562D01*
X97612375Y-57375042D01*
X97517499Y-57482469D01*
X97456588Y-57612206D01*
X97434538Y-57753824D01*
X97435453Y-57760822D01*
X97437658Y-57777681D01*
X97453121Y-57895939D01*
X97455962Y-57902395D01*
X97455962Y-57902396D01*
X97495445Y-57992126D01*
X97510845Y-58027126D01*
X97603068Y-58136838D01*
X97608939Y-58140746D01*
X97608940Y-58140747D01*
X97628710Y-58153907D01*
X97722377Y-58216257D01*
X97729104Y-58218359D01*
X97729107Y-58218360D01*
X97852448Y-58256894D01*
X97852449Y-58256894D01*
X97859180Y-58258997D01*
X97930830Y-58260310D01*
X97995427Y-58261495D01*
X97995429Y-58261495D01*
X98002481Y-58261624D01*
X98009284Y-58259769D01*
X98009286Y-58259769D01*
X98057067Y-58246742D01*
X98140758Y-58223925D01*
X98262897Y-58148931D01*
X98290837Y-58118063D01*
X98343904Y-58087610D01*
X98364234Y-58085500D01*
X98585500Y-58085500D01*
X98643691Y-58104407D01*
X98679655Y-58153907D01*
X98684500Y-58184500D01*
X98684500Y-60053105D01*
X98665593Y-60111296D01*
X98616093Y-60147260D01*
X98600221Y-60151004D01*
X98576065Y-60154636D01*
X98569394Y-60157839D01*
X98569392Y-60157840D01*
X98473421Y-60203925D01*
X98453971Y-60213265D01*
X98354514Y-60305202D01*
X98350797Y-60311602D01*
X98290205Y-60415917D01*
X98290204Y-60415920D01*
X98286487Y-60422319D01*
X98284815Y-60429533D01*
X98263841Y-60520021D01*
X98259500Y-60538748D01*
X98259500Y-61123258D01*
X98274636Y-61223935D01*
X98277839Y-61230606D01*
X98277840Y-61230608D01*
X98306364Y-61290009D01*
X98333265Y-61346029D01*
X98425202Y-61445486D01*
X98475300Y-61474585D01*
X98535917Y-61509795D01*
X98535920Y-61509796D01*
X98542319Y-61513513D01*
X98578361Y-61521867D01*
X98630780Y-61553425D01*
X98654638Y-61609767D01*
X98640822Y-61669373D01*
X98608836Y-61702037D01*
X98572375Y-61725042D01*
X98477499Y-61832469D01*
X98416588Y-61962206D01*
X98416479Y-61962908D01*
X98383053Y-62010645D01*
X98325201Y-62030565D01*
X98311334Y-62028863D01*
X98311300Y-62029253D01*
X98302667Y-62028498D01*
X98294304Y-62026257D01*
X98260061Y-62029253D01*
X98255843Y-62029622D01*
X98247214Y-62029999D01*
X94550520Y-62029999D01*
X94492329Y-62011092D01*
X94456365Y-61961592D01*
X94453422Y-61950312D01*
X94451555Y-61940924D01*
X94451554Y-61940922D01*
X94449652Y-61931359D01*
X94405105Y-61864690D01*
X94338436Y-61820143D01*
X94328873Y-61818241D01*
X94328871Y-61818240D01*
X94286379Y-61809788D01*
X94260185Y-61804578D01*
X94206802Y-61774681D01*
X94181186Y-61719116D01*
X94180500Y-61707480D01*
X94180500Y-61190312D01*
X94199407Y-61132121D01*
X94240192Y-61102982D01*
X94238935Y-61100364D01*
X94354361Y-61044937D01*
X94361029Y-61041735D01*
X94460486Y-60949798D01*
X94523310Y-60841639D01*
X94524795Y-60839083D01*
X94524796Y-60839080D01*
X94528513Y-60832681D01*
X94542896Y-60770630D01*
X94554225Y-60721754D01*
X94554225Y-60721751D01*
X94555500Y-60716252D01*
X94555500Y-60031742D01*
X94540364Y-59931065D01*
X94527624Y-59904533D01*
X94484937Y-59815639D01*
X94481735Y-59808971D01*
X94472009Y-59798449D01*
X94446395Y-59742883D01*
X94458333Y-59682874D01*
X94460273Y-59679995D01*
X94460486Y-59679798D01*
X94501152Y-59609786D01*
X94524795Y-59569083D01*
X94524796Y-59569080D01*
X94528513Y-59562681D01*
X94546096Y-59486822D01*
X94554225Y-59451754D01*
X94554225Y-59451751D01*
X94555500Y-59446252D01*
X94555500Y-58761742D01*
X94540364Y-58661065D01*
X94527624Y-58634533D01*
X94484937Y-58545639D01*
X94481735Y-58538971D01*
X94389798Y-58439514D01*
X94272681Y-58371487D01*
X94257146Y-58367886D01*
X94204727Y-58336328D01*
X94180869Y-58279986D01*
X94180500Y-58271443D01*
X94180500Y-57821008D01*
X94199407Y-57762817D01*
X94211785Y-57749614D01*
X94212897Y-57748931D01*
X94309078Y-57642672D01*
X94371570Y-57513689D01*
X94374557Y-57495939D01*
X94394715Y-57376120D01*
X94394715Y-57376117D01*
X94395349Y-57372350D01*
X94395500Y-57360000D01*
X94375182Y-57218123D01*
X94315860Y-57087651D01*
X94222303Y-56979074D01*
X94102033Y-56901118D01*
X94095275Y-56899097D01*
X94095273Y-56899096D01*
X93971479Y-56862074D01*
X93964718Y-56860052D01*
X93878694Y-56859527D01*
X93828448Y-56859220D01*
X93821396Y-56859177D01*
X93814620Y-56861114D01*
X93814617Y-56861114D01*
X93690369Y-56896624D01*
X93690367Y-56896625D01*
X93683589Y-56898562D01*
X93562375Y-56975042D01*
X93467499Y-57082469D01*
X93406588Y-57212206D01*
X93384538Y-57353824D01*
X93385453Y-57360822D01*
X93388004Y-57380327D01*
X93403121Y-57495939D01*
X93405962Y-57502395D01*
X93405962Y-57502396D01*
X93407870Y-57506731D01*
X93460845Y-57627126D01*
X93484784Y-57655605D01*
X93506283Y-57681181D01*
X93529253Y-57737891D01*
X93529500Y-57744883D01*
X93529500Y-58269688D01*
X93510593Y-58327879D01*
X93469808Y-58357018D01*
X93471065Y-58359636D01*
X93453885Y-58367886D01*
X93348971Y-58418265D01*
X93249514Y-58510202D01*
X93245797Y-58516602D01*
X93185205Y-58620917D01*
X93185204Y-58620920D01*
X93181487Y-58627319D01*
X93154500Y-58743748D01*
X93154500Y-59428258D01*
X93158849Y-59457185D01*
X93164303Y-59493460D01*
X93169636Y-59528935D01*
X93172839Y-59535606D01*
X93172840Y-59535608D01*
X93188915Y-59569083D01*
X93228265Y-59651029D01*
X93233287Y-59656461D01*
X93233287Y-59656462D01*
X93237991Y-59661551D01*
X93263605Y-59717117D01*
X93251667Y-59777126D01*
X93249727Y-59780005D01*
X93249514Y-59780202D01*
X93249013Y-59781065D01*
X93185205Y-59890917D01*
X93185204Y-59890920D01*
X93181487Y-59897319D01*
X93154500Y-60013748D01*
X93154500Y-60698258D01*
X93159157Y-60729234D01*
X93165381Y-60770630D01*
X93169636Y-60798935D01*
X93172839Y-60805606D01*
X93172840Y-60805608D01*
X93209468Y-60881884D01*
X93228265Y-60921029D01*
X93320202Y-61020486D01*
X93437319Y-61088513D01*
X93450723Y-61091620D01*
X93452854Y-61092114D01*
X93505273Y-61123672D01*
X93529131Y-61180014D01*
X93529500Y-61188557D01*
X93529500Y-61705500D01*
X93510593Y-61763691D01*
X93461093Y-61799655D01*
X93430500Y-61804500D01*
X93409795Y-61804500D01*
X93365995Y-61813213D01*
X93340719Y-61818240D01*
X93340717Y-61818241D01*
X93331154Y-61820143D01*
X93264485Y-61864690D01*
X93259066Y-61872800D01*
X93242110Y-61898176D01*
X93194060Y-61936055D01*
X93132922Y-61938457D01*
X93082048Y-61904464D01*
X93077480Y-61898176D01*
X93060524Y-61872800D01*
X93055105Y-61864690D01*
X92988436Y-61820143D01*
X92978873Y-61818241D01*
X92978871Y-61818240D01*
X92953595Y-61813213D01*
X92909795Y-61804500D01*
X92904935Y-61804500D01*
X92900093Y-61804023D01*
X92900333Y-61801588D01*
X92851104Y-61785593D01*
X92815140Y-61736093D01*
X92810295Y-61705500D01*
X92810295Y-60613080D01*
X92810672Y-60604451D01*
X92812147Y-60587594D01*
X92814037Y-60565990D01*
X92803979Y-60528453D01*
X92802110Y-60520021D01*
X92796867Y-60490286D01*
X92796867Y-60490285D01*
X92795363Y-60481757D01*
X92791032Y-60474256D01*
X92789038Y-60468778D01*
X92786572Y-60463489D01*
X92784330Y-60455120D01*
X92779361Y-60448023D01*
X92762037Y-60423281D01*
X92757398Y-60415999D01*
X92742303Y-60389854D01*
X92737973Y-60382354D01*
X92708396Y-60357536D01*
X92702029Y-60351702D01*
X91960113Y-59609786D01*
X91960102Y-59609776D01*
X91873094Y-59522767D01*
X91867260Y-59516400D01*
X91848011Y-59493460D01*
X91842441Y-59486822D01*
X91808795Y-59467396D01*
X91801514Y-59462758D01*
X91776772Y-59445434D01*
X91776771Y-59445433D01*
X91769675Y-59440465D01*
X91761306Y-59438223D01*
X91756017Y-59435757D01*
X91750539Y-59433763D01*
X91743038Y-59429432D01*
X91734510Y-59427928D01*
X91734509Y-59427928D01*
X91704774Y-59422685D01*
X91696342Y-59420816D01*
X91667168Y-59412999D01*
X91667169Y-59412999D01*
X91658805Y-59410758D01*
X91620383Y-59414120D01*
X91620344Y-59414123D01*
X91611715Y-59414500D01*
X90975439Y-59414500D01*
X90917248Y-59395593D01*
X90900446Y-59380129D01*
X90882303Y-59359074D01*
X90762033Y-59281118D01*
X90755275Y-59279097D01*
X90755273Y-59279096D01*
X90631479Y-59242074D01*
X90624718Y-59240052D01*
X90538694Y-59239527D01*
X90488448Y-59239220D01*
X90481396Y-59239177D01*
X90474620Y-59241114D01*
X90474617Y-59241114D01*
X90350369Y-59276624D01*
X90350367Y-59276625D01*
X90343589Y-59278562D01*
X90222375Y-59355042D01*
X90127499Y-59462469D01*
X90066588Y-59592206D01*
X90044538Y-59733824D01*
X90045453Y-59740822D01*
X90045723Y-59742883D01*
X90063121Y-59875939D01*
X90065962Y-59882395D01*
X90065962Y-59882396D01*
X90069712Y-59890917D01*
X90120845Y-60007126D01*
X90125382Y-60012523D01*
X90125383Y-60012525D01*
X90160965Y-60054854D01*
X90213068Y-60116838D01*
X90218939Y-60120746D01*
X90218940Y-60120747D01*
X90251581Y-60142474D01*
X90332377Y-60196257D01*
X90339104Y-60198359D01*
X90339107Y-60198360D01*
X90462448Y-60236894D01*
X90462449Y-60236894D01*
X90469180Y-60238997D01*
X90540830Y-60240310D01*
X90605427Y-60241495D01*
X90605429Y-60241495D01*
X90612481Y-60241624D01*
X90619284Y-60239769D01*
X90619286Y-60239769D01*
X90698079Y-60218287D01*
X90750758Y-60203925D01*
X90872897Y-60128931D01*
X90900837Y-60098063D01*
X90953904Y-60067610D01*
X90974234Y-60065500D01*
X91454165Y-60065500D01*
X91512356Y-60084407D01*
X91524169Y-60094496D01*
X92130299Y-60700626D01*
X92158076Y-60755143D01*
X92159295Y-60770630D01*
X92159295Y-61705500D01*
X92140388Y-61763691D01*
X92090888Y-61799655D01*
X92069402Y-61803058D01*
X92069497Y-61804023D01*
X92064655Y-61804500D01*
X92059795Y-61804500D01*
X92015995Y-61813213D01*
X91990719Y-61818240D01*
X91990717Y-61818241D01*
X91981154Y-61820143D01*
X91914485Y-61864690D01*
X91869938Y-61931359D01*
X91854295Y-62010000D01*
X91854295Y-62760000D01*
X91858712Y-62782206D01*
X91867107Y-62824407D01*
X91869938Y-62838641D01*
X91875358Y-62846752D01*
X91875358Y-62846753D01*
X91880868Y-62855000D01*
X91897476Y-62913888D01*
X91880868Y-62965000D01*
X91875358Y-62973247D01*
X91869938Y-62981359D01*
X91868035Y-62990925D01*
X91868034Y-62990928D01*
X91860298Y-63029815D01*
X91830401Y-63083199D01*
X91774836Y-63108814D01*
X91763201Y-63109500D01*
X91510527Y-63109500D01*
X91456679Y-63093575D01*
X91440671Y-63083199D01*
X91422033Y-63071118D01*
X91284718Y-63030052D01*
X91198694Y-63029527D01*
X91148448Y-63029220D01*
X91141396Y-63029177D01*
X91134620Y-63031114D01*
X91134617Y-63031114D01*
X91010369Y-63066624D01*
X91010367Y-63066625D01*
X91003589Y-63068562D01*
X90882375Y-63145042D01*
X90787499Y-63252469D01*
X90726588Y-63382206D01*
X90704538Y-63523824D01*
X90723121Y-63665939D01*
X90780845Y-63797126D01*
X90785382Y-63802523D01*
X90785383Y-63802525D01*
X90796811Y-63816120D01*
X90873068Y-63906838D01*
X90878939Y-63910746D01*
X90878940Y-63910747D01*
X90891235Y-63918931D01*
X90992377Y-63986257D01*
X90999104Y-63988359D01*
X90999107Y-63988360D01*
X91122448Y-64026894D01*
X91122449Y-64026894D01*
X91129180Y-64028997D01*
X91200831Y-64030311D01*
X91265427Y-64031495D01*
X91265429Y-64031495D01*
X91272481Y-64031624D01*
X91279284Y-64029769D01*
X91279286Y-64029769D01*
X91329873Y-64015977D01*
X91410758Y-63993925D01*
X91532897Y-63918931D01*
X91604175Y-63840185D01*
X91624345Y-63817901D01*
X91629078Y-63812672D01*
X91632154Y-63806323D01*
X91633625Y-63804142D01*
X91681839Y-63766471D01*
X91715701Y-63760500D01*
X91763201Y-63760500D01*
X91821392Y-63779407D01*
X91857356Y-63828907D01*
X91860298Y-63840185D01*
X91868034Y-63879072D01*
X91868035Y-63879075D01*
X91869938Y-63888641D01*
X91875357Y-63896751D01*
X91898242Y-63931000D01*
X91914485Y-63955310D01*
X91981154Y-63999857D01*
X91990717Y-64001759D01*
X91990719Y-64001760D01*
X92032299Y-64010030D01*
X92054815Y-64014509D01*
X92108198Y-64044406D01*
X92133814Y-64099971D01*
X92134500Y-64111607D01*
X92134500Y-64504688D01*
X92115593Y-64562879D01*
X92074808Y-64592018D01*
X92076065Y-64594636D01*
X92058885Y-64602886D01*
X91953971Y-64653265D01*
X91854514Y-64745202D01*
X91834302Y-64780000D01*
X91790205Y-64855917D01*
X91790204Y-64855920D01*
X91786487Y-64862319D01*
X91784815Y-64869533D01*
X91762720Y-64964858D01*
X91759500Y-64978748D01*
X91759500Y-65663258D01*
X91764978Y-65699697D01*
X91773329Y-65755239D01*
X91774636Y-65763935D01*
X91777839Y-65770606D01*
X91777840Y-65770608D01*
X91830063Y-65879361D01*
X91833265Y-65886029D01*
X91838287Y-65891461D01*
X91838287Y-65891462D01*
X91842991Y-65896551D01*
X91868605Y-65952117D01*
X91856667Y-66012126D01*
X91854727Y-66015005D01*
X91854514Y-66015202D01*
X91854013Y-66016065D01*
X91790205Y-66125917D01*
X91790204Y-66125920D01*
X91786487Y-66132319D01*
X91776969Y-66173385D01*
X91771297Y-66197854D01*
X91739739Y-66250273D01*
X91683397Y-66274131D01*
X91674854Y-66274500D01*
X91416823Y-66274500D01*
X91358632Y-66255593D01*
X91341823Y-66240122D01*
X91336908Y-66234418D01*
X91336907Y-66234417D01*
X91332303Y-66229074D01*
X91212033Y-66151118D01*
X91205275Y-66149097D01*
X91205273Y-66149096D01*
X91081479Y-66112074D01*
X91074718Y-66110052D01*
X90988694Y-66109527D01*
X90938448Y-66109220D01*
X90931396Y-66109177D01*
X90924620Y-66111114D01*
X90924617Y-66111114D01*
X90800369Y-66146624D01*
X90800367Y-66146625D01*
X90793589Y-66148562D01*
X90672375Y-66225042D01*
X90577499Y-66332469D01*
X90516588Y-66462206D01*
X90494538Y-66603824D01*
X90513121Y-66745939D01*
X90515962Y-66752395D01*
X90515962Y-66752396D01*
X90560308Y-66853178D01*
X90570845Y-66877126D01*
X90575382Y-66882523D01*
X90575383Y-66882525D01*
X90605554Y-66918417D01*
X90663068Y-66986838D01*
X90668939Y-66990746D01*
X90668940Y-66990747D01*
X90696678Y-67009211D01*
X90782377Y-67066257D01*
X90789104Y-67068359D01*
X90789107Y-67068360D01*
X90912448Y-67106894D01*
X90912449Y-67106894D01*
X90919180Y-67108997D01*
X90990830Y-67110310D01*
X91055427Y-67111495D01*
X91055429Y-67111495D01*
X91062481Y-67111624D01*
X91069284Y-67109769D01*
X91069286Y-67109769D01*
X91138869Y-67090798D01*
X91200758Y-67073925D01*
X91265888Y-67033935D01*
X91316888Y-67002621D01*
X91316890Y-67002619D01*
X91322897Y-66998931D01*
X91359889Y-66958064D01*
X91412956Y-66927610D01*
X91433286Y-66925500D01*
X91673105Y-66925500D01*
X91731296Y-66944407D01*
X91767260Y-66993907D01*
X91771004Y-67009779D01*
X91774636Y-67033935D01*
X91777839Y-67040606D01*
X91777840Y-67040608D01*
X91810680Y-67108997D01*
X91833265Y-67156029D01*
X91925202Y-67255486D01*
X92025225Y-67313584D01*
X92066046Y-67359160D01*
X92074500Y-67399190D01*
X92074500Y-68351715D01*
X92074123Y-68360344D01*
X92070758Y-68398805D01*
X92072999Y-68407168D01*
X92080816Y-68436342D01*
X92082685Y-68444774D01*
X92089432Y-68483038D01*
X92093763Y-68490539D01*
X92095757Y-68496017D01*
X92098223Y-68501306D01*
X92100465Y-68509675D01*
X92105433Y-68516771D01*
X92105434Y-68516772D01*
X92122758Y-68541514D01*
X92127396Y-68548795D01*
X92146822Y-68582441D01*
X92166846Y-68599243D01*
X92176398Y-68607258D01*
X92182766Y-68613093D01*
X92275504Y-68705831D01*
X92303281Y-68760348D01*
X92304500Y-68775835D01*
X92304500Y-69308258D01*
X92308725Y-69336359D01*
X92317077Y-69391912D01*
X92319636Y-69408935D01*
X92322839Y-69415606D01*
X92322840Y-69415608D01*
X92338915Y-69449083D01*
X92378265Y-69531029D01*
X92470202Y-69630486D01*
X92520300Y-69659585D01*
X92580917Y-69694795D01*
X92580920Y-69694796D01*
X92587319Y-69698513D01*
X92608856Y-69703505D01*
X92698246Y-69724225D01*
X92698249Y-69724225D01*
X92703748Y-69725500D01*
X93388258Y-69725500D01*
X93424697Y-69720022D01*
X93481614Y-69711465D01*
X93481616Y-69711464D01*
X93488935Y-69710364D01*
X93495606Y-69707161D01*
X93495608Y-69707160D01*
X93604361Y-69654937D01*
X93611029Y-69651735D01*
X93621550Y-69642009D01*
X93677117Y-69616395D01*
X93737126Y-69628333D01*
X93740005Y-69630273D01*
X93740202Y-69630486D01*
X93768139Y-69646713D01*
X93850917Y-69694795D01*
X93850920Y-69694796D01*
X93857319Y-69698513D01*
X93878856Y-69703505D01*
X93968246Y-69724225D01*
X93968249Y-69724225D01*
X93973748Y-69725500D01*
X94658258Y-69725500D01*
X94694697Y-69720022D01*
X94751614Y-69711465D01*
X94751616Y-69711464D01*
X94758935Y-69710364D01*
X94765606Y-69707161D01*
X94765608Y-69707160D01*
X94874361Y-69654937D01*
X94881029Y-69651735D01*
X94980486Y-69559798D01*
X95042283Y-69453407D01*
X95044795Y-69449083D01*
X95044796Y-69449080D01*
X95048513Y-69442681D01*
X95062838Y-69380878D01*
X95074225Y-69331754D01*
X95074225Y-69331751D01*
X95075500Y-69326252D01*
X95075500Y-68741742D01*
X95060364Y-68641065D01*
X95056275Y-68632548D01*
X95004937Y-68525639D01*
X95001735Y-68518971D01*
X94909798Y-68419514D01*
X94859289Y-68390176D01*
X94799083Y-68355205D01*
X94799080Y-68355204D01*
X94792681Y-68351487D01*
X94754762Y-68342698D01*
X94681754Y-68325775D01*
X94681751Y-68325775D01*
X94676252Y-68324500D01*
X94653382Y-68324500D01*
X94595191Y-68305593D01*
X94580899Y-68292264D01*
X94578178Y-68287552D01*
X94571545Y-68281986D01*
X94571544Y-68281985D01*
X94548602Y-68262735D01*
X94542234Y-68256900D01*
X94010327Y-67724993D01*
X93982550Y-67670476D01*
X93992121Y-67610044D01*
X94035386Y-67566779D01*
X94080331Y-67555989D01*
X95229654Y-67555989D01*
X95287845Y-67574896D01*
X95299658Y-67584985D01*
X96201902Y-68487228D01*
X96207736Y-68493595D01*
X96232559Y-68523178D01*
X96266221Y-68542613D01*
X96273498Y-68547249D01*
X96305326Y-68569535D01*
X96313689Y-68571776D01*
X96318973Y-68574240D01*
X96324462Y-68576238D01*
X96331962Y-68580568D01*
X96340490Y-68582072D01*
X96340491Y-68582072D01*
X96342584Y-68582441D01*
X96370229Y-68587315D01*
X96378660Y-68589185D01*
X96416124Y-68599224D01*
X96467438Y-68632548D01*
X96489500Y-68694850D01*
X96489500Y-68780000D01*
X96503811Y-68851945D01*
X96503811Y-68890572D01*
X96493059Y-68944622D01*
X96494627Y-68957866D01*
X96494659Y-68957901D01*
X96502703Y-68960000D01*
X96577841Y-68960000D01*
X96611682Y-68966732D01*
X96616359Y-68969857D01*
X96625919Y-68971759D01*
X96625920Y-68971759D01*
X96686966Y-68983902D01*
X96740350Y-69013799D01*
X96765966Y-69069364D01*
X96754029Y-69129374D01*
X96709099Y-69170906D01*
X96667652Y-69180000D01*
X96505680Y-69180000D01*
X96492995Y-69184122D01*
X96492967Y-69184159D01*
X96492478Y-69192457D01*
X96503703Y-69248888D01*
X96511022Y-69266557D01*
X96544624Y-69316847D01*
X96558153Y-69330376D01*
X96608443Y-69363978D01*
X96626112Y-69371297D01*
X96690237Y-69384052D01*
X96699858Y-69385000D01*
X96974320Y-69385000D01*
X96987005Y-69380878D01*
X96990000Y-69376757D01*
X96990000Y-69195680D01*
X96985878Y-69182995D01*
X96962402Y-69165938D01*
X96962979Y-69165144D01*
X96942098Y-69154505D01*
X96914319Y-69099989D01*
X96923890Y-69039557D01*
X96967153Y-68996291D01*
X97012100Y-68985500D01*
X97111000Y-68985500D01*
X97169191Y-69004407D01*
X97205155Y-69053907D01*
X97210000Y-69084500D01*
X97210000Y-69369320D01*
X97214122Y-69382005D01*
X97218243Y-69385000D01*
X97435500Y-69385000D01*
X97493691Y-69403907D01*
X97529655Y-69453407D01*
X97534500Y-69484000D01*
X97534500Y-69650503D01*
X97516596Y-69707287D01*
X97500465Y-69730325D01*
X97498223Y-69738695D01*
X97495757Y-69743983D01*
X97493763Y-69749461D01*
X97489432Y-69756962D01*
X97487928Y-69765490D01*
X97487928Y-69765491D01*
X97482685Y-69795226D01*
X97480816Y-69803658D01*
X97470758Y-69841195D01*
X97471513Y-69849822D01*
X97474123Y-69879656D01*
X97474500Y-69888285D01*
X97474500Y-71221715D01*
X97474123Y-71230344D01*
X97470758Y-71268805D01*
X97472999Y-71277168D01*
X97480816Y-71306342D01*
X97482685Y-71314774D01*
X97489432Y-71353038D01*
X97493763Y-71360539D01*
X97495757Y-71366017D01*
X97498223Y-71371306D01*
X97500465Y-71379675D01*
X97505433Y-71386771D01*
X97505434Y-71386772D01*
X97522758Y-71411514D01*
X97527396Y-71418795D01*
X97546822Y-71452441D01*
X97576398Y-71477258D01*
X97582766Y-71483093D01*
X98691907Y-72592234D01*
X98697741Y-72598601D01*
X98722559Y-72628178D01*
X98756214Y-72647608D01*
X98763497Y-72652248D01*
X98788228Y-72669565D01*
X98788230Y-72669566D01*
X98795325Y-72674534D01*
X98803694Y-72676777D01*
X98811540Y-72680435D01*
X98811299Y-72680952D01*
X98820781Y-72684886D01*
X98820909Y-72684960D01*
X98861782Y-72730492D01*
X98865913Y-72744680D01*
X98866360Y-72744543D01*
X98868536Y-72751615D01*
X98869636Y-72758935D01*
X98872839Y-72765606D01*
X98872840Y-72765608D01*
X98917359Y-72858317D01*
X98928265Y-72881029D01*
X99020202Y-72980486D01*
X99070300Y-73009585D01*
X99130917Y-73044795D01*
X99130920Y-73044796D01*
X99137319Y-73048513D01*
X99145857Y-73050492D01*
X99248246Y-73074225D01*
X99248249Y-73074225D01*
X99253748Y-73075500D01*
X99938258Y-73075500D01*
X99954379Y-73073076D01*
X99965670Y-73071379D01*
X100026025Y-73081425D01*
X100068948Y-73125029D01*
X100078044Y-73185534D01*
X100050392Y-73239282D01*
X99915353Y-73374320D01*
X99869081Y-73420592D01*
X99814565Y-73448369D01*
X99798474Y-73449586D01*
X99738448Y-73449220D01*
X99731396Y-73449177D01*
X99724620Y-73451114D01*
X99724617Y-73451114D01*
X99600369Y-73486624D01*
X99600367Y-73486625D01*
X99593589Y-73488562D01*
X99472375Y-73565042D01*
X99377499Y-73672469D01*
X99316588Y-73802206D01*
X99294538Y-73943824D01*
X99295453Y-73950824D01*
X99295409Y-73954458D01*
X99275792Y-74012413D01*
X99266420Y-74023253D01*
X98734169Y-74555504D01*
X98679652Y-74583281D01*
X98664165Y-74584500D01*
X98146895Y-74584500D01*
X98088704Y-74565593D01*
X98052740Y-74516093D01*
X98048995Y-74500218D01*
X98045364Y-74476065D01*
X98040576Y-74466093D01*
X97989937Y-74360639D01*
X97986735Y-74353971D01*
X97976669Y-74343081D01*
X97951051Y-74287517D01*
X97962987Y-74227507D01*
X97965549Y-74223706D01*
X98029330Y-74113899D01*
X98034720Y-74100283D01*
X98058725Y-73996720D01*
X98060000Y-73985571D01*
X98060000Y-73855680D01*
X98055878Y-73842995D01*
X98051757Y-73840000D01*
X96675680Y-73840000D01*
X96662995Y-73844122D01*
X96660000Y-73848243D01*
X96660000Y-73969558D01*
X96660550Y-73976914D01*
X96674014Y-74066471D01*
X96678317Y-74080459D01*
X96730474Y-74189076D01*
X96738701Y-74201182D01*
X96743301Y-74206158D01*
X96768918Y-74261723D01*
X96756982Y-74321733D01*
X96754859Y-74324883D01*
X96754514Y-74325202D01*
X96753704Y-74326597D01*
X96753701Y-74326601D01*
X96699804Y-74419392D01*
X96686487Y-74442319D01*
X96684360Y-74451495D01*
X96682886Y-74457854D01*
X96651328Y-74510273D01*
X96594986Y-74534131D01*
X96586443Y-74534500D01*
X96171851Y-74534500D01*
X96113660Y-74515593D01*
X96081462Y-74470538D01*
X96080364Y-74471065D01*
X96077343Y-74464773D01*
X96077342Y-74464771D01*
X96074021Y-74457854D01*
X96024937Y-74355639D01*
X96021735Y-74348971D01*
X96016292Y-74343082D01*
X96011669Y-74338082D01*
X95986051Y-74282517D01*
X95997987Y-74222507D01*
X96000549Y-74218706D01*
X96064330Y-74108899D01*
X96069720Y-74095283D01*
X96093725Y-73991720D01*
X96095000Y-73980571D01*
X96095000Y-73850680D01*
X96090878Y-73837995D01*
X96086757Y-73835000D01*
X94710680Y-73835000D01*
X94697995Y-73839122D01*
X94695000Y-73843243D01*
X94695000Y-73964558D01*
X94695550Y-73971914D01*
X94709014Y-74061471D01*
X94713317Y-74075459D01*
X94765474Y-74184076D01*
X94773701Y-74196182D01*
X94778301Y-74201158D01*
X94803918Y-74256723D01*
X94791982Y-74316733D01*
X94789859Y-74319883D01*
X94789514Y-74320202D01*
X94788704Y-74321597D01*
X94788701Y-74321601D01*
X94747625Y-74392319D01*
X94721487Y-74437319D01*
X94718201Y-74451495D01*
X94716727Y-74457854D01*
X94685169Y-74510273D01*
X94628826Y-74534131D01*
X94620284Y-74534500D01*
X94316895Y-74534500D01*
X94258704Y-74515593D01*
X94222740Y-74466093D01*
X94218995Y-74450218D01*
X94215364Y-74426065D01*
X94209535Y-74413925D01*
X94159937Y-74310639D01*
X94156735Y-74303971D01*
X94146669Y-74293081D01*
X94121051Y-74237517D01*
X94132987Y-74177507D01*
X94135549Y-74173706D01*
X94199330Y-74063899D01*
X94204720Y-74050283D01*
X94228725Y-73946720D01*
X94230000Y-73935571D01*
X94230000Y-73805680D01*
X94225878Y-73792995D01*
X94221757Y-73790000D01*
X92845680Y-73790000D01*
X92832995Y-73794122D01*
X92830000Y-73798243D01*
X92830000Y-73919558D01*
X92830550Y-73926914D01*
X92844014Y-74016471D01*
X92848317Y-74030459D01*
X92900474Y-74139076D01*
X92908701Y-74151182D01*
X92913301Y-74156158D01*
X92938918Y-74211723D01*
X92926982Y-74271733D01*
X92924859Y-74274883D01*
X92924514Y-74275202D01*
X92923704Y-74276597D01*
X92923701Y-74276601D01*
X92860205Y-74385917D01*
X92860204Y-74385920D01*
X92856487Y-74392319D01*
X92854815Y-74399533D01*
X92837076Y-74476065D01*
X92829500Y-74508748D01*
X92829500Y-75193258D01*
X92830050Y-75196915D01*
X92841005Y-75269781D01*
X92844636Y-75293935D01*
X92847839Y-75300606D01*
X92847840Y-75300608D01*
X92862730Y-75331615D01*
X92903265Y-75416029D01*
X92995202Y-75515486D01*
X93045300Y-75544585D01*
X93105917Y-75579795D01*
X93105920Y-75579796D01*
X93112319Y-75583513D01*
X93126220Y-75586735D01*
X93223246Y-75609225D01*
X93223249Y-75609225D01*
X93228748Y-75610500D01*
X93813258Y-75610500D01*
X93849697Y-75605022D01*
X93906614Y-75596465D01*
X93906616Y-75596464D01*
X93913935Y-75595364D01*
X93920606Y-75592161D01*
X93920608Y-75592160D01*
X94029361Y-75539937D01*
X94036029Y-75536735D01*
X94135486Y-75444798D01*
X94190196Y-75350608D01*
X94199795Y-75334083D01*
X94199796Y-75334080D01*
X94203513Y-75327681D01*
X94218704Y-75262145D01*
X94250261Y-75209727D01*
X94306603Y-75185869D01*
X94315146Y-75185500D01*
X94601339Y-75185500D01*
X94659530Y-75204407D01*
X94695494Y-75253907D01*
X94699239Y-75269781D01*
X94709636Y-75338935D01*
X94712839Y-75345606D01*
X94712840Y-75345608D01*
X94757398Y-75438398D01*
X94768265Y-75461029D01*
X94860202Y-75560486D01*
X94905393Y-75586735D01*
X94970917Y-75624795D01*
X94970920Y-75624796D01*
X94977319Y-75628513D01*
X95006104Y-75635185D01*
X95088246Y-75654225D01*
X95088249Y-75654225D01*
X95093748Y-75655500D01*
X95678258Y-75655500D01*
X95714697Y-75650022D01*
X95771614Y-75641465D01*
X95771616Y-75641464D01*
X95778935Y-75640364D01*
X95785606Y-75637161D01*
X95785608Y-75637160D01*
X95894361Y-75584937D01*
X95901029Y-75581735D01*
X96000486Y-75489798D01*
X96040179Y-75421461D01*
X96064795Y-75379083D01*
X96064796Y-75379080D01*
X96068513Y-75372681D01*
X96094134Y-75262145D01*
X96125693Y-75209727D01*
X96182035Y-75185869D01*
X96190577Y-75185500D01*
X96565588Y-75185500D01*
X96623779Y-75204407D01*
X96659743Y-75253907D01*
X96663488Y-75269782D01*
X96672784Y-75331615D01*
X96674636Y-75343935D01*
X96677839Y-75350606D01*
X96677840Y-75350608D01*
X96719997Y-75438398D01*
X96733265Y-75466029D01*
X96825202Y-75565486D01*
X96871125Y-75592160D01*
X96935917Y-75629795D01*
X96935920Y-75629796D01*
X96942319Y-75633513D01*
X96971876Y-75640364D01*
X97053246Y-75659225D01*
X97053249Y-75659225D01*
X97058748Y-75660500D01*
X97643258Y-75660500D01*
X97684996Y-75654225D01*
X97736614Y-75646465D01*
X97736616Y-75646464D01*
X97743935Y-75645364D01*
X97750606Y-75642161D01*
X97750608Y-75642160D01*
X97859361Y-75589937D01*
X97866029Y-75586735D01*
X97965486Y-75494798D01*
X98015112Y-75409361D01*
X98029795Y-75384083D01*
X98029796Y-75384080D01*
X98033513Y-75377681D01*
X98048704Y-75312145D01*
X98080261Y-75259727D01*
X98136603Y-75235869D01*
X98145146Y-75235500D01*
X98821715Y-75235500D01*
X98830344Y-75235877D01*
X98868805Y-75239242D01*
X98906342Y-75229184D01*
X98914774Y-75227315D01*
X98944509Y-75222072D01*
X98944510Y-75222072D01*
X98953038Y-75220568D01*
X98960539Y-75216237D01*
X98966017Y-75214243D01*
X98971306Y-75211777D01*
X98979675Y-75209535D01*
X98997699Y-75196915D01*
X99011514Y-75187242D01*
X99018796Y-75182603D01*
X99044941Y-75167508D01*
X99044940Y-75167508D01*
X99052441Y-75163178D01*
X99077259Y-75133601D01*
X99083093Y-75127234D01*
X99730821Y-74479506D01*
X99785338Y-74451729D01*
X99802639Y-74450527D01*
X99818493Y-74450818D01*
X99855428Y-74451495D01*
X99855430Y-74451495D01*
X99862481Y-74451624D01*
X99869284Y-74449769D01*
X99869286Y-74449769D01*
X99956229Y-74426065D01*
X100000758Y-74413925D01*
X100122897Y-74338931D01*
X100169435Y-74287517D01*
X100214346Y-74237900D01*
X100214346Y-74237899D01*
X100219078Y-74232672D01*
X100281570Y-74103689D01*
X100282985Y-74095283D01*
X100304715Y-73966120D01*
X100304715Y-73966117D01*
X100305349Y-73962350D01*
X100305500Y-73950000D01*
X100306034Y-73950007D01*
X100320462Y-73893303D01*
X100334161Y-73876166D01*
X101092228Y-73118098D01*
X101098595Y-73112264D01*
X101114805Y-73098662D01*
X101171535Y-73075741D01*
X101178442Y-73075500D01*
X101208258Y-73075500D01*
X101244697Y-73070022D01*
X101301614Y-73061465D01*
X101301616Y-73061464D01*
X101308935Y-73060364D01*
X101315606Y-73057161D01*
X101315608Y-73057160D01*
X101424361Y-73004937D01*
X101431029Y-73001735D01*
X101530486Y-72909798D01*
X101569288Y-72842995D01*
X101594795Y-72799083D01*
X101594796Y-72799080D01*
X101598513Y-72792681D01*
X101612928Y-72730492D01*
X101624225Y-72681754D01*
X101624225Y-72681751D01*
X101625500Y-72676252D01*
X101625500Y-72091742D01*
X101610364Y-71991065D01*
X101551735Y-71868971D01*
X101459798Y-71769514D01*
X101409700Y-71740415D01*
X101349083Y-71705205D01*
X101349080Y-71705204D01*
X101342681Y-71701487D01*
X101286803Y-71688535D01*
X101231754Y-71675775D01*
X101231751Y-71675775D01*
X101226252Y-71674500D01*
X100541742Y-71674500D01*
X100505303Y-71679978D01*
X100448386Y-71688535D01*
X100448384Y-71688536D01*
X100441065Y-71689636D01*
X100434394Y-71692839D01*
X100434392Y-71692840D01*
X100325639Y-71745063D01*
X100318971Y-71748265D01*
X100313539Y-71753287D01*
X100313538Y-71753287D01*
X100308449Y-71757991D01*
X100252883Y-71783605D01*
X100192874Y-71771667D01*
X100189995Y-71769727D01*
X100189798Y-71769514D01*
X100147703Y-71745063D01*
X100079083Y-71705205D01*
X100079080Y-71705204D01*
X100072681Y-71701487D01*
X100016803Y-71688535D01*
X99961754Y-71675775D01*
X99961751Y-71675775D01*
X99956252Y-71674500D01*
X99271742Y-71674500D01*
X99235303Y-71679978D01*
X99178386Y-71688535D01*
X99178384Y-71688536D01*
X99171065Y-71689636D01*
X99164394Y-71692839D01*
X99164392Y-71692840D01*
X99055639Y-71745063D01*
X99048971Y-71748265D01*
X99043539Y-71753286D01*
X99043538Y-71753287D01*
X98973171Y-71818333D01*
X98917606Y-71843949D01*
X98857596Y-71832012D01*
X98835966Y-71815639D01*
X98154496Y-71134169D01*
X98126719Y-71079652D01*
X98125500Y-71064165D01*
X98125500Y-70529500D01*
X98144407Y-70471309D01*
X98193907Y-70435345D01*
X98224500Y-70430500D01*
X98360000Y-70430500D01*
X98430688Y-70416439D01*
X98469312Y-70416439D01*
X98540000Y-70430500D01*
X98760000Y-70430500D01*
X98830688Y-70416439D01*
X98869312Y-70416439D01*
X98940000Y-70430500D01*
X99160000Y-70430500D01*
X99230688Y-70416439D01*
X99269312Y-70416439D01*
X99340000Y-70430500D01*
X99560000Y-70430500D01*
X99630688Y-70416439D01*
X99669312Y-70416439D01*
X99740000Y-70430500D01*
X99960000Y-70430500D01*
X100030688Y-70416439D01*
X100069312Y-70416439D01*
X100140000Y-70430500D01*
X100360000Y-70430500D01*
X100430688Y-70416439D01*
X100469312Y-70416439D01*
X100540000Y-70430500D01*
X100760000Y-70430500D01*
X100830688Y-70416439D01*
X100869312Y-70416439D01*
X100940000Y-70430500D01*
X101160000Y-70430500D01*
X101230688Y-70416439D01*
X101269312Y-70416439D01*
X101340000Y-70430500D01*
X101560000Y-70430500D01*
X101630688Y-70416439D01*
X101669312Y-70416439D01*
X101740000Y-70430500D01*
X101960000Y-70430500D01*
X102030688Y-70416439D01*
X102069312Y-70416439D01*
X102140000Y-70430500D01*
X102360000Y-70430500D01*
X102403800Y-70421787D01*
X102429076Y-70416760D01*
X102429078Y-70416759D01*
X102438641Y-70414857D01*
X102505310Y-70370310D01*
X102549857Y-70303641D01*
X102565500Y-70225000D01*
X102565500Y-69484000D01*
X102584407Y-69425809D01*
X102633907Y-69389845D01*
X102664500Y-69385000D01*
X102874320Y-69385000D01*
X102887005Y-69380878D01*
X102890000Y-69376757D01*
X102890000Y-69084500D01*
X102908907Y-69026309D01*
X102958407Y-68990345D01*
X102989000Y-68985500D01*
X103099228Y-68985500D01*
X103157419Y-69004407D01*
X103193383Y-69053907D01*
X103193383Y-69115093D01*
X103157419Y-69164593D01*
X103129820Y-69178655D01*
X103112995Y-69184122D01*
X103110000Y-69188243D01*
X103110000Y-69369320D01*
X103114122Y-69382005D01*
X103118243Y-69385000D01*
X103400142Y-69385000D01*
X103409763Y-69384052D01*
X103473888Y-69371297D01*
X103491557Y-69363978D01*
X103541847Y-69330376D01*
X103555376Y-69316847D01*
X103588978Y-69266557D01*
X103596297Y-69248888D01*
X103606941Y-69195379D01*
X103605373Y-69182134D01*
X103605341Y-69182099D01*
X103597297Y-69180000D01*
X103432348Y-69180000D01*
X103374157Y-69161093D01*
X103338193Y-69111593D01*
X103338193Y-69050407D01*
X103374157Y-69000907D01*
X103413034Y-68983902D01*
X103474080Y-68971759D01*
X103474081Y-68971759D01*
X103483641Y-68969857D01*
X103488318Y-68966732D01*
X103522159Y-68960000D01*
X103594320Y-68960000D01*
X103607005Y-68955878D01*
X103607033Y-68955841D01*
X103607522Y-68947544D01*
X103596189Y-68890572D01*
X103596189Y-68851945D01*
X103610500Y-68780000D01*
X103610500Y-68560000D01*
X103596439Y-68489312D01*
X103596439Y-68450688D01*
X103610500Y-68380000D01*
X103610500Y-68160000D01*
X103596439Y-68089312D01*
X103596439Y-68050688D01*
X103610500Y-67980000D01*
X103610500Y-67760000D01*
X103596439Y-67689312D01*
X103596439Y-67650688D01*
X103610500Y-67580000D01*
X103610500Y-67360000D01*
X103596439Y-67289312D01*
X103596439Y-67250688D01*
X103610500Y-67180000D01*
X103610500Y-66960000D01*
X103596439Y-66889312D01*
X103596439Y-66850688D01*
X103610500Y-66780000D01*
X103610500Y-66560000D01*
X103609309Y-66554010D01*
X103601651Y-66515516D01*
X103596439Y-66489312D01*
X103596439Y-66450688D01*
X103610500Y-66380000D01*
X103610500Y-66160000D01*
X103596439Y-66089312D01*
X103596439Y-66050688D01*
X103610500Y-65980000D01*
X103610500Y-65760000D01*
X103596439Y-65689312D01*
X103596439Y-65650688D01*
X103610500Y-65580000D01*
X103610500Y-65360000D01*
X103596439Y-65289312D01*
X103596439Y-65250688D01*
X103610500Y-65180000D01*
X103610500Y-65094500D01*
X103629407Y-65036309D01*
X103678907Y-65000345D01*
X103709500Y-64995500D01*
X112659726Y-64995500D01*
X112717917Y-65014407D01*
X112748592Y-65050868D01*
X112779227Y-65113263D01*
X112779232Y-65113270D01*
X112781763Y-65118426D01*
X112890003Y-65249965D01*
X112923870Y-65275718D01*
X112958744Y-65325990D01*
X112957409Y-65387161D01*
X112922622Y-65434256D01*
X112898390Y-65452089D01*
X112788098Y-65581912D01*
X112785481Y-65587038D01*
X112734563Y-65686754D01*
X112710629Y-65733625D01*
X112670140Y-65899091D01*
X112669632Y-65963725D01*
X112668950Y-66050639D01*
X112668802Y-66069434D01*
X112706687Y-66235515D01*
X112709221Y-66240676D01*
X112779231Y-66383270D01*
X112779233Y-66383273D01*
X112781763Y-66388426D01*
X112785414Y-66392862D01*
X112785414Y-66392863D01*
X112879269Y-66506920D01*
X112890003Y-66519965D01*
X112923870Y-66545718D01*
X112958744Y-66595990D01*
X112957409Y-66657161D01*
X112922622Y-66704256D01*
X112898390Y-66722089D01*
X112861728Y-66765243D01*
X112814964Y-66820289D01*
X112788098Y-66851912D01*
X112757770Y-66911305D01*
X112717205Y-66990747D01*
X112710629Y-67003625D01*
X112709262Y-67009210D01*
X112709262Y-67009211D01*
X112693427Y-67073925D01*
X112670140Y-67169091D01*
X112670067Y-67178398D01*
X112668917Y-67324843D01*
X112668802Y-67339434D01*
X112706687Y-67505515D01*
X112709221Y-67510676D01*
X112779231Y-67653270D01*
X112779233Y-67653273D01*
X112781763Y-67658426D01*
X112785414Y-67662862D01*
X112785414Y-67662863D01*
X112879497Y-67777197D01*
X112890003Y-67789965D01*
X112923870Y-67815718D01*
X112958744Y-67865990D01*
X112957409Y-67927161D01*
X112922622Y-67974256D01*
X112898390Y-67992089D01*
X112788098Y-68121912D01*
X112768649Y-68160000D01*
X112715458Y-68264169D01*
X112710629Y-68273625D01*
X112709262Y-68279210D01*
X112709262Y-68279211D01*
X112698413Y-68323546D01*
X112670140Y-68439091D01*
X112668802Y-68609434D01*
X112706687Y-68775515D01*
X112709221Y-68780676D01*
X112779231Y-68923270D01*
X112779233Y-68923273D01*
X112781763Y-68928426D01*
X112785414Y-68932862D01*
X112785414Y-68932863D01*
X112832715Y-68990345D01*
X112890003Y-69059965D01*
X112923870Y-69085718D01*
X112958744Y-69135990D01*
X112957409Y-69197161D01*
X112922622Y-69244256D01*
X112898390Y-69262089D01*
X112894664Y-69266475D01*
X112794776Y-69384052D01*
X112788098Y-69391912D01*
X112765858Y-69435467D01*
X112717061Y-69531029D01*
X112710629Y-69543625D01*
X112709262Y-69549210D01*
X112709262Y-69549211D01*
X112705442Y-69564822D01*
X112670140Y-69709091D01*
X112670011Y-69725500D01*
X112669035Y-69849822D01*
X112668802Y-69879434D01*
X112706687Y-70045515D01*
X112709221Y-70050676D01*
X112779231Y-70193270D01*
X112779233Y-70193273D01*
X112781763Y-70198426D01*
X112785414Y-70202862D01*
X112785414Y-70202863D01*
X112799633Y-70220142D01*
X112890003Y-70329965D01*
X113025600Y-70433076D01*
X113181281Y-70502227D01*
X113348694Y-70533708D01*
X113439611Y-70529500D01*
X113513114Y-70526098D01*
X113518860Y-70525832D01*
X113524387Y-70524252D01*
X113524389Y-70524252D01*
X113677121Y-70480601D01*
X113677122Y-70480601D01*
X113682649Y-70479021D01*
X113831277Y-70395786D01*
X113832577Y-70398108D01*
X113880625Y-70382606D01*
X113938777Y-70401634D01*
X113962736Y-70426605D01*
X113989625Y-70466848D01*
X114003153Y-70480376D01*
X114053443Y-70513978D01*
X114071112Y-70521297D01*
X114135237Y-70534052D01*
X114144858Y-70535000D01*
X114454320Y-70535000D01*
X114467005Y-70530878D01*
X114470000Y-70526757D01*
X114470000Y-70008243D01*
X114870000Y-70008243D01*
X114870000Y-70519320D01*
X114874122Y-70532005D01*
X114878243Y-70535000D01*
X115195142Y-70535000D01*
X115204763Y-70534052D01*
X115268888Y-70521297D01*
X115286557Y-70513978D01*
X115336847Y-70480376D01*
X115350376Y-70466847D01*
X115383978Y-70416557D01*
X115391297Y-70398888D01*
X115404052Y-70334763D01*
X115405000Y-70325142D01*
X115405000Y-70015680D01*
X115400878Y-70002995D01*
X115396757Y-70000000D01*
X114885680Y-70000000D01*
X114872995Y-70004122D01*
X114870000Y-70008243D01*
X114470000Y-70008243D01*
X114470000Y-69699000D01*
X114488907Y-69640809D01*
X114538407Y-69604845D01*
X114569000Y-69600000D01*
X115389320Y-69600000D01*
X115402005Y-69595878D01*
X115405000Y-69591757D01*
X115405000Y-69274858D01*
X115404052Y-69265237D01*
X115391297Y-69201112D01*
X115383978Y-69183443D01*
X115350376Y-69133153D01*
X115336848Y-69119625D01*
X115293100Y-69090394D01*
X115255220Y-69042345D01*
X115252818Y-68981206D01*
X115266172Y-68952503D01*
X115305279Y-68894851D01*
X115322396Y-68869616D01*
X115329128Y-68851942D01*
X115380980Y-68715798D01*
X115383027Y-68710424D01*
X115405409Y-68541553D01*
X115405500Y-68530000D01*
X115385773Y-68360798D01*
X115354131Y-68273625D01*
X115329613Y-68206081D01*
X115327650Y-68200673D01*
X115324497Y-68195863D01*
X115324495Y-68195860D01*
X115237402Y-68063022D01*
X115234250Y-68058214D01*
X115137356Y-67966425D01*
X115108115Y-67912681D01*
X115116048Y-67852013D01*
X115138494Y-67821623D01*
X115222528Y-67744485D01*
X115226770Y-67740591D01*
X115282504Y-67658426D01*
X115319166Y-67604378D01*
X115319167Y-67604377D01*
X115322396Y-67599616D01*
X115327969Y-67584985D01*
X115380980Y-67445798D01*
X115383027Y-67440424D01*
X115405409Y-67271553D01*
X115405500Y-67260000D01*
X115385773Y-67090798D01*
X115375447Y-67062349D01*
X115329613Y-66936081D01*
X115327650Y-66930673D01*
X115324497Y-66925863D01*
X115324495Y-66925860D01*
X115237402Y-66793022D01*
X115234250Y-66788214D01*
X115137356Y-66696425D01*
X115108115Y-66642681D01*
X115116048Y-66582013D01*
X115138494Y-66551623D01*
X115222528Y-66474485D01*
X115226770Y-66470591D01*
X115284990Y-66384761D01*
X115319166Y-66334378D01*
X115319167Y-66334377D01*
X115322396Y-66329616D01*
X115343529Y-66274131D01*
X115380980Y-66175798D01*
X115383027Y-66170424D01*
X115405409Y-66001553D01*
X115405500Y-65990000D01*
X115385773Y-65820798D01*
X115354131Y-65733625D01*
X115329613Y-65666081D01*
X115327650Y-65660673D01*
X115324497Y-65655863D01*
X115324495Y-65655860D01*
X115237402Y-65523022D01*
X115234250Y-65518214D01*
X115137356Y-65426425D01*
X115108115Y-65372681D01*
X115116048Y-65312013D01*
X115138494Y-65281623D01*
X115222528Y-65204485D01*
X115226770Y-65200591D01*
X115322396Y-65059616D01*
X115344934Y-65000442D01*
X115380980Y-64905798D01*
X115383027Y-64900424D01*
X115405409Y-64731553D01*
X115405500Y-64720000D01*
X115385773Y-64550798D01*
X115327650Y-64390673D01*
X115324497Y-64385863D01*
X115324495Y-64385860D01*
X115265609Y-64296045D01*
X115234250Y-64248214D01*
X115230081Y-64244265D01*
X115230078Y-64244261D01*
X115114758Y-64135018D01*
X115110582Y-64131062D01*
X114963280Y-64045502D01*
X114880218Y-64020345D01*
X114805751Y-63997791D01*
X114805749Y-63997791D01*
X114800246Y-63996124D01*
X114675100Y-63988360D01*
X114635965Y-63985932D01*
X114635964Y-63985932D01*
X114630225Y-63985576D01*
X114462338Y-64014425D01*
X114457043Y-64016678D01*
X114428092Y-64028997D01*
X114305590Y-64081122D01*
X114168390Y-64182089D01*
X114113256Y-64246987D01*
X114061172Y-64279093D01*
X114000163Y-64274452D01*
X113964290Y-64248172D01*
X113964250Y-64248214D01*
X113963920Y-64247901D01*
X113963918Y-64247900D01*
X113840582Y-64131062D01*
X113693280Y-64045502D01*
X113610218Y-64020345D01*
X113535751Y-63997791D01*
X113535749Y-63997791D01*
X113530246Y-63996124D01*
X113405100Y-63988360D01*
X113365965Y-63985932D01*
X113365964Y-63985932D01*
X113360225Y-63985576D01*
X113192338Y-64014425D01*
X113187043Y-64016678D01*
X113158092Y-64028997D01*
X113035590Y-64081122D01*
X112898390Y-64182089D01*
X112790063Y-64309599D01*
X112737979Y-64341704D01*
X112714616Y-64344500D01*
X108355226Y-64344500D01*
X108297035Y-64325593D01*
X108261071Y-64276093D01*
X108261071Y-64214907D01*
X108281828Y-64179064D01*
X108364346Y-64087900D01*
X108364346Y-64087899D01*
X108369078Y-64082672D01*
X108431570Y-63953689D01*
X108434557Y-63935939D01*
X108454715Y-63816120D01*
X108454715Y-63816117D01*
X108455349Y-63812350D01*
X108455500Y-63800000D01*
X108435182Y-63658123D01*
X108375860Y-63527651D01*
X108299501Y-63439033D01*
X108275840Y-63382608D01*
X108275500Y-63374409D01*
X108275500Y-63298284D01*
X108275877Y-63289656D01*
X108278487Y-63259821D01*
X108279242Y-63251194D01*
X108269184Y-63213658D01*
X108267316Y-63205230D01*
X108262072Y-63175490D01*
X108262072Y-63175489D01*
X108260568Y-63166962D01*
X108256239Y-63159463D01*
X108254248Y-63153994D01*
X108251776Y-63148694D01*
X108249534Y-63140325D01*
X108227248Y-63108497D01*
X108222608Y-63101214D01*
X108207507Y-63075058D01*
X108203178Y-63067559D01*
X108173601Y-63042741D01*
X108167234Y-63036907D01*
X108140113Y-63009786D01*
X108140110Y-63009784D01*
X107393094Y-62262767D01*
X107387260Y-62256399D01*
X107368011Y-62233459D01*
X107368008Y-62233456D01*
X107362441Y-62226822D01*
X107328795Y-62207396D01*
X107321514Y-62202758D01*
X107296772Y-62185434D01*
X107296771Y-62185433D01*
X107289675Y-62180465D01*
X107281306Y-62178223D01*
X107276017Y-62175757D01*
X107270539Y-62173763D01*
X107263038Y-62169432D01*
X107254510Y-62167928D01*
X107254509Y-62167928D01*
X107224774Y-62162685D01*
X107216342Y-62160816D01*
X107187168Y-62152999D01*
X107187169Y-62152999D01*
X107178805Y-62150758D01*
X107140383Y-62154120D01*
X107140344Y-62154123D01*
X107131715Y-62154500D01*
X102597406Y-62154500D01*
X102539215Y-62135593D01*
X102503251Y-62086093D01*
X102503251Y-62024907D01*
X102508312Y-62012335D01*
X102538493Y-61950041D01*
X102538494Y-61950038D01*
X102541570Y-61943689D01*
X102542855Y-61936055D01*
X102564715Y-61806120D01*
X102564715Y-61806117D01*
X102565349Y-61802350D01*
X102565500Y-61790000D01*
X102545182Y-61648123D01*
X102527873Y-61610052D01*
X102488780Y-61524073D01*
X102488780Y-61524072D01*
X102485860Y-61517651D01*
X102392303Y-61409074D01*
X102272033Y-61331118D01*
X102265275Y-61329097D01*
X102265273Y-61329096D01*
X102141479Y-61292074D01*
X102134718Y-61290052D01*
X102048694Y-61289527D01*
X101998448Y-61289220D01*
X101991396Y-61289177D01*
X101984620Y-61291114D01*
X101984617Y-61291114D01*
X101860369Y-61326624D01*
X101860367Y-61326625D01*
X101853589Y-61328562D01*
X101732375Y-61405042D01*
X101637499Y-61512469D01*
X101576588Y-61642206D01*
X101554538Y-61783824D01*
X101558087Y-61810964D01*
X101550469Y-61860319D01*
X101550465Y-61860325D01*
X101548223Y-61868695D01*
X101545757Y-61873983D01*
X101543763Y-61879461D01*
X101539432Y-61886962D01*
X101537928Y-61895490D01*
X101537928Y-61895491D01*
X101532685Y-61925226D01*
X101530816Y-61933658D01*
X101520758Y-61971195D01*
X101521513Y-61979822D01*
X101524123Y-62009656D01*
X101524500Y-62018285D01*
X101524500Y-63210500D01*
X101505593Y-63268691D01*
X101456093Y-63304655D01*
X101425500Y-63309500D01*
X101340000Y-63309500D01*
X101269312Y-63323561D01*
X101230688Y-63323561D01*
X101160000Y-63309500D01*
X100940000Y-63309500D01*
X100869312Y-63323561D01*
X100830688Y-63323561D01*
X100760000Y-63309500D01*
X100674500Y-63309500D01*
X100616309Y-63290593D01*
X100580345Y-63241093D01*
X100575500Y-63210500D01*
X100575500Y-61631405D01*
X100594407Y-61573214D01*
X100643907Y-61537250D01*
X100659776Y-61533506D01*
X100713935Y-61525364D01*
X100720606Y-61522161D01*
X100720608Y-61522160D01*
X100829361Y-61469937D01*
X100836029Y-61466735D01*
X100935486Y-61374798D01*
X100984094Y-61291114D01*
X100999795Y-61264083D01*
X100999796Y-61264080D01*
X101003513Y-61257681D01*
X101013032Y-61216614D01*
X101029225Y-61146754D01*
X101029225Y-61146751D01*
X101030500Y-61141252D01*
X101030500Y-60556742D01*
X101024979Y-60520021D01*
X101016465Y-60463386D01*
X101016464Y-60463384D01*
X101015364Y-60456065D01*
X101011503Y-60448023D01*
X100959937Y-60340639D01*
X100956735Y-60333971D01*
X100864798Y-60234514D01*
X100805784Y-60200236D01*
X100754083Y-60170205D01*
X100754080Y-60170204D01*
X100747681Y-60166487D01*
X100682145Y-60151296D01*
X100629727Y-60119739D01*
X100605869Y-60063397D01*
X100605500Y-60054854D01*
X100605500Y-59411465D01*
X100624407Y-59353274D01*
X100675391Y-59316841D01*
X100676615Y-59316465D01*
X100683935Y-59315364D01*
X100806029Y-59256735D01*
X100905486Y-59164798D01*
X100934585Y-59114700D01*
X100969795Y-59054083D01*
X100969796Y-59054080D01*
X100973513Y-59047681D01*
X101000500Y-58931252D01*
X101000500Y-58246742D01*
X100995022Y-58210303D01*
X100986465Y-58153386D01*
X100986464Y-58153384D01*
X100985364Y-58146065D01*
X100980934Y-58136838D01*
X100929937Y-58030639D01*
X100926735Y-58023971D01*
X100917009Y-58013449D01*
X100891395Y-57957883D01*
X100903333Y-57897874D01*
X100905273Y-57894995D01*
X100905486Y-57894798D01*
X100948347Y-57821008D01*
X100969795Y-57784083D01*
X100969796Y-57784080D01*
X100973513Y-57777681D01*
X101000500Y-57661252D01*
X101000500Y-56976742D01*
X100988827Y-56899096D01*
X100986465Y-56883386D01*
X100986464Y-56883384D01*
X100985364Y-56876065D01*
X100977255Y-56859177D01*
X100929937Y-56760639D01*
X100926735Y-56753971D01*
X100834798Y-56654514D01*
X100717681Y-56586487D01*
X100702146Y-56582886D01*
X100649727Y-56551328D01*
X100625869Y-56494986D01*
X100625500Y-56486443D01*
X100625500Y-55811465D01*
X100644407Y-55753274D01*
X100695391Y-55716841D01*
X100696615Y-55716465D01*
X100703935Y-55715364D01*
X100826029Y-55656735D01*
X100925486Y-55564798D01*
X100954585Y-55514700D01*
X100989795Y-55454083D01*
X100989796Y-55454080D01*
X100993513Y-55447681D01*
X101020500Y-55331252D01*
X101020500Y-54746742D01*
X101005364Y-54646065D01*
X100992624Y-54619533D01*
X100949937Y-54530639D01*
X100946735Y-54523971D01*
X100854798Y-54424514D01*
X100804700Y-54395415D01*
X100744083Y-54360205D01*
X100744080Y-54360204D01*
X100737681Y-54356487D01*
X100672145Y-54341296D01*
X100619727Y-54309739D01*
X100595869Y-54253397D01*
X100595500Y-54244854D01*
X100595500Y-54001691D01*
X100614407Y-53943500D01*
X100663907Y-53907536D01*
X100693635Y-53902695D01*
X123825135Y-53700585D01*
X123883489Y-53718983D01*
G37*
%TD.AperFunction*%
%TA.AperFunction,Conductor*%
G36*
X94640078Y-63208110D02*
G01*
X94723068Y-63306838D01*
X94728939Y-63310746D01*
X94728940Y-63310747D01*
X94748710Y-63323907D01*
X94842377Y-63386257D01*
X94849104Y-63388359D01*
X94849107Y-63388360D01*
X94972448Y-63426894D01*
X94972449Y-63426894D01*
X94979180Y-63428997D01*
X95050831Y-63430311D01*
X95115427Y-63431495D01*
X95115429Y-63431495D01*
X95122481Y-63431624D01*
X95129284Y-63429769D01*
X95129286Y-63429769D01*
X95184689Y-63414664D01*
X95260758Y-63393925D01*
X95382897Y-63318931D01*
X95410837Y-63288063D01*
X95463904Y-63257610D01*
X95484234Y-63255500D01*
X97486362Y-63255500D01*
X97544553Y-63274407D01*
X97580517Y-63323907D01*
X97580517Y-63385093D01*
X97568678Y-63409500D01*
X97556023Y-63428440D01*
X97548703Y-63446112D01*
X97535948Y-63510237D01*
X97535000Y-63519858D01*
X97535000Y-63794320D01*
X97539122Y-63807005D01*
X97543243Y-63810000D01*
X97825500Y-63810000D01*
X97883691Y-63828907D01*
X97919655Y-63878407D01*
X97924500Y-63909000D01*
X97924500Y-63931000D01*
X97905593Y-63989191D01*
X97856093Y-64025155D01*
X97825500Y-64030000D01*
X97550680Y-64030000D01*
X97537995Y-64034122D01*
X97535000Y-64038243D01*
X97535000Y-64255500D01*
X97516093Y-64313691D01*
X97466593Y-64349655D01*
X97436000Y-64354500D01*
X96695000Y-64354500D01*
X96658176Y-64361825D01*
X96625924Y-64368240D01*
X96625922Y-64368241D01*
X96616359Y-64370143D01*
X96549690Y-64414690D01*
X96505143Y-64481359D01*
X96489500Y-64560000D01*
X96489500Y-64780000D01*
X96503561Y-64850688D01*
X96503561Y-64889312D01*
X96489500Y-64960000D01*
X96489500Y-65180000D01*
X96503561Y-65250688D01*
X96503561Y-65289312D01*
X96489500Y-65360000D01*
X96489500Y-65580000D01*
X96503561Y-65650688D01*
X96503561Y-65689312D01*
X96489500Y-65760000D01*
X96489500Y-65980000D01*
X96503561Y-66050688D01*
X96503561Y-66089312D01*
X96489500Y-66160000D01*
X96489500Y-66380000D01*
X96503561Y-66450688D01*
X96503561Y-66489312D01*
X96498349Y-66515516D01*
X96490692Y-66554010D01*
X96489500Y-66560000D01*
X96489500Y-66780000D01*
X96503561Y-66850688D01*
X96503561Y-66889312D01*
X96489500Y-66960000D01*
X96489500Y-67180000D01*
X96503561Y-67250688D01*
X96503561Y-67289312D01*
X96489500Y-67360000D01*
X96489500Y-67580000D01*
X96490448Y-67584766D01*
X96493908Y-67602163D01*
X96486716Y-67662924D01*
X96445182Y-67707854D01*
X96385173Y-67719790D01*
X96326806Y-67691480D01*
X96062677Y-67427350D01*
X95648583Y-67013256D01*
X95642749Y-67006888D01*
X95623500Y-66983948D01*
X95623497Y-66983945D01*
X95617930Y-66977311D01*
X95584284Y-66957885D01*
X95577003Y-66953247D01*
X95552261Y-66935923D01*
X95552260Y-66935922D01*
X95545164Y-66930954D01*
X95536795Y-66928712D01*
X95531506Y-66926246D01*
X95526028Y-66924252D01*
X95518527Y-66919921D01*
X95509999Y-66918417D01*
X95509998Y-66918417D01*
X95480263Y-66913174D01*
X95471831Y-66911305D01*
X95442657Y-66903488D01*
X95442658Y-66903488D01*
X95434294Y-66901247D01*
X95395872Y-66904609D01*
X95395833Y-66904612D01*
X95387204Y-66904989D01*
X94157899Y-66904989D01*
X94099708Y-66886082D01*
X94063744Y-66836582D01*
X94063744Y-66775396D01*
X94081796Y-66742829D01*
X94087973Y-66737646D01*
X94107399Y-66704000D01*
X94112037Y-66696719D01*
X94129361Y-66671977D01*
X94129362Y-66671976D01*
X94134330Y-66664880D01*
X94136572Y-66656511D01*
X94139038Y-66651222D01*
X94141032Y-66645744D01*
X94145363Y-66638243D01*
X94152110Y-66599979D01*
X94153979Y-66591547D01*
X94161796Y-66562373D01*
X94164037Y-66554010D01*
X94160672Y-66515549D01*
X94160295Y-66506920D01*
X94160295Y-64114500D01*
X94179202Y-64056309D01*
X94228702Y-64020345D01*
X94250188Y-64016942D01*
X94250093Y-64015977D01*
X94254935Y-64015500D01*
X94259795Y-64015500D01*
X94303595Y-64006787D01*
X94328871Y-64001760D01*
X94328873Y-64001759D01*
X94338436Y-63999857D01*
X94405105Y-63955310D01*
X94421349Y-63931000D01*
X94444233Y-63896751D01*
X94449652Y-63888641D01*
X94451556Y-63879072D01*
X94463723Y-63817901D01*
X94465295Y-63810000D01*
X94465295Y-63271812D01*
X94484202Y-63213621D01*
X94533702Y-63177657D01*
X94594888Y-63177657D01*
X94640078Y-63208110D01*
G37*
%TD.AperFunction*%
%TD*%
M02*
