%TF.GenerationSoftware,KiCad,Pcbnew,(5.99.0-10483-ga6ad7a4a70)*%
%TF.CreationDate,2021-05-17T14:47:55+02:00*%
%TF.ProjectId,quadkey,71756164-6b65-4792-9e6b-696361645f70,rev?*%
%TF.SameCoordinates,Original*%
%TF.FileFunction,Legend,Top*%
%TF.FilePolarity,Positive*%
%FSLAX46Y46*%
G04 Gerber Fmt 4.6, Leading zero omitted, Abs format (unit mm)*
G04 Created by KiCad (PCBNEW (5.99.0-10483-ga6ad7a4a70)) date 2021-05-17 14:47:55*
%MOMM*%
%LPD*%
G01*
G04 APERTURE LIST*
%ADD10C,0.150000*%
%ADD11C,0.015000*%
%ADD12C,0.120000*%
%ADD13C,0.200000*%
%ADD14C,0.160000*%
%ADD15C,0.127000*%
%ADD16C,0.152400*%
G04 APERTURE END LIST*
D10*
%TO.C,C12*%
X92942142Y-59737857D02*
X92989761Y-59785476D01*
X93037380Y-59928333D01*
X93037380Y-60023571D01*
X92989761Y-60166428D01*
X92894523Y-60261666D01*
X92799285Y-60309285D01*
X92608809Y-60356904D01*
X92465952Y-60356904D01*
X92275476Y-60309285D01*
X92180238Y-60261666D01*
X92085000Y-60166428D01*
X92037380Y-60023571D01*
X92037380Y-59928333D01*
X92085000Y-59785476D01*
X92132619Y-59737857D01*
X93037380Y-58785476D02*
X93037380Y-59356904D01*
X93037380Y-59071190D02*
X92037380Y-59071190D01*
X92180238Y-59166428D01*
X92275476Y-59261666D01*
X92323095Y-59356904D01*
X92132619Y-58404523D02*
X92085000Y-58356904D01*
X92037380Y-58261666D01*
X92037380Y-58023571D01*
X92085000Y-57928333D01*
X92132619Y-57880714D01*
X92227857Y-57833095D01*
X92323095Y-57833095D01*
X92465952Y-57880714D01*
X93037380Y-58452142D01*
X93037380Y-57833095D01*
%TO.C,C3*%
X99532142Y-82781666D02*
X99579761Y-82829285D01*
X99627380Y-82972142D01*
X99627380Y-83067380D01*
X99579761Y-83210238D01*
X99484523Y-83305476D01*
X99389285Y-83353095D01*
X99198809Y-83400714D01*
X99055952Y-83400714D01*
X98865476Y-83353095D01*
X98770238Y-83305476D01*
X98675000Y-83210238D01*
X98627380Y-83067380D01*
X98627380Y-82972142D01*
X98675000Y-82829285D01*
X98722619Y-82781666D01*
X98627380Y-82448333D02*
X98627380Y-81829285D01*
X99008333Y-82162619D01*
X99008333Y-82019761D01*
X99055952Y-81924523D01*
X99103571Y-81876904D01*
X99198809Y-81829285D01*
X99436904Y-81829285D01*
X99532142Y-81876904D01*
X99579761Y-81924523D01*
X99627380Y-82019761D01*
X99627380Y-82305476D01*
X99579761Y-82400714D01*
X99532142Y-82448333D01*
%TO.C,con1*%
X96977142Y-114169761D02*
X96881904Y-114217380D01*
X96691428Y-114217380D01*
X96596190Y-114169761D01*
X96548571Y-114122142D01*
X96500952Y-114026904D01*
X96500952Y-113741190D01*
X96548571Y-113645952D01*
X96596190Y-113598333D01*
X96691428Y-113550714D01*
X96881904Y-113550714D01*
X96977142Y-113598333D01*
X97548571Y-114217380D02*
X97453333Y-114169761D01*
X97405714Y-114122142D01*
X97358095Y-114026904D01*
X97358095Y-113741190D01*
X97405714Y-113645952D01*
X97453333Y-113598333D01*
X97548571Y-113550714D01*
X97691428Y-113550714D01*
X97786666Y-113598333D01*
X97834285Y-113645952D01*
X97881904Y-113741190D01*
X97881904Y-114026904D01*
X97834285Y-114122142D01*
X97786666Y-114169761D01*
X97691428Y-114217380D01*
X97548571Y-114217380D01*
X98310476Y-113550714D02*
X98310476Y-114217380D01*
X98310476Y-113645952D02*
X98358095Y-113598333D01*
X98453333Y-113550714D01*
X98596190Y-113550714D01*
X98691428Y-113598333D01*
X98739047Y-113693571D01*
X98739047Y-114217380D01*
X99739047Y-114217380D02*
X99167619Y-114217380D01*
X99453333Y-114217380D02*
X99453333Y-113217380D01*
X99358095Y-113360238D01*
X99262857Y-113455476D01*
X99167619Y-113503095D01*
%TO.C,U1*%
X101382880Y-101245404D02*
X102192404Y-101245404D01*
X102287642Y-101197785D01*
X102335261Y-101150166D01*
X102382880Y-101054928D01*
X102382880Y-100864452D01*
X102335261Y-100769214D01*
X102287642Y-100721595D01*
X102192404Y-100673976D01*
X101382880Y-100673976D01*
X102382880Y-99673976D02*
X102382880Y-100245404D01*
X102382880Y-99959690D02*
X101382880Y-99959690D01*
X101525738Y-100054928D01*
X101620976Y-100150166D01*
X101668595Y-100245404D01*
%TO.C,C4*%
X97642142Y-88311666D02*
X97689761Y-88359285D01*
X97737380Y-88502142D01*
X97737380Y-88597380D01*
X97689761Y-88740238D01*
X97594523Y-88835476D01*
X97499285Y-88883095D01*
X97308809Y-88930714D01*
X97165952Y-88930714D01*
X96975476Y-88883095D01*
X96880238Y-88835476D01*
X96785000Y-88740238D01*
X96737380Y-88597380D01*
X96737380Y-88502142D01*
X96785000Y-88359285D01*
X96832619Y-88311666D01*
X97070714Y-87454523D02*
X97737380Y-87454523D01*
X96689761Y-87692619D02*
X97404047Y-87930714D01*
X97404047Y-87311666D01*
D11*
%TO.C,L2*%
X93852410Y-86352467D02*
X93852410Y-87102373D01*
X92277607Y-87102373D01*
X92427589Y-85902523D02*
X92352598Y-85827532D01*
X92277607Y-85677551D01*
X92277607Y-85302598D01*
X92352598Y-85152617D01*
X92427589Y-85077626D01*
X92577570Y-85002636D01*
X92727551Y-85002636D01*
X92952523Y-85077626D01*
X93852410Y-85977514D01*
X93852410Y-85002636D01*
D10*
%TO.C,R2*%
X104313333Y-97082380D02*
X103980000Y-96606190D01*
X103741904Y-97082380D02*
X103741904Y-96082380D01*
X104122857Y-96082380D01*
X104218095Y-96130000D01*
X104265714Y-96177619D01*
X104313333Y-96272857D01*
X104313333Y-96415714D01*
X104265714Y-96510952D01*
X104218095Y-96558571D01*
X104122857Y-96606190D01*
X103741904Y-96606190D01*
X104694285Y-96177619D02*
X104741904Y-96130000D01*
X104837142Y-96082380D01*
X105075238Y-96082380D01*
X105170476Y-96130000D01*
X105218095Y-96177619D01*
X105265714Y-96272857D01*
X105265714Y-96368095D01*
X105218095Y-96510952D01*
X104646666Y-97082380D01*
X105265714Y-97082380D01*
%TO.C,C1*%
X92453333Y-94807142D02*
X92405714Y-94854761D01*
X92262857Y-94902380D01*
X92167619Y-94902380D01*
X92024761Y-94854761D01*
X91929523Y-94759523D01*
X91881904Y-94664285D01*
X91834285Y-94473809D01*
X91834285Y-94330952D01*
X91881904Y-94140476D01*
X91929523Y-94045238D01*
X92024761Y-93950000D01*
X92167619Y-93902380D01*
X92262857Y-93902380D01*
X92405714Y-93950000D01*
X92453333Y-93997619D01*
X93405714Y-94902380D02*
X92834285Y-94902380D01*
X93120000Y-94902380D02*
X93120000Y-93902380D01*
X93024761Y-94045238D01*
X92929523Y-94140476D01*
X92834285Y-94188095D01*
%TO.C,C7*%
X97687142Y-72156666D02*
X97734761Y-72204285D01*
X97782380Y-72347142D01*
X97782380Y-72442380D01*
X97734761Y-72585238D01*
X97639523Y-72680476D01*
X97544285Y-72728095D01*
X97353809Y-72775714D01*
X97210952Y-72775714D01*
X97020476Y-72728095D01*
X96925238Y-72680476D01*
X96830000Y-72585238D01*
X96782380Y-72442380D01*
X96782380Y-72347142D01*
X96830000Y-72204285D01*
X96877619Y-72156666D01*
X96782380Y-71823333D02*
X96782380Y-71156666D01*
X97782380Y-71585238D01*
%TO.C,C2*%
X103492142Y-88811666D02*
X103539761Y-88859285D01*
X103587380Y-89002142D01*
X103587380Y-89097380D01*
X103539761Y-89240238D01*
X103444523Y-89335476D01*
X103349285Y-89383095D01*
X103158809Y-89430714D01*
X103015952Y-89430714D01*
X102825476Y-89383095D01*
X102730238Y-89335476D01*
X102635000Y-89240238D01*
X102587380Y-89097380D01*
X102587380Y-89002142D01*
X102635000Y-88859285D01*
X102682619Y-88811666D01*
X102682619Y-88430714D02*
X102635000Y-88383095D01*
X102587380Y-88287857D01*
X102587380Y-88049761D01*
X102635000Y-87954523D01*
X102682619Y-87906904D01*
X102777857Y-87859285D01*
X102873095Y-87859285D01*
X103015952Y-87906904D01*
X103587380Y-88478333D01*
X103587380Y-87859285D01*
%TO.C,C8*%
X94158333Y-68112142D02*
X94110714Y-68159761D01*
X93967857Y-68207380D01*
X93872619Y-68207380D01*
X93729761Y-68159761D01*
X93634523Y-68064523D01*
X93586904Y-67969285D01*
X93539285Y-67778809D01*
X93539285Y-67635952D01*
X93586904Y-67445476D01*
X93634523Y-67350238D01*
X93729761Y-67255000D01*
X93872619Y-67207380D01*
X93967857Y-67207380D01*
X94110714Y-67255000D01*
X94158333Y-67302619D01*
X94729761Y-67635952D02*
X94634523Y-67588333D01*
X94586904Y-67540714D01*
X94539285Y-67445476D01*
X94539285Y-67397857D01*
X94586904Y-67302619D01*
X94634523Y-67255000D01*
X94729761Y-67207380D01*
X94920238Y-67207380D01*
X95015476Y-67255000D01*
X95063095Y-67302619D01*
X95110714Y-67397857D01*
X95110714Y-67445476D01*
X95063095Y-67540714D01*
X95015476Y-67588333D01*
X94920238Y-67635952D01*
X94729761Y-67635952D01*
X94634523Y-67683571D01*
X94586904Y-67731190D01*
X94539285Y-67826428D01*
X94539285Y-68016904D01*
X94586904Y-68112142D01*
X94634523Y-68159761D01*
X94729761Y-68207380D01*
X94920238Y-68207380D01*
X95015476Y-68159761D01*
X95063095Y-68112142D01*
X95110714Y-68016904D01*
X95110714Y-67826428D01*
X95063095Y-67731190D01*
X95015476Y-67683571D01*
X94920238Y-67635952D01*
%TO.C,R1*%
X106122380Y-93612666D02*
X105646190Y-93946000D01*
X106122380Y-94184095D02*
X105122380Y-94184095D01*
X105122380Y-93803142D01*
X105170000Y-93707904D01*
X105217619Y-93660285D01*
X105312857Y-93612666D01*
X105455714Y-93612666D01*
X105550952Y-93660285D01*
X105598571Y-93707904D01*
X105646190Y-93803142D01*
X105646190Y-94184095D01*
X106122380Y-92660285D02*
X106122380Y-93231714D01*
X106122380Y-92946000D02*
X105122380Y-92946000D01*
X105265238Y-93041238D01*
X105360476Y-93136476D01*
X105408095Y-93231714D01*
%TO.C,R5*%
X99482380Y-57730666D02*
X99006190Y-58064000D01*
X99482380Y-58302095D02*
X98482380Y-58302095D01*
X98482380Y-57921142D01*
X98530000Y-57825904D01*
X98577619Y-57778285D01*
X98672857Y-57730666D01*
X98815714Y-57730666D01*
X98910952Y-57778285D01*
X98958571Y-57825904D01*
X99006190Y-57921142D01*
X99006190Y-58302095D01*
X98482380Y-56825904D02*
X98482380Y-57302095D01*
X98958571Y-57349714D01*
X98910952Y-57302095D01*
X98863333Y-57206857D01*
X98863333Y-56968761D01*
X98910952Y-56873523D01*
X98958571Y-56825904D01*
X99053809Y-56778285D01*
X99291904Y-56778285D01*
X99387142Y-56825904D01*
X99434761Y-56873523D01*
X99482380Y-56968761D01*
X99482380Y-57206857D01*
X99434761Y-57302095D01*
X99387142Y-57349714D01*
%TO.C,AE1*%
X103693333Y-46941666D02*
X104169523Y-46941666D01*
X103598095Y-47227380D02*
X103931428Y-46227380D01*
X104264761Y-47227380D01*
X104598095Y-46703571D02*
X104931428Y-46703571D01*
X105074285Y-47227380D02*
X104598095Y-47227380D01*
X104598095Y-46227380D01*
X105074285Y-46227380D01*
X106026666Y-47227380D02*
X105455238Y-47227380D01*
X105740952Y-47227380D02*
X105740952Y-46227380D01*
X105645714Y-46370238D01*
X105550476Y-46465476D01*
X105455238Y-46513095D01*
%TO.C,C6*%
X92487142Y-74256666D02*
X92534761Y-74304285D01*
X92582380Y-74447142D01*
X92582380Y-74542380D01*
X92534761Y-74685238D01*
X92439523Y-74780476D01*
X92344285Y-74828095D01*
X92153809Y-74875714D01*
X92010952Y-74875714D01*
X91820476Y-74828095D01*
X91725238Y-74780476D01*
X91630000Y-74685238D01*
X91582380Y-74542380D01*
X91582380Y-74447142D01*
X91630000Y-74304285D01*
X91677619Y-74256666D01*
X91582380Y-73399523D02*
X91582380Y-73590000D01*
X91630000Y-73685238D01*
X91677619Y-73732857D01*
X91820476Y-73828095D01*
X92010952Y-73875714D01*
X92391904Y-73875714D01*
X92487142Y-73828095D01*
X92534761Y-73780476D01*
X92582380Y-73685238D01*
X92582380Y-73494761D01*
X92534761Y-73399523D01*
X92487142Y-73351904D01*
X92391904Y-73304285D01*
X92153809Y-73304285D01*
X92058571Y-73351904D01*
X92010952Y-73399523D01*
X91963333Y-73494761D01*
X91963333Y-73685238D01*
X92010952Y-73780476D01*
X92058571Y-73828095D01*
X92153809Y-73875714D01*
D11*
%TO.C,U3*%
X95403904Y-67439523D02*
X96051523Y-67439523D01*
X96127714Y-67401428D01*
X96165809Y-67363333D01*
X96203904Y-67287142D01*
X96203904Y-67134761D01*
X96165809Y-67058571D01*
X96127714Y-67020476D01*
X96051523Y-66982380D01*
X95403904Y-66982380D01*
X95403904Y-66677619D02*
X95403904Y-66182380D01*
X95708666Y-66449047D01*
X95708666Y-66334761D01*
X95746761Y-66258571D01*
X95784857Y-66220476D01*
X95861047Y-66182380D01*
X96051523Y-66182380D01*
X96127714Y-66220476D01*
X96165809Y-66258571D01*
X96203904Y-66334761D01*
X96203904Y-66563333D01*
X96165809Y-66639523D01*
X96127714Y-66677619D01*
D10*
%TO.C,R4*%
X108347333Y-103302380D02*
X108014000Y-102826190D01*
X107775904Y-103302380D02*
X107775904Y-102302380D01*
X108156857Y-102302380D01*
X108252095Y-102350000D01*
X108299714Y-102397619D01*
X108347333Y-102492857D01*
X108347333Y-102635714D01*
X108299714Y-102730952D01*
X108252095Y-102778571D01*
X108156857Y-102826190D01*
X107775904Y-102826190D01*
X109204476Y-102635714D02*
X109204476Y-103302380D01*
X108966380Y-102254761D02*
X108728285Y-102969047D01*
X109347333Y-102969047D01*
D11*
%TO.C,U2*%
X99579084Y-87800904D02*
X99579084Y-89130002D01*
X99657266Y-89286366D01*
X99735448Y-89364549D01*
X99891813Y-89442731D01*
X100204542Y-89442731D01*
X100360906Y-89364549D01*
X100439088Y-89286366D01*
X100517271Y-89130002D01*
X100517271Y-87800904D01*
X101220911Y-87957268D02*
X101299093Y-87879086D01*
X101455457Y-87800904D01*
X101846369Y-87800904D01*
X102002733Y-87879086D01*
X102080915Y-87957268D01*
X102159098Y-88113633D01*
X102159098Y-88269997D01*
X102080915Y-88504544D01*
X101142728Y-89442731D01*
X102159098Y-89442731D01*
D10*
%TO.C,C13*%
X89717142Y-65717142D02*
X89669523Y-65764761D01*
X89526666Y-65812380D01*
X89431428Y-65812380D01*
X89288571Y-65764761D01*
X89193333Y-65669523D01*
X89145714Y-65574285D01*
X89098095Y-65383809D01*
X89098095Y-65240952D01*
X89145714Y-65050476D01*
X89193333Y-64955238D01*
X89288571Y-64860000D01*
X89431428Y-64812380D01*
X89526666Y-64812380D01*
X89669523Y-64860000D01*
X89717142Y-64907619D01*
X90669523Y-65812380D02*
X90098095Y-65812380D01*
X90383809Y-65812380D02*
X90383809Y-64812380D01*
X90288571Y-64955238D01*
X90193333Y-65050476D01*
X90098095Y-65098095D01*
X91002857Y-64812380D02*
X91621904Y-64812380D01*
X91288571Y-65193333D01*
X91431428Y-65193333D01*
X91526666Y-65240952D01*
X91574285Y-65288571D01*
X91621904Y-65383809D01*
X91621904Y-65621904D01*
X91574285Y-65717142D01*
X91526666Y-65764761D01*
X91431428Y-65812380D01*
X91145714Y-65812380D01*
X91050476Y-65764761D01*
X91002857Y-65717142D01*
D11*
%TO.C,Y1*%
X95752352Y-62277127D02*
X95752352Y-62734570D01*
X95432142Y-61773940D02*
X95752352Y-62277127D01*
X96072562Y-61773940D01*
X96895959Y-62734570D02*
X96347027Y-62734570D01*
X96621493Y-62734570D02*
X96621493Y-61773940D01*
X96530005Y-61911173D01*
X96438516Y-62002662D01*
X96347027Y-62048406D01*
D10*
%TO.C,R3*%
X104429333Y-100762380D02*
X104096000Y-100286190D01*
X103857904Y-100762380D02*
X103857904Y-99762380D01*
X104238857Y-99762380D01*
X104334095Y-99810000D01*
X104381714Y-99857619D01*
X104429333Y-99952857D01*
X104429333Y-100095714D01*
X104381714Y-100190952D01*
X104334095Y-100238571D01*
X104238857Y-100286190D01*
X103857904Y-100286190D01*
X104762666Y-99762380D02*
X105381714Y-99762380D01*
X105048380Y-100143333D01*
X105191238Y-100143333D01*
X105286476Y-100190952D01*
X105334095Y-100238571D01*
X105381714Y-100333809D01*
X105381714Y-100571904D01*
X105334095Y-100667142D01*
X105286476Y-100714761D01*
X105191238Y-100762380D01*
X104905523Y-100762380D01*
X104810285Y-100714761D01*
X104762666Y-100667142D01*
%TO.C,L1*%
X95692380Y-104810666D02*
X95692380Y-105286857D01*
X94692380Y-105286857D01*
X95692380Y-103953523D02*
X95692380Y-104524952D01*
X95692380Y-104239238D02*
X94692380Y-104239238D01*
X94835238Y-104334476D01*
X94930476Y-104429714D01*
X94978095Y-104524952D01*
%TO.C,C10*%
X98962142Y-74002142D02*
X98914523Y-74049761D01*
X98771666Y-74097380D01*
X98676428Y-74097380D01*
X98533571Y-74049761D01*
X98438333Y-73954523D01*
X98390714Y-73859285D01*
X98343095Y-73668809D01*
X98343095Y-73525952D01*
X98390714Y-73335476D01*
X98438333Y-73240238D01*
X98533571Y-73145000D01*
X98676428Y-73097380D01*
X98771666Y-73097380D01*
X98914523Y-73145000D01*
X98962142Y-73192619D01*
X99914523Y-74097380D02*
X99343095Y-74097380D01*
X99628809Y-74097380D02*
X99628809Y-73097380D01*
X99533571Y-73240238D01*
X99438333Y-73335476D01*
X99343095Y-73383095D01*
X100533571Y-73097380D02*
X100628809Y-73097380D01*
X100724047Y-73145000D01*
X100771666Y-73192619D01*
X100819285Y-73287857D01*
X100866904Y-73478333D01*
X100866904Y-73716428D01*
X100819285Y-73906904D01*
X100771666Y-74002142D01*
X100724047Y-74049761D01*
X100628809Y-74097380D01*
X100533571Y-74097380D01*
X100438333Y-74049761D01*
X100390714Y-74002142D01*
X100343095Y-73906904D01*
X100295476Y-73716428D01*
X100295476Y-73478333D01*
X100343095Y-73287857D01*
X100390714Y-73192619D01*
X100438333Y-73145000D01*
X100533571Y-73097380D01*
%TO.C,D1*%
X94979404Y-98332380D02*
X94979404Y-97332380D01*
X95217500Y-97332380D01*
X95360357Y-97380000D01*
X95455595Y-97475238D01*
X95503214Y-97570476D01*
X95550833Y-97760952D01*
X95550833Y-97903809D01*
X95503214Y-98094285D01*
X95455595Y-98189523D01*
X95360357Y-98284761D01*
X95217500Y-98332380D01*
X94979404Y-98332380D01*
X96503214Y-98332380D02*
X95931785Y-98332380D01*
X96217500Y-98332380D02*
X96217500Y-97332380D01*
X96122261Y-97475238D01*
X96027023Y-97570476D01*
X95931785Y-97618095D01*
%TO.C,C11*%
X96247142Y-61247142D02*
X96199523Y-61294761D01*
X96056666Y-61342380D01*
X95961428Y-61342380D01*
X95818571Y-61294761D01*
X95723333Y-61199523D01*
X95675714Y-61104285D01*
X95628095Y-60913809D01*
X95628095Y-60770952D01*
X95675714Y-60580476D01*
X95723333Y-60485238D01*
X95818571Y-60390000D01*
X95961428Y-60342380D01*
X96056666Y-60342380D01*
X96199523Y-60390000D01*
X96247142Y-60437619D01*
X97199523Y-61342380D02*
X96628095Y-61342380D01*
X96913809Y-61342380D02*
X96913809Y-60342380D01*
X96818571Y-60485238D01*
X96723333Y-60580476D01*
X96628095Y-60628095D01*
X98151904Y-61342380D02*
X97580476Y-61342380D01*
X97866190Y-61342380D02*
X97866190Y-60342380D01*
X97770952Y-60485238D01*
X97675714Y-60580476D01*
X97580476Y-60628095D01*
%TO.C,C14*%
X95997142Y-55387142D02*
X95949523Y-55434761D01*
X95806666Y-55482380D01*
X95711428Y-55482380D01*
X95568571Y-55434761D01*
X95473333Y-55339523D01*
X95425714Y-55244285D01*
X95378095Y-55053809D01*
X95378095Y-54910952D01*
X95425714Y-54720476D01*
X95473333Y-54625238D01*
X95568571Y-54530000D01*
X95711428Y-54482380D01*
X95806666Y-54482380D01*
X95949523Y-54530000D01*
X95997142Y-54577619D01*
X96949523Y-55482380D02*
X96378095Y-55482380D01*
X96663809Y-55482380D02*
X96663809Y-54482380D01*
X96568571Y-54625238D01*
X96473333Y-54720476D01*
X96378095Y-54768095D01*
X97806666Y-54815714D02*
X97806666Y-55482380D01*
X97568571Y-54434761D02*
X97330476Y-55149047D01*
X97949523Y-55149047D01*
D11*
%TO.C,CON1*%
X110857171Y-69180142D02*
X110887647Y-69210619D01*
X110918123Y-69302047D01*
X110918123Y-69363000D01*
X110887647Y-69454428D01*
X110826695Y-69515380D01*
X110765742Y-69545857D01*
X110643838Y-69576333D01*
X110552409Y-69576333D01*
X110430504Y-69545857D01*
X110369552Y-69515380D01*
X110308600Y-69454428D01*
X110278123Y-69363000D01*
X110278123Y-69302047D01*
X110308600Y-69210619D01*
X110339076Y-69180142D01*
X110278123Y-68783952D02*
X110278123Y-68662047D01*
X110308600Y-68601095D01*
X110369552Y-68540142D01*
X110491457Y-68509666D01*
X110704790Y-68509666D01*
X110826695Y-68540142D01*
X110887647Y-68601095D01*
X110918123Y-68662047D01*
X110918123Y-68783952D01*
X110887647Y-68844904D01*
X110826695Y-68905857D01*
X110704790Y-68936333D01*
X110491457Y-68936333D01*
X110369552Y-68905857D01*
X110308600Y-68844904D01*
X110278123Y-68783952D01*
X110918123Y-68235380D02*
X110278123Y-68235380D01*
X110918123Y-67869666D01*
X110278123Y-67869666D01*
X110918123Y-67229666D02*
X110918123Y-67595380D01*
X110918123Y-67412523D02*
X110278123Y-67412523D01*
X110369552Y-67473476D01*
X110430504Y-67534428D01*
X110460980Y-67595380D01*
D10*
%TO.C,C5*%
X95777142Y-71946666D02*
X95824761Y-71994285D01*
X95872380Y-72137142D01*
X95872380Y-72232380D01*
X95824761Y-72375238D01*
X95729523Y-72470476D01*
X95634285Y-72518095D01*
X95443809Y-72565714D01*
X95300952Y-72565714D01*
X95110476Y-72518095D01*
X95015238Y-72470476D01*
X94920000Y-72375238D01*
X94872380Y-72232380D01*
X94872380Y-72137142D01*
X94920000Y-71994285D01*
X94967619Y-71946666D01*
X94872380Y-71041904D02*
X94872380Y-71518095D01*
X95348571Y-71565714D01*
X95300952Y-71518095D01*
X95253333Y-71422857D01*
X95253333Y-71184761D01*
X95300952Y-71089523D01*
X95348571Y-71041904D01*
X95443809Y-70994285D01*
X95681904Y-70994285D01*
X95777142Y-71041904D01*
X95824761Y-71089523D01*
X95872380Y-71184761D01*
X95872380Y-71422857D01*
X95824761Y-71518095D01*
X95777142Y-71565714D01*
D12*
%TO.C,C12*%
X94490000Y-61000000D02*
X93855000Y-61000000D01*
X93220000Y-61000000D02*
X93220000Y-58460000D01*
X93220000Y-58460000D02*
X94490000Y-58460000D01*
X94490000Y-58460000D02*
X94490000Y-61000000D01*
X93855000Y-61000000D02*
X93220000Y-61000000D01*
%TO.C,C3*%
X99890000Y-83990000D02*
X99890000Y-86530000D01*
X98620000Y-83990000D02*
X99890000Y-83990000D01*
X99255000Y-86530000D02*
X98620000Y-86530000D01*
X99890000Y-86530000D02*
X99255000Y-86530000D01*
X98620000Y-86530000D02*
X98620000Y-83990000D01*
%TO.C,con1*%
X91770000Y-108185000D02*
X104470000Y-108185000D01*
X104470000Y-108185000D02*
X104470000Y-119615000D01*
X91770000Y-118345000D02*
X91770000Y-108185000D01*
D13*
X94270000Y-118705000D02*
X101970000Y-118705000D01*
X101970000Y-111947000D02*
X101970000Y-114435000D01*
D12*
X104470000Y-119615000D02*
X91770000Y-119615000D01*
D13*
X94270000Y-111947000D02*
X94270000Y-114435000D01*
D12*
X91770000Y-119615000D02*
X91770000Y-118345000D01*
D13*
X96527260Y-108684000D02*
G75*
G03*
X96527260Y-108684000I-48260J0D01*
G01*
D12*
%TO.C,U1*%
X101277500Y-102152500D02*
X98102500Y-102152500D01*
X98102500Y-98342500D02*
X101277500Y-98342500D01*
X98102500Y-102152500D02*
X98102500Y-98342500D01*
X101277500Y-98342500D02*
X101277500Y-98977500D01*
X101277500Y-98342500D02*
X101277500Y-102152500D01*
D14*
X100662500Y-99757500D02*
G75*
G03*
X100662500Y-99757500I-80000J0D01*
G01*
X100662500Y-97947500D02*
G75*
G03*
X100662500Y-97947500I-80000J0D01*
G01*
D12*
%TO.C,C4*%
X97980000Y-86530000D02*
X97345000Y-86530000D01*
X97345000Y-86530000D02*
X96710000Y-86530000D01*
X97980000Y-83990000D02*
X97980000Y-86530000D01*
X96710000Y-83990000D02*
X97980000Y-83990000D01*
X96710000Y-86530000D02*
X96710000Y-83990000D01*
%TO.C,R2*%
X100945000Y-95965000D02*
X103485000Y-95965000D01*
X103485000Y-95965000D02*
X103485000Y-96600000D01*
X100945000Y-97235000D02*
X100945000Y-95965000D01*
X103485000Y-96600000D02*
X103485000Y-97235000D01*
X103485000Y-97235000D02*
X100945000Y-97235000D01*
%TO.C,C1*%
X93840000Y-95080000D02*
X93840000Y-93810000D01*
X93840000Y-93810000D02*
X96380000Y-93810000D01*
X96380000Y-93810000D02*
X96380000Y-94445000D01*
X96380000Y-95080000D02*
X93840000Y-95080000D01*
X96380000Y-94445000D02*
X96380000Y-95080000D01*
%TO.C,C7*%
X96725000Y-75545000D02*
X96725000Y-73005000D01*
X96725000Y-73005000D02*
X97995000Y-73005000D01*
X97360000Y-75545000D02*
X96725000Y-75545000D01*
X97995000Y-75545000D02*
X97360000Y-75545000D01*
X97995000Y-73005000D02*
X97995000Y-75545000D01*
%TO.C,C2*%
X103770000Y-90550000D02*
X103770000Y-88010000D01*
X105040000Y-90550000D02*
X104405000Y-90550000D01*
X103770000Y-88010000D02*
X105040000Y-88010000D01*
X104405000Y-90550000D02*
X103770000Y-90550000D01*
X105040000Y-88010000D02*
X105040000Y-90550000D01*
%TO.C,C8*%
X94960000Y-69660000D02*
X92420000Y-69660000D01*
X94960000Y-68390000D02*
X94960000Y-69660000D01*
X92420000Y-69025000D02*
X92420000Y-68390000D01*
X92420000Y-69660000D02*
X92420000Y-69025000D01*
X92420000Y-68390000D02*
X94960000Y-68390000D01*
%TO.C,R1*%
X104400000Y-91795000D02*
X105035000Y-91795000D01*
X105035000Y-94335000D02*
X103765000Y-94335000D01*
X103765000Y-94335000D02*
X103765000Y-91795000D01*
X103765000Y-91795000D02*
X104400000Y-91795000D01*
X105035000Y-91795000D02*
X105035000Y-94335000D01*
%TO.C,R5*%
X99665000Y-56675000D02*
X100935000Y-56675000D01*
X100300000Y-59215000D02*
X99665000Y-59215000D01*
X100935000Y-56675000D02*
X100935000Y-59215000D01*
X99665000Y-59215000D02*
X99665000Y-56675000D01*
X100935000Y-59215000D02*
X100300000Y-59215000D01*
%TO.C,C6*%
X92895000Y-72955000D02*
X94165000Y-72955000D01*
X94165000Y-72955000D02*
X94165000Y-75495000D01*
X92895000Y-75495000D02*
X92895000Y-72955000D01*
X93530000Y-75495000D02*
X92895000Y-75495000D01*
X94165000Y-75495000D02*
X93530000Y-75495000D01*
D15*
%TO.C,U3*%
X97050000Y-69870000D02*
X97420000Y-69870000D01*
X97050000Y-69500000D02*
X97050000Y-69870000D01*
X103050000Y-63870000D02*
X102680000Y-63870000D01*
X102680000Y-69870000D02*
X103050000Y-69870000D01*
X97420000Y-63870000D02*
X97050000Y-63870000D01*
X97050000Y-63870000D02*
X97050000Y-64240000D01*
X103050000Y-64240000D02*
X103050000Y-63870000D01*
X103050000Y-69870000D02*
X103050000Y-69500000D01*
D13*
X97950000Y-70770000D02*
G75*
G03*
X97950000Y-70770000I-100000J0D01*
G01*
D12*
%TO.C,R4*%
X110165000Y-102215000D02*
X107625000Y-102215000D01*
X107625000Y-100945000D02*
X110165000Y-100945000D01*
X110165000Y-101580000D02*
X110165000Y-102215000D01*
X110165000Y-100945000D02*
X110165000Y-101580000D01*
X107625000Y-102215000D02*
X107625000Y-100945000D01*
D16*
%TO.C,U2*%
X100654800Y-89605200D02*
X97505200Y-89605200D01*
X97505200Y-92754800D02*
X100654800Y-92754800D01*
D12*
%TO.C,C13*%
X92460000Y-64695000D02*
X93095000Y-64695000D01*
X93095000Y-64695000D02*
X93095000Y-67235000D01*
X91825000Y-67235000D02*
X91825000Y-64695000D01*
X91825000Y-64695000D02*
X92460000Y-64695000D01*
X93095000Y-67235000D02*
X91825000Y-67235000D01*
%TO.C,R3*%
X105485000Y-102215000D02*
X102945000Y-102215000D01*
X102945000Y-102215000D02*
X102945000Y-101580000D01*
X105485000Y-100945000D02*
X105485000Y-102215000D01*
X102945000Y-100945000D02*
X105485000Y-100945000D01*
X102945000Y-101580000D02*
X102945000Y-100945000D01*
%TO.C,L1*%
X97145000Y-103755000D02*
X97145000Y-106295000D01*
X95875000Y-106295000D02*
X95875000Y-103755000D01*
X97145000Y-106295000D02*
X96510000Y-106295000D01*
X95875000Y-103755000D02*
X97145000Y-103755000D01*
X96510000Y-106295000D02*
X95875000Y-106295000D01*
%TO.C,C10*%
X98970000Y-73010000D02*
X98970000Y-71740000D01*
X101510000Y-72375000D02*
X101510000Y-73010000D01*
X101510000Y-73010000D02*
X98970000Y-73010000D01*
X101510000Y-71740000D02*
X101510000Y-72375000D01*
X98970000Y-71740000D02*
X101510000Y-71740000D01*
%TO.C,D1*%
X97402500Y-95925000D02*
X94917500Y-95925000D01*
X97402500Y-97295000D02*
X97402500Y-95925000D01*
X94917500Y-97295000D02*
X97402500Y-97295000D01*
%TO.C,C11*%
X98375000Y-60205000D02*
X100915000Y-60205000D01*
X100915000Y-60205000D02*
X100915000Y-60840000D01*
X98375000Y-61475000D02*
X98375000Y-60205000D01*
X100915000Y-61475000D02*
X98375000Y-61475000D01*
X100915000Y-60840000D02*
X100915000Y-61475000D01*
%TO.C,C14*%
X100905000Y-55665000D02*
X98365000Y-55665000D01*
X98365000Y-55665000D02*
X98365000Y-54395000D01*
X100905000Y-54395000D02*
X100905000Y-55030000D01*
X98365000Y-54395000D02*
X100905000Y-54395000D01*
X100905000Y-55030000D02*
X100905000Y-55665000D01*
D13*
%TO.C,CON1*%
X112320000Y-64720000D02*
X112320000Y-64085000D01*
X115750000Y-70435000D02*
X115550000Y-70435000D01*
X115750000Y-64085000D02*
X115550000Y-64085000D01*
X115750000Y-64720000D02*
X115750000Y-64085000D01*
X112320000Y-69800000D02*
X111495000Y-69800000D01*
X116575000Y-69800000D02*
X116575000Y-64720000D01*
X112320000Y-70435000D02*
X112320000Y-69800000D01*
X112320000Y-64085000D02*
X112520000Y-64085000D01*
X116575000Y-64720000D02*
X115750000Y-64720000D01*
X111495000Y-64720000D02*
X112320000Y-64720000D01*
X111495000Y-69800000D02*
X111495000Y-64720000D01*
X115750000Y-69800000D02*
X116575000Y-69800000D01*
X112320000Y-70435000D02*
X112520000Y-70435000D01*
X115750000Y-70435000D02*
X115750000Y-69800000D01*
X114735000Y-71025000D02*
G75*
G03*
X114735000Y-71025000I-100000J0D01*
G01*
D12*
%TO.C,C5*%
X94760000Y-73000000D02*
X96030000Y-73000000D01*
X95395000Y-75540000D02*
X94760000Y-75540000D01*
X96030000Y-73000000D02*
X96030000Y-75540000D01*
X96030000Y-75540000D02*
X95395000Y-75540000D01*
X94760000Y-75540000D02*
X94760000Y-73000000D01*
%TD*%
M02*
