%TF.GenerationSoftware,KiCad,Pcbnew,(5.99.0-10483-ga6ad7a4a70)*%
%TF.CreationDate,2021-05-18T08:29:19+02:00*%
%TF.ProjectId,quadkey,71756164-6b65-4792-9e6b-696361645f70,rev?*%
%TF.SameCoordinates,Original*%
%TF.FileFunction,Soldermask,Top*%
%TF.FilePolarity,Negative*%
%FSLAX46Y46*%
G04 Gerber Fmt 4.6, Leading zero omitted, Abs format (unit mm)*
G04 Created by KiCad (PCBNEW (5.99.0-10483-ga6ad7a4a70)) date 2021-05-18 08:29:19*
%MOMM*%
%LPD*%
G01*
G04 APERTURE LIST*
G04 Aperture macros list*
%AMRoundRect*
0 Rectangle with rounded corners*
0 $1 Rounding radius*
0 $2 $3 $4 $5 $6 $7 $8 $9 X,Y pos of 4 corners*
0 Add a 4 corners polygon primitive as box body*
4,1,4,$2,$3,$4,$5,$6,$7,$8,$9,$2,$3,0*
0 Add four circle primitives for the rounded corners*
1,1,$1+$1,$2,$3*
1,1,$1+$1,$4,$5*
1,1,$1+$1,$6,$7*
1,1,$1+$1,$8,$9*
0 Add four rect primitives between the rounded corners*
20,1,$1+$1,$2,$3,$4,$5,0*
20,1,$1+$1,$4,$5,$6,$7,0*
20,1,$1+$1,$6,$7,$8,$9,0*
20,1,$1+$1,$8,$9,$2,$3,0*%
G04 Aperture macros list end*
%ADD10RoundRect,0.250000X0.250000X0.300000X-0.250000X0.300000X-0.250000X-0.300000X0.250000X-0.300000X0*%
%ADD11C,2.374900*%
%ADD12C,0.990600*%
%ADD13C,0.787400*%
%ADD14R,1.210000X1.010000*%
%ADD15RoundRect,0.137500X-0.137500X-0.262500X0.137500X-0.262500X0.137500X0.262500X-0.137500X0.262500X0*%
%ADD16R,0.550000X0.800000*%
%ADD17RoundRect,0.250000X-0.300000X0.250000X-0.300000X-0.250000X0.300000X-0.250000X0.300000X0.250000X0*%
%ADD18RoundRect,0.050000X-0.199390X-0.674370X0.199390X-0.674370X0.199390X0.674370X-0.199390X0.674370X0*%
%ADD19RoundRect,0.050000X-1.049020X-0.798830X1.049020X-0.798830X1.049020X0.798830X-1.049020X0.798830X0*%
%ADD20RoundRect,0.050000X-0.899160X-0.949960X0.899160X-0.949960X0.899160X0.949960X-0.899160X0.949960X0*%
%ADD21RoundRect,0.050000X-0.949960X-0.949960X0.949960X-0.949960X0.949960X0.949960X-0.949960X0.949960X0*%
%ADD22RoundRect,0.250000X0.300000X-0.250000X0.300000X0.250000X-0.300000X0.250000X-0.300000X-0.250000X0*%
%ADD23RoundRect,0.250000X-0.250000X-0.300000X0.250000X-0.300000X0.250000X0.300000X-0.250000X0.300000X0*%
%ADD24R,0.220000X0.810000*%
%ADD25R,0.810000X0.220000*%
%ADD26R,4.600000X4.600000*%
%ADD27R,0.812800X0.304800*%
%ADD28R,1.651000X2.387600*%
%ADD29RoundRect,0.212500X0.400000X0.212500X-0.400000X0.212500X-0.400000X-0.212500X0.400000X-0.212500X0*%
%ADD30R,3.200000X1.000000*%
G04 APERTURE END LIST*
D10*
%TO.C,C12*%
X93855000Y-60365000D03*
X93855000Y-59095000D03*
%TD*%
%TO.C,C3*%
X99255000Y-85895000D03*
X99255000Y-84625000D03*
%TD*%
D11*
%TO.C,CON1*%
X111450000Y-62730000D03*
D12*
X112974000Y-70350000D03*
D11*
X111450000Y-68445000D03*
D12*
X113990000Y-62730000D03*
X115006000Y-70350000D03*
D11*
X116530000Y-68445000D03*
X116530000Y-62730000D03*
D13*
X113355000Y-64000000D03*
X113355000Y-65270000D03*
X113355000Y-66540000D03*
X113355000Y-67810000D03*
X113355000Y-69080000D03*
X114625000Y-69080000D03*
X114625000Y-67810000D03*
X114625000Y-66540000D03*
X114625000Y-65270000D03*
X114625000Y-64000000D03*
%TD*%
D14*
%TO.C,Y1*%
X91880000Y-63700000D03*
X94240000Y-63700000D03*
X94240000Y-61840000D03*
X91880000Y-61840000D03*
%TD*%
D15*
%TO.C,U1*%
X100642500Y-98977500D03*
D16*
X99692500Y-98977500D03*
X98742500Y-98977500D03*
X98742500Y-101577500D03*
X100642500Y-101577500D03*
%TD*%
D10*
%TO.C,C4*%
X97345000Y-85895000D03*
X97345000Y-84625000D03*
%TD*%
D17*
%TO.C,R2*%
X102850000Y-96600000D03*
X101580000Y-96600000D03*
%TD*%
%TO.C,C1*%
X95745000Y-94445000D03*
X94475000Y-94445000D03*
%TD*%
D18*
%TO.C,J1*%
X96822060Y-113718801D03*
X97472300Y-113718801D03*
X98120000Y-113718801D03*
X98767700Y-113718801D03*
X99417940Y-113718801D03*
D19*
X101218800Y-113843261D03*
D20*
X94320160Y-116390881D03*
X101919840Y-116390881D03*
D19*
X95021200Y-113843261D03*
D21*
X99318880Y-116390881D03*
X96921120Y-116390881D03*
%TD*%
D10*
%TO.C,C7*%
X97360000Y-74910000D03*
X97360000Y-73640000D03*
%TD*%
%TO.C,C2*%
X104405000Y-89915000D03*
X104405000Y-88645000D03*
%TD*%
D22*
%TO.C,C8*%
X93055000Y-69025000D03*
X94325000Y-69025000D03*
%TD*%
D23*
%TO.C,R1*%
X104400000Y-92430000D03*
X104400000Y-93700000D03*
%TD*%
D10*
%TO.C,R5*%
X100300000Y-58580000D03*
X100300000Y-57310000D03*
%TD*%
%TO.C,C6*%
X93530000Y-74860000D03*
X93530000Y-73590000D03*
%TD*%
D24*
%TO.C,U3*%
X97850000Y-69820000D03*
X98250000Y-69820000D03*
X98650000Y-69820000D03*
X99050000Y-69820000D03*
X99450000Y-69820000D03*
X99850000Y-69820000D03*
X100250000Y-69820000D03*
X100650000Y-69820000D03*
X101050000Y-69820000D03*
X101450000Y-69820000D03*
X101850000Y-69820000D03*
X102250000Y-69820000D03*
D25*
X103000000Y-69070000D03*
X103000000Y-68670000D03*
X103000000Y-68270000D03*
X103000000Y-67870000D03*
X103000000Y-67470000D03*
X103000000Y-67070000D03*
X103000000Y-66670000D03*
X103000000Y-66270000D03*
X103000000Y-65870000D03*
X103000000Y-65470000D03*
X103000000Y-65070000D03*
X103000000Y-64670000D03*
D24*
X102250000Y-63920000D03*
X101850000Y-63920000D03*
X101450000Y-63920000D03*
X101050000Y-63920000D03*
X100650000Y-63920000D03*
X100250000Y-63920000D03*
X99850000Y-63920000D03*
X99450000Y-63920000D03*
X99050000Y-63920000D03*
X98650000Y-63920000D03*
X98250000Y-63920000D03*
X97850000Y-63920000D03*
D25*
X97100000Y-64670000D03*
X97100000Y-65070000D03*
X97100000Y-65470000D03*
X97100000Y-65870000D03*
X97100000Y-66270000D03*
X97100000Y-66670000D03*
X97100000Y-67070000D03*
X97100000Y-67470000D03*
X97100000Y-67870000D03*
X97100000Y-68270000D03*
X97100000Y-68670000D03*
X97100000Y-69070000D03*
D26*
X100050000Y-66870000D03*
%TD*%
D17*
%TO.C,R4*%
X109530000Y-101580000D03*
X108260000Y-101580000D03*
%TD*%
D27*
%TO.C,U2*%
X97606800Y-90189400D03*
X97606800Y-90672000D03*
X97606800Y-91180000D03*
X97606800Y-91688000D03*
X97606800Y-92170600D03*
X100553200Y-92170600D03*
X100553200Y-91688000D03*
X100553200Y-91180000D03*
X100553200Y-90672000D03*
X100553200Y-90189400D03*
D28*
X99080000Y-91180000D03*
%TD*%
D17*
%TO.C,C13*%
X92185000Y-66425000D03*
X90915000Y-66425000D03*
%TD*%
D22*
%TO.C,R3*%
X103580000Y-101580000D03*
X104850000Y-101580000D03*
%TD*%
D10*
%TO.C,L1*%
X96510000Y-105660000D03*
X96510000Y-104390000D03*
%TD*%
D17*
%TO.C,C10*%
X100875000Y-72375000D03*
X99605000Y-72375000D03*
%TD*%
D29*
%TO.C,D1*%
X96530000Y-96610000D03*
X94905000Y-96610000D03*
%TD*%
D17*
%TO.C,C11*%
X100280000Y-60840000D03*
X99010000Y-60840000D03*
%TD*%
%TO.C,C14*%
X100270000Y-55030000D03*
X99000000Y-55030000D03*
%TD*%
D30*
%TO.C,L2*%
X94170000Y-92100000D03*
X94170000Y-89900000D03*
%TD*%
D10*
%TO.C,C5*%
X95395000Y-74905000D03*
X95395000Y-73635000D03*
%TD*%
M02*
