%TF.GenerationSoftware,KiCad,Pcbnew,(5.99.0-10117-g2c3ee0d85f)*%
%TF.CreationDate,2021-04-28T15:25:11+02:00*%
%TF.ProjectId,som asset tracker,736f6d20-6173-4736-9574-20747261636b,rev?*%
%TF.SameCoordinates,Original*%
%TF.FileFunction,Copper,L2,Bot*%
%TF.FilePolarity,Positive*%
%FSLAX46Y46*%
G04 Gerber Fmt 4.6, Leading zero omitted, Abs format (unit mm)*
G04 Created by KiCad (PCBNEW (5.99.0-10117-g2c3ee0d85f)) date 2021-04-28 15:25:11*
%MOMM*%
%LPD*%
G01*
G04 APERTURE LIST*
%TA.AperFunction,ComponentPad*%
%ADD10R,2.000000X2.000000*%
%TD*%
%TA.AperFunction,ComponentPad*%
%ADD11C,2.000000*%
%TD*%
%TA.AperFunction,ComponentPad*%
%ADD12C,1.500000*%
%TD*%
%TA.AperFunction,ComponentPad*%
%ADD13C,1.700000*%
%TD*%
%TA.AperFunction,ViaPad*%
%ADD14C,0.600000*%
%TD*%
%TA.AperFunction,Conductor*%
%ADD15C,0.250000*%
%TD*%
%TA.AperFunction,Conductor*%
%ADD16C,0.150000*%
%TD*%
G04 APERTURE END LIST*
D10*
%TO.P,J2,1,Pin_1*%
%TO.N,Net-(J2-Pad1)*%
X168115000Y-66175000D03*
D11*
%TO.P,J2,2,Pin_2*%
%TO.N,GND*%
X163115000Y-66175000D03*
%TD*%
D12*
%TO.P,U2,1,IN*%
%TO.N,VDC*%
X130910000Y-70850000D03*
%TO.P,U2,2,GND*%
%TO.N,GND*%
X133450000Y-70850000D03*
%TO.P,U2,3,OUT*%
%TO.N,+3V3*%
X135990000Y-70850000D03*
%TD*%
%TO.P,J5,1,Pin_1*%
%TO.N,/LED1*%
X159170000Y-92050000D03*
%TO.P,J5,2,Pin_2*%
%TO.N,/LED2*%
X161710000Y-92050000D03*
%TO.P,J5,3,Pin_3*%
%TO.N,/LED3*%
X164250000Y-92050000D03*
%TO.P,J5,4,Pin_4*%
%TO.N,/SSR*%
X166790000Y-92050000D03*
%TO.P,J5,5,Pin_5*%
%TO.N,/BUZZER*%
X169330000Y-92050000D03*
%TD*%
D10*
%TO.P,J1,1,Pin_1*%
%TO.N,GND*%
X108115000Y-75885000D03*
D11*
%TO.P,J1,2,Pin_2*%
%TO.N,Net-(J1-Pad2)*%
X108115000Y-70885000D03*
%TD*%
D12*
%TO.P,J3,1,Pin_1*%
%TO.N,GND*%
X195190000Y-80350000D03*
%TO.P,J3,2,Pin_2*%
X195190000Y-77810000D03*
%TO.P,J3,3,Pin_3*%
X195190000Y-75270000D03*
%TO.P,J3,4,Pin_4*%
X195190000Y-72730000D03*
%TO.P,J3,5,Pin_5*%
X195190000Y-70190000D03*
%TD*%
%TO.P,AE1,1,A*%
%TO.N,Net-(AE1-Pad1)*%
X131130000Y-150700000D03*
D13*
%TO.P,AE1,2,Shield*%
%TO.N,GND*%
X133630000Y-148200000D03*
X128530000Y-148200000D03*
X128530000Y-153300000D03*
X133630000Y-153300000D03*
%TD*%
D12*
%TO.P,J7,1,Pin_1*%
%TO.N,/SCL*%
X117960000Y-93020000D03*
%TO.P,J7,2,Pin_2*%
%TO.N,/SDA*%
X120500000Y-93020000D03*
%TD*%
%TO.P,J6,1,Pin_1*%
%TO.N,/INT1*%
X141030000Y-82000000D03*
%TO.P,J6,2,Pin_2*%
%TO.N,/INT2*%
X143570000Y-82000000D03*
%TD*%
%TO.P,J4,1,Pin_1*%
%TO.N,/TX*%
X145360000Y-118380000D03*
%TO.P,J4,2,Pin_2*%
%TO.N,/RX*%
X145360000Y-115840000D03*
%TO.P,J4,3,Pin_3*%
%TO.N,/PPS*%
X145360000Y-113300000D03*
%TO.P,J4,4,Pin_4*%
%TO.N,/WAKE*%
X145360000Y-110760000D03*
%TO.P,J4,5,Pin_5*%
%TO.N,/RESET*%
X145360000Y-108220000D03*
%TD*%
D14*
%TO.N,GND*%
X148770000Y-153420000D03*
X100050000Y-93500000D03*
X187380000Y-109310000D03*
X154250000Y-149240000D03*
X132540000Y-136760000D03*
X164880000Y-75550000D03*
X155380000Y-140870000D03*
X106750000Y-112270000D03*
X120110000Y-80600000D03*
X128750000Y-122350000D03*
X189310000Y-115830000D03*
X121520000Y-120230000D03*
X145420000Y-137490000D03*
X109620000Y-93030000D03*
X106480000Y-140270000D03*
X192750000Y-139300000D03*
X162395000Y-117995000D03*
X155840000Y-127760000D03*
X137675000Y-89175000D03*
X195340000Y-100300000D03*
X129110000Y-137120000D03*
X191700000Y-124910000D03*
X139820000Y-116970000D03*
X128520000Y-134300000D03*
X139300000Y-91400000D03*
X187750000Y-151700000D03*
%TO.N,Net-(BT1-Pad1)*%
X130030000Y-130130000D03*
X122760000Y-130260000D03*
%TO.N,/SOM/TRST*%
X192920000Y-117320000D03*
X184420000Y-104890000D03*
%TO.N,/SOM/TDI*%
X188020000Y-103650000D03*
X190000000Y-113980000D03*
%TO.N,/SOM/TDO*%
X186010000Y-104830000D03*
X195300000Y-113040000D03*
%TO.N,/SOM/TCK*%
X189130000Y-106050000D03*
X191370000Y-109350000D03*
%TO.N,Net-(J1-Pad2)*%
X118600000Y-72030000D03*
X121650000Y-74830000D03*
%TO.N,/INT2*%
X162800000Y-94650000D03*
X175350000Y-105650000D03*
X163450000Y-97550000D03*
X143525000Y-87925000D03*
X160650000Y-94800000D03*
%TO.N,/INT1*%
X137650000Y-86650000D03*
X155150000Y-105450000D03*
%TO.N,/BUZZER*%
X169420000Y-99690000D03*
X169490000Y-108240000D03*
%TO.N,/SSR*%
X162260000Y-105180000D03*
%TO.N,/LED3*%
X167250000Y-102440000D03*
X167380000Y-106860000D03*
%TO.N,/LED2*%
X165350000Y-105630000D03*
X165120000Y-102610000D03*
%TO.N,/LED1*%
X163390000Y-105900000D03*
X163380000Y-102730000D03*
X161190000Y-102160000D03*
%TO.N,/RESET*%
X127910000Y-114320000D03*
X135160000Y-110980000D03*
X181370000Y-114280000D03*
%TO.N,/WAKE*%
X132040000Y-112270000D03*
X134600000Y-112310000D03*
%TO.N,/RX*%
X192000000Y-132790000D03*
X134330000Y-119250000D03*
%TO.N,/TX*%
X192760000Y-131150000D03*
X135310000Y-119250000D03*
%TO.N,/SDA*%
X186350000Y-128810000D03*
X113640000Y-92170000D03*
X114140000Y-95280000D03*
X149070000Y-116510000D03*
X149130000Y-105860000D03*
X136200000Y-95000000D03*
%TO.N,/SCL*%
X118050000Y-100700000D03*
X191270000Y-126980000D03*
X134930000Y-123620000D03*
X152890000Y-123560000D03*
%TO.N,/SOM/RED*%
X183660000Y-96400000D03*
X182390000Y-116200000D03*
%TO.N,/SOM/GREEN*%
X179890000Y-135160000D03*
X191450000Y-144900000D03*
%TO.N,/SOM/BLUE*%
X184250000Y-86910000D03*
X182550000Y-95970000D03*
%TO.N,/gps/ANT_OFF*%
X130930000Y-124640000D03*
X132710000Y-137830000D03*
%TO.N,VCC*%
X132040000Y-127900000D03*
X132350000Y-135660000D03*
%TD*%
D15*
%TO.N,Net-(BT1-Pad1)*%
X129900000Y-130260000D02*
X130030000Y-130130000D01*
X122760000Y-130260000D02*
X129900000Y-130260000D01*
%TO.N,/SOM/TRST*%
X185260000Y-116530000D02*
X186050000Y-117320000D01*
X186050000Y-117320000D02*
X192920000Y-117320000D01*
X184420000Y-115690000D02*
X185260000Y-116530000D01*
X184420000Y-104890000D02*
X184420000Y-115690000D01*
%TO.N,/SOM/TDI*%
X188020000Y-112000000D02*
X190000000Y-113980000D01*
X188020000Y-103650000D02*
X188020000Y-112000000D01*
%TO.N,/SOM/TDO*%
X189599507Y-114554501D02*
X186010000Y-110964994D01*
X193785499Y-114554501D02*
X189599507Y-114554501D01*
X195280000Y-113060000D02*
X193785499Y-114554501D01*
X186010000Y-110964994D02*
X186010000Y-104830000D01*
D16*
X195280000Y-113060000D02*
X195300000Y-113040000D01*
D15*
%TO.N,/SOM/TCK*%
X189130000Y-108340000D02*
X190140000Y-109350000D01*
X190140000Y-109350000D02*
X191370000Y-109350000D01*
X189130000Y-106050000D02*
X189130000Y-108340000D01*
%TO.N,Net-(J1-Pad2)*%
X118850000Y-72030000D02*
X118600000Y-72030000D01*
X121650000Y-74830000D02*
X118850000Y-72030000D01*
%TO.N,/INT2*%
X162800000Y-94650000D02*
X160800000Y-94650000D01*
X175350000Y-101000000D02*
X171900000Y-97550000D01*
X171900000Y-97550000D02*
X163450000Y-97550000D01*
X160800000Y-94650000D02*
X160650000Y-94800000D01*
X175350000Y-105650000D02*
X175350000Y-101000000D01*
%TO.N,/INT1*%
X155150000Y-87400000D02*
X154350000Y-86600000D01*
D16*
X137700000Y-86600000D02*
X137650000Y-86650000D01*
D15*
X155150000Y-105450000D02*
X155150000Y-87400000D01*
X154350000Y-86600000D02*
X137700000Y-86600000D01*
%TO.N,/BUZZER*%
X169420000Y-99690000D02*
X169420000Y-108170000D01*
X169420000Y-108170000D02*
X169490000Y-108240000D01*
%TO.N,/SSR*%
X162260000Y-96580000D02*
X162260000Y-105180000D01*
X166790000Y-92050000D02*
X162260000Y-96580000D01*
%TO.N,/LED3*%
X167380000Y-102570000D02*
X167250000Y-102440000D01*
X167380000Y-106860000D02*
X167380000Y-102570000D01*
%TO.N,/LED2*%
X165420000Y-105560000D02*
X165420000Y-102770000D01*
X165420000Y-102770000D02*
X165260000Y-102610000D01*
X165260000Y-102610000D02*
X165120000Y-102610000D01*
X165350000Y-105630000D02*
X165420000Y-105560000D01*
%TO.N,/LED1*%
X163390000Y-105900000D02*
X163390000Y-102740000D01*
X159170000Y-100140000D02*
X161190000Y-102160000D01*
X163390000Y-102740000D02*
X163380000Y-102730000D01*
X159170000Y-92050000D02*
X159170000Y-100140000D01*
D16*
%TO.N,/RESET*%
X135160000Y-110980000D02*
X135110000Y-111030000D01*
X181370000Y-114280000D02*
X181300000Y-114350000D01*
X135110000Y-111030000D02*
X128580000Y-111030000D01*
X127910000Y-111700000D02*
X127910000Y-114320000D01*
X181300000Y-114350000D02*
X127940000Y-114350000D01*
X127940000Y-114350000D02*
X127910000Y-114320000D01*
X128580000Y-111030000D02*
X127910000Y-111700000D01*
%TO.N,/WAKE*%
X134600000Y-112310000D02*
X132080000Y-112310000D01*
X132080000Y-112310000D02*
X132040000Y-112270000D01*
%TO.N,/RX*%
X147870000Y-132790000D02*
X192000000Y-132790000D01*
X134330000Y-119250000D02*
X147870000Y-132790000D01*
%TO.N,/TX*%
X147690000Y-131630000D02*
X192280000Y-131630000D01*
X135310000Y-119250000D02*
X147690000Y-131630000D01*
X192280000Y-131630000D02*
X192760000Y-131150000D01*
D15*
%TO.N,/SDA*%
X121200000Y-95000000D02*
X120500000Y-94300000D01*
X149130000Y-105860000D02*
X136290000Y-93020000D01*
X120500000Y-94300000D02*
X120500000Y-93020000D01*
X136290000Y-93020000D02*
X120500000Y-93020000D01*
X113640000Y-94780000D02*
X114140000Y-95280000D01*
X186350000Y-128810000D02*
X154680000Y-128810000D01*
X154680000Y-128810000D02*
X154230000Y-128360000D01*
X149070000Y-123200000D02*
X149070000Y-116510000D01*
X136200000Y-95000000D02*
X121200000Y-95000000D01*
X113640000Y-92170000D02*
X113640000Y-94780000D01*
X154230000Y-128360000D02*
X149070000Y-123200000D01*
%TO.N,/SCL*%
X117960000Y-106650000D02*
X117960000Y-100790000D01*
X117960000Y-93020000D02*
X117960000Y-100610000D01*
X117960000Y-100610000D02*
X118050000Y-100700000D01*
X117960000Y-100790000D02*
X118050000Y-100700000D01*
X187850000Y-123560000D02*
X152890000Y-123560000D01*
X191270000Y-126980000D02*
X187850000Y-123560000D01*
X134930000Y-123620000D02*
X117960000Y-106650000D01*
%TO.N,/SOM/RED*%
X182390000Y-97670000D02*
X183660000Y-96400000D01*
X182390000Y-116200000D02*
X182390000Y-97670000D01*
%TO.N,/SOM/GREEN*%
X186100000Y-144900000D02*
X179920000Y-138720000D01*
X179890000Y-138690000D02*
X179890000Y-135160000D01*
X179920000Y-138720000D02*
X179890000Y-138690000D01*
X191450000Y-144900000D02*
X186100000Y-144900000D01*
%TO.N,/SOM/BLUE*%
X182550000Y-88610000D02*
X184250000Y-86910000D01*
X182550000Y-95970000D02*
X182550000Y-88610000D01*
D16*
%TO.N,/gps/ANT_OFF*%
X132270000Y-137720000D02*
X132380000Y-137830000D01*
X132380000Y-137830000D02*
X132710000Y-137830000D01*
X130930000Y-136380000D02*
X132270000Y-137720000D01*
X130930000Y-124640000D02*
X130930000Y-136380000D01*
%TO.N,VCC*%
X132040000Y-127900000D02*
X132040000Y-135350000D01*
X132040000Y-135350000D02*
X132350000Y-135660000D01*
%TD*%
%TA.AperFunction,Conductor*%
%TO.N,GND*%
G36*
X197399191Y-55368907D02*
G01*
X197435155Y-55418407D01*
X197440000Y-55449000D01*
X197440000Y-154851000D01*
X197421093Y-154909191D01*
X197371593Y-154945155D01*
X197341000Y-154950000D01*
X97939000Y-154950000D01*
X97880809Y-154931093D01*
X97844845Y-154881593D01*
X97840000Y-154851000D01*
X97840000Y-154172656D01*
X127945459Y-154172656D01*
X127952688Y-154180168D01*
X128103406Y-154264401D01*
X128112234Y-154268258D01*
X128298855Y-154328895D01*
X128308255Y-154330962D01*
X128503105Y-154354196D01*
X128512730Y-154354398D01*
X128708371Y-154339344D01*
X128717862Y-154337670D01*
X128906853Y-154284903D01*
X128915832Y-154281421D01*
X129090976Y-154192949D01*
X129099114Y-154187784D01*
X129106871Y-154181724D01*
X129112988Y-154172656D01*
X133045459Y-154172656D01*
X133052688Y-154180168D01*
X133203406Y-154264401D01*
X133212234Y-154268258D01*
X133398855Y-154328895D01*
X133408255Y-154330962D01*
X133603105Y-154354196D01*
X133612730Y-154354398D01*
X133808371Y-154339344D01*
X133817862Y-154337670D01*
X134006853Y-154284903D01*
X134015832Y-154281421D01*
X134190976Y-154192949D01*
X134199114Y-154187784D01*
X134206871Y-154181724D01*
X134214330Y-154170666D01*
X134214259Y-154168638D01*
X134211563Y-154164406D01*
X133641086Y-153593929D01*
X133629203Y-153587875D01*
X133624172Y-153588671D01*
X133050936Y-154161907D01*
X133045459Y-154172656D01*
X129112988Y-154172656D01*
X129114330Y-154170666D01*
X129114259Y-154168638D01*
X129111563Y-154164406D01*
X128541086Y-153593929D01*
X128529203Y-153587875D01*
X128524172Y-153588671D01*
X127950936Y-154161907D01*
X127945459Y-154172656D01*
X97840000Y-154172656D01*
X97840000Y-153290090D01*
X127475508Y-153290090D01*
X127491927Y-153485629D01*
X127493665Y-153495097D01*
X127547751Y-153683714D01*
X127551302Y-153692682D01*
X127640985Y-153867188D01*
X127646214Y-153875302D01*
X127647811Y-153877317D01*
X127658922Y-153884699D01*
X127661132Y-153884606D01*
X127665094Y-153882063D01*
X128236071Y-153311086D01*
X128241313Y-153300797D01*
X128817875Y-153300797D01*
X128818671Y-153305828D01*
X129391469Y-153878626D01*
X129402324Y-153884157D01*
X129409732Y-153877078D01*
X129491397Y-153733320D01*
X129495318Y-153724513D01*
X129557255Y-153538328D01*
X129559390Y-153528926D01*
X129584241Y-153332209D01*
X129584628Y-153326683D01*
X129584961Y-153302759D01*
X129584731Y-153297261D01*
X129584028Y-153290090D01*
X132575508Y-153290090D01*
X132591927Y-153485629D01*
X132593665Y-153495097D01*
X132647751Y-153683714D01*
X132651302Y-153692682D01*
X132740985Y-153867188D01*
X132746214Y-153875302D01*
X132747811Y-153877317D01*
X132758922Y-153884699D01*
X132761132Y-153884606D01*
X132765094Y-153882063D01*
X133336071Y-153311086D01*
X133341313Y-153300797D01*
X133917875Y-153300797D01*
X133918671Y-153305828D01*
X134491469Y-153878626D01*
X134502324Y-153884157D01*
X134509732Y-153877078D01*
X134591397Y-153733320D01*
X134595318Y-153724513D01*
X134657255Y-153538328D01*
X134659390Y-153528926D01*
X134684241Y-153332209D01*
X134684628Y-153326683D01*
X134684961Y-153302759D01*
X134684731Y-153297261D01*
X134665380Y-153099893D01*
X134663511Y-153090455D01*
X134606795Y-152902603D01*
X134603124Y-152893699D01*
X134511004Y-152720444D01*
X134510777Y-152720102D01*
X134502013Y-152714455D01*
X134499431Y-152714599D01*
X134496021Y-152716822D01*
X133923929Y-153288914D01*
X133917875Y-153300797D01*
X133341313Y-153300797D01*
X133342125Y-153299203D01*
X133341329Y-153294172D01*
X132767615Y-152720458D01*
X132756973Y-152715036D01*
X132749359Y-152722414D01*
X132662647Y-152880143D01*
X132658848Y-152889008D01*
X132599518Y-153076038D01*
X132597514Y-153085466D01*
X132575642Y-153280462D01*
X132575508Y-153290090D01*
X129584028Y-153290090D01*
X129565380Y-153099893D01*
X129563511Y-153090455D01*
X129506795Y-152902603D01*
X129503124Y-152893699D01*
X129411004Y-152720444D01*
X129410777Y-152720102D01*
X129402013Y-152714455D01*
X129399431Y-152714599D01*
X129396021Y-152716822D01*
X128823929Y-153288914D01*
X128817875Y-153300797D01*
X128241313Y-153300797D01*
X128242125Y-153299203D01*
X128241329Y-153294172D01*
X127667615Y-152720458D01*
X127656973Y-152715036D01*
X127649359Y-152722414D01*
X127562647Y-152880143D01*
X127558848Y-152889008D01*
X127499518Y-153076038D01*
X127497514Y-153085466D01*
X127475642Y-153280462D01*
X127475508Y-153290090D01*
X97840000Y-153290090D01*
X97840000Y-152428473D01*
X127944897Y-152428473D01*
X127945014Y-152430872D01*
X127947396Y-152434553D01*
X128518914Y-153006071D01*
X128530797Y-153012125D01*
X128535828Y-153011329D01*
X129109872Y-152437285D01*
X129114361Y-152428473D01*
X133044897Y-152428473D01*
X133045014Y-152430872D01*
X133047396Y-152434553D01*
X133618914Y-153006071D01*
X133630797Y-153012125D01*
X133635828Y-153011329D01*
X134209872Y-152437285D01*
X134215926Y-152425402D01*
X134215543Y-152422983D01*
X134043083Y-152329734D01*
X134034212Y-152326005D01*
X133846758Y-152267978D01*
X133837326Y-152266042D01*
X133642181Y-152245532D01*
X133632543Y-152245465D01*
X133437133Y-152263248D01*
X133427667Y-152265054D01*
X133239429Y-152320456D01*
X133230505Y-152324061D01*
X133056611Y-152414971D01*
X133051575Y-152418267D01*
X133044897Y-152428473D01*
X129114361Y-152428473D01*
X129115926Y-152425402D01*
X129115543Y-152422983D01*
X128943083Y-152329734D01*
X128934212Y-152326005D01*
X128746758Y-152267978D01*
X128737326Y-152266042D01*
X128542181Y-152245532D01*
X128532543Y-152245465D01*
X128337133Y-152263248D01*
X128327667Y-152265054D01*
X128139429Y-152320456D01*
X128130505Y-152324061D01*
X127956611Y-152414971D01*
X127951575Y-152418267D01*
X127944897Y-152428473D01*
X97840000Y-152428473D01*
X97840000Y-150793240D01*
X130179060Y-150793240D01*
X130217232Y-150982549D01*
X130292689Y-151160316D01*
X130295534Y-151164440D01*
X130295535Y-151164442D01*
X130399503Y-151315153D01*
X130399507Y-151315157D01*
X130402350Y-151319279D01*
X130405967Y-151322747D01*
X130405969Y-151322750D01*
X130486084Y-151399577D01*
X130541735Y-151452944D01*
X130705151Y-151555853D01*
X130885922Y-151623800D01*
X130890877Y-151624585D01*
X130890878Y-151624585D01*
X131071704Y-151653225D01*
X131071708Y-151653225D01*
X131076663Y-151654010D01*
X131150764Y-151650645D01*
X131264571Y-151645478D01*
X131264576Y-151645477D01*
X131269582Y-151645250D01*
X131274441Y-151644020D01*
X131274444Y-151644020D01*
X131451943Y-151599105D01*
X131456800Y-151597876D01*
X131461310Y-151595696D01*
X131626160Y-151516005D01*
X131626162Y-151516004D01*
X131630669Y-151513825D01*
X131784085Y-151396530D01*
X131910782Y-151250781D01*
X132005585Y-151082534D01*
X132064620Y-150898660D01*
X132075538Y-150798158D01*
X132085197Y-150709251D01*
X132085197Y-150709246D01*
X132085477Y-150706671D01*
X132085500Y-150700000D01*
X132065984Y-150507870D01*
X132008234Y-150323589D01*
X131914608Y-150154683D01*
X131846874Y-150075657D01*
X131792197Y-150011864D01*
X131792195Y-150011862D01*
X131788931Y-150008054D01*
X131761169Y-149986520D01*
X131640298Y-149892761D01*
X131640293Y-149892758D01*
X131636338Y-149889690D01*
X131463061Y-149804427D01*
X131348242Y-149774519D01*
X131281036Y-149757013D01*
X131281032Y-149757012D01*
X131276178Y-149755748D01*
X131271166Y-149755485D01*
X131271164Y-149755485D01*
X131203134Y-149751920D01*
X131083324Y-149745641D01*
X130892377Y-149774519D01*
X130711136Y-149841202D01*
X130706878Y-149843842D01*
X130706876Y-149843843D01*
X130632933Y-149889690D01*
X130547006Y-149942967D01*
X130406691Y-150075657D01*
X130403817Y-150079762D01*
X130403814Y-150079765D01*
X130298798Y-150229744D01*
X130295923Y-150233850D01*
X130219226Y-150411086D01*
X130179734Y-150600123D01*
X130179060Y-150793240D01*
X97840000Y-150793240D01*
X97840000Y-149072656D01*
X127945459Y-149072656D01*
X127952688Y-149080168D01*
X128103406Y-149164401D01*
X128112234Y-149168258D01*
X128298855Y-149228895D01*
X128308255Y-149230962D01*
X128503105Y-149254196D01*
X128512730Y-149254398D01*
X128708371Y-149239344D01*
X128717862Y-149237670D01*
X128906853Y-149184903D01*
X128915832Y-149181421D01*
X129090976Y-149092949D01*
X129099114Y-149087784D01*
X129106871Y-149081724D01*
X129112988Y-149072656D01*
X133045459Y-149072656D01*
X133052688Y-149080168D01*
X133203406Y-149164401D01*
X133212234Y-149168258D01*
X133398855Y-149228895D01*
X133408255Y-149230962D01*
X133603105Y-149254196D01*
X133612730Y-149254398D01*
X133808371Y-149239344D01*
X133817862Y-149237670D01*
X134006853Y-149184903D01*
X134015832Y-149181421D01*
X134190976Y-149092949D01*
X134199114Y-149087784D01*
X134206871Y-149081724D01*
X134214330Y-149070666D01*
X134214259Y-149068638D01*
X134211563Y-149064406D01*
X133641086Y-148493929D01*
X133629203Y-148487875D01*
X133624172Y-148488671D01*
X133050936Y-149061907D01*
X133045459Y-149072656D01*
X129112988Y-149072656D01*
X129114330Y-149070666D01*
X129114259Y-149068638D01*
X129111563Y-149064406D01*
X128541086Y-148493929D01*
X128529203Y-148487875D01*
X128524172Y-148488671D01*
X127950936Y-149061907D01*
X127945459Y-149072656D01*
X97840000Y-149072656D01*
X97840000Y-148190090D01*
X127475508Y-148190090D01*
X127491927Y-148385629D01*
X127493665Y-148395097D01*
X127547751Y-148583714D01*
X127551302Y-148592682D01*
X127640985Y-148767188D01*
X127646214Y-148775302D01*
X127647811Y-148777317D01*
X127658922Y-148784699D01*
X127661132Y-148784606D01*
X127665094Y-148782063D01*
X128236071Y-148211086D01*
X128241313Y-148200797D01*
X128817875Y-148200797D01*
X128818671Y-148205828D01*
X129391469Y-148778626D01*
X129402324Y-148784157D01*
X129409732Y-148777078D01*
X129491397Y-148633320D01*
X129495318Y-148624513D01*
X129557255Y-148438328D01*
X129559390Y-148428926D01*
X129584241Y-148232209D01*
X129584628Y-148226683D01*
X129584961Y-148202759D01*
X129584731Y-148197261D01*
X129584028Y-148190090D01*
X132575508Y-148190090D01*
X132591927Y-148385629D01*
X132593665Y-148395097D01*
X132647751Y-148583714D01*
X132651302Y-148592682D01*
X132740985Y-148767188D01*
X132746214Y-148775302D01*
X132747811Y-148777317D01*
X132758922Y-148784699D01*
X132761132Y-148784606D01*
X132765094Y-148782063D01*
X133336071Y-148211086D01*
X133341313Y-148200797D01*
X133917875Y-148200797D01*
X133918671Y-148205828D01*
X134491469Y-148778626D01*
X134502324Y-148784157D01*
X134509732Y-148777078D01*
X134591397Y-148633320D01*
X134595318Y-148624513D01*
X134657255Y-148438328D01*
X134659390Y-148428926D01*
X134684241Y-148232209D01*
X134684628Y-148226683D01*
X134684961Y-148202759D01*
X134684731Y-148197261D01*
X134665380Y-147999893D01*
X134663511Y-147990455D01*
X134606795Y-147802603D01*
X134603124Y-147793699D01*
X134511004Y-147620444D01*
X134510777Y-147620102D01*
X134502013Y-147614455D01*
X134499431Y-147614599D01*
X134496021Y-147616822D01*
X133923929Y-148188914D01*
X133917875Y-148200797D01*
X133341313Y-148200797D01*
X133342125Y-148199203D01*
X133341329Y-148194172D01*
X132767615Y-147620458D01*
X132756973Y-147615036D01*
X132749359Y-147622414D01*
X132662647Y-147780143D01*
X132658848Y-147789008D01*
X132599518Y-147976038D01*
X132597514Y-147985466D01*
X132575642Y-148180462D01*
X132575508Y-148190090D01*
X129584028Y-148190090D01*
X129565380Y-147999893D01*
X129563511Y-147990455D01*
X129506795Y-147802603D01*
X129503124Y-147793699D01*
X129411004Y-147620444D01*
X129410777Y-147620102D01*
X129402013Y-147614455D01*
X129399431Y-147614599D01*
X129396021Y-147616822D01*
X128823929Y-148188914D01*
X128817875Y-148200797D01*
X128241313Y-148200797D01*
X128242125Y-148199203D01*
X128241329Y-148194172D01*
X127667615Y-147620458D01*
X127656973Y-147615036D01*
X127649359Y-147622414D01*
X127562647Y-147780143D01*
X127558848Y-147789008D01*
X127499518Y-147976038D01*
X127497514Y-147985466D01*
X127475642Y-148180462D01*
X127475508Y-148190090D01*
X97840000Y-148190090D01*
X97840000Y-147328473D01*
X127944897Y-147328473D01*
X127945014Y-147330872D01*
X127947396Y-147334553D01*
X128518914Y-147906071D01*
X128530797Y-147912125D01*
X128535828Y-147911329D01*
X129109872Y-147337285D01*
X129114361Y-147328473D01*
X133044897Y-147328473D01*
X133045014Y-147330872D01*
X133047396Y-147334553D01*
X133618914Y-147906071D01*
X133630797Y-147912125D01*
X133635828Y-147911329D01*
X134209872Y-147337285D01*
X134215926Y-147325402D01*
X134215543Y-147322983D01*
X134043083Y-147229734D01*
X134034212Y-147226005D01*
X133846758Y-147167978D01*
X133837326Y-147166042D01*
X133642181Y-147145532D01*
X133632543Y-147145465D01*
X133437133Y-147163248D01*
X133427667Y-147165054D01*
X133239429Y-147220456D01*
X133230505Y-147224061D01*
X133056611Y-147314971D01*
X133051575Y-147318267D01*
X133044897Y-147328473D01*
X129114361Y-147328473D01*
X129115926Y-147325402D01*
X129115543Y-147322983D01*
X128943083Y-147229734D01*
X128934212Y-147226005D01*
X128746758Y-147167978D01*
X128737326Y-147166042D01*
X128542181Y-147145532D01*
X128532543Y-147145465D01*
X128337133Y-147163248D01*
X128327667Y-147165054D01*
X128139429Y-147220456D01*
X128130505Y-147224061D01*
X127956611Y-147314971D01*
X127951575Y-147318267D01*
X127944897Y-147328473D01*
X97840000Y-147328473D01*
X97840000Y-130253824D01*
X122254538Y-130253824D01*
X122273121Y-130395939D01*
X122330845Y-130527126D01*
X122423068Y-130636838D01*
X122428939Y-130640746D01*
X122428940Y-130640747D01*
X122446781Y-130652623D01*
X122542377Y-130716257D01*
X122549104Y-130718359D01*
X122549107Y-130718360D01*
X122672448Y-130756894D01*
X122672449Y-130756894D01*
X122679180Y-130758997D01*
X122750830Y-130760310D01*
X122815427Y-130761495D01*
X122815429Y-130761495D01*
X122822481Y-130761624D01*
X122829284Y-130759769D01*
X122829286Y-130759769D01*
X122876065Y-130747015D01*
X122960758Y-130723925D01*
X123082897Y-130648931D01*
X123110837Y-130618063D01*
X123163904Y-130587610D01*
X123184234Y-130585500D01*
X129794848Y-130585500D01*
X129824370Y-130590004D01*
X129942448Y-130626894D01*
X129942449Y-130626894D01*
X129949180Y-130628997D01*
X130020831Y-130630311D01*
X130085427Y-130631495D01*
X130085429Y-130631495D01*
X130092481Y-130631624D01*
X130099284Y-130629769D01*
X130099286Y-130629769D01*
X130146065Y-130617015D01*
X130230758Y-130593925D01*
X130352897Y-130518931D01*
X130449078Y-130412672D01*
X130466406Y-130376907D01*
X130508794Y-130332783D01*
X130569021Y-130322001D01*
X130624085Y-130348679D01*
X130652951Y-130402627D01*
X130654500Y-130420073D01*
X130654500Y-136345116D01*
X130652598Y-136364430D01*
X130649501Y-136380000D01*
X130654500Y-136405132D01*
X130654500Y-136405137D01*
X130670852Y-136487343D01*
X130731657Y-136578343D01*
X130739767Y-136583762D01*
X130744857Y-136587163D01*
X130759859Y-136599474D01*
X132057418Y-137897033D01*
X132160525Y-138000141D01*
X132172835Y-138015142D01*
X132176238Y-138020235D01*
X132176242Y-138020239D01*
X132181657Y-138028343D01*
X132189763Y-138033759D01*
X132202962Y-138042579D01*
X132202991Y-138042599D01*
X132264323Y-138083580D01*
X132285104Y-138102193D01*
X132373068Y-138206838D01*
X132378939Y-138210746D01*
X132378940Y-138210747D01*
X132391235Y-138218931D01*
X132492377Y-138286257D01*
X132499104Y-138288359D01*
X132499107Y-138288360D01*
X132622448Y-138326894D01*
X132622449Y-138326894D01*
X132629180Y-138328997D01*
X132700831Y-138330311D01*
X132765427Y-138331495D01*
X132765429Y-138331495D01*
X132772481Y-138331624D01*
X132779284Y-138329769D01*
X132779286Y-138329769D01*
X132826065Y-138317015D01*
X132910758Y-138293925D01*
X133032897Y-138218931D01*
X133129078Y-138112672D01*
X133191570Y-137983689D01*
X133215349Y-137842350D01*
X133215500Y-137830000D01*
X133195182Y-137688123D01*
X133135860Y-137557651D01*
X133042303Y-137449074D01*
X132922033Y-137371118D01*
X132915275Y-137369097D01*
X132915273Y-137369096D01*
X132791479Y-137332074D01*
X132784718Y-137330052D01*
X132698694Y-137329527D01*
X132648448Y-137329220D01*
X132641396Y-137329177D01*
X132634620Y-137331114D01*
X132634617Y-137331114D01*
X132510369Y-137366624D01*
X132510367Y-137366625D01*
X132503589Y-137368562D01*
X132497624Y-137372326D01*
X132497621Y-137372327D01*
X132450672Y-137401949D01*
X132391369Y-137417010D01*
X132334540Y-137394337D01*
X132327841Y-137388226D01*
X131234496Y-136294881D01*
X131206719Y-136240364D01*
X131205500Y-136224877D01*
X131205500Y-127893824D01*
X131534538Y-127893824D01*
X131553121Y-128035939D01*
X131555962Y-128042395D01*
X131555962Y-128042396D01*
X131557870Y-128046731D01*
X131610845Y-128167126D01*
X131703068Y-128276838D01*
X131720358Y-128288347D01*
X131758321Y-128336330D01*
X131764500Y-128370758D01*
X131764500Y-135315116D01*
X131762598Y-135334430D01*
X131759501Y-135350000D01*
X131761403Y-135359562D01*
X131764500Y-135375132D01*
X131764500Y-135375137D01*
X131777934Y-135442672D01*
X131780852Y-135457343D01*
X131786271Y-135465453D01*
X131835869Y-135539681D01*
X131852478Y-135598569D01*
X131851376Y-135609908D01*
X131844538Y-135653824D01*
X131863121Y-135795939D01*
X131865962Y-135802395D01*
X131865962Y-135802396D01*
X131867870Y-135806731D01*
X131920845Y-135927126D01*
X132013068Y-136036838D01*
X132018939Y-136040746D01*
X132018940Y-136040747D01*
X132031235Y-136048931D01*
X132132377Y-136116257D01*
X132139104Y-136118359D01*
X132139107Y-136118360D01*
X132262448Y-136156894D01*
X132262449Y-136156894D01*
X132269180Y-136158997D01*
X132340830Y-136160310D01*
X132405427Y-136161495D01*
X132405429Y-136161495D01*
X132412481Y-136161624D01*
X132419284Y-136159769D01*
X132419286Y-136159769D01*
X132466065Y-136147015D01*
X132550758Y-136123925D01*
X132672897Y-136048931D01*
X132769078Y-135942672D01*
X132831570Y-135813689D01*
X132834557Y-135795939D01*
X132854715Y-135676120D01*
X132854715Y-135676117D01*
X132855349Y-135672350D01*
X132855500Y-135660000D01*
X132835182Y-135518123D01*
X132811235Y-135465453D01*
X132778780Y-135394073D01*
X132778780Y-135394072D01*
X132775860Y-135387651D01*
X132682303Y-135279074D01*
X132562033Y-135201118D01*
X132555275Y-135199097D01*
X132555273Y-135199096D01*
X132431479Y-135162074D01*
X132424718Y-135160052D01*
X132413896Y-135159986D01*
X132410933Y-135159003D01*
X132410690Y-135158967D01*
X132410696Y-135158925D01*
X132395317Y-135153824D01*
X179384538Y-135153824D01*
X179403121Y-135295939D01*
X179405962Y-135302395D01*
X179405962Y-135302396D01*
X179426909Y-135350000D01*
X179460845Y-135427126D01*
X179465382Y-135432523D01*
X179465383Y-135432525D01*
X179541283Y-135522818D01*
X179564253Y-135579528D01*
X179564500Y-135586520D01*
X179564500Y-138671715D01*
X179564123Y-138680344D01*
X179560758Y-138718805D01*
X179562999Y-138727168D01*
X179570816Y-138756342D01*
X179572685Y-138764774D01*
X179579432Y-138803038D01*
X179583763Y-138810539D01*
X179585757Y-138816017D01*
X179588223Y-138821306D01*
X179590465Y-138829675D01*
X179595433Y-138836771D01*
X179595434Y-138836772D01*
X179612758Y-138861514D01*
X179617396Y-138868795D01*
X179636822Y-138902441D01*
X179666398Y-138927258D01*
X179672766Y-138933093D01*
X185856901Y-145117227D01*
X185862736Y-145123595D01*
X185881991Y-145146543D01*
X185881993Y-145146545D01*
X185887559Y-145153178D01*
X185921214Y-145172609D01*
X185928495Y-145177248D01*
X185960325Y-145199535D01*
X185968694Y-145201777D01*
X185973978Y-145204241D01*
X185979461Y-145206237D01*
X185986962Y-145210568D01*
X185995490Y-145212072D01*
X185995491Y-145212072D01*
X186025226Y-145217315D01*
X186033658Y-145219184D01*
X186071195Y-145229242D01*
X186109657Y-145225877D01*
X186118285Y-145225500D01*
X191023802Y-145225500D01*
X191081993Y-145244407D01*
X191099585Y-145260798D01*
X191108529Y-145271439D01*
X191108532Y-145271441D01*
X191113068Y-145276838D01*
X191118939Y-145280746D01*
X191118940Y-145280747D01*
X191131235Y-145288931D01*
X191232377Y-145356257D01*
X191239104Y-145358359D01*
X191239107Y-145358360D01*
X191362448Y-145396894D01*
X191362449Y-145396894D01*
X191369180Y-145398997D01*
X191440830Y-145400310D01*
X191505427Y-145401495D01*
X191505429Y-145401495D01*
X191512481Y-145401624D01*
X191519284Y-145399769D01*
X191519286Y-145399769D01*
X191566065Y-145387015D01*
X191650758Y-145363925D01*
X191772897Y-145288931D01*
X191837721Y-145217315D01*
X191864346Y-145187900D01*
X191864346Y-145187899D01*
X191869078Y-145182672D01*
X191931570Y-145053689D01*
X191955349Y-144912350D01*
X191955500Y-144900000D01*
X191935182Y-144758123D01*
X191875860Y-144627651D01*
X191782303Y-144519074D01*
X191662033Y-144441118D01*
X191655275Y-144439097D01*
X191655273Y-144439096D01*
X191531479Y-144402074D01*
X191524718Y-144400052D01*
X191438694Y-144399527D01*
X191388448Y-144399220D01*
X191381396Y-144399177D01*
X191374620Y-144401114D01*
X191374617Y-144401114D01*
X191250369Y-144436624D01*
X191250367Y-144436625D01*
X191243589Y-144438562D01*
X191122375Y-144515042D01*
X191117708Y-144520326D01*
X191117706Y-144520328D01*
X191099420Y-144541034D01*
X191046729Y-144572134D01*
X191025216Y-144574500D01*
X186275834Y-144574500D01*
X186217643Y-144555593D01*
X186205830Y-144545504D01*
X180244496Y-138584169D01*
X180216719Y-138529652D01*
X180215500Y-138514165D01*
X180215500Y-135584206D01*
X180234407Y-135526015D01*
X180241103Y-135517769D01*
X180304346Y-135447900D01*
X180304346Y-135447899D01*
X180309078Y-135442672D01*
X180371570Y-135313689D01*
X180374557Y-135295939D01*
X180394715Y-135176120D01*
X180394715Y-135176117D01*
X180395349Y-135172350D01*
X180395500Y-135160000D01*
X180375182Y-135018123D01*
X180315860Y-134887651D01*
X180222303Y-134779074D01*
X180102033Y-134701118D01*
X180095275Y-134699097D01*
X180095273Y-134699096D01*
X179971479Y-134662074D01*
X179964718Y-134660052D01*
X179878694Y-134659527D01*
X179828448Y-134659220D01*
X179821396Y-134659177D01*
X179814620Y-134661114D01*
X179814617Y-134661114D01*
X179690369Y-134696624D01*
X179690367Y-134696625D01*
X179683589Y-134698562D01*
X179562375Y-134775042D01*
X179467499Y-134882469D01*
X179406588Y-135012206D01*
X179384538Y-135153824D01*
X132395317Y-135153824D01*
X132355822Y-135140724D01*
X132320161Y-135091006D01*
X132315500Y-135060988D01*
X132315500Y-128373419D01*
X132334407Y-128315228D01*
X132352539Y-128298426D01*
X132351460Y-128297126D01*
X132356884Y-128292623D01*
X132362897Y-128288931D01*
X132459078Y-128182672D01*
X132521570Y-128053689D01*
X132524557Y-128035939D01*
X132544715Y-127916120D01*
X132544715Y-127916117D01*
X132545349Y-127912350D01*
X132545500Y-127900000D01*
X132525182Y-127758123D01*
X132465860Y-127627651D01*
X132372303Y-127519074D01*
X132252033Y-127441118D01*
X132245275Y-127439097D01*
X132245273Y-127439096D01*
X132121479Y-127402074D01*
X132114718Y-127400052D01*
X132028694Y-127399527D01*
X131978448Y-127399220D01*
X131971396Y-127399177D01*
X131964620Y-127401114D01*
X131964617Y-127401114D01*
X131840369Y-127436624D01*
X131840367Y-127436625D01*
X131833589Y-127438562D01*
X131712375Y-127515042D01*
X131617499Y-127622469D01*
X131556588Y-127752206D01*
X131534538Y-127893824D01*
X131205500Y-127893824D01*
X131205500Y-125113419D01*
X131224407Y-125055228D01*
X131242539Y-125038426D01*
X131241460Y-125037126D01*
X131246884Y-125032623D01*
X131252897Y-125028931D01*
X131349078Y-124922672D01*
X131411570Y-124793689D01*
X131414557Y-124775939D01*
X131434715Y-124656120D01*
X131434715Y-124656117D01*
X131435349Y-124652350D01*
X131435500Y-124640000D01*
X131415182Y-124498123D01*
X131355860Y-124367651D01*
X131262303Y-124259074D01*
X131142033Y-124181118D01*
X131135275Y-124179097D01*
X131135273Y-124179096D01*
X131011479Y-124142074D01*
X131004718Y-124140052D01*
X130918694Y-124139527D01*
X130868448Y-124139220D01*
X130861396Y-124139177D01*
X130854620Y-124141114D01*
X130854617Y-124141114D01*
X130730369Y-124176624D01*
X130730367Y-124176625D01*
X130723589Y-124178562D01*
X130602375Y-124255042D01*
X130507499Y-124362469D01*
X130446588Y-124492206D01*
X130424538Y-124633824D01*
X130443121Y-124775939D01*
X130445962Y-124782395D01*
X130445962Y-124782396D01*
X130447870Y-124786731D01*
X130500845Y-124907126D01*
X130593068Y-125016838D01*
X130610358Y-125028347D01*
X130648321Y-125076330D01*
X130654500Y-125110758D01*
X130654500Y-129837609D01*
X130635593Y-129895800D01*
X130586093Y-129931764D01*
X130524907Y-129931764D01*
X130475407Y-129895800D01*
X130465378Y-129878585D01*
X130458780Y-129864072D01*
X130458778Y-129864069D01*
X130455860Y-129857651D01*
X130362303Y-129749074D01*
X130242033Y-129671118D01*
X130235275Y-129669097D01*
X130235273Y-129669096D01*
X130111479Y-129632074D01*
X130104718Y-129630052D01*
X130018694Y-129629527D01*
X129968448Y-129629220D01*
X129961396Y-129629177D01*
X129954620Y-129631114D01*
X129954617Y-129631114D01*
X129830369Y-129666624D01*
X129830367Y-129666625D01*
X129823589Y-129668562D01*
X129702375Y-129745042D01*
X129607499Y-129852469D01*
X129604502Y-129858852D01*
X129604501Y-129858854D01*
X129595711Y-129877575D01*
X129553866Y-129922213D01*
X129506097Y-129934500D01*
X123185439Y-129934500D01*
X123127248Y-129915593D01*
X123110446Y-129900129D01*
X123092303Y-129879074D01*
X122972033Y-129801118D01*
X122965275Y-129799097D01*
X122965273Y-129799096D01*
X122841479Y-129762074D01*
X122834718Y-129760052D01*
X122748694Y-129759527D01*
X122698448Y-129759220D01*
X122691396Y-129759177D01*
X122684620Y-129761114D01*
X122684617Y-129761114D01*
X122560369Y-129796624D01*
X122560367Y-129796625D01*
X122553589Y-129798562D01*
X122432375Y-129875042D01*
X122337499Y-129982469D01*
X122276588Y-130112206D01*
X122254538Y-130253824D01*
X97840000Y-130253824D01*
X97840000Y-92163824D01*
X113134538Y-92163824D01*
X113153121Y-92305939D01*
X113155962Y-92312395D01*
X113155962Y-92312396D01*
X113194406Y-92399765D01*
X113210845Y-92437126D01*
X113215382Y-92442523D01*
X113215383Y-92442525D01*
X113291283Y-92532818D01*
X113314253Y-92589528D01*
X113314500Y-92596520D01*
X113314500Y-94761715D01*
X113314123Y-94770344D01*
X113310758Y-94808805D01*
X113314057Y-94821118D01*
X113320816Y-94846342D01*
X113322685Y-94854774D01*
X113329432Y-94893038D01*
X113333763Y-94900539D01*
X113335757Y-94906017D01*
X113338223Y-94911306D01*
X113340465Y-94919675D01*
X113345433Y-94926771D01*
X113345434Y-94926772D01*
X113362758Y-94951514D01*
X113367396Y-94958795D01*
X113386822Y-94992441D01*
X113404949Y-95007651D01*
X113416405Y-95017264D01*
X113422772Y-95023099D01*
X113514922Y-95115248D01*
X113606497Y-95206823D01*
X113634275Y-95261340D01*
X113634977Y-95271006D01*
X113634538Y-95273824D01*
X113653121Y-95415939D01*
X113655962Y-95422395D01*
X113655962Y-95422396D01*
X113690824Y-95501624D01*
X113710845Y-95547126D01*
X113715382Y-95552523D01*
X113715383Y-95552525D01*
X113764294Y-95610711D01*
X113803068Y-95656838D01*
X113808939Y-95660746D01*
X113808940Y-95660747D01*
X113821235Y-95668931D01*
X113922377Y-95736257D01*
X113929104Y-95738359D01*
X113929107Y-95738360D01*
X114052448Y-95776894D01*
X114052449Y-95776894D01*
X114059180Y-95778997D01*
X114130831Y-95780311D01*
X114195427Y-95781495D01*
X114195429Y-95781495D01*
X114202481Y-95781624D01*
X114209284Y-95779769D01*
X114209286Y-95779769D01*
X114256065Y-95767015D01*
X114340758Y-95743925D01*
X114462897Y-95668931D01*
X114539172Y-95584664D01*
X114554346Y-95567900D01*
X114554346Y-95567899D01*
X114559078Y-95562672D01*
X114621570Y-95433689D01*
X114624557Y-95415939D01*
X114644715Y-95296120D01*
X114644715Y-95296117D01*
X114645349Y-95292350D01*
X114645404Y-95287900D01*
X114645453Y-95283826D01*
X114645500Y-95280000D01*
X114625182Y-95138123D01*
X114614782Y-95115248D01*
X114568780Y-95014073D01*
X114568780Y-95014072D01*
X114565860Y-95007651D01*
X114472303Y-94899074D01*
X114352033Y-94821118D01*
X114345275Y-94819097D01*
X114345273Y-94819096D01*
X114221479Y-94782074D01*
X114214718Y-94780052D01*
X114175727Y-94779814D01*
X114140329Y-94779598D01*
X114082255Y-94760336D01*
X114070929Y-94750603D01*
X113994496Y-94674169D01*
X113966719Y-94619652D01*
X113965500Y-94604166D01*
X113965500Y-93113240D01*
X117009060Y-93113240D01*
X117047232Y-93302549D01*
X117122689Y-93480316D01*
X117125534Y-93484440D01*
X117125535Y-93484442D01*
X117229503Y-93635153D01*
X117229507Y-93635157D01*
X117232350Y-93639279D01*
X117235967Y-93642747D01*
X117235969Y-93642750D01*
X117316084Y-93719577D01*
X117371735Y-93772944D01*
X117535151Y-93875853D01*
X117570333Y-93889077D01*
X117618150Y-93927250D01*
X117634500Y-93981747D01*
X117634500Y-100385473D01*
X117625115Y-100427547D01*
X117566588Y-100552206D01*
X117544538Y-100693824D01*
X117545453Y-100700822D01*
X117561196Y-100821214D01*
X117563121Y-100835939D01*
X117565962Y-100842395D01*
X117565962Y-100842396D01*
X117602404Y-100925215D01*
X117620387Y-100966084D01*
X117620845Y-100967126D01*
X117620702Y-100967189D01*
X117634500Y-101015466D01*
X117634500Y-106631715D01*
X117634123Y-106640344D01*
X117630758Y-106678805D01*
X117632999Y-106687168D01*
X117640816Y-106716342D01*
X117642685Y-106724774D01*
X117649432Y-106763038D01*
X117653763Y-106770539D01*
X117655757Y-106776017D01*
X117658223Y-106781306D01*
X117660465Y-106789675D01*
X117665433Y-106796771D01*
X117665434Y-106796772D01*
X117682758Y-106821514D01*
X117687396Y-106828795D01*
X117706822Y-106862441D01*
X117736398Y-106887258D01*
X117742766Y-106893093D01*
X134396498Y-123546825D01*
X134424275Y-123601342D01*
X134424977Y-123611007D01*
X134424538Y-123613824D01*
X134443121Y-123755939D01*
X134445962Y-123762395D01*
X134445962Y-123762396D01*
X134447870Y-123766731D01*
X134500845Y-123887126D01*
X134593068Y-123996838D01*
X134598939Y-124000746D01*
X134598940Y-124000747D01*
X134611235Y-124008931D01*
X134712377Y-124076257D01*
X134719104Y-124078359D01*
X134719107Y-124078360D01*
X134842448Y-124116894D01*
X134842449Y-124116894D01*
X134849180Y-124118997D01*
X134920830Y-124120310D01*
X134985427Y-124121495D01*
X134985429Y-124121495D01*
X134992481Y-124121624D01*
X134999284Y-124119769D01*
X134999286Y-124119769D01*
X135046065Y-124107015D01*
X135130758Y-124083925D01*
X135252897Y-124008931D01*
X135303865Y-123952623D01*
X135344346Y-123907900D01*
X135344346Y-123907899D01*
X135349078Y-123902672D01*
X135411570Y-123773689D01*
X135414557Y-123755939D01*
X135434715Y-123636120D01*
X135434715Y-123636117D01*
X135435349Y-123632350D01*
X135435500Y-123620000D01*
X135415182Y-123478123D01*
X135388381Y-123419176D01*
X135358780Y-123354073D01*
X135358780Y-123354072D01*
X135355860Y-123347651D01*
X135262303Y-123239074D01*
X135142033Y-123161118D01*
X135135275Y-123159097D01*
X135135273Y-123159096D01*
X135011479Y-123122074D01*
X135004718Y-123120052D01*
X134967508Y-123119825D01*
X134930331Y-123119598D01*
X134872257Y-123100336D01*
X134860931Y-123090604D01*
X131014151Y-119243824D01*
X133824538Y-119243824D01*
X133843121Y-119385939D01*
X133900845Y-119517126D01*
X133993068Y-119626838D01*
X134112377Y-119706257D01*
X134119104Y-119708359D01*
X134119107Y-119708360D01*
X134242448Y-119746894D01*
X134242449Y-119746894D01*
X134249180Y-119748997D01*
X134312606Y-119750160D01*
X134385422Y-119751495D01*
X134385425Y-119751495D01*
X134392481Y-119751624D01*
X134392471Y-119752161D01*
X134447684Y-119762792D01*
X134469845Y-119779460D01*
X147650528Y-132960144D01*
X147662839Y-132975146D01*
X147671657Y-132988343D01*
X147692964Y-133002580D01*
X147692967Y-133002583D01*
X147762658Y-133049149D01*
X147772218Y-133051051D01*
X147772219Y-133051051D01*
X147860438Y-133068598D01*
X147870000Y-133070500D01*
X147879562Y-133068598D01*
X147879564Y-133068598D01*
X147885577Y-133067402D01*
X147904889Y-133065500D01*
X191531772Y-133065500D01*
X191589963Y-133084407D01*
X191607552Y-133100794D01*
X191663068Y-133166838D01*
X191668939Y-133170746D01*
X191668940Y-133170747D01*
X191681235Y-133178931D01*
X191782377Y-133246257D01*
X191789104Y-133248359D01*
X191789107Y-133248360D01*
X191912448Y-133286894D01*
X191912449Y-133286894D01*
X191919180Y-133288997D01*
X191990830Y-133290310D01*
X192055427Y-133291495D01*
X192055429Y-133291495D01*
X192062481Y-133291624D01*
X192069284Y-133289769D01*
X192069286Y-133289769D01*
X192116065Y-133277015D01*
X192200758Y-133253925D01*
X192322897Y-133178931D01*
X192338728Y-133161441D01*
X192414346Y-133077900D01*
X192414346Y-133077899D01*
X192419078Y-133072672D01*
X192481570Y-132943689D01*
X192505349Y-132802350D01*
X192505500Y-132790000D01*
X192485182Y-132648123D01*
X192425860Y-132517651D01*
X192332303Y-132409074D01*
X192212033Y-132331118D01*
X192205275Y-132329097D01*
X192205273Y-132329096D01*
X192081479Y-132292074D01*
X192074718Y-132290052D01*
X191988694Y-132289527D01*
X191938448Y-132289220D01*
X191931396Y-132289177D01*
X191924620Y-132291114D01*
X191924617Y-132291114D01*
X191800369Y-132326624D01*
X191800367Y-132326625D01*
X191793589Y-132328562D01*
X191672375Y-132405042D01*
X191634591Y-132447825D01*
X191605260Y-132481035D01*
X191552568Y-132512135D01*
X191531056Y-132514500D01*
X148025124Y-132514500D01*
X147966933Y-132495593D01*
X147955120Y-132485504D01*
X147533943Y-132064327D01*
X147506166Y-132009810D01*
X147515737Y-131949378D01*
X147559002Y-131906113D01*
X147623261Y-131897225D01*
X147663178Y-131905165D01*
X147664863Y-131905500D01*
X147664866Y-131905500D01*
X147664873Y-131905501D01*
X147690000Y-131910499D01*
X147699562Y-131908597D01*
X147705570Y-131907402D01*
X147724884Y-131905500D01*
X192245116Y-131905500D01*
X192264430Y-131907402D01*
X192280000Y-131910499D01*
X192289562Y-131908597D01*
X192305127Y-131905501D01*
X192305134Y-131905500D01*
X192305137Y-131905500D01*
X192307170Y-131905096D01*
X192377778Y-131891051D01*
X192377780Y-131891050D01*
X192387343Y-131889148D01*
X192478343Y-131828343D01*
X192487163Y-131815143D01*
X192499474Y-131800141D01*
X192621382Y-131678233D01*
X192675899Y-131650456D01*
X192693201Y-131649254D01*
X192704997Y-131649470D01*
X192815427Y-131651495D01*
X192815429Y-131651495D01*
X192822481Y-131651624D01*
X192829284Y-131649769D01*
X192829286Y-131649769D01*
X192876065Y-131637015D01*
X192960758Y-131613925D01*
X193082897Y-131538931D01*
X193179078Y-131432672D01*
X193241570Y-131303689D01*
X193244510Y-131286219D01*
X193264715Y-131166120D01*
X193264715Y-131166117D01*
X193265349Y-131162350D01*
X193265500Y-131150000D01*
X193245182Y-131008123D01*
X193185860Y-130877651D01*
X193092303Y-130769074D01*
X192972033Y-130691118D01*
X192965275Y-130689097D01*
X192965273Y-130689096D01*
X192841479Y-130652074D01*
X192834718Y-130650052D01*
X192748694Y-130649527D01*
X192698448Y-130649220D01*
X192691396Y-130649177D01*
X192684620Y-130651114D01*
X192684617Y-130651114D01*
X192560369Y-130686624D01*
X192560367Y-130686625D01*
X192553589Y-130688562D01*
X192432375Y-130765042D01*
X192337499Y-130872469D01*
X192276588Y-131002206D01*
X192254538Y-131143824D01*
X192255453Y-131150821D01*
X192262326Y-131203378D01*
X192251124Y-131263529D01*
X192234166Y-131286219D01*
X192194881Y-131325504D01*
X192140364Y-131353281D01*
X192124877Y-131354500D01*
X147845124Y-131354500D01*
X147786933Y-131335593D01*
X147775120Y-131325504D01*
X135836553Y-119386938D01*
X135808776Y-119332421D01*
X135808929Y-119300508D01*
X135814715Y-119266119D01*
X135814715Y-119266117D01*
X135815349Y-119262350D01*
X135815500Y-119250000D01*
X135795182Y-119108123D01*
X135741794Y-118990701D01*
X135738780Y-118984073D01*
X135738780Y-118984072D01*
X135735860Y-118977651D01*
X135642303Y-118869074D01*
X135522033Y-118791118D01*
X135515275Y-118789097D01*
X135515273Y-118789096D01*
X135391479Y-118752074D01*
X135384718Y-118750052D01*
X135298694Y-118749527D01*
X135248448Y-118749220D01*
X135241396Y-118749177D01*
X135234620Y-118751114D01*
X135234617Y-118751114D01*
X135110369Y-118786624D01*
X135110367Y-118786625D01*
X135103589Y-118788562D01*
X134982375Y-118865042D01*
X134977707Y-118870327D01*
X134977704Y-118870330D01*
X134893732Y-118965411D01*
X134841040Y-118996511D01*
X134780132Y-118990701D01*
X134744529Y-118964501D01*
X134711707Y-118926409D01*
X134662303Y-118869074D01*
X134542033Y-118791118D01*
X134535275Y-118789097D01*
X134535273Y-118789096D01*
X134411479Y-118752074D01*
X134404718Y-118750052D01*
X134318694Y-118749527D01*
X134268448Y-118749220D01*
X134261396Y-118749177D01*
X134254620Y-118751114D01*
X134254617Y-118751114D01*
X134130369Y-118786624D01*
X134130367Y-118786625D01*
X134123589Y-118788562D01*
X134002375Y-118865042D01*
X133907499Y-118972469D01*
X133846588Y-119102206D01*
X133824538Y-119243824D01*
X131014151Y-119243824D01*
X130243567Y-118473240D01*
X144409060Y-118473240D01*
X144447232Y-118662549D01*
X144522689Y-118840316D01*
X144525534Y-118844440D01*
X144525535Y-118844442D01*
X144629503Y-118995153D01*
X144629507Y-118995157D01*
X144632350Y-118999279D01*
X144635967Y-119002747D01*
X144635969Y-119002750D01*
X144768113Y-119129471D01*
X144771735Y-119132944D01*
X144935151Y-119235853D01*
X145115922Y-119303800D01*
X145120877Y-119304585D01*
X145120878Y-119304585D01*
X145301704Y-119333225D01*
X145301708Y-119333225D01*
X145306663Y-119334010D01*
X145380764Y-119330645D01*
X145494571Y-119325478D01*
X145494576Y-119325477D01*
X145499582Y-119325250D01*
X145504441Y-119324020D01*
X145504444Y-119324020D01*
X145681943Y-119279105D01*
X145686800Y-119277876D01*
X145711121Y-119266119D01*
X145856160Y-119196005D01*
X145856162Y-119196004D01*
X145860669Y-119193825D01*
X146014085Y-119076530D01*
X146140782Y-118930781D01*
X146235585Y-118762534D01*
X146294620Y-118578660D01*
X146305538Y-118478158D01*
X146315197Y-118389251D01*
X146315197Y-118389246D01*
X146315477Y-118386671D01*
X146315500Y-118380000D01*
X146295984Y-118187870D01*
X146238234Y-118003589D01*
X146144608Y-117834683D01*
X146076874Y-117755657D01*
X146022197Y-117691864D01*
X146022195Y-117691862D01*
X146018931Y-117688054D01*
X145988446Y-117664407D01*
X145870298Y-117572761D01*
X145870293Y-117572758D01*
X145866338Y-117569690D01*
X145693061Y-117484427D01*
X145578242Y-117454519D01*
X145511036Y-117437013D01*
X145511032Y-117437012D01*
X145506178Y-117435748D01*
X145501166Y-117435485D01*
X145501164Y-117435485D01*
X145433134Y-117431920D01*
X145313324Y-117425641D01*
X145122377Y-117454519D01*
X144941136Y-117521202D01*
X144936878Y-117523842D01*
X144936876Y-117523843D01*
X144790555Y-117614566D01*
X144777006Y-117622967D01*
X144636691Y-117755657D01*
X144633817Y-117759762D01*
X144633814Y-117759765D01*
X144528798Y-117909744D01*
X144525923Y-117913850D01*
X144449226Y-118091086D01*
X144409734Y-118280123D01*
X144409060Y-118473240D01*
X130243567Y-118473240D01*
X127703567Y-115933240D01*
X144409060Y-115933240D01*
X144410052Y-115938158D01*
X144434454Y-116059176D01*
X144447232Y-116122549D01*
X144449191Y-116127164D01*
X144496090Y-116237651D01*
X144522689Y-116300316D01*
X144525534Y-116304440D01*
X144525535Y-116304442D01*
X144629503Y-116455153D01*
X144629507Y-116455157D01*
X144632350Y-116459279D01*
X144635967Y-116462747D01*
X144635969Y-116462750D01*
X144759016Y-116580747D01*
X144771735Y-116592944D01*
X144775980Y-116595617D01*
X144887395Y-116665779D01*
X144935151Y-116695853D01*
X145115922Y-116763800D01*
X145120877Y-116764585D01*
X145120878Y-116764585D01*
X145301704Y-116793225D01*
X145301708Y-116793225D01*
X145306663Y-116794010D01*
X145380764Y-116790645D01*
X145494571Y-116785478D01*
X145494576Y-116785477D01*
X145499582Y-116785250D01*
X145504441Y-116784020D01*
X145504444Y-116784020D01*
X145668079Y-116742613D01*
X145686800Y-116737876D01*
X145691310Y-116735696D01*
X145856160Y-116656005D01*
X145856162Y-116656004D01*
X145860669Y-116653825D01*
X146014085Y-116536530D01*
X146042516Y-116503824D01*
X148564538Y-116503824D01*
X148583121Y-116645939D01*
X148585962Y-116652395D01*
X148585962Y-116652396D01*
X148634205Y-116762035D01*
X148640845Y-116777126D01*
X148645382Y-116782523D01*
X148645383Y-116782525D01*
X148721283Y-116872818D01*
X148744253Y-116929528D01*
X148744500Y-116936520D01*
X148744500Y-123181715D01*
X148744123Y-123190344D01*
X148740758Y-123228805D01*
X148742999Y-123237168D01*
X148750816Y-123266342D01*
X148752685Y-123274774D01*
X148759432Y-123313038D01*
X148763763Y-123320539D01*
X148765757Y-123326017D01*
X148768223Y-123331306D01*
X148770465Y-123339675D01*
X148775433Y-123346771D01*
X148775434Y-123346772D01*
X148792758Y-123371514D01*
X148797396Y-123378795D01*
X148816822Y-123412441D01*
X148824849Y-123419176D01*
X148846398Y-123437258D01*
X148852766Y-123443093D01*
X154436907Y-129027234D01*
X154442741Y-129033601D01*
X154467559Y-129063178D01*
X154475060Y-129067508D01*
X154475059Y-129067508D01*
X154501204Y-129082603D01*
X154508486Y-129087242D01*
X154523708Y-129097900D01*
X154540325Y-129109535D01*
X154548694Y-129111777D01*
X154553983Y-129114243D01*
X154559461Y-129116237D01*
X154566962Y-129120568D01*
X154575490Y-129122072D01*
X154575491Y-129122072D01*
X154605226Y-129127315D01*
X154613658Y-129129184D01*
X154651195Y-129139242D01*
X154689656Y-129135877D01*
X154698285Y-129135500D01*
X185923802Y-129135500D01*
X185981993Y-129154407D01*
X185999585Y-129170798D01*
X186008529Y-129181439D01*
X186008532Y-129181441D01*
X186013068Y-129186838D01*
X186018939Y-129190746D01*
X186018940Y-129190747D01*
X186031235Y-129198931D01*
X186132377Y-129266257D01*
X186139104Y-129268359D01*
X186139107Y-129268360D01*
X186262448Y-129306894D01*
X186262449Y-129306894D01*
X186269180Y-129308997D01*
X186340831Y-129310311D01*
X186405427Y-129311495D01*
X186405429Y-129311495D01*
X186412481Y-129311624D01*
X186419284Y-129309769D01*
X186419286Y-129309769D01*
X186466065Y-129297015D01*
X186550758Y-129273925D01*
X186672897Y-129198931D01*
X186737721Y-129127315D01*
X186764346Y-129097900D01*
X186764346Y-129097899D01*
X186769078Y-129092672D01*
X186831570Y-128963689D01*
X186855349Y-128822350D01*
X186855500Y-128810000D01*
X186835182Y-128668123D01*
X186775860Y-128537651D01*
X186682303Y-128429074D01*
X186562033Y-128351118D01*
X186555275Y-128349097D01*
X186555273Y-128349096D01*
X186431479Y-128312074D01*
X186424718Y-128310052D01*
X186338694Y-128309527D01*
X186288448Y-128309220D01*
X186281396Y-128309177D01*
X186274620Y-128311114D01*
X186274617Y-128311114D01*
X186150369Y-128346624D01*
X186150367Y-128346625D01*
X186143589Y-128348562D01*
X186022375Y-128425042D01*
X186017708Y-128430326D01*
X186017706Y-128430328D01*
X185999420Y-128451034D01*
X185946729Y-128482134D01*
X185925216Y-128484500D01*
X154855835Y-128484500D01*
X154797644Y-128465593D01*
X154785831Y-128455504D01*
X149884151Y-123553824D01*
X152384538Y-123553824D01*
X152385453Y-123560822D01*
X152392935Y-123618037D01*
X152403121Y-123695939D01*
X152405962Y-123702395D01*
X152405962Y-123702396D01*
X152440126Y-123780038D01*
X152460845Y-123827126D01*
X152465382Y-123832523D01*
X152465383Y-123832525D01*
X152511687Y-123887610D01*
X152553068Y-123936838D01*
X152558939Y-123940746D01*
X152558940Y-123940747D01*
X152571235Y-123948931D01*
X152672377Y-124016257D01*
X152679104Y-124018359D01*
X152679107Y-124018360D01*
X152802448Y-124056894D01*
X152802449Y-124056894D01*
X152809180Y-124058997D01*
X152880830Y-124060310D01*
X152945427Y-124061495D01*
X152945429Y-124061495D01*
X152952481Y-124061624D01*
X152959284Y-124059769D01*
X152959286Y-124059769D01*
X153006065Y-124047015D01*
X153090758Y-124023925D01*
X153212897Y-123948931D01*
X153240837Y-123918063D01*
X153293904Y-123887610D01*
X153314234Y-123885500D01*
X187674165Y-123885500D01*
X187732356Y-123904407D01*
X187744169Y-123914496D01*
X190736498Y-126906825D01*
X190764275Y-126961342D01*
X190764977Y-126971007D01*
X190764538Y-126973824D01*
X190783121Y-127115939D01*
X190785962Y-127122395D01*
X190785962Y-127122396D01*
X190787870Y-127126731D01*
X190840845Y-127247126D01*
X190933068Y-127356838D01*
X190938939Y-127360746D01*
X190938940Y-127360747D01*
X190951235Y-127368931D01*
X191052377Y-127436257D01*
X191059104Y-127438359D01*
X191059107Y-127438360D01*
X191182448Y-127476894D01*
X191182449Y-127476894D01*
X191189180Y-127478997D01*
X191260831Y-127480311D01*
X191325427Y-127481495D01*
X191325429Y-127481495D01*
X191332481Y-127481624D01*
X191339284Y-127479769D01*
X191339286Y-127479769D01*
X191386065Y-127467015D01*
X191470758Y-127443925D01*
X191592897Y-127368931D01*
X191689078Y-127262672D01*
X191751570Y-127133689D01*
X191754557Y-127115939D01*
X191774715Y-126996120D01*
X191774715Y-126996117D01*
X191775349Y-126992350D01*
X191775500Y-126980000D01*
X191755182Y-126838123D01*
X191695860Y-126707651D01*
X191602303Y-126599074D01*
X191482033Y-126521118D01*
X191475275Y-126519097D01*
X191475273Y-126519096D01*
X191351479Y-126482074D01*
X191344718Y-126480052D01*
X191307508Y-126479825D01*
X191270331Y-126479598D01*
X191212257Y-126460336D01*
X191200931Y-126450604D01*
X188093093Y-123342766D01*
X188087258Y-123336398D01*
X188078222Y-123325629D01*
X188062441Y-123306822D01*
X188028795Y-123287396D01*
X188021514Y-123282758D01*
X187996772Y-123265434D01*
X187996771Y-123265433D01*
X187989675Y-123260465D01*
X187981306Y-123258223D01*
X187976017Y-123255757D01*
X187970539Y-123253763D01*
X187963038Y-123249432D01*
X187954510Y-123247928D01*
X187954509Y-123247928D01*
X187924774Y-123242685D01*
X187916342Y-123240816D01*
X187902675Y-123237154D01*
X187878805Y-123230758D01*
X187840383Y-123234120D01*
X187840344Y-123234123D01*
X187831715Y-123234500D01*
X153315439Y-123234500D01*
X153257248Y-123215593D01*
X153240446Y-123200129D01*
X153222303Y-123179074D01*
X153102033Y-123101118D01*
X153095275Y-123099097D01*
X153095273Y-123099096D01*
X152971479Y-123062074D01*
X152964718Y-123060052D01*
X152878694Y-123059527D01*
X152828448Y-123059220D01*
X152821396Y-123059177D01*
X152814620Y-123061114D01*
X152814617Y-123061114D01*
X152690369Y-123096624D01*
X152690367Y-123096625D01*
X152683589Y-123098562D01*
X152562375Y-123175042D01*
X152467499Y-123282469D01*
X152406588Y-123412206D01*
X152384538Y-123553824D01*
X149884151Y-123553824D01*
X149424496Y-123094169D01*
X149396719Y-123039652D01*
X149395500Y-123024165D01*
X149395500Y-116934206D01*
X149414407Y-116876015D01*
X149421103Y-116867769D01*
X149423650Y-116864956D01*
X149489078Y-116792672D01*
X149551570Y-116663689D01*
X149552821Y-116656257D01*
X149574715Y-116526120D01*
X149574715Y-116526117D01*
X149575349Y-116522350D01*
X149575500Y-116510000D01*
X149555182Y-116368123D01*
X149548620Y-116353689D01*
X149498780Y-116244073D01*
X149498780Y-116244072D01*
X149495860Y-116237651D01*
X149458096Y-116193824D01*
X181884538Y-116193824D01*
X181885453Y-116200822D01*
X181888864Y-116226904D01*
X181903121Y-116335939D01*
X181905962Y-116342395D01*
X181905962Y-116342396D01*
X181955577Y-116455153D01*
X181960845Y-116467126D01*
X181965382Y-116472523D01*
X181965383Y-116472525D01*
X181997575Y-116510822D01*
X182053068Y-116576838D01*
X182058939Y-116580746D01*
X182058940Y-116580747D01*
X182081279Y-116595617D01*
X182172377Y-116656257D01*
X182179104Y-116658359D01*
X182179107Y-116658360D01*
X182302448Y-116696894D01*
X182302449Y-116696894D01*
X182309180Y-116698997D01*
X182380830Y-116700310D01*
X182445427Y-116701495D01*
X182445429Y-116701495D01*
X182452481Y-116701624D01*
X182459284Y-116699769D01*
X182459286Y-116699769D01*
X182506065Y-116687015D01*
X182590758Y-116663925D01*
X182712897Y-116588931D01*
X182809078Y-116482672D01*
X182871570Y-116353689D01*
X182874557Y-116335939D01*
X182894715Y-116216120D01*
X182894715Y-116216117D01*
X182895349Y-116212350D01*
X182895500Y-116200000D01*
X182875182Y-116058123D01*
X182853809Y-116011114D01*
X182818780Y-115934073D01*
X182818780Y-115934072D01*
X182815860Y-115927651D01*
X182739501Y-115839033D01*
X182715840Y-115782608D01*
X182715500Y-115774409D01*
X182715500Y-104883824D01*
X183914538Y-104883824D01*
X183915453Y-104890822D01*
X183926687Y-104976731D01*
X183933121Y-105025939D01*
X183935962Y-105032395D01*
X183935962Y-105032396D01*
X183971285Y-105112672D01*
X183990845Y-105157126D01*
X183995382Y-105162523D01*
X183995383Y-105162525D01*
X184048048Y-105225177D01*
X184064747Y-105245042D01*
X184071283Y-105252818D01*
X184094253Y-105309528D01*
X184094500Y-105316520D01*
X184094500Y-115671715D01*
X184094123Y-115680344D01*
X184090758Y-115718805D01*
X184092999Y-115727168D01*
X184100816Y-115756342D01*
X184102685Y-115764774D01*
X184109432Y-115803038D01*
X184113763Y-115810539D01*
X184115757Y-115816017D01*
X184118223Y-115821306D01*
X184120465Y-115829675D01*
X184125433Y-115836771D01*
X184125434Y-115836772D01*
X184142758Y-115861514D01*
X184147396Y-115868795D01*
X184166822Y-115902441D01*
X184184389Y-115917181D01*
X184196398Y-115927258D01*
X184202766Y-115933093D01*
X185009786Y-116740113D01*
X185806902Y-117537228D01*
X185812737Y-117543596D01*
X185831991Y-117566543D01*
X185831993Y-117566545D01*
X185837559Y-117573178D01*
X185871214Y-117592609D01*
X185878495Y-117597248D01*
X185910325Y-117619535D01*
X185918693Y-117621777D01*
X185923982Y-117624244D01*
X185929464Y-117626239D01*
X185936962Y-117630568D01*
X185945487Y-117632071D01*
X185945489Y-117632072D01*
X185968373Y-117636107D01*
X185975218Y-117637314D01*
X185983648Y-117639183D01*
X186012828Y-117647002D01*
X186012833Y-117647002D01*
X186021195Y-117649243D01*
X186059665Y-117645877D01*
X186068293Y-117645500D01*
X192493802Y-117645500D01*
X192551993Y-117664407D01*
X192569585Y-117680798D01*
X192578529Y-117691439D01*
X192578532Y-117691441D01*
X192583068Y-117696838D01*
X192588939Y-117700746D01*
X192588940Y-117700747D01*
X192601235Y-117708931D01*
X192702377Y-117776257D01*
X192709104Y-117778359D01*
X192709107Y-117778360D01*
X192832448Y-117816894D01*
X192832449Y-117816894D01*
X192839180Y-117818997D01*
X192910831Y-117820311D01*
X192975427Y-117821495D01*
X192975429Y-117821495D01*
X192982481Y-117821624D01*
X192989284Y-117819769D01*
X192989286Y-117819769D01*
X193036065Y-117807015D01*
X193120758Y-117783925D01*
X193242897Y-117708931D01*
X193296924Y-117649243D01*
X193334346Y-117607900D01*
X193334346Y-117607899D01*
X193339078Y-117602672D01*
X193395295Y-117486641D01*
X193398494Y-117480038D01*
X193401570Y-117473689D01*
X193404796Y-117454519D01*
X193424715Y-117336120D01*
X193424715Y-117336117D01*
X193425349Y-117332350D01*
X193425500Y-117320000D01*
X193405182Y-117178123D01*
X193345860Y-117047651D01*
X193252303Y-116939074D01*
X193132033Y-116861118D01*
X193125275Y-116859097D01*
X193125273Y-116859096D01*
X193001479Y-116822074D01*
X192994718Y-116820052D01*
X192908694Y-116819527D01*
X192858448Y-116819220D01*
X192851396Y-116819177D01*
X192844620Y-116821114D01*
X192844617Y-116821114D01*
X192720369Y-116856624D01*
X192720367Y-116856625D01*
X192713589Y-116858562D01*
X192592375Y-116935042D01*
X192587708Y-116940326D01*
X192587706Y-116940328D01*
X192569420Y-116961034D01*
X192516729Y-116992134D01*
X192495216Y-116994500D01*
X186225834Y-116994500D01*
X186167643Y-116975593D01*
X186155830Y-116965504D01*
X185470113Y-116279786D01*
X184774496Y-115584169D01*
X184746719Y-115529652D01*
X184745500Y-115514165D01*
X184745500Y-105314206D01*
X184764407Y-105256015D01*
X184771103Y-105247769D01*
X184773572Y-105245042D01*
X184839078Y-105172672D01*
X184901570Y-105043689D01*
X184903435Y-105032608D01*
X184924715Y-104906120D01*
X184924715Y-104906117D01*
X184925349Y-104902350D01*
X184925500Y-104890000D01*
X184916908Y-104830000D01*
X184916023Y-104823824D01*
X185504538Y-104823824D01*
X185523121Y-104965939D01*
X185525962Y-104972395D01*
X185525962Y-104972396D01*
X185568502Y-105069074D01*
X185580845Y-105097126D01*
X185585382Y-105102523D01*
X185585383Y-105102525D01*
X185661283Y-105192818D01*
X185684253Y-105249528D01*
X185684500Y-105256520D01*
X185684500Y-110946709D01*
X185684123Y-110955338D01*
X185680758Y-110993799D01*
X185682999Y-111002162D01*
X185690816Y-111031336D01*
X185692685Y-111039768D01*
X185699432Y-111078032D01*
X185703763Y-111085533D01*
X185705757Y-111091011D01*
X185708223Y-111096300D01*
X185710465Y-111104669D01*
X185715433Y-111111765D01*
X185715434Y-111111766D01*
X185732758Y-111136508D01*
X185737396Y-111143789D01*
X185756822Y-111177435D01*
X185786398Y-111202252D01*
X185792766Y-111208087D01*
X189356414Y-114771735D01*
X189362248Y-114778102D01*
X189387066Y-114807679D01*
X189420712Y-114827104D01*
X189420721Y-114827109D01*
X189428004Y-114831749D01*
X189452735Y-114849066D01*
X189452737Y-114849067D01*
X189459832Y-114854035D01*
X189468201Y-114856277D01*
X189473501Y-114858749D01*
X189478970Y-114860740D01*
X189486469Y-114865069D01*
X189494996Y-114866573D01*
X189494997Y-114866573D01*
X189511307Y-114869449D01*
X189524740Y-114871818D01*
X189533165Y-114873685D01*
X189570701Y-114883743D01*
X189609163Y-114880378D01*
X189617791Y-114880001D01*
X193767214Y-114880001D01*
X193775843Y-114880378D01*
X193814304Y-114883743D01*
X193851841Y-114873685D01*
X193860273Y-114871816D01*
X193890008Y-114866573D01*
X193890009Y-114866573D01*
X193898537Y-114865069D01*
X193906038Y-114860738D01*
X193911516Y-114858744D01*
X193916805Y-114856278D01*
X193925174Y-114854036D01*
X193957004Y-114831749D01*
X193957013Y-114831743D01*
X193964295Y-114827104D01*
X193974010Y-114821495D01*
X193997940Y-114807679D01*
X194022758Y-114778102D01*
X194028592Y-114771735D01*
X194628121Y-114172206D01*
X195230820Y-113569506D01*
X195285337Y-113541729D01*
X195302637Y-113540527D01*
X195315989Y-113540772D01*
X195355428Y-113541495D01*
X195355430Y-113541495D01*
X195362481Y-113541624D01*
X195369284Y-113539769D01*
X195369286Y-113539769D01*
X195437695Y-113521118D01*
X195500758Y-113503925D01*
X195622897Y-113428931D01*
X195627632Y-113423700D01*
X195714346Y-113327900D01*
X195714346Y-113327899D01*
X195719078Y-113322672D01*
X195781570Y-113193689D01*
X195795103Y-113113254D01*
X195804715Y-113056120D01*
X195804715Y-113056117D01*
X195805349Y-113052350D01*
X195805500Y-113040000D01*
X195785182Y-112898123D01*
X195758050Y-112838448D01*
X195728780Y-112774073D01*
X195728780Y-112774072D01*
X195725860Y-112767651D01*
X195632303Y-112659074D01*
X195512033Y-112581118D01*
X195505275Y-112579097D01*
X195505273Y-112579096D01*
X195381479Y-112542074D01*
X195374718Y-112540052D01*
X195288694Y-112539527D01*
X195238448Y-112539220D01*
X195231396Y-112539177D01*
X195224620Y-112541114D01*
X195224617Y-112541114D01*
X195100369Y-112576624D01*
X195100367Y-112576625D01*
X195093589Y-112578562D01*
X194972375Y-112655042D01*
X194877499Y-112762469D01*
X194816588Y-112892206D01*
X194794538Y-113033824D01*
X194795453Y-113040824D01*
X194795409Y-113044458D01*
X194775792Y-113102414D01*
X194766420Y-113113254D01*
X193679668Y-114200005D01*
X193625151Y-114227782D01*
X193609664Y-114229001D01*
X190582582Y-114229001D01*
X190524391Y-114210094D01*
X190488427Y-114160594D01*
X190484954Y-114113576D01*
X190504715Y-113996120D01*
X190504715Y-113996117D01*
X190505349Y-113992350D01*
X190505500Y-113980000D01*
X190485182Y-113838123D01*
X190479196Y-113824956D01*
X190428780Y-113714073D01*
X190428780Y-113714072D01*
X190425860Y-113707651D01*
X190332303Y-113599074D01*
X190212033Y-113521118D01*
X190205275Y-113519097D01*
X190205273Y-113519096D01*
X190081479Y-113482074D01*
X190074718Y-113480052D01*
X190037138Y-113479823D01*
X190000330Y-113479598D01*
X189942256Y-113460336D01*
X189930930Y-113450604D01*
X188374496Y-111894169D01*
X188346719Y-111839652D01*
X188345500Y-111824165D01*
X188345500Y-106043824D01*
X188624538Y-106043824D01*
X188625453Y-106050822D01*
X188630362Y-106088360D01*
X188643121Y-106185939D01*
X188645962Y-106192395D01*
X188645962Y-106192396D01*
X188680742Y-106271438D01*
X188700845Y-106317126D01*
X188705382Y-106322523D01*
X188705383Y-106322525D01*
X188781283Y-106412818D01*
X188804253Y-106469528D01*
X188804500Y-106476520D01*
X188804500Y-108321715D01*
X188804123Y-108330344D01*
X188800758Y-108368805D01*
X188802999Y-108377168D01*
X188810816Y-108406342D01*
X188812685Y-108414774D01*
X188817928Y-108444509D01*
X188819432Y-108453038D01*
X188823763Y-108460539D01*
X188825757Y-108466017D01*
X188828223Y-108471306D01*
X188830465Y-108479675D01*
X188835433Y-108486771D01*
X188835434Y-108486772D01*
X188852758Y-108511514D01*
X188857396Y-108518795D01*
X188876822Y-108552441D01*
X188883455Y-108558007D01*
X188883457Y-108558009D01*
X188906397Y-108577257D01*
X188912755Y-108583082D01*
X189405527Y-109075853D01*
X189896902Y-109567228D01*
X189902737Y-109573596D01*
X189921991Y-109596543D01*
X189921993Y-109596545D01*
X189927559Y-109603178D01*
X189961214Y-109622609D01*
X189968495Y-109627248D01*
X190000325Y-109649535D01*
X190008693Y-109651777D01*
X190013982Y-109654244D01*
X190019464Y-109656239D01*
X190026962Y-109660568D01*
X190035487Y-109662071D01*
X190035489Y-109662072D01*
X190058373Y-109666107D01*
X190065218Y-109667314D01*
X190073648Y-109669183D01*
X190102828Y-109677002D01*
X190102833Y-109677002D01*
X190111195Y-109679243D01*
X190149665Y-109675877D01*
X190158293Y-109675500D01*
X190943802Y-109675500D01*
X191001993Y-109694407D01*
X191019585Y-109710798D01*
X191028529Y-109721439D01*
X191028532Y-109721441D01*
X191033068Y-109726838D01*
X191038939Y-109730746D01*
X191038940Y-109730747D01*
X191051235Y-109738931D01*
X191152377Y-109806257D01*
X191159104Y-109808359D01*
X191159107Y-109808360D01*
X191282448Y-109846894D01*
X191282449Y-109846894D01*
X191289180Y-109848997D01*
X191360830Y-109850310D01*
X191425427Y-109851495D01*
X191425429Y-109851495D01*
X191432481Y-109851624D01*
X191439284Y-109849769D01*
X191439286Y-109849769D01*
X191495221Y-109834519D01*
X191570758Y-109813925D01*
X191692897Y-109738931D01*
X191746924Y-109679243D01*
X191784346Y-109637900D01*
X191784346Y-109637899D01*
X191789078Y-109632672D01*
X191851570Y-109503689D01*
X191875349Y-109362350D01*
X191875500Y-109350000D01*
X191855182Y-109208123D01*
X191795860Y-109077651D01*
X191702303Y-108969074D01*
X191582033Y-108891118D01*
X191575275Y-108889097D01*
X191575273Y-108889096D01*
X191451479Y-108852074D01*
X191444718Y-108850052D01*
X191358694Y-108849527D01*
X191308448Y-108849220D01*
X191301396Y-108849177D01*
X191294620Y-108851114D01*
X191294617Y-108851114D01*
X191170369Y-108886624D01*
X191170367Y-108886625D01*
X191163589Y-108888562D01*
X191042375Y-108965042D01*
X191037708Y-108970326D01*
X191037706Y-108970328D01*
X191019420Y-108991034D01*
X190966729Y-109022134D01*
X190945216Y-109024500D01*
X190315834Y-109024500D01*
X190257643Y-109005593D01*
X190245830Y-108995504D01*
X189484496Y-108234169D01*
X189456719Y-108179652D01*
X189455500Y-108164165D01*
X189455500Y-106474206D01*
X189474407Y-106416015D01*
X189481103Y-106407769D01*
X189486666Y-106401624D01*
X189549078Y-106332672D01*
X189611570Y-106203689D01*
X189614227Y-106187900D01*
X189634715Y-106066120D01*
X189634715Y-106066117D01*
X189635349Y-106062350D01*
X189635500Y-106050000D01*
X189615182Y-105908123D01*
X189611863Y-105900822D01*
X189558780Y-105784073D01*
X189558780Y-105784072D01*
X189555860Y-105777651D01*
X189462303Y-105669074D01*
X189342033Y-105591118D01*
X189335275Y-105589097D01*
X189335273Y-105589096D01*
X189211479Y-105552074D01*
X189204718Y-105550052D01*
X189118694Y-105549527D01*
X189068448Y-105549220D01*
X189061396Y-105549177D01*
X189054620Y-105551114D01*
X189054617Y-105551114D01*
X188930369Y-105586624D01*
X188930367Y-105586625D01*
X188923589Y-105588562D01*
X188802375Y-105665042D01*
X188707499Y-105772469D01*
X188646588Y-105902206D01*
X188624538Y-106043824D01*
X188345500Y-106043824D01*
X188345500Y-104074206D01*
X188364407Y-104016015D01*
X188371103Y-104007769D01*
X188434346Y-103937900D01*
X188434346Y-103937899D01*
X188439078Y-103932672D01*
X188501570Y-103803689D01*
X188504557Y-103785939D01*
X188524715Y-103666120D01*
X188524715Y-103666117D01*
X188525349Y-103662350D01*
X188525500Y-103650000D01*
X188505182Y-103508123D01*
X188445860Y-103377651D01*
X188352303Y-103269074D01*
X188232033Y-103191118D01*
X188225275Y-103189097D01*
X188225273Y-103189096D01*
X188101479Y-103152074D01*
X188094718Y-103150052D01*
X188008694Y-103149527D01*
X187958448Y-103149220D01*
X187951396Y-103149177D01*
X187944620Y-103151114D01*
X187944617Y-103151114D01*
X187820369Y-103186624D01*
X187820367Y-103186625D01*
X187813589Y-103188562D01*
X187692375Y-103265042D01*
X187597499Y-103372469D01*
X187536588Y-103502206D01*
X187514538Y-103643824D01*
X187533121Y-103785939D01*
X187535962Y-103792395D01*
X187535962Y-103792396D01*
X187537870Y-103796731D01*
X187590845Y-103917126D01*
X187595382Y-103922523D01*
X187595383Y-103922525D01*
X187671283Y-104012818D01*
X187694253Y-104069528D01*
X187694500Y-104076520D01*
X187694500Y-111950159D01*
X187675593Y-112008350D01*
X187626093Y-112044314D01*
X187564907Y-112044314D01*
X187525496Y-112020163D01*
X186364496Y-110859163D01*
X186336719Y-110804646D01*
X186335500Y-110789159D01*
X186335500Y-105254206D01*
X186354407Y-105196015D01*
X186361103Y-105187769D01*
X186364449Y-105184073D01*
X186429078Y-105112672D01*
X186491570Y-104983689D01*
X186494557Y-104965939D01*
X186514715Y-104846120D01*
X186514715Y-104846117D01*
X186515349Y-104842350D01*
X186515500Y-104830000D01*
X186495182Y-104688123D01*
X186466061Y-104624073D01*
X186438780Y-104564073D01*
X186438780Y-104564072D01*
X186435860Y-104557651D01*
X186342303Y-104449074D01*
X186222033Y-104371118D01*
X186215275Y-104369097D01*
X186215273Y-104369096D01*
X186091479Y-104332074D01*
X186084718Y-104330052D01*
X185998694Y-104329527D01*
X185948448Y-104329220D01*
X185941396Y-104329177D01*
X185934620Y-104331114D01*
X185934617Y-104331114D01*
X185810369Y-104366624D01*
X185810367Y-104366625D01*
X185803589Y-104368562D01*
X185682375Y-104445042D01*
X185587499Y-104552469D01*
X185526588Y-104682206D01*
X185504538Y-104823824D01*
X184916023Y-104823824D01*
X184906182Y-104755106D01*
X184905182Y-104748123D01*
X184878381Y-104689176D01*
X184848780Y-104624073D01*
X184848780Y-104624072D01*
X184845860Y-104617651D01*
X184752303Y-104509074D01*
X184632033Y-104431118D01*
X184625275Y-104429097D01*
X184625273Y-104429096D01*
X184501479Y-104392074D01*
X184494718Y-104390052D01*
X184408694Y-104389527D01*
X184358448Y-104389220D01*
X184351396Y-104389177D01*
X184344620Y-104391114D01*
X184344617Y-104391114D01*
X184220369Y-104426624D01*
X184220367Y-104426625D01*
X184213589Y-104428562D01*
X184092375Y-104505042D01*
X183997499Y-104612469D01*
X183936588Y-104742206D01*
X183914538Y-104883824D01*
X182715500Y-104883824D01*
X182715500Y-97845835D01*
X182734407Y-97787644D01*
X182744496Y-97775831D01*
X183590821Y-96929506D01*
X183645338Y-96901729D01*
X183662639Y-96900527D01*
X183678493Y-96900818D01*
X183715428Y-96901495D01*
X183715430Y-96901495D01*
X183722481Y-96901624D01*
X183729284Y-96899769D01*
X183729286Y-96899769D01*
X183776065Y-96887015D01*
X183860758Y-96863925D01*
X183982897Y-96788931D01*
X184079078Y-96682672D01*
X184141570Y-96553689D01*
X184149724Y-96505226D01*
X184164715Y-96416120D01*
X184164715Y-96416117D01*
X184165349Y-96412350D01*
X184165397Y-96408486D01*
X184165453Y-96403826D01*
X184165500Y-96400000D01*
X184145182Y-96258123D01*
X184139818Y-96246324D01*
X184088780Y-96134073D01*
X184088780Y-96134072D01*
X184085860Y-96127651D01*
X183992303Y-96019074D01*
X183872033Y-95941118D01*
X183865275Y-95939097D01*
X183865273Y-95939096D01*
X183741479Y-95902074D01*
X183734718Y-95900052D01*
X183648694Y-95899527D01*
X183598448Y-95899220D01*
X183591396Y-95899177D01*
X183584620Y-95901114D01*
X183584617Y-95901114D01*
X183460369Y-95936624D01*
X183460367Y-95936625D01*
X183453589Y-95938562D01*
X183332375Y-96015042D01*
X183237499Y-96122469D01*
X183234504Y-96128849D01*
X183234501Y-96128853D01*
X183224036Y-96151144D01*
X183182191Y-96195783D01*
X183150151Y-96201924D01*
X183172466Y-96243630D01*
X183172836Y-96276304D01*
X183154538Y-96393824D01*
X183155453Y-96400824D01*
X183155409Y-96404458D01*
X183135792Y-96462413D01*
X183126420Y-96473253D01*
X182172766Y-97426907D01*
X182166399Y-97432741D01*
X182136822Y-97457559D01*
X182132492Y-97465059D01*
X182117397Y-97491204D01*
X182112758Y-97498486D01*
X182095434Y-97523228D01*
X182090465Y-97530325D01*
X182088223Y-97538694D01*
X182085757Y-97543983D01*
X182083763Y-97549461D01*
X182079432Y-97556962D01*
X182077928Y-97565490D01*
X182077928Y-97565491D01*
X182072685Y-97595226D01*
X182070816Y-97603658D01*
X182060758Y-97641195D01*
X182061513Y-97649822D01*
X182064123Y-97679656D01*
X182064500Y-97688285D01*
X182064500Y-114210103D01*
X182045593Y-114268294D01*
X182027198Y-114281659D01*
X182054137Y-114309121D01*
X182064500Y-114353217D01*
X182064500Y-115775177D01*
X182045593Y-115833368D01*
X182039704Y-115840711D01*
X181985187Y-115902441D01*
X181967499Y-115922469D01*
X181906588Y-116052206D01*
X181884538Y-116193824D01*
X149458096Y-116193824D01*
X149402303Y-116129074D01*
X149282033Y-116051118D01*
X149275275Y-116049097D01*
X149275273Y-116049096D01*
X149151479Y-116012074D01*
X149144718Y-116010052D01*
X149058694Y-116009527D01*
X149008448Y-116009220D01*
X149001396Y-116009177D01*
X148994620Y-116011114D01*
X148994617Y-116011114D01*
X148870369Y-116046624D01*
X148870367Y-116046625D01*
X148863589Y-116048562D01*
X148742375Y-116125042D01*
X148647499Y-116232469D01*
X148586588Y-116362206D01*
X148564538Y-116503824D01*
X146042516Y-116503824D01*
X146140782Y-116390781D01*
X146149615Y-116375106D01*
X146223448Y-116244073D01*
X146235585Y-116222534D01*
X146294620Y-116038660D01*
X146297508Y-116012074D01*
X146315197Y-115849251D01*
X146315197Y-115849246D01*
X146315477Y-115846671D01*
X146315500Y-115840000D01*
X146304039Y-115727168D01*
X146296491Y-115652857D01*
X146296490Y-115652853D01*
X146295984Y-115647870D01*
X146238234Y-115463589D01*
X146144608Y-115294683D01*
X146076874Y-115215657D01*
X146022197Y-115151864D01*
X146022195Y-115151862D01*
X146018931Y-115148054D01*
X145991169Y-115126520D01*
X145870298Y-115032761D01*
X145870293Y-115032758D01*
X145866338Y-115029690D01*
X145693061Y-114944427D01*
X145578242Y-114914519D01*
X145511036Y-114897013D01*
X145511032Y-114897012D01*
X145506178Y-114895748D01*
X145501166Y-114895485D01*
X145501164Y-114895485D01*
X145433134Y-114891920D01*
X145313324Y-114885641D01*
X145122377Y-114914519D01*
X144941136Y-114981202D01*
X144936878Y-114983842D01*
X144936876Y-114983843D01*
X144862933Y-115029690D01*
X144777006Y-115082967D01*
X144636691Y-115215657D01*
X144633817Y-115219762D01*
X144633814Y-115219765D01*
X144528798Y-115369744D01*
X144525923Y-115373850D01*
X144449226Y-115551086D01*
X144409734Y-115740123D01*
X144409717Y-115745136D01*
X144409716Y-115745141D01*
X144409470Y-115815629D01*
X144409060Y-115933240D01*
X127703567Y-115933240D01*
X126084151Y-114313824D01*
X127404538Y-114313824D01*
X127423121Y-114455939D01*
X127480845Y-114587126D01*
X127485382Y-114592523D01*
X127485383Y-114592525D01*
X127528995Y-114644407D01*
X127573068Y-114696838D01*
X127692377Y-114776257D01*
X127699104Y-114778359D01*
X127699107Y-114778360D01*
X127822448Y-114816894D01*
X127822449Y-114816894D01*
X127829180Y-114818997D01*
X127900830Y-114820310D01*
X127965427Y-114821495D01*
X127965429Y-114821495D01*
X127972481Y-114821624D01*
X127979284Y-114819769D01*
X127979286Y-114819769D01*
X128047963Y-114801045D01*
X128110758Y-114783925D01*
X128232897Y-114708931D01*
X128261439Y-114677399D01*
X128278941Y-114658063D01*
X128332009Y-114627610D01*
X128352338Y-114625500D01*
X180961714Y-114625500D01*
X181019905Y-114644407D01*
X181027700Y-114650698D01*
X181028533Y-114651442D01*
X181033068Y-114656838D01*
X181152377Y-114736257D01*
X181159104Y-114738359D01*
X181159107Y-114738360D01*
X181282448Y-114776894D01*
X181282449Y-114776894D01*
X181289180Y-114778997D01*
X181360830Y-114780310D01*
X181425427Y-114781495D01*
X181425429Y-114781495D01*
X181432481Y-114781624D01*
X181439284Y-114779769D01*
X181439286Y-114779769D01*
X181486065Y-114767015D01*
X181570758Y-114743925D01*
X181692897Y-114668931D01*
X181732209Y-114625500D01*
X181784346Y-114567900D01*
X181784346Y-114567899D01*
X181789078Y-114562672D01*
X181851570Y-114433689D01*
X181867872Y-114336792D01*
X181896172Y-114282545D01*
X181901425Y-114279932D01*
X181885407Y-114268294D01*
X181867500Y-114224138D01*
X181856182Y-114145105D01*
X181856182Y-114145104D01*
X181855182Y-114138123D01*
X181844022Y-114113576D01*
X181798780Y-114014073D01*
X181798780Y-114014072D01*
X181795860Y-114007651D01*
X181702303Y-113899074D01*
X181582033Y-113821118D01*
X181575275Y-113819097D01*
X181575273Y-113819096D01*
X181451479Y-113782074D01*
X181444718Y-113780052D01*
X181358694Y-113779527D01*
X181308448Y-113779220D01*
X181301396Y-113779177D01*
X181294620Y-113781114D01*
X181294617Y-113781114D01*
X181170369Y-113816624D01*
X181170367Y-113816625D01*
X181163589Y-113818562D01*
X181042375Y-113895042D01*
X181002570Y-113940113D01*
X180957170Y-113991519D01*
X180947499Y-114002469D01*
X180944500Y-114008857D01*
X180940408Y-114017572D01*
X180898564Y-114062212D01*
X180850793Y-114074500D01*
X146163542Y-114074500D01*
X146105351Y-114055593D01*
X146069387Y-114006093D01*
X146069387Y-113944907D01*
X146088826Y-113910550D01*
X146137489Y-113854569D01*
X146140782Y-113850781D01*
X146147915Y-113838123D01*
X146194357Y-113755701D01*
X146235585Y-113682534D01*
X146294620Y-113498660D01*
X146296718Y-113479350D01*
X146315197Y-113309251D01*
X146315197Y-113309246D01*
X146315477Y-113306671D01*
X146315500Y-113300000D01*
X146304701Y-113193689D01*
X146296491Y-113112857D01*
X146296490Y-113112853D01*
X146295984Y-113107870D01*
X146238234Y-112923589D01*
X146144608Y-112754683D01*
X146089808Y-112690747D01*
X146022197Y-112611864D01*
X146022195Y-112611862D01*
X146018931Y-112608054D01*
X145978412Y-112576624D01*
X145870298Y-112492761D01*
X145870293Y-112492758D01*
X145866338Y-112489690D01*
X145693061Y-112404427D01*
X145578242Y-112374519D01*
X145511036Y-112357013D01*
X145511032Y-112357012D01*
X145506178Y-112355748D01*
X145501166Y-112355485D01*
X145501164Y-112355485D01*
X145433134Y-112351920D01*
X145313324Y-112345641D01*
X145122377Y-112374519D01*
X144941136Y-112441202D01*
X144936878Y-112443842D01*
X144936876Y-112443843D01*
X144781707Y-112540052D01*
X144777006Y-112542967D01*
X144636691Y-112675657D01*
X144633817Y-112679762D01*
X144633814Y-112679765D01*
X144571243Y-112769126D01*
X144525923Y-112833850D01*
X144523934Y-112838446D01*
X144523933Y-112838448D01*
X144497654Y-112899176D01*
X144449226Y-113011086D01*
X144409734Y-113200123D01*
X144409060Y-113393240D01*
X144410052Y-113398158D01*
X144430635Y-113500236D01*
X144447232Y-113582549D01*
X144522689Y-113760316D01*
X144525534Y-113764440D01*
X144525535Y-113764442D01*
X144632350Y-113919279D01*
X144630715Y-113920407D01*
X144649756Y-113970906D01*
X144633570Y-114029911D01*
X144585792Y-114068133D01*
X144550863Y-114074500D01*
X128404373Y-114074500D01*
X128346182Y-114055593D01*
X128329374Y-114040124D01*
X128302433Y-114008857D01*
X128242303Y-113939074D01*
X128230653Y-113931523D01*
X128192107Y-113884008D01*
X128185500Y-113848448D01*
X128185500Y-112263824D01*
X131534538Y-112263824D01*
X131535453Y-112270822D01*
X131549013Y-112374519D01*
X131553121Y-112405939D01*
X131555962Y-112412395D01*
X131555962Y-112412396D01*
X131589973Y-112489690D01*
X131610845Y-112537126D01*
X131615382Y-112542523D01*
X131615383Y-112542525D01*
X131661931Y-112597900D01*
X131703068Y-112646838D01*
X131708939Y-112650746D01*
X131708940Y-112650747D01*
X131721235Y-112658931D01*
X131822377Y-112726257D01*
X131829104Y-112728359D01*
X131829107Y-112728360D01*
X131952448Y-112766894D01*
X131952449Y-112766894D01*
X131959180Y-112768997D01*
X132030830Y-112770310D01*
X132095427Y-112771495D01*
X132095429Y-112771495D01*
X132102481Y-112771624D01*
X132109284Y-112769769D01*
X132109286Y-112769769D01*
X132178590Y-112750874D01*
X132240758Y-112733925D01*
X132297751Y-112698931D01*
X132356888Y-112662621D01*
X132356890Y-112662619D01*
X132362897Y-112658931D01*
X132399889Y-112618064D01*
X132452956Y-112587610D01*
X132473286Y-112585500D01*
X134131772Y-112585500D01*
X134189963Y-112604407D01*
X134207552Y-112620794D01*
X134263068Y-112686838D01*
X134268939Y-112690746D01*
X134268940Y-112690747D01*
X134281235Y-112698931D01*
X134382377Y-112766257D01*
X134389104Y-112768359D01*
X134389107Y-112768360D01*
X134512448Y-112806894D01*
X134512449Y-112806894D01*
X134519180Y-112808997D01*
X134590830Y-112810310D01*
X134655427Y-112811495D01*
X134655429Y-112811495D01*
X134662481Y-112811624D01*
X134669284Y-112809769D01*
X134669286Y-112809769D01*
X134716065Y-112797015D01*
X134800758Y-112773925D01*
X134922897Y-112698931D01*
X134947082Y-112672212D01*
X135014346Y-112597900D01*
X135014346Y-112597899D01*
X135019078Y-112592672D01*
X135081570Y-112463689D01*
X135085354Y-112441202D01*
X135104715Y-112326120D01*
X135104715Y-112326117D01*
X135105349Y-112322350D01*
X135105500Y-112310000D01*
X135085182Y-112168123D01*
X135072248Y-112139675D01*
X135028780Y-112044073D01*
X135028780Y-112044072D01*
X135025860Y-112037651D01*
X134932303Y-111929074D01*
X134812033Y-111851118D01*
X134805275Y-111849097D01*
X134805273Y-111849096D01*
X134681479Y-111812074D01*
X134674718Y-111810052D01*
X134588694Y-111809527D01*
X134538448Y-111809220D01*
X134531396Y-111809177D01*
X134524620Y-111811114D01*
X134524617Y-111811114D01*
X134400369Y-111846624D01*
X134400367Y-111846625D01*
X134393589Y-111848562D01*
X134272375Y-111925042D01*
X134234591Y-111967825D01*
X134205260Y-112001035D01*
X134152568Y-112032135D01*
X134131056Y-112034500D01*
X132542440Y-112034500D01*
X132484249Y-112015593D01*
X132466679Y-111996945D01*
X132465860Y-111997651D01*
X132376906Y-111894416D01*
X132372303Y-111889074D01*
X132252033Y-111811118D01*
X132245275Y-111809097D01*
X132245273Y-111809096D01*
X132121479Y-111772074D01*
X132114718Y-111770052D01*
X132028694Y-111769527D01*
X131978448Y-111769220D01*
X131971396Y-111769177D01*
X131964620Y-111771114D01*
X131964617Y-111771114D01*
X131840369Y-111806624D01*
X131840367Y-111806625D01*
X131833589Y-111808562D01*
X131712375Y-111885042D01*
X131617499Y-111992469D01*
X131556588Y-112122206D01*
X131534538Y-112263824D01*
X128185500Y-112263824D01*
X128185500Y-111855123D01*
X128204407Y-111796932D01*
X128214496Y-111785119D01*
X128665119Y-111334496D01*
X128719636Y-111306719D01*
X128735123Y-111305500D01*
X134733802Y-111305500D01*
X134791993Y-111324407D01*
X134809585Y-111340798D01*
X134818529Y-111351439D01*
X134818532Y-111351441D01*
X134823068Y-111356838D01*
X134828939Y-111360746D01*
X134828940Y-111360747D01*
X134861581Y-111382474D01*
X134942377Y-111436257D01*
X134949104Y-111438359D01*
X134949107Y-111438360D01*
X135072448Y-111476894D01*
X135072449Y-111476894D01*
X135079180Y-111478997D01*
X135150831Y-111480311D01*
X135215427Y-111481495D01*
X135215429Y-111481495D01*
X135222481Y-111481624D01*
X135229284Y-111479769D01*
X135229286Y-111479769D01*
X135276065Y-111467015D01*
X135360758Y-111443925D01*
X135482897Y-111368931D01*
X135579078Y-111262672D01*
X135641570Y-111133689D01*
X135645259Y-111111766D01*
X135664715Y-110996120D01*
X135664715Y-110996117D01*
X135665349Y-110992350D01*
X135665500Y-110980000D01*
X135647347Y-110853240D01*
X144409060Y-110853240D01*
X144447232Y-111042549D01*
X144522689Y-111220316D01*
X144525534Y-111224440D01*
X144525535Y-111224442D01*
X144629503Y-111375153D01*
X144629507Y-111375157D01*
X144632350Y-111379279D01*
X144635967Y-111382747D01*
X144635969Y-111382750D01*
X144754314Y-111496238D01*
X144771735Y-111512944D01*
X144775980Y-111515617D01*
X144898317Y-111592657D01*
X144935151Y-111615853D01*
X145115922Y-111683800D01*
X145120877Y-111684585D01*
X145120878Y-111684585D01*
X145301704Y-111713225D01*
X145301708Y-111713225D01*
X145306663Y-111714010D01*
X145380764Y-111710645D01*
X145494571Y-111705478D01*
X145494576Y-111705477D01*
X145499582Y-111705250D01*
X145504441Y-111704020D01*
X145504444Y-111704020D01*
X145681943Y-111659105D01*
X145686800Y-111657876D01*
X145691310Y-111655696D01*
X145856160Y-111576005D01*
X145856162Y-111576004D01*
X145860669Y-111573825D01*
X145981432Y-111481495D01*
X146010100Y-111459577D01*
X146010101Y-111459576D01*
X146014085Y-111456530D01*
X146140782Y-111310781D01*
X146164945Y-111267900D01*
X146194357Y-111215701D01*
X146235585Y-111142534D01*
X146294620Y-110958660D01*
X146295918Y-110946709D01*
X146315197Y-110769251D01*
X146315197Y-110769246D01*
X146315477Y-110766671D01*
X146315500Y-110760000D01*
X146304856Y-110655213D01*
X146296491Y-110572857D01*
X146296490Y-110572853D01*
X146295984Y-110567870D01*
X146238234Y-110383589D01*
X146144608Y-110214683D01*
X146076874Y-110135657D01*
X146022197Y-110071864D01*
X146022195Y-110071862D01*
X146018931Y-110068054D01*
X145991169Y-110046520D01*
X145870298Y-109952761D01*
X145870293Y-109952758D01*
X145866338Y-109949690D01*
X145693061Y-109864427D01*
X145578242Y-109834519D01*
X145511036Y-109817013D01*
X145511032Y-109817012D01*
X145506178Y-109815748D01*
X145501166Y-109815485D01*
X145501164Y-109815485D01*
X145433134Y-109811920D01*
X145313324Y-109805641D01*
X145122377Y-109834519D01*
X144941136Y-109901202D01*
X144936878Y-109903842D01*
X144936876Y-109903843D01*
X144862933Y-109949690D01*
X144777006Y-110002967D01*
X144636691Y-110135657D01*
X144633817Y-110139762D01*
X144633814Y-110139765D01*
X144528798Y-110289744D01*
X144525923Y-110293850D01*
X144449226Y-110471086D01*
X144409734Y-110660123D01*
X144409717Y-110665136D01*
X144409716Y-110665141D01*
X144409427Y-110748108D01*
X144409060Y-110853240D01*
X135647347Y-110853240D01*
X135645182Y-110838123D01*
X135642243Y-110831657D01*
X135588780Y-110714073D01*
X135588780Y-110714072D01*
X135585860Y-110707651D01*
X135492303Y-110599074D01*
X135372033Y-110521118D01*
X135365275Y-110519097D01*
X135365273Y-110519096D01*
X135241479Y-110482074D01*
X135234718Y-110480052D01*
X135148694Y-110479527D01*
X135098448Y-110479220D01*
X135091396Y-110479177D01*
X135084620Y-110481114D01*
X135084617Y-110481114D01*
X134960369Y-110516624D01*
X134960367Y-110516625D01*
X134953589Y-110518562D01*
X134832375Y-110595042D01*
X134789122Y-110644017D01*
X134742165Y-110697185D01*
X134742163Y-110697188D01*
X134737499Y-110702469D01*
X134734503Y-110708851D01*
X134733846Y-110709851D01*
X134686096Y-110748108D01*
X134651100Y-110754500D01*
X128614884Y-110754500D01*
X128595570Y-110752598D01*
X128589562Y-110751403D01*
X128580000Y-110749501D01*
X128570438Y-110751403D01*
X128554873Y-110754499D01*
X128554866Y-110754500D01*
X128554863Y-110754500D01*
X128554853Y-110754502D01*
X128482222Y-110768949D01*
X128482220Y-110768950D01*
X128472657Y-110770852D01*
X128381657Y-110831657D01*
X128376238Y-110839767D01*
X128372837Y-110844857D01*
X128360526Y-110859859D01*
X127739859Y-111480526D01*
X127724857Y-111492837D01*
X127711657Y-111501657D01*
X127650852Y-111592657D01*
X127648950Y-111602220D01*
X127648949Y-111602222D01*
X127634500Y-111674863D01*
X127634500Y-111674868D01*
X127629501Y-111700000D01*
X127631403Y-111709562D01*
X127632598Y-111715570D01*
X127634500Y-111734884D01*
X127634500Y-113847560D01*
X127615593Y-113905751D01*
X127593490Y-113926451D01*
X127593709Y-113926709D01*
X127588338Y-113931280D01*
X127582375Y-113935042D01*
X127577710Y-113940324D01*
X127577709Y-113940325D01*
X127550701Y-113970906D01*
X127487499Y-114042469D01*
X127426588Y-114172206D01*
X127404538Y-114313824D01*
X126084151Y-114313824D01*
X120083567Y-108313240D01*
X144409060Y-108313240D01*
X144410052Y-108318158D01*
X144444051Y-108486772D01*
X144447232Y-108502549D01*
X144522689Y-108680316D01*
X144525534Y-108684440D01*
X144525535Y-108684442D01*
X144629503Y-108835153D01*
X144629507Y-108835157D01*
X144632350Y-108839279D01*
X144635967Y-108842747D01*
X144635969Y-108842750D01*
X144763698Y-108965237D01*
X144771735Y-108972944D01*
X144807560Y-108995504D01*
X144929522Y-109072308D01*
X144935151Y-109075853D01*
X145115922Y-109143800D01*
X145120877Y-109144585D01*
X145120878Y-109144585D01*
X145301704Y-109173225D01*
X145301708Y-109173225D01*
X145306663Y-109174010D01*
X145380764Y-109170645D01*
X145494571Y-109165478D01*
X145494576Y-109165477D01*
X145499582Y-109165250D01*
X145504441Y-109164020D01*
X145504444Y-109164020D01*
X145681943Y-109119105D01*
X145686800Y-109117876D01*
X145691310Y-109115696D01*
X145856160Y-109036005D01*
X145856162Y-109036004D01*
X145860669Y-109033825D01*
X146014085Y-108916530D01*
X146140782Y-108770781D01*
X146157212Y-108741624D01*
X146194357Y-108675701D01*
X146235585Y-108602534D01*
X146294620Y-108418660D01*
X146300036Y-108368805D01*
X146315197Y-108229251D01*
X146315197Y-108229246D01*
X146315477Y-108226671D01*
X146315500Y-108220000D01*
X146304856Y-108115213D01*
X146296491Y-108032857D01*
X146296490Y-108032853D01*
X146295984Y-108027870D01*
X146238234Y-107843589D01*
X146144608Y-107674683D01*
X146076874Y-107595657D01*
X146022197Y-107531864D01*
X146022195Y-107531862D01*
X146018931Y-107528054D01*
X145991169Y-107506520D01*
X145870298Y-107412761D01*
X145870293Y-107412758D01*
X145866338Y-107409690D01*
X145693061Y-107324427D01*
X145578242Y-107294519D01*
X145511036Y-107277013D01*
X145511032Y-107277012D01*
X145506178Y-107275748D01*
X145501166Y-107275485D01*
X145501164Y-107275485D01*
X145433134Y-107271920D01*
X145313324Y-107265641D01*
X145122377Y-107294519D01*
X144941136Y-107361202D01*
X144936878Y-107363842D01*
X144936876Y-107363843D01*
X144862933Y-107409690D01*
X144777006Y-107462967D01*
X144636691Y-107595657D01*
X144633817Y-107599762D01*
X144633814Y-107599765D01*
X144528798Y-107749744D01*
X144525923Y-107753850D01*
X144523934Y-107758446D01*
X144523933Y-107758448D01*
X144501931Y-107809292D01*
X144449226Y-107931086D01*
X144409734Y-108120123D01*
X144409060Y-108313240D01*
X120083567Y-108313240D01*
X118314496Y-106544169D01*
X118286719Y-106489652D01*
X118285500Y-106474165D01*
X118285500Y-101197979D01*
X118304407Y-101139788D01*
X118332698Y-101113613D01*
X118345374Y-101105830D01*
X118372897Y-101088931D01*
X118377632Y-101083700D01*
X118464346Y-100987900D01*
X118464346Y-100987899D01*
X118469078Y-100982672D01*
X118531570Y-100853689D01*
X118534557Y-100835939D01*
X118554715Y-100716120D01*
X118554715Y-100716117D01*
X118555349Y-100712350D01*
X118555500Y-100700000D01*
X118535182Y-100558123D01*
X118475860Y-100427651D01*
X118382303Y-100319074D01*
X118330653Y-100285596D01*
X118292106Y-100238080D01*
X118285500Y-100202521D01*
X118285500Y-93980608D01*
X118304407Y-93922417D01*
X118341412Y-93891476D01*
X118456160Y-93836005D01*
X118456162Y-93836004D01*
X118460669Y-93833825D01*
X118614085Y-93716530D01*
X118740782Y-93570781D01*
X118835585Y-93402534D01*
X118894620Y-93218660D01*
X118905538Y-93118158D01*
X118906072Y-93113240D01*
X119549060Y-93113240D01*
X119587232Y-93302549D01*
X119662689Y-93480316D01*
X119665534Y-93484440D01*
X119665535Y-93484442D01*
X119769503Y-93635153D01*
X119769507Y-93635157D01*
X119772350Y-93639279D01*
X119775967Y-93642747D01*
X119775969Y-93642750D01*
X119856084Y-93719577D01*
X119911735Y-93772944D01*
X120075151Y-93875853D01*
X120110333Y-93889077D01*
X120158150Y-93927250D01*
X120174500Y-93981747D01*
X120174500Y-94281715D01*
X120174123Y-94290344D01*
X120170758Y-94328805D01*
X120174381Y-94342325D01*
X120180816Y-94366342D01*
X120182685Y-94374774D01*
X120189432Y-94413038D01*
X120193763Y-94420539D01*
X120195757Y-94426017D01*
X120198223Y-94431306D01*
X120200465Y-94439675D01*
X120205433Y-94446771D01*
X120205434Y-94446772D01*
X120222758Y-94471514D01*
X120227396Y-94478795D01*
X120246822Y-94512441D01*
X120266379Y-94528851D01*
X120276398Y-94537258D01*
X120282766Y-94543093D01*
X120956907Y-95217234D01*
X120962741Y-95223601D01*
X120987559Y-95253178D01*
X121021214Y-95272608D01*
X121028497Y-95277248D01*
X121053228Y-95294565D01*
X121053230Y-95294566D01*
X121060325Y-95299534D01*
X121068694Y-95301776D01*
X121073994Y-95304248D01*
X121079463Y-95306239D01*
X121086962Y-95310568D01*
X121095489Y-95312072D01*
X121095490Y-95312072D01*
X121111800Y-95314948D01*
X121125233Y-95317317D01*
X121133658Y-95319184D01*
X121171194Y-95329242D01*
X121209656Y-95325877D01*
X121218284Y-95325500D01*
X135773802Y-95325500D01*
X135831993Y-95344407D01*
X135849585Y-95360798D01*
X135858529Y-95371439D01*
X135858532Y-95371441D01*
X135863068Y-95376838D01*
X135868939Y-95380746D01*
X135868940Y-95380747D01*
X135881235Y-95388931D01*
X135982377Y-95456257D01*
X135989104Y-95458359D01*
X135989107Y-95458360D01*
X136112448Y-95496894D01*
X136112449Y-95496894D01*
X136119180Y-95498997D01*
X136190831Y-95500311D01*
X136255427Y-95501495D01*
X136255429Y-95501495D01*
X136262481Y-95501624D01*
X136269284Y-95499769D01*
X136269286Y-95499769D01*
X136316065Y-95487015D01*
X136400758Y-95463925D01*
X136522897Y-95388931D01*
X136587720Y-95317316D01*
X136614346Y-95287900D01*
X136614346Y-95287899D01*
X136619078Y-95282672D01*
X136681570Y-95153689D01*
X136688038Y-95115248D01*
X136704715Y-95016120D01*
X136704715Y-95016117D01*
X136705349Y-95012350D01*
X136705407Y-95007651D01*
X136705453Y-95003826D01*
X136705500Y-95000000D01*
X136704418Y-94992441D01*
X136686182Y-94865106D01*
X136685182Y-94858123D01*
X136681723Y-94850514D01*
X136628780Y-94734073D01*
X136628780Y-94734072D01*
X136625860Y-94727651D01*
X136532303Y-94619074D01*
X136412033Y-94541118D01*
X136405275Y-94539097D01*
X136405273Y-94539096D01*
X136281479Y-94502074D01*
X136274718Y-94500052D01*
X136188694Y-94499527D01*
X136138448Y-94499220D01*
X136131396Y-94499177D01*
X136124620Y-94501114D01*
X136124617Y-94501114D01*
X136000369Y-94536624D01*
X136000367Y-94536625D01*
X135993589Y-94538562D01*
X135872375Y-94615042D01*
X135867708Y-94620326D01*
X135867706Y-94620328D01*
X135849420Y-94641034D01*
X135796729Y-94672134D01*
X135775216Y-94674500D01*
X121375835Y-94674500D01*
X121317644Y-94655593D01*
X121305831Y-94645504D01*
X120854496Y-94194169D01*
X120826719Y-94139652D01*
X120825500Y-94124165D01*
X120825500Y-93980608D01*
X120844407Y-93922417D01*
X120881412Y-93891476D01*
X120996160Y-93836005D01*
X120996162Y-93836004D01*
X121000669Y-93833825D01*
X121154085Y-93716530D01*
X121280782Y-93570781D01*
X121334358Y-93475701D01*
X121373120Y-93406909D01*
X121373121Y-93406907D01*
X121375585Y-93402534D01*
X121375918Y-93402721D01*
X121414632Y-93359113D01*
X121464733Y-93345500D01*
X136114165Y-93345500D01*
X136172356Y-93364407D01*
X136184169Y-93374496D01*
X148596498Y-105786825D01*
X148624275Y-105841342D01*
X148624977Y-105851007D01*
X148624538Y-105853824D01*
X148625453Y-105860822D01*
X148634019Y-105926327D01*
X148643121Y-105995939D01*
X148645962Y-106002395D01*
X148645962Y-106002396D01*
X148692588Y-106108360D01*
X148700845Y-106127126D01*
X148705382Y-106132523D01*
X148705383Y-106132525D01*
X148750283Y-106185939D01*
X148793068Y-106236838D01*
X148798939Y-106240746D01*
X148798940Y-106240747D01*
X148811235Y-106248931D01*
X148912377Y-106316257D01*
X148919104Y-106318359D01*
X148919107Y-106318360D01*
X149042448Y-106356894D01*
X149042449Y-106356894D01*
X149049180Y-106358997D01*
X149120830Y-106360310D01*
X149185427Y-106361495D01*
X149185429Y-106361495D01*
X149192481Y-106361624D01*
X149199284Y-106359769D01*
X149199286Y-106359769D01*
X149246065Y-106347015D01*
X149330758Y-106323925D01*
X149452897Y-106248931D01*
X149518615Y-106176327D01*
X149544346Y-106147900D01*
X149544346Y-106147899D01*
X149549078Y-106142672D01*
X149605199Y-106026838D01*
X149608494Y-106020038D01*
X149611570Y-106013689D01*
X149614557Y-105995939D01*
X149634715Y-105876120D01*
X149634715Y-105876117D01*
X149635349Y-105872350D01*
X149635500Y-105860000D01*
X149633012Y-105842623D01*
X149616182Y-105725106D01*
X149615182Y-105718123D01*
X149611794Y-105710670D01*
X149558780Y-105594073D01*
X149558780Y-105594072D01*
X149555860Y-105587651D01*
X149462303Y-105479074D01*
X149342033Y-105401118D01*
X149335275Y-105399097D01*
X149335273Y-105399096D01*
X149211479Y-105362074D01*
X149204718Y-105360052D01*
X149167508Y-105359825D01*
X149130331Y-105359598D01*
X149072257Y-105340336D01*
X149060931Y-105330604D01*
X136533093Y-92802766D01*
X136527258Y-92796398D01*
X136502441Y-92766822D01*
X136468795Y-92747396D01*
X136461514Y-92742758D01*
X136436772Y-92725434D01*
X136436771Y-92725433D01*
X136429675Y-92720465D01*
X136421306Y-92718223D01*
X136416017Y-92715757D01*
X136410539Y-92713763D01*
X136403038Y-92709432D01*
X136394510Y-92707928D01*
X136394509Y-92707928D01*
X136364774Y-92702685D01*
X136356342Y-92700816D01*
X136327168Y-92692999D01*
X136327169Y-92692999D01*
X136318805Y-92690758D01*
X136280383Y-92694120D01*
X136280344Y-92694123D01*
X136271715Y-92694500D01*
X121464769Y-92694500D01*
X121406578Y-92675593D01*
X121378182Y-92643496D01*
X121352082Y-92596409D01*
X121284608Y-92474683D01*
X121216874Y-92395657D01*
X121162197Y-92331864D01*
X121162195Y-92331862D01*
X121158931Y-92328054D01*
X121121400Y-92298942D01*
X121010298Y-92212761D01*
X121010293Y-92212758D01*
X121006338Y-92209690D01*
X120833061Y-92124427D01*
X120718242Y-92094519D01*
X120651036Y-92077013D01*
X120651032Y-92077012D01*
X120646178Y-92075748D01*
X120641166Y-92075485D01*
X120641164Y-92075485D01*
X120573134Y-92071920D01*
X120453324Y-92065641D01*
X120262377Y-92094519D01*
X120081136Y-92161202D01*
X120076878Y-92163842D01*
X120076876Y-92163843D01*
X119932376Y-92253437D01*
X119917006Y-92262967D01*
X119776691Y-92395657D01*
X119773817Y-92399762D01*
X119773814Y-92399765D01*
X119704306Y-92499033D01*
X119665923Y-92553850D01*
X119589226Y-92731086D01*
X119549734Y-92920123D01*
X119549717Y-92925136D01*
X119549716Y-92925141D01*
X119549544Y-92974585D01*
X119549060Y-93113240D01*
X118906072Y-93113240D01*
X118915197Y-93029251D01*
X118915197Y-93029246D01*
X118915477Y-93026671D01*
X118915500Y-93020000D01*
X118899858Y-92866005D01*
X118896491Y-92832857D01*
X118896490Y-92832853D01*
X118895984Y-92827870D01*
X118848263Y-92675593D01*
X118839733Y-92648372D01*
X118839733Y-92648371D01*
X118838234Y-92643589D01*
X118744608Y-92474683D01*
X118676874Y-92395657D01*
X118622197Y-92331864D01*
X118622195Y-92331862D01*
X118618931Y-92328054D01*
X118581400Y-92298942D01*
X118470298Y-92212761D01*
X118470293Y-92212758D01*
X118466338Y-92209690D01*
X118293061Y-92124427D01*
X118178242Y-92094519D01*
X118111036Y-92077013D01*
X118111032Y-92077012D01*
X118106178Y-92075748D01*
X118101166Y-92075485D01*
X118101164Y-92075485D01*
X118033134Y-92071920D01*
X117913324Y-92065641D01*
X117722377Y-92094519D01*
X117541136Y-92161202D01*
X117536878Y-92163842D01*
X117536876Y-92163843D01*
X117392376Y-92253437D01*
X117377006Y-92262967D01*
X117236691Y-92395657D01*
X117233817Y-92399762D01*
X117233814Y-92399765D01*
X117164306Y-92499033D01*
X117125923Y-92553850D01*
X117049226Y-92731086D01*
X117009734Y-92920123D01*
X117009717Y-92925136D01*
X117009716Y-92925141D01*
X117009544Y-92974585D01*
X117009060Y-93113240D01*
X113965500Y-93113240D01*
X113965500Y-92594206D01*
X113984407Y-92536015D01*
X113991103Y-92527769D01*
X114054346Y-92457900D01*
X114054346Y-92457899D01*
X114059078Y-92452672D01*
X114121570Y-92323689D01*
X114124557Y-92305939D01*
X114144715Y-92186120D01*
X114144715Y-92186117D01*
X114145349Y-92182350D01*
X114145500Y-92170000D01*
X114125182Y-92028123D01*
X114065860Y-91897651D01*
X113972303Y-91789074D01*
X113852033Y-91711118D01*
X113845275Y-91709097D01*
X113845273Y-91709096D01*
X113721479Y-91672074D01*
X113714718Y-91670052D01*
X113628694Y-91669527D01*
X113578448Y-91669220D01*
X113571396Y-91669177D01*
X113564620Y-91671114D01*
X113564617Y-91671114D01*
X113440369Y-91706624D01*
X113440367Y-91706625D01*
X113433589Y-91708562D01*
X113312375Y-91785042D01*
X113217499Y-91892469D01*
X113156588Y-92022206D01*
X113134538Y-92163824D01*
X97840000Y-92163824D01*
X97840000Y-87918824D01*
X143019538Y-87918824D01*
X143038121Y-88060939D01*
X143040962Y-88067395D01*
X143040962Y-88067396D01*
X143042870Y-88071731D01*
X143095845Y-88192126D01*
X143188068Y-88301838D01*
X143193939Y-88305746D01*
X143193940Y-88305747D01*
X143206235Y-88313931D01*
X143307377Y-88381257D01*
X143314104Y-88383359D01*
X143314107Y-88383360D01*
X143437448Y-88421894D01*
X143437449Y-88421894D01*
X143444180Y-88423997D01*
X143515831Y-88425311D01*
X143580427Y-88426495D01*
X143580429Y-88426495D01*
X143587481Y-88426624D01*
X143594284Y-88424769D01*
X143594286Y-88424769D01*
X143641065Y-88412015D01*
X143725758Y-88388925D01*
X143847897Y-88313931D01*
X143944078Y-88207672D01*
X144006570Y-88078689D01*
X144009557Y-88060939D01*
X144029715Y-87941120D01*
X144029715Y-87941117D01*
X144030349Y-87937350D01*
X144030500Y-87925000D01*
X144010182Y-87783123D01*
X143950860Y-87652651D01*
X143857303Y-87544074D01*
X143737033Y-87466118D01*
X143730275Y-87464097D01*
X143730273Y-87464096D01*
X143606479Y-87427074D01*
X143599718Y-87425052D01*
X143513694Y-87424527D01*
X143463448Y-87424220D01*
X143456396Y-87424177D01*
X143449620Y-87426114D01*
X143449617Y-87426114D01*
X143325369Y-87461624D01*
X143325367Y-87461625D01*
X143318589Y-87463562D01*
X143197375Y-87540042D01*
X143102499Y-87647469D01*
X143041588Y-87777206D01*
X143019538Y-87918824D01*
X97840000Y-87918824D01*
X97840000Y-86643824D01*
X137144538Y-86643824D01*
X137163121Y-86785939D01*
X137220845Y-86917126D01*
X137225382Y-86922523D01*
X137225383Y-86922525D01*
X137233913Y-86932672D01*
X137313068Y-87026838D01*
X137318939Y-87030746D01*
X137318940Y-87030747D01*
X137331235Y-87038931D01*
X137432377Y-87106257D01*
X137439104Y-87108359D01*
X137439107Y-87108360D01*
X137562448Y-87146894D01*
X137562449Y-87146894D01*
X137569180Y-87148997D01*
X137640830Y-87150310D01*
X137705427Y-87151495D01*
X137705429Y-87151495D01*
X137712481Y-87151624D01*
X137719284Y-87149769D01*
X137719286Y-87149769D01*
X137766065Y-87137015D01*
X137850758Y-87113925D01*
X137972897Y-87038931D01*
X138046095Y-86958064D01*
X138099162Y-86927610D01*
X138119492Y-86925500D01*
X154174165Y-86925500D01*
X154232356Y-86944407D01*
X154244169Y-86954496D01*
X154795504Y-87505830D01*
X154823281Y-87560347D01*
X154824500Y-87575834D01*
X154824500Y-105025177D01*
X154805593Y-105083368D01*
X154799704Y-105090711D01*
X154732169Y-105167181D01*
X154727499Y-105172469D01*
X154666588Y-105302206D01*
X154644538Y-105443824D01*
X154645453Y-105450822D01*
X154656988Y-105539033D01*
X154663121Y-105585939D01*
X154665962Y-105592395D01*
X154665962Y-105592396D01*
X154705224Y-105681624D01*
X154720845Y-105717126D01*
X154725382Y-105722523D01*
X154725383Y-105722525D01*
X154772807Y-105778942D01*
X154813068Y-105826838D01*
X154818939Y-105830746D01*
X154818940Y-105830747D01*
X154831235Y-105838931D01*
X154932377Y-105906257D01*
X154939104Y-105908359D01*
X154939107Y-105908360D01*
X155062448Y-105946894D01*
X155062449Y-105946894D01*
X155069180Y-105948997D01*
X155140830Y-105950310D01*
X155205427Y-105951495D01*
X155205429Y-105951495D01*
X155212481Y-105951624D01*
X155219284Y-105949769D01*
X155219286Y-105949769D01*
X155305268Y-105926327D01*
X155350758Y-105913925D01*
X155472897Y-105838931D01*
X155511095Y-105796731D01*
X155564346Y-105737900D01*
X155564346Y-105737899D01*
X155569078Y-105732672D01*
X155619379Y-105628851D01*
X155628494Y-105610038D01*
X155631570Y-105603689D01*
X155633040Y-105594956D01*
X155654715Y-105466120D01*
X155654715Y-105466117D01*
X155655349Y-105462350D01*
X155655500Y-105450000D01*
X155635182Y-105308123D01*
X155628691Y-105293845D01*
X155578780Y-105184073D01*
X155578780Y-105184072D01*
X155575860Y-105177651D01*
X155499501Y-105089033D01*
X155475840Y-105032608D01*
X155475500Y-105024409D01*
X155475500Y-92143240D01*
X158219060Y-92143240D01*
X158226176Y-92178529D01*
X158250456Y-92298942D01*
X158257232Y-92332549D01*
X158259191Y-92337164D01*
X158305528Y-92446327D01*
X158332689Y-92510316D01*
X158335534Y-92514440D01*
X158335535Y-92514442D01*
X158439503Y-92665153D01*
X158439507Y-92665157D01*
X158442350Y-92669279D01*
X158445967Y-92672747D01*
X158445969Y-92672750D01*
X158578113Y-92799471D01*
X158581735Y-92802944D01*
X158745151Y-92905853D01*
X158770053Y-92915213D01*
X158780333Y-92919077D01*
X158828150Y-92957250D01*
X158844500Y-93011747D01*
X158844500Y-100121715D01*
X158844123Y-100130344D01*
X158840758Y-100168805D01*
X158842999Y-100177168D01*
X158850816Y-100206342D01*
X158852685Y-100214774D01*
X158857928Y-100244509D01*
X158859432Y-100253038D01*
X158863763Y-100260539D01*
X158865757Y-100266017D01*
X158868223Y-100271306D01*
X158870465Y-100279675D01*
X158875433Y-100286771D01*
X158875434Y-100286772D01*
X158892758Y-100311514D01*
X158897396Y-100318795D01*
X158916822Y-100352441D01*
X158946398Y-100377258D01*
X158952766Y-100383093D01*
X160656498Y-102086825D01*
X160684275Y-102141342D01*
X160684977Y-102151007D01*
X160684538Y-102153824D01*
X160685453Y-102160822D01*
X160694542Y-102230327D01*
X160703121Y-102295939D01*
X160705962Y-102302395D01*
X160705962Y-102302396D01*
X160728852Y-102354416D01*
X160760845Y-102427126D01*
X160765382Y-102432523D01*
X160765383Y-102432525D01*
X160773913Y-102442672D01*
X160853068Y-102536838D01*
X160858939Y-102540746D01*
X160858940Y-102540747D01*
X160871235Y-102548931D01*
X160972377Y-102616257D01*
X160979104Y-102618359D01*
X160979107Y-102618360D01*
X161102448Y-102656894D01*
X161102449Y-102656894D01*
X161109180Y-102658997D01*
X161180831Y-102660311D01*
X161245427Y-102661495D01*
X161245429Y-102661495D01*
X161252481Y-102661624D01*
X161259284Y-102659769D01*
X161259286Y-102659769D01*
X161306065Y-102647015D01*
X161390758Y-102623925D01*
X161512897Y-102548931D01*
X161591852Y-102461703D01*
X161604346Y-102447900D01*
X161604346Y-102447899D01*
X161609078Y-102442672D01*
X161659379Y-102338851D01*
X161668494Y-102320038D01*
X161671570Y-102313689D01*
X161674557Y-102295939D01*
X161694715Y-102176120D01*
X161694715Y-102176117D01*
X161695349Y-102172350D01*
X161695407Y-102167651D01*
X161695453Y-102163826D01*
X161695500Y-102160000D01*
X161675182Y-102018123D01*
X161639686Y-101940052D01*
X161618780Y-101894073D01*
X161618780Y-101894072D01*
X161615860Y-101887651D01*
X161522303Y-101779074D01*
X161402033Y-101701118D01*
X161395275Y-101699097D01*
X161395273Y-101699096D01*
X161271479Y-101662074D01*
X161264718Y-101660052D01*
X161227508Y-101659825D01*
X161190331Y-101659598D01*
X161132257Y-101640336D01*
X161120931Y-101630604D01*
X159524496Y-100034169D01*
X159496719Y-99979652D01*
X159495500Y-99964165D01*
X159495500Y-94793824D01*
X160144538Y-94793824D01*
X160145453Y-94800822D01*
X160158301Y-94899074D01*
X160163121Y-94935939D01*
X160165962Y-94942395D01*
X160165962Y-94942396D01*
X160201473Y-95023099D01*
X160220845Y-95067126D01*
X160313068Y-95176838D01*
X160318939Y-95180746D01*
X160318940Y-95180747D01*
X160331235Y-95188931D01*
X160432377Y-95256257D01*
X160439104Y-95258359D01*
X160439107Y-95258360D01*
X160562448Y-95296894D01*
X160562449Y-95296894D01*
X160569180Y-95298997D01*
X160640830Y-95300310D01*
X160705427Y-95301495D01*
X160705429Y-95301495D01*
X160712481Y-95301624D01*
X160719284Y-95299769D01*
X160719286Y-95299769D01*
X160766065Y-95287015D01*
X160850758Y-95263925D01*
X160972897Y-95188931D01*
X161006666Y-95151624D01*
X161064346Y-95087900D01*
X161064346Y-95087899D01*
X161069078Y-95082672D01*
X161093952Y-95031333D01*
X161136339Y-94987210D01*
X161183045Y-94975500D01*
X162373802Y-94975500D01*
X162431993Y-94994407D01*
X162449585Y-95010798D01*
X162458529Y-95021439D01*
X162458532Y-95021441D01*
X162463068Y-95026838D01*
X162582377Y-95106257D01*
X162589104Y-95108359D01*
X162589107Y-95108360D01*
X162712448Y-95146894D01*
X162712449Y-95146894D01*
X162719180Y-95148997D01*
X162790830Y-95150310D01*
X162855427Y-95151495D01*
X162855429Y-95151495D01*
X162862481Y-95151624D01*
X162869284Y-95149769D01*
X162869286Y-95149769D01*
X163000758Y-95113925D01*
X163001119Y-95115248D01*
X163054438Y-95110208D01*
X163107102Y-95141355D01*
X163131402Y-95197508D01*
X163118054Y-95257220D01*
X163102845Y-95276828D01*
X162042766Y-96336907D01*
X162036399Y-96342741D01*
X162006822Y-96367559D01*
X162002492Y-96375059D01*
X161987397Y-96401204D01*
X161982758Y-96408486D01*
X161970315Y-96426257D01*
X161960465Y-96440325D01*
X161958223Y-96448694D01*
X161955757Y-96453983D01*
X161953763Y-96459461D01*
X161949432Y-96466962D01*
X161947928Y-96475490D01*
X161947928Y-96475491D01*
X161942685Y-96505226D01*
X161940816Y-96513658D01*
X161930758Y-96551195D01*
X161931513Y-96559822D01*
X161934123Y-96589656D01*
X161934500Y-96598285D01*
X161934500Y-104755177D01*
X161915593Y-104813368D01*
X161909704Y-104820711D01*
X161851860Y-104886208D01*
X161837499Y-104902469D01*
X161776588Y-105032206D01*
X161754538Y-105173824D01*
X161755453Y-105180822D01*
X161766701Y-105266838D01*
X161773121Y-105315939D01*
X161775962Y-105322395D01*
X161775962Y-105322396D01*
X161812290Y-105404956D01*
X161830845Y-105447126D01*
X161835382Y-105452523D01*
X161835383Y-105452525D01*
X161871779Y-105495823D01*
X161923068Y-105556838D01*
X161928939Y-105560746D01*
X161928940Y-105560747D01*
X161941235Y-105568931D01*
X162042377Y-105636257D01*
X162049104Y-105638359D01*
X162049107Y-105638360D01*
X162172448Y-105676894D01*
X162172449Y-105676894D01*
X162179180Y-105678997D01*
X162250830Y-105680310D01*
X162315427Y-105681495D01*
X162315429Y-105681495D01*
X162322481Y-105681624D01*
X162329284Y-105679769D01*
X162329286Y-105679769D01*
X162383302Y-105665042D01*
X162460758Y-105643925D01*
X162582897Y-105568931D01*
X162599024Y-105551114D01*
X162674346Y-105467900D01*
X162674346Y-105467899D01*
X162679078Y-105462672D01*
X162725343Y-105367181D01*
X162738494Y-105340038D01*
X162741570Y-105333689D01*
X162743467Y-105322417D01*
X162764715Y-105196120D01*
X162764715Y-105196117D01*
X162765349Y-105192350D01*
X162765500Y-105180000D01*
X162764422Y-105172469D01*
X162746182Y-105045106D01*
X162745182Y-105038123D01*
X162739643Y-105025939D01*
X162688780Y-104914073D01*
X162688780Y-104914072D01*
X162685860Y-104907651D01*
X162609501Y-104819033D01*
X162585840Y-104762608D01*
X162585500Y-104754409D01*
X162585500Y-102723824D01*
X162874538Y-102723824D01*
X162875453Y-102730822D01*
X162886701Y-102816838D01*
X162893121Y-102865939D01*
X162895962Y-102872395D01*
X162895962Y-102872396D01*
X162921126Y-102929584D01*
X162950845Y-102997126D01*
X163024684Y-103084967D01*
X163041283Y-103104714D01*
X163064253Y-103161423D01*
X163064500Y-103168416D01*
X163064500Y-105475177D01*
X163045593Y-105533368D01*
X163039704Y-105540711D01*
X162972169Y-105617181D01*
X162967499Y-105622469D01*
X162906588Y-105752206D01*
X162884538Y-105893824D01*
X162903121Y-106035939D01*
X162905962Y-106042395D01*
X162905962Y-106042396D01*
X162953208Y-106149769D01*
X162960845Y-106167126D01*
X162965382Y-106172523D01*
X162965383Y-106172525D01*
X162996916Y-106210038D01*
X163053068Y-106276838D01*
X163058939Y-106280746D01*
X163058940Y-106280747D01*
X163071235Y-106288931D01*
X163172377Y-106356257D01*
X163179104Y-106358359D01*
X163179107Y-106358360D01*
X163302448Y-106396894D01*
X163302449Y-106396894D01*
X163309180Y-106398997D01*
X163380831Y-106400311D01*
X163445427Y-106401495D01*
X163445429Y-106401495D01*
X163452481Y-106401624D01*
X163459284Y-106399769D01*
X163459286Y-106399769D01*
X163506065Y-106387015D01*
X163590758Y-106363925D01*
X163712897Y-106288931D01*
X163728731Y-106271438D01*
X163804346Y-106187900D01*
X163804346Y-106187899D01*
X163809078Y-106182672D01*
X163871570Y-106053689D01*
X163874557Y-106035939D01*
X163894715Y-105916120D01*
X163894715Y-105916117D01*
X163895349Y-105912350D01*
X163895424Y-105906257D01*
X163895453Y-105903826D01*
X163895500Y-105900000D01*
X163875182Y-105758123D01*
X163865988Y-105737900D01*
X163818780Y-105634073D01*
X163818780Y-105634072D01*
X163815860Y-105627651D01*
X163739501Y-105539033D01*
X163715840Y-105482608D01*
X163715500Y-105474409D01*
X163715500Y-103143158D01*
X163734407Y-103084967D01*
X163741103Y-103076721D01*
X163794345Y-103017901D01*
X163799078Y-103012672D01*
X163803995Y-103002525D01*
X163858494Y-102890038D01*
X163861570Y-102883689D01*
X163863761Y-102870670D01*
X163884715Y-102746120D01*
X163884715Y-102746117D01*
X163885349Y-102742350D01*
X163885500Y-102730000D01*
X163875690Y-102661495D01*
X163868433Y-102610822D01*
X163867431Y-102603824D01*
X164614538Y-102603824D01*
X164615453Y-102610822D01*
X164627047Y-102699484D01*
X164633121Y-102745939D01*
X164635962Y-102752395D01*
X164635962Y-102752396D01*
X164685923Y-102865939D01*
X164690845Y-102877126D01*
X164695382Y-102882523D01*
X164695383Y-102882525D01*
X164734941Y-102929584D01*
X164783068Y-102986838D01*
X164902377Y-103066257D01*
X164909105Y-103068359D01*
X165025023Y-103104574D01*
X165074927Y-103139974D01*
X165094500Y-103199070D01*
X165094500Y-105144941D01*
X165075593Y-105203132D01*
X165048331Y-105228665D01*
X165022375Y-105245042D01*
X165017710Y-105250324D01*
X165017709Y-105250325D01*
X165012684Y-105256015D01*
X164927499Y-105352469D01*
X164866588Y-105482206D01*
X164844538Y-105623824D01*
X164845453Y-105630822D01*
X164856869Y-105718123D01*
X164863121Y-105765939D01*
X164865962Y-105772395D01*
X164865962Y-105772396D01*
X164906193Y-105863826D01*
X164920845Y-105897126D01*
X164925382Y-105902523D01*
X164925383Y-105902525D01*
X164979003Y-105966313D01*
X165013068Y-106006838D01*
X165018939Y-106010746D01*
X165018940Y-106010747D01*
X165031235Y-106018931D01*
X165132377Y-106086257D01*
X165139104Y-106088359D01*
X165139107Y-106088360D01*
X165262448Y-106126894D01*
X165262449Y-106126894D01*
X165269180Y-106128997D01*
X165340831Y-106130311D01*
X165405427Y-106131495D01*
X165405429Y-106131495D01*
X165412481Y-106131624D01*
X165419284Y-106129769D01*
X165419286Y-106129769D01*
X165470599Y-106115779D01*
X165550758Y-106093925D01*
X165672897Y-106018931D01*
X165733937Y-105951495D01*
X165764346Y-105917900D01*
X165764346Y-105917899D01*
X165769078Y-105912672D01*
X165825251Y-105796731D01*
X165828494Y-105790038D01*
X165831570Y-105783689D01*
X165834557Y-105765939D01*
X165854715Y-105646120D01*
X165854715Y-105646117D01*
X165855349Y-105642350D01*
X165855424Y-105636257D01*
X165855453Y-105633826D01*
X165855500Y-105630000D01*
X165854422Y-105622469D01*
X165836182Y-105495106D01*
X165835182Y-105488123D01*
X165829590Y-105475823D01*
X165778779Y-105364070D01*
X165778777Y-105364068D01*
X165775860Y-105357651D01*
X165769500Y-105350270D01*
X165768638Y-105348214D01*
X165767456Y-105346366D01*
X165767777Y-105346161D01*
X165745840Y-105293845D01*
X165745500Y-105285648D01*
X165745500Y-102788284D01*
X165745877Y-102779656D01*
X165748487Y-102749821D01*
X165749242Y-102741194D01*
X165739183Y-102703654D01*
X165737315Y-102695225D01*
X165732072Y-102665491D01*
X165730568Y-102656962D01*
X165726239Y-102649463D01*
X165724241Y-102643974D01*
X165721776Y-102638689D01*
X165719535Y-102630325D01*
X165700979Y-102603824D01*
X165697242Y-102598486D01*
X165692603Y-102591204D01*
X165690824Y-102588123D01*
X165673178Y-102557559D01*
X165643601Y-102532741D01*
X165637234Y-102526907D01*
X165632665Y-102522338D01*
X165607648Y-102480119D01*
X165606182Y-102475105D01*
X165605182Y-102468123D01*
X165589587Y-102433824D01*
X166744538Y-102433824D01*
X166745453Y-102440822D01*
X166757473Y-102532742D01*
X166763121Y-102575939D01*
X166765962Y-102582395D01*
X166765962Y-102582396D01*
X166804605Y-102670217D01*
X166820845Y-102707126D01*
X166825382Y-102712523D01*
X166825383Y-102712525D01*
X166879003Y-102776313D01*
X166913068Y-102816838D01*
X166918939Y-102820746D01*
X166918940Y-102820747D01*
X167010358Y-102881600D01*
X167048321Y-102929584D01*
X167054500Y-102964011D01*
X167054500Y-106435177D01*
X167035593Y-106493368D01*
X167029704Y-106500711D01*
X166991324Y-106544169D01*
X166957499Y-106582469D01*
X166896588Y-106712206D01*
X166874538Y-106853824D01*
X166893121Y-106995939D01*
X166895962Y-107002395D01*
X166895962Y-107002396D01*
X166897870Y-107006731D01*
X166950845Y-107127126D01*
X167043068Y-107236838D01*
X167048939Y-107240746D01*
X167048940Y-107240747D01*
X167061235Y-107248931D01*
X167162377Y-107316257D01*
X167169104Y-107318359D01*
X167169107Y-107318360D01*
X167292448Y-107356894D01*
X167292449Y-107356894D01*
X167299180Y-107358997D01*
X167370830Y-107360310D01*
X167435427Y-107361495D01*
X167435429Y-107361495D01*
X167442481Y-107361624D01*
X167449284Y-107359769D01*
X167449286Y-107359769D01*
X167496065Y-107347015D01*
X167580758Y-107323925D01*
X167702897Y-107248931D01*
X167799078Y-107142672D01*
X167861570Y-107013689D01*
X167864557Y-106995939D01*
X167884715Y-106876120D01*
X167884715Y-106876117D01*
X167885349Y-106872350D01*
X167885500Y-106860000D01*
X167879989Y-106821514D01*
X167866182Y-106725106D01*
X167865182Y-106718123D01*
X167847306Y-106678805D01*
X167808780Y-106594073D01*
X167808780Y-106594072D01*
X167805860Y-106587651D01*
X167729501Y-106499033D01*
X167705840Y-106442608D01*
X167705500Y-106434409D01*
X167705500Y-102670217D01*
X167715406Y-102627051D01*
X167728494Y-102600038D01*
X167728494Y-102600037D01*
X167731570Y-102593689D01*
X167734557Y-102575939D01*
X167754715Y-102456120D01*
X167754715Y-102456117D01*
X167755349Y-102452350D01*
X167755404Y-102447900D01*
X167755453Y-102443826D01*
X167755500Y-102440000D01*
X167735182Y-102298123D01*
X167723453Y-102272325D01*
X167678780Y-102174073D01*
X167678780Y-102174072D01*
X167675860Y-102167651D01*
X167582303Y-102059074D01*
X167462033Y-101981118D01*
X167455275Y-101979097D01*
X167455273Y-101979096D01*
X167331479Y-101942074D01*
X167324718Y-101940052D01*
X167238694Y-101939527D01*
X167188448Y-101939220D01*
X167181396Y-101939177D01*
X167174620Y-101941114D01*
X167174617Y-101941114D01*
X167050369Y-101976624D01*
X167050367Y-101976625D01*
X167043589Y-101978562D01*
X166922375Y-102055042D01*
X166827499Y-102162469D01*
X166766588Y-102292206D01*
X166744538Y-102433824D01*
X165589587Y-102433824D01*
X165553483Y-102354416D01*
X165548780Y-102344073D01*
X165548780Y-102344072D01*
X165545860Y-102337651D01*
X165452303Y-102229074D01*
X165332033Y-102151118D01*
X165325275Y-102149097D01*
X165325273Y-102149096D01*
X165201479Y-102112074D01*
X165194718Y-102110052D01*
X165108694Y-102109527D01*
X165058448Y-102109220D01*
X165051396Y-102109177D01*
X165044620Y-102111114D01*
X165044617Y-102111114D01*
X164920369Y-102146624D01*
X164920367Y-102146625D01*
X164913589Y-102148562D01*
X164792375Y-102225042D01*
X164697499Y-102332469D01*
X164636588Y-102462206D01*
X164614538Y-102603824D01*
X163867431Y-102603824D01*
X163865182Y-102588123D01*
X163859643Y-102575939D01*
X163808780Y-102464073D01*
X163808780Y-102464072D01*
X163805860Y-102457651D01*
X163712303Y-102349074D01*
X163592033Y-102271118D01*
X163585275Y-102269097D01*
X163585273Y-102269096D01*
X163461479Y-102232074D01*
X163454718Y-102230052D01*
X163368694Y-102229527D01*
X163318448Y-102229220D01*
X163311396Y-102229177D01*
X163304620Y-102231114D01*
X163304617Y-102231114D01*
X163180369Y-102266624D01*
X163180367Y-102266625D01*
X163173589Y-102268562D01*
X163052375Y-102345042D01*
X162957499Y-102452469D01*
X162896588Y-102582206D01*
X162874538Y-102723824D01*
X162585500Y-102723824D01*
X162585500Y-99683824D01*
X168914538Y-99683824D01*
X168933121Y-99825939D01*
X168935962Y-99832395D01*
X168935962Y-99832396D01*
X168937870Y-99836731D01*
X168990845Y-99957126D01*
X168995382Y-99962523D01*
X168995383Y-99962525D01*
X169071283Y-100052818D01*
X169094253Y-100109528D01*
X169094500Y-100116520D01*
X169094500Y-107894438D01*
X169076030Y-107951284D01*
X169076039Y-107951290D01*
X169076017Y-107951323D01*
X169075593Y-107952629D01*
X169073195Y-107955620D01*
X169072171Y-107957179D01*
X169067499Y-107962469D01*
X169006588Y-108092206D01*
X168984538Y-108233824D01*
X168985453Y-108240822D01*
X168996596Y-108326035D01*
X169003121Y-108375939D01*
X169005962Y-108382395D01*
X169005962Y-108382396D01*
X169042757Y-108466017D01*
X169060845Y-108507126D01*
X169065382Y-108512523D01*
X169065383Y-108512525D01*
X169073913Y-108522672D01*
X169153068Y-108616838D01*
X169158939Y-108620746D01*
X169158940Y-108620747D01*
X169171235Y-108628931D01*
X169272377Y-108696257D01*
X169279104Y-108698359D01*
X169279107Y-108698360D01*
X169402448Y-108736894D01*
X169402449Y-108736894D01*
X169409180Y-108738997D01*
X169480830Y-108740310D01*
X169545427Y-108741495D01*
X169545429Y-108741495D01*
X169552481Y-108741624D01*
X169559284Y-108739769D01*
X169559286Y-108739769D01*
X169606065Y-108727015D01*
X169690758Y-108703925D01*
X169812897Y-108628931D01*
X169832835Y-108606904D01*
X169904346Y-108527900D01*
X169904346Y-108527899D01*
X169909078Y-108522672D01*
X169971570Y-108393689D01*
X169974557Y-108375939D01*
X169994715Y-108256120D01*
X169994715Y-108256117D01*
X169995349Y-108252350D01*
X169995500Y-108240000D01*
X169992266Y-108217414D01*
X169976182Y-108105106D01*
X169975182Y-108098123D01*
X169945508Y-108032857D01*
X169918780Y-107974073D01*
X169918780Y-107974072D01*
X169915860Y-107967651D01*
X169822303Y-107859074D01*
X169790651Y-107838558D01*
X169752106Y-107791042D01*
X169745500Y-107755484D01*
X169745500Y-100114206D01*
X169764407Y-100056015D01*
X169771103Y-100047769D01*
X169834346Y-99977900D01*
X169834346Y-99977899D01*
X169839078Y-99972672D01*
X169901570Y-99843689D01*
X169904557Y-99825939D01*
X169924715Y-99706120D01*
X169924715Y-99706117D01*
X169925349Y-99702350D01*
X169925500Y-99690000D01*
X169905182Y-99548123D01*
X169845860Y-99417651D01*
X169752303Y-99309074D01*
X169632033Y-99231118D01*
X169625275Y-99229097D01*
X169625273Y-99229096D01*
X169501479Y-99192074D01*
X169494718Y-99190052D01*
X169408694Y-99189527D01*
X169358448Y-99189220D01*
X169351396Y-99189177D01*
X169344620Y-99191114D01*
X169344617Y-99191114D01*
X169220369Y-99226624D01*
X169220367Y-99226625D01*
X169213589Y-99228562D01*
X169092375Y-99305042D01*
X168997499Y-99412469D01*
X168936588Y-99542206D01*
X168914538Y-99683824D01*
X162585500Y-99683824D01*
X162585500Y-97543824D01*
X162944538Y-97543824D01*
X162963121Y-97685939D01*
X162965962Y-97692395D01*
X162965962Y-97692396D01*
X163007873Y-97787644D01*
X163020845Y-97817126D01*
X163025382Y-97822523D01*
X163025383Y-97822525D01*
X163069914Y-97875500D01*
X163113068Y-97926838D01*
X163118939Y-97930746D01*
X163118940Y-97930747D01*
X163131235Y-97938931D01*
X163232377Y-98006257D01*
X163239104Y-98008359D01*
X163239107Y-98008360D01*
X163362448Y-98046894D01*
X163362449Y-98046894D01*
X163369180Y-98048997D01*
X163440831Y-98050311D01*
X163505427Y-98051495D01*
X163505429Y-98051495D01*
X163512481Y-98051624D01*
X163519284Y-98049769D01*
X163519286Y-98049769D01*
X163566065Y-98037015D01*
X163650758Y-98013925D01*
X163772897Y-97938931D01*
X163800837Y-97908063D01*
X163853904Y-97877610D01*
X163874234Y-97875500D01*
X171724165Y-97875500D01*
X171782356Y-97894407D01*
X171794169Y-97904496D01*
X174995504Y-101105830D01*
X175023281Y-101160347D01*
X175024500Y-101175834D01*
X175024500Y-105225177D01*
X175005593Y-105283368D01*
X174999704Y-105290711D01*
X174934917Y-105364070D01*
X174927499Y-105372469D01*
X174866588Y-105502206D01*
X174844538Y-105643824D01*
X174845453Y-105650822D01*
X174848004Y-105670327D01*
X174863121Y-105785939D01*
X174865962Y-105792395D01*
X174865962Y-105792396D01*
X174916884Y-105908123D01*
X174920845Y-105917126D01*
X175013068Y-106026838D01*
X175018939Y-106030746D01*
X175018940Y-106030747D01*
X175051581Y-106052474D01*
X175132377Y-106106257D01*
X175139104Y-106108359D01*
X175139107Y-106108360D01*
X175262448Y-106146894D01*
X175262449Y-106146894D01*
X175269180Y-106148997D01*
X175340831Y-106150311D01*
X175405427Y-106151495D01*
X175405429Y-106151495D01*
X175412481Y-106151624D01*
X175419284Y-106149769D01*
X175419286Y-106149769D01*
X175468589Y-106136327D01*
X175550758Y-106113925D01*
X175672897Y-106038931D01*
X175706834Y-106001438D01*
X175764346Y-105937900D01*
X175764346Y-105937899D01*
X175769078Y-105932672D01*
X175831570Y-105803689D01*
X175834408Y-105786825D01*
X175854715Y-105666120D01*
X175854715Y-105666117D01*
X175855349Y-105662350D01*
X175855500Y-105650000D01*
X175835182Y-105508123D01*
X175826568Y-105489176D01*
X175778780Y-105384073D01*
X175778780Y-105384072D01*
X175775860Y-105377651D01*
X175699501Y-105289033D01*
X175675840Y-105232608D01*
X175675500Y-105224409D01*
X175675500Y-101018293D01*
X175675877Y-101009664D01*
X175677781Y-100987900D01*
X175679243Y-100971195D01*
X175677002Y-100962833D01*
X175677002Y-100962828D01*
X175669183Y-100933648D01*
X175667313Y-100925215D01*
X175662072Y-100895489D01*
X175662071Y-100895487D01*
X175660568Y-100886962D01*
X175656239Y-100879464D01*
X175654244Y-100873982D01*
X175651777Y-100868693D01*
X175649535Y-100860325D01*
X175627248Y-100828495D01*
X175622609Y-100821214D01*
X175607509Y-100795061D01*
X175603178Y-100787559D01*
X175596543Y-100781991D01*
X175596539Y-100781987D01*
X175573595Y-100762734D01*
X175567228Y-100756901D01*
X172143093Y-97332766D01*
X172137258Y-97326398D01*
X172112441Y-97296822D01*
X172078795Y-97277396D01*
X172071514Y-97272758D01*
X172046772Y-97255434D01*
X172046771Y-97255433D01*
X172039675Y-97250465D01*
X172031306Y-97248223D01*
X172026017Y-97245757D01*
X172020539Y-97243763D01*
X172013038Y-97239432D01*
X172004510Y-97237928D01*
X172004509Y-97237928D01*
X171974774Y-97232685D01*
X171966342Y-97230816D01*
X171937168Y-97222999D01*
X171937169Y-97222999D01*
X171928805Y-97220758D01*
X171890383Y-97224120D01*
X171890344Y-97224123D01*
X171881715Y-97224500D01*
X163875439Y-97224500D01*
X163817248Y-97205593D01*
X163800446Y-97190129D01*
X163782303Y-97169074D01*
X163662033Y-97091118D01*
X163655275Y-97089097D01*
X163655273Y-97089096D01*
X163531479Y-97052074D01*
X163524718Y-97050052D01*
X163438694Y-97049527D01*
X163388448Y-97049220D01*
X163381396Y-97049177D01*
X163374620Y-97051114D01*
X163374617Y-97051114D01*
X163250369Y-97086624D01*
X163250367Y-97086625D01*
X163243589Y-97088562D01*
X163122375Y-97165042D01*
X163027499Y-97272469D01*
X162966588Y-97402206D01*
X162944538Y-97543824D01*
X162585500Y-97543824D01*
X162585500Y-96755835D01*
X162604407Y-96697644D01*
X162614496Y-96685831D01*
X163336503Y-95963824D01*
X182044538Y-95963824D01*
X182045453Y-95970822D01*
X182051763Y-96019074D01*
X182063121Y-96105939D01*
X182065962Y-96112395D01*
X182065962Y-96112396D01*
X182105356Y-96201924D01*
X182120845Y-96237126D01*
X182125382Y-96242523D01*
X182125383Y-96242525D01*
X182133097Y-96251702D01*
X182213068Y-96346838D01*
X182218939Y-96350746D01*
X182218940Y-96350747D01*
X182231235Y-96358931D01*
X182332377Y-96426257D01*
X182339104Y-96428359D01*
X182339107Y-96428360D01*
X182462448Y-96466894D01*
X182462449Y-96466894D01*
X182469180Y-96468997D01*
X182540830Y-96470310D01*
X182605427Y-96471495D01*
X182605429Y-96471495D01*
X182612481Y-96471624D01*
X182619284Y-96469769D01*
X182619286Y-96469769D01*
X182666065Y-96457015D01*
X182750758Y-96433925D01*
X182872897Y-96358931D01*
X182969078Y-96252672D01*
X182973459Y-96243630D01*
X182985922Y-96217908D01*
X183028310Y-96173785D01*
X183059499Y-96168201D01*
X183037191Y-96127708D01*
X183036793Y-96092646D01*
X183054715Y-95986120D01*
X183054715Y-95986117D01*
X183055349Y-95982350D01*
X183055500Y-95970000D01*
X183051914Y-95944956D01*
X183036182Y-95835106D01*
X183035182Y-95828123D01*
X183014041Y-95781624D01*
X182978780Y-95704073D01*
X182978780Y-95704072D01*
X182975860Y-95697651D01*
X182899501Y-95609033D01*
X182875840Y-95552608D01*
X182875500Y-95544409D01*
X182875500Y-88785835D01*
X182894407Y-88727644D01*
X182904496Y-88715831D01*
X184180821Y-87439506D01*
X184235338Y-87411729D01*
X184252639Y-87410527D01*
X184268493Y-87410818D01*
X184305428Y-87411495D01*
X184305430Y-87411495D01*
X184312481Y-87411624D01*
X184319284Y-87409769D01*
X184319286Y-87409769D01*
X184366065Y-87397015D01*
X184450758Y-87373925D01*
X184572897Y-87298931D01*
X184595483Y-87273978D01*
X184664346Y-87197900D01*
X184664346Y-87197899D01*
X184669078Y-87192672D01*
X184731570Y-87063689D01*
X184735115Y-87042623D01*
X184754715Y-86926120D01*
X184754715Y-86926117D01*
X184755349Y-86922350D01*
X184755500Y-86910000D01*
X184735182Y-86768123D01*
X184681849Y-86650822D01*
X184678780Y-86644073D01*
X184678780Y-86644072D01*
X184675860Y-86637651D01*
X184582303Y-86529074D01*
X184462033Y-86451118D01*
X184455275Y-86449097D01*
X184455273Y-86449096D01*
X184331479Y-86412074D01*
X184324718Y-86410052D01*
X184238694Y-86409527D01*
X184188448Y-86409220D01*
X184181396Y-86409177D01*
X184174620Y-86411114D01*
X184174617Y-86411114D01*
X184050369Y-86446624D01*
X184050367Y-86446625D01*
X184043589Y-86448562D01*
X183922375Y-86525042D01*
X183827499Y-86632469D01*
X183766588Y-86762206D01*
X183744538Y-86903824D01*
X183745453Y-86910824D01*
X183745409Y-86914458D01*
X183725792Y-86972413D01*
X183716420Y-86983253D01*
X182332766Y-88366907D01*
X182326399Y-88372741D01*
X182296822Y-88397559D01*
X182281112Y-88424769D01*
X182277397Y-88431204D01*
X182272758Y-88438486D01*
X182255434Y-88463228D01*
X182250465Y-88470325D01*
X182248223Y-88478694D01*
X182245757Y-88483983D01*
X182243763Y-88489461D01*
X182239432Y-88496962D01*
X182237928Y-88505490D01*
X182237928Y-88505491D01*
X182232685Y-88535226D01*
X182230816Y-88543658D01*
X182220758Y-88581195D01*
X182221513Y-88589822D01*
X182224123Y-88619656D01*
X182224500Y-88628285D01*
X182224500Y-95545177D01*
X182205593Y-95603368D01*
X182199704Y-95610711D01*
X182148287Y-95668931D01*
X182127499Y-95692469D01*
X182066588Y-95822206D01*
X182044538Y-95963824D01*
X163336503Y-95963824D01*
X166341349Y-92958978D01*
X166395866Y-92931201D01*
X166446185Y-92936312D01*
X166541225Y-92972035D01*
X166541229Y-92972036D01*
X166545922Y-92973800D01*
X166550877Y-92974585D01*
X166550878Y-92974585D01*
X166731704Y-93003225D01*
X166731708Y-93003225D01*
X166736663Y-93004010D01*
X166810764Y-93000645D01*
X166924571Y-92995478D01*
X166924576Y-92995477D01*
X166929582Y-92995250D01*
X166934441Y-92994020D01*
X166934444Y-92994020D01*
X167111943Y-92949105D01*
X167116800Y-92947876D01*
X167121310Y-92945696D01*
X167286160Y-92866005D01*
X167286162Y-92866004D01*
X167290669Y-92863825D01*
X167444085Y-92746530D01*
X167570782Y-92600781D01*
X167596890Y-92554448D01*
X167643981Y-92470874D01*
X167665585Y-92432534D01*
X167724620Y-92248660D01*
X167733076Y-92170822D01*
X167736072Y-92143240D01*
X168379060Y-92143240D01*
X168386176Y-92178529D01*
X168410456Y-92298942D01*
X168417232Y-92332549D01*
X168419191Y-92337164D01*
X168465528Y-92446327D01*
X168492689Y-92510316D01*
X168495534Y-92514440D01*
X168495535Y-92514442D01*
X168599503Y-92665153D01*
X168599507Y-92665157D01*
X168602350Y-92669279D01*
X168605967Y-92672747D01*
X168605969Y-92672750D01*
X168738113Y-92799471D01*
X168741735Y-92802944D01*
X168905151Y-92905853D01*
X169085922Y-92973800D01*
X169090877Y-92974585D01*
X169090878Y-92974585D01*
X169271704Y-93003225D01*
X169271708Y-93003225D01*
X169276663Y-93004010D01*
X169350764Y-93000645D01*
X169464571Y-92995478D01*
X169464576Y-92995477D01*
X169469582Y-92995250D01*
X169474441Y-92994020D01*
X169474444Y-92994020D01*
X169651943Y-92949105D01*
X169656800Y-92947876D01*
X169661310Y-92945696D01*
X169826160Y-92866005D01*
X169826162Y-92866004D01*
X169830669Y-92863825D01*
X169984085Y-92746530D01*
X170110782Y-92600781D01*
X170136890Y-92554448D01*
X170183981Y-92470874D01*
X170205585Y-92432534D01*
X170264620Y-92248660D01*
X170273076Y-92170822D01*
X170285197Y-92059251D01*
X170285197Y-92059246D01*
X170285477Y-92056671D01*
X170285500Y-92050000D01*
X170270025Y-91897651D01*
X170266491Y-91862857D01*
X170266490Y-91862853D01*
X170265984Y-91857870D01*
X170208234Y-91673589D01*
X170114608Y-91504683D01*
X170046874Y-91425657D01*
X169992197Y-91361864D01*
X169992195Y-91361862D01*
X169988931Y-91358054D01*
X169961169Y-91336520D01*
X169840298Y-91242761D01*
X169840293Y-91242758D01*
X169836338Y-91239690D01*
X169663061Y-91154427D01*
X169548242Y-91124519D01*
X169481036Y-91107013D01*
X169481032Y-91107012D01*
X169476178Y-91105748D01*
X169471166Y-91105485D01*
X169471164Y-91105485D01*
X169403134Y-91101920D01*
X169283324Y-91095641D01*
X169092377Y-91124519D01*
X168911136Y-91191202D01*
X168906878Y-91193842D01*
X168906876Y-91193843D01*
X168832933Y-91239690D01*
X168747006Y-91292967D01*
X168606691Y-91425657D01*
X168603817Y-91429762D01*
X168603814Y-91429765D01*
X168498798Y-91579744D01*
X168495923Y-91583850D01*
X168419226Y-91761086D01*
X168379734Y-91950123D01*
X168379060Y-92143240D01*
X167736072Y-92143240D01*
X167745197Y-92059251D01*
X167745197Y-92059246D01*
X167745477Y-92056671D01*
X167745500Y-92050000D01*
X167730025Y-91897651D01*
X167726491Y-91862857D01*
X167726490Y-91862853D01*
X167725984Y-91857870D01*
X167668234Y-91673589D01*
X167574608Y-91504683D01*
X167506874Y-91425657D01*
X167452197Y-91361864D01*
X167452195Y-91361862D01*
X167448931Y-91358054D01*
X167421169Y-91336520D01*
X167300298Y-91242761D01*
X167300293Y-91242758D01*
X167296338Y-91239690D01*
X167123061Y-91154427D01*
X167008242Y-91124519D01*
X166941036Y-91107013D01*
X166941032Y-91107012D01*
X166936178Y-91105748D01*
X166931166Y-91105485D01*
X166931164Y-91105485D01*
X166863134Y-91101920D01*
X166743324Y-91095641D01*
X166552377Y-91124519D01*
X166371136Y-91191202D01*
X166366878Y-91193842D01*
X166366876Y-91193843D01*
X166292933Y-91239690D01*
X166207006Y-91292967D01*
X166066691Y-91425657D01*
X166063817Y-91429762D01*
X166063814Y-91429765D01*
X165958798Y-91579744D01*
X165955923Y-91583850D01*
X165879226Y-91761086D01*
X165839734Y-91950123D01*
X165839060Y-92143240D01*
X165846176Y-92178529D01*
X165870456Y-92298942D01*
X165877232Y-92332549D01*
X165901766Y-92390349D01*
X165907099Y-92451299D01*
X165880640Y-92499033D01*
X163419854Y-94959819D01*
X163365337Y-94987596D01*
X163304905Y-94978025D01*
X163261640Y-94934760D01*
X163252069Y-94874328D01*
X163260756Y-94846649D01*
X163278494Y-94810038D01*
X163281570Y-94803689D01*
X163290502Y-94750603D01*
X163304715Y-94666120D01*
X163304715Y-94666117D01*
X163305349Y-94662350D01*
X163305500Y-94650000D01*
X163285182Y-94508123D01*
X163281996Y-94501114D01*
X163228780Y-94384073D01*
X163228780Y-94384072D01*
X163225860Y-94377651D01*
X163132303Y-94269074D01*
X163012033Y-94191118D01*
X163005275Y-94189097D01*
X163005273Y-94189096D01*
X162881479Y-94152074D01*
X162874718Y-94150052D01*
X162788694Y-94149527D01*
X162738448Y-94149220D01*
X162731396Y-94149177D01*
X162724620Y-94151114D01*
X162724617Y-94151114D01*
X162600369Y-94186624D01*
X162600367Y-94186625D01*
X162593589Y-94188562D01*
X162472375Y-94265042D01*
X162467708Y-94270326D01*
X162467706Y-94270328D01*
X162449420Y-94291034D01*
X162396729Y-94322134D01*
X162375216Y-94324500D01*
X160820952Y-94324500D01*
X160792585Y-94320349D01*
X160790587Y-94319751D01*
X160724718Y-94300052D01*
X160641032Y-94299541D01*
X160588448Y-94299220D01*
X160581396Y-94299177D01*
X160574620Y-94301114D01*
X160574617Y-94301114D01*
X160450369Y-94336624D01*
X160450367Y-94336625D01*
X160443589Y-94338562D01*
X160322375Y-94415042D01*
X160227499Y-94522469D01*
X160166588Y-94652206D01*
X160144538Y-94793824D01*
X159495500Y-94793824D01*
X159495500Y-93010608D01*
X159514407Y-92952417D01*
X159551412Y-92921476D01*
X159666160Y-92866005D01*
X159666162Y-92866004D01*
X159670669Y-92863825D01*
X159824085Y-92746530D01*
X159950782Y-92600781D01*
X159976890Y-92554448D01*
X160023981Y-92470874D01*
X160045585Y-92432534D01*
X160104620Y-92248660D01*
X160113076Y-92170822D01*
X160116072Y-92143240D01*
X160759060Y-92143240D01*
X160766176Y-92178529D01*
X160790456Y-92298942D01*
X160797232Y-92332549D01*
X160799191Y-92337164D01*
X160845528Y-92446327D01*
X160872689Y-92510316D01*
X160875534Y-92514440D01*
X160875535Y-92514442D01*
X160979503Y-92665153D01*
X160979507Y-92665157D01*
X160982350Y-92669279D01*
X160985967Y-92672747D01*
X160985969Y-92672750D01*
X161118113Y-92799471D01*
X161121735Y-92802944D01*
X161285151Y-92905853D01*
X161465922Y-92973800D01*
X161470877Y-92974585D01*
X161470878Y-92974585D01*
X161651704Y-93003225D01*
X161651708Y-93003225D01*
X161656663Y-93004010D01*
X161730764Y-93000645D01*
X161844571Y-92995478D01*
X161844576Y-92995477D01*
X161849582Y-92995250D01*
X161854441Y-92994020D01*
X161854444Y-92994020D01*
X162031943Y-92949105D01*
X162036800Y-92947876D01*
X162041310Y-92945696D01*
X162206160Y-92866005D01*
X162206162Y-92866004D01*
X162210669Y-92863825D01*
X162364085Y-92746530D01*
X162490782Y-92600781D01*
X162516890Y-92554448D01*
X162563981Y-92470874D01*
X162585585Y-92432534D01*
X162644620Y-92248660D01*
X162653076Y-92170822D01*
X162656072Y-92143240D01*
X163299060Y-92143240D01*
X163306176Y-92178529D01*
X163330456Y-92298942D01*
X163337232Y-92332549D01*
X163339191Y-92337164D01*
X163385528Y-92446327D01*
X163412689Y-92510316D01*
X163415534Y-92514440D01*
X163415535Y-92514442D01*
X163519503Y-92665153D01*
X163519507Y-92665157D01*
X163522350Y-92669279D01*
X163525967Y-92672747D01*
X163525969Y-92672750D01*
X163658113Y-92799471D01*
X163661735Y-92802944D01*
X163825151Y-92905853D01*
X164005922Y-92973800D01*
X164010877Y-92974585D01*
X164010878Y-92974585D01*
X164191704Y-93003225D01*
X164191708Y-93003225D01*
X164196663Y-93004010D01*
X164270764Y-93000645D01*
X164384571Y-92995478D01*
X164384576Y-92995477D01*
X164389582Y-92995250D01*
X164394441Y-92994020D01*
X164394444Y-92994020D01*
X164571943Y-92949105D01*
X164576800Y-92947876D01*
X164581310Y-92945696D01*
X164746160Y-92866005D01*
X164746162Y-92866004D01*
X164750669Y-92863825D01*
X164904085Y-92746530D01*
X165030782Y-92600781D01*
X165056890Y-92554448D01*
X165103981Y-92470874D01*
X165125585Y-92432534D01*
X165184620Y-92248660D01*
X165193076Y-92170822D01*
X165205197Y-92059251D01*
X165205197Y-92059246D01*
X165205477Y-92056671D01*
X165205500Y-92050000D01*
X165190025Y-91897651D01*
X165186491Y-91862857D01*
X165186490Y-91862853D01*
X165185984Y-91857870D01*
X165128234Y-91673589D01*
X165034608Y-91504683D01*
X164966874Y-91425657D01*
X164912197Y-91361864D01*
X164912195Y-91361862D01*
X164908931Y-91358054D01*
X164881169Y-91336520D01*
X164760298Y-91242761D01*
X164760293Y-91242758D01*
X164756338Y-91239690D01*
X164583061Y-91154427D01*
X164468242Y-91124519D01*
X164401036Y-91107013D01*
X164401032Y-91107012D01*
X164396178Y-91105748D01*
X164391166Y-91105485D01*
X164391164Y-91105485D01*
X164323134Y-91101920D01*
X164203324Y-91095641D01*
X164012377Y-91124519D01*
X163831136Y-91191202D01*
X163826878Y-91193842D01*
X163826876Y-91193843D01*
X163752933Y-91239690D01*
X163667006Y-91292967D01*
X163526691Y-91425657D01*
X163523817Y-91429762D01*
X163523814Y-91429765D01*
X163418798Y-91579744D01*
X163415923Y-91583850D01*
X163339226Y-91761086D01*
X163299734Y-91950123D01*
X163299060Y-92143240D01*
X162656072Y-92143240D01*
X162665197Y-92059251D01*
X162665197Y-92059246D01*
X162665477Y-92056671D01*
X162665500Y-92050000D01*
X162650025Y-91897651D01*
X162646491Y-91862857D01*
X162646490Y-91862853D01*
X162645984Y-91857870D01*
X162588234Y-91673589D01*
X162494608Y-91504683D01*
X162426874Y-91425657D01*
X162372197Y-91361864D01*
X162372195Y-91361862D01*
X162368931Y-91358054D01*
X162341169Y-91336520D01*
X162220298Y-91242761D01*
X162220293Y-91242758D01*
X162216338Y-91239690D01*
X162043061Y-91154427D01*
X161928242Y-91124519D01*
X161861036Y-91107013D01*
X161861032Y-91107012D01*
X161856178Y-91105748D01*
X161851166Y-91105485D01*
X161851164Y-91105485D01*
X161783134Y-91101920D01*
X161663324Y-91095641D01*
X161472377Y-91124519D01*
X161291136Y-91191202D01*
X161286878Y-91193842D01*
X161286876Y-91193843D01*
X161212933Y-91239690D01*
X161127006Y-91292967D01*
X160986691Y-91425657D01*
X160983817Y-91429762D01*
X160983814Y-91429765D01*
X160878798Y-91579744D01*
X160875923Y-91583850D01*
X160799226Y-91761086D01*
X160759734Y-91950123D01*
X160759060Y-92143240D01*
X160116072Y-92143240D01*
X160125197Y-92059251D01*
X160125197Y-92059246D01*
X160125477Y-92056671D01*
X160125500Y-92050000D01*
X160110025Y-91897651D01*
X160106491Y-91862857D01*
X160106490Y-91862853D01*
X160105984Y-91857870D01*
X160048234Y-91673589D01*
X159954608Y-91504683D01*
X159886874Y-91425657D01*
X159832197Y-91361864D01*
X159832195Y-91361862D01*
X159828931Y-91358054D01*
X159801169Y-91336520D01*
X159680298Y-91242761D01*
X159680293Y-91242758D01*
X159676338Y-91239690D01*
X159503061Y-91154427D01*
X159388242Y-91124519D01*
X159321036Y-91107013D01*
X159321032Y-91107012D01*
X159316178Y-91105748D01*
X159311166Y-91105485D01*
X159311164Y-91105485D01*
X159243134Y-91101920D01*
X159123324Y-91095641D01*
X158932377Y-91124519D01*
X158751136Y-91191202D01*
X158746878Y-91193842D01*
X158746876Y-91193843D01*
X158672933Y-91239690D01*
X158587006Y-91292967D01*
X158446691Y-91425657D01*
X158443817Y-91429762D01*
X158443814Y-91429765D01*
X158338798Y-91579744D01*
X158335923Y-91583850D01*
X158259226Y-91761086D01*
X158219734Y-91950123D01*
X158219060Y-92143240D01*
X155475500Y-92143240D01*
X155475500Y-87418285D01*
X155475877Y-87409657D01*
X155478487Y-87379822D01*
X155479242Y-87371195D01*
X155469184Y-87333658D01*
X155467315Y-87325226D01*
X155462072Y-87295491D01*
X155462072Y-87295490D01*
X155460568Y-87286962D01*
X155456237Y-87279461D01*
X155454241Y-87273978D01*
X155451777Y-87268694D01*
X155449535Y-87260325D01*
X155427248Y-87228495D01*
X155422609Y-87221214D01*
X155407509Y-87195061D01*
X155403178Y-87187559D01*
X155396545Y-87181993D01*
X155396543Y-87181991D01*
X155373596Y-87162737D01*
X155367228Y-87156902D01*
X154593094Y-86382767D01*
X154587260Y-86376399D01*
X154568011Y-86353459D01*
X154568008Y-86353456D01*
X154562441Y-86346822D01*
X154528795Y-86327396D01*
X154521514Y-86322758D01*
X154496772Y-86305434D01*
X154496771Y-86305433D01*
X154489675Y-86300465D01*
X154481306Y-86298223D01*
X154476017Y-86295757D01*
X154470539Y-86293763D01*
X154463038Y-86289432D01*
X154454510Y-86287928D01*
X154454509Y-86287928D01*
X154424774Y-86282685D01*
X154416342Y-86280816D01*
X154387168Y-86272999D01*
X154387169Y-86272999D01*
X154378805Y-86270758D01*
X154340383Y-86274120D01*
X154340344Y-86274123D01*
X154331715Y-86274500D01*
X138019952Y-86274500D01*
X137966105Y-86258575D01*
X137862033Y-86191118D01*
X137855275Y-86189097D01*
X137855273Y-86189096D01*
X137731479Y-86152074D01*
X137724718Y-86150052D01*
X137638694Y-86149527D01*
X137588448Y-86149220D01*
X137581396Y-86149177D01*
X137574620Y-86151114D01*
X137574617Y-86151114D01*
X137450369Y-86186624D01*
X137450367Y-86186625D01*
X137443589Y-86188562D01*
X137322375Y-86265042D01*
X137227499Y-86372469D01*
X137166588Y-86502206D01*
X137144538Y-86643824D01*
X97840000Y-86643824D01*
X97840000Y-82093240D01*
X140079060Y-82093240D01*
X140117232Y-82282549D01*
X140192689Y-82460316D01*
X140195534Y-82464440D01*
X140195535Y-82464442D01*
X140299503Y-82615153D01*
X140299507Y-82615157D01*
X140302350Y-82619279D01*
X140305967Y-82622747D01*
X140305969Y-82622750D01*
X140386084Y-82699577D01*
X140441735Y-82752944D01*
X140605151Y-82855853D01*
X140785922Y-82923800D01*
X140790877Y-82924585D01*
X140790878Y-82924585D01*
X140971704Y-82953225D01*
X140971708Y-82953225D01*
X140976663Y-82954010D01*
X141050764Y-82950645D01*
X141164571Y-82945478D01*
X141164576Y-82945477D01*
X141169582Y-82945250D01*
X141174441Y-82944020D01*
X141174444Y-82944020D01*
X141351943Y-82899105D01*
X141356800Y-82897876D01*
X141361310Y-82895696D01*
X141526160Y-82816005D01*
X141526162Y-82816004D01*
X141530669Y-82813825D01*
X141684085Y-82696530D01*
X141810782Y-82550781D01*
X141905585Y-82382534D01*
X141964620Y-82198660D01*
X141975538Y-82098158D01*
X141976072Y-82093240D01*
X142619060Y-82093240D01*
X142657232Y-82282549D01*
X142732689Y-82460316D01*
X142735534Y-82464440D01*
X142735535Y-82464442D01*
X142839503Y-82615153D01*
X142839507Y-82615157D01*
X142842350Y-82619279D01*
X142845967Y-82622747D01*
X142845969Y-82622750D01*
X142926084Y-82699577D01*
X142981735Y-82752944D01*
X143145151Y-82855853D01*
X143325922Y-82923800D01*
X143330877Y-82924585D01*
X143330878Y-82924585D01*
X143511704Y-82953225D01*
X143511708Y-82953225D01*
X143516663Y-82954010D01*
X143590764Y-82950645D01*
X143704571Y-82945478D01*
X143704576Y-82945477D01*
X143709582Y-82945250D01*
X143714441Y-82944020D01*
X143714444Y-82944020D01*
X143891943Y-82899105D01*
X143896800Y-82897876D01*
X143901310Y-82895696D01*
X144066160Y-82816005D01*
X144066162Y-82816004D01*
X144070669Y-82813825D01*
X144224085Y-82696530D01*
X144350782Y-82550781D01*
X144445585Y-82382534D01*
X144504620Y-82198660D01*
X144515538Y-82098158D01*
X144525197Y-82009251D01*
X144525197Y-82009246D01*
X144525477Y-82006671D01*
X144525500Y-82000000D01*
X144505984Y-81807870D01*
X144448234Y-81623589D01*
X144354608Y-81454683D01*
X144286874Y-81375657D01*
X144232197Y-81311864D01*
X144232195Y-81311862D01*
X144228931Y-81308054D01*
X144152329Y-81248635D01*
X144080298Y-81192761D01*
X144080293Y-81192758D01*
X144076338Y-81189690D01*
X143992997Y-81148681D01*
X194679815Y-81148681D01*
X194685927Y-81155375D01*
X194761125Y-81202730D01*
X194770073Y-81207171D01*
X194941353Y-81271551D01*
X194951005Y-81274101D01*
X195131732Y-81302726D01*
X195141705Y-81303283D01*
X195324498Y-81294983D01*
X195334371Y-81293525D01*
X195511772Y-81248635D01*
X195521139Y-81245226D01*
X195685896Y-81165580D01*
X195694387Y-81160356D01*
X195695038Y-81159858D01*
X195702611Y-81148881D01*
X195702568Y-81147132D01*
X195699642Y-81142485D01*
X195201086Y-80643929D01*
X195189203Y-80637875D01*
X195184172Y-80638671D01*
X194685687Y-81137156D01*
X194679815Y-81148681D01*
X143992997Y-81148681D01*
X143903061Y-81104427D01*
X143788242Y-81074519D01*
X143721036Y-81057013D01*
X143721032Y-81057012D01*
X143716178Y-81055748D01*
X143711166Y-81055485D01*
X143711164Y-81055485D01*
X143643134Y-81051920D01*
X143523324Y-81045641D01*
X143332377Y-81074519D01*
X143151136Y-81141202D01*
X143146878Y-81143842D01*
X143146876Y-81143843D01*
X143044739Y-81207171D01*
X142987006Y-81242967D01*
X142846691Y-81375657D01*
X142843817Y-81379762D01*
X142843814Y-81379765D01*
X142738798Y-81529744D01*
X142735923Y-81533850D01*
X142659226Y-81711086D01*
X142619734Y-81900123D01*
X142619060Y-82093240D01*
X141976072Y-82093240D01*
X141985197Y-82009251D01*
X141985197Y-82009246D01*
X141985477Y-82006671D01*
X141985500Y-82000000D01*
X141965984Y-81807870D01*
X141908234Y-81623589D01*
X141814608Y-81454683D01*
X141746874Y-81375657D01*
X141692197Y-81311864D01*
X141692195Y-81311862D01*
X141688931Y-81308054D01*
X141612329Y-81248635D01*
X141540298Y-81192761D01*
X141540293Y-81192758D01*
X141536338Y-81189690D01*
X141363061Y-81104427D01*
X141248242Y-81074519D01*
X141181036Y-81057013D01*
X141181032Y-81057012D01*
X141176178Y-81055748D01*
X141171166Y-81055485D01*
X141171164Y-81055485D01*
X141103134Y-81051920D01*
X140983324Y-81045641D01*
X140792377Y-81074519D01*
X140611136Y-81141202D01*
X140606878Y-81143842D01*
X140606876Y-81143843D01*
X140504739Y-81207171D01*
X140447006Y-81242967D01*
X140306691Y-81375657D01*
X140303817Y-81379762D01*
X140303814Y-81379765D01*
X140198798Y-81529744D01*
X140195923Y-81533850D01*
X140119226Y-81711086D01*
X140079734Y-81900123D01*
X140079060Y-82093240D01*
X97840000Y-82093240D01*
X97840000Y-80438172D01*
X194239576Y-80438172D01*
X194240550Y-80448110D01*
X194276718Y-80627488D01*
X194279668Y-80637015D01*
X194351167Y-80805458D01*
X194355975Y-80814203D01*
X194382579Y-80852767D01*
X194393176Y-80860869D01*
X194393619Y-80860880D01*
X194400200Y-80856957D01*
X194896071Y-80361086D01*
X194901313Y-80350797D01*
X195477875Y-80350797D01*
X195478671Y-80355828D01*
X195978375Y-80855532D01*
X195989177Y-80861036D01*
X195996637Y-80853882D01*
X196062662Y-80736705D01*
X196066659Y-80727557D01*
X196122597Y-80553332D01*
X196124673Y-80543568D01*
X196144697Y-80359246D01*
X196144986Y-80354068D01*
X196144991Y-80352602D01*
X196144737Y-80347414D01*
X196126001Y-80162958D01*
X196123995Y-80153189D01*
X196069273Y-79978569D01*
X196065343Y-79969400D01*
X195997375Y-79846784D01*
X195988594Y-79838595D01*
X195979313Y-79843530D01*
X195483929Y-80338914D01*
X195477875Y-80350797D01*
X194901313Y-80350797D01*
X194902125Y-80349203D01*
X194901329Y-80344172D01*
X194402407Y-79845250D01*
X194390524Y-79839196D01*
X194389901Y-79839294D01*
X194384350Y-79844120D01*
X194359231Y-79879992D01*
X194354369Y-79888692D01*
X194281695Y-80056633D01*
X194278677Y-80066147D01*
X194241258Y-80245265D01*
X194240214Y-80255193D01*
X194239576Y-80438172D01*
X97840000Y-80438172D01*
X97840000Y-79553218D01*
X194679578Y-79553218D01*
X194684118Y-79561275D01*
X195178914Y-80056071D01*
X195190797Y-80062125D01*
X195195828Y-80061329D01*
X195696797Y-79560360D01*
X195702851Y-79548477D01*
X195702549Y-79546567D01*
X195699450Y-79542821D01*
X195691577Y-79537902D01*
X195527385Y-79457110D01*
X195518032Y-79453632D01*
X195340959Y-79407507D01*
X195331087Y-79405979D01*
X195148359Y-79396403D01*
X195138389Y-79396890D01*
X194957458Y-79424253D01*
X194947797Y-79426734D01*
X194776055Y-79489923D01*
X194767100Y-79494291D01*
X194687854Y-79543424D01*
X194679578Y-79553218D01*
X97840000Y-79553218D01*
X97840000Y-78608681D01*
X194679815Y-78608681D01*
X194685927Y-78615375D01*
X194761125Y-78662730D01*
X194770073Y-78667171D01*
X194941353Y-78731551D01*
X194951005Y-78734101D01*
X195131732Y-78762726D01*
X195141705Y-78763283D01*
X195324498Y-78754983D01*
X195334371Y-78753525D01*
X195511772Y-78708635D01*
X195521139Y-78705226D01*
X195685896Y-78625580D01*
X195694387Y-78620356D01*
X195695038Y-78619858D01*
X195702611Y-78608881D01*
X195702568Y-78607132D01*
X195699642Y-78602485D01*
X195201086Y-78103929D01*
X195189203Y-78097875D01*
X195184172Y-78098671D01*
X194685687Y-78597156D01*
X194679815Y-78608681D01*
X97840000Y-78608681D01*
X97840000Y-77898172D01*
X194239576Y-77898172D01*
X194240550Y-77908110D01*
X194276718Y-78087488D01*
X194279668Y-78097015D01*
X194351167Y-78265458D01*
X194355975Y-78274203D01*
X194382579Y-78312767D01*
X194393176Y-78320869D01*
X194393619Y-78320880D01*
X194400200Y-78316957D01*
X194896071Y-77821086D01*
X194901313Y-77810797D01*
X195477875Y-77810797D01*
X195478671Y-77815828D01*
X195978375Y-78315532D01*
X195989177Y-78321036D01*
X195996637Y-78313882D01*
X196062662Y-78196705D01*
X196066659Y-78187557D01*
X196122597Y-78013332D01*
X196124673Y-78003568D01*
X196144697Y-77819246D01*
X196144986Y-77814068D01*
X196144991Y-77812602D01*
X196144737Y-77807414D01*
X196126001Y-77622958D01*
X196123995Y-77613189D01*
X196069273Y-77438569D01*
X196065343Y-77429400D01*
X195997375Y-77306784D01*
X195988594Y-77298595D01*
X195979313Y-77303530D01*
X195483929Y-77798914D01*
X195477875Y-77810797D01*
X194901313Y-77810797D01*
X194902125Y-77809203D01*
X194901329Y-77804172D01*
X194402407Y-77305250D01*
X194390524Y-77299196D01*
X194389901Y-77299294D01*
X194384350Y-77304120D01*
X194359231Y-77339992D01*
X194354369Y-77348692D01*
X194281695Y-77516633D01*
X194278677Y-77526147D01*
X194241258Y-77705265D01*
X194240214Y-77715193D01*
X194239576Y-77898172D01*
X97840000Y-77898172D01*
X97840000Y-76093243D01*
X106910000Y-76093243D01*
X106910000Y-76880142D01*
X106910948Y-76889763D01*
X106923703Y-76953888D01*
X106931022Y-76971557D01*
X106964624Y-77021847D01*
X106978153Y-77035376D01*
X107028443Y-77068978D01*
X107046112Y-77076297D01*
X107110237Y-77089052D01*
X107119858Y-77090000D01*
X107899320Y-77090000D01*
X107912005Y-77085878D01*
X107915000Y-77081757D01*
X107915000Y-76100680D01*
X107912583Y-76093243D01*
X108315000Y-76093243D01*
X108315000Y-77074320D01*
X108319122Y-77087005D01*
X108323243Y-77090000D01*
X109110142Y-77090000D01*
X109119763Y-77089052D01*
X109183888Y-77076297D01*
X109201557Y-77068978D01*
X109251847Y-77035376D01*
X109265376Y-77021847D01*
X109271142Y-77013218D01*
X194679578Y-77013218D01*
X194684118Y-77021275D01*
X195178914Y-77516071D01*
X195190797Y-77522125D01*
X195195828Y-77521329D01*
X195696797Y-77020360D01*
X195702851Y-77008477D01*
X195702549Y-77006567D01*
X195699450Y-77002821D01*
X195691577Y-76997902D01*
X195527385Y-76917110D01*
X195518032Y-76913632D01*
X195340959Y-76867507D01*
X195331087Y-76865979D01*
X195148359Y-76856403D01*
X195138389Y-76856890D01*
X194957458Y-76884253D01*
X194947797Y-76886734D01*
X194776055Y-76949923D01*
X194767100Y-76954291D01*
X194687854Y-77003424D01*
X194679578Y-77013218D01*
X109271142Y-77013218D01*
X109298978Y-76971557D01*
X109306297Y-76953888D01*
X109319052Y-76889763D01*
X109320000Y-76880142D01*
X109320000Y-76100680D01*
X109315878Y-76087995D01*
X109311757Y-76085000D01*
X108330680Y-76085000D01*
X108317995Y-76089122D01*
X108315000Y-76093243D01*
X107912583Y-76093243D01*
X107910878Y-76087995D01*
X107906757Y-76085000D01*
X106925680Y-76085000D01*
X106912995Y-76089122D01*
X106910000Y-76093243D01*
X97840000Y-76093243D01*
X97840000Y-76068681D01*
X194679815Y-76068681D01*
X194685927Y-76075375D01*
X194761125Y-76122730D01*
X194770073Y-76127171D01*
X194941353Y-76191551D01*
X194951005Y-76194101D01*
X195131732Y-76222726D01*
X195141705Y-76223283D01*
X195324498Y-76214983D01*
X195334371Y-76213525D01*
X195511772Y-76168635D01*
X195521139Y-76165226D01*
X195685896Y-76085580D01*
X195694387Y-76080356D01*
X195695038Y-76079858D01*
X195702611Y-76068881D01*
X195702568Y-76067132D01*
X195699642Y-76062485D01*
X195201086Y-75563929D01*
X195189203Y-75557875D01*
X195184172Y-75558671D01*
X194685687Y-76057156D01*
X194679815Y-76068681D01*
X97840000Y-76068681D01*
X97840000Y-74889858D01*
X106910000Y-74889858D01*
X106910000Y-75669320D01*
X106914122Y-75682005D01*
X106918243Y-75685000D01*
X107899320Y-75685000D01*
X107912005Y-75680878D01*
X107915000Y-75676757D01*
X107915000Y-74695680D01*
X107912583Y-74688243D01*
X108315000Y-74688243D01*
X108315000Y-75669320D01*
X108319122Y-75682005D01*
X108323243Y-75685000D01*
X109304320Y-75685000D01*
X109317005Y-75680878D01*
X109320000Y-75676757D01*
X109320000Y-75358172D01*
X194239576Y-75358172D01*
X194240550Y-75368110D01*
X194276718Y-75547488D01*
X194279668Y-75557015D01*
X194351167Y-75725458D01*
X194355975Y-75734203D01*
X194382579Y-75772767D01*
X194393176Y-75780869D01*
X194393619Y-75780880D01*
X194400200Y-75776957D01*
X194896071Y-75281086D01*
X194901313Y-75270797D01*
X195477875Y-75270797D01*
X195478671Y-75275828D01*
X195978375Y-75775532D01*
X195989177Y-75781036D01*
X195996637Y-75773882D01*
X196062662Y-75656705D01*
X196066659Y-75647557D01*
X196122597Y-75473332D01*
X196124673Y-75463568D01*
X196144697Y-75279246D01*
X196144986Y-75274068D01*
X196144991Y-75272602D01*
X196144737Y-75267414D01*
X196126001Y-75082958D01*
X196123995Y-75073189D01*
X196069273Y-74898569D01*
X196065343Y-74889400D01*
X195997375Y-74766784D01*
X195988594Y-74758595D01*
X195979313Y-74763530D01*
X195483929Y-75258914D01*
X195477875Y-75270797D01*
X194901313Y-75270797D01*
X194902125Y-75269203D01*
X194901329Y-75264172D01*
X194402407Y-74765250D01*
X194390524Y-74759196D01*
X194389901Y-74759294D01*
X194384350Y-74764120D01*
X194359231Y-74799992D01*
X194354369Y-74808692D01*
X194281695Y-74976633D01*
X194278677Y-74986147D01*
X194241258Y-75165265D01*
X194240214Y-75175193D01*
X194239576Y-75358172D01*
X109320000Y-75358172D01*
X109320000Y-74889858D01*
X109319052Y-74880237D01*
X109306297Y-74816112D01*
X109298978Y-74798443D01*
X109265376Y-74748153D01*
X109251847Y-74734624D01*
X109201557Y-74701022D01*
X109183888Y-74693703D01*
X109119763Y-74680948D01*
X109110142Y-74680000D01*
X108330680Y-74680000D01*
X108317995Y-74684122D01*
X108315000Y-74688243D01*
X107912583Y-74688243D01*
X107910878Y-74682995D01*
X107906757Y-74680000D01*
X107119858Y-74680000D01*
X107110237Y-74680948D01*
X107046112Y-74693703D01*
X107028443Y-74701022D01*
X106978153Y-74734624D01*
X106964624Y-74748153D01*
X106931022Y-74798443D01*
X106923703Y-74816112D01*
X106910948Y-74880237D01*
X106910000Y-74889858D01*
X97840000Y-74889858D01*
X97840000Y-70853444D01*
X106909913Y-70853444D01*
X106912172Y-70887913D01*
X106923022Y-71053437D01*
X106924342Y-71073582D01*
X106925458Y-71077975D01*
X106925458Y-71077977D01*
X106941902Y-71142726D01*
X106978646Y-71287404D01*
X106980548Y-71291529D01*
X106980548Y-71291530D01*
X107009293Y-71353882D01*
X107071006Y-71487750D01*
X107198331Y-71667910D01*
X107356354Y-71821849D01*
X107539785Y-71944414D01*
X107742480Y-72031499D01*
X107957651Y-72080187D01*
X108067871Y-72084517D01*
X108173558Y-72088670D01*
X108173559Y-72088670D01*
X108178091Y-72088848D01*
X108287255Y-72073020D01*
X108391924Y-72057844D01*
X108391928Y-72057843D01*
X108396418Y-72057192D01*
X108413960Y-72051237D01*
X108494717Y-72023824D01*
X118094538Y-72023824D01*
X118095453Y-72030822D01*
X118103041Y-72088848D01*
X118113121Y-72165939D01*
X118115962Y-72172395D01*
X118115962Y-72172396D01*
X118158334Y-72268692D01*
X118170845Y-72297126D01*
X118263068Y-72406838D01*
X118382377Y-72486257D01*
X118389104Y-72488359D01*
X118389107Y-72488360D01*
X118512448Y-72526894D01*
X118512449Y-72526894D01*
X118519180Y-72528997D01*
X118590830Y-72530310D01*
X118655427Y-72531495D01*
X118655429Y-72531495D01*
X118662481Y-72531624D01*
X118669284Y-72529769D01*
X118669286Y-72529769D01*
X118786855Y-72497716D01*
X118847970Y-72500652D01*
X118882899Y-72523226D01*
X121116498Y-74756825D01*
X121144275Y-74811342D01*
X121144977Y-74821007D01*
X121144538Y-74823824D01*
X121163121Y-74965939D01*
X121165962Y-74972395D01*
X121165962Y-74972396D01*
X121167870Y-74976731D01*
X121220845Y-75097126D01*
X121313068Y-75206838D01*
X121318939Y-75210746D01*
X121318940Y-75210747D01*
X121331235Y-75218931D01*
X121432377Y-75286257D01*
X121439104Y-75288359D01*
X121439107Y-75288360D01*
X121562448Y-75326894D01*
X121562449Y-75326894D01*
X121569180Y-75328997D01*
X121640830Y-75330310D01*
X121705427Y-75331495D01*
X121705429Y-75331495D01*
X121712481Y-75331624D01*
X121719284Y-75329769D01*
X121719286Y-75329769D01*
X121766065Y-75317015D01*
X121850758Y-75293925D01*
X121972897Y-75218931D01*
X122069078Y-75112672D01*
X122131570Y-74983689D01*
X122134557Y-74965939D01*
X122154715Y-74846120D01*
X122154715Y-74846117D01*
X122155349Y-74842350D01*
X122155500Y-74830000D01*
X122135182Y-74688123D01*
X122075860Y-74557651D01*
X122003107Y-74473218D01*
X194679578Y-74473218D01*
X194684118Y-74481275D01*
X195178914Y-74976071D01*
X195190797Y-74982125D01*
X195195828Y-74981329D01*
X195696797Y-74480360D01*
X195702851Y-74468477D01*
X195702549Y-74466567D01*
X195699450Y-74462821D01*
X195691577Y-74457902D01*
X195527385Y-74377110D01*
X195518032Y-74373632D01*
X195340959Y-74327507D01*
X195331087Y-74325979D01*
X195148359Y-74316403D01*
X195138389Y-74316890D01*
X194957458Y-74344253D01*
X194947797Y-74346734D01*
X194776055Y-74409923D01*
X194767100Y-74414291D01*
X194687854Y-74463424D01*
X194679578Y-74473218D01*
X122003107Y-74473218D01*
X121982303Y-74449074D01*
X121862033Y-74371118D01*
X121855275Y-74369097D01*
X121855273Y-74369096D01*
X121731479Y-74332074D01*
X121724718Y-74330052D01*
X121687508Y-74329825D01*
X121650331Y-74329598D01*
X121592257Y-74310336D01*
X121580931Y-74300604D01*
X120809008Y-73528681D01*
X194679815Y-73528681D01*
X194685927Y-73535375D01*
X194761125Y-73582730D01*
X194770073Y-73587171D01*
X194941353Y-73651551D01*
X194951005Y-73654101D01*
X195131732Y-73682726D01*
X195141705Y-73683283D01*
X195324498Y-73674983D01*
X195334371Y-73673525D01*
X195511772Y-73628635D01*
X195521139Y-73625226D01*
X195685896Y-73545580D01*
X195694387Y-73540356D01*
X195695038Y-73539858D01*
X195702611Y-73528881D01*
X195702568Y-73527132D01*
X195699642Y-73522485D01*
X195201086Y-73023929D01*
X195189203Y-73017875D01*
X195184172Y-73018671D01*
X194685687Y-73517156D01*
X194679815Y-73528681D01*
X120809008Y-73528681D01*
X120098499Y-72818172D01*
X194239576Y-72818172D01*
X194240550Y-72828110D01*
X194276718Y-73007488D01*
X194279668Y-73017015D01*
X194351167Y-73185458D01*
X194355975Y-73194203D01*
X194382579Y-73232767D01*
X194393176Y-73240869D01*
X194393619Y-73240880D01*
X194400200Y-73236957D01*
X194896071Y-72741086D01*
X194901313Y-72730797D01*
X195477875Y-72730797D01*
X195478671Y-72735828D01*
X195978375Y-73235532D01*
X195989177Y-73241036D01*
X195996637Y-73233882D01*
X196062662Y-73116705D01*
X196066659Y-73107557D01*
X196122597Y-72933332D01*
X196124673Y-72923568D01*
X196144697Y-72739246D01*
X196144986Y-72734068D01*
X196144991Y-72732602D01*
X196144737Y-72727414D01*
X196126001Y-72542958D01*
X196123995Y-72533189D01*
X196069273Y-72358569D01*
X196065343Y-72349400D01*
X195997375Y-72226784D01*
X195988594Y-72218595D01*
X195979313Y-72223530D01*
X195483929Y-72718914D01*
X195477875Y-72730797D01*
X194901313Y-72730797D01*
X194902125Y-72729203D01*
X194901329Y-72724172D01*
X194402407Y-72225250D01*
X194390524Y-72219196D01*
X194389901Y-72219294D01*
X194384350Y-72224120D01*
X194359231Y-72259992D01*
X194354369Y-72268692D01*
X194281695Y-72436633D01*
X194278677Y-72446147D01*
X194241258Y-72625265D01*
X194240214Y-72635193D01*
X194239576Y-72818172D01*
X120098499Y-72818172D01*
X119213545Y-71933218D01*
X194679578Y-71933218D01*
X194684118Y-71941275D01*
X195178914Y-72436071D01*
X195190797Y-72442125D01*
X195195828Y-72441329D01*
X195696797Y-71940360D01*
X195702851Y-71928477D01*
X195702549Y-71926567D01*
X195699450Y-71922821D01*
X195691577Y-71917902D01*
X195527385Y-71837110D01*
X195518032Y-71833632D01*
X195340959Y-71787507D01*
X195331087Y-71785979D01*
X195148359Y-71776403D01*
X195138389Y-71776890D01*
X194957458Y-71804253D01*
X194947797Y-71806734D01*
X194776055Y-71869923D01*
X194767100Y-71874291D01*
X194687854Y-71923424D01*
X194679578Y-71933218D01*
X119213545Y-71933218D01*
X119093093Y-71812766D01*
X119087258Y-71806398D01*
X119084644Y-71803283D01*
X119062441Y-71776822D01*
X119037057Y-71762167D01*
X119011562Y-71741056D01*
X118936910Y-71654420D01*
X118936908Y-71654418D01*
X118932303Y-71649074D01*
X118812033Y-71571118D01*
X118805275Y-71569097D01*
X118805273Y-71569096D01*
X118681479Y-71532074D01*
X118674718Y-71530052D01*
X118588694Y-71529527D01*
X118538448Y-71529220D01*
X118531396Y-71529177D01*
X118524620Y-71531114D01*
X118524617Y-71531114D01*
X118400369Y-71566624D01*
X118400367Y-71566625D01*
X118393589Y-71568562D01*
X118272375Y-71645042D01*
X118177499Y-71752469D01*
X118116588Y-71882206D01*
X118094538Y-72023824D01*
X108494717Y-72023824D01*
X108601024Y-71987738D01*
X108601027Y-71987736D01*
X108605321Y-71986279D01*
X108797803Y-71878484D01*
X108953929Y-71748635D01*
X108963923Y-71740323D01*
X108967417Y-71737417D01*
X109108484Y-71567803D01*
X109171940Y-71454495D01*
X109214061Y-71379282D01*
X109214062Y-71379280D01*
X109216279Y-71375321D01*
X109222997Y-71355532D01*
X109285733Y-71170716D01*
X109287192Y-71166418D01*
X109290547Y-71143283D01*
X109318428Y-70950990D01*
X109318428Y-70950984D01*
X109318848Y-70948091D01*
X109318975Y-70943240D01*
X129959060Y-70943240D01*
X129970577Y-71000356D01*
X129996212Y-71127488D01*
X129997232Y-71132549D01*
X130009701Y-71161924D01*
X130062964Y-71287404D01*
X130072689Y-71310316D01*
X130075534Y-71314440D01*
X130075535Y-71314442D01*
X130179503Y-71465153D01*
X130179507Y-71465157D01*
X130182350Y-71469279D01*
X130185967Y-71472747D01*
X130185969Y-71472750D01*
X130292549Y-71574956D01*
X130321735Y-71602944D01*
X130485151Y-71705853D01*
X130600222Y-71749105D01*
X130659939Y-71771551D01*
X130665922Y-71773800D01*
X130670877Y-71774585D01*
X130670878Y-71774585D01*
X130851704Y-71803225D01*
X130851708Y-71803225D01*
X130856663Y-71804010D01*
X130930764Y-71800645D01*
X131044571Y-71795478D01*
X131044576Y-71795477D01*
X131049582Y-71795250D01*
X131054441Y-71794020D01*
X131054444Y-71794020D01*
X131231943Y-71749105D01*
X131236800Y-71747876D01*
X131250908Y-71741056D01*
X131406160Y-71666005D01*
X131406162Y-71666004D01*
X131410669Y-71663825D01*
X131430477Y-71648681D01*
X132939815Y-71648681D01*
X132945927Y-71655375D01*
X133021125Y-71702730D01*
X133030073Y-71707171D01*
X133201353Y-71771551D01*
X133211005Y-71774101D01*
X133391732Y-71802726D01*
X133401705Y-71803283D01*
X133584498Y-71794983D01*
X133594371Y-71793525D01*
X133771772Y-71748635D01*
X133781139Y-71745226D01*
X133945896Y-71665580D01*
X133954387Y-71660356D01*
X133955038Y-71659858D01*
X133962611Y-71648881D01*
X133962568Y-71647132D01*
X133959642Y-71642485D01*
X133461086Y-71143929D01*
X133449203Y-71137875D01*
X133444172Y-71138671D01*
X132945687Y-71637156D01*
X132939815Y-71648681D01*
X131430477Y-71648681D01*
X131526905Y-71574956D01*
X131560100Y-71549577D01*
X131560101Y-71549576D01*
X131564085Y-71546530D01*
X131690782Y-71400781D01*
X131702897Y-71379282D01*
X131739432Y-71314442D01*
X131785585Y-71232534D01*
X131844620Y-71048660D01*
X131855538Y-70948158D01*
X131856623Y-70938172D01*
X132499576Y-70938172D01*
X132500550Y-70948110D01*
X132536718Y-71127488D01*
X132539668Y-71137015D01*
X132611167Y-71305458D01*
X132615975Y-71314203D01*
X132642579Y-71352767D01*
X132653176Y-71360869D01*
X132653619Y-71360880D01*
X132660200Y-71356957D01*
X133156071Y-70861086D01*
X133161313Y-70850797D01*
X133737875Y-70850797D01*
X133738671Y-70855828D01*
X134238375Y-71355532D01*
X134249177Y-71361036D01*
X134256637Y-71353882D01*
X134322662Y-71236705D01*
X134326659Y-71227557D01*
X134382597Y-71053332D01*
X134384673Y-71043568D01*
X134395572Y-70943240D01*
X135039060Y-70943240D01*
X135050577Y-71000356D01*
X135076212Y-71127488D01*
X135077232Y-71132549D01*
X135089701Y-71161924D01*
X135142964Y-71287404D01*
X135152689Y-71310316D01*
X135155534Y-71314440D01*
X135155535Y-71314442D01*
X135259503Y-71465153D01*
X135259507Y-71465157D01*
X135262350Y-71469279D01*
X135265967Y-71472747D01*
X135265969Y-71472750D01*
X135372549Y-71574956D01*
X135401735Y-71602944D01*
X135565151Y-71705853D01*
X135680222Y-71749105D01*
X135739939Y-71771551D01*
X135745922Y-71773800D01*
X135750877Y-71774585D01*
X135750878Y-71774585D01*
X135931704Y-71803225D01*
X135931708Y-71803225D01*
X135936663Y-71804010D01*
X136010764Y-71800645D01*
X136124571Y-71795478D01*
X136124576Y-71795477D01*
X136129582Y-71795250D01*
X136134441Y-71794020D01*
X136134444Y-71794020D01*
X136311943Y-71749105D01*
X136316800Y-71747876D01*
X136330908Y-71741056D01*
X136486160Y-71666005D01*
X136486162Y-71666004D01*
X136490669Y-71663825D01*
X136606905Y-71574956D01*
X136640100Y-71549577D01*
X136640101Y-71549576D01*
X136644085Y-71546530D01*
X136770782Y-71400781D01*
X136782897Y-71379282D01*
X136819432Y-71314442D01*
X136865585Y-71232534D01*
X136924620Y-71048660D01*
X136931136Y-70988681D01*
X194679815Y-70988681D01*
X194685927Y-70995375D01*
X194761125Y-71042730D01*
X194770073Y-71047171D01*
X194941353Y-71111551D01*
X194951005Y-71114101D01*
X195131732Y-71142726D01*
X195141705Y-71143283D01*
X195324498Y-71134983D01*
X195334371Y-71133525D01*
X195511772Y-71088635D01*
X195521139Y-71085226D01*
X195685896Y-71005580D01*
X195694387Y-71000356D01*
X195695038Y-70999858D01*
X195702611Y-70988881D01*
X195702568Y-70987132D01*
X195699642Y-70982485D01*
X195201086Y-70483929D01*
X195189203Y-70477875D01*
X195184172Y-70478671D01*
X194685687Y-70977156D01*
X194679815Y-70988681D01*
X136931136Y-70988681D01*
X136935538Y-70948158D01*
X136945197Y-70859251D01*
X136945197Y-70859246D01*
X136945477Y-70856671D01*
X136945500Y-70850000D01*
X136930352Y-70700869D01*
X136926491Y-70662857D01*
X136926490Y-70662853D01*
X136925984Y-70657870D01*
X136868234Y-70473589D01*
X136774608Y-70304683D01*
X136751885Y-70278172D01*
X194239576Y-70278172D01*
X194240550Y-70288110D01*
X194276718Y-70467488D01*
X194279668Y-70477015D01*
X194351167Y-70645458D01*
X194355975Y-70654203D01*
X194382579Y-70692767D01*
X194393176Y-70700869D01*
X194393619Y-70700880D01*
X194400200Y-70696957D01*
X194896071Y-70201086D01*
X194901313Y-70190797D01*
X195477875Y-70190797D01*
X195478671Y-70195828D01*
X195978375Y-70695532D01*
X195989177Y-70701036D01*
X195996637Y-70693882D01*
X196062662Y-70576705D01*
X196066659Y-70567557D01*
X196122597Y-70393332D01*
X196124673Y-70383568D01*
X196144697Y-70199246D01*
X196144986Y-70194068D01*
X196144991Y-70192602D01*
X196144737Y-70187414D01*
X196126001Y-70002958D01*
X196123995Y-69993189D01*
X196069273Y-69818569D01*
X196065343Y-69809400D01*
X195997375Y-69686784D01*
X195988594Y-69678595D01*
X195979313Y-69683530D01*
X195483929Y-70178914D01*
X195477875Y-70190797D01*
X194901313Y-70190797D01*
X194902125Y-70189203D01*
X194901329Y-70184172D01*
X194402407Y-69685250D01*
X194390524Y-69679196D01*
X194389901Y-69679294D01*
X194384350Y-69684120D01*
X194359231Y-69719992D01*
X194354369Y-69728692D01*
X194281695Y-69896633D01*
X194278677Y-69906147D01*
X194241258Y-70085265D01*
X194240214Y-70095193D01*
X194239576Y-70278172D01*
X136751885Y-70278172D01*
X136706874Y-70225657D01*
X136652197Y-70161864D01*
X136652195Y-70161862D01*
X136648931Y-70158054D01*
X136621169Y-70136520D01*
X136500298Y-70042761D01*
X136500293Y-70042758D01*
X136496338Y-70039690D01*
X136323061Y-69954427D01*
X136208242Y-69924519D01*
X136141036Y-69907013D01*
X136141032Y-69907012D01*
X136136178Y-69905748D01*
X136131166Y-69905485D01*
X136131164Y-69905485D01*
X136063134Y-69901920D01*
X135943324Y-69895641D01*
X135752377Y-69924519D01*
X135571136Y-69991202D01*
X135566878Y-69993842D01*
X135566876Y-69993843D01*
X135424694Y-70082000D01*
X135407006Y-70092967D01*
X135266691Y-70225657D01*
X135263817Y-70229762D01*
X135263814Y-70229765D01*
X135187611Y-70338595D01*
X135155923Y-70383850D01*
X135153934Y-70388446D01*
X135153933Y-70388448D01*
X135118988Y-70469202D01*
X135079226Y-70561086D01*
X135039734Y-70750123D01*
X135039060Y-70943240D01*
X134395572Y-70943240D01*
X134404697Y-70859246D01*
X134404986Y-70854068D01*
X134404991Y-70852602D01*
X134404737Y-70847414D01*
X134386001Y-70662958D01*
X134383995Y-70653189D01*
X134329273Y-70478569D01*
X134325343Y-70469400D01*
X134257375Y-70346784D01*
X134248594Y-70338595D01*
X134239313Y-70343530D01*
X133743929Y-70838914D01*
X133737875Y-70850797D01*
X133161313Y-70850797D01*
X133162125Y-70849203D01*
X133161329Y-70844172D01*
X132662407Y-70345250D01*
X132650524Y-70339196D01*
X132649901Y-70339294D01*
X132644350Y-70344120D01*
X132619231Y-70379992D01*
X132614369Y-70388692D01*
X132541695Y-70556633D01*
X132538677Y-70566147D01*
X132501258Y-70745265D01*
X132500214Y-70755193D01*
X132499576Y-70938172D01*
X131856623Y-70938172D01*
X131865197Y-70859251D01*
X131865197Y-70859246D01*
X131865477Y-70856671D01*
X131865500Y-70850000D01*
X131850352Y-70700869D01*
X131846491Y-70662857D01*
X131846490Y-70662853D01*
X131845984Y-70657870D01*
X131788234Y-70473589D01*
X131694608Y-70304683D01*
X131626874Y-70225657D01*
X131572197Y-70161864D01*
X131572195Y-70161862D01*
X131568931Y-70158054D01*
X131541169Y-70136520D01*
X131433779Y-70053218D01*
X132939578Y-70053218D01*
X132944118Y-70061275D01*
X133438914Y-70556071D01*
X133450797Y-70562125D01*
X133455828Y-70561329D01*
X133956797Y-70060360D01*
X133962851Y-70048477D01*
X133962549Y-70046567D01*
X133959450Y-70042821D01*
X133951577Y-70037902D01*
X133787385Y-69957110D01*
X133778032Y-69953632D01*
X133600959Y-69907507D01*
X133591087Y-69905979D01*
X133408359Y-69896403D01*
X133398389Y-69896890D01*
X133217458Y-69924253D01*
X133207797Y-69926734D01*
X133036055Y-69989923D01*
X133027100Y-69994291D01*
X132947854Y-70043424D01*
X132939578Y-70053218D01*
X131433779Y-70053218D01*
X131420298Y-70042761D01*
X131420293Y-70042758D01*
X131416338Y-70039690D01*
X131243061Y-69954427D01*
X131128242Y-69924519D01*
X131061036Y-69907013D01*
X131061032Y-69907012D01*
X131056178Y-69905748D01*
X131051166Y-69905485D01*
X131051164Y-69905485D01*
X130983134Y-69901920D01*
X130863324Y-69895641D01*
X130672377Y-69924519D01*
X130491136Y-69991202D01*
X130486878Y-69993842D01*
X130486876Y-69993843D01*
X130344694Y-70082000D01*
X130327006Y-70092967D01*
X130186691Y-70225657D01*
X130183817Y-70229762D01*
X130183814Y-70229765D01*
X130107611Y-70338595D01*
X130075923Y-70383850D01*
X130073934Y-70388446D01*
X130073933Y-70388448D01*
X130038988Y-70469202D01*
X129999226Y-70561086D01*
X129959734Y-70750123D01*
X129959060Y-70943240D01*
X109318975Y-70943240D01*
X109319107Y-70938220D01*
X109320424Y-70887913D01*
X109320424Y-70887908D01*
X109320500Y-70885000D01*
X109318017Y-70857971D01*
X109303221Y-70696957D01*
X109300314Y-70665315D01*
X109240431Y-70452987D01*
X109223998Y-70419664D01*
X109144869Y-70259205D01*
X109144867Y-70259201D01*
X109142858Y-70255128D01*
X109010861Y-70078363D01*
X108848862Y-69928613D01*
X108842374Y-69924519D01*
X108666123Y-69813313D01*
X108662286Y-69810892D01*
X108457380Y-69729143D01*
X108241009Y-69686104D01*
X108132318Y-69684681D01*
X108024958Y-69683275D01*
X108024953Y-69683275D01*
X108020418Y-69683216D01*
X108015945Y-69683985D01*
X108015940Y-69683985D01*
X107908033Y-69702527D01*
X107802994Y-69720576D01*
X107596019Y-69796933D01*
X107406425Y-69909730D01*
X107403010Y-69912725D01*
X107403007Y-69912727D01*
X107310002Y-69994291D01*
X107240561Y-70055189D01*
X107237749Y-70058756D01*
X107208063Y-70096413D01*
X107103983Y-70228438D01*
X107101870Y-70232453D01*
X107101870Y-70232454D01*
X107019669Y-70388692D01*
X107001263Y-70423675D01*
X106935843Y-70634362D01*
X106909913Y-70853444D01*
X97840000Y-70853444D01*
X97840000Y-69393218D01*
X194679578Y-69393218D01*
X194684118Y-69401275D01*
X195178914Y-69896071D01*
X195190797Y-69902125D01*
X195195828Y-69901329D01*
X195696797Y-69400360D01*
X195702851Y-69388477D01*
X195702549Y-69386567D01*
X195699450Y-69382821D01*
X195691577Y-69377902D01*
X195527385Y-69297110D01*
X195518032Y-69293632D01*
X195340959Y-69247507D01*
X195331087Y-69245979D01*
X195148359Y-69236403D01*
X195138389Y-69236890D01*
X194957458Y-69264253D01*
X194947797Y-69266734D01*
X194776055Y-69329923D01*
X194767100Y-69334291D01*
X194687854Y-69383424D01*
X194679578Y-69393218D01*
X97840000Y-69393218D01*
X97840000Y-67154200D01*
X162424472Y-67154200D01*
X162424479Y-67154245D01*
X162430002Y-67160460D01*
X162536246Y-67231451D01*
X162544201Y-67235769D01*
X162738456Y-67319228D01*
X162747067Y-67322026D01*
X162953290Y-67368690D01*
X162962249Y-67369869D01*
X163173532Y-67378171D01*
X163182559Y-67377697D01*
X163391808Y-67347358D01*
X163400599Y-67345247D01*
X163600821Y-67277281D01*
X163609079Y-67273604D01*
X163793552Y-67170294D01*
X163800660Y-67165409D01*
X163807710Y-67154236D01*
X163807525Y-67151405D01*
X163805523Y-67148366D01*
X163126086Y-66468929D01*
X163114203Y-66462875D01*
X163109172Y-66463671D01*
X162430526Y-67142317D01*
X162424472Y-67154200D01*
X97840000Y-67154200D01*
X97840000Y-66147984D01*
X161910710Y-66147984D01*
X161924539Y-66358978D01*
X161925952Y-66367899D01*
X161977999Y-66572835D01*
X161981019Y-66581363D01*
X162069538Y-66773376D01*
X162074059Y-66781207D01*
X162127905Y-66857397D01*
X162138592Y-66865377D01*
X162139341Y-66865387D01*
X162145472Y-66861685D01*
X162821071Y-66186086D01*
X162826313Y-66175797D01*
X163402875Y-66175797D01*
X163403671Y-66180828D01*
X164084405Y-66861562D01*
X164096288Y-66867616D01*
X164099089Y-66867173D01*
X164101936Y-66864898D01*
X164105164Y-66861017D01*
X164110294Y-66853552D01*
X164213604Y-66669079D01*
X164217281Y-66660821D01*
X164285247Y-66460599D01*
X164287358Y-66451808D01*
X164317929Y-66240964D01*
X164318426Y-66235140D01*
X164319924Y-66177914D01*
X164319734Y-66172101D01*
X164300237Y-65959924D01*
X164298590Y-65951038D01*
X164241196Y-65747536D01*
X164237955Y-65739093D01*
X164144442Y-65549466D01*
X164139712Y-65541748D01*
X164102660Y-65492129D01*
X164091768Y-65484431D01*
X164090319Y-65484450D01*
X164085226Y-65487617D01*
X163408929Y-66163914D01*
X163402875Y-66175797D01*
X162826313Y-66175797D01*
X162827125Y-66174203D01*
X162826329Y-66169172D01*
X162146991Y-65489834D01*
X162135108Y-65483780D01*
X162132991Y-65484115D01*
X162129261Y-65487176D01*
X162107212Y-65515145D01*
X162102288Y-65522728D01*
X162003835Y-65709855D01*
X162000381Y-65718195D01*
X161937679Y-65920127D01*
X161935798Y-65928977D01*
X161910946Y-66138952D01*
X161910710Y-66147984D01*
X97840000Y-66147984D01*
X97840000Y-65195468D01*
X162422131Y-65195468D01*
X162426827Y-65203984D01*
X163103914Y-65881071D01*
X163115797Y-65887125D01*
X163120828Y-65886329D01*
X163800432Y-65206725D01*
X163806310Y-65195187D01*
X163800217Y-65188509D01*
X163778807Y-65175000D01*
X166909500Y-65175000D01*
X166909500Y-67175000D01*
X166925143Y-67253641D01*
X166969690Y-67320310D01*
X167036359Y-67364857D01*
X167045922Y-67366759D01*
X167045924Y-67366760D01*
X167061555Y-67369869D01*
X167115000Y-67380500D01*
X169115000Y-67380500D01*
X169168445Y-67369869D01*
X169184076Y-67366760D01*
X169184078Y-67366759D01*
X169193641Y-67364857D01*
X169260310Y-67320310D01*
X169304857Y-67253641D01*
X169320500Y-67175000D01*
X169320500Y-65175000D01*
X169304857Y-65096359D01*
X169260310Y-65029690D01*
X169193641Y-64985143D01*
X169184078Y-64983241D01*
X169184076Y-64983240D01*
X169158800Y-64978213D01*
X169115000Y-64969500D01*
X167115000Y-64969500D01*
X167071200Y-64978213D01*
X167045924Y-64983240D01*
X167045922Y-64983241D01*
X167036359Y-64985143D01*
X166969690Y-65029690D01*
X166925143Y-65096359D01*
X166909500Y-65175000D01*
X163778807Y-65175000D01*
X163665896Y-65103758D01*
X163657843Y-65099655D01*
X163461451Y-65021303D01*
X163452792Y-65018738D01*
X163245411Y-64977487D01*
X163236418Y-64976542D01*
X163024997Y-64973774D01*
X163015979Y-64974484D01*
X162807595Y-65010291D01*
X162798868Y-65012629D01*
X162600493Y-65085814D01*
X162592331Y-65089707D01*
X162430388Y-65186053D01*
X162422131Y-65195468D01*
X97840000Y-65195468D01*
X97840000Y-55449000D01*
X97858907Y-55390809D01*
X97908407Y-55354845D01*
X97939000Y-55350000D01*
X197341000Y-55350000D01*
X197399191Y-55368907D01*
G37*
%TD.AperFunction*%
%TD*%
M02*
