%TF.GenerationSoftware,KiCad,Pcbnew,(5.99.0-10117-g2c3ee0d85f)*%
%TF.CreationDate,2021-04-28T15:25:11+02:00*%
%TF.ProjectId,som asset tracker,736f6d20-6173-4736-9574-20747261636b,rev?*%
%TF.SameCoordinates,Original*%
%TF.FileFunction,Legend,Top*%
%TF.FilePolarity,Positive*%
%FSLAX46Y46*%
G04 Gerber Fmt 4.6, Leading zero omitted, Abs format (unit mm)*
G04 Created by KiCad (PCBNEW (5.99.0-10117-g2c3ee0d85f)) date 2021-04-28 15:25:11*
%MOMM*%
%LPD*%
G01*
G04 APERTURE LIST*
%ADD10C,0.150000*%
%ADD11C,0.300000*%
%ADD12C,0.015000*%
%ADD13C,0.254000*%
%ADD14C,0.120000*%
%ADD15C,0.100000*%
%ADD16C,0.127000*%
%ADD17C,0.200000*%
%ADD18C,0.100278*%
%ADD19C,0.177800*%
%ADD20C,0.242809*%
G04 APERTURE END LIST*
D10*
X191433333Y-99552380D02*
X191433333Y-100266666D01*
X191385714Y-100409523D01*
X191290476Y-100504761D01*
X191147619Y-100552380D01*
X191052380Y-100552380D01*
X191766666Y-99552380D02*
X192338095Y-99552380D01*
X192052380Y-100552380D02*
X192052380Y-99552380D01*
X192623809Y-100266666D02*
X193100000Y-100266666D01*
X192528571Y-100552380D02*
X192861904Y-99552380D01*
X193195238Y-100552380D01*
X194052380Y-99600000D02*
X193957142Y-99552380D01*
X193814285Y-99552380D01*
X193671428Y-99600000D01*
X193576190Y-99695238D01*
X193528571Y-99790476D01*
X193480952Y-99980952D01*
X193480952Y-100123809D01*
X193528571Y-100314285D01*
X193576190Y-100409523D01*
X193671428Y-100504761D01*
X193814285Y-100552380D01*
X193909523Y-100552380D01*
X194052380Y-100504761D01*
X194100000Y-100457142D01*
X194100000Y-100123809D01*
X193909523Y-100123809D01*
X148913333Y-110505714D02*
X149103809Y-111172380D01*
X149294285Y-110696190D01*
X149484761Y-111172380D01*
X149675238Y-110505714D01*
X150484761Y-111172380D02*
X150484761Y-110648571D01*
X150437142Y-110553333D01*
X150341904Y-110505714D01*
X150151428Y-110505714D01*
X150056190Y-110553333D01*
X150484761Y-111124761D02*
X150389523Y-111172380D01*
X150151428Y-111172380D01*
X150056190Y-111124761D01*
X150008571Y-111029523D01*
X150008571Y-110934285D01*
X150056190Y-110839047D01*
X150151428Y-110791428D01*
X150389523Y-110791428D01*
X150484761Y-110743809D01*
X150960952Y-111172380D02*
X150960952Y-110172380D01*
X151056190Y-110791428D02*
X151341904Y-111172380D01*
X151341904Y-110505714D02*
X150960952Y-110886666D01*
X152151428Y-111124761D02*
X152056190Y-111172380D01*
X151865714Y-111172380D01*
X151770476Y-111124761D01*
X151722857Y-111029523D01*
X151722857Y-110648571D01*
X151770476Y-110553333D01*
X151865714Y-110505714D01*
X152056190Y-110505714D01*
X152151428Y-110553333D01*
X152199047Y-110648571D01*
X152199047Y-110743809D01*
X151722857Y-110839047D01*
X120899761Y-98414285D02*
X120947380Y-98271428D01*
X120947380Y-98033333D01*
X120899761Y-97938095D01*
X120852142Y-97890476D01*
X120756904Y-97842857D01*
X120661666Y-97842857D01*
X120566428Y-97890476D01*
X120518809Y-97938095D01*
X120471190Y-98033333D01*
X120423571Y-98223809D01*
X120375952Y-98319047D01*
X120328333Y-98366666D01*
X120233095Y-98414285D01*
X120137857Y-98414285D01*
X120042619Y-98366666D01*
X119995000Y-98319047D01*
X119947380Y-98223809D01*
X119947380Y-97985714D01*
X119995000Y-97842857D01*
X120947380Y-97414285D02*
X119947380Y-97414285D01*
X119947380Y-97176190D01*
X119995000Y-97033333D01*
X120090238Y-96938095D01*
X120185476Y-96890476D01*
X120375952Y-96842857D01*
X120518809Y-96842857D01*
X120709285Y-96890476D01*
X120804523Y-96938095D01*
X120899761Y-97033333D01*
X120947380Y-97176190D01*
X120947380Y-97414285D01*
X120661666Y-96461904D02*
X120661666Y-95985714D01*
X120947380Y-96557142D02*
X119947380Y-96223809D01*
X120947380Y-95890476D01*
D11*
X167307142Y-88042857D02*
X167378571Y-87900000D01*
X167378571Y-87614285D01*
X167307142Y-87471428D01*
X167164285Y-87400000D01*
X167092857Y-87400000D01*
X166950000Y-87471428D01*
X166878571Y-87614285D01*
X166878571Y-87828571D01*
X166807142Y-87971428D01*
X166664285Y-88042857D01*
X166592857Y-88042857D01*
X166450000Y-87971428D01*
X166378571Y-87828571D01*
X166378571Y-87614285D01*
X166450000Y-87471428D01*
X167307142Y-86828571D02*
X167378571Y-86685714D01*
X167378571Y-86400000D01*
X167307142Y-86257142D01*
X167164285Y-86185714D01*
X167092857Y-86185714D01*
X166950000Y-86257142D01*
X166878571Y-86400000D01*
X166878571Y-86614285D01*
X166807142Y-86757142D01*
X166664285Y-86828571D01*
X166592857Y-86828571D01*
X166450000Y-86757142D01*
X166378571Y-86614285D01*
X166378571Y-86400000D01*
X166450000Y-86257142D01*
X167378571Y-85542857D02*
X166378571Y-85542857D01*
X166664285Y-85542857D02*
X166521428Y-85471428D01*
X166450000Y-85400000D01*
X166378571Y-85257142D01*
X166378571Y-85114285D01*
D10*
X166692380Y-62304761D02*
X165692380Y-62304761D01*
X166073333Y-62304761D02*
X166025714Y-62209523D01*
X166025714Y-62019047D01*
X166073333Y-61923809D01*
X166120952Y-61876190D01*
X166216190Y-61828571D01*
X166501904Y-61828571D01*
X166597142Y-61876190D01*
X166644761Y-61923809D01*
X166692380Y-62019047D01*
X166692380Y-62209523D01*
X166644761Y-62304761D01*
X166692380Y-61400000D02*
X166025714Y-61400000D01*
X165692380Y-61400000D02*
X165740000Y-61447619D01*
X165787619Y-61400000D01*
X165740000Y-61352380D01*
X165692380Y-61400000D01*
X165787619Y-61400000D01*
X166025714Y-60495238D02*
X166835238Y-60495238D01*
X166930476Y-60542857D01*
X166978095Y-60590476D01*
X167025714Y-60685714D01*
X167025714Y-60828571D01*
X166978095Y-60923809D01*
X166644761Y-60495238D02*
X166692380Y-60590476D01*
X166692380Y-60780952D01*
X166644761Y-60876190D01*
X166597142Y-60923809D01*
X166501904Y-60971428D01*
X166216190Y-60971428D01*
X166120952Y-60923809D01*
X166073333Y-60876190D01*
X166025714Y-60780952D01*
X166025714Y-60590476D01*
X166073333Y-60495238D01*
X167635714Y-63138095D02*
X168302380Y-63138095D01*
X167730952Y-63138095D02*
X167683333Y-63090476D01*
X167635714Y-62995238D01*
X167635714Y-62852380D01*
X167683333Y-62757142D01*
X167778571Y-62709523D01*
X168302380Y-62709523D01*
X168302380Y-62090476D02*
X168254761Y-62185714D01*
X168207142Y-62233333D01*
X168111904Y-62280952D01*
X167826190Y-62280952D01*
X167730952Y-62233333D01*
X167683333Y-62185714D01*
X167635714Y-62090476D01*
X167635714Y-61947619D01*
X167683333Y-61852380D01*
X167730952Y-61804761D01*
X167826190Y-61757142D01*
X168111904Y-61757142D01*
X168207142Y-61804761D01*
X168254761Y-61852380D01*
X168302380Y-61947619D01*
X168302380Y-62090476D01*
X168302380Y-61328571D02*
X167635714Y-61328571D01*
X167302380Y-61328571D02*
X167350000Y-61376190D01*
X167397619Y-61328571D01*
X167350000Y-61280952D01*
X167302380Y-61328571D01*
X167397619Y-61328571D01*
X168254761Y-60900000D02*
X168302380Y-60804761D01*
X168302380Y-60614285D01*
X168254761Y-60519047D01*
X168159523Y-60471428D01*
X168111904Y-60471428D01*
X168016666Y-60519047D01*
X167969047Y-60614285D01*
X167969047Y-60757142D01*
X167921428Y-60852380D01*
X167826190Y-60900000D01*
X167778571Y-60900000D01*
X167683333Y-60852380D01*
X167635714Y-60757142D01*
X167635714Y-60614285D01*
X167683333Y-60519047D01*
X168254761Y-59661904D02*
X168302380Y-59757142D01*
X168302380Y-59947619D01*
X168254761Y-60042857D01*
X168159523Y-60090476D01*
X167778571Y-60090476D01*
X167683333Y-60042857D01*
X167635714Y-59947619D01*
X167635714Y-59757142D01*
X167683333Y-59661904D01*
X167778571Y-59614285D01*
X167873809Y-59614285D01*
X167969047Y-60090476D01*
X169912380Y-64423809D02*
X169245714Y-64423809D01*
X169340952Y-64423809D02*
X169293333Y-64376190D01*
X169245714Y-64280952D01*
X169245714Y-64138095D01*
X169293333Y-64042857D01*
X169388571Y-63995238D01*
X169912380Y-63995238D01*
X169388571Y-63995238D02*
X169293333Y-63947619D01*
X169245714Y-63852380D01*
X169245714Y-63709523D01*
X169293333Y-63614285D01*
X169388571Y-63566666D01*
X169912380Y-63566666D01*
X169912380Y-62661904D02*
X169388571Y-62661904D01*
X169293333Y-62709523D01*
X169245714Y-62804761D01*
X169245714Y-62995238D01*
X169293333Y-63090476D01*
X169864761Y-62661904D02*
X169912380Y-62757142D01*
X169912380Y-62995238D01*
X169864761Y-63090476D01*
X169769523Y-63138095D01*
X169674285Y-63138095D01*
X169579047Y-63090476D01*
X169531428Y-62995238D01*
X169531428Y-62757142D01*
X169483809Y-62661904D01*
X169912380Y-62185714D02*
X168912380Y-62185714D01*
X169531428Y-62090476D02*
X169912380Y-61804761D01*
X169245714Y-61804761D02*
X169626666Y-62185714D01*
X169864761Y-60995238D02*
X169912380Y-61090476D01*
X169912380Y-61280952D01*
X169864761Y-61376190D01*
X169769523Y-61423809D01*
X169388571Y-61423809D01*
X169293333Y-61376190D01*
X169245714Y-61280952D01*
X169245714Y-61090476D01*
X169293333Y-60995238D01*
X169388571Y-60947619D01*
X169483809Y-60947619D01*
X169579047Y-61423809D01*
X169912380Y-60519047D02*
X169245714Y-60519047D01*
X169436190Y-60519047D02*
X169340952Y-60471428D01*
X169293333Y-60423809D01*
X169245714Y-60328571D01*
X169245714Y-60233333D01*
X169531428Y-59138095D02*
X169531428Y-58376190D01*
X169912380Y-58757142D02*
X169150476Y-58757142D01*
X160642380Y-62154761D02*
X159642380Y-62154761D01*
X160023333Y-62154761D02*
X159975714Y-62059523D01*
X159975714Y-61869047D01*
X160023333Y-61773809D01*
X160070952Y-61726190D01*
X160166190Y-61678571D01*
X160451904Y-61678571D01*
X160547142Y-61726190D01*
X160594761Y-61773809D01*
X160642380Y-61869047D01*
X160642380Y-62059523D01*
X160594761Y-62154761D01*
X160642380Y-61250000D02*
X159975714Y-61250000D01*
X159642380Y-61250000D02*
X159690000Y-61297619D01*
X159737619Y-61250000D01*
X159690000Y-61202380D01*
X159642380Y-61250000D01*
X159737619Y-61250000D01*
X159975714Y-60345238D02*
X160785238Y-60345238D01*
X160880476Y-60392857D01*
X160928095Y-60440476D01*
X160975714Y-60535714D01*
X160975714Y-60678571D01*
X160928095Y-60773809D01*
X160594761Y-60345238D02*
X160642380Y-60440476D01*
X160642380Y-60630952D01*
X160594761Y-60726190D01*
X160547142Y-60773809D01*
X160451904Y-60821428D01*
X160166190Y-60821428D01*
X160070952Y-60773809D01*
X160023333Y-60726190D01*
X159975714Y-60630952D01*
X159975714Y-60440476D01*
X160023333Y-60345238D01*
X161585714Y-62988095D02*
X162252380Y-62988095D01*
X161680952Y-62988095D02*
X161633333Y-62940476D01*
X161585714Y-62845238D01*
X161585714Y-62702380D01*
X161633333Y-62607142D01*
X161728571Y-62559523D01*
X162252380Y-62559523D01*
X162252380Y-61940476D02*
X162204761Y-62035714D01*
X162157142Y-62083333D01*
X162061904Y-62130952D01*
X161776190Y-62130952D01*
X161680952Y-62083333D01*
X161633333Y-62035714D01*
X161585714Y-61940476D01*
X161585714Y-61797619D01*
X161633333Y-61702380D01*
X161680952Y-61654761D01*
X161776190Y-61607142D01*
X162061904Y-61607142D01*
X162157142Y-61654761D01*
X162204761Y-61702380D01*
X162252380Y-61797619D01*
X162252380Y-61940476D01*
X162252380Y-61178571D02*
X161585714Y-61178571D01*
X161252380Y-61178571D02*
X161300000Y-61226190D01*
X161347619Y-61178571D01*
X161300000Y-61130952D01*
X161252380Y-61178571D01*
X161347619Y-61178571D01*
X162204761Y-60750000D02*
X162252380Y-60654761D01*
X162252380Y-60464285D01*
X162204761Y-60369047D01*
X162109523Y-60321428D01*
X162061904Y-60321428D01*
X161966666Y-60369047D01*
X161919047Y-60464285D01*
X161919047Y-60607142D01*
X161871428Y-60702380D01*
X161776190Y-60750000D01*
X161728571Y-60750000D01*
X161633333Y-60702380D01*
X161585714Y-60607142D01*
X161585714Y-60464285D01*
X161633333Y-60369047D01*
X162204761Y-59511904D02*
X162252380Y-59607142D01*
X162252380Y-59797619D01*
X162204761Y-59892857D01*
X162109523Y-59940476D01*
X161728571Y-59940476D01*
X161633333Y-59892857D01*
X161585714Y-59797619D01*
X161585714Y-59607142D01*
X161633333Y-59511904D01*
X161728571Y-59464285D01*
X161823809Y-59464285D01*
X161919047Y-59940476D01*
X163862380Y-64273809D02*
X163195714Y-64273809D01*
X163290952Y-64273809D02*
X163243333Y-64226190D01*
X163195714Y-64130952D01*
X163195714Y-63988095D01*
X163243333Y-63892857D01*
X163338571Y-63845238D01*
X163862380Y-63845238D01*
X163338571Y-63845238D02*
X163243333Y-63797619D01*
X163195714Y-63702380D01*
X163195714Y-63559523D01*
X163243333Y-63464285D01*
X163338571Y-63416666D01*
X163862380Y-63416666D01*
X163862380Y-62511904D02*
X163338571Y-62511904D01*
X163243333Y-62559523D01*
X163195714Y-62654761D01*
X163195714Y-62845238D01*
X163243333Y-62940476D01*
X163814761Y-62511904D02*
X163862380Y-62607142D01*
X163862380Y-62845238D01*
X163814761Y-62940476D01*
X163719523Y-62988095D01*
X163624285Y-62988095D01*
X163529047Y-62940476D01*
X163481428Y-62845238D01*
X163481428Y-62607142D01*
X163433809Y-62511904D01*
X163862380Y-62035714D02*
X162862380Y-62035714D01*
X163481428Y-61940476D02*
X163862380Y-61654761D01*
X163195714Y-61654761D02*
X163576666Y-62035714D01*
X163814761Y-60845238D02*
X163862380Y-60940476D01*
X163862380Y-61130952D01*
X163814761Y-61226190D01*
X163719523Y-61273809D01*
X163338571Y-61273809D01*
X163243333Y-61226190D01*
X163195714Y-61130952D01*
X163195714Y-60940476D01*
X163243333Y-60845238D01*
X163338571Y-60797619D01*
X163433809Y-60797619D01*
X163529047Y-61273809D01*
X163862380Y-60369047D02*
X163195714Y-60369047D01*
X163386190Y-60369047D02*
X163290952Y-60321428D01*
X163243333Y-60273809D01*
X163195714Y-60178571D01*
X163195714Y-60083333D01*
X163481428Y-58988095D02*
X163481428Y-58226190D01*
X118354761Y-98340476D02*
X118402380Y-98197619D01*
X118402380Y-97959523D01*
X118354761Y-97864285D01*
X118307142Y-97816666D01*
X118211904Y-97769047D01*
X118116666Y-97769047D01*
X118021428Y-97816666D01*
X117973809Y-97864285D01*
X117926190Y-97959523D01*
X117878571Y-98150000D01*
X117830952Y-98245238D01*
X117783333Y-98292857D01*
X117688095Y-98340476D01*
X117592857Y-98340476D01*
X117497619Y-98292857D01*
X117450000Y-98245238D01*
X117402380Y-98150000D01*
X117402380Y-97911904D01*
X117450000Y-97769047D01*
X118307142Y-96769047D02*
X118354761Y-96816666D01*
X118402380Y-96959523D01*
X118402380Y-97054761D01*
X118354761Y-97197619D01*
X118259523Y-97292857D01*
X118164285Y-97340476D01*
X117973809Y-97388095D01*
X117830952Y-97388095D01*
X117640476Y-97340476D01*
X117545238Y-97292857D01*
X117450000Y-97197619D01*
X117402380Y-97054761D01*
X117402380Y-96959523D01*
X117450000Y-96816666D01*
X117497619Y-96769047D01*
X118402380Y-95864285D02*
X118402380Y-96340476D01*
X117402380Y-96340476D01*
D11*
X163428571Y-89214285D02*
X163428571Y-88357142D01*
X164928571Y-88785714D02*
X163428571Y-88785714D01*
X164928571Y-87857142D02*
X163428571Y-87857142D01*
X163428571Y-87285714D01*
X163500000Y-87142857D01*
X163571428Y-87071428D01*
X163714285Y-87000000D01*
X163928571Y-87000000D01*
X164071428Y-87071428D01*
X164142857Y-87142857D01*
X164214285Y-87285714D01*
X164214285Y-87857142D01*
X163428571Y-85357142D02*
X163428571Y-84428571D01*
X164000000Y-84928571D01*
X164000000Y-84714285D01*
X164071428Y-84571428D01*
X164142857Y-84500000D01*
X164285714Y-84428571D01*
X164642857Y-84428571D01*
X164785714Y-84500000D01*
X164857142Y-84571428D01*
X164928571Y-84714285D01*
X164928571Y-85142857D01*
X164857142Y-85285714D01*
X164785714Y-85357142D01*
X170178571Y-88771428D02*
X168678571Y-88771428D01*
X169250000Y-88771428D02*
X169178571Y-88628571D01*
X169178571Y-88342857D01*
X169250000Y-88200000D01*
X169321428Y-88128571D01*
X169464285Y-88057142D01*
X169892857Y-88057142D01*
X170035714Y-88128571D01*
X170107142Y-88200000D01*
X170178571Y-88342857D01*
X170178571Y-88628571D01*
X170107142Y-88771428D01*
X169178571Y-86771428D02*
X170178571Y-86771428D01*
X169178571Y-87414285D02*
X169964285Y-87414285D01*
X170107142Y-87342857D01*
X170178571Y-87200000D01*
X170178571Y-86985714D01*
X170107142Y-86842857D01*
X170035714Y-86771428D01*
X169178571Y-86200000D02*
X169178571Y-85414285D01*
X170178571Y-86200000D01*
X170178571Y-85414285D01*
X169178571Y-84985714D02*
X169178571Y-84200000D01*
X170178571Y-84985714D01*
X170178571Y-84200000D01*
X170107142Y-83057142D02*
X170178571Y-83200000D01*
X170178571Y-83485714D01*
X170107142Y-83628571D01*
X169964285Y-83700000D01*
X169392857Y-83700000D01*
X169250000Y-83628571D01*
X169178571Y-83485714D01*
X169178571Y-83200000D01*
X169250000Y-83057142D01*
X169392857Y-82985714D01*
X169535714Y-82985714D01*
X169678571Y-83700000D01*
X170178571Y-82342857D02*
X169178571Y-82342857D01*
X169464285Y-82342857D02*
X169321428Y-82271428D01*
X169250000Y-82200000D01*
X169178571Y-82057142D01*
X169178571Y-81914285D01*
D10*
X149020952Y-108572380D02*
X149020952Y-107905714D01*
X149020952Y-108096190D02*
X149068571Y-108000952D01*
X149116190Y-107953333D01*
X149211428Y-107905714D01*
X149306666Y-107905714D01*
X150020952Y-108524761D02*
X149925714Y-108572380D01*
X149735238Y-108572380D01*
X149640000Y-108524761D01*
X149592380Y-108429523D01*
X149592380Y-108048571D01*
X149640000Y-107953333D01*
X149735238Y-107905714D01*
X149925714Y-107905714D01*
X150020952Y-107953333D01*
X150068571Y-108048571D01*
X150068571Y-108143809D01*
X149592380Y-108239047D01*
X150449523Y-108524761D02*
X150544761Y-108572380D01*
X150735238Y-108572380D01*
X150830476Y-108524761D01*
X150878095Y-108429523D01*
X150878095Y-108381904D01*
X150830476Y-108286666D01*
X150735238Y-108239047D01*
X150592380Y-108239047D01*
X150497142Y-108191428D01*
X150449523Y-108096190D01*
X150449523Y-108048571D01*
X150497142Y-107953333D01*
X150592380Y-107905714D01*
X150735238Y-107905714D01*
X150830476Y-107953333D01*
X151687619Y-108524761D02*
X151592380Y-108572380D01*
X151401904Y-108572380D01*
X151306666Y-108524761D01*
X151259047Y-108429523D01*
X151259047Y-108048571D01*
X151306666Y-107953333D01*
X151401904Y-107905714D01*
X151592380Y-107905714D01*
X151687619Y-107953333D01*
X151735238Y-108048571D01*
X151735238Y-108143809D01*
X151259047Y-108239047D01*
X152020952Y-107905714D02*
X152401904Y-107905714D01*
X152163809Y-107572380D02*
X152163809Y-108429523D01*
X152211428Y-108524761D01*
X152306666Y-108572380D01*
X152401904Y-108572380D01*
X140902380Y-97278571D02*
X140235714Y-97278571D01*
X140330952Y-97278571D02*
X140283333Y-97230952D01*
X140235714Y-97135714D01*
X140235714Y-96992857D01*
X140283333Y-96897619D01*
X140378571Y-96850000D01*
X140902380Y-96850000D01*
X140378571Y-96850000D02*
X140283333Y-96802380D01*
X140235714Y-96707142D01*
X140235714Y-96564285D01*
X140283333Y-96469047D01*
X140378571Y-96421428D01*
X140902380Y-96421428D01*
X140902380Y-95802380D02*
X140854761Y-95897619D01*
X140807142Y-95945238D01*
X140711904Y-95992857D01*
X140426190Y-95992857D01*
X140330952Y-95945238D01*
X140283333Y-95897619D01*
X140235714Y-95802380D01*
X140235714Y-95659523D01*
X140283333Y-95564285D01*
X140330952Y-95516666D01*
X140426190Y-95469047D01*
X140711904Y-95469047D01*
X140807142Y-95516666D01*
X140854761Y-95564285D01*
X140902380Y-95659523D01*
X140902380Y-95802380D01*
X140235714Y-95135714D02*
X140902380Y-94897619D01*
X140235714Y-94659523D01*
X140902380Y-94278571D02*
X140235714Y-94278571D01*
X140330952Y-94278571D02*
X140283333Y-94230952D01*
X140235714Y-94135714D01*
X140235714Y-93992857D01*
X140283333Y-93897619D01*
X140378571Y-93850000D01*
X140902380Y-93850000D01*
X140378571Y-93850000D02*
X140283333Y-93802380D01*
X140235714Y-93707142D01*
X140235714Y-93564285D01*
X140283333Y-93469047D01*
X140378571Y-93421428D01*
X140902380Y-93421428D01*
X140854761Y-92564285D02*
X140902380Y-92659523D01*
X140902380Y-92850000D01*
X140854761Y-92945238D01*
X140759523Y-92992857D01*
X140378571Y-92992857D01*
X140283333Y-92945238D01*
X140235714Y-92850000D01*
X140235714Y-92659523D01*
X140283333Y-92564285D01*
X140378571Y-92516666D01*
X140473809Y-92516666D01*
X140569047Y-92992857D01*
X140235714Y-92088095D02*
X140902380Y-92088095D01*
X140330952Y-92088095D02*
X140283333Y-92040476D01*
X140235714Y-91945238D01*
X140235714Y-91802380D01*
X140283333Y-91707142D01*
X140378571Y-91659523D01*
X140902380Y-91659523D01*
X140235714Y-91326190D02*
X140235714Y-90945238D01*
X139902380Y-91183333D02*
X140759523Y-91183333D01*
X140854761Y-91135714D01*
X140902380Y-91040476D01*
X140902380Y-90945238D01*
X140854761Y-89897619D02*
X140902380Y-89802380D01*
X140902380Y-89611904D01*
X140854761Y-89516666D01*
X140759523Y-89469047D01*
X140711904Y-89469047D01*
X140616666Y-89516666D01*
X140569047Y-89611904D01*
X140569047Y-89754761D01*
X140521428Y-89850000D01*
X140426190Y-89897619D01*
X140378571Y-89897619D01*
X140283333Y-89850000D01*
X140235714Y-89754761D01*
X140235714Y-89611904D01*
X140283333Y-89516666D01*
X140854761Y-88659523D02*
X140902380Y-88754761D01*
X140902380Y-88945238D01*
X140854761Y-89040476D01*
X140759523Y-89088095D01*
X140378571Y-89088095D01*
X140283333Y-89040476D01*
X140235714Y-88945238D01*
X140235714Y-88754761D01*
X140283333Y-88659523D01*
X140378571Y-88611904D01*
X140473809Y-88611904D01*
X140569047Y-89088095D01*
X140235714Y-88183333D02*
X140902380Y-88183333D01*
X140330952Y-88183333D02*
X140283333Y-88135714D01*
X140235714Y-88040476D01*
X140235714Y-87897619D01*
X140283333Y-87802380D01*
X140378571Y-87754761D01*
X140902380Y-87754761D01*
X140854761Y-87326190D02*
X140902380Y-87230952D01*
X140902380Y-87040476D01*
X140854761Y-86945238D01*
X140759523Y-86897619D01*
X140711904Y-86897619D01*
X140616666Y-86945238D01*
X140569047Y-87040476D01*
X140569047Y-87183333D01*
X140521428Y-87278571D01*
X140426190Y-87326190D01*
X140378571Y-87326190D01*
X140283333Y-87278571D01*
X140235714Y-87183333D01*
X140235714Y-87040476D01*
X140283333Y-86945238D01*
X140902380Y-86326190D02*
X140854761Y-86421428D01*
X140807142Y-86469047D01*
X140711904Y-86516666D01*
X140426190Y-86516666D01*
X140330952Y-86469047D01*
X140283333Y-86421428D01*
X140235714Y-86326190D01*
X140235714Y-86183333D01*
X140283333Y-86088095D01*
X140330952Y-86040476D01*
X140426190Y-85992857D01*
X140711904Y-85992857D01*
X140807142Y-86040476D01*
X140854761Y-86088095D01*
X140902380Y-86183333D01*
X140902380Y-86326190D01*
X140902380Y-85564285D02*
X140235714Y-85564285D01*
X140426190Y-85564285D02*
X140330952Y-85516666D01*
X140283333Y-85469047D01*
X140235714Y-85373809D01*
X140235714Y-85278571D01*
X105471428Y-89135714D02*
X105471428Y-89802380D01*
X105042857Y-89135714D02*
X105042857Y-89659523D01*
X105090476Y-89754761D01*
X105185714Y-89802380D01*
X105328571Y-89802380D01*
X105423809Y-89754761D01*
X105471428Y-89707142D01*
X105947619Y-89135714D02*
X105947619Y-89802380D01*
X105947619Y-89230952D02*
X105995238Y-89183333D01*
X106090476Y-89135714D01*
X106233333Y-89135714D01*
X106328571Y-89183333D01*
X106376190Y-89278571D01*
X106376190Y-89802380D01*
X106852380Y-89802380D02*
X106852380Y-89135714D01*
X106852380Y-88802380D02*
X106804761Y-88850000D01*
X106852380Y-88897619D01*
X106900000Y-88850000D01*
X106852380Y-88802380D01*
X106852380Y-88897619D01*
X107757142Y-89135714D02*
X107757142Y-90135714D01*
X107757142Y-89754761D02*
X107661904Y-89802380D01*
X107471428Y-89802380D01*
X107376190Y-89754761D01*
X107328571Y-89707142D01*
X107280952Y-89611904D01*
X107280952Y-89326190D01*
X107328571Y-89230952D01*
X107376190Y-89183333D01*
X107471428Y-89135714D01*
X107661904Y-89135714D01*
X107757142Y-89183333D01*
X108661904Y-89135714D02*
X108661904Y-89802380D01*
X108233333Y-89135714D02*
X108233333Y-89659523D01*
X108280952Y-89754761D01*
X108376190Y-89802380D01*
X108519047Y-89802380D01*
X108614285Y-89754761D01*
X108661904Y-89707142D01*
X109519047Y-89754761D02*
X109423809Y-89802380D01*
X109233333Y-89802380D01*
X109138095Y-89754761D01*
X109090476Y-89659523D01*
X109090476Y-89278571D01*
X109138095Y-89183333D01*
X109233333Y-89135714D01*
X109423809Y-89135714D01*
X109519047Y-89183333D01*
X109566666Y-89278571D01*
X109566666Y-89373809D01*
X109090476Y-89469047D01*
X110757142Y-89802380D02*
X110757142Y-88802380D01*
X111233333Y-89802380D02*
X111233333Y-88802380D01*
X111471428Y-88802380D01*
X111614285Y-88850000D01*
X111709523Y-88945238D01*
X111757142Y-89040476D01*
X111804761Y-89230952D01*
X111804761Y-89373809D01*
X111757142Y-89564285D01*
X111709523Y-89659523D01*
X111614285Y-89754761D01*
X111471428Y-89802380D01*
X111233333Y-89802380D01*
X194301904Y-66000000D02*
X194206666Y-65952380D01*
X194063809Y-65952380D01*
X193920952Y-66000000D01*
X193825714Y-66095238D01*
X193778095Y-66190476D01*
X193730476Y-66380952D01*
X193730476Y-66523809D01*
X193778095Y-66714285D01*
X193825714Y-66809523D01*
X193920952Y-66904761D01*
X194063809Y-66952380D01*
X194159047Y-66952380D01*
X194301904Y-66904761D01*
X194349523Y-66857142D01*
X194349523Y-66523809D01*
X194159047Y-66523809D01*
X194778095Y-66952380D02*
X194778095Y-65952380D01*
X195349523Y-66952380D01*
X195349523Y-65952380D01*
X195825714Y-66952380D02*
X195825714Y-65952380D01*
X196063809Y-65952380D01*
X196206666Y-66000000D01*
X196301904Y-66095238D01*
X196349523Y-66190476D01*
X196397142Y-66380952D01*
X196397142Y-66523809D01*
X196349523Y-66714285D01*
X196301904Y-66809523D01*
X196206666Y-66904761D01*
X196063809Y-66952380D01*
X195825714Y-66952380D01*
X196778095Y-66904761D02*
X196920952Y-66952380D01*
X197159047Y-66952380D01*
X197254285Y-66904761D01*
X197301904Y-66857142D01*
X197349523Y-66761904D01*
X197349523Y-66666666D01*
X197301904Y-66571428D01*
X197254285Y-66523809D01*
X197159047Y-66476190D01*
X196968571Y-66428571D01*
X196873333Y-66380952D01*
X196825714Y-66333333D01*
X196778095Y-66238095D01*
X196778095Y-66142857D01*
X196825714Y-66047619D01*
X196873333Y-66000000D01*
X196968571Y-65952380D01*
X197206666Y-65952380D01*
X197349523Y-66000000D01*
X103185714Y-75397380D02*
X103519047Y-76397380D01*
X103852380Y-75397380D01*
X104185714Y-76397380D02*
X104185714Y-75397380D01*
X104661904Y-76397380D02*
X104661904Y-75397380D01*
X105233333Y-76397380D01*
X105233333Y-75397380D01*
X105709523Y-76016428D02*
X106471428Y-76016428D01*
D11*
X160971071Y-89114285D02*
X160971071Y-88257142D01*
X162471071Y-88685714D02*
X160971071Y-88685714D01*
X162471071Y-87757142D02*
X160971071Y-87757142D01*
X160971071Y-87185714D01*
X161042500Y-87042857D01*
X161113928Y-86971428D01*
X161256785Y-86900000D01*
X161471071Y-86900000D01*
X161613928Y-86971428D01*
X161685357Y-87042857D01*
X161756785Y-87185714D01*
X161756785Y-87757142D01*
X161113928Y-85185714D02*
X161042500Y-85114285D01*
X160971071Y-84971428D01*
X160971071Y-84614285D01*
X161042500Y-84471428D01*
X161113928Y-84400000D01*
X161256785Y-84328571D01*
X161399642Y-84328571D01*
X161613928Y-84400000D01*
X162471071Y-85257142D01*
X162471071Y-84328571D01*
D10*
X149708571Y-113045714D02*
X149708571Y-114045714D01*
X149708571Y-113093333D02*
X149803809Y-113045714D01*
X149994285Y-113045714D01*
X150089523Y-113093333D01*
X150137142Y-113140952D01*
X150184761Y-113236190D01*
X150184761Y-113521904D01*
X150137142Y-113617142D01*
X150089523Y-113664761D01*
X149994285Y-113712380D01*
X149803809Y-113712380D01*
X149708571Y-113664761D01*
X150613333Y-113045714D02*
X150613333Y-114045714D01*
X150613333Y-113093333D02*
X150708571Y-113045714D01*
X150899047Y-113045714D01*
X150994285Y-113093333D01*
X151041904Y-113140952D01*
X151089523Y-113236190D01*
X151089523Y-113521904D01*
X151041904Y-113617142D01*
X150994285Y-113664761D01*
X150899047Y-113712380D01*
X150708571Y-113712380D01*
X150613333Y-113664761D01*
X151470476Y-113664761D02*
X151565714Y-113712380D01*
X151756190Y-113712380D01*
X151851428Y-113664761D01*
X151899047Y-113569523D01*
X151899047Y-113521904D01*
X151851428Y-113426666D01*
X151756190Y-113379047D01*
X151613333Y-113379047D01*
X151518095Y-113331428D01*
X151470476Y-113236190D01*
X151470476Y-113188571D01*
X151518095Y-113093333D01*
X151613333Y-113045714D01*
X151756190Y-113045714D01*
X151851428Y-113093333D01*
D11*
X158328571Y-89114285D02*
X158328571Y-88257142D01*
X159828571Y-88685714D02*
X158328571Y-88685714D01*
X159828571Y-87757142D02*
X158328571Y-87757142D01*
X158328571Y-87185714D01*
X158400000Y-87042857D01*
X158471428Y-86971428D01*
X158614285Y-86900000D01*
X158828571Y-86900000D01*
X158971428Y-86971428D01*
X159042857Y-87042857D01*
X159114285Y-87185714D01*
X159114285Y-87757142D01*
X159828571Y-84328571D02*
X159828571Y-85185714D01*
X159828571Y-84757142D02*
X158328571Y-84757142D01*
X158542857Y-84900000D01*
X158685714Y-85042857D01*
X158757142Y-85185714D01*
D10*
X141502380Y-78664285D02*
X140835714Y-78664285D01*
X140502380Y-78664285D02*
X140550000Y-78711904D01*
X140597619Y-78664285D01*
X140550000Y-78616666D01*
X140502380Y-78664285D01*
X140597619Y-78664285D01*
X140835714Y-78188095D02*
X141502380Y-78188095D01*
X140930952Y-78188095D02*
X140883333Y-78140476D01*
X140835714Y-78045238D01*
X140835714Y-77902380D01*
X140883333Y-77807142D01*
X140978571Y-77759523D01*
X141502380Y-77759523D01*
X140835714Y-77426190D02*
X140835714Y-77045238D01*
X140502380Y-77283333D02*
X141359523Y-77283333D01*
X141454761Y-77235714D01*
X141502380Y-77140476D01*
X141502380Y-77045238D01*
X141502380Y-76188095D02*
X141502380Y-76759523D01*
X141502380Y-76473809D02*
X140502380Y-76473809D01*
X140645238Y-76569047D01*
X140740476Y-76664285D01*
X140788095Y-76759523D01*
X150124761Y-118095714D02*
X150505714Y-118095714D01*
X150267619Y-117762380D02*
X150267619Y-118619523D01*
X150315238Y-118714761D01*
X150410476Y-118762380D01*
X150505714Y-118762380D01*
X150743809Y-118762380D02*
X151267619Y-118095714D01*
X150743809Y-118095714D02*
X151267619Y-118762380D01*
X150223809Y-116222380D02*
X150223809Y-115555714D01*
X150223809Y-115746190D02*
X150271428Y-115650952D01*
X150319047Y-115603333D01*
X150414285Y-115555714D01*
X150509523Y-115555714D01*
X150747619Y-116222380D02*
X151271428Y-115555714D01*
X150747619Y-115555714D02*
X151271428Y-116222380D01*
X143247380Y-78764285D02*
X142580714Y-78764285D01*
X142247380Y-78764285D02*
X142295000Y-78811904D01*
X142342619Y-78764285D01*
X142295000Y-78716666D01*
X142247380Y-78764285D01*
X142342619Y-78764285D01*
X142580714Y-78288095D02*
X143247380Y-78288095D01*
X142675952Y-78288095D02*
X142628333Y-78240476D01*
X142580714Y-78145238D01*
X142580714Y-78002380D01*
X142628333Y-77907142D01*
X142723571Y-77859523D01*
X143247380Y-77859523D01*
X142580714Y-77526190D02*
X142580714Y-77145238D01*
X142247380Y-77383333D02*
X143104523Y-77383333D01*
X143199761Y-77335714D01*
X143247380Y-77240476D01*
X143247380Y-77145238D01*
X142342619Y-76859523D02*
X142295000Y-76811904D01*
X142247380Y-76716666D01*
X142247380Y-76478571D01*
X142295000Y-76383333D01*
X142342619Y-76335714D01*
X142437857Y-76288095D01*
X142533095Y-76288095D01*
X142675952Y-76335714D01*
X143247380Y-76907142D01*
X143247380Y-76288095D01*
X124352380Y-85333333D02*
X123352380Y-85333333D01*
X124304761Y-84809523D02*
X124352380Y-84809523D01*
X124447619Y-84857142D01*
X124495238Y-84904761D01*
X123352380Y-84380952D02*
X124161904Y-84380952D01*
X124257142Y-84333333D01*
X124304761Y-84285714D01*
X124352380Y-84190476D01*
X124352380Y-84000000D01*
X124304761Y-83904761D01*
X124257142Y-83857142D01*
X124161904Y-83809523D01*
X123352380Y-83809523D01*
X124304761Y-83285714D02*
X124352380Y-83285714D01*
X124447619Y-83333333D01*
X124495238Y-83380952D01*
X124352380Y-82857142D02*
X123352380Y-82857142D01*
X123352380Y-82476190D01*
X123400000Y-82380952D01*
X123447619Y-82333333D01*
X123542857Y-82285714D01*
X123685714Y-82285714D01*
X123780952Y-82333333D01*
X123828571Y-82380952D01*
X123876190Y-82476190D01*
X123876190Y-82857142D01*
X124304761Y-81142857D02*
X124352380Y-81047619D01*
X124352380Y-80857142D01*
X124304761Y-80761904D01*
X124209523Y-80714285D01*
X124161904Y-80714285D01*
X124066666Y-80761904D01*
X124019047Y-80857142D01*
X124019047Y-81000000D01*
X123971428Y-81095238D01*
X123876190Y-81142857D01*
X123828571Y-81142857D01*
X123733333Y-81095238D01*
X123685714Y-81000000D01*
X123685714Y-80857142D01*
X123733333Y-80761904D01*
X124304761Y-79904761D02*
X124352380Y-80000000D01*
X124352380Y-80190476D01*
X124304761Y-80285714D01*
X124209523Y-80333333D01*
X123828571Y-80333333D01*
X123733333Y-80285714D01*
X123685714Y-80190476D01*
X123685714Y-80000000D01*
X123733333Y-79904761D01*
X123828571Y-79857142D01*
X123923809Y-79857142D01*
X124019047Y-80333333D01*
X123685714Y-79428571D02*
X124352380Y-79428571D01*
X123780952Y-79428571D02*
X123733333Y-79380952D01*
X123685714Y-79285714D01*
X123685714Y-79142857D01*
X123733333Y-79047619D01*
X123828571Y-79000000D01*
X124352380Y-79000000D01*
X124304761Y-78571428D02*
X124352380Y-78476190D01*
X124352380Y-78285714D01*
X124304761Y-78190476D01*
X124209523Y-78142857D01*
X124161904Y-78142857D01*
X124066666Y-78190476D01*
X124019047Y-78285714D01*
X124019047Y-78428571D01*
X123971428Y-78523809D01*
X123876190Y-78571428D01*
X123828571Y-78571428D01*
X123733333Y-78523809D01*
X123685714Y-78428571D01*
X123685714Y-78285714D01*
X123733333Y-78190476D01*
X124352380Y-77571428D02*
X124304761Y-77666666D01*
X124257142Y-77714285D01*
X124161904Y-77761904D01*
X123876190Y-77761904D01*
X123780952Y-77714285D01*
X123733333Y-77666666D01*
X123685714Y-77571428D01*
X123685714Y-77428571D01*
X123733333Y-77333333D01*
X123780952Y-77285714D01*
X123876190Y-77238095D01*
X124161904Y-77238095D01*
X124257142Y-77285714D01*
X124304761Y-77333333D01*
X124352380Y-77428571D01*
X124352380Y-77571428D01*
X124352380Y-76809523D02*
X123685714Y-76809523D01*
X123876190Y-76809523D02*
X123780952Y-76761904D01*
X123733333Y-76714285D01*
X123685714Y-76619047D01*
X123685714Y-76523809D01*
X102585714Y-70402380D02*
X102919047Y-71402380D01*
X103252380Y-70402380D01*
X103585714Y-71402380D02*
X103585714Y-70402380D01*
X104061904Y-71402380D02*
X104061904Y-70402380D01*
X104633333Y-71402380D01*
X104633333Y-70402380D01*
X105109523Y-71021428D02*
X105871428Y-71021428D01*
X105490476Y-71402380D02*
X105490476Y-70640476D01*
%TO.C,C12*%
X102257142Y-91107142D02*
X102209523Y-91154761D01*
X102066666Y-91202380D01*
X101971428Y-91202380D01*
X101828571Y-91154761D01*
X101733333Y-91059523D01*
X101685714Y-90964285D01*
X101638095Y-90773809D01*
X101638095Y-90630952D01*
X101685714Y-90440476D01*
X101733333Y-90345238D01*
X101828571Y-90250000D01*
X101971428Y-90202380D01*
X102066666Y-90202380D01*
X102209523Y-90250000D01*
X102257142Y-90297619D01*
X103209523Y-91202380D02*
X102638095Y-91202380D01*
X102923809Y-91202380D02*
X102923809Y-90202380D01*
X102828571Y-90345238D01*
X102733333Y-90440476D01*
X102638095Y-90488095D01*
X103590476Y-90297619D02*
X103638095Y-90250000D01*
X103733333Y-90202380D01*
X103971428Y-90202380D01*
X104066666Y-90250000D01*
X104114285Y-90297619D01*
X104161904Y-90392857D01*
X104161904Y-90488095D01*
X104114285Y-90630952D01*
X103542857Y-91202380D01*
X104161904Y-91202380D01*
D12*
%TO.C,Z1*%
X131732564Y-134894904D02*
X131732564Y-134264983D01*
X132677446Y-134894904D01*
X132677446Y-134264983D01*
X132677446Y-133410089D02*
X132677446Y-133950022D01*
X132677446Y-133680056D02*
X131732564Y-133680056D01*
X131867547Y-133770044D01*
X131957536Y-133860033D01*
X132002530Y-133950022D01*
D10*
%TO.C,C10*%
X132602142Y-145017857D02*
X132649761Y-145065476D01*
X132697380Y-145208333D01*
X132697380Y-145303571D01*
X132649761Y-145446428D01*
X132554523Y-145541666D01*
X132459285Y-145589285D01*
X132268809Y-145636904D01*
X132125952Y-145636904D01*
X131935476Y-145589285D01*
X131840238Y-145541666D01*
X131745000Y-145446428D01*
X131697380Y-145303571D01*
X131697380Y-145208333D01*
X131745000Y-145065476D01*
X131792619Y-145017857D01*
X132697380Y-144065476D02*
X132697380Y-144636904D01*
X132697380Y-144351190D02*
X131697380Y-144351190D01*
X131840238Y-144446428D01*
X131935476Y-144541666D01*
X131983095Y-144636904D01*
X131697380Y-143446428D02*
X131697380Y-143351190D01*
X131745000Y-143255952D01*
X131792619Y-143208333D01*
X131887857Y-143160714D01*
X132078333Y-143113095D01*
X132316428Y-143113095D01*
X132506904Y-143160714D01*
X132602142Y-143208333D01*
X132649761Y-143255952D01*
X132697380Y-143351190D01*
X132697380Y-143446428D01*
X132649761Y-143541666D01*
X132602142Y-143589285D01*
X132506904Y-143636904D01*
X132316428Y-143684523D01*
X132078333Y-143684523D01*
X131887857Y-143636904D01*
X131792619Y-143589285D01*
X131745000Y-143541666D01*
X131697380Y-143446428D01*
D12*
%TO.C,U1*%
X115952380Y-81711904D02*
X116761904Y-81711904D01*
X116857142Y-81664285D01*
X116904761Y-81616666D01*
X116952380Y-81521428D01*
X116952380Y-81330952D01*
X116904761Y-81235714D01*
X116857142Y-81188095D01*
X116761904Y-81140476D01*
X115952380Y-81140476D01*
X116952380Y-80140476D02*
X116952380Y-80711904D01*
X116952380Y-80426190D02*
X115952380Y-80426190D01*
X116095238Y-80521428D01*
X116190476Y-80616666D01*
X116238095Y-80711904D01*
D10*
%TO.C,J2*%
X165081666Y-67577380D02*
X165081666Y-68291666D01*
X165034047Y-68434523D01*
X164938809Y-68529761D01*
X164795952Y-68577380D01*
X164700714Y-68577380D01*
X165510238Y-67672619D02*
X165557857Y-67625000D01*
X165653095Y-67577380D01*
X165891190Y-67577380D01*
X165986428Y-67625000D01*
X166034047Y-67672619D01*
X166081666Y-67767857D01*
X166081666Y-67863095D01*
X166034047Y-68005952D01*
X165462619Y-68577380D01*
X166081666Y-68577380D01*
%TO.C,R1*%
X191129333Y-94632380D02*
X190796000Y-94156190D01*
X190557904Y-94632380D02*
X190557904Y-93632380D01*
X190938857Y-93632380D01*
X191034095Y-93680000D01*
X191081714Y-93727619D01*
X191129333Y-93822857D01*
X191129333Y-93965714D01*
X191081714Y-94060952D01*
X191034095Y-94108571D01*
X190938857Y-94156190D01*
X190557904Y-94156190D01*
X192081714Y-94632380D02*
X191510285Y-94632380D01*
X191796000Y-94632380D02*
X191796000Y-93632380D01*
X191700761Y-93775238D01*
X191605523Y-93870476D01*
X191510285Y-93918095D01*
%TO.C,R10*%
X161432380Y-81692857D02*
X160956190Y-82026190D01*
X161432380Y-82264285D02*
X160432380Y-82264285D01*
X160432380Y-81883333D01*
X160480000Y-81788095D01*
X160527619Y-81740476D01*
X160622857Y-81692857D01*
X160765714Y-81692857D01*
X160860952Y-81740476D01*
X160908571Y-81788095D01*
X160956190Y-81883333D01*
X160956190Y-82264285D01*
X161432380Y-80740476D02*
X161432380Y-81311904D01*
X161432380Y-81026190D02*
X160432380Y-81026190D01*
X160575238Y-81121428D01*
X160670476Y-81216666D01*
X160718095Y-81311904D01*
X160432380Y-80121428D02*
X160432380Y-80026190D01*
X160480000Y-79930952D01*
X160527619Y-79883333D01*
X160622857Y-79835714D01*
X160813333Y-79788095D01*
X161051428Y-79788095D01*
X161241904Y-79835714D01*
X161337142Y-79883333D01*
X161384761Y-79930952D01*
X161432380Y-80026190D01*
X161432380Y-80121428D01*
X161384761Y-80216666D01*
X161337142Y-80264285D01*
X161241904Y-80311904D01*
X161051428Y-80359523D01*
X160813333Y-80359523D01*
X160622857Y-80311904D01*
X160527619Y-80264285D01*
X160480000Y-80216666D01*
X160432380Y-80121428D01*
%TO.C,Q1*%
X184951439Y-76325238D02*
X184903820Y-76420476D01*
X184808581Y-76515714D01*
X184665724Y-76658571D01*
X184618105Y-76753809D01*
X184618105Y-76849047D01*
X184856200Y-76801428D02*
X184808581Y-76896666D01*
X184713343Y-76991904D01*
X184522867Y-77039523D01*
X184189534Y-77039523D01*
X183999058Y-76991904D01*
X183903820Y-76896666D01*
X183856200Y-76801428D01*
X183856200Y-76610952D01*
X183903820Y-76515714D01*
X183999058Y-76420476D01*
X184189534Y-76372857D01*
X184522867Y-76372857D01*
X184713343Y-76420476D01*
X184808581Y-76515714D01*
X184856200Y-76610952D01*
X184856200Y-76801428D01*
X184856200Y-75420476D02*
X184856200Y-75991904D01*
X184856200Y-75706190D02*
X183856200Y-75706190D01*
X183999058Y-75801428D01*
X184094296Y-75896666D01*
X184141915Y-75991904D01*
%TO.C,R4*%
X153317333Y-138632380D02*
X152984000Y-138156190D01*
X152745904Y-138632380D02*
X152745904Y-137632380D01*
X153126857Y-137632380D01*
X153222095Y-137680000D01*
X153269714Y-137727619D01*
X153317333Y-137822857D01*
X153317333Y-137965714D01*
X153269714Y-138060952D01*
X153222095Y-138108571D01*
X153126857Y-138156190D01*
X152745904Y-138156190D01*
X154174476Y-137965714D02*
X154174476Y-138632380D01*
X153936380Y-137584761D02*
X153698285Y-138299047D01*
X154317333Y-138299047D01*
D12*
%TO.C,BT2*%
X147597592Y-150452508D02*
X147732575Y-150497502D01*
X147777570Y-150542497D01*
X147822564Y-150632485D01*
X147822564Y-150767469D01*
X147777570Y-150857457D01*
X147732575Y-150902452D01*
X147642587Y-150947446D01*
X147282632Y-150947446D01*
X147282632Y-150002564D01*
X147597592Y-150002564D01*
X147687581Y-150047559D01*
X147732575Y-150092553D01*
X147777570Y-150182542D01*
X147777570Y-150272530D01*
X147732575Y-150362519D01*
X147687581Y-150407514D01*
X147597592Y-150452508D01*
X147282632Y-150452508D01*
X148092530Y-150002564D02*
X148632463Y-150002564D01*
X148362497Y-150947446D02*
X148362497Y-150002564D01*
X148902429Y-150092553D02*
X148947424Y-150047559D01*
X149037412Y-150002564D01*
X149262384Y-150002564D01*
X149352373Y-150047559D01*
X149397367Y-150092553D01*
X149442362Y-150182542D01*
X149442362Y-150272530D01*
X149397367Y-150407514D01*
X148857435Y-150947446D01*
X149442362Y-150947446D01*
D13*
%TO.C,BT3*%
X101582485Y-113341057D02*
X101642961Y-113159628D01*
X101703438Y-113099152D01*
X101824390Y-113038676D01*
X102005819Y-113038676D01*
X102126771Y-113099152D01*
X102187247Y-113159628D01*
X102247723Y-113280580D01*
X102247723Y-113764390D01*
X100977723Y-113764390D01*
X100977723Y-113341057D01*
X101038200Y-113220104D01*
X101098676Y-113159628D01*
X101219628Y-113099152D01*
X101340580Y-113099152D01*
X101461533Y-113159628D01*
X101522009Y-113220104D01*
X101582485Y-113341057D01*
X101582485Y-113764390D01*
X100977723Y-112675819D02*
X100977723Y-111950104D01*
X102247723Y-112312961D02*
X100977723Y-112312961D01*
X100977723Y-111647723D02*
X100977723Y-110861533D01*
X101461533Y-111284866D01*
X101461533Y-111103438D01*
X101522009Y-110982485D01*
X101582485Y-110922009D01*
X101703438Y-110861533D01*
X102005819Y-110861533D01*
X102126771Y-110922009D01*
X102187247Y-110982485D01*
X102247723Y-111103438D01*
X102247723Y-111466295D01*
X102187247Y-111587247D01*
X102126771Y-111647723D01*
D10*
%TO.C,C11*%
X101737142Y-96327142D02*
X101689523Y-96374761D01*
X101546666Y-96422380D01*
X101451428Y-96422380D01*
X101308571Y-96374761D01*
X101213333Y-96279523D01*
X101165714Y-96184285D01*
X101118095Y-95993809D01*
X101118095Y-95850952D01*
X101165714Y-95660476D01*
X101213333Y-95565238D01*
X101308571Y-95470000D01*
X101451428Y-95422380D01*
X101546666Y-95422380D01*
X101689523Y-95470000D01*
X101737142Y-95517619D01*
X102689523Y-96422380D02*
X102118095Y-96422380D01*
X102403809Y-96422380D02*
X102403809Y-95422380D01*
X102308571Y-95565238D01*
X102213333Y-95660476D01*
X102118095Y-95708095D01*
X103641904Y-96422380D02*
X103070476Y-96422380D01*
X103356190Y-96422380D02*
X103356190Y-95422380D01*
X103260952Y-95565238D01*
X103165714Y-95660476D01*
X103070476Y-95708095D01*
D12*
%TO.C,mod1*%
X168455177Y-153201205D02*
X168455177Y-152676271D01*
X168455177Y-152751261D02*
X168492672Y-152713766D01*
X168567663Y-152676271D01*
X168680149Y-152676271D01*
X168755140Y-152713766D01*
X168792635Y-152788757D01*
X168792635Y-153201205D01*
X168792635Y-152788757D02*
X168830130Y-152713766D01*
X168905121Y-152676271D01*
X169017607Y-152676271D01*
X169092598Y-152713766D01*
X169130093Y-152788757D01*
X169130093Y-153201205D01*
X169617532Y-153201205D02*
X169542542Y-153163710D01*
X169505046Y-153126215D01*
X169467551Y-153051224D01*
X169467551Y-152826252D01*
X169505046Y-152751261D01*
X169542542Y-152713766D01*
X169617532Y-152676271D01*
X169730018Y-152676271D01*
X169805009Y-152713766D01*
X169842504Y-152751261D01*
X169880000Y-152826252D01*
X169880000Y-153051224D01*
X169842504Y-153126215D01*
X169805009Y-153163710D01*
X169730018Y-153201205D01*
X169617532Y-153201205D01*
X170554916Y-153201205D02*
X170554916Y-152413803D01*
X170554916Y-153163710D02*
X170479925Y-153201205D01*
X170329944Y-153201205D01*
X170254953Y-153163710D01*
X170217458Y-153126215D01*
X170179962Y-153051224D01*
X170179962Y-152826252D01*
X170217458Y-152751261D01*
X170254953Y-152713766D01*
X170329944Y-152676271D01*
X170479925Y-152676271D01*
X170554916Y-152713766D01*
X171342318Y-153201205D02*
X170892374Y-153201205D01*
X171117346Y-153201205D02*
X171117346Y-152413803D01*
X171042355Y-152526289D01*
X170967364Y-152601280D01*
X170892374Y-152638775D01*
D10*
%TO.C,U2*%
X132815095Y-64714380D02*
X132815095Y-65523904D01*
X132862714Y-65619142D01*
X132910333Y-65666761D01*
X133005571Y-65714380D01*
X133196047Y-65714380D01*
X133291285Y-65666761D01*
X133338904Y-65619142D01*
X133386523Y-65523904D01*
X133386523Y-64714380D01*
X133815095Y-64809619D02*
X133862714Y-64762000D01*
X133957952Y-64714380D01*
X134196047Y-64714380D01*
X134291285Y-64762000D01*
X134338904Y-64809619D01*
X134386523Y-64904857D01*
X134386523Y-65000095D01*
X134338904Y-65142952D01*
X133767476Y-65714380D01*
X134386523Y-65714380D01*
%TO.C,R9*%
X186892973Y-76382340D02*
X186559640Y-75906150D01*
X186321544Y-76382340D02*
X186321544Y-75382340D01*
X186702497Y-75382340D01*
X186797735Y-75429960D01*
X186845354Y-75477579D01*
X186892973Y-75572817D01*
X186892973Y-75715674D01*
X186845354Y-75810912D01*
X186797735Y-75858531D01*
X186702497Y-75906150D01*
X186321544Y-75906150D01*
X187369163Y-76382340D02*
X187559640Y-76382340D01*
X187654878Y-76334721D01*
X187702497Y-76287102D01*
X187797735Y-76144245D01*
X187845354Y-75953769D01*
X187845354Y-75572817D01*
X187797735Y-75477579D01*
X187750116Y-75429960D01*
X187654878Y-75382340D01*
X187464401Y-75382340D01*
X187369163Y-75429960D01*
X187321544Y-75477579D01*
X187273925Y-75572817D01*
X187273925Y-75810912D01*
X187321544Y-75906150D01*
X187369163Y-75953769D01*
X187464401Y-76001388D01*
X187654878Y-76001388D01*
X187750116Y-75953769D01*
X187797735Y-75906150D01*
X187845354Y-75810912D01*
%TO.C,C3*%
X134633333Y-80047142D02*
X134585714Y-80094761D01*
X134442857Y-80142380D01*
X134347619Y-80142380D01*
X134204761Y-80094761D01*
X134109523Y-79999523D01*
X134061904Y-79904285D01*
X134014285Y-79713809D01*
X134014285Y-79570952D01*
X134061904Y-79380476D01*
X134109523Y-79285238D01*
X134204761Y-79190000D01*
X134347619Y-79142380D01*
X134442857Y-79142380D01*
X134585714Y-79190000D01*
X134633333Y-79237619D01*
X134966666Y-79142380D02*
X135585714Y-79142380D01*
X135252380Y-79523333D01*
X135395238Y-79523333D01*
X135490476Y-79570952D01*
X135538095Y-79618571D01*
X135585714Y-79713809D01*
X135585714Y-79951904D01*
X135538095Y-80047142D01*
X135490476Y-80094761D01*
X135395238Y-80142380D01*
X135109523Y-80142380D01*
X135014285Y-80094761D01*
X134966666Y-80047142D01*
%TO.C,J5*%
X158776666Y-93202380D02*
X158776666Y-93916666D01*
X158729047Y-94059523D01*
X158633809Y-94154761D01*
X158490952Y-94202380D01*
X158395714Y-94202380D01*
X159729047Y-93202380D02*
X159252857Y-93202380D01*
X159205238Y-93678571D01*
X159252857Y-93630952D01*
X159348095Y-93583333D01*
X159586190Y-93583333D01*
X159681428Y-93630952D01*
X159729047Y-93678571D01*
X159776666Y-93773809D01*
X159776666Y-94011904D01*
X159729047Y-94107142D01*
X159681428Y-94154761D01*
X159586190Y-94202380D01*
X159348095Y-94202380D01*
X159252857Y-94154761D01*
X159205238Y-94107142D01*
X158746666Y-93212380D02*
X158746666Y-93926666D01*
X158699047Y-94069523D01*
X158603809Y-94164761D01*
X158460952Y-94212380D01*
X158365714Y-94212380D01*
X159699047Y-93212380D02*
X159222857Y-93212380D01*
X159175238Y-93688571D01*
X159222857Y-93640952D01*
X159318095Y-93593333D01*
X159556190Y-93593333D01*
X159651428Y-93640952D01*
X159699047Y-93688571D01*
X159746666Y-93783809D01*
X159746666Y-94021904D01*
X159699047Y-94117142D01*
X159651428Y-94164761D01*
X159556190Y-94212380D01*
X159318095Y-94212380D01*
X159222857Y-94164761D01*
X159175238Y-94117142D01*
%TO.C,C4*%
X134658333Y-77162142D02*
X134610714Y-77209761D01*
X134467857Y-77257380D01*
X134372619Y-77257380D01*
X134229761Y-77209761D01*
X134134523Y-77114523D01*
X134086904Y-77019285D01*
X134039285Y-76828809D01*
X134039285Y-76685952D01*
X134086904Y-76495476D01*
X134134523Y-76400238D01*
X134229761Y-76305000D01*
X134372619Y-76257380D01*
X134467857Y-76257380D01*
X134610714Y-76305000D01*
X134658333Y-76352619D01*
X135515476Y-76590714D02*
X135515476Y-77257380D01*
X135277380Y-76209761D02*
X135039285Y-76924047D01*
X135658333Y-76924047D01*
%TO.C,C7*%
X123803333Y-119032142D02*
X123755714Y-119079761D01*
X123612857Y-119127380D01*
X123517619Y-119127380D01*
X123374761Y-119079761D01*
X123279523Y-118984523D01*
X123231904Y-118889285D01*
X123184285Y-118698809D01*
X123184285Y-118555952D01*
X123231904Y-118365476D01*
X123279523Y-118270238D01*
X123374761Y-118175000D01*
X123517619Y-118127380D01*
X123612857Y-118127380D01*
X123755714Y-118175000D01*
X123803333Y-118222619D01*
X124136666Y-118127380D02*
X124803333Y-118127380D01*
X124374761Y-119127380D01*
%TO.C,D4*%
X147954404Y-136092380D02*
X147954404Y-135092380D01*
X148192500Y-135092380D01*
X148335357Y-135140000D01*
X148430595Y-135235238D01*
X148478214Y-135330476D01*
X148525833Y-135520952D01*
X148525833Y-135663809D01*
X148478214Y-135854285D01*
X148430595Y-135949523D01*
X148335357Y-136044761D01*
X148192500Y-136092380D01*
X147954404Y-136092380D01*
X149382976Y-135425714D02*
X149382976Y-136092380D01*
X149144880Y-135044761D02*
X148906785Y-135759047D01*
X149525833Y-135759047D01*
%TO.C,C2*%
X131523333Y-77477142D02*
X131475714Y-77524761D01*
X131332857Y-77572380D01*
X131237619Y-77572380D01*
X131094761Y-77524761D01*
X130999523Y-77429523D01*
X130951904Y-77334285D01*
X130904285Y-77143809D01*
X130904285Y-77000952D01*
X130951904Y-76810476D01*
X130999523Y-76715238D01*
X131094761Y-76620000D01*
X131237619Y-76572380D01*
X131332857Y-76572380D01*
X131475714Y-76620000D01*
X131523333Y-76667619D01*
X131904285Y-76667619D02*
X131951904Y-76620000D01*
X132047142Y-76572380D01*
X132285238Y-76572380D01*
X132380476Y-76620000D01*
X132428095Y-76667619D01*
X132475714Y-76762857D01*
X132475714Y-76858095D01*
X132428095Y-77000952D01*
X131856666Y-77572380D01*
X132475714Y-77572380D01*
%TO.C,R2*%
X191139333Y-90222380D02*
X190806000Y-89746190D01*
X190567904Y-90222380D02*
X190567904Y-89222380D01*
X190948857Y-89222380D01*
X191044095Y-89270000D01*
X191091714Y-89317619D01*
X191139333Y-89412857D01*
X191139333Y-89555714D01*
X191091714Y-89650952D01*
X191044095Y-89698571D01*
X190948857Y-89746190D01*
X190567904Y-89746190D01*
X191520285Y-89317619D02*
X191567904Y-89270000D01*
X191663142Y-89222380D01*
X191901238Y-89222380D01*
X191996476Y-89270000D01*
X192044095Y-89317619D01*
X192091714Y-89412857D01*
X192091714Y-89508095D01*
X192044095Y-89650952D01*
X191472666Y-90222380D01*
X192091714Y-90222380D01*
%TO.C,C8*%
X123683333Y-121897142D02*
X123635714Y-121944761D01*
X123492857Y-121992380D01*
X123397619Y-121992380D01*
X123254761Y-121944761D01*
X123159523Y-121849523D01*
X123111904Y-121754285D01*
X123064285Y-121563809D01*
X123064285Y-121420952D01*
X123111904Y-121230476D01*
X123159523Y-121135238D01*
X123254761Y-121040000D01*
X123397619Y-120992380D01*
X123492857Y-120992380D01*
X123635714Y-121040000D01*
X123683333Y-121087619D01*
X124254761Y-121420952D02*
X124159523Y-121373333D01*
X124111904Y-121325714D01*
X124064285Y-121230476D01*
X124064285Y-121182857D01*
X124111904Y-121087619D01*
X124159523Y-121040000D01*
X124254761Y-120992380D01*
X124445238Y-120992380D01*
X124540476Y-121040000D01*
X124588095Y-121087619D01*
X124635714Y-121182857D01*
X124635714Y-121230476D01*
X124588095Y-121325714D01*
X124540476Y-121373333D01*
X124445238Y-121420952D01*
X124254761Y-121420952D01*
X124159523Y-121468571D01*
X124111904Y-121516190D01*
X124064285Y-121611428D01*
X124064285Y-121801904D01*
X124111904Y-121897142D01*
X124159523Y-121944761D01*
X124254761Y-121992380D01*
X124445238Y-121992380D01*
X124540476Y-121944761D01*
X124588095Y-121897142D01*
X124635714Y-121801904D01*
X124635714Y-121611428D01*
X124588095Y-121516190D01*
X124540476Y-121468571D01*
X124445238Y-121420952D01*
%TO.C,R12*%
X117447142Y-86002380D02*
X117113809Y-85526190D01*
X116875714Y-86002380D02*
X116875714Y-85002380D01*
X117256666Y-85002380D01*
X117351904Y-85050000D01*
X117399523Y-85097619D01*
X117447142Y-85192857D01*
X117447142Y-85335714D01*
X117399523Y-85430952D01*
X117351904Y-85478571D01*
X117256666Y-85526190D01*
X116875714Y-85526190D01*
X118399523Y-86002380D02*
X117828095Y-86002380D01*
X118113809Y-86002380D02*
X118113809Y-85002380D01*
X118018571Y-85145238D01*
X117923333Y-85240476D01*
X117828095Y-85288095D01*
X118780476Y-85097619D02*
X118828095Y-85050000D01*
X118923333Y-85002380D01*
X119161428Y-85002380D01*
X119256666Y-85050000D01*
X119304285Y-85097619D01*
X119351904Y-85192857D01*
X119351904Y-85288095D01*
X119304285Y-85430952D01*
X118732857Y-86002380D01*
X119351904Y-86002380D01*
%TO.C,J1*%
X105617380Y-73518333D02*
X106331666Y-73518333D01*
X106474523Y-73565952D01*
X106569761Y-73661190D01*
X106617380Y-73804047D01*
X106617380Y-73899285D01*
X106617380Y-72518333D02*
X106617380Y-73089761D01*
X106617380Y-72804047D02*
X105617380Y-72804047D01*
X105760238Y-72899285D01*
X105855476Y-72994523D01*
X105903095Y-73089761D01*
%TO.C,L1*%
X132577380Y-140161666D02*
X132577380Y-140637857D01*
X131577380Y-140637857D01*
X132577380Y-139304523D02*
X132577380Y-139875952D01*
X132577380Y-139590238D02*
X131577380Y-139590238D01*
X131720238Y-139685476D01*
X131815476Y-139780714D01*
X131863095Y-139875952D01*
%TO.C,J3*%
X196342380Y-80743333D02*
X197056666Y-80743333D01*
X197199523Y-80790952D01*
X197294761Y-80886190D01*
X197342380Y-81029047D01*
X197342380Y-81124285D01*
X196342380Y-80362380D02*
X196342380Y-79743333D01*
X196723333Y-80076666D01*
X196723333Y-79933809D01*
X196770952Y-79838571D01*
X196818571Y-79790952D01*
X196913809Y-79743333D01*
X197151904Y-79743333D01*
X197247142Y-79790952D01*
X197294761Y-79838571D01*
X197342380Y-79933809D01*
X197342380Y-80219523D01*
X197294761Y-80314761D01*
X197247142Y-80362380D01*
X196352380Y-80773333D02*
X197066666Y-80773333D01*
X197209523Y-80820952D01*
X197304761Y-80916190D01*
X197352380Y-81059047D01*
X197352380Y-81154285D01*
X196352380Y-80392380D02*
X196352380Y-79773333D01*
X196733333Y-80106666D01*
X196733333Y-79963809D01*
X196780952Y-79868571D01*
X196828571Y-79820952D01*
X196923809Y-79773333D01*
X197161904Y-79773333D01*
X197257142Y-79820952D01*
X197304761Y-79868571D01*
X197352380Y-79963809D01*
X197352380Y-80249523D01*
X197304761Y-80344761D01*
X197257142Y-80392380D01*
D12*
%TO.C,PZ1*%
X184522643Y-64987446D02*
X184522643Y-64042564D01*
X184882598Y-64042564D01*
X184972587Y-64087559D01*
X185017581Y-64132553D01*
X185062575Y-64222542D01*
X185062575Y-64357525D01*
X185017581Y-64447514D01*
X184972587Y-64492508D01*
X184882598Y-64537502D01*
X184522643Y-64537502D01*
X185377536Y-64042564D02*
X186007457Y-64042564D01*
X185377536Y-64987446D01*
X186007457Y-64987446D01*
X186862351Y-64987446D02*
X186322418Y-64987446D01*
X186592384Y-64987446D02*
X186592384Y-64042564D01*
X186502396Y-64177547D01*
X186412407Y-64267536D01*
X186322418Y-64312530D01*
D10*
%TO.C,R3*%
X191109333Y-85652380D02*
X190776000Y-85176190D01*
X190537904Y-85652380D02*
X190537904Y-84652380D01*
X190918857Y-84652380D01*
X191014095Y-84700000D01*
X191061714Y-84747619D01*
X191109333Y-84842857D01*
X191109333Y-84985714D01*
X191061714Y-85080952D01*
X191014095Y-85128571D01*
X190918857Y-85176190D01*
X190537904Y-85176190D01*
X191442666Y-84652380D02*
X192061714Y-84652380D01*
X191728380Y-85033333D01*
X191871238Y-85033333D01*
X191966476Y-85080952D01*
X192014095Y-85128571D01*
X192061714Y-85223809D01*
X192061714Y-85461904D01*
X192014095Y-85557142D01*
X191966476Y-85604761D01*
X191871238Y-85652380D01*
X191585523Y-85652380D01*
X191490285Y-85604761D01*
X191442666Y-85557142D01*
%TO.C,C9*%
X130973333Y-130647142D02*
X130925714Y-130694761D01*
X130782857Y-130742380D01*
X130687619Y-130742380D01*
X130544761Y-130694761D01*
X130449523Y-130599523D01*
X130401904Y-130504285D01*
X130354285Y-130313809D01*
X130354285Y-130170952D01*
X130401904Y-129980476D01*
X130449523Y-129885238D01*
X130544761Y-129790000D01*
X130687619Y-129742380D01*
X130782857Y-129742380D01*
X130925714Y-129790000D01*
X130973333Y-129837619D01*
X131449523Y-130742380D02*
X131640000Y-130742380D01*
X131735238Y-130694761D01*
X131782857Y-130647142D01*
X131878095Y-130504285D01*
X131925714Y-130313809D01*
X131925714Y-129932857D01*
X131878095Y-129837619D01*
X131830476Y-129790000D01*
X131735238Y-129742380D01*
X131544761Y-129742380D01*
X131449523Y-129790000D01*
X131401904Y-129837619D01*
X131354285Y-129932857D01*
X131354285Y-130170952D01*
X131401904Y-130266190D01*
X131449523Y-130313809D01*
X131544761Y-130361428D01*
X131735238Y-130361428D01*
X131830476Y-130313809D01*
X131878095Y-130266190D01*
X131925714Y-130170952D01*
D13*
%TO.C,BT1*%
X101482485Y-141431057D02*
X101542961Y-141249628D01*
X101603438Y-141189152D01*
X101724390Y-141128676D01*
X101905819Y-141128676D01*
X102026771Y-141189152D01*
X102087247Y-141249628D01*
X102147723Y-141370580D01*
X102147723Y-141854390D01*
X100877723Y-141854390D01*
X100877723Y-141431057D01*
X100938200Y-141310104D01*
X100998676Y-141249628D01*
X101119628Y-141189152D01*
X101240580Y-141189152D01*
X101361533Y-141249628D01*
X101422009Y-141310104D01*
X101482485Y-141431057D01*
X101482485Y-141854390D01*
X100877723Y-140765819D02*
X100877723Y-140040104D01*
X102147723Y-140402961D02*
X100877723Y-140402961D01*
X102147723Y-138951533D02*
X102147723Y-139677247D01*
X102147723Y-139314390D02*
X100877723Y-139314390D01*
X101059152Y-139435342D01*
X101180104Y-139556295D01*
X101240580Y-139677247D01*
D10*
%TO.C,D1*%
X195071904Y-97132380D02*
X195071904Y-96132380D01*
X195310000Y-96132380D01*
X195452857Y-96180000D01*
X195548095Y-96275238D01*
X195595714Y-96370476D01*
X195643333Y-96560952D01*
X195643333Y-96703809D01*
X195595714Y-96894285D01*
X195548095Y-96989523D01*
X195452857Y-97084761D01*
X195310000Y-97132380D01*
X195071904Y-97132380D01*
X196595714Y-97132380D02*
X196024285Y-97132380D01*
X196310000Y-97132380D02*
X196310000Y-96132380D01*
X196214761Y-96275238D01*
X196119523Y-96370476D01*
X196024285Y-96418095D01*
%TO.C,AE1*%
X135963333Y-149783333D02*
X135963333Y-150259523D01*
X135677619Y-149688095D02*
X136677619Y-150021428D01*
X135677619Y-150354761D01*
X136201428Y-150688095D02*
X136201428Y-151021428D01*
X135677619Y-151164285D02*
X135677619Y-150688095D01*
X136677619Y-150688095D01*
X136677619Y-151164285D01*
X135677619Y-152116666D02*
X135677619Y-151545238D01*
X135677619Y-151830952D02*
X136677619Y-151830952D01*
X136534761Y-151735714D01*
X136439523Y-151640476D01*
X136391904Y-151545238D01*
%TO.C,R11*%
X120147142Y-88562380D02*
X119813809Y-88086190D01*
X119575714Y-88562380D02*
X119575714Y-87562380D01*
X119956666Y-87562380D01*
X120051904Y-87610000D01*
X120099523Y-87657619D01*
X120147142Y-87752857D01*
X120147142Y-87895714D01*
X120099523Y-87990952D01*
X120051904Y-88038571D01*
X119956666Y-88086190D01*
X119575714Y-88086190D01*
X121099523Y-88562380D02*
X120528095Y-88562380D01*
X120813809Y-88562380D02*
X120813809Y-87562380D01*
X120718571Y-87705238D01*
X120623333Y-87800476D01*
X120528095Y-87848095D01*
X122051904Y-88562380D02*
X121480476Y-88562380D01*
X121766190Y-88562380D02*
X121766190Y-87562380D01*
X121670952Y-87705238D01*
X121575714Y-87800476D01*
X121480476Y-87848095D01*
%TO.C,U6*%
X105932095Y-94745380D02*
X105932095Y-95554904D01*
X105979714Y-95650142D01*
X106027333Y-95697761D01*
X106122571Y-95745380D01*
X106313047Y-95745380D01*
X106408285Y-95697761D01*
X106455904Y-95650142D01*
X106503523Y-95554904D01*
X106503523Y-94745380D01*
X107408285Y-94745380D02*
X107217809Y-94745380D01*
X107122571Y-94793000D01*
X107074952Y-94840619D01*
X106979714Y-94983476D01*
X106932095Y-95173952D01*
X106932095Y-95554904D01*
X106979714Y-95650142D01*
X107027333Y-95697761D01*
X107122571Y-95745380D01*
X107313047Y-95745380D01*
X107408285Y-95697761D01*
X107455904Y-95650142D01*
X107503523Y-95554904D01*
X107503523Y-95316809D01*
X107455904Y-95221571D01*
X107408285Y-95173952D01*
X107313047Y-95126333D01*
X107122571Y-95126333D01*
X107027333Y-95173952D01*
X106979714Y-95221571D01*
X106932095Y-95316809D01*
%TO.C,J7*%
X119226666Y-90972380D02*
X119226666Y-91686666D01*
X119179047Y-91829523D01*
X119083809Y-91924761D01*
X118940952Y-91972380D01*
X118845714Y-91972380D01*
X119607619Y-90972380D02*
X120274285Y-90972380D01*
X119845714Y-91972380D01*
D12*
%TO.C,U4*%
X130480037Y-136644401D02*
X130480037Y-136963112D01*
X130498785Y-137000607D01*
X130517532Y-137019355D01*
X130555028Y-137038102D01*
X130630018Y-137038102D01*
X130667514Y-137019355D01*
X130686261Y-137000607D01*
X130705009Y-136963112D01*
X130705009Y-136644401D01*
X131061215Y-136775635D02*
X131061215Y-137038102D01*
X130967476Y-136625654D02*
X130873738Y-136906869D01*
X131117458Y-136906869D01*
D10*
%TO.C,R8*%
X135698333Y-137057380D02*
X135365000Y-136581190D01*
X135126904Y-137057380D02*
X135126904Y-136057380D01*
X135507857Y-136057380D01*
X135603095Y-136105000D01*
X135650714Y-136152619D01*
X135698333Y-136247857D01*
X135698333Y-136390714D01*
X135650714Y-136485952D01*
X135603095Y-136533571D01*
X135507857Y-136581190D01*
X135126904Y-136581190D01*
X136269761Y-136485952D02*
X136174523Y-136438333D01*
X136126904Y-136390714D01*
X136079285Y-136295476D01*
X136079285Y-136247857D01*
X136126904Y-136152619D01*
X136174523Y-136105000D01*
X136269761Y-136057380D01*
X136460238Y-136057380D01*
X136555476Y-136105000D01*
X136603095Y-136152619D01*
X136650714Y-136247857D01*
X136650714Y-136295476D01*
X136603095Y-136390714D01*
X136555476Y-136438333D01*
X136460238Y-136485952D01*
X136269761Y-136485952D01*
X136174523Y-136533571D01*
X136126904Y-136581190D01*
X136079285Y-136676428D01*
X136079285Y-136866904D01*
X136126904Y-136962142D01*
X136174523Y-137009761D01*
X136269761Y-137057380D01*
X136460238Y-137057380D01*
X136555476Y-137009761D01*
X136603095Y-136962142D01*
X136650714Y-136866904D01*
X136650714Y-136676428D01*
X136603095Y-136581190D01*
X136555476Y-136533571D01*
X136460238Y-136485952D01*
%TO.C,J6*%
X142296666Y-79952380D02*
X142296666Y-80666666D01*
X142249047Y-80809523D01*
X142153809Y-80904761D01*
X142010952Y-80952380D01*
X141915714Y-80952380D01*
X143201428Y-79952380D02*
X143010952Y-79952380D01*
X142915714Y-80000000D01*
X142868095Y-80047619D01*
X142772857Y-80190476D01*
X142725238Y-80380952D01*
X142725238Y-80761904D01*
X142772857Y-80857142D01*
X142820476Y-80904761D01*
X142915714Y-80952380D01*
X143106190Y-80952380D01*
X143201428Y-80904761D01*
X143249047Y-80857142D01*
X143296666Y-80761904D01*
X143296666Y-80523809D01*
X143249047Y-80428571D01*
X143201428Y-80380952D01*
X143106190Y-80333333D01*
X142915714Y-80333333D01*
X142820476Y-80380952D01*
X142772857Y-80428571D01*
X142725238Y-80523809D01*
%TO.C,J4*%
X146512380Y-118773333D02*
X147226666Y-118773333D01*
X147369523Y-118820952D01*
X147464761Y-118916190D01*
X147512380Y-119059047D01*
X147512380Y-119154285D01*
X146845714Y-117868571D02*
X147512380Y-117868571D01*
X146464761Y-118106666D02*
X147179047Y-118344761D01*
X147179047Y-117725714D01*
X146522380Y-118803333D02*
X147236666Y-118803333D01*
X147379523Y-118850952D01*
X147474761Y-118946190D01*
X147522380Y-119089047D01*
X147522380Y-119184285D01*
X146855714Y-117898571D02*
X147522380Y-117898571D01*
X146474761Y-118136666D02*
X147189047Y-118374761D01*
X147189047Y-117755714D01*
%TO.C,C1*%
X131608333Y-74692142D02*
X131560714Y-74739761D01*
X131417857Y-74787380D01*
X131322619Y-74787380D01*
X131179761Y-74739761D01*
X131084523Y-74644523D01*
X131036904Y-74549285D01*
X130989285Y-74358809D01*
X130989285Y-74215952D01*
X131036904Y-74025476D01*
X131084523Y-73930238D01*
X131179761Y-73835000D01*
X131322619Y-73787380D01*
X131417857Y-73787380D01*
X131560714Y-73835000D01*
X131608333Y-73882619D01*
X132560714Y-74787380D02*
X131989285Y-74787380D01*
X132275000Y-74787380D02*
X132275000Y-73787380D01*
X132179761Y-73930238D01*
X132084523Y-74025476D01*
X131989285Y-74073095D01*
%TO.C,U5*%
X165541904Y-74767619D02*
X165541904Y-73958095D01*
X165494285Y-73862857D01*
X165446666Y-73815238D01*
X165351428Y-73767619D01*
X165160952Y-73767619D01*
X165065714Y-73815238D01*
X165018095Y-73862857D01*
X164970476Y-73958095D01*
X164970476Y-74767619D01*
X164018095Y-74767619D02*
X164494285Y-74767619D01*
X164541904Y-74291428D01*
X164494285Y-74339047D01*
X164399047Y-74386666D01*
X164160952Y-74386666D01*
X164065714Y-74339047D01*
X164018095Y-74291428D01*
X163970476Y-74196190D01*
X163970476Y-73958095D01*
X164018095Y-73862857D01*
X164065714Y-73815238D01*
X164160952Y-73767619D01*
X164399047Y-73767619D01*
X164494285Y-73815238D01*
X164541904Y-73862857D01*
D12*
%TO.C,CON1*%
X193647142Y-105934285D02*
X193694761Y-105981904D01*
X193742380Y-106124761D01*
X193742380Y-106220000D01*
X193694761Y-106362857D01*
X193599523Y-106458095D01*
X193504285Y-106505714D01*
X193313809Y-106553333D01*
X193170952Y-106553333D01*
X192980476Y-106505714D01*
X192885238Y-106458095D01*
X192790000Y-106362857D01*
X192742380Y-106220000D01*
X192742380Y-106124761D01*
X192790000Y-105981904D01*
X192837619Y-105934285D01*
X192742380Y-105315238D02*
X192742380Y-105124761D01*
X192790000Y-105029523D01*
X192885238Y-104934285D01*
X193075714Y-104886666D01*
X193409047Y-104886666D01*
X193599523Y-104934285D01*
X193694761Y-105029523D01*
X193742380Y-105124761D01*
X193742380Y-105315238D01*
X193694761Y-105410476D01*
X193599523Y-105505714D01*
X193409047Y-105553333D01*
X193075714Y-105553333D01*
X192885238Y-105505714D01*
X192790000Y-105410476D01*
X192742380Y-105315238D01*
X193742380Y-104458095D02*
X192742380Y-104458095D01*
X193742380Y-103886666D01*
X192742380Y-103886666D01*
X193742380Y-102886666D02*
X193742380Y-103458095D01*
X193742380Y-103172380D02*
X192742380Y-103172380D01*
X192885238Y-103267619D01*
X192980476Y-103362857D01*
X193028095Y-103458095D01*
D10*
%TO.C,D3*%
X195011904Y-88242380D02*
X195011904Y-87242380D01*
X195250000Y-87242380D01*
X195392857Y-87290000D01*
X195488095Y-87385238D01*
X195535714Y-87480476D01*
X195583333Y-87670952D01*
X195583333Y-87813809D01*
X195535714Y-88004285D01*
X195488095Y-88099523D01*
X195392857Y-88194761D01*
X195250000Y-88242380D01*
X195011904Y-88242380D01*
X195916666Y-87242380D02*
X196535714Y-87242380D01*
X196202380Y-87623333D01*
X196345238Y-87623333D01*
X196440476Y-87670952D01*
X196488095Y-87718571D01*
X196535714Y-87813809D01*
X196535714Y-88051904D01*
X196488095Y-88147142D01*
X196440476Y-88194761D01*
X196345238Y-88242380D01*
X196059523Y-88242380D01*
X195964285Y-88194761D01*
X195916666Y-88147142D01*
D12*
%TO.C,U7*%
X135367557Y-89879004D02*
X135627059Y-89879004D01*
X135657589Y-89863740D01*
X135672853Y-89848475D01*
X135688118Y-89817945D01*
X135688118Y-89756886D01*
X135672853Y-89726356D01*
X135657589Y-89711092D01*
X135627059Y-89695827D01*
X135367557Y-89695827D01*
X135367557Y-89573708D02*
X135367557Y-89360001D01*
X135688118Y-89497384D01*
D10*
%TO.C,R7*%
X119813333Y-68712380D02*
X119480000Y-68236190D01*
X119241904Y-68712380D02*
X119241904Y-67712380D01*
X119622857Y-67712380D01*
X119718095Y-67760000D01*
X119765714Y-67807619D01*
X119813333Y-67902857D01*
X119813333Y-68045714D01*
X119765714Y-68140952D01*
X119718095Y-68188571D01*
X119622857Y-68236190D01*
X119241904Y-68236190D01*
X120146666Y-67712380D02*
X120813333Y-67712380D01*
X120384761Y-68712380D01*
%TO.C,D2*%
X194984404Y-92732380D02*
X194984404Y-91732380D01*
X195222500Y-91732380D01*
X195365357Y-91780000D01*
X195460595Y-91875238D01*
X195508214Y-91970476D01*
X195555833Y-92160952D01*
X195555833Y-92303809D01*
X195508214Y-92494285D01*
X195460595Y-92589523D01*
X195365357Y-92684761D01*
X195222500Y-92732380D01*
X194984404Y-92732380D01*
X195936785Y-91827619D02*
X195984404Y-91780000D01*
X196079642Y-91732380D01*
X196317738Y-91732380D01*
X196412976Y-91780000D01*
X196460595Y-91827619D01*
X196508214Y-91922857D01*
X196508214Y-92018095D01*
X196460595Y-92160952D01*
X195889166Y-92732380D01*
X196508214Y-92732380D01*
D12*
%TO.C,mod2*%
X132860356Y-128842410D02*
X132860356Y-127792542D01*
X132860356Y-127942523D02*
X132935347Y-127867532D01*
X133085328Y-127792542D01*
X133310300Y-127792542D01*
X133460281Y-127867532D01*
X133535272Y-128017514D01*
X133535272Y-128842410D01*
X133535272Y-128017514D02*
X133610262Y-127867532D01*
X133760243Y-127792542D01*
X133985215Y-127792542D01*
X134135197Y-127867532D01*
X134210187Y-128017514D01*
X134210187Y-128842410D01*
X135185065Y-128842410D02*
X135035084Y-128767420D01*
X134960093Y-128692429D01*
X134885103Y-128542448D01*
X134885103Y-128092504D01*
X134960093Y-127942523D01*
X135035084Y-127867532D01*
X135185065Y-127792542D01*
X135410037Y-127792542D01*
X135560018Y-127867532D01*
X135635009Y-127942523D01*
X135710000Y-128092504D01*
X135710000Y-128542448D01*
X135635009Y-128692429D01*
X135560018Y-128767420D01*
X135410037Y-128842410D01*
X135185065Y-128842410D01*
X137059831Y-128842410D02*
X137059831Y-127267607D01*
X137059831Y-128767420D02*
X136909849Y-128842410D01*
X136609887Y-128842410D01*
X136459906Y-128767420D01*
X136384915Y-128692429D01*
X136309924Y-128542448D01*
X136309924Y-128092504D01*
X136384915Y-127942523D01*
X136459906Y-127867532D01*
X136609887Y-127792542D01*
X136909849Y-127792542D01*
X137059831Y-127867532D01*
X137734746Y-127417589D02*
X137809737Y-127342598D01*
X137959718Y-127267607D01*
X138334671Y-127267607D01*
X138484652Y-127342598D01*
X138559643Y-127417589D01*
X138634634Y-127567570D01*
X138634634Y-127717551D01*
X138559643Y-127942523D01*
X137659756Y-128842410D01*
X138634634Y-128842410D01*
D14*
%TO.C,C12*%
X104285000Y-92945000D02*
X101745000Y-92945000D01*
X101745000Y-92945000D02*
X101745000Y-91675000D01*
X104285000Y-91675000D02*
X104285000Y-92310000D01*
X104285000Y-92310000D02*
X104285000Y-92945000D01*
X101745000Y-91675000D02*
X104285000Y-91675000D01*
D15*
%TO.C,Z1*%
X130880000Y-135410000D02*
G75*
G03*
X130880000Y-135410000I-50000J0D01*
G01*
D14*
%TO.C,C10*%
X131610000Y-145010000D02*
X130340000Y-145010000D01*
X130340000Y-145010000D02*
X130340000Y-142470000D01*
X130340000Y-142470000D02*
X130975000Y-142470000D01*
X131610000Y-142470000D02*
X131610000Y-145010000D01*
X130975000Y-142470000D02*
X131610000Y-142470000D01*
D16*
%TO.C,U1*%
X122625000Y-78950000D02*
X122625000Y-82850000D01*
D14*
X117400000Y-84620000D02*
X117410000Y-77200000D01*
X122790000Y-84610000D02*
X117400000Y-84620000D01*
D16*
X117575000Y-78950000D02*
X117575000Y-82850000D01*
D14*
X117410000Y-77200000D02*
X122800000Y-77190000D01*
X122800000Y-77190000D02*
X122790000Y-84610000D01*
D17*
X122505000Y-76860000D02*
G75*
G03*
X122505000Y-76860000I-100000J0D01*
G01*
D14*
%TO.C,J2*%
X169385000Y-64905000D02*
X169385000Y-66175000D01*
X161765000Y-67445000D02*
X161765000Y-64905000D01*
X169385000Y-66175000D02*
X169385000Y-67445000D01*
X169385000Y-67445000D02*
X161765000Y-67445000D01*
X161765000Y-64905000D02*
X169385000Y-64905000D01*
%TO.C,R1*%
X189645000Y-96085000D02*
X189645000Y-95450000D01*
X192185000Y-94815000D02*
X192185000Y-96085000D01*
X189645000Y-95450000D02*
X189645000Y-94815000D01*
X189645000Y-94815000D02*
X192185000Y-94815000D01*
X192185000Y-96085000D02*
X189645000Y-96085000D01*
%TO.C,R10*%
X161615000Y-82955000D02*
X161615000Y-80415000D01*
X161615000Y-80415000D02*
X162885000Y-80415000D01*
X162885000Y-82955000D02*
X162250000Y-82955000D01*
X162250000Y-82955000D02*
X161615000Y-82955000D01*
X162885000Y-80415000D02*
X162885000Y-82955000D01*
%TO.C,Q1*%
X180974820Y-75595000D02*
X180974820Y-74960000D01*
X179704820Y-76865000D02*
X180974820Y-76865000D01*
X180974820Y-77500000D02*
X180974820Y-78135000D01*
X180974820Y-74325000D02*
X180974820Y-74960000D01*
X183514820Y-74325000D02*
X180974820Y-74325000D01*
X183514820Y-78135000D02*
X183514820Y-74325000D01*
X180974820Y-78135000D02*
X183514820Y-78135000D01*
X179704820Y-76865000D02*
X179704820Y-75595000D01*
X180974820Y-76865000D02*
X180974820Y-77500000D01*
X179704820Y-75595000D02*
X180974820Y-75595000D01*
%TO.C,R4*%
X155135000Y-136910000D02*
X155135000Y-137545000D01*
X155135000Y-136275000D02*
X155135000Y-136910000D01*
X155135000Y-137545000D02*
X152595000Y-137545000D01*
X152595000Y-136275000D02*
X155135000Y-136275000D01*
X152595000Y-137545000D02*
X152595000Y-136275000D01*
%TO.C,BT2*%
X143340000Y-145520000D02*
X146340000Y-145520000D01*
X146340000Y-145520000D02*
X149840000Y-145520000D01*
X146840000Y-143020000D02*
X146840000Y-145020000D01*
X149840000Y-145520000D02*
X152340000Y-145520000D01*
X152340000Y-145520000D02*
X152340000Y-146020000D01*
X146840000Y-144020000D02*
X146840000Y-143020000D01*
X147840000Y-144020000D02*
X145840000Y-144020000D01*
X152340000Y-155020000D02*
X143340000Y-155020000D01*
X152340000Y-146020000D02*
X152340000Y-155020000D01*
X143340000Y-155020000D02*
X143340000Y-145520000D01*
D15*
%TO.C,BT3*%
X114085000Y-120640000D02*
X114085000Y-103640000D01*
X104050000Y-120640000D02*
X99015000Y-120640000D01*
X109050000Y-120640000D02*
X114085000Y-120640000D01*
X114085000Y-103640000D02*
X109050000Y-103640000D01*
X99015000Y-103640000D02*
X104050000Y-103640000D01*
X99015000Y-120640000D02*
X99015000Y-103640000D01*
D14*
%TO.C,C11*%
X104285000Y-94065000D02*
X104285000Y-94700000D01*
X104285000Y-95335000D02*
X101745000Y-95335000D01*
X101745000Y-94065000D02*
X104285000Y-94065000D01*
X101745000Y-95335000D02*
X101745000Y-94065000D01*
X104285000Y-94700000D02*
X104285000Y-95335000D01*
D16*
%TO.C,mod1*%
X159380000Y-154845000D02*
X195380000Y-154845000D01*
X159380000Y-113845000D02*
X159380000Y-111845000D01*
X195380000Y-154845000D02*
X195380000Y-153845000D01*
X194380000Y-111845000D02*
X195380000Y-111845000D01*
X195380000Y-111845000D02*
X195380000Y-113845000D01*
X159380000Y-153845000D02*
X159380000Y-154845000D01*
X159380000Y-111845000D02*
X160380000Y-111845000D01*
D14*
%TO.C,U2*%
X127354000Y-63230000D02*
X139546000Y-63230000D01*
X127354000Y-70850000D02*
X129600000Y-73375000D01*
X139546000Y-73390000D02*
X127354000Y-73390000D01*
X127354000Y-70850000D02*
X127354000Y-63230000D01*
X139546000Y-63230000D02*
X139546000Y-73390000D01*
X127354000Y-73390000D02*
X127354000Y-70850000D01*
%TO.C,R9*%
X185154640Y-77199960D02*
X185154640Y-76564960D01*
X185154640Y-77834960D02*
X185154640Y-77199960D01*
X187694640Y-76564960D02*
X187694640Y-77834960D01*
X187694640Y-77834960D02*
X185154640Y-77834960D01*
X185154640Y-76564960D02*
X187694640Y-76564960D01*
%TO.C,C3*%
X136705000Y-79055000D02*
X134165000Y-79055000D01*
X134165000Y-77785000D02*
X136705000Y-77785000D01*
X136705000Y-77785000D02*
X136705000Y-78420000D01*
X134165000Y-79055000D02*
X134165000Y-77785000D01*
X136705000Y-78420000D02*
X136705000Y-79055000D01*
%TO.C,J5*%
X156630000Y-89510000D02*
X171870000Y-89510000D01*
X171870000Y-94590000D02*
X156630000Y-94590000D01*
X156630000Y-92050000D02*
X156630000Y-89510000D01*
X156630000Y-94590000D02*
X156630000Y-92050000D01*
X171870000Y-89510000D02*
X171870000Y-94590000D01*
%TO.C,C4*%
X136730000Y-74900000D02*
X136730000Y-75535000D01*
X134190000Y-76170000D02*
X134190000Y-74900000D01*
X136730000Y-75535000D02*
X136730000Y-76170000D01*
X136730000Y-76170000D02*
X134190000Y-76170000D01*
X134190000Y-74900000D02*
X136730000Y-74900000D01*
%TO.C,C7*%
X125875000Y-118040000D02*
X123335000Y-118040000D01*
X123335000Y-118040000D02*
X123335000Y-116770000D01*
X125875000Y-117405000D02*
X125875000Y-118040000D01*
X125875000Y-116770000D02*
X125875000Y-117405000D01*
X123335000Y-116770000D02*
X125875000Y-116770000D01*
%TO.C,D4*%
X147007500Y-137595000D02*
X149492500Y-137595000D01*
X147007500Y-136225000D02*
X147007500Y-137595000D01*
X149492500Y-136225000D02*
X147007500Y-136225000D01*
%TO.C,C2*%
X129785000Y-79025000D02*
X129785000Y-78390000D01*
X129785000Y-77755000D02*
X132325000Y-77755000D01*
X132325000Y-79025000D02*
X129785000Y-79025000D01*
X129785000Y-78390000D02*
X129785000Y-77755000D01*
X132325000Y-77755000D02*
X132325000Y-79025000D01*
%TO.C,R2*%
X189655000Y-91040000D02*
X189655000Y-90405000D01*
X189655000Y-90405000D02*
X192195000Y-90405000D01*
X192195000Y-90405000D02*
X192195000Y-91675000D01*
X192195000Y-91675000D02*
X189655000Y-91675000D01*
X189655000Y-91675000D02*
X189655000Y-91040000D01*
%TO.C,C8*%
X125755000Y-120270000D02*
X125755000Y-120905000D01*
X123215000Y-120905000D02*
X123215000Y-119635000D01*
X125755000Y-120905000D02*
X123215000Y-120905000D01*
X123215000Y-119635000D02*
X125755000Y-119635000D01*
X125755000Y-119635000D02*
X125755000Y-120270000D01*
%TO.C,R12*%
X118725000Y-86185000D02*
X118725000Y-87455000D01*
X118725000Y-87455000D02*
X116185000Y-87455000D01*
X116185000Y-87455000D02*
X116185000Y-86820000D01*
X116185000Y-86185000D02*
X118725000Y-86185000D01*
X116185000Y-86820000D02*
X116185000Y-86185000D01*
%TO.C,J1*%
X108115000Y-77155000D02*
X106845000Y-77155000D01*
X109385000Y-69535000D02*
X109385000Y-77155000D01*
X109385000Y-77155000D02*
X108115000Y-77155000D01*
X106845000Y-77155000D02*
X106845000Y-69535000D01*
X106845000Y-69535000D02*
X109385000Y-69535000D01*
%TO.C,L1*%
X130220000Y-138090000D02*
X130855000Y-138090000D01*
X131490000Y-140630000D02*
X130220000Y-140630000D01*
X131490000Y-138090000D02*
X131490000Y-140630000D01*
X130220000Y-140630000D02*
X130220000Y-138090000D01*
X130855000Y-138090000D02*
X131490000Y-138090000D01*
%TO.C,J3*%
X195190000Y-82890000D02*
X192650000Y-82890000D01*
X192650000Y-82890000D02*
X192650000Y-67650000D01*
X197730000Y-82890000D02*
X195190000Y-82890000D01*
X192650000Y-67650000D02*
X197730000Y-67650000D01*
X197730000Y-67650000D02*
X197730000Y-82890000D01*
%TO.C,PZ1*%
X176120000Y-72610000D02*
X176120000Y-59610000D01*
X176120000Y-57610000D02*
X189620000Y-57610000D01*
X189620000Y-57610000D02*
X189620000Y-72610000D01*
X176120000Y-59610000D02*
X176120000Y-57610000D01*
X189620000Y-72610000D02*
X176120000Y-72610000D01*
%TO.C,R3*%
X189625000Y-87105000D02*
X189625000Y-86470000D01*
X192165000Y-85835000D02*
X192165000Y-87105000D01*
X189625000Y-85835000D02*
X192165000Y-85835000D01*
X192165000Y-87105000D02*
X189625000Y-87105000D01*
X189625000Y-86470000D02*
X189625000Y-85835000D01*
%TO.C,C9*%
X131775000Y-130925000D02*
X131775000Y-132195000D01*
X129235000Y-131560000D02*
X129235000Y-130925000D01*
X129235000Y-132195000D02*
X129235000Y-131560000D01*
X131775000Y-132195000D02*
X129235000Y-132195000D01*
X129235000Y-130925000D02*
X131775000Y-130925000D01*
D15*
%TO.C,BT1*%
X103950000Y-148730000D02*
X98915000Y-148730000D01*
X98915000Y-131730000D02*
X103950000Y-131730000D01*
X98915000Y-148730000D02*
X98915000Y-131730000D01*
X108950000Y-148730000D02*
X113985000Y-148730000D01*
X113985000Y-131730000D02*
X108950000Y-131730000D01*
X113985000Y-148730000D02*
X113985000Y-131730000D01*
D14*
%TO.C,D1*%
X195010000Y-96095000D02*
X197495000Y-96095000D01*
X197495000Y-94725000D02*
X195010000Y-94725000D01*
X197495000Y-96095000D02*
X197495000Y-94725000D01*
%TO.C,AE1*%
X127130000Y-155200000D02*
X127130000Y-146700000D01*
X135130000Y-146700000D02*
X135130000Y-155200000D01*
X127130000Y-146700000D02*
X135130000Y-146700000D01*
X135130000Y-155200000D02*
X127630000Y-155200000D01*
X127630000Y-155200000D02*
X127130000Y-155200000D01*
%TO.C,R11*%
X122695000Y-86205000D02*
X122695000Y-86840000D01*
X122695000Y-87475000D02*
X120155000Y-87475000D01*
X120155000Y-87475000D02*
X120155000Y-86205000D01*
X122695000Y-86840000D02*
X122695000Y-87475000D01*
X120155000Y-86205000D02*
X122695000Y-86205000D01*
%TO.C,U6*%
X105025000Y-94640000D02*
X105025000Y-91465000D01*
X105025000Y-91465000D02*
X108835000Y-91465000D01*
X108835000Y-94640000D02*
X105025000Y-94640000D01*
X108835000Y-91465000D02*
X108835000Y-94640000D01*
X108835000Y-94640000D02*
X108200000Y-94640000D01*
X107520000Y-93945000D02*
G75*
G03*
X107520000Y-93945000I-100000J0D01*
G01*
%TO.C,J7*%
X115420000Y-90480000D02*
X123040000Y-90480000D01*
X123040000Y-93020000D02*
X123040000Y-95560000D01*
X115420000Y-93020000D02*
X115420000Y-90480000D01*
X123040000Y-90480000D02*
X123040000Y-93020000D01*
X115420000Y-95560000D02*
X115420000Y-93020000D01*
X123040000Y-95560000D02*
X115420000Y-95560000D01*
%TO.C,U4*%
X130050000Y-136340000D02*
X131610000Y-136350000D01*
X130060000Y-137480000D02*
X130050000Y-136340000D01*
X131610000Y-137480000D02*
X130060000Y-137480000D01*
X131610000Y-136350000D02*
X131610000Y-137480000D01*
D18*
X131300139Y-136100000D02*
G75*
G03*
X131300139Y-136100000I-50139J0D01*
G01*
D14*
%TO.C,R8*%
X136500000Y-138510000D02*
X133960000Y-138510000D01*
X133960000Y-137240000D02*
X136500000Y-137240000D01*
X133960000Y-138510000D02*
X133960000Y-137875000D01*
X136500000Y-137240000D02*
X136500000Y-138510000D01*
X133960000Y-137875000D02*
X133960000Y-137240000D01*
%TO.C,J6*%
X146110000Y-79460000D02*
X146110000Y-82000000D01*
X138490000Y-84540000D02*
X138490000Y-82000000D01*
X138490000Y-82000000D02*
X138490000Y-79460000D01*
X138490000Y-79460000D02*
X146110000Y-79460000D01*
X146110000Y-84540000D02*
X138490000Y-84540000D01*
X146110000Y-82000000D02*
X146110000Y-84540000D01*
%TO.C,J4*%
X142820000Y-105680000D02*
X147900000Y-105680000D01*
X142820000Y-120920000D02*
X142820000Y-105680000D01*
X147900000Y-105680000D02*
X147900000Y-120920000D01*
X145360000Y-120920000D02*
X142820000Y-120920000D01*
X147900000Y-120920000D02*
X145360000Y-120920000D01*
%TO.C,C1*%
X129870000Y-75605000D02*
X129870000Y-74970000D01*
X132410000Y-76240000D02*
X129870000Y-76240000D01*
X129870000Y-74970000D02*
X132410000Y-74970000D01*
X129870000Y-76240000D02*
X129870000Y-75605000D01*
X132410000Y-74970000D02*
X132410000Y-76240000D01*
%TO.C,U5*%
X161320000Y-79220000D02*
X160780000Y-78720000D01*
X168780000Y-70220000D02*
X168780000Y-79220000D01*
X168780000Y-79220000D02*
X161320000Y-79220000D01*
X160780000Y-78720000D02*
X160780000Y-70220000D01*
X160780000Y-70220000D02*
X168780000Y-70220000D01*
%TO.C,CON1*%
X189660000Y-101225000D02*
X197660000Y-101225000D01*
X189660000Y-108225000D02*
X189660000Y-101225000D01*
D17*
X195055000Y-101540000D02*
X195055000Y-101540000D01*
X195055000Y-108060000D02*
X191625000Y-108060000D01*
X191625000Y-101540000D02*
X191625000Y-101540000D01*
X191625000Y-108060000D02*
X191625000Y-108060000D01*
X195055000Y-108060000D02*
X195055000Y-108060000D01*
D14*
X197660000Y-101225000D02*
X197660000Y-108225000D01*
D17*
X191625000Y-101540000D02*
X195055000Y-101540000D01*
D14*
X197660000Y-108225000D02*
X189660000Y-108225000D01*
D17*
X195475000Y-108625000D02*
G75*
G03*
X195475000Y-108625000I-100000J0D01*
G01*
D14*
%TO.C,D3*%
X194950000Y-87205000D02*
X197435000Y-87205000D01*
X197435000Y-85835000D02*
X194950000Y-85835000D01*
X197435000Y-87205000D02*
X197435000Y-85835000D01*
D19*
%TO.C,U7*%
X138993200Y-90700000D02*
X139150000Y-90700000D01*
X136150000Y-87700000D02*
X136150000Y-88356800D01*
X136306800Y-90700000D02*
X136150000Y-90700000D01*
X138993200Y-87700000D02*
X139150000Y-87700000D01*
X139150000Y-90700000D02*
X139150000Y-90043200D01*
X136306800Y-87700000D02*
X136150000Y-87700000D01*
X139150000Y-87700000D02*
X139150000Y-88356800D01*
X136150000Y-90700000D02*
X136150000Y-90043200D01*
D16*
X136099000Y-90978000D02*
G75*
G03*
X136099000Y-90978000I-100000J0D01*
G01*
D14*
%TO.C,R7*%
X117802936Y-72590000D02*
X122157064Y-72590000D01*
X117802936Y-69170000D02*
X122157064Y-69170000D01*
%TO.C,D2*%
X197407500Y-90325000D02*
X194922500Y-90325000D01*
X194922500Y-91695000D02*
X197407500Y-91695000D01*
X197407500Y-91695000D02*
X197407500Y-90325000D01*
%TO.C,mod2*%
X127000000Y-127210000D02*
X137080000Y-127210000D01*
X137080000Y-127210000D02*
X137080000Y-126710000D01*
X126740000Y-121920000D02*
X126740000Y-126710000D01*
X137340000Y-126710000D02*
X137340000Y-116500000D01*
X126740000Y-126710000D02*
X127000000Y-126710000D01*
X126740000Y-116510000D02*
X126740000Y-121920000D01*
X137340000Y-116500000D02*
X137100000Y-116500000D01*
X126990000Y-116000000D02*
X126990000Y-116510000D01*
X137100000Y-116020000D02*
X126990000Y-116000000D01*
X137080000Y-126710000D02*
X137340000Y-126710000D01*
X126990000Y-116510000D02*
X126740000Y-116510000D01*
X137100000Y-116500000D02*
X137100000Y-116020000D01*
X127000000Y-126710000D02*
X127000000Y-127210000D01*
D20*
X136501404Y-118400000D02*
G75*
G03*
X136501404Y-118400000I-121404J0D01*
G01*
X136611404Y-115210000D02*
G75*
G03*
X136611404Y-115210000I-121404J0D01*
G01*
%TD*%
M02*
