M48
; DRILL file {KiCad (5.99.0-10506-gb986797469)} date Thu May 20 15:57:30 2021
; FORMAT={-:-/ absolute / inch / decimal}
; #@! TF.CreationDate,2021-05-20T15:57:30+01:00
; #@! TF.GenerationSoftware,Kicad,Pcbnew,(5.99.0-10506-gb986797469)
; #@! TF.FileFunction,NonPlated,1,2,NPTH
FMAT,2
INCH
; #@! TA.AperFunction,NonPlated,NPTH,ComponentDrill
T1C0.0390
; #@! TA.AperFunction,NonPlated,NPTH,ComponentDrill
T2C0.0935
%
G90
G05
T1
X4.412Y-4.8138
X4.5793Y-6.886
X4.5793Y-6.966
X4.712Y-4.7738
X4.712Y-4.8538
X4.8793Y-6.926
X6.0986Y-4.7587
X6.3986Y-4.7187
X6.3986Y-4.7987
T2
X4.412Y-4.7138
X4.412Y-4.9138
X4.637Y-4.7138
X4.637Y-4.9138
X4.6543Y-6.826
X4.6543Y-7.026
X4.8793Y-6.826
X4.8793Y-7.026
X6.0986Y-4.6587
X6.0986Y-4.8587
X6.3236Y-4.6587
X6.3236Y-4.8587
T0
M30
