M48
; DRILL file {KiCad (5.99.0-10506-gb986797469)} date Wed May 19 12:07:36 2021
; FORMAT={-:-/ absolute / inch / decimal}
; #@! TF.CreationDate,2021-05-19T12:07:36+01:00
; #@! TF.GenerationSoftware,Kicad,Pcbnew,(5.99.0-10506-gb986797469)
; #@! TF.FileFunction,Plated,1,2,PTH
FMAT,2
INCH
; #@! TA.AperFunction,Plated,PTH,ViaDrill
T1C0.0098
; #@! TA.AperFunction,Plated,PTH,ComponentDrill
T2C0.0098
; #@! TA.AperFunction,Plated,PTH,ComponentDrill
T3C0.0157
; #@! TA.AperFunction,Plated,PTH,ComponentDrill
T4C0.0402
; #@! TA.AperFunction,Plated,PTH,ComponentDrill
T5C0.0531
; #@! TA.AperFunction,Plated,PTH,ComponentDrill
T6C0.0551
; #@! TA.AperFunction,Plated,PTH,ComponentDrill
T7C0.0866
%
G90
G05
T1
X2.7906Y-3.5476
X2.83Y-2.83
X3.0098Y-2.315
X3.0598Y-4.2083
X3.3079Y-2.1161
X3.3098Y-2.1701
X3.3343Y-4.0752
X3.36Y-2.76
X3.3646Y-2.5768
X3.422Y-2.2047
X3.4693Y-4.2709
X3.5543Y-4.0563
X3.5752Y-3.5315
X3.6205Y-3.5795
X3.628Y-2.713
X3.6382Y-3.2181
X3.7335Y-3.2457
X3.7677Y-4.2
X3.8118Y-2.9201
X3.9269Y-3.5549
X4.013Y-4.6874
X4.0756Y-4.8752
X4.0969Y-3.276
X4.1043Y-4.4685
X4.1685Y-4.6571
X4.1882Y-3.6634
X4.2071Y-2.7803
X4.2386Y-2.5343
X4.2425Y-4.3248
X4.2854Y-4.7862
X4.3339Y-4.8437
X4.3339Y-4.8437
X4.335Y-2.7799
X4.339Y-4.7921
X4.3417Y-4.9732
X4.3638Y-2.6287
X4.4264Y-4.7413
X4.4472Y-2.5772
X4.4705Y-2.7425
X4.5106Y-2.7126
X4.5213Y-4.8083
X4.5386Y-3.8894
X4.5598Y-2.8476
X4.56Y-3.67
X4.5923Y-4.6553
X4.5972Y-3.8252
X4.62Y-4.08
X4.6205Y-3.9524
X4.6841Y-3.4443
X4.7083Y-3.2551
X4.7094Y-4.8445
X4.7248Y-4.813
X4.7276Y-3.1346
X4.7287Y-4.3854
X4.7846Y-2.1402
X4.785Y-4.8437
X4.7854Y-2.5272
X4.8209Y-3.9209
X4.8209Y-4.965
X4.8217Y-4.0291
X4.8264Y-3.8157
X4.85Y-3.5571
X4.8909Y-4.0673
X4.8925Y-3.5323
X4.8925Y-4.5177
X4.92Y-3.84
X4.9303Y-4.7331
X4.9366Y-4.6752
X4.9402Y-2.9378
X4.9583Y-3.4295
X4.9642Y-3.202
X5.0333Y-3.4624
X5.0579Y-3.724
X5.0622Y-3.5701
X5.0669Y-3.4705
X5.0744Y-3.0429
X5.0929Y-3.4472
X5.1177Y-3.3803
X5.1307Y-4.9717
X5.1575Y-4.352
X5.1736Y-3.1335
X5.18Y-4.2
X5.1929Y-2.9823
X5.276Y-4.2004
X5.29Y-2.84
X5.3311Y-4.3902
X5.34Y-4.26
X5.3839Y-4.7197
X5.4008Y-1.7295
X5.46Y-4.75
X5.6Y-4.75
X5.6409Y-4.9165
X5.7657Y-4.7516
X5.8724Y-4.7823
X5.9634Y-4.4217
X6.04Y-5.08
X6.15Y-4.8
X6.2083Y-2.0024
X6.28Y-4.57
X6.31Y-4.83
T2
X4.3673Y-3.3043
X4.3673Y-3.3476
T3
X2.4831Y-1.5917
X2.4839Y-5.3276
X2.5021Y-1.5458
X2.5021Y-1.6377
X2.5029Y-5.2816
X2.5029Y-5.3735
X2.548Y-1.5268
X2.548Y-1.6567
X2.5488Y-5.2626
X2.5488Y-5.3925
X2.594Y-1.5458
X2.594Y-1.6377
X2.5948Y-5.2816
X2.5948Y-5.3735
X2.613Y-1.5917
X2.6138Y-5.3276
X6.2209Y-5.3193
X6.2232Y-1.5906
X6.2399Y-5.2734
X6.2399Y-5.3652
X6.2423Y-1.5446
X6.2423Y-1.6365
X6.2858Y-5.2543
X6.2858Y-5.3843
X6.2882Y-1.5256
X6.2882Y-1.6555
X6.3318Y-5.2734
X6.3318Y-5.3652
X6.3341Y-1.5446
X6.3341Y-1.6365
X6.3508Y-5.3193
X6.3531Y-1.5906
T4
X3.8524Y-2.1783
X3.9524Y-2.1783
X4.0524Y-2.1783
T5
X3.2874Y-5.1461
X3.2874Y-5.3461
X3.3874Y-5.2461
X3.4874Y-5.1461
X3.4874Y-5.3461
X5.2776Y-5.1437
X5.2776Y-5.3437
X5.3776Y-5.2437
X5.4776Y-5.1437
X5.4776Y-5.3437
T6
X2.8368Y-2.0301
X2.8368Y-2.227
X4.6791Y-1.8906
X4.876Y-1.8906
T7
X2.548Y-1.5917
X2.5488Y-5.3276
X6.2858Y-5.3193
X6.2882Y-1.5906
T0
M30
