%TF.GenerationSoftware,KiCad,Pcbnew,(5.99.0-10506-gb986797469)*%
%TF.CreationDate,2021-05-19T12:07:34+01:00*%
%TF.ProjectId,LoRa tracker,4c6f5261-2074-4726-9163-6b65722e6b69,rev?*%
%TF.SameCoordinates,Original*%
%TF.FileFunction,Paste,Top*%
%TF.FilePolarity,Positive*%
%FSLAX46Y46*%
G04 Gerber Fmt 4.6, Leading zero omitted, Abs format (unit mm)*
G04 Created by KiCad (PCBNEW (5.99.0-10506-gb986797469)) date 2021-05-19 12:07:34*
%MOMM*%
%LPD*%
G01*
G04 APERTURE LIST*
G04 Aperture macros list*
%AMRoundRect*
0 Rectangle with rounded corners*
0 $1 Rounding radius*
0 $2 $3 $4 $5 $6 $7 $8 $9 X,Y pos of 4 corners*
0 Add a 4 corners polygon primitive as box body*
4,1,4,$2,$3,$4,$5,$6,$7,$8,$9,$2,$3,0*
0 Add four circle primitives for the rounded corners*
1,1,$1+$1,$2,$3*
1,1,$1+$1,$4,$5*
1,1,$1+$1,$6,$7*
1,1,$1+$1,$8,$9*
0 Add four rect primitives between the rounded corners*
20,1,$1+$1,$2,$3,$4,$5,0*
20,1,$1+$1,$4,$5,$6,$7,0*
20,1,$1+$1,$6,$7,$8,$9,0*
20,1,$1+$1,$8,$9,$2,$3,0*%
%AMOutline5P*
0 Free polygon, 5 corners , with rotation*
0 The origin of the aperture is its center*
0 number of corners: always 8*
0 $1 to $10 corner X, Y*
0 $11 Rotation angle, in degrees counterclockwise*
0 create outline with 8 corners*
4,1,5,$1,$2,$3,$4,$5,$6,$7,$8,$9,$10,$1,$2,$11*%
%AMOutline6P*
0 Free polygon, 6 corners , with rotation*
0 The origin of the aperture is its center*
0 number of corners: always 6*
0 $1 to $12 corner X, Y*
0 $13 Rotation angle, in degrees counterclockwise*
0 create outline with 6 corners*
4,1,6,$1,$2,$3,$4,$5,$6,$7,$8,$9,$10,$11,$12,$1,$2,$13*%
%AMOutline7P*
0 Free polygon, 7 corners , with rotation*
0 The origin of the aperture is its center*
0 number of corners: always 7*
0 $1 to $14 corner X, Y*
0 $15 Rotation angle, in degrees counterclockwise*
0 create outline with 7 corners*
4,1,7,$1,$2,$3,$4,$5,$6,$7,$8,$9,$10,$11,$12,$13,$14,$1,$2,$15*%
%AMOutline8P*
0 Free polygon, 8 corners , with rotation*
0 The origin of the aperture is its center*
0 number of corners: always 8*
0 $1 to $16 corner X, Y*
0 $17 Rotation angle, in degrees counterclockwise*
0 create outline with 8 corners*
4,1,8,$1,$2,$3,$4,$5,$6,$7,$8,$9,$10,$11,$12,$13,$14,$15,$16,$1,$2,$17*%
G04 Aperture macros list end*
%ADD10C,0.010000*%
%ADD11RoundRect,0.250000X0.300000X-0.250000X0.300000X0.250000X-0.300000X0.250000X-0.300000X-0.250000X0*%
%ADD12R,0.220000X0.810000*%
%ADD13R,0.810000X0.220000*%
%ADD14R,0.800000X0.300000*%
%ADD15R,0.300000X0.800000*%
%ADD16RoundRect,0.250000X-0.300000X0.250000X-0.300000X-0.250000X0.300000X-0.250000X0.300000X0.250000X0*%
%ADD17Outline5P,0.400000X0.700000X0.400000X-0.700000X-0.400000X-0.700000X-0.400000X0.540000X-0.240000X0.700000X0.000000*%
%ADD18R,0.800000X1.400000*%
%ADD19R,3.180000X3.180000*%
%ADD20R,3.960000X3.960000*%
%ADD21RoundRect,0.250000X0.250000X0.300000X-0.250000X0.300000X-0.250000X-0.300000X0.250000X-0.300000X0*%
%ADD22RoundRect,0.250000X-0.250000X-0.300000X0.250000X-0.300000X0.250000X0.300000X-0.250000X0.300000X0*%
%ADD23RoundRect,0.137500X0.262500X-0.137500X0.262500X0.137500X-0.262500X0.137500X-0.262500X-0.137500X0*%
%ADD24R,0.800000X0.550000*%
%ADD25R,1.399540X0.998220*%
%ADD26R,0.600000X1.970000*%
%ADD27RoundRect,0.249999X-0.450001X-1.425001X0.450001X-1.425001X0.450001X1.425001X-0.450001X1.425001X0*%
%ADD28R,4.220000X2.310000*%
%ADD29R,0.500000X0.800000*%
%ADD30R,0.800000X0.500000*%
%ADD31R,1.000000X1.000000*%
%ADD32R,1.600000X1.600000*%
%ADD33R,0.900000X1.600000*%
%ADD34R,0.900000X0.500000*%
%ADD35R,0.710000X0.220000*%
%ADD36R,0.220000X0.710000*%
%ADD37RoundRect,0.150000X0.625000X-0.150000X0.625000X0.150000X-0.625000X0.150000X-0.625000X-0.150000X0*%
%ADD38R,1.550000X0.600000*%
G04 APERTURE END LIST*
D10*
%TO.C,U6*%
X118605000Y-118575000D02*
X118605000Y-120205000D01*
X118605000Y-120205000D02*
X116975000Y-120205000D01*
X116975000Y-120205000D02*
X116975000Y-118575000D01*
X116975000Y-118575000D02*
X118605000Y-118575000D01*
G36*
X118605000Y-120205000D02*
G01*
X116975000Y-120205000D01*
X116975000Y-118575000D01*
X118605000Y-118575000D01*
X118605000Y-120205000D01*
G37*
X118605000Y-120205000D02*
X116975000Y-120205000D01*
X116975000Y-118575000D01*
X118605000Y-118575000D01*
X118605000Y-120205000D01*
X116305000Y-116275000D02*
X116305000Y-117905000D01*
X116305000Y-117905000D02*
X114675000Y-117905000D01*
X114675000Y-117905000D02*
X114675000Y-116275000D01*
X114675000Y-116275000D02*
X116305000Y-116275000D01*
G36*
X116305000Y-117905000D02*
G01*
X114675000Y-117905000D01*
X114675000Y-116275000D01*
X116305000Y-116275000D01*
X116305000Y-117905000D01*
G37*
X116305000Y-117905000D02*
X114675000Y-117905000D01*
X114675000Y-116275000D01*
X116305000Y-116275000D01*
X116305000Y-117905000D01*
X118605000Y-116275000D02*
X118605000Y-117905000D01*
X118605000Y-117905000D02*
X116975000Y-117905000D01*
X116975000Y-117905000D02*
X116975000Y-116275000D01*
X116975000Y-116275000D02*
X118605000Y-116275000D01*
G36*
X118605000Y-117905000D02*
G01*
X116975000Y-117905000D01*
X116975000Y-116275000D01*
X118605000Y-116275000D01*
X118605000Y-117905000D01*
G37*
X118605000Y-117905000D02*
X116975000Y-117905000D01*
X116975000Y-116275000D01*
X118605000Y-116275000D01*
X118605000Y-117905000D01*
X116305000Y-118575000D02*
X116305000Y-120205000D01*
X116305000Y-120205000D02*
X114675000Y-120205000D01*
X114675000Y-120205000D02*
X114675000Y-118575000D01*
X114675000Y-118575000D02*
X116305000Y-118575000D01*
G36*
X116305000Y-120205000D02*
G01*
X114675000Y-120205000D01*
X114675000Y-118575000D01*
X116305000Y-118575000D01*
X116305000Y-120205000D01*
G37*
X116305000Y-120205000D02*
X114675000Y-120205000D01*
X114675000Y-118575000D01*
X116305000Y-118575000D01*
X116305000Y-120205000D01*
%TO.C,U8*%
G36*
X142745000Y-109885000D02*
G01*
X142745000Y-110985000D01*
X141145000Y-110985000D01*
X141145000Y-109385000D01*
X142245000Y-109385000D01*
X142745000Y-109885000D01*
G37*
%TO.C,U7*%
X116975000Y-87185000D02*
X116975000Y-85555000D01*
X116975000Y-85555000D02*
X118605000Y-85555000D01*
X118605000Y-85555000D02*
X118605000Y-87185000D01*
X118605000Y-87185000D02*
X116975000Y-87185000D01*
G36*
X118605000Y-87185000D02*
G01*
X116975000Y-87185000D01*
X116975000Y-85555000D01*
X118605000Y-85555000D01*
X118605000Y-87185000D01*
G37*
X118605000Y-87185000D02*
X116975000Y-87185000D01*
X116975000Y-85555000D01*
X118605000Y-85555000D01*
X118605000Y-87185000D01*
X119275000Y-89485000D02*
X119275000Y-87855000D01*
X119275000Y-87855000D02*
X120905000Y-87855000D01*
X120905000Y-87855000D02*
X120905000Y-89485000D01*
X120905000Y-89485000D02*
X119275000Y-89485000D01*
G36*
X120905000Y-89485000D02*
G01*
X119275000Y-89485000D01*
X119275000Y-87855000D01*
X120905000Y-87855000D01*
X120905000Y-89485000D01*
G37*
X120905000Y-89485000D02*
X119275000Y-89485000D01*
X119275000Y-87855000D01*
X120905000Y-87855000D01*
X120905000Y-89485000D01*
X119275000Y-87185000D02*
X119275000Y-85555000D01*
X119275000Y-85555000D02*
X120905000Y-85555000D01*
X120905000Y-85555000D02*
X120905000Y-87185000D01*
X120905000Y-87185000D02*
X119275000Y-87185000D01*
G36*
X120905000Y-87185000D02*
G01*
X119275000Y-87185000D01*
X119275000Y-85555000D01*
X120905000Y-85555000D01*
X120905000Y-87185000D01*
G37*
X120905000Y-87185000D02*
X119275000Y-87185000D01*
X119275000Y-85555000D01*
X120905000Y-85555000D01*
X120905000Y-87185000D01*
X116975000Y-89485000D02*
X116975000Y-87855000D01*
X116975000Y-87855000D02*
X118605000Y-87855000D01*
X118605000Y-87855000D02*
X118605000Y-89485000D01*
X118605000Y-89485000D02*
X116975000Y-89485000D01*
G36*
X118605000Y-89485000D02*
G01*
X116975000Y-89485000D01*
X116975000Y-87855000D01*
X118605000Y-87855000D01*
X118605000Y-89485000D01*
G37*
X118605000Y-89485000D02*
X116975000Y-89485000D01*
X116975000Y-87855000D01*
X118605000Y-87855000D01*
X118605000Y-89485000D01*
%TD*%
D11*
%TO.C,C22*%
X122405000Y-80815000D03*
X123675000Y-80815000D03*
%TD*%
D12*
%TO.C,U6*%
X118840000Y-115290000D03*
X118440000Y-115290000D03*
X118040000Y-115290000D03*
X117640000Y-115290000D03*
X117240000Y-115290000D03*
X116840000Y-115290000D03*
X116440000Y-115290000D03*
X116040000Y-115290000D03*
X115640000Y-115290000D03*
X115240000Y-115290000D03*
X114840000Y-115290000D03*
X114440000Y-115290000D03*
D13*
X113690000Y-116040000D03*
X113690000Y-116440000D03*
X113690000Y-116840000D03*
X113690000Y-117240000D03*
X113690000Y-117640000D03*
X113690000Y-118040000D03*
X113690000Y-118440000D03*
X113690000Y-118840000D03*
X113690000Y-119240000D03*
X113690000Y-119640000D03*
X113690000Y-120040000D03*
X113690000Y-120440000D03*
D12*
X114440000Y-121190000D03*
X114840000Y-121190000D03*
X115240000Y-121190000D03*
X115640000Y-121190000D03*
X116040000Y-121190000D03*
X116440000Y-121190000D03*
X116840000Y-121190000D03*
X117240000Y-121190000D03*
X117640000Y-121190000D03*
X118040000Y-121190000D03*
X118440000Y-121190000D03*
X118840000Y-121190000D03*
D13*
X119590000Y-120440000D03*
X119590000Y-120040000D03*
X119590000Y-119640000D03*
X119590000Y-119240000D03*
X119590000Y-118840000D03*
X119590000Y-118440000D03*
X119590000Y-118040000D03*
X119590000Y-117640000D03*
X119590000Y-117240000D03*
X119590000Y-116840000D03*
X119590000Y-116440000D03*
X119590000Y-116040000D03*
%TD*%
D11*
%TO.C,C18*%
X126410000Y-120070000D03*
X127680000Y-120070000D03*
%TD*%
D14*
%TO.C,U3*%
X111341750Y-71780250D03*
X111341750Y-71280250D03*
X111341750Y-70780250D03*
X111341750Y-70280250D03*
X111341750Y-69780250D03*
D15*
X110566750Y-69505250D03*
X110066750Y-69505250D03*
X109566750Y-69505250D03*
D14*
X108791750Y-69780250D03*
X108791750Y-70280250D03*
X108791750Y-70780250D03*
X108791750Y-71280250D03*
X108791750Y-71780250D03*
D15*
X109566750Y-72055250D03*
X110066750Y-72055250D03*
X110566750Y-72055250D03*
%TD*%
D11*
%TO.C,C33*%
X106055000Y-83245000D03*
X107325000Y-83245000D03*
%TD*%
D16*
%TO.C,C26*%
X140365000Y-101785000D03*
X139095000Y-101785000D03*
%TD*%
D11*
%TO.C,R9*%
X152169000Y-116083000D03*
X153439000Y-116083000D03*
%TD*%
D16*
%TO.C,R5*%
X129122500Y-73287500D03*
X127852500Y-73287500D03*
%TD*%
D17*
%TO.C,U4*%
X118990000Y-62380000D03*
D18*
X121530000Y-62380000D03*
X124070000Y-62380000D03*
X124070000Y-56080000D03*
X121530000Y-56080000D03*
X118990000Y-56080000D03*
%TD*%
D19*
%TO.C,BT1*%
X70890000Y-80060000D03*
X70890000Y-100100000D03*
D20*
X70890000Y-90080000D03*
%TD*%
D21*
%TO.C,C20*%
X118350000Y-80830000D03*
X118350000Y-79560000D03*
%TD*%
%TO.C,R3*%
X118950000Y-68030000D03*
X118950000Y-66760000D03*
%TD*%
D11*
%TO.C,C21*%
X122350000Y-83400000D03*
X123620000Y-83400000D03*
%TD*%
%TO.C,C34*%
X106170000Y-85330000D03*
X107440000Y-85330000D03*
%TD*%
D16*
%TO.C,C25*%
X140365000Y-99395000D03*
X139095000Y-99395000D03*
%TD*%
D11*
%TO.C,C12*%
X110555000Y-111490000D03*
X111825000Y-111490000D03*
%TD*%
D22*
%TO.C,L1*%
X85935000Y-118903596D03*
X85935000Y-120173596D03*
%TD*%
D11*
%TO.C,C1*%
X98220000Y-62120000D03*
X99490000Y-62120000D03*
%TD*%
D16*
%TO.C,C8*%
X80670000Y-105490000D03*
X79400000Y-105490000D03*
%TD*%
D23*
%TO.C,U5*%
X127587500Y-75357500D03*
D24*
X127587500Y-76307500D03*
X127587500Y-77257500D03*
X130187500Y-77257500D03*
X130187500Y-75357500D03*
%TD*%
D25*
%TO.C,Q1*%
X154539820Y-47679960D03*
X154539820Y-45780040D03*
X152340180Y-46730000D03*
%TD*%
D16*
%TO.C,C3*%
X80835000Y-57505000D03*
X79565000Y-57505000D03*
%TD*%
D11*
%TO.C,C23*%
X140055000Y-124875000D03*
X141325000Y-124875000D03*
%TD*%
%TO.C,R2*%
X154820000Y-50830000D03*
X156090000Y-50830000D03*
%TD*%
D22*
%TO.C,R8*%
X135810000Y-124870000D03*
X135810000Y-126140000D03*
%TD*%
D16*
%TO.C,C5*%
X108920000Y-67540000D03*
X107650000Y-67540000D03*
%TD*%
%TO.C,C7*%
X80685000Y-107785000D03*
X79415000Y-107785000D03*
%TD*%
D26*
%TO.C,U1*%
X87105000Y-57860000D03*
X85835000Y-57860000D03*
X84565000Y-57860000D03*
X83295000Y-57860000D03*
X83295000Y-62800000D03*
X84565000Y-62800000D03*
X85835000Y-62800000D03*
X87105000Y-62800000D03*
%TD*%
D11*
%TO.C,C11*%
X110590000Y-108210000D03*
X111860000Y-108210000D03*
%TD*%
%TO.C,C29*%
X131445000Y-70871000D03*
X132715000Y-70871000D03*
%TD*%
%TO.C,C2*%
X98130000Y-60120000D03*
X99400000Y-60120000D03*
%TD*%
D16*
%TO.C,C4*%
X80790000Y-59930000D03*
X79520000Y-59930000D03*
%TD*%
D27*
%TO.C,R1*%
X81800000Y-51490000D03*
X87900000Y-51490000D03*
%TD*%
D11*
%TO.C,C32*%
X155829000Y-116083000D03*
X157099000Y-116083000D03*
%TD*%
D28*
%TO.C,PZ1*%
X147275000Y-46640000D03*
X137185000Y-46640000D03*
%TD*%
D16*
%TO.C,C27*%
X140340000Y-104620000D03*
X139070000Y-104620000D03*
%TD*%
D22*
%TO.C,C13*%
X121625000Y-114745000D03*
X121625000Y-116015000D03*
%TD*%
D16*
%TO.C,R7*%
X149720000Y-112250000D03*
X148450000Y-112250000D03*
%TD*%
%TO.C,C19*%
X113600000Y-127240000D03*
X112330000Y-127240000D03*
%TD*%
D29*
%TO.C,U8*%
X143845000Y-107035000D03*
X143045000Y-107035000D03*
X142245000Y-107035000D03*
X141445000Y-107035000D03*
X140645000Y-107035000D03*
X139845000Y-107035000D03*
X139045000Y-107035000D03*
X138245000Y-107035000D03*
X137445000Y-107035000D03*
X136645000Y-107035000D03*
X135845000Y-107035000D03*
X135045000Y-107035000D03*
D30*
X134245000Y-108285000D03*
X134245000Y-109085000D03*
X134245000Y-109885000D03*
X134245000Y-110685000D03*
X134245000Y-111485000D03*
X134245000Y-112285000D03*
X134245000Y-113085000D03*
X134245000Y-113885000D03*
X134245000Y-114685000D03*
X134245000Y-115485000D03*
X134245000Y-116285000D03*
X134245000Y-117085000D03*
D29*
X135045000Y-118335000D03*
X135845000Y-118335000D03*
X136645000Y-118335000D03*
X137445000Y-118335000D03*
X138245000Y-118335000D03*
X139045000Y-118335000D03*
X139845000Y-118335000D03*
X140645000Y-118335000D03*
X141445000Y-118335000D03*
X142245000Y-118335000D03*
X143045000Y-118335000D03*
X143845000Y-118335000D03*
D30*
X144645000Y-117085000D03*
X144645000Y-116285000D03*
X144645000Y-115485000D03*
X144645000Y-114685000D03*
X144645000Y-113885000D03*
X144645000Y-113085000D03*
X144645000Y-112285000D03*
X144645000Y-111485000D03*
X144645000Y-110685000D03*
X144645000Y-109885000D03*
X144645000Y-109085000D03*
X144645000Y-108285000D03*
D31*
X141945000Y-110185000D03*
D32*
X141945000Y-112685000D03*
X141945000Y-115185000D03*
X139445000Y-110185000D03*
X139445000Y-112685000D03*
X139445000Y-115185000D03*
X136945000Y-110185000D03*
X136945000Y-112685000D03*
X136945000Y-115185000D03*
%TD*%
D11*
%TO.C,C31*%
X131445000Y-73261000D03*
X132715000Y-73261000D03*
%TD*%
D33*
%TO.C,MOD2*%
X93590000Y-106040000D03*
X92490000Y-106040000D03*
X91390000Y-106040000D03*
X90290000Y-106040000D03*
X89190000Y-106040000D03*
X88090000Y-106040000D03*
X86990000Y-106040000D03*
X85890000Y-106040000D03*
X84790000Y-106040000D03*
X84790000Y-115240000D03*
X85890000Y-115240000D03*
X86990000Y-115240000D03*
X88090000Y-115240000D03*
X89190000Y-115240000D03*
X90290000Y-115240000D03*
X91390000Y-115240000D03*
X92490000Y-115240000D03*
X93590000Y-115240000D03*
%TD*%
D16*
%TO.C,C24*%
X133200000Y-126270000D03*
X131930000Y-126270000D03*
%TD*%
D22*
%TO.C,C9*%
X85970000Y-123158596D03*
X85970000Y-124428596D03*
%TD*%
D34*
%TO.C,AE2*%
X119190000Y-131450000D03*
%TD*%
D16*
%TO.C,C6*%
X108950000Y-65620000D03*
X107680000Y-65620000D03*
%TD*%
%TO.C,R4*%
X128847500Y-79342500D03*
X127577500Y-79342500D03*
%TD*%
%TO.C,C14*%
X121040000Y-124940000D03*
X119770000Y-124940000D03*
%TD*%
D35*
%TO.C,U7*%
X116040000Y-85320000D03*
X116040000Y-85720000D03*
X116040000Y-86120000D03*
X116040000Y-86520000D03*
X116040000Y-86920000D03*
X116040000Y-87320000D03*
X116040000Y-87720000D03*
X116040000Y-88120000D03*
X116040000Y-88520000D03*
X116040000Y-88920000D03*
X116040000Y-89320000D03*
X116040000Y-89720000D03*
D36*
X116740000Y-90420000D03*
X117140000Y-90420000D03*
X117540000Y-90420000D03*
X117940000Y-90420000D03*
X118340000Y-90420000D03*
X118740000Y-90420000D03*
X119140000Y-90420000D03*
X119540000Y-90420000D03*
X119940000Y-90420000D03*
X120340000Y-90420000D03*
X120740000Y-90420000D03*
X121140000Y-90420000D03*
D35*
X121840000Y-89720000D03*
X121840000Y-89320000D03*
X121840000Y-88920000D03*
X121840000Y-88520000D03*
X121840000Y-88120000D03*
X121840000Y-87720000D03*
X121840000Y-87320000D03*
X121840000Y-86920000D03*
X121840000Y-86520000D03*
X121840000Y-86120000D03*
X121840000Y-85720000D03*
X121840000Y-85320000D03*
D36*
X121140000Y-84620000D03*
X120740000Y-84620000D03*
X120340000Y-84620000D03*
X119940000Y-84620000D03*
X119540000Y-84620000D03*
X119140000Y-84620000D03*
X118740000Y-84620000D03*
X118340000Y-84620000D03*
X117940000Y-84620000D03*
X117540000Y-84620000D03*
X117140000Y-84620000D03*
X116740000Y-84620000D03*
%TD*%
D16*
%TO.C,C15*%
X120110000Y-112560000D03*
X118840000Y-112560000D03*
%TD*%
D11*
%TO.C,R6*%
X117190000Y-125970000D03*
D22*
X117190000Y-127240000D03*
%TD*%
D11*
%TO.C,C10*%
X110460000Y-114545000D03*
X111730000Y-114545000D03*
%TD*%
D37*
%TO.C,U9*%
X70358000Y-68072000D03*
D38*
X70358000Y-69342000D03*
X70358000Y-70612000D03*
X70358000Y-71882000D03*
X75758000Y-71882000D03*
X75758000Y-70612000D03*
X75758000Y-69342000D03*
X75758000Y-68072000D03*
%TD*%
D21*
%TO.C,C17*%
X122480000Y-120020000D03*
X122480000Y-118750000D03*
%TD*%
D16*
%TO.C,C16*%
X113600000Y-125290000D03*
X112330000Y-125290000D03*
%TD*%
D11*
%TO.C,C30*%
X75057000Y-62997000D03*
X76327000Y-62997000D03*
%TD*%
%TO.C,C28*%
X75057000Y-65387000D03*
X76327000Y-65387000D03*
%TD*%
M02*
