M48
; DRILL file {KiCad (5.99.0-10506-gb986797469)} date Wed May 19 12:07:36 2021
; FORMAT={-:-/ absolute / inch / decimal}
; #@! TF.CreationDate,2021-05-19T12:07:36+01:00
; #@! TF.GenerationSoftware,Kicad,Pcbnew,(5.99.0-10506-gb986797469)
; #@! TF.FileFunction,NonPlated,1,2,NPTH
FMAT,2
INCH
; #@! TA.AperFunction,NonPlated,NPTH,ComponentDrill
T1C0.0390
; #@! TA.AperFunction,NonPlated,NPTH,ComponentDrill
T2C0.0935
%
G90
G05
T1
X3.7691Y-3.0163
X3.8091Y-3.3163
X3.8491Y-3.0163
X4.0624Y-4.4884
X4.1024Y-4.7884
X4.1424Y-4.4884
X5.999Y-5.0165
X6.039Y-4.7165
X6.079Y-5.0165
T2
X3.7091Y-3.0913
X3.7091Y-3.3163
X3.9091Y-3.0913
X3.9091Y-3.3163
X4.0024Y-4.5634
X4.0024Y-4.7884
X4.2024Y-4.5634
X4.2024Y-4.7884
X5.939Y-4.7165
X5.939Y-4.9415
X6.139Y-4.7165
X6.139Y-4.9415
T0
M30
