%TF.GenerationSoftware,KiCad,Pcbnew,(5.99.0-10506-gb986797469)*%
%TF.CreationDate,2021-05-20T15:57:29+01:00*%
%TF.ProjectId,LoRa tracker,4c6f5261-2074-4726-9163-6b65722e6b69,rev?*%
%TF.SameCoordinates,Original*%
%TF.FileFunction,Legend,Top*%
%TF.FilePolarity,Positive*%
%FSLAX46Y46*%
G04 Gerber Fmt 4.6, Leading zero omitted, Abs format (unit mm)*
G04 Created by KiCad (PCBNEW (5.99.0-10506-gb986797469)) date 2021-05-20 15:57:29*
%MOMM*%
%LPD*%
G01*
G04 APERTURE LIST*
%ADD10C,0.015000*%
%ADD11C,0.150000*%
%ADD12C,0.254000*%
%ADD13C,0.120000*%
%ADD14C,0.472311*%
%ADD15C,0.342843*%
%ADD16C,0.127000*%
%ADD17C,0.300000*%
%ADD18C,0.200000*%
%ADD19C,0.160000*%
%ADD20C,0.177800*%
%ADD21C,0.242809*%
%ADD22C,0.100000*%
G04 APERTURE END LIST*
D10*
%TO.C,AE1*%
X97537480Y-99792362D02*
X97537480Y-99342418D01*
X97807446Y-99882351D02*
X96862564Y-99567390D01*
X97807446Y-99252429D01*
X97312508Y-98937469D02*
X97312508Y-98622508D01*
X97807446Y-98487525D02*
X97807446Y-98937469D01*
X96862564Y-98937469D01*
X96862564Y-98487525D01*
X97807446Y-97587637D02*
X97807446Y-98127570D01*
X97807446Y-97857603D02*
X96862564Y-97857603D01*
X96997547Y-97947592D01*
X97087536Y-98037581D01*
X97132530Y-98127570D01*
D11*
%TO.C,TP5*%
X111718095Y-143974380D02*
X112289523Y-143974380D01*
X112003809Y-144974380D02*
X112003809Y-143974380D01*
X112622857Y-144974380D02*
X112622857Y-143974380D01*
X113003809Y-143974380D01*
X113099047Y-144022000D01*
X113146666Y-144069619D01*
X113194285Y-144164857D01*
X113194285Y-144307714D01*
X113146666Y-144402952D01*
X113099047Y-144450571D01*
X113003809Y-144498190D01*
X112622857Y-144498190D01*
X114099047Y-143974380D02*
X113622857Y-143974380D01*
X113575238Y-144450571D01*
X113622857Y-144402952D01*
X113718095Y-144355333D01*
X113956190Y-144355333D01*
X114051428Y-144402952D01*
X114099047Y-144450571D01*
X114146666Y-144545809D01*
X114146666Y-144783904D01*
X114099047Y-144879142D01*
X114051428Y-144926761D01*
X113956190Y-144974380D01*
X113718095Y-144974380D01*
X113622857Y-144926761D01*
X113575238Y-144879142D01*
X110521428Y-151094761D02*
X110664285Y-151142380D01*
X110902380Y-151142380D01*
X110997619Y-151094761D01*
X111045238Y-151047142D01*
X111092857Y-150951904D01*
X111092857Y-150856666D01*
X111045238Y-150761428D01*
X110997619Y-150713809D01*
X110902380Y-150666190D01*
X110711904Y-150618571D01*
X110616666Y-150570952D01*
X110569047Y-150523333D01*
X110521428Y-150428095D01*
X110521428Y-150332857D01*
X110569047Y-150237619D01*
X110616666Y-150190000D01*
X110711904Y-150142380D01*
X110950000Y-150142380D01*
X111092857Y-150190000D01*
X111521428Y-151142380D02*
X111521428Y-150142380D01*
X111902380Y-150142380D01*
X111997619Y-150190000D01*
X112045238Y-150237619D01*
X112092857Y-150332857D01*
X112092857Y-150475714D01*
X112045238Y-150570952D01*
X111997619Y-150618571D01*
X111902380Y-150666190D01*
X111521428Y-150666190D01*
X112521428Y-151142380D02*
X112521428Y-150142380D01*
X113569047Y-151047142D02*
X113521428Y-151094761D01*
X113378571Y-151142380D01*
X113283333Y-151142380D01*
X113140476Y-151094761D01*
X113045238Y-150999523D01*
X112997619Y-150904285D01*
X112950000Y-150713809D01*
X112950000Y-150570952D01*
X112997619Y-150380476D01*
X113045238Y-150285238D01*
X113140476Y-150190000D01*
X113283333Y-150142380D01*
X113378571Y-150142380D01*
X113521428Y-150190000D01*
X113569047Y-150237619D01*
X114473809Y-151142380D02*
X113997619Y-151142380D01*
X113997619Y-150142380D01*
X114807142Y-151142380D02*
X114807142Y-150142380D01*
X115378571Y-151142380D02*
X114950000Y-150570952D01*
X115378571Y-150142380D02*
X114807142Y-150713809D01*
%TO.C,TP4*%
X119968095Y-143924380D02*
X120539523Y-143924380D01*
X120253809Y-144924380D02*
X120253809Y-143924380D01*
X120872857Y-144924380D02*
X120872857Y-143924380D01*
X121253809Y-143924380D01*
X121349047Y-143972000D01*
X121396666Y-144019619D01*
X121444285Y-144114857D01*
X121444285Y-144257714D01*
X121396666Y-144352952D01*
X121349047Y-144400571D01*
X121253809Y-144448190D01*
X120872857Y-144448190D01*
X122301428Y-144257714D02*
X122301428Y-144924380D01*
X122063333Y-143876761D02*
X121825238Y-144591047D01*
X122444285Y-144591047D01*
X121003333Y-150807142D02*
X120955714Y-150854761D01*
X120812857Y-150902380D01*
X120717619Y-150902380D01*
X120574761Y-150854761D01*
X120479523Y-150759523D01*
X120431904Y-150664285D01*
X120384285Y-150473809D01*
X120384285Y-150330952D01*
X120431904Y-150140476D01*
X120479523Y-150045238D01*
X120574761Y-149950000D01*
X120717619Y-149902380D01*
X120812857Y-149902380D01*
X120955714Y-149950000D01*
X121003333Y-149997619D01*
X121384285Y-150854761D02*
X121527142Y-150902380D01*
X121765238Y-150902380D01*
X121860476Y-150854761D01*
X121908095Y-150807142D01*
X121955714Y-150711904D01*
X121955714Y-150616666D01*
X121908095Y-150521428D01*
X121860476Y-150473809D01*
X121765238Y-150426190D01*
X121574761Y-150378571D01*
X121479523Y-150330952D01*
X121431904Y-150283333D01*
X121384285Y-150188095D01*
X121384285Y-150092857D01*
X121431904Y-149997619D01*
X121479523Y-149950000D01*
X121574761Y-149902380D01*
X121812857Y-149902380D01*
X121955714Y-149950000D01*
%TO.C,TP3*%
X132718095Y-144124380D02*
X133289523Y-144124380D01*
X133003809Y-145124380D02*
X133003809Y-144124380D01*
X133622857Y-145124380D02*
X133622857Y-144124380D01*
X134003809Y-144124380D01*
X134099047Y-144172000D01*
X134146666Y-144219619D01*
X134194285Y-144314857D01*
X134194285Y-144457714D01*
X134146666Y-144552952D01*
X134099047Y-144600571D01*
X134003809Y-144648190D01*
X133622857Y-144648190D01*
X134527619Y-144124380D02*
X135146666Y-144124380D01*
X134813333Y-144505333D01*
X134956190Y-144505333D01*
X135051428Y-144552952D01*
X135099047Y-144600571D01*
X135146666Y-144695809D01*
X135146666Y-144933904D01*
X135099047Y-145029142D01*
X135051428Y-145076761D01*
X134956190Y-145124380D01*
X134670476Y-145124380D01*
X134575238Y-145076761D01*
X134527619Y-145029142D01*
X132358571Y-150822380D02*
X132358571Y-149822380D01*
X132691904Y-150536666D01*
X133025238Y-149822380D01*
X133025238Y-150822380D01*
X133501428Y-150822380D02*
X133501428Y-149822380D01*
X133930000Y-150774761D02*
X134072857Y-150822380D01*
X134310952Y-150822380D01*
X134406190Y-150774761D01*
X134453809Y-150727142D01*
X134501428Y-150631904D01*
X134501428Y-150536666D01*
X134453809Y-150441428D01*
X134406190Y-150393809D01*
X134310952Y-150346190D01*
X134120476Y-150298571D01*
X134025238Y-150250952D01*
X133977619Y-150203333D01*
X133930000Y-150108095D01*
X133930000Y-150012857D01*
X133977619Y-149917619D01*
X134025238Y-149870000D01*
X134120476Y-149822380D01*
X134358571Y-149822380D01*
X134501428Y-149870000D01*
X135120476Y-149822380D02*
X135310952Y-149822380D01*
X135406190Y-149870000D01*
X135501428Y-149965238D01*
X135549047Y-150155714D01*
X135549047Y-150489047D01*
X135501428Y-150679523D01*
X135406190Y-150774761D01*
X135310952Y-150822380D01*
X135120476Y-150822380D01*
X135025238Y-150774761D01*
X134930000Y-150679523D01*
X134882380Y-150489047D01*
X134882380Y-150155714D01*
X134930000Y-149965238D01*
X135025238Y-149870000D01*
X135120476Y-149822380D01*
%TO.C,TP2*%
X126258095Y-143744380D02*
X126829523Y-143744380D01*
X126543809Y-144744380D02*
X126543809Y-143744380D01*
X127162857Y-144744380D02*
X127162857Y-143744380D01*
X127543809Y-143744380D01*
X127639047Y-143792000D01*
X127686666Y-143839619D01*
X127734285Y-143934857D01*
X127734285Y-144077714D01*
X127686666Y-144172952D01*
X127639047Y-144220571D01*
X127543809Y-144268190D01*
X127162857Y-144268190D01*
X128115238Y-143839619D02*
X128162857Y-143792000D01*
X128258095Y-143744380D01*
X128496190Y-143744380D01*
X128591428Y-143792000D01*
X128639047Y-143839619D01*
X128686666Y-143934857D01*
X128686666Y-144030095D01*
X128639047Y-144172952D01*
X128067619Y-144744380D01*
X128686666Y-144744380D01*
X126008571Y-150872380D02*
X126008571Y-149872380D01*
X126341904Y-150586666D01*
X126675238Y-149872380D01*
X126675238Y-150872380D01*
X127341904Y-149872380D02*
X127532380Y-149872380D01*
X127627619Y-149920000D01*
X127722857Y-150015238D01*
X127770476Y-150205714D01*
X127770476Y-150539047D01*
X127722857Y-150729523D01*
X127627619Y-150824761D01*
X127532380Y-150872380D01*
X127341904Y-150872380D01*
X127246666Y-150824761D01*
X127151428Y-150729523D01*
X127103809Y-150539047D01*
X127103809Y-150205714D01*
X127151428Y-150015238D01*
X127246666Y-149920000D01*
X127341904Y-149872380D01*
X128151428Y-150824761D02*
X128294285Y-150872380D01*
X128532380Y-150872380D01*
X128627619Y-150824761D01*
X128675238Y-150777142D01*
X128722857Y-150681904D01*
X128722857Y-150586666D01*
X128675238Y-150491428D01*
X128627619Y-150443809D01*
X128532380Y-150396190D01*
X128341904Y-150348571D01*
X128246666Y-150300952D01*
X128199047Y-150253333D01*
X128151428Y-150158095D01*
X128151428Y-150062857D01*
X128199047Y-149967619D01*
X128246666Y-149920000D01*
X128341904Y-149872380D01*
X128580000Y-149872380D01*
X128722857Y-149920000D01*
X129151428Y-150872380D02*
X129151428Y-149872380D01*
%TO.C,TP1*%
X102018095Y-165634380D02*
X102589523Y-165634380D01*
X102303809Y-166634380D02*
X102303809Y-165634380D01*
X102922857Y-166634380D02*
X102922857Y-165634380D01*
X103303809Y-165634380D01*
X103399047Y-165682000D01*
X103446666Y-165729619D01*
X103494285Y-165824857D01*
X103494285Y-165967714D01*
X103446666Y-166062952D01*
X103399047Y-166110571D01*
X103303809Y-166158190D01*
X102922857Y-166158190D01*
X104446666Y-166634380D02*
X103875238Y-166634380D01*
X104160952Y-166634380D02*
X104160952Y-165634380D01*
X104065714Y-165777238D01*
X103970476Y-165872476D01*
X103875238Y-165920095D01*
X101827619Y-172082380D02*
X101494285Y-171606190D01*
X101256190Y-172082380D02*
X101256190Y-171082380D01*
X101637142Y-171082380D01*
X101732380Y-171130000D01*
X101780000Y-171177619D01*
X101827619Y-171272857D01*
X101827619Y-171415714D01*
X101780000Y-171510952D01*
X101732380Y-171558571D01*
X101637142Y-171606190D01*
X101256190Y-171606190D01*
X102256190Y-171558571D02*
X102589523Y-171558571D01*
X102732380Y-172082380D02*
X102256190Y-172082380D01*
X102256190Y-171082380D01*
X102732380Y-171082380D01*
X103113333Y-172034761D02*
X103256190Y-172082380D01*
X103494285Y-172082380D01*
X103589523Y-172034761D01*
X103637142Y-171987142D01*
X103684761Y-171891904D01*
X103684761Y-171796666D01*
X103637142Y-171701428D01*
X103589523Y-171653809D01*
X103494285Y-171606190D01*
X103303809Y-171558571D01*
X103208571Y-171510952D01*
X103160952Y-171463333D01*
X103113333Y-171368095D01*
X103113333Y-171272857D01*
X103160952Y-171177619D01*
X103208571Y-171130000D01*
X103303809Y-171082380D01*
X103541904Y-171082380D01*
X103684761Y-171130000D01*
X104113333Y-171558571D02*
X104446666Y-171558571D01*
X104589523Y-172082380D02*
X104113333Y-172082380D01*
X104113333Y-171082380D01*
X104589523Y-171082380D01*
X104875238Y-171082380D02*
X105446666Y-171082380D01*
X105160952Y-172082380D02*
X105160952Y-171082380D01*
%TO.C,Y2*%
X144196190Y-131256190D02*
X144672380Y-131256190D01*
X143672380Y-131589523D02*
X144196190Y-131256190D01*
X143672380Y-130922857D01*
X143767619Y-130637142D02*
X143720000Y-130589523D01*
X143672380Y-130494285D01*
X143672380Y-130256190D01*
X143720000Y-130160952D01*
X143767619Y-130113333D01*
X143862857Y-130065714D01*
X143958095Y-130065714D01*
X144100952Y-130113333D01*
X144672380Y-130684761D01*
X144672380Y-130065714D01*
D10*
%TO.C,Y1*%
X103800093Y-139496113D02*
X103800093Y-140246019D01*
X103275159Y-138671216D02*
X103800093Y-139496113D01*
X104325028Y-138671216D01*
X105674859Y-140246019D02*
X104774971Y-140246019D01*
X105224915Y-140246019D02*
X105224915Y-138671216D01*
X105074934Y-138896188D01*
X104924953Y-139046169D01*
X104774971Y-139121160D01*
D11*
%TO.C,U9*%
X182206197Y-176473095D02*
X181396673Y-176473095D01*
X181301435Y-176520714D01*
X181253816Y-176568333D01*
X181206197Y-176663571D01*
X181206197Y-176854047D01*
X181253816Y-176949285D01*
X181301435Y-176996904D01*
X181396673Y-177044523D01*
X182206197Y-177044523D01*
X181206197Y-177568333D02*
X181206197Y-177758809D01*
X181253816Y-177854047D01*
X181301435Y-177901666D01*
X181444292Y-177996904D01*
X181634768Y-178044523D01*
X182015720Y-178044523D01*
X182110958Y-177996904D01*
X182158578Y-177949285D01*
X182206197Y-177854047D01*
X182206197Y-177663571D01*
X182158578Y-177568333D01*
X182110958Y-177520714D01*
X182015720Y-177473095D01*
X181777625Y-177473095D01*
X181682387Y-177520714D01*
X181634768Y-177568333D01*
X181587149Y-177663571D01*
X181587149Y-177854047D01*
X181634768Y-177949285D01*
X181682387Y-177996904D01*
X181777625Y-178044523D01*
D10*
%TO.C,U8*%
X125236389Y-166855095D02*
X125236389Y-167114449D01*
X125251645Y-167144962D01*
X125266902Y-167160218D01*
X125297414Y-167175474D01*
X125358438Y-167175474D01*
X125388951Y-167160218D01*
X125404207Y-167144962D01*
X125419463Y-167114449D01*
X125419463Y-166855095D01*
X125617793Y-166992400D02*
X125587281Y-166977144D01*
X125572024Y-166961888D01*
X125556768Y-166931376D01*
X125556768Y-166916119D01*
X125572024Y-166885607D01*
X125587281Y-166870351D01*
X125617793Y-166855095D01*
X125678817Y-166855095D01*
X125709330Y-166870351D01*
X125724586Y-166885607D01*
X125739842Y-166916119D01*
X125739842Y-166931376D01*
X125724586Y-166961888D01*
X125709330Y-166977144D01*
X125678817Y-166992400D01*
X125617793Y-166992400D01*
X125587281Y-167007656D01*
X125572024Y-167022912D01*
X125556768Y-167053425D01*
X125556768Y-167114449D01*
X125572024Y-167144962D01*
X125587281Y-167160218D01*
X125617793Y-167175474D01*
X125678817Y-167175474D01*
X125709330Y-167160218D01*
X125724586Y-167144962D01*
X125739842Y-167114449D01*
X125739842Y-167053425D01*
X125724586Y-167022912D01*
X125709330Y-167007656D01*
X125678817Y-166992400D01*
%TO.C,U7*%
X156791552Y-127790251D02*
X156791552Y-128602472D01*
X156839330Y-128698027D01*
X156887107Y-128745805D01*
X156982663Y-128793582D01*
X157173773Y-128793582D01*
X157269329Y-128745805D01*
X157317106Y-128698027D01*
X157364884Y-128602472D01*
X157364884Y-127790251D01*
X157747105Y-127790251D02*
X158415993Y-127790251D01*
X157985994Y-128793582D01*
%TO.C,U6*%
X116320476Y-137989904D02*
X116320476Y-138637523D01*
X116358571Y-138713714D01*
X116396666Y-138751809D01*
X116472857Y-138789904D01*
X116625238Y-138789904D01*
X116701428Y-138751809D01*
X116739523Y-138713714D01*
X116777619Y-138637523D01*
X116777619Y-137989904D01*
X117501428Y-137989904D02*
X117349047Y-137989904D01*
X117272857Y-138028000D01*
X117234761Y-138066095D01*
X117158571Y-138180380D01*
X117120476Y-138332761D01*
X117120476Y-138637523D01*
X117158571Y-138713714D01*
X117196666Y-138751809D01*
X117272857Y-138789904D01*
X117425238Y-138789904D01*
X117501428Y-138751809D01*
X117539523Y-138713714D01*
X117577619Y-138637523D01*
X117577619Y-138447047D01*
X117539523Y-138370857D01*
X117501428Y-138332761D01*
X117425238Y-138294666D01*
X117272857Y-138294666D01*
X117196666Y-138332761D01*
X117158571Y-138370857D01*
X117120476Y-138447047D01*
D11*
%TO.C,U5*%
X186881595Y-165431880D02*
X186881595Y-166241404D01*
X186929214Y-166336642D01*
X186976833Y-166384261D01*
X187072071Y-166431880D01*
X187262547Y-166431880D01*
X187357785Y-166384261D01*
X187405404Y-166336642D01*
X187453023Y-166241404D01*
X187453023Y-165431880D01*
X188405404Y-165431880D02*
X187929214Y-165431880D01*
X187881595Y-165908071D01*
X187929214Y-165860452D01*
X188024452Y-165812833D01*
X188262547Y-165812833D01*
X188357785Y-165860452D01*
X188405404Y-165908071D01*
X188453023Y-166003309D01*
X188453023Y-166241404D01*
X188405404Y-166336642D01*
X188357785Y-166384261D01*
X188262547Y-166431880D01*
X188024452Y-166431880D01*
X187929214Y-166384261D01*
X187881595Y-166336642D01*
%TO.C,U4*%
X189962380Y-152571904D02*
X190771904Y-152571904D01*
X190867142Y-152524285D01*
X190914761Y-152476666D01*
X190962380Y-152381428D01*
X190962380Y-152190952D01*
X190914761Y-152095714D01*
X190867142Y-152048095D01*
X190771904Y-152000476D01*
X189962380Y-152000476D01*
X190295714Y-151095714D02*
X190962380Y-151095714D01*
X189914761Y-151333809D02*
X190629047Y-151571904D01*
X190629047Y-150952857D01*
D10*
%TO.C,U3*%
X177570995Y-188667557D02*
X177570995Y-188927059D01*
X177586259Y-188957589D01*
X177601524Y-188972853D01*
X177632054Y-188988118D01*
X177693113Y-188988118D01*
X177723643Y-188972853D01*
X177738907Y-188957589D01*
X177754172Y-188927059D01*
X177754172Y-188667557D01*
X177876291Y-188667557D02*
X178074733Y-188667557D01*
X177967880Y-188789676D01*
X178013674Y-188789676D01*
X178044204Y-188804940D01*
X178059468Y-188820205D01*
X178074733Y-188850735D01*
X178074733Y-188927059D01*
X178059468Y-188957589D01*
X178044204Y-188972853D01*
X178013674Y-188988118D01*
X177922085Y-188988118D01*
X177891556Y-188972853D01*
X177876291Y-188957589D01*
D11*
%TO.C,U2*%
X175884904Y-109785619D02*
X175884904Y-108976095D01*
X175837285Y-108880857D01*
X175789666Y-108833238D01*
X175694428Y-108785619D01*
X175503952Y-108785619D01*
X175408714Y-108833238D01*
X175361095Y-108880857D01*
X175313476Y-108976095D01*
X175313476Y-109785619D01*
X174884904Y-109690380D02*
X174837285Y-109738000D01*
X174742047Y-109785619D01*
X174503952Y-109785619D01*
X174408714Y-109738000D01*
X174361095Y-109690380D01*
X174313476Y-109595142D01*
X174313476Y-109499904D01*
X174361095Y-109357047D01*
X174932523Y-108785619D01*
X174313476Y-108785619D01*
D10*
%TO.C,U1*%
X191959380Y-115436904D02*
X192768904Y-115436904D01*
X192864142Y-115389285D01*
X192911761Y-115341666D01*
X192959380Y-115246428D01*
X192959380Y-115055952D01*
X192911761Y-114960714D01*
X192864142Y-114913095D01*
X192768904Y-114865476D01*
X191959380Y-114865476D01*
X192959380Y-113865476D02*
X192959380Y-114436904D01*
X192959380Y-114151190D02*
X191959380Y-114151190D01*
X192102238Y-114246428D01*
X192197476Y-114341666D01*
X192245095Y-114436904D01*
D11*
%TO.C,R9*%
X123896380Y-183940666D02*
X123420190Y-184274000D01*
X123896380Y-184512095D02*
X122896380Y-184512095D01*
X122896380Y-184131142D01*
X122944000Y-184035904D01*
X122991619Y-183988285D01*
X123086857Y-183940666D01*
X123229714Y-183940666D01*
X123324952Y-183988285D01*
X123372571Y-184035904D01*
X123420190Y-184131142D01*
X123420190Y-184512095D01*
X123896380Y-183464476D02*
X123896380Y-183274000D01*
X123848761Y-183178761D01*
X123801142Y-183131142D01*
X123658285Y-183035904D01*
X123467809Y-182988285D01*
X123086857Y-182988285D01*
X122991619Y-183035904D01*
X122944000Y-183083523D01*
X122896380Y-183178761D01*
X122896380Y-183369238D01*
X122944000Y-183464476D01*
X122991619Y-183512095D01*
X123086857Y-183559714D01*
X123324952Y-183559714D01*
X123420190Y-183512095D01*
X123467809Y-183464476D01*
X123515428Y-183369238D01*
X123515428Y-183178761D01*
X123467809Y-183083523D01*
X123420190Y-183035904D01*
X123324952Y-182988285D01*
%TO.C,R8*%
X105597333Y-159012380D02*
X105264000Y-158536190D01*
X105025904Y-159012380D02*
X105025904Y-158012380D01*
X105406857Y-158012380D01*
X105502095Y-158060000D01*
X105549714Y-158107619D01*
X105597333Y-158202857D01*
X105597333Y-158345714D01*
X105549714Y-158440952D01*
X105502095Y-158488571D01*
X105406857Y-158536190D01*
X105025904Y-158536190D01*
X106168761Y-158440952D02*
X106073523Y-158393333D01*
X106025904Y-158345714D01*
X105978285Y-158250476D01*
X105978285Y-158202857D01*
X106025904Y-158107619D01*
X106073523Y-158060000D01*
X106168761Y-158012380D01*
X106359238Y-158012380D01*
X106454476Y-158060000D01*
X106502095Y-158107619D01*
X106549714Y-158202857D01*
X106549714Y-158250476D01*
X106502095Y-158345714D01*
X106454476Y-158393333D01*
X106359238Y-158440952D01*
X106168761Y-158440952D01*
X106073523Y-158488571D01*
X106025904Y-158536190D01*
X105978285Y-158631428D01*
X105978285Y-158821904D01*
X106025904Y-158917142D01*
X106073523Y-158964761D01*
X106168761Y-159012380D01*
X106359238Y-159012380D01*
X106454476Y-158964761D01*
X106502095Y-158917142D01*
X106549714Y-158821904D01*
X106549714Y-158631428D01*
X106502095Y-158536190D01*
X106454476Y-158488571D01*
X106359238Y-158440952D01*
%TO.C,R7*%
X125309333Y-170886380D02*
X124976000Y-170410190D01*
X124737904Y-170886380D02*
X124737904Y-169886380D01*
X125118857Y-169886380D01*
X125214095Y-169934000D01*
X125261714Y-169981619D01*
X125309333Y-170076857D01*
X125309333Y-170219714D01*
X125261714Y-170314952D01*
X125214095Y-170362571D01*
X125118857Y-170410190D01*
X124737904Y-170410190D01*
X125642666Y-169886380D02*
X126309333Y-169886380D01*
X125880761Y-170886380D01*
%TO.C,R6*%
X105697333Y-135802380D02*
X105364000Y-135326190D01*
X105125904Y-135802380D02*
X105125904Y-134802380D01*
X105506857Y-134802380D01*
X105602095Y-134850000D01*
X105649714Y-134897619D01*
X105697333Y-134992857D01*
X105697333Y-135135714D01*
X105649714Y-135230952D01*
X105602095Y-135278571D01*
X105506857Y-135326190D01*
X105125904Y-135326190D01*
X106554476Y-134802380D02*
X106364000Y-134802380D01*
X106268761Y-134850000D01*
X106221142Y-134897619D01*
X106125904Y-135040476D01*
X106078285Y-135230952D01*
X106078285Y-135611904D01*
X106125904Y-135707142D01*
X106173523Y-135754761D01*
X106268761Y-135802380D01*
X106459238Y-135802380D01*
X106554476Y-135754761D01*
X106602095Y-135707142D01*
X106649714Y-135611904D01*
X106649714Y-135373809D01*
X106602095Y-135278571D01*
X106554476Y-135230952D01*
X106459238Y-135183333D01*
X106268761Y-135183333D01*
X106173523Y-135230952D01*
X106125904Y-135278571D01*
X106078285Y-135373809D01*
%TO.C,R5*%
X175367380Y-175871666D02*
X174891190Y-176205000D01*
X175367380Y-176443095D02*
X174367380Y-176443095D01*
X174367380Y-176062142D01*
X174415000Y-175966904D01*
X174462619Y-175919285D01*
X174557857Y-175871666D01*
X174700714Y-175871666D01*
X174795952Y-175919285D01*
X174843571Y-175966904D01*
X174891190Y-176062142D01*
X174891190Y-176443095D01*
X174367380Y-174966904D02*
X174367380Y-175443095D01*
X174843571Y-175490714D01*
X174795952Y-175443095D01*
X174748333Y-175347857D01*
X174748333Y-175109761D01*
X174795952Y-175014523D01*
X174843571Y-174966904D01*
X174938809Y-174919285D01*
X175176904Y-174919285D01*
X175272142Y-174966904D01*
X175319761Y-175014523D01*
X175367380Y-175109761D01*
X175367380Y-175347857D01*
X175319761Y-175443095D01*
X175272142Y-175490714D01*
%TO.C,R4*%
X180377380Y-171821666D02*
X179901190Y-172155000D01*
X180377380Y-172393095D02*
X179377380Y-172393095D01*
X179377380Y-172012142D01*
X179425000Y-171916904D01*
X179472619Y-171869285D01*
X179567857Y-171821666D01*
X179710714Y-171821666D01*
X179805952Y-171869285D01*
X179853571Y-171916904D01*
X179901190Y-172012142D01*
X179901190Y-172393095D01*
X179710714Y-170964523D02*
X180377380Y-170964523D01*
X179329761Y-171202619D02*
X180044047Y-171440714D01*
X180044047Y-170821666D01*
%TO.C,R3*%
X183448333Y-148477380D02*
X183115000Y-148001190D01*
X182876904Y-148477380D02*
X182876904Y-147477380D01*
X183257857Y-147477380D01*
X183353095Y-147525000D01*
X183400714Y-147572619D01*
X183448333Y-147667857D01*
X183448333Y-147810714D01*
X183400714Y-147905952D01*
X183353095Y-147953571D01*
X183257857Y-148001190D01*
X182876904Y-148001190D01*
X183781666Y-147477380D02*
X184400714Y-147477380D01*
X184067380Y-147858333D01*
X184210238Y-147858333D01*
X184305476Y-147905952D01*
X184353095Y-147953571D01*
X184400714Y-148048809D01*
X184400714Y-148286904D01*
X184353095Y-148382142D01*
X184305476Y-148429761D01*
X184210238Y-148477380D01*
X183924523Y-148477380D01*
X183829285Y-148429761D01*
X183781666Y-148382142D01*
%TO.C,R2*%
X194592380Y-184646666D02*
X194116190Y-184980000D01*
X194592380Y-185218095D02*
X193592380Y-185218095D01*
X193592380Y-184837142D01*
X193640000Y-184741904D01*
X193687619Y-184694285D01*
X193782857Y-184646666D01*
X193925714Y-184646666D01*
X194020952Y-184694285D01*
X194068571Y-184741904D01*
X194116190Y-184837142D01*
X194116190Y-185218095D01*
X193687619Y-184265714D02*
X193640000Y-184218095D01*
X193592380Y-184122857D01*
X193592380Y-183884761D01*
X193640000Y-183789523D01*
X193687619Y-183741904D01*
X193782857Y-183694285D01*
X193878095Y-183694285D01*
X194020952Y-183741904D01*
X194592380Y-184313333D01*
X194592380Y-183694285D01*
%TO.C,R1*%
X188843333Y-106682380D02*
X188510000Y-106206190D01*
X188271904Y-106682380D02*
X188271904Y-105682380D01*
X188652857Y-105682380D01*
X188748095Y-105730000D01*
X188795714Y-105777619D01*
X188843333Y-105872857D01*
X188843333Y-106015714D01*
X188795714Y-106110952D01*
X188748095Y-106158571D01*
X188652857Y-106206190D01*
X188271904Y-106206190D01*
X189795714Y-106682380D02*
X189224285Y-106682380D01*
X189510000Y-106682380D02*
X189510000Y-105682380D01*
X189414761Y-105825238D01*
X189319523Y-105920476D01*
X189224285Y-105968095D01*
%TO.C,Q1*%
X198344761Y-184417619D02*
X198249523Y-184370000D01*
X198154285Y-184274761D01*
X198011428Y-184131904D01*
X197916190Y-184084285D01*
X197820952Y-184084285D01*
X197868571Y-184322380D02*
X197773333Y-184274761D01*
X197678095Y-184179523D01*
X197630476Y-183989047D01*
X197630476Y-183655714D01*
X197678095Y-183465238D01*
X197773333Y-183370000D01*
X197868571Y-183322380D01*
X198059047Y-183322380D01*
X198154285Y-183370000D01*
X198249523Y-183465238D01*
X198297142Y-183655714D01*
X198297142Y-183989047D01*
X198249523Y-184179523D01*
X198154285Y-184274761D01*
X198059047Y-184322380D01*
X197868571Y-184322380D01*
X199249523Y-184322380D02*
X198678095Y-184322380D01*
X198963809Y-184322380D02*
X198963809Y-183322380D01*
X198868571Y-183465238D01*
X198773333Y-183560476D01*
X198678095Y-183608095D01*
D10*
%TO.C,PZ1*%
X202102643Y-174577446D02*
X202102643Y-173632564D01*
X202462598Y-173632564D01*
X202552587Y-173677559D01*
X202597581Y-173722553D01*
X202642575Y-173812542D01*
X202642575Y-173947525D01*
X202597581Y-174037514D01*
X202552587Y-174082508D01*
X202462598Y-174127502D01*
X202102643Y-174127502D01*
X202957536Y-173632564D02*
X203587457Y-173632564D01*
X202957536Y-174577446D01*
X203587457Y-174577446D01*
X204442351Y-174577446D02*
X203902418Y-174577446D01*
X204172384Y-174577446D02*
X204172384Y-173632564D01*
X204082396Y-173767547D01*
X203992407Y-173857536D01*
X203902418Y-173902530D01*
%TO.C,MOD2*%
X116992410Y-108207138D02*
X115417607Y-108207138D01*
X116542467Y-107682204D01*
X115417607Y-107157270D01*
X116992410Y-107157270D01*
X115417607Y-106107401D02*
X115417607Y-105807439D01*
X115492598Y-105657457D01*
X115642579Y-105507476D01*
X115942542Y-105432485D01*
X116467476Y-105432485D01*
X116767439Y-105507476D01*
X116917420Y-105657457D01*
X116992410Y-105807439D01*
X116992410Y-106107401D01*
X116917420Y-106257382D01*
X116767439Y-106407363D01*
X116467476Y-106482354D01*
X115942542Y-106482354D01*
X115642579Y-106407363D01*
X115492598Y-106257382D01*
X115417607Y-106107401D01*
X116992410Y-104757570D02*
X115417607Y-104757570D01*
X115417607Y-104382617D01*
X115492598Y-104157645D01*
X115642579Y-104007664D01*
X115792560Y-103932673D01*
X116092523Y-103857682D01*
X116317495Y-103857682D01*
X116617457Y-103932673D01*
X116767439Y-104007664D01*
X116917420Y-104157645D01*
X116992410Y-104382617D01*
X116992410Y-104757570D01*
X115567589Y-103257757D02*
X115492598Y-103182767D01*
X115417607Y-103032786D01*
X115417607Y-102657833D01*
X115492598Y-102507851D01*
X115567589Y-102432861D01*
X115717570Y-102357870D01*
X115867551Y-102357870D01*
X116092523Y-102432861D01*
X116992410Y-103332748D01*
X116992410Y-102357870D01*
D11*
%TO.C,L1*%
X107673333Y-103952380D02*
X107197142Y-103952380D01*
X107197142Y-102952380D01*
X108530476Y-103952380D02*
X107959047Y-103952380D01*
X108244761Y-103952380D02*
X108244761Y-102952380D01*
X108149523Y-103095238D01*
X108054285Y-103190476D01*
X107959047Y-103238095D01*
%TO.C,J2*%
X196387380Y-152248333D02*
X197101666Y-152248333D01*
X197244523Y-152295952D01*
X197339761Y-152391190D01*
X197387380Y-152534047D01*
X197387380Y-152629285D01*
X196482619Y-151819761D02*
X196435000Y-151772142D01*
X196387380Y-151676904D01*
X196387380Y-151438809D01*
X196435000Y-151343571D01*
X196482619Y-151295952D01*
X196577857Y-151248333D01*
X196673095Y-151248333D01*
X196815952Y-151295952D01*
X197387380Y-151867380D01*
X197387380Y-151248333D01*
%TO.C,J1*%
X198352380Y-106283333D02*
X199066666Y-106283333D01*
X199209523Y-106330952D01*
X199304761Y-106426190D01*
X199352380Y-106569047D01*
X199352380Y-106664285D01*
X199352380Y-105283333D02*
X199352380Y-105854761D01*
X199352380Y-105569047D02*
X198352380Y-105569047D01*
X198495238Y-105664285D01*
X198590476Y-105759523D01*
X198638095Y-105854761D01*
%TO.C,CON3*%
X118910714Y-171277142D02*
X118863095Y-171324761D01*
X118720238Y-171372380D01*
X118625000Y-171372380D01*
X118482142Y-171324761D01*
X118386904Y-171229523D01*
X118339285Y-171134285D01*
X118291666Y-170943809D01*
X118291666Y-170800952D01*
X118339285Y-170610476D01*
X118386904Y-170515238D01*
X118482142Y-170420000D01*
X118625000Y-170372380D01*
X118720238Y-170372380D01*
X118863095Y-170420000D01*
X118910714Y-170467619D01*
X119529761Y-170372380D02*
X119720238Y-170372380D01*
X119815476Y-170420000D01*
X119910714Y-170515238D01*
X119958333Y-170705714D01*
X119958333Y-171039047D01*
X119910714Y-171229523D01*
X119815476Y-171324761D01*
X119720238Y-171372380D01*
X119529761Y-171372380D01*
X119434523Y-171324761D01*
X119339285Y-171229523D01*
X119291666Y-171039047D01*
X119291666Y-170705714D01*
X119339285Y-170515238D01*
X119434523Y-170420000D01*
X119529761Y-170372380D01*
X120386904Y-171372380D02*
X120386904Y-170372380D01*
X120958333Y-171372380D01*
X120958333Y-170372380D01*
X121339285Y-170372380D02*
X121958333Y-170372380D01*
X121625000Y-170753333D01*
X121767857Y-170753333D01*
X121863095Y-170800952D01*
X121910714Y-170848571D01*
X121958333Y-170943809D01*
X121958333Y-171181904D01*
X121910714Y-171277142D01*
X121863095Y-171324761D01*
X121767857Y-171372380D01*
X121482142Y-171372380D01*
X121386904Y-171324761D01*
X121339285Y-171277142D01*
%TO.C,CON2*%
X157500714Y-126227142D02*
X157453095Y-126274761D01*
X157310238Y-126322380D01*
X157215000Y-126322380D01*
X157072142Y-126274761D01*
X156976904Y-126179523D01*
X156929285Y-126084285D01*
X156881666Y-125893809D01*
X156881666Y-125750952D01*
X156929285Y-125560476D01*
X156976904Y-125465238D01*
X157072142Y-125370000D01*
X157215000Y-125322380D01*
X157310238Y-125322380D01*
X157453095Y-125370000D01*
X157500714Y-125417619D01*
X158119761Y-125322380D02*
X158310238Y-125322380D01*
X158405476Y-125370000D01*
X158500714Y-125465238D01*
X158548333Y-125655714D01*
X158548333Y-125989047D01*
X158500714Y-126179523D01*
X158405476Y-126274761D01*
X158310238Y-126322380D01*
X158119761Y-126322380D01*
X158024523Y-126274761D01*
X157929285Y-126179523D01*
X157881666Y-125989047D01*
X157881666Y-125655714D01*
X157929285Y-125465238D01*
X158024523Y-125370000D01*
X158119761Y-125322380D01*
X158976904Y-126322380D02*
X158976904Y-125322380D01*
X159548333Y-126322380D01*
X159548333Y-125322380D01*
X159976904Y-125417619D02*
X160024523Y-125370000D01*
X160119761Y-125322380D01*
X160357857Y-125322380D01*
X160453095Y-125370000D01*
X160500714Y-125417619D01*
X160548333Y-125512857D01*
X160548333Y-125608095D01*
X160500714Y-125750952D01*
X159929285Y-126322380D01*
X160548333Y-126322380D01*
%TO.C,CON1*%
X114660714Y-127627142D02*
X114613095Y-127674761D01*
X114470238Y-127722380D01*
X114375000Y-127722380D01*
X114232142Y-127674761D01*
X114136904Y-127579523D01*
X114089285Y-127484285D01*
X114041666Y-127293809D01*
X114041666Y-127150952D01*
X114089285Y-126960476D01*
X114136904Y-126865238D01*
X114232142Y-126770000D01*
X114375000Y-126722380D01*
X114470238Y-126722380D01*
X114613095Y-126770000D01*
X114660714Y-126817619D01*
X115279761Y-126722380D02*
X115470238Y-126722380D01*
X115565476Y-126770000D01*
X115660714Y-126865238D01*
X115708333Y-127055714D01*
X115708333Y-127389047D01*
X115660714Y-127579523D01*
X115565476Y-127674761D01*
X115470238Y-127722380D01*
X115279761Y-127722380D01*
X115184523Y-127674761D01*
X115089285Y-127579523D01*
X115041666Y-127389047D01*
X115041666Y-127055714D01*
X115089285Y-126865238D01*
X115184523Y-126770000D01*
X115279761Y-126722380D01*
X116136904Y-127722380D02*
X116136904Y-126722380D01*
X116708333Y-127722380D01*
X116708333Y-126722380D01*
X117708333Y-127722380D02*
X117136904Y-127722380D01*
X117422619Y-127722380D02*
X117422619Y-126722380D01*
X117327380Y-126865238D01*
X117232142Y-126960476D01*
X117136904Y-127008095D01*
%TO.C,C34*%
X140577142Y-132917142D02*
X140529523Y-132964761D01*
X140386666Y-133012380D01*
X140291428Y-133012380D01*
X140148571Y-132964761D01*
X140053333Y-132869523D01*
X140005714Y-132774285D01*
X139958095Y-132583809D01*
X139958095Y-132440952D01*
X140005714Y-132250476D01*
X140053333Y-132155238D01*
X140148571Y-132060000D01*
X140291428Y-132012380D01*
X140386666Y-132012380D01*
X140529523Y-132060000D01*
X140577142Y-132107619D01*
X140910476Y-132012380D02*
X141529523Y-132012380D01*
X141196190Y-132393333D01*
X141339047Y-132393333D01*
X141434285Y-132440952D01*
X141481904Y-132488571D01*
X141529523Y-132583809D01*
X141529523Y-132821904D01*
X141481904Y-132917142D01*
X141434285Y-132964761D01*
X141339047Y-133012380D01*
X141053333Y-133012380D01*
X140958095Y-132964761D01*
X140910476Y-132917142D01*
X142386666Y-132345714D02*
X142386666Y-133012380D01*
X142148571Y-131964761D02*
X141910476Y-132679047D01*
X142529523Y-132679047D01*
%TO.C,C33*%
X140747142Y-129837142D02*
X140699523Y-129884761D01*
X140556666Y-129932380D01*
X140461428Y-129932380D01*
X140318571Y-129884761D01*
X140223333Y-129789523D01*
X140175714Y-129694285D01*
X140128095Y-129503809D01*
X140128095Y-129360952D01*
X140175714Y-129170476D01*
X140223333Y-129075238D01*
X140318571Y-128980000D01*
X140461428Y-128932380D01*
X140556666Y-128932380D01*
X140699523Y-128980000D01*
X140747142Y-129027619D01*
X141080476Y-128932380D02*
X141699523Y-128932380D01*
X141366190Y-129313333D01*
X141509047Y-129313333D01*
X141604285Y-129360952D01*
X141651904Y-129408571D01*
X141699523Y-129503809D01*
X141699523Y-129741904D01*
X141651904Y-129837142D01*
X141604285Y-129884761D01*
X141509047Y-129932380D01*
X141223333Y-129932380D01*
X141128095Y-129884761D01*
X141080476Y-129837142D01*
X142032857Y-128932380D02*
X142651904Y-128932380D01*
X142318571Y-129313333D01*
X142461428Y-129313333D01*
X142556666Y-129360952D01*
X142604285Y-129408571D01*
X142651904Y-129503809D01*
X142651904Y-129741904D01*
X142604285Y-129837142D01*
X142556666Y-129884761D01*
X142461428Y-129932380D01*
X142175714Y-129932380D01*
X142080476Y-129884761D01*
X142032857Y-129837142D01*
%TO.C,C32*%
X128135142Y-182475142D02*
X128087523Y-182522761D01*
X127944666Y-182570380D01*
X127849428Y-182570380D01*
X127706571Y-182522761D01*
X127611333Y-182427523D01*
X127563714Y-182332285D01*
X127516095Y-182141809D01*
X127516095Y-181998952D01*
X127563714Y-181808476D01*
X127611333Y-181713238D01*
X127706571Y-181618000D01*
X127849428Y-181570380D01*
X127944666Y-181570380D01*
X128087523Y-181618000D01*
X128135142Y-181665619D01*
X128468476Y-181570380D02*
X129087523Y-181570380D01*
X128754190Y-181951333D01*
X128897047Y-181951333D01*
X128992285Y-181998952D01*
X129039904Y-182046571D01*
X129087523Y-182141809D01*
X129087523Y-182379904D01*
X129039904Y-182475142D01*
X128992285Y-182522761D01*
X128897047Y-182570380D01*
X128611333Y-182570380D01*
X128516095Y-182522761D01*
X128468476Y-182475142D01*
X129468476Y-181665619D02*
X129516095Y-181618000D01*
X129611333Y-181570380D01*
X129849428Y-181570380D01*
X129944666Y-181618000D01*
X129992285Y-181665619D01*
X130039904Y-181760857D01*
X130039904Y-181856095D01*
X129992285Y-181998952D01*
X129420857Y-182570380D01*
X130039904Y-182570380D01*
%TO.C,C31*%
X174697142Y-184507142D02*
X174649523Y-184554761D01*
X174506666Y-184602380D01*
X174411428Y-184602380D01*
X174268571Y-184554761D01*
X174173333Y-184459523D01*
X174125714Y-184364285D01*
X174078095Y-184173809D01*
X174078095Y-184030952D01*
X174125714Y-183840476D01*
X174173333Y-183745238D01*
X174268571Y-183650000D01*
X174411428Y-183602380D01*
X174506666Y-183602380D01*
X174649523Y-183650000D01*
X174697142Y-183697619D01*
X175030476Y-183602380D02*
X175649523Y-183602380D01*
X175316190Y-183983333D01*
X175459047Y-183983333D01*
X175554285Y-184030952D01*
X175601904Y-184078571D01*
X175649523Y-184173809D01*
X175649523Y-184411904D01*
X175601904Y-184507142D01*
X175554285Y-184554761D01*
X175459047Y-184602380D01*
X175173333Y-184602380D01*
X175078095Y-184554761D01*
X175030476Y-184507142D01*
X176601904Y-184602380D02*
X176030476Y-184602380D01*
X176316190Y-184602380D02*
X176316190Y-183602380D01*
X176220952Y-183745238D01*
X176125714Y-183840476D01*
X176030476Y-183888095D01*
%TO.C,C30*%
X190277142Y-162610014D02*
X190324761Y-162657633D01*
X190372380Y-162800490D01*
X190372380Y-162895728D01*
X190324761Y-163038585D01*
X190229523Y-163133823D01*
X190134285Y-163181442D01*
X189943809Y-163229061D01*
X189800952Y-163229061D01*
X189610476Y-163181442D01*
X189515238Y-163133823D01*
X189420000Y-163038585D01*
X189372380Y-162895728D01*
X189372380Y-162800490D01*
X189420000Y-162657633D01*
X189467619Y-162610014D01*
X189372380Y-162276680D02*
X189372380Y-161657633D01*
X189753333Y-161990966D01*
X189753333Y-161848109D01*
X189800952Y-161752871D01*
X189848571Y-161705252D01*
X189943809Y-161657633D01*
X190181904Y-161657633D01*
X190277142Y-161705252D01*
X190324761Y-161752871D01*
X190372380Y-161848109D01*
X190372380Y-162133823D01*
X190324761Y-162229061D01*
X190277142Y-162276680D01*
X189372380Y-161038585D02*
X189372380Y-160943347D01*
X189420000Y-160848109D01*
X189467619Y-160800490D01*
X189562857Y-160752871D01*
X189753333Y-160705252D01*
X189991428Y-160705252D01*
X190181904Y-160752871D01*
X190277142Y-160800490D01*
X190324761Y-160848109D01*
X190372380Y-160943347D01*
X190372380Y-161038585D01*
X190324761Y-161133823D01*
X190277142Y-161181442D01*
X190181904Y-161229061D01*
X189991428Y-161276680D01*
X189753333Y-161276680D01*
X189562857Y-161229061D01*
X189467619Y-161181442D01*
X189420000Y-161133823D01*
X189372380Y-161038585D01*
%TO.C,C29*%
X180087142Y-181707142D02*
X180039523Y-181754761D01*
X179896666Y-181802380D01*
X179801428Y-181802380D01*
X179658571Y-181754761D01*
X179563333Y-181659523D01*
X179515714Y-181564285D01*
X179468095Y-181373809D01*
X179468095Y-181230952D01*
X179515714Y-181040476D01*
X179563333Y-180945238D01*
X179658571Y-180850000D01*
X179801428Y-180802380D01*
X179896666Y-180802380D01*
X180039523Y-180850000D01*
X180087142Y-180897619D01*
X180468095Y-180897619D02*
X180515714Y-180850000D01*
X180610952Y-180802380D01*
X180849047Y-180802380D01*
X180944285Y-180850000D01*
X180991904Y-180897619D01*
X181039523Y-180992857D01*
X181039523Y-181088095D01*
X180991904Y-181230952D01*
X180420476Y-181802380D01*
X181039523Y-181802380D01*
X181515714Y-181802380D02*
X181706190Y-181802380D01*
X181801428Y-181754761D01*
X181849047Y-181707142D01*
X181944285Y-181564285D01*
X181991904Y-181373809D01*
X181991904Y-180992857D01*
X181944285Y-180897619D01*
X181896666Y-180850000D01*
X181801428Y-180802380D01*
X181610952Y-180802380D01*
X181515714Y-180850000D01*
X181468095Y-180897619D01*
X181420476Y-180992857D01*
X181420476Y-181230952D01*
X181468095Y-181326190D01*
X181515714Y-181373809D01*
X181610952Y-181421428D01*
X181801428Y-181421428D01*
X181896666Y-181373809D01*
X181944285Y-181326190D01*
X181991904Y-181230952D01*
%TO.C,C28*%
X187382142Y-163245014D02*
X187429761Y-163292633D01*
X187477380Y-163435490D01*
X187477380Y-163530728D01*
X187429761Y-163673585D01*
X187334523Y-163768823D01*
X187239285Y-163816442D01*
X187048809Y-163864061D01*
X186905952Y-163864061D01*
X186715476Y-163816442D01*
X186620238Y-163768823D01*
X186525000Y-163673585D01*
X186477380Y-163530728D01*
X186477380Y-163435490D01*
X186525000Y-163292633D01*
X186572619Y-163245014D01*
X186572619Y-162864061D02*
X186525000Y-162816442D01*
X186477380Y-162721204D01*
X186477380Y-162483109D01*
X186525000Y-162387871D01*
X186572619Y-162340252D01*
X186667857Y-162292633D01*
X186763095Y-162292633D01*
X186905952Y-162340252D01*
X187477380Y-162911680D01*
X187477380Y-162292633D01*
X186905952Y-161721204D02*
X186858333Y-161816442D01*
X186810714Y-161864061D01*
X186715476Y-161911680D01*
X186667857Y-161911680D01*
X186572619Y-161864061D01*
X186525000Y-161816442D01*
X186477380Y-161721204D01*
X186477380Y-161530728D01*
X186525000Y-161435490D01*
X186572619Y-161387871D01*
X186667857Y-161340252D01*
X186715476Y-161340252D01*
X186810714Y-161387871D01*
X186858333Y-161435490D01*
X186905952Y-161530728D01*
X186905952Y-161721204D01*
X186953571Y-161816442D01*
X187001190Y-161864061D01*
X187096428Y-161911680D01*
X187286904Y-161911680D01*
X187382142Y-161864061D01*
X187429761Y-161816442D01*
X187477380Y-161721204D01*
X187477380Y-161530728D01*
X187429761Y-161435490D01*
X187382142Y-161387871D01*
X187286904Y-161340252D01*
X187096428Y-161340252D01*
X187001190Y-161387871D01*
X186953571Y-161435490D01*
X186905952Y-161530728D01*
%TO.C,C27*%
X130257142Y-173272857D02*
X130304761Y-173320476D01*
X130352380Y-173463333D01*
X130352380Y-173558571D01*
X130304761Y-173701428D01*
X130209523Y-173796666D01*
X130114285Y-173844285D01*
X129923809Y-173891904D01*
X129780952Y-173891904D01*
X129590476Y-173844285D01*
X129495238Y-173796666D01*
X129400000Y-173701428D01*
X129352380Y-173558571D01*
X129352380Y-173463333D01*
X129400000Y-173320476D01*
X129447619Y-173272857D01*
X129447619Y-172891904D02*
X129400000Y-172844285D01*
X129352380Y-172749047D01*
X129352380Y-172510952D01*
X129400000Y-172415714D01*
X129447619Y-172368095D01*
X129542857Y-172320476D01*
X129638095Y-172320476D01*
X129780952Y-172368095D01*
X130352380Y-172939523D01*
X130352380Y-172320476D01*
X129352380Y-171987142D02*
X129352380Y-171320476D01*
X130352380Y-171749047D01*
%TO.C,C26*%
X126767142Y-175772857D02*
X126814761Y-175820476D01*
X126862380Y-175963333D01*
X126862380Y-176058571D01*
X126814761Y-176201428D01*
X126719523Y-176296666D01*
X126624285Y-176344285D01*
X126433809Y-176391904D01*
X126290952Y-176391904D01*
X126100476Y-176344285D01*
X126005238Y-176296666D01*
X125910000Y-176201428D01*
X125862380Y-176058571D01*
X125862380Y-175963333D01*
X125910000Y-175820476D01*
X125957619Y-175772857D01*
X125957619Y-175391904D02*
X125910000Y-175344285D01*
X125862380Y-175249047D01*
X125862380Y-175010952D01*
X125910000Y-174915714D01*
X125957619Y-174868095D01*
X126052857Y-174820476D01*
X126148095Y-174820476D01*
X126290952Y-174868095D01*
X126862380Y-175439523D01*
X126862380Y-174820476D01*
X125862380Y-173963333D02*
X125862380Y-174153809D01*
X125910000Y-174249047D01*
X125957619Y-174296666D01*
X126100476Y-174391904D01*
X126290952Y-174439523D01*
X126671904Y-174439523D01*
X126767142Y-174391904D01*
X126814761Y-174344285D01*
X126862380Y-174249047D01*
X126862380Y-174058571D01*
X126814761Y-173963333D01*
X126767142Y-173915714D01*
X126671904Y-173868095D01*
X126433809Y-173868095D01*
X126338571Y-173915714D01*
X126290952Y-173963333D01*
X126243333Y-174058571D01*
X126243333Y-174249047D01*
X126290952Y-174344285D01*
X126338571Y-174391904D01*
X126433809Y-174439523D01*
%TO.C,C25*%
X132460142Y-179237857D02*
X132507761Y-179285476D01*
X132555380Y-179428333D01*
X132555380Y-179523571D01*
X132507761Y-179666428D01*
X132412523Y-179761666D01*
X132317285Y-179809285D01*
X132126809Y-179856904D01*
X131983952Y-179856904D01*
X131793476Y-179809285D01*
X131698238Y-179761666D01*
X131603000Y-179666428D01*
X131555380Y-179523571D01*
X131555380Y-179428333D01*
X131603000Y-179285476D01*
X131650619Y-179237857D01*
X131650619Y-178856904D02*
X131603000Y-178809285D01*
X131555380Y-178714047D01*
X131555380Y-178475952D01*
X131603000Y-178380714D01*
X131650619Y-178333095D01*
X131745857Y-178285476D01*
X131841095Y-178285476D01*
X131983952Y-178333095D01*
X132555380Y-178904523D01*
X132555380Y-178285476D01*
X131555380Y-177380714D02*
X131555380Y-177856904D01*
X132031571Y-177904523D01*
X131983952Y-177856904D01*
X131936333Y-177761666D01*
X131936333Y-177523571D01*
X131983952Y-177428333D01*
X132031571Y-177380714D01*
X132126809Y-177333095D01*
X132364904Y-177333095D01*
X132460142Y-177380714D01*
X132507761Y-177428333D01*
X132555380Y-177523571D01*
X132555380Y-177761666D01*
X132507761Y-177856904D01*
X132460142Y-177904523D01*
%TO.C,C24*%
X101867142Y-156682857D02*
X101914761Y-156730476D01*
X101962380Y-156873333D01*
X101962380Y-156968571D01*
X101914761Y-157111428D01*
X101819523Y-157206666D01*
X101724285Y-157254285D01*
X101533809Y-157301904D01*
X101390952Y-157301904D01*
X101200476Y-157254285D01*
X101105238Y-157206666D01*
X101010000Y-157111428D01*
X100962380Y-156968571D01*
X100962380Y-156873333D01*
X101010000Y-156730476D01*
X101057619Y-156682857D01*
X101057619Y-156301904D02*
X101010000Y-156254285D01*
X100962380Y-156159047D01*
X100962380Y-155920952D01*
X101010000Y-155825714D01*
X101057619Y-155778095D01*
X101152857Y-155730476D01*
X101248095Y-155730476D01*
X101390952Y-155778095D01*
X101962380Y-156349523D01*
X101962380Y-155730476D01*
X101295714Y-154873333D02*
X101962380Y-154873333D01*
X100914761Y-155111428D02*
X101629047Y-155349523D01*
X101629047Y-154730476D01*
%TO.C,C23*%
X108667142Y-156642857D02*
X108714761Y-156690476D01*
X108762380Y-156833333D01*
X108762380Y-156928571D01*
X108714761Y-157071428D01*
X108619523Y-157166666D01*
X108524285Y-157214285D01*
X108333809Y-157261904D01*
X108190952Y-157261904D01*
X108000476Y-157214285D01*
X107905238Y-157166666D01*
X107810000Y-157071428D01*
X107762380Y-156928571D01*
X107762380Y-156833333D01*
X107810000Y-156690476D01*
X107857619Y-156642857D01*
X107857619Y-156261904D02*
X107810000Y-156214285D01*
X107762380Y-156119047D01*
X107762380Y-155880952D01*
X107810000Y-155785714D01*
X107857619Y-155738095D01*
X107952857Y-155690476D01*
X108048095Y-155690476D01*
X108190952Y-155738095D01*
X108762380Y-156309523D01*
X108762380Y-155690476D01*
X107762380Y-155357142D02*
X107762380Y-154738095D01*
X108143333Y-155071428D01*
X108143333Y-154928571D01*
X108190952Y-154833333D01*
X108238571Y-154785714D01*
X108333809Y-154738095D01*
X108571904Y-154738095D01*
X108667142Y-154785714D01*
X108714761Y-154833333D01*
X108762380Y-154928571D01*
X108762380Y-155214285D01*
X108714761Y-155309523D01*
X108667142Y-155357142D01*
%TO.C,C22*%
X166327142Y-126807142D02*
X166279523Y-126854761D01*
X166136666Y-126902380D01*
X166041428Y-126902380D01*
X165898571Y-126854761D01*
X165803333Y-126759523D01*
X165755714Y-126664285D01*
X165708095Y-126473809D01*
X165708095Y-126330952D01*
X165755714Y-126140476D01*
X165803333Y-126045238D01*
X165898571Y-125950000D01*
X166041428Y-125902380D01*
X166136666Y-125902380D01*
X166279523Y-125950000D01*
X166327142Y-125997619D01*
X166708095Y-125997619D02*
X166755714Y-125950000D01*
X166850952Y-125902380D01*
X167089047Y-125902380D01*
X167184285Y-125950000D01*
X167231904Y-125997619D01*
X167279523Y-126092857D01*
X167279523Y-126188095D01*
X167231904Y-126330952D01*
X166660476Y-126902380D01*
X167279523Y-126902380D01*
X167660476Y-125997619D02*
X167708095Y-125950000D01*
X167803333Y-125902380D01*
X168041428Y-125902380D01*
X168136666Y-125950000D01*
X168184285Y-125997619D01*
X168231904Y-126092857D01*
X168231904Y-126188095D01*
X168184285Y-126330952D01*
X167612857Y-126902380D01*
X168231904Y-126902380D01*
%TO.C,C21*%
X166327142Y-129197142D02*
X166279523Y-129244761D01*
X166136666Y-129292380D01*
X166041428Y-129292380D01*
X165898571Y-129244761D01*
X165803333Y-129149523D01*
X165755714Y-129054285D01*
X165708095Y-128863809D01*
X165708095Y-128720952D01*
X165755714Y-128530476D01*
X165803333Y-128435238D01*
X165898571Y-128340000D01*
X166041428Y-128292380D01*
X166136666Y-128292380D01*
X166279523Y-128340000D01*
X166327142Y-128387619D01*
X166708095Y-128387619D02*
X166755714Y-128340000D01*
X166850952Y-128292380D01*
X167089047Y-128292380D01*
X167184285Y-128340000D01*
X167231904Y-128387619D01*
X167279523Y-128482857D01*
X167279523Y-128578095D01*
X167231904Y-128720952D01*
X166660476Y-129292380D01*
X167279523Y-129292380D01*
X168231904Y-129292380D02*
X167660476Y-129292380D01*
X167946190Y-129292380D02*
X167946190Y-128292380D01*
X167850952Y-128435238D01*
X167755714Y-128530476D01*
X167660476Y-128578095D01*
%TO.C,C19*%
X102172142Y-133477857D02*
X102219761Y-133525476D01*
X102267380Y-133668333D01*
X102267380Y-133763571D01*
X102219761Y-133906428D01*
X102124523Y-134001666D01*
X102029285Y-134049285D01*
X101838809Y-134096904D01*
X101695952Y-134096904D01*
X101505476Y-134049285D01*
X101410238Y-134001666D01*
X101315000Y-133906428D01*
X101267380Y-133763571D01*
X101267380Y-133668333D01*
X101315000Y-133525476D01*
X101362619Y-133477857D01*
X102267380Y-132525476D02*
X102267380Y-133096904D01*
X102267380Y-132811190D02*
X101267380Y-132811190D01*
X101410238Y-132906428D01*
X101505476Y-133001666D01*
X101553095Y-133096904D01*
X102267380Y-132049285D02*
X102267380Y-131858809D01*
X102219761Y-131763571D01*
X102172142Y-131715952D01*
X102029285Y-131620714D01*
X101838809Y-131573095D01*
X101457857Y-131573095D01*
X101362619Y-131620714D01*
X101315000Y-131668333D01*
X101267380Y-131763571D01*
X101267380Y-131954047D01*
X101315000Y-132049285D01*
X101362619Y-132096904D01*
X101457857Y-132144523D01*
X101695952Y-132144523D01*
X101791190Y-132096904D01*
X101838809Y-132049285D01*
X101886428Y-131954047D01*
X101886428Y-131763571D01*
X101838809Y-131668333D01*
X101791190Y-131620714D01*
X101695952Y-131573095D01*
%TO.C,C18*%
X115102142Y-141327857D02*
X115149761Y-141375476D01*
X115197380Y-141518333D01*
X115197380Y-141613571D01*
X115149761Y-141756428D01*
X115054523Y-141851666D01*
X114959285Y-141899285D01*
X114768809Y-141946904D01*
X114625952Y-141946904D01*
X114435476Y-141899285D01*
X114340238Y-141851666D01*
X114245000Y-141756428D01*
X114197380Y-141613571D01*
X114197380Y-141518333D01*
X114245000Y-141375476D01*
X114292619Y-141327857D01*
X115197380Y-140375476D02*
X115197380Y-140946904D01*
X115197380Y-140661190D02*
X114197380Y-140661190D01*
X114340238Y-140756428D01*
X114435476Y-140851666D01*
X114483095Y-140946904D01*
X114625952Y-139804047D02*
X114578333Y-139899285D01*
X114530714Y-139946904D01*
X114435476Y-139994523D01*
X114387857Y-139994523D01*
X114292619Y-139946904D01*
X114245000Y-139899285D01*
X114197380Y-139804047D01*
X114197380Y-139613571D01*
X114245000Y-139518333D01*
X114292619Y-139470714D01*
X114387857Y-139423095D01*
X114435476Y-139423095D01*
X114530714Y-139470714D01*
X114578333Y-139518333D01*
X114625952Y-139613571D01*
X114625952Y-139804047D01*
X114673571Y-139899285D01*
X114721190Y-139946904D01*
X114816428Y-139994523D01*
X115006904Y-139994523D01*
X115102142Y-139946904D01*
X115149761Y-139899285D01*
X115197380Y-139804047D01*
X115197380Y-139613571D01*
X115149761Y-139518333D01*
X115102142Y-139470714D01*
X115006904Y-139423095D01*
X114816428Y-139423095D01*
X114721190Y-139470714D01*
X114673571Y-139518333D01*
X114625952Y-139613571D01*
%TO.C,C17*%
X106382142Y-143432142D02*
X106334523Y-143479761D01*
X106191666Y-143527380D01*
X106096428Y-143527380D01*
X105953571Y-143479761D01*
X105858333Y-143384523D01*
X105810714Y-143289285D01*
X105763095Y-143098809D01*
X105763095Y-142955952D01*
X105810714Y-142765476D01*
X105858333Y-142670238D01*
X105953571Y-142575000D01*
X106096428Y-142527380D01*
X106191666Y-142527380D01*
X106334523Y-142575000D01*
X106382142Y-142622619D01*
X107334523Y-143527380D02*
X106763095Y-143527380D01*
X107048809Y-143527380D02*
X107048809Y-142527380D01*
X106953571Y-142670238D01*
X106858333Y-142765476D01*
X106763095Y-142813095D01*
X107667857Y-142527380D02*
X108334523Y-142527380D01*
X107905952Y-143527380D01*
%TO.C,C16*%
X108417142Y-133442857D02*
X108464761Y-133490476D01*
X108512380Y-133633333D01*
X108512380Y-133728571D01*
X108464761Y-133871428D01*
X108369523Y-133966666D01*
X108274285Y-134014285D01*
X108083809Y-134061904D01*
X107940952Y-134061904D01*
X107750476Y-134014285D01*
X107655238Y-133966666D01*
X107560000Y-133871428D01*
X107512380Y-133728571D01*
X107512380Y-133633333D01*
X107560000Y-133490476D01*
X107607619Y-133442857D01*
X108512380Y-132490476D02*
X108512380Y-133061904D01*
X108512380Y-132776190D02*
X107512380Y-132776190D01*
X107655238Y-132871428D01*
X107750476Y-132966666D01*
X107798095Y-133061904D01*
X107512380Y-131633333D02*
X107512380Y-131823809D01*
X107560000Y-131919047D01*
X107607619Y-131966666D01*
X107750476Y-132061904D01*
X107940952Y-132109523D01*
X108321904Y-132109523D01*
X108417142Y-132061904D01*
X108464761Y-132014285D01*
X108512380Y-131919047D01*
X108512380Y-131728571D01*
X108464761Y-131633333D01*
X108417142Y-131585714D01*
X108321904Y-131538095D01*
X108083809Y-131538095D01*
X107988571Y-131585714D01*
X107940952Y-131633333D01*
X107893333Y-131728571D01*
X107893333Y-131919047D01*
X107940952Y-132014285D01*
X107988571Y-132061904D01*
X108083809Y-132109523D01*
%TO.C,C15*%
X122942142Y-138052142D02*
X122894523Y-138099761D01*
X122751666Y-138147380D01*
X122656428Y-138147380D01*
X122513571Y-138099761D01*
X122418333Y-138004523D01*
X122370714Y-137909285D01*
X122323095Y-137718809D01*
X122323095Y-137575952D01*
X122370714Y-137385476D01*
X122418333Y-137290238D01*
X122513571Y-137195000D01*
X122656428Y-137147380D01*
X122751666Y-137147380D01*
X122894523Y-137195000D01*
X122942142Y-137242619D01*
X123894523Y-138147380D02*
X123323095Y-138147380D01*
X123608809Y-138147380D02*
X123608809Y-137147380D01*
X123513571Y-137290238D01*
X123418333Y-137385476D01*
X123323095Y-137433095D01*
X124799285Y-137147380D02*
X124323095Y-137147380D01*
X124275476Y-137623571D01*
X124323095Y-137575952D01*
X124418333Y-137528333D01*
X124656428Y-137528333D01*
X124751666Y-137575952D01*
X124799285Y-137623571D01*
X124846904Y-137718809D01*
X124846904Y-137956904D01*
X124799285Y-138052142D01*
X124751666Y-138099761D01*
X124656428Y-138147380D01*
X124418333Y-138147380D01*
X124323095Y-138099761D01*
X124275476Y-138052142D01*
%TO.C,C13*%
X117457142Y-140162857D02*
X117504761Y-140210476D01*
X117552380Y-140353333D01*
X117552380Y-140448571D01*
X117504761Y-140591428D01*
X117409523Y-140686666D01*
X117314285Y-140734285D01*
X117123809Y-140781904D01*
X116980952Y-140781904D01*
X116790476Y-140734285D01*
X116695238Y-140686666D01*
X116600000Y-140591428D01*
X116552380Y-140448571D01*
X116552380Y-140353333D01*
X116600000Y-140210476D01*
X116647619Y-140162857D01*
X117552380Y-139210476D02*
X117552380Y-139781904D01*
X117552380Y-139496190D02*
X116552380Y-139496190D01*
X116695238Y-139591428D01*
X116790476Y-139686666D01*
X116838095Y-139781904D01*
X116552380Y-138877142D02*
X116552380Y-138258095D01*
X116933333Y-138591428D01*
X116933333Y-138448571D01*
X116980952Y-138353333D01*
X117028571Y-138305714D01*
X117123809Y-138258095D01*
X117361904Y-138258095D01*
X117457142Y-138305714D01*
X117504761Y-138353333D01*
X117552380Y-138448571D01*
X117552380Y-138734285D01*
X117504761Y-138829523D01*
X117457142Y-138877142D01*
%TO.C,C12*%
X104127142Y-125527142D02*
X104079523Y-125574761D01*
X103936666Y-125622380D01*
X103841428Y-125622380D01*
X103698571Y-125574761D01*
X103603333Y-125479523D01*
X103555714Y-125384285D01*
X103508095Y-125193809D01*
X103508095Y-125050952D01*
X103555714Y-124860476D01*
X103603333Y-124765238D01*
X103698571Y-124670000D01*
X103841428Y-124622380D01*
X103936666Y-124622380D01*
X104079523Y-124670000D01*
X104127142Y-124717619D01*
X105079523Y-125622380D02*
X104508095Y-125622380D01*
X104793809Y-125622380D02*
X104793809Y-124622380D01*
X104698571Y-124765238D01*
X104603333Y-124860476D01*
X104508095Y-124908095D01*
X105460476Y-124717619D02*
X105508095Y-124670000D01*
X105603333Y-124622380D01*
X105841428Y-124622380D01*
X105936666Y-124670000D01*
X105984285Y-124717619D01*
X106031904Y-124812857D01*
X106031904Y-124908095D01*
X105984285Y-125050952D01*
X105412857Y-125622380D01*
X106031904Y-125622380D01*
%TO.C,C11*%
X104377142Y-123387142D02*
X104329523Y-123434761D01*
X104186666Y-123482380D01*
X104091428Y-123482380D01*
X103948571Y-123434761D01*
X103853333Y-123339523D01*
X103805714Y-123244285D01*
X103758095Y-123053809D01*
X103758095Y-122910952D01*
X103805714Y-122720476D01*
X103853333Y-122625238D01*
X103948571Y-122530000D01*
X104091428Y-122482380D01*
X104186666Y-122482380D01*
X104329523Y-122530000D01*
X104377142Y-122577619D01*
X105329523Y-123482380D02*
X104758095Y-123482380D01*
X105043809Y-123482380D02*
X105043809Y-122482380D01*
X104948571Y-122625238D01*
X104853333Y-122720476D01*
X104758095Y-122768095D01*
X106281904Y-123482380D02*
X105710476Y-123482380D01*
X105996190Y-123482380D02*
X105996190Y-122482380D01*
X105900952Y-122625238D01*
X105805714Y-122720476D01*
X105710476Y-122768095D01*
%TO.C,C10*%
X104247142Y-127647142D02*
X104199523Y-127694761D01*
X104056666Y-127742380D01*
X103961428Y-127742380D01*
X103818571Y-127694761D01*
X103723333Y-127599523D01*
X103675714Y-127504285D01*
X103628095Y-127313809D01*
X103628095Y-127170952D01*
X103675714Y-126980476D01*
X103723333Y-126885238D01*
X103818571Y-126790000D01*
X103961428Y-126742380D01*
X104056666Y-126742380D01*
X104199523Y-126790000D01*
X104247142Y-126837619D01*
X105199523Y-127742380D02*
X104628095Y-127742380D01*
X104913809Y-127742380D02*
X104913809Y-126742380D01*
X104818571Y-126885238D01*
X104723333Y-126980476D01*
X104628095Y-127028095D01*
X105818571Y-126742380D02*
X105913809Y-126742380D01*
X106009047Y-126790000D01*
X106056666Y-126837619D01*
X106104285Y-126932857D01*
X106151904Y-127123333D01*
X106151904Y-127361428D01*
X106104285Y-127551904D01*
X106056666Y-127647142D01*
X106009047Y-127694761D01*
X105913809Y-127742380D01*
X105818571Y-127742380D01*
X105723333Y-127694761D01*
X105675714Y-127647142D01*
X105628095Y-127551904D01*
X105580476Y-127361428D01*
X105580476Y-127123333D01*
X105628095Y-126932857D01*
X105675714Y-126837619D01*
X105723333Y-126790000D01*
X105818571Y-126742380D01*
%TO.C,C9*%
X102078333Y-103232142D02*
X102030714Y-103279761D01*
X101887857Y-103327380D01*
X101792619Y-103327380D01*
X101649761Y-103279761D01*
X101554523Y-103184523D01*
X101506904Y-103089285D01*
X101459285Y-102898809D01*
X101459285Y-102755952D01*
X101506904Y-102565476D01*
X101554523Y-102470238D01*
X101649761Y-102375000D01*
X101792619Y-102327380D01*
X101887857Y-102327380D01*
X102030714Y-102375000D01*
X102078333Y-102422619D01*
X102554523Y-103327380D02*
X102745000Y-103327380D01*
X102840238Y-103279761D01*
X102887857Y-103232142D01*
X102983095Y-103089285D01*
X103030714Y-102898809D01*
X103030714Y-102517857D01*
X102983095Y-102422619D01*
X102935476Y-102375000D01*
X102840238Y-102327380D01*
X102649761Y-102327380D01*
X102554523Y-102375000D01*
X102506904Y-102422619D01*
X102459285Y-102517857D01*
X102459285Y-102755952D01*
X102506904Y-102851190D01*
X102554523Y-102898809D01*
X102649761Y-102946428D01*
X102840238Y-102946428D01*
X102935476Y-102898809D01*
X102983095Y-102851190D01*
X103030714Y-102755952D01*
%TO.C,C8*%
X118693333Y-97047142D02*
X118645714Y-97094761D01*
X118502857Y-97142380D01*
X118407619Y-97142380D01*
X118264761Y-97094761D01*
X118169523Y-96999523D01*
X118121904Y-96904285D01*
X118074285Y-96713809D01*
X118074285Y-96570952D01*
X118121904Y-96380476D01*
X118169523Y-96285238D01*
X118264761Y-96190000D01*
X118407619Y-96142380D01*
X118502857Y-96142380D01*
X118645714Y-96190000D01*
X118693333Y-96237619D01*
X119264761Y-96570952D02*
X119169523Y-96523333D01*
X119121904Y-96475714D01*
X119074285Y-96380476D01*
X119074285Y-96332857D01*
X119121904Y-96237619D01*
X119169523Y-96190000D01*
X119264761Y-96142380D01*
X119455238Y-96142380D01*
X119550476Y-96190000D01*
X119598095Y-96237619D01*
X119645714Y-96332857D01*
X119645714Y-96380476D01*
X119598095Y-96475714D01*
X119550476Y-96523333D01*
X119455238Y-96570952D01*
X119264761Y-96570952D01*
X119169523Y-96618571D01*
X119121904Y-96666190D01*
X119074285Y-96761428D01*
X119074285Y-96951904D01*
X119121904Y-97047142D01*
X119169523Y-97094761D01*
X119264761Y-97142380D01*
X119455238Y-97142380D01*
X119550476Y-97094761D01*
X119598095Y-97047142D01*
X119645714Y-96951904D01*
X119645714Y-96761428D01*
X119598095Y-96666190D01*
X119550476Y-96618571D01*
X119455238Y-96570952D01*
%TO.C,C7*%
X118943333Y-94467142D02*
X118895714Y-94514761D01*
X118752857Y-94562380D01*
X118657619Y-94562380D01*
X118514761Y-94514761D01*
X118419523Y-94419523D01*
X118371904Y-94324285D01*
X118324285Y-94133809D01*
X118324285Y-93990952D01*
X118371904Y-93800476D01*
X118419523Y-93705238D01*
X118514761Y-93610000D01*
X118657619Y-93562380D01*
X118752857Y-93562380D01*
X118895714Y-93610000D01*
X118943333Y-93657619D01*
X119276666Y-93562380D02*
X119943333Y-93562380D01*
X119514761Y-94562380D01*
%TO.C,C6*%
X182263333Y-117017142D02*
X182215714Y-117064761D01*
X182072857Y-117112380D01*
X181977619Y-117112380D01*
X181834761Y-117064761D01*
X181739523Y-116969523D01*
X181691904Y-116874285D01*
X181644285Y-116683809D01*
X181644285Y-116540952D01*
X181691904Y-116350476D01*
X181739523Y-116255238D01*
X181834761Y-116160000D01*
X181977619Y-116112380D01*
X182072857Y-116112380D01*
X182215714Y-116160000D01*
X182263333Y-116207619D01*
X183120476Y-116112380D02*
X182930000Y-116112380D01*
X182834761Y-116160000D01*
X182787142Y-116207619D01*
X182691904Y-116350476D01*
X182644285Y-116540952D01*
X182644285Y-116921904D01*
X182691904Y-117017142D01*
X182739523Y-117064761D01*
X182834761Y-117112380D01*
X183025238Y-117112380D01*
X183120476Y-117064761D01*
X183168095Y-117017142D01*
X183215714Y-116921904D01*
X183215714Y-116683809D01*
X183168095Y-116588571D01*
X183120476Y-116540952D01*
X183025238Y-116493333D01*
X182834761Y-116493333D01*
X182739523Y-116540952D01*
X182691904Y-116588571D01*
X182644285Y-116683809D01*
%TO.C,C5*%
X182333333Y-114347142D02*
X182285714Y-114394761D01*
X182142857Y-114442380D01*
X182047619Y-114442380D01*
X181904761Y-114394761D01*
X181809523Y-114299523D01*
X181761904Y-114204285D01*
X181714285Y-114013809D01*
X181714285Y-113870952D01*
X181761904Y-113680476D01*
X181809523Y-113585238D01*
X181904761Y-113490000D01*
X182047619Y-113442380D01*
X182142857Y-113442380D01*
X182285714Y-113490000D01*
X182333333Y-113537619D01*
X183238095Y-113442380D02*
X182761904Y-113442380D01*
X182714285Y-113918571D01*
X182761904Y-113870952D01*
X182857142Y-113823333D01*
X183095238Y-113823333D01*
X183190476Y-113870952D01*
X183238095Y-113918571D01*
X183285714Y-114013809D01*
X183285714Y-114251904D01*
X183238095Y-114347142D01*
X183190476Y-114394761D01*
X183095238Y-114442380D01*
X182857142Y-114442380D01*
X182761904Y-114394761D01*
X182714285Y-114347142D01*
%TO.C,C4*%
X168833333Y-116227142D02*
X168785714Y-116274761D01*
X168642857Y-116322380D01*
X168547619Y-116322380D01*
X168404761Y-116274761D01*
X168309523Y-116179523D01*
X168261904Y-116084285D01*
X168214285Y-115893809D01*
X168214285Y-115750952D01*
X168261904Y-115560476D01*
X168309523Y-115465238D01*
X168404761Y-115370000D01*
X168547619Y-115322380D01*
X168642857Y-115322380D01*
X168785714Y-115370000D01*
X168833333Y-115417619D01*
X169690476Y-115655714D02*
X169690476Y-116322380D01*
X169452380Y-115274761D02*
X169214285Y-115989047D01*
X169833333Y-115989047D01*
%TO.C,C3*%
X168894333Y-113752142D02*
X168846714Y-113799761D01*
X168703857Y-113847380D01*
X168608619Y-113847380D01*
X168465761Y-113799761D01*
X168370523Y-113704523D01*
X168322904Y-113609285D01*
X168275285Y-113418809D01*
X168275285Y-113275952D01*
X168322904Y-113085476D01*
X168370523Y-112990238D01*
X168465761Y-112895000D01*
X168608619Y-112847380D01*
X168703857Y-112847380D01*
X168846714Y-112895000D01*
X168894333Y-112942619D01*
X169227666Y-112847380D02*
X169846714Y-112847380D01*
X169513380Y-113228333D01*
X169656238Y-113228333D01*
X169751476Y-113275952D01*
X169799095Y-113323571D01*
X169846714Y-113418809D01*
X169846714Y-113656904D01*
X169799095Y-113752142D01*
X169751476Y-113799761D01*
X169656238Y-113847380D01*
X169370523Y-113847380D01*
X169275285Y-113799761D01*
X169227666Y-113752142D01*
%TO.C,C2*%
X175708333Y-117372142D02*
X175660714Y-117419761D01*
X175517857Y-117467380D01*
X175422619Y-117467380D01*
X175279761Y-117419761D01*
X175184523Y-117324523D01*
X175136904Y-117229285D01*
X175089285Y-117038809D01*
X175089285Y-116895952D01*
X175136904Y-116705476D01*
X175184523Y-116610238D01*
X175279761Y-116515000D01*
X175422619Y-116467380D01*
X175517857Y-116467380D01*
X175660714Y-116515000D01*
X175708333Y-116562619D01*
X176089285Y-116562619D02*
X176136904Y-116515000D01*
X176232142Y-116467380D01*
X176470238Y-116467380D01*
X176565476Y-116515000D01*
X176613095Y-116562619D01*
X176660714Y-116657857D01*
X176660714Y-116753095D01*
X176613095Y-116895952D01*
X176041666Y-117467380D01*
X176660714Y-117467380D01*
%TO.C,C1*%
X175668333Y-114872142D02*
X175620714Y-114919761D01*
X175477857Y-114967380D01*
X175382619Y-114967380D01*
X175239761Y-114919761D01*
X175144523Y-114824523D01*
X175096904Y-114729285D01*
X175049285Y-114538809D01*
X175049285Y-114395952D01*
X175096904Y-114205476D01*
X175144523Y-114110238D01*
X175239761Y-114015000D01*
X175382619Y-113967380D01*
X175477857Y-113967380D01*
X175620714Y-114015000D01*
X175668333Y-114062619D01*
X176620714Y-114967380D02*
X176049285Y-114967380D01*
X176335000Y-114967380D02*
X176335000Y-113967380D01*
X176239761Y-114110238D01*
X176144523Y-114205476D01*
X176049285Y-114253095D01*
D12*
%TO.C,BT1*%
X139358942Y-90022485D02*
X139540371Y-90082961D01*
X139600847Y-90143438D01*
X139661323Y-90264390D01*
X139661323Y-90445819D01*
X139600847Y-90566771D01*
X139540371Y-90627247D01*
X139419419Y-90687723D01*
X138935609Y-90687723D01*
X138935609Y-89417723D01*
X139358942Y-89417723D01*
X139479895Y-89478200D01*
X139540371Y-89538676D01*
X139600847Y-89659628D01*
X139600847Y-89780580D01*
X139540371Y-89901533D01*
X139479895Y-89962009D01*
X139358942Y-90022485D01*
X138935609Y-90022485D01*
X140024180Y-89417723D02*
X140749895Y-89417723D01*
X140387038Y-90687723D02*
X140387038Y-89417723D01*
X141838466Y-90687723D02*
X141112752Y-90687723D01*
X141475609Y-90687723D02*
X141475609Y-89417723D01*
X141354657Y-89599152D01*
X141233704Y-89720104D01*
X141112752Y-89780580D01*
D10*
%TO.C,AE3*%
X97597480Y-155422362D02*
X97597480Y-154972418D01*
X97867446Y-155512351D02*
X96922564Y-155197390D01*
X97867446Y-154882429D01*
X97372508Y-154567469D02*
X97372508Y-154252508D01*
X97867446Y-154117525D02*
X97867446Y-154567469D01*
X96922564Y-154567469D01*
X96922564Y-154117525D01*
X96922564Y-153802564D02*
X96922564Y-153217637D01*
X97282519Y-153532598D01*
X97282519Y-153397615D01*
X97327514Y-153307626D01*
X97372508Y-153262632D01*
X97462497Y-153217637D01*
X97687469Y-153217637D01*
X97777457Y-153262632D01*
X97822452Y-153307626D01*
X97867446Y-153397615D01*
X97867446Y-153667581D01*
X97822452Y-153757570D01*
X97777457Y-153802564D01*
%TO.C,AE2*%
X97737480Y-132322362D02*
X97737480Y-131872418D01*
X98007446Y-132412351D02*
X97062564Y-132097390D01*
X98007446Y-131782429D01*
X97512508Y-131467469D02*
X97512508Y-131152508D01*
X98007446Y-131017525D02*
X98007446Y-131467469D01*
X97062564Y-131467469D01*
X97062564Y-131017525D01*
X97152553Y-130657570D02*
X97107559Y-130612575D01*
X97062564Y-130522587D01*
X97062564Y-130297615D01*
X97107559Y-130207626D01*
X97152553Y-130162632D01*
X97242542Y-130117637D01*
X97332530Y-130117637D01*
X97467514Y-130162632D01*
X98007446Y-130702564D01*
X98007446Y-130117637D01*
D13*
%TO.C,AE1*%
X99330000Y-103940000D02*
X96630000Y-103940000D01*
X99630000Y-102440000D02*
X99530000Y-102540000D01*
X99530000Y-100940000D02*
X100230000Y-100940000D01*
X96630000Y-99440000D02*
X99330000Y-99440000D01*
X100230000Y-100940000D02*
X100230000Y-102440000D01*
X96430000Y-100140000D02*
X96630000Y-100140000D01*
X99330000Y-100140000D02*
X99530000Y-100140000D01*
X99330000Y-103240000D02*
X99330000Y-103940000D01*
X95730000Y-102440000D02*
X95730000Y-100940000D01*
X96630000Y-103240000D02*
X96430000Y-103240000D01*
X99330000Y-99440000D02*
X99330000Y-100140000D01*
X96630000Y-103940000D02*
X96630000Y-103240000D01*
X99530000Y-102540000D02*
X99530000Y-103240000D01*
X96430000Y-102440000D02*
X95730000Y-102440000D01*
X96430000Y-100940000D02*
X96430000Y-100140000D01*
X95730000Y-100940000D02*
X96430000Y-100940000D01*
X100230000Y-102440000D02*
X99630000Y-102440000D01*
X99530000Y-103240000D02*
X99330000Y-103240000D01*
X99530000Y-100140000D02*
X99530000Y-100940000D01*
X96630000Y-100140000D02*
X96630000Y-99440000D01*
X96430000Y-103240000D02*
X96430000Y-102440000D01*
D14*
X98616155Y-101690000D02*
G75*
G03*
X98616155Y-101690000I-236155J0D01*
G01*
D13*
%TO.C,TP5*%
X114730000Y-146920000D02*
G75*
G03*
X114730000Y-146920000I-1750000J0D01*
G01*
%TO.C,TP4*%
X122980000Y-146870000D02*
G75*
G03*
X122980000Y-146870000I-1750000J0D01*
G01*
%TO.C,TP3*%
X135730000Y-147070000D02*
G75*
G03*
X135730000Y-147070000I-1750000J0D01*
G01*
%TO.C,TP2*%
X129270000Y-146690000D02*
G75*
G03*
X129270000Y-146690000I-1750000J0D01*
G01*
%TO.C,TP1*%
X105030000Y-168580000D02*
G75*
G03*
X105030000Y-168580000I-1750000J0D01*
G01*
%TO.C,Y2*%
X148970000Y-131330000D02*
G75*
G03*
X148970000Y-131330000I-2000000J0D01*
G01*
X148070000Y-130230000D02*
G75*
G03*
X148070000Y-130230000I0J0D01*
G01*
%TO.C,U9*%
X185008578Y-179505000D02*
X177658578Y-179505000D01*
X177658578Y-173155000D02*
X177658578Y-179505000D01*
X177658578Y-173155000D02*
X185008578Y-173155000D01*
X185008578Y-173155000D02*
X185008578Y-179505000D01*
D15*
X185829999Y-178235000D02*
G75*
G03*
X185829999Y-178235000I-171421J0D01*
G01*
D16*
%TO.C,U8*%
X113740000Y-155020000D02*
X126240000Y-155020000D01*
D11*
X126815000Y-165320000D02*
G75*
G03*
X126815000Y-165320000I-75000J0D01*
G01*
D16*
X126240000Y-166620000D02*
X126240000Y-155020000D01*
X113740000Y-166620000D02*
X126240000Y-166620000D01*
X113740000Y-155020000D02*
X113740000Y-166620000D01*
%TO.C,U7*%
X155080000Y-129910000D02*
X154680000Y-129910000D01*
X154680000Y-129910000D02*
X154680000Y-130310000D01*
X161280000Y-129910000D02*
X161680000Y-129910000D01*
X161680000Y-129910000D02*
X161680000Y-130310000D01*
X161280000Y-136910000D02*
X161680000Y-136910000D01*
X161680000Y-136910000D02*
X161680000Y-136510000D01*
X154680000Y-136510000D02*
X154680000Y-136910000D01*
X154680000Y-136910000D02*
X155080000Y-136910000D01*
D17*
X153930000Y-130660000D02*
G75*
G03*
X153930000Y-130660000I-100000J0D01*
G01*
D18*
%TO.C,U6*%
X120970000Y-136420000D02*
G75*
G03*
X120970000Y-136420000I-100000J0D01*
G01*
D16*
X119970000Y-137220000D02*
X119970000Y-136850000D01*
X119970000Y-131590000D02*
X119970000Y-131220000D01*
X119600000Y-137220000D02*
X119970000Y-137220000D01*
X113970000Y-137220000D02*
X114340000Y-137220000D01*
X113970000Y-131220000D02*
X113970000Y-131590000D01*
X113970000Y-136850000D02*
X113970000Y-137220000D01*
X119970000Y-131220000D02*
X119600000Y-131220000D01*
X114340000Y-131220000D02*
X113970000Y-131220000D01*
D13*
%TO.C,U5*%
X185502500Y-166632500D02*
X186137500Y-166632500D01*
X189312500Y-166632500D02*
X189312500Y-169807500D01*
X189312500Y-169807500D02*
X185502500Y-169807500D01*
X185502500Y-169807500D02*
X185502500Y-166632500D01*
X185502500Y-166632500D02*
X189312500Y-166632500D01*
D19*
X185187500Y-167327500D02*
G75*
G03*
X185187500Y-167327500I-80000J0D01*
G01*
X186997500Y-167327500D02*
G75*
G03*
X186997500Y-167327500I-80000J0D01*
G01*
D13*
%TO.C,U4*%
X185510000Y-155810000D02*
X185510000Y-148350000D01*
X185510000Y-148350000D02*
X186010000Y-147810000D01*
X194510000Y-155810000D02*
X185510000Y-155810000D01*
X186010000Y-147810000D02*
X194510000Y-147810000D01*
X194510000Y-147810000D02*
X194510000Y-155810000D01*
D16*
%TO.C,U3*%
X176572000Y-189299000D02*
G75*
G03*
X176572000Y-189299000I-100000J0D01*
G01*
D20*
X176750000Y-192450000D02*
X177406800Y-192450000D01*
X176750000Y-189450000D02*
X177406800Y-189450000D01*
X176750000Y-192293200D02*
X176750000Y-192450000D01*
X179750000Y-192450000D02*
X179093200Y-192450000D01*
X179750000Y-189450000D02*
X179093200Y-189450000D01*
X179750000Y-192293200D02*
X179750000Y-192450000D01*
X176750000Y-189606800D02*
X176750000Y-189450000D01*
X179750000Y-189606800D02*
X179750000Y-189450000D01*
D13*
%TO.C,U2*%
X181346000Y-101110000D02*
X181346000Y-103650000D01*
X181346000Y-103650000D02*
X181346000Y-111270000D01*
X169154000Y-111270000D02*
X169154000Y-101110000D01*
X181346000Y-111270000D02*
X169154000Y-111270000D01*
X169154000Y-101110000D02*
X181346000Y-101110000D01*
X181346000Y-103650000D02*
X179100000Y-101125000D01*
D16*
%TO.C,U1*%
X186445000Y-113110000D02*
X186445000Y-117010000D01*
X191495000Y-113110000D02*
X191495000Y-117010000D01*
D13*
X186280000Y-111360000D02*
X191670000Y-111350000D01*
X186270000Y-118780000D02*
X186280000Y-111360000D01*
X191660000Y-118770000D02*
X186270000Y-118780000D01*
X191670000Y-111350000D02*
X191660000Y-118770000D01*
D18*
X191375000Y-111020000D02*
G75*
G03*
X191375000Y-111020000I-100000J0D01*
G01*
D13*
%TO.C,R9*%
X124714000Y-185425000D02*
X124079000Y-185425000D01*
X125349000Y-182885000D02*
X125349000Y-185425000D01*
X124079000Y-182885000D02*
X125349000Y-182885000D01*
X124079000Y-185425000D02*
X124079000Y-182885000D01*
X125349000Y-185425000D02*
X124714000Y-185425000D01*
%TO.C,R8*%
X107415000Y-157290000D02*
X107415000Y-157925000D01*
X104875000Y-156655000D02*
X107415000Y-156655000D01*
X104875000Y-157925000D02*
X104875000Y-156655000D01*
X107415000Y-157925000D02*
X104875000Y-157925000D01*
X107415000Y-156655000D02*
X107415000Y-157290000D01*
%TO.C,R7*%
X127127000Y-169164000D02*
X127127000Y-169799000D01*
X124587000Y-168529000D02*
X127127000Y-168529000D01*
X124587000Y-169799000D02*
X124587000Y-168529000D01*
X127127000Y-169799000D02*
X124587000Y-169799000D01*
X127127000Y-168529000D02*
X127127000Y-169164000D01*
%TO.C,R6*%
X107515000Y-134080000D02*
X107515000Y-134715000D01*
X104975000Y-133445000D02*
X107515000Y-133445000D01*
X104975000Y-134715000D02*
X104975000Y-133445000D01*
X107515000Y-134715000D02*
X104975000Y-134715000D01*
X107515000Y-133445000D02*
X107515000Y-134080000D01*
%TO.C,R5*%
X173010000Y-176340000D02*
X173010000Y-173800000D01*
X174280000Y-176340000D02*
X173010000Y-176340000D01*
X174280000Y-173800000D02*
X174280000Y-176340000D01*
X173645000Y-173800000D02*
X174280000Y-173800000D01*
X173010000Y-173800000D02*
X173645000Y-173800000D01*
%TO.C,R4*%
X178020000Y-172290000D02*
X178020000Y-169750000D01*
X179290000Y-172290000D02*
X178020000Y-172290000D01*
X179290000Y-169750000D02*
X179290000Y-172290000D01*
X178655000Y-169750000D02*
X179290000Y-169750000D01*
X178020000Y-169750000D02*
X178655000Y-169750000D01*
%TO.C,R3*%
X184250000Y-149930000D02*
X181710000Y-149930000D01*
X184250000Y-148660000D02*
X184250000Y-149930000D01*
X181710000Y-148660000D02*
X184250000Y-148660000D01*
X181710000Y-149295000D02*
X181710000Y-148660000D01*
X181710000Y-149930000D02*
X181710000Y-149295000D01*
%TO.C,R2*%
X196045000Y-183845000D02*
X196045000Y-186385000D01*
X194775000Y-183845000D02*
X196045000Y-183845000D01*
X194775000Y-186385000D02*
X194775000Y-183845000D01*
X195410000Y-186385000D02*
X194775000Y-186385000D01*
X196045000Y-186385000D02*
X195410000Y-186385000D01*
%TO.C,R1*%
X191187064Y-105320000D02*
X186832936Y-105320000D01*
X191187064Y-101900000D02*
X186832936Y-101900000D01*
%TO.C,Q1*%
X200765000Y-186060000D02*
X199495000Y-186060000D01*
X196955000Y-184790000D02*
X196955000Y-188600000D01*
X199495000Y-184790000D02*
X196955000Y-184790000D01*
X199495000Y-187330000D02*
X199495000Y-187965000D01*
X199495000Y-188600000D02*
X199495000Y-187965000D01*
X200765000Y-186060000D02*
X200765000Y-187330000D01*
X196955000Y-188600000D02*
X199495000Y-188600000D01*
X200765000Y-187330000D02*
X199495000Y-187330000D01*
X199495000Y-185425000D02*
X199495000Y-184790000D01*
X199495000Y-186060000D02*
X199495000Y-185425000D01*
%TO.C,PZ1*%
X193700000Y-169200000D02*
X193700000Y-167200000D01*
X193700000Y-167200000D02*
X207200000Y-167200000D01*
X207200000Y-167200000D02*
X207200000Y-182200000D01*
X207200000Y-182200000D02*
X193700000Y-182200000D01*
X193700000Y-182200000D02*
X193700000Y-169200000D01*
%TO.C,MOD2*%
D21*
X123990000Y-109130000D02*
G75*
G03*
X123990000Y-109130000I-121404J0D01*
G01*
X120800000Y-109020000D02*
G75*
G03*
X120800000Y-109020000I-121404J0D01*
G01*
D13*
X112368596Y-99640000D02*
X111868596Y-99640000D01*
X122578596Y-109980000D02*
X122578596Y-109740000D01*
X117158596Y-99380000D02*
X112368596Y-99380000D01*
X123058596Y-109740000D02*
X123078596Y-99630000D01*
X112368596Y-109980000D02*
X122578596Y-109980000D01*
X111868596Y-99640000D02*
X111868596Y-109720000D01*
X122568596Y-99630000D02*
X122568596Y-99380000D01*
X111868596Y-109720000D02*
X112368596Y-109720000D01*
X112368596Y-99380000D02*
X112368596Y-99640000D01*
X122578596Y-109740000D02*
X123058596Y-109740000D01*
X112368596Y-109720000D02*
X112368596Y-109980000D01*
X122568596Y-99380000D02*
X117158596Y-99380000D01*
X123078596Y-99630000D02*
X122568596Y-99630000D01*
%TO.C,L1*%
X106375000Y-100955000D02*
X108915000Y-100955000D01*
X106375000Y-102225000D02*
X106375000Y-100955000D01*
X108915000Y-102225000D02*
X106375000Y-102225000D01*
X108915000Y-101590000D02*
X108915000Y-102225000D01*
X108915000Y-100955000D02*
X108915000Y-101590000D01*
%TO.C,J2*%
X200155000Y-148265000D02*
X200155000Y-155885000D01*
X197615000Y-148265000D02*
X200155000Y-148265000D01*
X197615000Y-155885000D02*
X197615000Y-148265000D01*
X200155000Y-155885000D02*
X198885000Y-155885000D01*
X198885000Y-155885000D02*
X197615000Y-155885000D01*
%TO.C,J1*%
X200185000Y-102195000D02*
X200185000Y-109815000D01*
X197645000Y-102195000D02*
X200185000Y-102195000D01*
X197645000Y-109815000D02*
X197645000Y-102195000D01*
X200185000Y-109815000D02*
X198915000Y-109815000D01*
X198915000Y-109815000D02*
X197645000Y-109815000D01*
%TO.C,CON3*%
X123300000Y-174650000D02*
X123300000Y-175285000D01*
X122665000Y-174650000D02*
X123300000Y-174650000D01*
%TO.C,CON2*%
X155540000Y-122140000D02*
X155540000Y-121505000D01*
X156175000Y-122140000D02*
X155540000Y-122140000D01*
%TO.C,CON1*%
X112700000Y-123540000D02*
X112700000Y-122905000D01*
X113335000Y-123540000D02*
X112700000Y-123540000D01*
%TO.C,C34*%
X141855000Y-134465000D02*
X139315000Y-134465000D01*
X141855000Y-133195000D02*
X141855000Y-134465000D01*
X139315000Y-133195000D02*
X141855000Y-133195000D01*
X139315000Y-133830000D02*
X139315000Y-133195000D01*
X139315000Y-134465000D02*
X139315000Y-133830000D01*
%TO.C,C33*%
X142025000Y-131385000D02*
X139485000Y-131385000D01*
X142025000Y-130115000D02*
X142025000Y-131385000D01*
X139485000Y-130115000D02*
X142025000Y-130115000D01*
X139485000Y-130750000D02*
X139485000Y-130115000D01*
X139485000Y-131385000D02*
X139485000Y-130750000D01*
%TO.C,C32*%
X129413000Y-184023000D02*
X126873000Y-184023000D01*
X129413000Y-182753000D02*
X129413000Y-184023000D01*
X126873000Y-182753000D02*
X129413000Y-182753000D01*
X126873000Y-183388000D02*
X126873000Y-182753000D01*
X126873000Y-184023000D02*
X126873000Y-183388000D01*
%TO.C,C31*%
X176810000Y-183530000D02*
X179350000Y-183530000D01*
X176810000Y-184800000D02*
X176810000Y-183530000D01*
X179350000Y-184800000D02*
X176810000Y-184800000D01*
X179350000Y-184165000D02*
X179350000Y-184800000D01*
X179350000Y-183530000D02*
X179350000Y-184165000D01*
%TO.C,C30*%
X191825000Y-161332157D02*
X191825000Y-163872157D01*
X190555000Y-161332157D02*
X191825000Y-161332157D01*
X190555000Y-163872157D02*
X190555000Y-161332157D01*
X191190000Y-163872157D02*
X190555000Y-163872157D01*
X191825000Y-163872157D02*
X191190000Y-163872157D01*
%TO.C,C29*%
X176822157Y-180695000D02*
X179362157Y-180695000D01*
X176822157Y-181965000D02*
X176822157Y-180695000D01*
X179362157Y-181965000D02*
X176822157Y-181965000D01*
X179362157Y-181330000D02*
X179362157Y-181965000D01*
X179362157Y-180695000D02*
X179362157Y-181330000D01*
%TO.C,C28*%
X189155000Y-161375000D02*
X189155000Y-163915000D01*
X187885000Y-161375000D02*
X189155000Y-161375000D01*
X187885000Y-163915000D02*
X187885000Y-161375000D01*
X188520000Y-163915000D02*
X187885000Y-163915000D01*
X189155000Y-163915000D02*
X188520000Y-163915000D01*
%TO.C,C27*%
X130550000Y-174512500D02*
X130550000Y-177052500D01*
X129280000Y-174512500D02*
X130550000Y-174512500D01*
X129280000Y-177052500D02*
X129280000Y-174512500D01*
X129915000Y-177052500D02*
X129280000Y-177052500D01*
X130550000Y-177052500D02*
X129915000Y-177052500D01*
%TO.C,C26*%
X128315000Y-174495000D02*
X128315000Y-177035000D01*
X127045000Y-174495000D02*
X128315000Y-174495000D01*
X127045000Y-177035000D02*
X127045000Y-174495000D01*
X127680000Y-177035000D02*
X127045000Y-177035000D01*
X128315000Y-177035000D02*
X127680000Y-177035000D01*
%TO.C,C25*%
X132745000Y-177085000D02*
X132110000Y-177085000D01*
X132110000Y-177085000D02*
X131475000Y-177085000D01*
X131475000Y-177085000D02*
X131475000Y-174545000D01*
X131475000Y-174545000D02*
X132745000Y-174545000D01*
X132745000Y-174545000D02*
X132745000Y-177085000D01*
%TO.C,C24*%
X103415000Y-155405000D02*
X103415000Y-157945000D01*
X102145000Y-155405000D02*
X103415000Y-155405000D01*
X102145000Y-157945000D02*
X102145000Y-155405000D01*
X102780000Y-157945000D02*
X102145000Y-157945000D01*
X103415000Y-157945000D02*
X102780000Y-157945000D01*
%TO.C,C23*%
X110215000Y-155365000D02*
X110215000Y-157905000D01*
X108945000Y-155365000D02*
X110215000Y-155365000D01*
X108945000Y-157905000D02*
X108945000Y-155365000D01*
X109580000Y-157905000D02*
X108945000Y-157905000D01*
X110215000Y-157905000D02*
X109580000Y-157905000D01*
%TO.C,C22*%
X167605000Y-128355000D02*
X165065000Y-128355000D01*
X167605000Y-127085000D02*
X167605000Y-128355000D01*
X165065000Y-127085000D02*
X167605000Y-127085000D01*
X165065000Y-127720000D02*
X165065000Y-127085000D01*
X165065000Y-128355000D02*
X165065000Y-127720000D01*
%TO.C,C21*%
X167605000Y-130745000D02*
X165065000Y-130745000D01*
X167605000Y-129475000D02*
X167605000Y-130745000D01*
X165065000Y-129475000D02*
X167605000Y-129475000D01*
X165065000Y-130110000D02*
X165065000Y-129475000D01*
X165065000Y-130745000D02*
X165065000Y-130110000D01*
%TO.C,C19*%
X103720000Y-132200000D02*
X103720000Y-134740000D01*
X102450000Y-132200000D02*
X103720000Y-132200000D01*
X102450000Y-134740000D02*
X102450000Y-132200000D01*
X103085000Y-134740000D02*
X102450000Y-134740000D01*
X103720000Y-134740000D02*
X103085000Y-134740000D01*
%TO.C,C18*%
X112840000Y-141320000D02*
X112840000Y-138780000D01*
X114110000Y-141320000D02*
X112840000Y-141320000D01*
X114110000Y-138780000D02*
X114110000Y-141320000D01*
X113475000Y-138780000D02*
X114110000Y-138780000D01*
X112840000Y-138780000D02*
X113475000Y-138780000D01*
%TO.C,C17*%
X106390000Y-141170000D02*
X108930000Y-141170000D01*
X106390000Y-142440000D02*
X106390000Y-141170000D01*
X108930000Y-142440000D02*
X106390000Y-142440000D01*
X108930000Y-141805000D02*
X108930000Y-142440000D01*
X108930000Y-141170000D02*
X108930000Y-141805000D01*
%TO.C,C16*%
X109965000Y-132165000D02*
X109965000Y-134705000D01*
X108695000Y-132165000D02*
X109965000Y-132165000D01*
X108695000Y-134705000D02*
X108695000Y-132165000D01*
X109330000Y-134705000D02*
X108695000Y-134705000D01*
X109965000Y-134705000D02*
X109330000Y-134705000D01*
%TO.C,C15*%
X122950000Y-135790000D02*
X125490000Y-135790000D01*
X122950000Y-137060000D02*
X122950000Y-135790000D01*
X125490000Y-137060000D02*
X122950000Y-137060000D01*
X125490000Y-136425000D02*
X125490000Y-137060000D01*
X125490000Y-135790000D02*
X125490000Y-136425000D01*
%TO.C,C13*%
X119005000Y-138885000D02*
X119005000Y-141425000D01*
X117735000Y-138885000D02*
X119005000Y-138885000D01*
X117735000Y-141425000D02*
X117735000Y-138885000D01*
X118370000Y-141425000D02*
X117735000Y-141425000D01*
X119005000Y-141425000D02*
X118370000Y-141425000D01*
%TO.C,C12*%
X109085000Y-125805000D02*
X106545000Y-125805000D01*
X109085000Y-124535000D02*
X109085000Y-125805000D01*
X106545000Y-124535000D02*
X109085000Y-124535000D01*
X106545000Y-125170000D02*
X106545000Y-124535000D01*
X106545000Y-125805000D02*
X106545000Y-125170000D01*
%TO.C,C11*%
X109065000Y-123645000D02*
X106525000Y-123645000D01*
X109065000Y-122375000D02*
X109065000Y-123645000D01*
X106525000Y-122375000D02*
X109065000Y-122375000D01*
X106525000Y-123010000D02*
X106525000Y-122375000D01*
X106525000Y-123645000D02*
X106525000Y-123010000D01*
%TO.C,C10*%
X109025000Y-127915000D02*
X106485000Y-127915000D01*
X109025000Y-126645000D02*
X109025000Y-127915000D01*
X106485000Y-126645000D02*
X109025000Y-126645000D01*
X106485000Y-127280000D02*
X106485000Y-126645000D01*
X106485000Y-127915000D02*
X106485000Y-127280000D01*
%TO.C,C9*%
X101610000Y-100970000D02*
X104150000Y-100970000D01*
X101610000Y-102240000D02*
X101610000Y-100970000D01*
X104150000Y-102240000D02*
X101610000Y-102240000D01*
X104150000Y-101605000D02*
X104150000Y-102240000D01*
X104150000Y-100970000D02*
X104150000Y-101605000D01*
%TO.C,C8*%
X120080000Y-96040000D02*
X122620000Y-96040000D01*
X120080000Y-97310000D02*
X120080000Y-96040000D01*
X122620000Y-97310000D02*
X120080000Y-97310000D01*
X122620000Y-96675000D02*
X122620000Y-97310000D01*
X122620000Y-96040000D02*
X122620000Y-96675000D01*
%TO.C,C7*%
X120170000Y-93470000D02*
X122710000Y-93470000D01*
X120170000Y-94740000D02*
X120170000Y-93470000D01*
X122710000Y-94740000D02*
X120170000Y-94740000D01*
X122710000Y-94105000D02*
X122710000Y-94740000D01*
X122710000Y-93470000D02*
X122710000Y-94105000D01*
%TO.C,C6*%
X181795000Y-114755000D02*
X184335000Y-114755000D01*
X181795000Y-116025000D02*
X181795000Y-114755000D01*
X184335000Y-116025000D02*
X181795000Y-116025000D01*
X184335000Y-115390000D02*
X184335000Y-116025000D01*
X184335000Y-114755000D02*
X184335000Y-115390000D01*
%TO.C,C5*%
X181865000Y-112085000D02*
X184405000Y-112085000D01*
X181865000Y-113355000D02*
X181865000Y-112085000D01*
X184405000Y-113355000D02*
X181865000Y-113355000D01*
X184405000Y-112720000D02*
X184405000Y-113355000D01*
X184405000Y-112085000D02*
X184405000Y-112720000D01*
%TO.C,C4*%
X172720000Y-116500000D02*
X170180000Y-116500000D01*
X172720000Y-115230000D02*
X172720000Y-116500000D01*
X170180000Y-115230000D02*
X172720000Y-115230000D01*
X170180000Y-115865000D02*
X170180000Y-115230000D01*
X170180000Y-116500000D02*
X170180000Y-115865000D01*
%TO.C,C3*%
X172725000Y-114005000D02*
X170185000Y-114005000D01*
X172725000Y-112735000D02*
X172725000Y-114005000D01*
X170185000Y-112735000D02*
X172725000Y-112735000D01*
X170185000Y-113370000D02*
X170185000Y-112735000D01*
X170185000Y-114005000D02*
X170185000Y-113370000D01*
%TO.C,C2*%
X175240000Y-115110000D02*
X177780000Y-115110000D01*
X175240000Y-116380000D02*
X175240000Y-115110000D01*
X177780000Y-116380000D02*
X175240000Y-116380000D01*
X177780000Y-115745000D02*
X177780000Y-116380000D01*
X177780000Y-115110000D02*
X177780000Y-115745000D01*
%TO.C,C1*%
X175200000Y-112610000D02*
X177740000Y-112610000D01*
X175200000Y-113880000D02*
X175200000Y-112610000D01*
X177740000Y-113880000D02*
X175200000Y-113880000D01*
X177740000Y-113245000D02*
X177740000Y-113880000D01*
X177740000Y-112610000D02*
X177740000Y-113245000D01*
D22*
%TO.C,BT1*%
X132060000Y-87455000D02*
X149060000Y-87455000D01*
X132060000Y-102525000D02*
X149060000Y-102525000D01*
X132060000Y-97490000D02*
X132060000Y-102525000D01*
X132060000Y-92490000D02*
X132060000Y-87455000D01*
X149060000Y-102525000D02*
X149060000Y-97490000D01*
X149060000Y-87455000D02*
X149060000Y-92490000D01*
D13*
%TO.C,AE3*%
X99390000Y-159570000D02*
X96690000Y-159570000D01*
X99690000Y-158070000D02*
X99590000Y-158170000D01*
X99590000Y-156570000D02*
X100290000Y-156570000D01*
X96690000Y-155070000D02*
X99390000Y-155070000D01*
X100290000Y-156570000D02*
X100290000Y-158070000D01*
X96490000Y-155770000D02*
X96690000Y-155770000D01*
X99390000Y-155770000D02*
X99590000Y-155770000D01*
X99390000Y-158870000D02*
X99390000Y-159570000D01*
X95790000Y-158070000D02*
X95790000Y-156570000D01*
X96690000Y-158870000D02*
X96490000Y-158870000D01*
X99390000Y-155070000D02*
X99390000Y-155770000D01*
X96690000Y-159570000D02*
X96690000Y-158870000D01*
X99590000Y-158170000D02*
X99590000Y-158870000D01*
X96490000Y-158070000D02*
X95790000Y-158070000D01*
X96490000Y-156570000D02*
X96490000Y-155770000D01*
X95790000Y-156570000D02*
X96490000Y-156570000D01*
X100290000Y-158070000D02*
X99690000Y-158070000D01*
X99590000Y-158870000D02*
X99390000Y-158870000D01*
X99590000Y-155770000D02*
X99590000Y-156570000D01*
X96690000Y-155770000D02*
X96690000Y-155070000D01*
X96490000Y-158870000D02*
X96490000Y-158070000D01*
D14*
X98676155Y-157320000D02*
G75*
G03*
X98676155Y-157320000I-236155J0D01*
G01*
D13*
%TO.C,AE2*%
X99530000Y-136470000D02*
X96830000Y-136470000D01*
X99830000Y-134970000D02*
X99730000Y-135070000D01*
X99730000Y-133470000D02*
X100430000Y-133470000D01*
X96830000Y-131970000D02*
X99530000Y-131970000D01*
X100430000Y-133470000D02*
X100430000Y-134970000D01*
X96630000Y-132670000D02*
X96830000Y-132670000D01*
X99530000Y-132670000D02*
X99730000Y-132670000D01*
X99530000Y-135770000D02*
X99530000Y-136470000D01*
X95930000Y-134970000D02*
X95930000Y-133470000D01*
X96830000Y-135770000D02*
X96630000Y-135770000D01*
X99530000Y-131970000D02*
X99530000Y-132670000D01*
X96830000Y-136470000D02*
X96830000Y-135770000D01*
X99730000Y-135070000D02*
X99730000Y-135770000D01*
X96630000Y-134970000D02*
X95930000Y-134970000D01*
X96630000Y-133470000D02*
X96630000Y-132670000D01*
X95930000Y-133470000D02*
X96630000Y-133470000D01*
X100430000Y-134970000D02*
X99830000Y-134970000D01*
X99730000Y-135770000D02*
X99530000Y-135770000D01*
X99730000Y-132670000D02*
X99730000Y-133470000D01*
X96830000Y-132670000D02*
X96830000Y-131970000D01*
X96630000Y-135770000D02*
X96630000Y-134970000D01*
D14*
X98816155Y-134220000D02*
G75*
G03*
X98816155Y-134220000I-236155J0D01*
G01*
%TD*%
M02*
