%TF.GenerationSoftware,KiCad,Pcbnew,(5.99.0-10506-gb986797469)*%
%TF.CreationDate,2021-05-19T12:07:34+01:00*%
%TF.ProjectId,LoRa tracker,4c6f5261-2074-4726-9163-6b65722e6b69,rev?*%
%TF.SameCoordinates,Original*%
%TF.FileFunction,Soldermask,Bot*%
%TF.FilePolarity,Negative*%
%FSLAX46Y46*%
G04 Gerber Fmt 4.6, Leading zero omitted, Abs format (unit mm)*
G04 Created by KiCad (PCBNEW (5.99.0-10506-gb986797469)) date 2021-05-19 12:07:34*
%MOMM*%
%LPD*%
G01*
G04 APERTURE LIST*
%ADD10C,0.990600*%
%ADD11C,2.374900*%
%ADD12C,2.030000*%
%ADD13C,0.500000*%
%ADD14C,0.700000*%
%ADD15C,4.400000*%
%ADD16R,2.000000X2.000000*%
%ADD17C,2.000000*%
%ADD18C,1.500000*%
%ADD19R,1.210000X1.010000*%
G04 APERTURE END LIST*
D10*
%TO.C,CON2*%
X95734000Y-76615000D03*
D11*
X94210000Y-84235000D03*
D10*
X97766000Y-76615000D03*
D11*
X94210000Y-78520000D03*
X99290000Y-84235000D03*
D10*
X96750000Y-84235000D03*
D11*
X99290000Y-78520000D03*
%TD*%
D12*
%TO.C,AE3*%
X136590000Y-133190000D03*
X134050000Y-135730000D03*
X134050000Y-130650000D03*
X139130000Y-135730000D03*
X139130000Y-130650000D03*
%TD*%
D13*
%TO.C,Y2*%
X110930000Y-85030000D03*
X110930000Y-83930000D03*
%TD*%
D14*
%TO.C,REF\u002A\u002A*%
X159720000Y-38750000D03*
X160886726Y-39233274D03*
D15*
X159720000Y-40400000D03*
D14*
X158553274Y-41566726D03*
X160886726Y-41566726D03*
X158553274Y-39233274D03*
X158070000Y-40400000D03*
X161370000Y-40400000D03*
X159720000Y-42050000D03*
%TD*%
D16*
%TO.C,J2*%
X118850000Y-48020000D03*
D17*
X123850000Y-48020000D03*
%TD*%
D14*
%TO.C,REF\u002A\u002A*%
X63573274Y-134153274D03*
X64740000Y-133670000D03*
X63573274Y-136486726D03*
X65906726Y-134153274D03*
X64740000Y-136970000D03*
D15*
X64740000Y-135320000D03*
D14*
X63090000Y-135320000D03*
X65906726Y-136486726D03*
X66390000Y-135320000D03*
%TD*%
D12*
%TO.C,AE1*%
X86040000Y-133250000D03*
X88580000Y-130710000D03*
X83500000Y-130710000D03*
X88580000Y-135790000D03*
X83500000Y-135790000D03*
%TD*%
D14*
%TO.C,REF\u002A\u002A*%
X66370000Y-40430000D03*
X63553274Y-39263274D03*
X63553274Y-41596726D03*
D15*
X64720000Y-40430000D03*
D14*
X64720000Y-42080000D03*
X65886726Y-41596726D03*
X63070000Y-40430000D03*
X65886726Y-39263274D03*
X64720000Y-38780000D03*
%TD*%
%TO.C,REF\u002A\u002A*%
X158010000Y-135110000D03*
X158493274Y-133943274D03*
X159660000Y-136760000D03*
X160826726Y-133943274D03*
X159660000Y-133460000D03*
D15*
X159660000Y-135110000D03*
D14*
X161310000Y-135110000D03*
X160826726Y-136276726D03*
X158493274Y-136276726D03*
%TD*%
D18*
%TO.C,U2*%
X97850000Y-55330000D03*
X100390000Y-55330000D03*
X102930000Y-55330000D03*
%TD*%
D16*
%TO.C,J1*%
X72055000Y-56565000D03*
D17*
X72055000Y-51565000D03*
%TD*%
D11*
%TO.C,CON3*%
X150850000Y-125515000D03*
D10*
X152374000Y-127420000D03*
D11*
X155930000Y-125515000D03*
X155930000Y-119800000D03*
D10*
X153390000Y-119800000D03*
D11*
X150850000Y-119800000D03*
D10*
X154406000Y-127420000D03*
%TD*%
D11*
%TO.C,CON1*%
X101660000Y-115910000D03*
D10*
X103184000Y-114005000D03*
D11*
X106740000Y-121625000D03*
X106740000Y-115910000D03*
D10*
X105216000Y-114005000D03*
X104200000Y-121625000D03*
D11*
X101660000Y-121625000D03*
%TD*%
D19*
%TO.C,Y1*%
X126130000Y-124656392D03*
X123770000Y-124656392D03*
X123770000Y-122796392D03*
X126130000Y-122796392D03*
%TD*%
M02*
