%TF.GenerationSoftware,KiCad,Pcbnew,(5.99.0-10483-ga6ad7a4a70)*%
%TF.CreationDate,2021-05-18T14:13:44+02:00*%
%TF.ProjectId,LoRa tracker,4c6f5261-2074-4726-9163-6b65722e6b69,rev?*%
%TF.SameCoordinates,Original*%
%TF.FileFunction,Legend,Top*%
%TF.FilePolarity,Positive*%
%FSLAX46Y46*%
G04 Gerber Fmt 4.6, Leading zero omitted, Abs format (unit mm)*
G04 Created by KiCad (PCBNEW (5.99.0-10483-ga6ad7a4a70)) date 2021-05-18 14:13:44*
%MOMM*%
%LPD*%
G01*
G04 APERTURE LIST*
%ADD10C,0.902345*%
%ADD11C,0.150000*%
%ADD12C,0.015000*%
%ADD13C,0.254000*%
%ADD14C,0.120000*%
%ADD15C,0.127000*%
%ADD16C,0.200000*%
%ADD17C,0.177800*%
%ADD18C,0.100000*%
%ADD19C,0.160000*%
%ADD20C,0.242809*%
%ADD21C,0.109172*%
G04 APERTURE END LIST*
D10*
X152761172Y-107270000D02*
G75*
G03*
X152761172Y-107270000I-451172J0D01*
G01*
D11*
%TO.C,Q1*%
X156781619Y-46825238D02*
X156734000Y-46920476D01*
X156638761Y-47015714D01*
X156495904Y-47158571D01*
X156448285Y-47253809D01*
X156448285Y-47349047D01*
X156686380Y-47301428D02*
X156638761Y-47396666D01*
X156543523Y-47491904D01*
X156353047Y-47539523D01*
X156019714Y-47539523D01*
X155829238Y-47491904D01*
X155734000Y-47396666D01*
X155686380Y-47301428D01*
X155686380Y-47110952D01*
X155734000Y-47015714D01*
X155829238Y-46920476D01*
X156019714Y-46872857D01*
X156353047Y-46872857D01*
X156543523Y-46920476D01*
X156638761Y-47015714D01*
X156686380Y-47110952D01*
X156686380Y-47301428D01*
X156686380Y-45920476D02*
X156686380Y-46491904D01*
X156686380Y-46206190D02*
X155686380Y-46206190D01*
X155829238Y-46301428D01*
X155924476Y-46396666D01*
X155972095Y-46491904D01*
D12*
%TO.C,MOD1*%
X143186205Y-114453570D02*
X142398803Y-114453570D01*
X142961233Y-114191103D01*
X142398803Y-113928635D01*
X143186205Y-113928635D01*
X142398803Y-113403701D02*
X142398803Y-113253719D01*
X142436299Y-113178729D01*
X142511289Y-113103738D01*
X142661271Y-113066243D01*
X142923738Y-113066243D01*
X143073719Y-113103738D01*
X143148710Y-113178729D01*
X143186205Y-113253719D01*
X143186205Y-113403701D01*
X143148710Y-113478691D01*
X143073719Y-113553682D01*
X142923738Y-113591177D01*
X142661271Y-113591177D01*
X142511289Y-113553682D01*
X142436299Y-113478691D01*
X142398803Y-113403701D01*
X143186205Y-112728785D02*
X142398803Y-112728785D01*
X142398803Y-112541308D01*
X142436299Y-112428822D01*
X142511289Y-112353831D01*
X142586280Y-112316336D01*
X142736261Y-112278841D01*
X142848747Y-112278841D01*
X142998729Y-112316336D01*
X143073719Y-112353831D01*
X143148710Y-112428822D01*
X143186205Y-112541308D01*
X143186205Y-112728785D01*
X143186205Y-111528934D02*
X143186205Y-111978878D01*
X143186205Y-111753906D02*
X142398803Y-111753906D01*
X142511289Y-111828897D01*
X142586280Y-111903887D01*
X142623775Y-111978878D01*
D11*
%TO.C,C22*%
X122397142Y-79617142D02*
X122349523Y-79664761D01*
X122206666Y-79712380D01*
X122111428Y-79712380D01*
X121968571Y-79664761D01*
X121873333Y-79569523D01*
X121825714Y-79474285D01*
X121778095Y-79283809D01*
X121778095Y-79140952D01*
X121825714Y-78950476D01*
X121873333Y-78855238D01*
X121968571Y-78760000D01*
X122111428Y-78712380D01*
X122206666Y-78712380D01*
X122349523Y-78760000D01*
X122397142Y-78807619D01*
X122778095Y-78807619D02*
X122825714Y-78760000D01*
X122920952Y-78712380D01*
X123159047Y-78712380D01*
X123254285Y-78760000D01*
X123301904Y-78807619D01*
X123349523Y-78902857D01*
X123349523Y-78998095D01*
X123301904Y-79140952D01*
X122730476Y-79712380D01*
X123349523Y-79712380D01*
X123730476Y-78807619D02*
X123778095Y-78760000D01*
X123873333Y-78712380D01*
X124111428Y-78712380D01*
X124206666Y-78760000D01*
X124254285Y-78807619D01*
X124301904Y-78902857D01*
X124301904Y-78998095D01*
X124254285Y-79140952D01*
X123682857Y-79712380D01*
X124301904Y-79712380D01*
D12*
%TO.C,U6*%
X120409904Y-118889523D02*
X121057523Y-118889523D01*
X121133714Y-118851428D01*
X121171809Y-118813333D01*
X121209904Y-118737142D01*
X121209904Y-118584761D01*
X121171809Y-118508571D01*
X121133714Y-118470476D01*
X121057523Y-118432380D01*
X120409904Y-118432380D01*
X120409904Y-117708571D02*
X120409904Y-117860952D01*
X120448000Y-117937142D01*
X120486095Y-117975238D01*
X120600380Y-118051428D01*
X120752761Y-118089523D01*
X121057523Y-118089523D01*
X121133714Y-118051428D01*
X121171809Y-118013333D01*
X121209904Y-117937142D01*
X121209904Y-117784761D01*
X121171809Y-117708571D01*
X121133714Y-117670476D01*
X121057523Y-117632380D01*
X120867047Y-117632380D01*
X120790857Y-117670476D01*
X120752761Y-117708571D01*
X120714666Y-117784761D01*
X120714666Y-117937142D01*
X120752761Y-118013333D01*
X120790857Y-118051428D01*
X120867047Y-118089523D01*
D11*
%TO.C,C18*%
X127037142Y-119157142D02*
X126989523Y-119204761D01*
X126846666Y-119252380D01*
X126751428Y-119252380D01*
X126608571Y-119204761D01*
X126513333Y-119109523D01*
X126465714Y-119014285D01*
X126418095Y-118823809D01*
X126418095Y-118680952D01*
X126465714Y-118490476D01*
X126513333Y-118395238D01*
X126608571Y-118300000D01*
X126751428Y-118252380D01*
X126846666Y-118252380D01*
X126989523Y-118300000D01*
X127037142Y-118347619D01*
X127989523Y-119252380D02*
X127418095Y-119252380D01*
X127703809Y-119252380D02*
X127703809Y-118252380D01*
X127608571Y-118395238D01*
X127513333Y-118490476D01*
X127418095Y-118538095D01*
X128560952Y-118680952D02*
X128465714Y-118633333D01*
X128418095Y-118585714D01*
X128370476Y-118490476D01*
X128370476Y-118442857D01*
X128418095Y-118347619D01*
X128465714Y-118300000D01*
X128560952Y-118252380D01*
X128751428Y-118252380D01*
X128846666Y-118300000D01*
X128894285Y-118347619D01*
X128941904Y-118442857D01*
X128941904Y-118490476D01*
X128894285Y-118585714D01*
X128846666Y-118633333D01*
X128751428Y-118680952D01*
X128560952Y-118680952D01*
X128465714Y-118728571D01*
X128418095Y-118776190D01*
X128370476Y-118871428D01*
X128370476Y-119061904D01*
X128418095Y-119157142D01*
X128465714Y-119204761D01*
X128560952Y-119252380D01*
X128751428Y-119252380D01*
X128846666Y-119204761D01*
X128894285Y-119157142D01*
X128941904Y-119061904D01*
X128941904Y-118871428D01*
X128894285Y-118776190D01*
X128846666Y-118728571D01*
X128751428Y-118680952D01*
D12*
%TO.C,U3*%
X110257281Y-72711601D02*
X110257281Y-72971103D01*
X110272545Y-73001633D01*
X110287810Y-73016897D01*
X110318340Y-73032162D01*
X110379399Y-73032162D01*
X110409929Y-73016897D01*
X110425193Y-73001633D01*
X110440458Y-72971103D01*
X110440458Y-72711601D01*
X110562577Y-72711601D02*
X110761019Y-72711601D01*
X110654166Y-72833720D01*
X110699960Y-72833720D01*
X110730490Y-72848984D01*
X110745754Y-72864249D01*
X110761019Y-72894779D01*
X110761019Y-72971103D01*
X110745754Y-73001633D01*
X110730490Y-73016897D01*
X110699960Y-73032162D01*
X110608371Y-73032162D01*
X110577842Y-73016897D01*
X110562577Y-73001633D01*
D11*
%TO.C,R5*%
X128320833Y-72284880D02*
X127987500Y-71808690D01*
X127749404Y-72284880D02*
X127749404Y-71284880D01*
X128130357Y-71284880D01*
X128225595Y-71332500D01*
X128273214Y-71380119D01*
X128320833Y-71475357D01*
X128320833Y-71618214D01*
X128273214Y-71713452D01*
X128225595Y-71761071D01*
X128130357Y-71808690D01*
X127749404Y-71808690D01*
X129225595Y-71284880D02*
X128749404Y-71284880D01*
X128701785Y-71761071D01*
X128749404Y-71713452D01*
X128844642Y-71665833D01*
X129082738Y-71665833D01*
X129177976Y-71713452D01*
X129225595Y-71761071D01*
X129273214Y-71856309D01*
X129273214Y-72094404D01*
X129225595Y-72189642D01*
X129177976Y-72237261D01*
X129082738Y-72284880D01*
X128844642Y-72284880D01*
X128749404Y-72237261D01*
X128701785Y-72189642D01*
%TO.C,U4*%
X122291904Y-59627619D02*
X122291904Y-58818095D01*
X122244285Y-58722857D01*
X122196666Y-58675238D01*
X122101428Y-58627619D01*
X121910952Y-58627619D01*
X121815714Y-58675238D01*
X121768095Y-58722857D01*
X121720476Y-58818095D01*
X121720476Y-59627619D01*
X120815714Y-59294285D02*
X120815714Y-58627619D01*
X121053809Y-59675238D02*
X121291904Y-58960952D01*
X120672857Y-58960952D01*
D13*
%TO.C,BT1*%
X65922485Y-91281057D02*
X65982961Y-91099628D01*
X66043438Y-91039152D01*
X66164390Y-90978676D01*
X66345819Y-90978676D01*
X66466771Y-91039152D01*
X66527247Y-91099628D01*
X66587723Y-91220580D01*
X66587723Y-91704390D01*
X65317723Y-91704390D01*
X65317723Y-91281057D01*
X65378200Y-91160104D01*
X65438676Y-91099628D01*
X65559628Y-91039152D01*
X65680580Y-91039152D01*
X65801533Y-91099628D01*
X65862009Y-91160104D01*
X65922485Y-91281057D01*
X65922485Y-91704390D01*
X65317723Y-90615819D02*
X65317723Y-89890104D01*
X66587723Y-90252961D02*
X65317723Y-90252961D01*
X66587723Y-88801533D02*
X66587723Y-89527247D01*
X66587723Y-89164390D02*
X65317723Y-89164390D01*
X65499152Y-89285342D01*
X65620104Y-89406295D01*
X65680580Y-89527247D01*
D11*
%TO.C,C20*%
X117437142Y-80202857D02*
X117484761Y-80250476D01*
X117532380Y-80393333D01*
X117532380Y-80488571D01*
X117484761Y-80631428D01*
X117389523Y-80726666D01*
X117294285Y-80774285D01*
X117103809Y-80821904D01*
X116960952Y-80821904D01*
X116770476Y-80774285D01*
X116675238Y-80726666D01*
X116580000Y-80631428D01*
X116532380Y-80488571D01*
X116532380Y-80393333D01*
X116580000Y-80250476D01*
X116627619Y-80202857D01*
X116627619Y-79821904D02*
X116580000Y-79774285D01*
X116532380Y-79679047D01*
X116532380Y-79440952D01*
X116580000Y-79345714D01*
X116627619Y-79298095D01*
X116722857Y-79250476D01*
X116818095Y-79250476D01*
X116960952Y-79298095D01*
X117532380Y-79869523D01*
X117532380Y-79250476D01*
X116532380Y-78631428D02*
X116532380Y-78536190D01*
X116580000Y-78440952D01*
X116627619Y-78393333D01*
X116722857Y-78345714D01*
X116913333Y-78298095D01*
X117151428Y-78298095D01*
X117341904Y-78345714D01*
X117437142Y-78393333D01*
X117484761Y-78440952D01*
X117532380Y-78536190D01*
X117532380Y-78631428D01*
X117484761Y-78726666D01*
X117437142Y-78774285D01*
X117341904Y-78821904D01*
X117151428Y-78869523D01*
X116913333Y-78869523D01*
X116722857Y-78821904D01*
X116627619Y-78774285D01*
X116580000Y-78726666D01*
X116532380Y-78631428D01*
%TO.C,R3*%
X118132380Y-66926666D02*
X117656190Y-67260000D01*
X118132380Y-67498095D02*
X117132380Y-67498095D01*
X117132380Y-67117142D01*
X117180000Y-67021904D01*
X117227619Y-66974285D01*
X117322857Y-66926666D01*
X117465714Y-66926666D01*
X117560952Y-66974285D01*
X117608571Y-67021904D01*
X117656190Y-67117142D01*
X117656190Y-67498095D01*
X117132380Y-66593333D02*
X117132380Y-65974285D01*
X117513333Y-66307619D01*
X117513333Y-66164761D01*
X117560952Y-66069523D01*
X117608571Y-66021904D01*
X117703809Y-65974285D01*
X117941904Y-65974285D01*
X118037142Y-66021904D01*
X118084761Y-66069523D01*
X118132380Y-66164761D01*
X118132380Y-66450476D01*
X118084761Y-66545714D01*
X118037142Y-66593333D01*
%TO.C,C21*%
X125782142Y-83752142D02*
X125734523Y-83799761D01*
X125591666Y-83847380D01*
X125496428Y-83847380D01*
X125353571Y-83799761D01*
X125258333Y-83704523D01*
X125210714Y-83609285D01*
X125163095Y-83418809D01*
X125163095Y-83275952D01*
X125210714Y-83085476D01*
X125258333Y-82990238D01*
X125353571Y-82895000D01*
X125496428Y-82847380D01*
X125591666Y-82847380D01*
X125734523Y-82895000D01*
X125782142Y-82942619D01*
X126163095Y-82942619D02*
X126210714Y-82895000D01*
X126305952Y-82847380D01*
X126544047Y-82847380D01*
X126639285Y-82895000D01*
X126686904Y-82942619D01*
X126734523Y-83037857D01*
X126734523Y-83133095D01*
X126686904Y-83275952D01*
X126115476Y-83847380D01*
X126734523Y-83847380D01*
X127686904Y-83847380D02*
X127115476Y-83847380D01*
X127401190Y-83847380D02*
X127401190Y-82847380D01*
X127305952Y-82990238D01*
X127210714Y-83085476D01*
X127115476Y-83133095D01*
%TO.C,AE2*%
X111373333Y-138156666D02*
X111849523Y-138156666D01*
X111278095Y-138442380D02*
X111611428Y-137442380D01*
X111944761Y-138442380D01*
X112278095Y-137918571D02*
X112611428Y-137918571D01*
X112754285Y-138442380D02*
X112278095Y-138442380D01*
X112278095Y-137442380D01*
X112754285Y-137442380D01*
X113135238Y-137537619D02*
X113182857Y-137490000D01*
X113278095Y-137442380D01*
X113516190Y-137442380D01*
X113611428Y-137490000D01*
X113659047Y-137537619D01*
X113706666Y-137632857D01*
X113706666Y-137728095D01*
X113659047Y-137870952D01*
X113087619Y-138442380D01*
X113706666Y-138442380D01*
%TO.C,C12*%
X111182142Y-110577142D02*
X111134523Y-110624761D01*
X110991666Y-110672380D01*
X110896428Y-110672380D01*
X110753571Y-110624761D01*
X110658333Y-110529523D01*
X110610714Y-110434285D01*
X110563095Y-110243809D01*
X110563095Y-110100952D01*
X110610714Y-109910476D01*
X110658333Y-109815238D01*
X110753571Y-109720000D01*
X110896428Y-109672380D01*
X110991666Y-109672380D01*
X111134523Y-109720000D01*
X111182142Y-109767619D01*
X112134523Y-110672380D02*
X111563095Y-110672380D01*
X111848809Y-110672380D02*
X111848809Y-109672380D01*
X111753571Y-109815238D01*
X111658333Y-109910476D01*
X111563095Y-109958095D01*
X112515476Y-109767619D02*
X112563095Y-109720000D01*
X112658333Y-109672380D01*
X112896428Y-109672380D01*
X112991666Y-109720000D01*
X113039285Y-109767619D01*
X113086904Y-109862857D01*
X113086904Y-109958095D01*
X113039285Y-110100952D01*
X112467857Y-110672380D01*
X113086904Y-110672380D01*
%TO.C,L1*%
X87657380Y-120340262D02*
X87657380Y-120816453D01*
X86657380Y-120816453D01*
X87657380Y-119483119D02*
X87657380Y-120054548D01*
X87657380Y-119768834D02*
X86657380Y-119768834D01*
X86800238Y-119864072D01*
X86895476Y-119959310D01*
X86943095Y-120054548D01*
%TO.C,R7*%
X133248333Y-103067380D02*
X132915000Y-102591190D01*
X132676904Y-103067380D02*
X132676904Y-102067380D01*
X133057857Y-102067380D01*
X133153095Y-102115000D01*
X133200714Y-102162619D01*
X133248333Y-102257857D01*
X133248333Y-102400714D01*
X133200714Y-102495952D01*
X133153095Y-102543571D01*
X133057857Y-102591190D01*
X132676904Y-102591190D01*
X133581666Y-102067380D02*
X134248333Y-102067380D01*
X133819761Y-103067380D01*
%TO.C,AE3*%
X135693333Y-128536666D02*
X136169523Y-128536666D01*
X135598095Y-128822380D02*
X135931428Y-127822380D01*
X136264761Y-128822380D01*
X136598095Y-128298571D02*
X136931428Y-128298571D01*
X137074285Y-128822380D02*
X136598095Y-128822380D01*
X136598095Y-127822380D01*
X137074285Y-127822380D01*
X137407619Y-127822380D02*
X138026666Y-127822380D01*
X137693333Y-128203333D01*
X137836190Y-128203333D01*
X137931428Y-128250952D01*
X137979047Y-128298571D01*
X138026666Y-128393809D01*
X138026666Y-128631904D01*
X137979047Y-128727142D01*
X137931428Y-128774761D01*
X137836190Y-128822380D01*
X137550476Y-128822380D01*
X137455238Y-128774761D01*
X137407619Y-128727142D01*
%TO.C,C1*%
X96493333Y-62477142D02*
X96445714Y-62524761D01*
X96302857Y-62572380D01*
X96207619Y-62572380D01*
X96064761Y-62524761D01*
X95969523Y-62429523D01*
X95921904Y-62334285D01*
X95874285Y-62143809D01*
X95874285Y-62000952D01*
X95921904Y-61810476D01*
X95969523Y-61715238D01*
X96064761Y-61620000D01*
X96207619Y-61572380D01*
X96302857Y-61572380D01*
X96445714Y-61620000D01*
X96493333Y-61667619D01*
X97445714Y-62572380D02*
X96874285Y-62572380D01*
X97160000Y-62572380D02*
X97160000Y-61572380D01*
X97064761Y-61715238D01*
X96969523Y-61810476D01*
X96874285Y-61858095D01*
%TO.C,C8*%
X79868333Y-104102142D02*
X79820714Y-104149761D01*
X79677857Y-104197380D01*
X79582619Y-104197380D01*
X79439761Y-104149761D01*
X79344523Y-104054523D01*
X79296904Y-103959285D01*
X79249285Y-103768809D01*
X79249285Y-103625952D01*
X79296904Y-103435476D01*
X79344523Y-103340238D01*
X79439761Y-103245000D01*
X79582619Y-103197380D01*
X79677857Y-103197380D01*
X79820714Y-103245000D01*
X79868333Y-103292619D01*
X80439761Y-103625952D02*
X80344523Y-103578333D01*
X80296904Y-103530714D01*
X80249285Y-103435476D01*
X80249285Y-103387857D01*
X80296904Y-103292619D01*
X80344523Y-103245000D01*
X80439761Y-103197380D01*
X80630238Y-103197380D01*
X80725476Y-103245000D01*
X80773095Y-103292619D01*
X80820714Y-103387857D01*
X80820714Y-103435476D01*
X80773095Y-103530714D01*
X80725476Y-103578333D01*
X80630238Y-103625952D01*
X80439761Y-103625952D01*
X80344523Y-103673571D01*
X80296904Y-103721190D01*
X80249285Y-103816428D01*
X80249285Y-104006904D01*
X80296904Y-104102142D01*
X80344523Y-104149761D01*
X80439761Y-104197380D01*
X80630238Y-104197380D01*
X80725476Y-104149761D01*
X80773095Y-104102142D01*
X80820714Y-104006904D01*
X80820714Y-103816428D01*
X80773095Y-103721190D01*
X80725476Y-103673571D01*
X80630238Y-103625952D01*
%TO.C,U5*%
X131275595Y-75754880D02*
X131275595Y-76564404D01*
X131323214Y-76659642D01*
X131370833Y-76707261D01*
X131466071Y-76754880D01*
X131656547Y-76754880D01*
X131751785Y-76707261D01*
X131799404Y-76659642D01*
X131847023Y-76564404D01*
X131847023Y-75754880D01*
X132799404Y-75754880D02*
X132323214Y-75754880D01*
X132275595Y-76231071D01*
X132323214Y-76183452D01*
X132418452Y-76135833D01*
X132656547Y-76135833D01*
X132751785Y-76183452D01*
X132799404Y-76231071D01*
X132847023Y-76326309D01*
X132847023Y-76564404D01*
X132799404Y-76659642D01*
X132751785Y-76707261D01*
X132656547Y-76754880D01*
X132418452Y-76754880D01*
X132323214Y-76707261D01*
X132275595Y-76659642D01*
%TO.C,C3*%
X77703333Y-57887142D02*
X77655714Y-57934761D01*
X77512857Y-57982380D01*
X77417619Y-57982380D01*
X77274761Y-57934761D01*
X77179523Y-57839523D01*
X77131904Y-57744285D01*
X77084285Y-57553809D01*
X77084285Y-57410952D01*
X77131904Y-57220476D01*
X77179523Y-57125238D01*
X77274761Y-57030000D01*
X77417619Y-56982380D01*
X77512857Y-56982380D01*
X77655714Y-57030000D01*
X77703333Y-57077619D01*
X78036666Y-56982380D02*
X78655714Y-56982380D01*
X78322380Y-57363333D01*
X78465238Y-57363333D01*
X78560476Y-57410952D01*
X78608095Y-57458571D01*
X78655714Y-57553809D01*
X78655714Y-57791904D01*
X78608095Y-57887142D01*
X78560476Y-57934761D01*
X78465238Y-57982380D01*
X78179523Y-57982380D01*
X78084285Y-57934761D01*
X78036666Y-57887142D01*
%TO.C,C23*%
X140047142Y-127147142D02*
X139999523Y-127194761D01*
X139856666Y-127242380D01*
X139761428Y-127242380D01*
X139618571Y-127194761D01*
X139523333Y-127099523D01*
X139475714Y-127004285D01*
X139428095Y-126813809D01*
X139428095Y-126670952D01*
X139475714Y-126480476D01*
X139523333Y-126385238D01*
X139618571Y-126290000D01*
X139761428Y-126242380D01*
X139856666Y-126242380D01*
X139999523Y-126290000D01*
X140047142Y-126337619D01*
X140428095Y-126337619D02*
X140475714Y-126290000D01*
X140570952Y-126242380D01*
X140809047Y-126242380D01*
X140904285Y-126290000D01*
X140951904Y-126337619D01*
X140999523Y-126432857D01*
X140999523Y-126528095D01*
X140951904Y-126670952D01*
X140380476Y-127242380D01*
X140999523Y-127242380D01*
X141332857Y-126242380D02*
X141951904Y-126242380D01*
X141618571Y-126623333D01*
X141761428Y-126623333D01*
X141856666Y-126670952D01*
X141904285Y-126718571D01*
X141951904Y-126813809D01*
X141951904Y-127051904D01*
X141904285Y-127147142D01*
X141856666Y-127194761D01*
X141761428Y-127242380D01*
X141475714Y-127242380D01*
X141380476Y-127194761D01*
X141332857Y-127147142D01*
%TO.C,REF\u002A\u002A*%
X158386666Y-37652380D02*
X158053333Y-37176190D01*
X157815238Y-37652380D02*
X157815238Y-36652380D01*
X158196190Y-36652380D01*
X158291428Y-36700000D01*
X158339047Y-36747619D01*
X158386666Y-36842857D01*
X158386666Y-36985714D01*
X158339047Y-37080952D01*
X158291428Y-37128571D01*
X158196190Y-37176190D01*
X157815238Y-37176190D01*
X158815238Y-37128571D02*
X159148571Y-37128571D01*
X159291428Y-37652380D02*
X158815238Y-37652380D01*
X158815238Y-36652380D01*
X159291428Y-36652380D01*
X160053333Y-37128571D02*
X159720000Y-37128571D01*
X159720000Y-37652380D02*
X159720000Y-36652380D01*
X160196190Y-36652380D01*
X160720000Y-36652380D02*
X160720000Y-36890476D01*
X160481904Y-36795238D02*
X160720000Y-36890476D01*
X160958095Y-36795238D01*
X160577142Y-37080952D02*
X160720000Y-36890476D01*
X160862857Y-37080952D01*
X161481904Y-36652380D02*
X161481904Y-36890476D01*
X161243809Y-36795238D02*
X161481904Y-36890476D01*
X161720000Y-36795238D01*
X161339047Y-37080952D02*
X161481904Y-36890476D01*
X161624761Y-37080952D01*
%TO.C,R2*%
X155283333Y-52752380D02*
X154950000Y-52276190D01*
X154711904Y-52752380D02*
X154711904Y-51752380D01*
X155092857Y-51752380D01*
X155188095Y-51800000D01*
X155235714Y-51847619D01*
X155283333Y-51942857D01*
X155283333Y-52085714D01*
X155235714Y-52180952D01*
X155188095Y-52228571D01*
X155092857Y-52276190D01*
X154711904Y-52276190D01*
X155664285Y-51847619D02*
X155711904Y-51800000D01*
X155807142Y-51752380D01*
X156045238Y-51752380D01*
X156140476Y-51800000D01*
X156188095Y-51847619D01*
X156235714Y-51942857D01*
X156235714Y-52038095D01*
X156188095Y-52180952D01*
X155616666Y-52752380D01*
X156235714Y-52752380D01*
%TO.C,J2*%
X121216666Y-45522380D02*
X121216666Y-46236666D01*
X121169047Y-46379523D01*
X121073809Y-46474761D01*
X120930952Y-46522380D01*
X120835714Y-46522380D01*
X121645238Y-45617619D02*
X121692857Y-45570000D01*
X121788095Y-45522380D01*
X122026190Y-45522380D01*
X122121428Y-45570000D01*
X122169047Y-45617619D01*
X122216666Y-45712857D01*
X122216666Y-45808095D01*
X122169047Y-45950952D01*
X121597619Y-46522380D01*
X122216666Y-46522380D01*
%TO.C,R8*%
X137532380Y-126052666D02*
X137056190Y-126386000D01*
X137532380Y-126624095D02*
X136532380Y-126624095D01*
X136532380Y-126243142D01*
X136580000Y-126147904D01*
X136627619Y-126100285D01*
X136722857Y-126052666D01*
X136865714Y-126052666D01*
X136960952Y-126100285D01*
X137008571Y-126147904D01*
X137056190Y-126243142D01*
X137056190Y-126624095D01*
X136960952Y-125481238D02*
X136913333Y-125576476D01*
X136865714Y-125624095D01*
X136770476Y-125671714D01*
X136722857Y-125671714D01*
X136627619Y-125624095D01*
X136580000Y-125576476D01*
X136532380Y-125481238D01*
X136532380Y-125290761D01*
X136580000Y-125195523D01*
X136627619Y-125147904D01*
X136722857Y-125100285D01*
X136770476Y-125100285D01*
X136865714Y-125147904D01*
X136913333Y-125195523D01*
X136960952Y-125290761D01*
X136960952Y-125481238D01*
X137008571Y-125576476D01*
X137056190Y-125624095D01*
X137151428Y-125671714D01*
X137341904Y-125671714D01*
X137437142Y-125624095D01*
X137484761Y-125576476D01*
X137532380Y-125481238D01*
X137532380Y-125290761D01*
X137484761Y-125195523D01*
X137437142Y-125147904D01*
X137341904Y-125100285D01*
X137151428Y-125100285D01*
X137056190Y-125147904D01*
X137008571Y-125195523D01*
X136960952Y-125290761D01*
%TO.C,C5*%
X105418333Y-67862142D02*
X105370714Y-67909761D01*
X105227857Y-67957380D01*
X105132619Y-67957380D01*
X104989761Y-67909761D01*
X104894523Y-67814523D01*
X104846904Y-67719285D01*
X104799285Y-67528809D01*
X104799285Y-67385952D01*
X104846904Y-67195476D01*
X104894523Y-67100238D01*
X104989761Y-67005000D01*
X105132619Y-66957380D01*
X105227857Y-66957380D01*
X105370714Y-67005000D01*
X105418333Y-67052619D01*
X106323095Y-66957380D02*
X105846904Y-66957380D01*
X105799285Y-67433571D01*
X105846904Y-67385952D01*
X105942142Y-67338333D01*
X106180238Y-67338333D01*
X106275476Y-67385952D01*
X106323095Y-67433571D01*
X106370714Y-67528809D01*
X106370714Y-67766904D01*
X106323095Y-67862142D01*
X106275476Y-67909761D01*
X106180238Y-67957380D01*
X105942142Y-67957380D01*
X105846904Y-67909761D01*
X105799285Y-67862142D01*
%TO.C,C7*%
X79848333Y-109612142D02*
X79800714Y-109659761D01*
X79657857Y-109707380D01*
X79562619Y-109707380D01*
X79419761Y-109659761D01*
X79324523Y-109564523D01*
X79276904Y-109469285D01*
X79229285Y-109278809D01*
X79229285Y-109135952D01*
X79276904Y-108945476D01*
X79324523Y-108850238D01*
X79419761Y-108755000D01*
X79562619Y-108707380D01*
X79657857Y-108707380D01*
X79800714Y-108755000D01*
X79848333Y-108802619D01*
X80181666Y-108707380D02*
X80848333Y-108707380D01*
X80419761Y-109707380D01*
%TO.C,CON2*%
X113747142Y-83294285D02*
X113794761Y-83341904D01*
X113842380Y-83484761D01*
X113842380Y-83580000D01*
X113794761Y-83722857D01*
X113699523Y-83818095D01*
X113604285Y-83865714D01*
X113413809Y-83913333D01*
X113270952Y-83913333D01*
X113080476Y-83865714D01*
X112985238Y-83818095D01*
X112890000Y-83722857D01*
X112842380Y-83580000D01*
X112842380Y-83484761D01*
X112890000Y-83341904D01*
X112937619Y-83294285D01*
X112842380Y-82675238D02*
X112842380Y-82484761D01*
X112890000Y-82389523D01*
X112985238Y-82294285D01*
X113175714Y-82246666D01*
X113509047Y-82246666D01*
X113699523Y-82294285D01*
X113794761Y-82389523D01*
X113842380Y-82484761D01*
X113842380Y-82675238D01*
X113794761Y-82770476D01*
X113699523Y-82865714D01*
X113509047Y-82913333D01*
X113175714Y-82913333D01*
X112985238Y-82865714D01*
X112890000Y-82770476D01*
X112842380Y-82675238D01*
X113842380Y-81818095D02*
X112842380Y-81818095D01*
X113842380Y-81246666D01*
X112842380Y-81246666D01*
X112937619Y-80818095D02*
X112890000Y-80770476D01*
X112842380Y-80675238D01*
X112842380Y-80437142D01*
X112890000Y-80341904D01*
X112937619Y-80294285D01*
X113032857Y-80246666D01*
X113128095Y-80246666D01*
X113270952Y-80294285D01*
X113842380Y-80865714D01*
X113842380Y-80246666D01*
%TO.C,REF\u002A\u002A*%
X63406666Y-132572380D02*
X63073333Y-132096190D01*
X62835238Y-132572380D02*
X62835238Y-131572380D01*
X63216190Y-131572380D01*
X63311428Y-131620000D01*
X63359047Y-131667619D01*
X63406666Y-131762857D01*
X63406666Y-131905714D01*
X63359047Y-132000952D01*
X63311428Y-132048571D01*
X63216190Y-132096190D01*
X62835238Y-132096190D01*
X63835238Y-132048571D02*
X64168571Y-132048571D01*
X64311428Y-132572380D02*
X63835238Y-132572380D01*
X63835238Y-131572380D01*
X64311428Y-131572380D01*
X65073333Y-132048571D02*
X64740000Y-132048571D01*
X64740000Y-132572380D02*
X64740000Y-131572380D01*
X65216190Y-131572380D01*
X65740000Y-131572380D02*
X65740000Y-131810476D01*
X65501904Y-131715238D02*
X65740000Y-131810476D01*
X65978095Y-131715238D01*
X65597142Y-132000952D02*
X65740000Y-131810476D01*
X65882857Y-132000952D01*
X66501904Y-131572380D02*
X66501904Y-131810476D01*
X66263809Y-131715238D02*
X66501904Y-131810476D01*
X66740000Y-131715238D01*
X66359047Y-132000952D02*
X66501904Y-131810476D01*
X66644761Y-132000952D01*
D12*
%TO.C,U1*%
X88189380Y-60706904D02*
X88998904Y-60706904D01*
X89094142Y-60659285D01*
X89141761Y-60611666D01*
X89189380Y-60516428D01*
X89189380Y-60325952D01*
X89141761Y-60230714D01*
X89094142Y-60183095D01*
X88998904Y-60135476D01*
X88189380Y-60135476D01*
X89189380Y-59135476D02*
X89189380Y-59706904D01*
X89189380Y-59421190D02*
X88189380Y-59421190D01*
X88332238Y-59516428D01*
X88427476Y-59611666D01*
X88475095Y-59706904D01*
D11*
%TO.C,C11*%
X111217142Y-107297142D02*
X111169523Y-107344761D01*
X111026666Y-107392380D01*
X110931428Y-107392380D01*
X110788571Y-107344761D01*
X110693333Y-107249523D01*
X110645714Y-107154285D01*
X110598095Y-106963809D01*
X110598095Y-106820952D01*
X110645714Y-106630476D01*
X110693333Y-106535238D01*
X110788571Y-106440000D01*
X110931428Y-106392380D01*
X111026666Y-106392380D01*
X111169523Y-106440000D01*
X111217142Y-106487619D01*
X112169523Y-107392380D02*
X111598095Y-107392380D01*
X111883809Y-107392380D02*
X111883809Y-106392380D01*
X111788571Y-106535238D01*
X111693333Y-106630476D01*
X111598095Y-106678095D01*
X113121904Y-107392380D02*
X112550476Y-107392380D01*
X112836190Y-107392380D02*
X112836190Y-106392380D01*
X112740952Y-106535238D01*
X112645714Y-106630476D01*
X112550476Y-106678095D01*
%TO.C,C2*%
X99233333Y-59207142D02*
X99185714Y-59254761D01*
X99042857Y-59302380D01*
X98947619Y-59302380D01*
X98804761Y-59254761D01*
X98709523Y-59159523D01*
X98661904Y-59064285D01*
X98614285Y-58873809D01*
X98614285Y-58730952D01*
X98661904Y-58540476D01*
X98709523Y-58445238D01*
X98804761Y-58350000D01*
X98947619Y-58302380D01*
X99042857Y-58302380D01*
X99185714Y-58350000D01*
X99233333Y-58397619D01*
X99614285Y-58397619D02*
X99661904Y-58350000D01*
X99757142Y-58302380D01*
X99995238Y-58302380D01*
X100090476Y-58350000D01*
X100138095Y-58397619D01*
X100185714Y-58492857D01*
X100185714Y-58588095D01*
X100138095Y-58730952D01*
X99566666Y-59302380D01*
X100185714Y-59302380D01*
%TO.C,C4*%
X77653333Y-60257142D02*
X77605714Y-60304761D01*
X77462857Y-60352380D01*
X77367619Y-60352380D01*
X77224761Y-60304761D01*
X77129523Y-60209523D01*
X77081904Y-60114285D01*
X77034285Y-59923809D01*
X77034285Y-59780952D01*
X77081904Y-59590476D01*
X77129523Y-59495238D01*
X77224761Y-59400000D01*
X77367619Y-59352380D01*
X77462857Y-59352380D01*
X77605714Y-59400000D01*
X77653333Y-59447619D01*
X78510476Y-59685714D02*
X78510476Y-60352380D01*
X78272380Y-59304761D02*
X78034285Y-60019047D01*
X78653333Y-60019047D01*
%TO.C,AE1*%
X85003333Y-128366666D02*
X85479523Y-128366666D01*
X84908095Y-128652380D02*
X85241428Y-127652380D01*
X85574761Y-128652380D01*
X85908095Y-128128571D02*
X86241428Y-128128571D01*
X86384285Y-128652380D02*
X85908095Y-128652380D01*
X85908095Y-127652380D01*
X86384285Y-127652380D01*
X87336666Y-128652380D02*
X86765238Y-128652380D01*
X87050952Y-128652380D02*
X87050952Y-127652380D01*
X86955714Y-127795238D01*
X86860476Y-127890476D01*
X86765238Y-127938095D01*
%TO.C,R1*%
X84683333Y-49322380D02*
X84350000Y-48846190D01*
X84111904Y-49322380D02*
X84111904Y-48322380D01*
X84492857Y-48322380D01*
X84588095Y-48370000D01*
X84635714Y-48417619D01*
X84683333Y-48512857D01*
X84683333Y-48655714D01*
X84635714Y-48750952D01*
X84588095Y-48798571D01*
X84492857Y-48846190D01*
X84111904Y-48846190D01*
X85635714Y-49322380D02*
X85064285Y-49322380D01*
X85350000Y-49322380D02*
X85350000Y-48322380D01*
X85254761Y-48465238D01*
X85159523Y-48560476D01*
X85064285Y-48608095D01*
%TO.C,REF\u002A\u002A*%
X63386666Y-37682380D02*
X63053333Y-37206190D01*
X62815238Y-37682380D02*
X62815238Y-36682380D01*
X63196190Y-36682380D01*
X63291428Y-36730000D01*
X63339047Y-36777619D01*
X63386666Y-36872857D01*
X63386666Y-37015714D01*
X63339047Y-37110952D01*
X63291428Y-37158571D01*
X63196190Y-37206190D01*
X62815238Y-37206190D01*
X63815238Y-37158571D02*
X64148571Y-37158571D01*
X64291428Y-37682380D02*
X63815238Y-37682380D01*
X63815238Y-36682380D01*
X64291428Y-36682380D01*
X65053333Y-37158571D02*
X64720000Y-37158571D01*
X64720000Y-37682380D02*
X64720000Y-36682380D01*
X65196190Y-36682380D01*
X65720000Y-36682380D02*
X65720000Y-36920476D01*
X65481904Y-36825238D02*
X65720000Y-36920476D01*
X65958095Y-36825238D01*
X65577142Y-37110952D02*
X65720000Y-36920476D01*
X65862857Y-37110952D01*
X66481904Y-36682380D02*
X66481904Y-36920476D01*
X66243809Y-36825238D02*
X66481904Y-36920476D01*
X66720000Y-36825238D01*
X66339047Y-37110952D02*
X66481904Y-36920476D01*
X66624761Y-37110952D01*
D12*
%TO.C,PZ1*%
X142057446Y-44787356D02*
X141112564Y-44787356D01*
X141112564Y-44427401D01*
X141157559Y-44337412D01*
X141202553Y-44292418D01*
X141292542Y-44247424D01*
X141427525Y-44247424D01*
X141517514Y-44292418D01*
X141562508Y-44337412D01*
X141607502Y-44427401D01*
X141607502Y-44787356D01*
X141112564Y-43932463D02*
X141112564Y-43302542D01*
X142057446Y-43932463D01*
X142057446Y-43302542D01*
X142057446Y-42447648D02*
X142057446Y-42987581D01*
X142057446Y-42717615D02*
X141112564Y-42717615D01*
X141247547Y-42807603D01*
X141337536Y-42897592D01*
X141382530Y-42987581D01*
D11*
%TO.C,REF\u002A\u002A*%
X158326666Y-132362380D02*
X157993333Y-131886190D01*
X157755238Y-132362380D02*
X157755238Y-131362380D01*
X158136190Y-131362380D01*
X158231428Y-131410000D01*
X158279047Y-131457619D01*
X158326666Y-131552857D01*
X158326666Y-131695714D01*
X158279047Y-131790952D01*
X158231428Y-131838571D01*
X158136190Y-131886190D01*
X157755238Y-131886190D01*
X158755238Y-131838571D02*
X159088571Y-131838571D01*
X159231428Y-132362380D02*
X158755238Y-132362380D01*
X158755238Y-131362380D01*
X159231428Y-131362380D01*
X159993333Y-131838571D02*
X159660000Y-131838571D01*
X159660000Y-132362380D02*
X159660000Y-131362380D01*
X160136190Y-131362380D01*
X160660000Y-131362380D02*
X160660000Y-131600476D01*
X160421904Y-131505238D02*
X160660000Y-131600476D01*
X160898095Y-131505238D01*
X160517142Y-131790952D02*
X160660000Y-131600476D01*
X160802857Y-131790952D01*
X161421904Y-131362380D02*
X161421904Y-131600476D01*
X161183809Y-131505238D02*
X161421904Y-131600476D01*
X161660000Y-131505238D01*
X161279047Y-131790952D02*
X161421904Y-131600476D01*
X161564761Y-131790952D01*
%TO.C,U2*%
X99755095Y-49194380D02*
X99755095Y-50003904D01*
X99802714Y-50099142D01*
X99850333Y-50146761D01*
X99945571Y-50194380D01*
X100136047Y-50194380D01*
X100231285Y-50146761D01*
X100278904Y-50099142D01*
X100326523Y-50003904D01*
X100326523Y-49194380D01*
X100755095Y-49289619D02*
X100802714Y-49242000D01*
X100897952Y-49194380D01*
X101136047Y-49194380D01*
X101231285Y-49242000D01*
X101278904Y-49289619D01*
X101326523Y-49384857D01*
X101326523Y-49480095D01*
X101278904Y-49622952D01*
X100707476Y-50194380D01*
X101326523Y-50194380D01*
%TO.C,C13*%
X123252142Y-116657857D02*
X123299761Y-116705476D01*
X123347380Y-116848333D01*
X123347380Y-116943571D01*
X123299761Y-117086428D01*
X123204523Y-117181666D01*
X123109285Y-117229285D01*
X122918809Y-117276904D01*
X122775952Y-117276904D01*
X122585476Y-117229285D01*
X122490238Y-117181666D01*
X122395000Y-117086428D01*
X122347380Y-116943571D01*
X122347380Y-116848333D01*
X122395000Y-116705476D01*
X122442619Y-116657857D01*
X123347380Y-115705476D02*
X123347380Y-116276904D01*
X123347380Y-115991190D02*
X122347380Y-115991190D01*
X122490238Y-116086428D01*
X122585476Y-116181666D01*
X122633095Y-116276904D01*
X122347380Y-115372142D02*
X122347380Y-114753095D01*
X122728333Y-115086428D01*
X122728333Y-114943571D01*
X122775952Y-114848333D01*
X122823571Y-114800714D01*
X122918809Y-114753095D01*
X123156904Y-114753095D01*
X123252142Y-114800714D01*
X123299761Y-114848333D01*
X123347380Y-114943571D01*
X123347380Y-115229285D01*
X123299761Y-115324523D01*
X123252142Y-115372142D01*
%TO.C,C19*%
X112277142Y-129197142D02*
X112229523Y-129244761D01*
X112086666Y-129292380D01*
X111991428Y-129292380D01*
X111848571Y-129244761D01*
X111753333Y-129149523D01*
X111705714Y-129054285D01*
X111658095Y-128863809D01*
X111658095Y-128720952D01*
X111705714Y-128530476D01*
X111753333Y-128435238D01*
X111848571Y-128340000D01*
X111991428Y-128292380D01*
X112086666Y-128292380D01*
X112229523Y-128340000D01*
X112277142Y-128387619D01*
X113229523Y-129292380D02*
X112658095Y-129292380D01*
X112943809Y-129292380D02*
X112943809Y-128292380D01*
X112848571Y-128435238D01*
X112753333Y-128530476D01*
X112658095Y-128578095D01*
X113705714Y-129292380D02*
X113896190Y-129292380D01*
X113991428Y-129244761D01*
X114039047Y-129197142D01*
X114134285Y-129054285D01*
X114181904Y-128863809D01*
X114181904Y-128482857D01*
X114134285Y-128387619D01*
X114086666Y-128340000D01*
X113991428Y-128292380D01*
X113800952Y-128292380D01*
X113705714Y-128340000D01*
X113658095Y-128387619D01*
X113610476Y-128482857D01*
X113610476Y-128720952D01*
X113658095Y-128816190D01*
X113705714Y-128863809D01*
X113800952Y-128911428D01*
X113991428Y-128911428D01*
X114086666Y-128863809D01*
X114134285Y-128816190D01*
X114181904Y-128720952D01*
%TO.C,J1*%
X69557380Y-54198333D02*
X70271666Y-54198333D01*
X70414523Y-54245952D01*
X70509761Y-54341190D01*
X70557380Y-54484047D01*
X70557380Y-54579285D01*
X70557380Y-53198333D02*
X70557380Y-53769761D01*
X70557380Y-53484047D02*
X69557380Y-53484047D01*
X69700238Y-53579285D01*
X69795476Y-53674523D01*
X69843095Y-53769761D01*
D12*
%TO.C,MOD2*%
X81302861Y-112352410D02*
X81302861Y-110777607D01*
X81827795Y-111902467D01*
X82352729Y-110777607D01*
X82352729Y-112352410D01*
X83402598Y-110777607D02*
X83702560Y-110777607D01*
X83852542Y-110852598D01*
X84002523Y-111002579D01*
X84077514Y-111302542D01*
X84077514Y-111827476D01*
X84002523Y-112127439D01*
X83852542Y-112277420D01*
X83702560Y-112352410D01*
X83402598Y-112352410D01*
X83252617Y-112277420D01*
X83102636Y-112127439D01*
X83027645Y-111827476D01*
X83027645Y-111302542D01*
X83102636Y-111002579D01*
X83252617Y-110852598D01*
X83402598Y-110777607D01*
X84752429Y-112352410D02*
X84752429Y-110777607D01*
X85127382Y-110777607D01*
X85352354Y-110852598D01*
X85502335Y-111002579D01*
X85577326Y-111152560D01*
X85652317Y-111452523D01*
X85652317Y-111677495D01*
X85577326Y-111977457D01*
X85502335Y-112127439D01*
X85352354Y-112277420D01*
X85127382Y-112352410D01*
X84752429Y-112352410D01*
X86252242Y-110927589D02*
X86327232Y-110852598D01*
X86477213Y-110777607D01*
X86852166Y-110777607D01*
X87002148Y-110852598D01*
X87077138Y-110927589D01*
X87152129Y-111077570D01*
X87152129Y-111227551D01*
X87077138Y-111452523D01*
X86177251Y-112352410D01*
X87152129Y-112352410D01*
D11*
%TO.C,C24*%
X131287142Y-127897142D02*
X131239523Y-127944761D01*
X131096666Y-127992380D01*
X131001428Y-127992380D01*
X130858571Y-127944761D01*
X130763333Y-127849523D01*
X130715714Y-127754285D01*
X130668095Y-127563809D01*
X130668095Y-127420952D01*
X130715714Y-127230476D01*
X130763333Y-127135238D01*
X130858571Y-127040000D01*
X131001428Y-126992380D01*
X131096666Y-126992380D01*
X131239523Y-127040000D01*
X131287142Y-127087619D01*
X131668095Y-127087619D02*
X131715714Y-127040000D01*
X131810952Y-126992380D01*
X132049047Y-126992380D01*
X132144285Y-127040000D01*
X132191904Y-127087619D01*
X132239523Y-127182857D01*
X132239523Y-127278095D01*
X132191904Y-127420952D01*
X131620476Y-127992380D01*
X132239523Y-127992380D01*
X133096666Y-127325714D02*
X133096666Y-127992380D01*
X132858571Y-126944761D02*
X132620476Y-127659047D01*
X133239523Y-127659047D01*
%TO.C,C9*%
X87597142Y-124595262D02*
X87644761Y-124642881D01*
X87692380Y-124785738D01*
X87692380Y-124880976D01*
X87644761Y-125023834D01*
X87549523Y-125119072D01*
X87454285Y-125166691D01*
X87263809Y-125214310D01*
X87120952Y-125214310D01*
X86930476Y-125166691D01*
X86835238Y-125119072D01*
X86740000Y-125023834D01*
X86692380Y-124880976D01*
X86692380Y-124785738D01*
X86740000Y-124642881D01*
X86787619Y-124595262D01*
X87692380Y-124119072D02*
X87692380Y-123928596D01*
X87644761Y-123833357D01*
X87597142Y-123785738D01*
X87454285Y-123690500D01*
X87263809Y-123642881D01*
X86882857Y-123642881D01*
X86787619Y-123690500D01*
X86740000Y-123738119D01*
X86692380Y-123833357D01*
X86692380Y-124023834D01*
X86740000Y-124119072D01*
X86787619Y-124166691D01*
X86882857Y-124214310D01*
X87120952Y-124214310D01*
X87216190Y-124166691D01*
X87263809Y-124119072D01*
X87311428Y-124023834D01*
X87311428Y-123833357D01*
X87263809Y-123738119D01*
X87216190Y-123690500D01*
X87120952Y-123642881D01*
%TO.C,C6*%
X105273333Y-65977142D02*
X105225714Y-66024761D01*
X105082857Y-66072380D01*
X104987619Y-66072380D01*
X104844761Y-66024761D01*
X104749523Y-65929523D01*
X104701904Y-65834285D01*
X104654285Y-65643809D01*
X104654285Y-65500952D01*
X104701904Y-65310476D01*
X104749523Y-65215238D01*
X104844761Y-65120000D01*
X104987619Y-65072380D01*
X105082857Y-65072380D01*
X105225714Y-65120000D01*
X105273333Y-65167619D01*
X106130476Y-65072380D02*
X105940000Y-65072380D01*
X105844761Y-65120000D01*
X105797142Y-65167619D01*
X105701904Y-65310476D01*
X105654285Y-65500952D01*
X105654285Y-65881904D01*
X105701904Y-65977142D01*
X105749523Y-66024761D01*
X105844761Y-66072380D01*
X106035238Y-66072380D01*
X106130476Y-66024761D01*
X106178095Y-65977142D01*
X106225714Y-65881904D01*
X106225714Y-65643809D01*
X106178095Y-65548571D01*
X106130476Y-65500952D01*
X106035238Y-65453333D01*
X105844761Y-65453333D01*
X105749523Y-65500952D01*
X105701904Y-65548571D01*
X105654285Y-65643809D01*
%TO.C,R4*%
X127410833Y-81064880D02*
X127077500Y-80588690D01*
X126839404Y-81064880D02*
X126839404Y-80064880D01*
X127220357Y-80064880D01*
X127315595Y-80112500D01*
X127363214Y-80160119D01*
X127410833Y-80255357D01*
X127410833Y-80398214D01*
X127363214Y-80493452D01*
X127315595Y-80541071D01*
X127220357Y-80588690D01*
X126839404Y-80588690D01*
X128267976Y-80398214D02*
X128267976Y-81064880D01*
X128029880Y-80017261D02*
X127791785Y-80731547D01*
X128410833Y-80731547D01*
%TO.C,C14*%
X119127142Y-126567142D02*
X119079523Y-126614761D01*
X118936666Y-126662380D01*
X118841428Y-126662380D01*
X118698571Y-126614761D01*
X118603333Y-126519523D01*
X118555714Y-126424285D01*
X118508095Y-126233809D01*
X118508095Y-126090952D01*
X118555714Y-125900476D01*
X118603333Y-125805238D01*
X118698571Y-125710000D01*
X118841428Y-125662380D01*
X118936666Y-125662380D01*
X119079523Y-125710000D01*
X119127142Y-125757619D01*
X120079523Y-126662380D02*
X119508095Y-126662380D01*
X119793809Y-126662380D02*
X119793809Y-125662380D01*
X119698571Y-125805238D01*
X119603333Y-125900476D01*
X119508095Y-125948095D01*
X120936666Y-125995714D02*
X120936666Y-126662380D01*
X120698571Y-125614761D02*
X120460476Y-126329047D01*
X121079523Y-126329047D01*
D12*
%TO.C,U7*%
X117660150Y-86787607D02*
X117660150Y-88062448D01*
X117735140Y-88212429D01*
X117810131Y-88287420D01*
X117960112Y-88362410D01*
X118260075Y-88362410D01*
X118410056Y-88287420D01*
X118485046Y-88212429D01*
X118560037Y-88062448D01*
X118560037Y-86787607D01*
X119159962Y-86787607D02*
X120209831Y-86787607D01*
X119534915Y-88362410D01*
D11*
%TO.C,C15*%
X121457142Y-112927142D02*
X121409523Y-112974761D01*
X121266666Y-113022380D01*
X121171428Y-113022380D01*
X121028571Y-112974761D01*
X120933333Y-112879523D01*
X120885714Y-112784285D01*
X120838095Y-112593809D01*
X120838095Y-112450952D01*
X120885714Y-112260476D01*
X120933333Y-112165238D01*
X121028571Y-112070000D01*
X121171428Y-112022380D01*
X121266666Y-112022380D01*
X121409523Y-112070000D01*
X121457142Y-112117619D01*
X122409523Y-113022380D02*
X121838095Y-113022380D01*
X122123809Y-113022380D02*
X122123809Y-112022380D01*
X122028571Y-112165238D01*
X121933333Y-112260476D01*
X121838095Y-112308095D01*
X123314285Y-112022380D02*
X122838095Y-112022380D01*
X122790476Y-112498571D01*
X122838095Y-112450952D01*
X122933333Y-112403333D01*
X123171428Y-112403333D01*
X123266666Y-112450952D01*
X123314285Y-112498571D01*
X123361904Y-112593809D01*
X123361904Y-112831904D01*
X123314285Y-112927142D01*
X123266666Y-112974761D01*
X123171428Y-113022380D01*
X122933333Y-113022380D01*
X122838095Y-112974761D01*
X122790476Y-112927142D01*
%TO.C,R6*%
X117492380Y-129666666D02*
X117016190Y-130000000D01*
X117492380Y-130238095D02*
X116492380Y-130238095D01*
X116492380Y-129857142D01*
X116540000Y-129761904D01*
X116587619Y-129714285D01*
X116682857Y-129666666D01*
X116825714Y-129666666D01*
X116920952Y-129714285D01*
X116968571Y-129761904D01*
X117016190Y-129857142D01*
X117016190Y-130238095D01*
X116492380Y-128809523D02*
X116492380Y-129000000D01*
X116540000Y-129095238D01*
X116587619Y-129142857D01*
X116730476Y-129238095D01*
X116920952Y-129285714D01*
X117301904Y-129285714D01*
X117397142Y-129238095D01*
X117444761Y-129190476D01*
X117492380Y-129095238D01*
X117492380Y-128904761D01*
X117444761Y-128809523D01*
X117397142Y-128761904D01*
X117301904Y-128714285D01*
X117063809Y-128714285D01*
X116968571Y-128761904D01*
X116920952Y-128809523D01*
X116873333Y-128904761D01*
X116873333Y-129095238D01*
X116920952Y-129190476D01*
X116968571Y-129238095D01*
X117063809Y-129285714D01*
%TO.C,C10*%
X111087142Y-113632142D02*
X111039523Y-113679761D01*
X110896666Y-113727380D01*
X110801428Y-113727380D01*
X110658571Y-113679761D01*
X110563333Y-113584523D01*
X110515714Y-113489285D01*
X110468095Y-113298809D01*
X110468095Y-113155952D01*
X110515714Y-112965476D01*
X110563333Y-112870238D01*
X110658571Y-112775000D01*
X110801428Y-112727380D01*
X110896666Y-112727380D01*
X111039523Y-112775000D01*
X111087142Y-112822619D01*
X112039523Y-113727380D02*
X111468095Y-113727380D01*
X111753809Y-113727380D02*
X111753809Y-112727380D01*
X111658571Y-112870238D01*
X111563333Y-112965476D01*
X111468095Y-113013095D01*
X112658571Y-112727380D02*
X112753809Y-112727380D01*
X112849047Y-112775000D01*
X112896666Y-112822619D01*
X112944285Y-112917857D01*
X112991904Y-113108333D01*
X112991904Y-113346428D01*
X112944285Y-113536904D01*
X112896666Y-113632142D01*
X112849047Y-113679761D01*
X112753809Y-113727380D01*
X112658571Y-113727380D01*
X112563333Y-113679761D01*
X112515714Y-113632142D01*
X112468095Y-113536904D01*
X112420476Y-113346428D01*
X112420476Y-113108333D01*
X112468095Y-112917857D01*
X112515714Y-112822619D01*
X112563333Y-112775000D01*
X112658571Y-112727380D01*
%TO.C,C17*%
X121567142Y-119392857D02*
X121614761Y-119440476D01*
X121662380Y-119583333D01*
X121662380Y-119678571D01*
X121614761Y-119821428D01*
X121519523Y-119916666D01*
X121424285Y-119964285D01*
X121233809Y-120011904D01*
X121090952Y-120011904D01*
X120900476Y-119964285D01*
X120805238Y-119916666D01*
X120710000Y-119821428D01*
X120662380Y-119678571D01*
X120662380Y-119583333D01*
X120710000Y-119440476D01*
X120757619Y-119392857D01*
X121662380Y-118440476D02*
X121662380Y-119011904D01*
X121662380Y-118726190D02*
X120662380Y-118726190D01*
X120805238Y-118821428D01*
X120900476Y-118916666D01*
X120948095Y-119011904D01*
X120662380Y-118107142D02*
X120662380Y-117440476D01*
X121662380Y-117869047D01*
%TO.C,C16*%
X112287142Y-124217142D02*
X112239523Y-124264761D01*
X112096666Y-124312380D01*
X112001428Y-124312380D01*
X111858571Y-124264761D01*
X111763333Y-124169523D01*
X111715714Y-124074285D01*
X111668095Y-123883809D01*
X111668095Y-123740952D01*
X111715714Y-123550476D01*
X111763333Y-123455238D01*
X111858571Y-123360000D01*
X112001428Y-123312380D01*
X112096666Y-123312380D01*
X112239523Y-123360000D01*
X112287142Y-123407619D01*
X113239523Y-124312380D02*
X112668095Y-124312380D01*
X112953809Y-124312380D02*
X112953809Y-123312380D01*
X112858571Y-123455238D01*
X112763333Y-123550476D01*
X112668095Y-123598095D01*
X114096666Y-123312380D02*
X113906190Y-123312380D01*
X113810952Y-123360000D01*
X113763333Y-123407619D01*
X113668095Y-123550476D01*
X113620476Y-123740952D01*
X113620476Y-124121904D01*
X113668095Y-124217142D01*
X113715714Y-124264761D01*
X113810952Y-124312380D01*
X114001428Y-124312380D01*
X114096666Y-124264761D01*
X114144285Y-124217142D01*
X114191904Y-124121904D01*
X114191904Y-123883809D01*
X114144285Y-123788571D01*
X114096666Y-123740952D01*
X114001428Y-123693333D01*
X113810952Y-123693333D01*
X113715714Y-123740952D01*
X113668095Y-123788571D01*
X113620476Y-123883809D01*
%TO.C,CON1*%
X109557142Y-119029285D02*
X109604761Y-119076904D01*
X109652380Y-119219761D01*
X109652380Y-119315000D01*
X109604761Y-119457857D01*
X109509523Y-119553095D01*
X109414285Y-119600714D01*
X109223809Y-119648333D01*
X109080952Y-119648333D01*
X108890476Y-119600714D01*
X108795238Y-119553095D01*
X108700000Y-119457857D01*
X108652380Y-119315000D01*
X108652380Y-119219761D01*
X108700000Y-119076904D01*
X108747619Y-119029285D01*
X108652380Y-118410238D02*
X108652380Y-118219761D01*
X108700000Y-118124523D01*
X108795238Y-118029285D01*
X108985714Y-117981666D01*
X109319047Y-117981666D01*
X109509523Y-118029285D01*
X109604761Y-118124523D01*
X109652380Y-118219761D01*
X109652380Y-118410238D01*
X109604761Y-118505476D01*
X109509523Y-118600714D01*
X109319047Y-118648333D01*
X108985714Y-118648333D01*
X108795238Y-118600714D01*
X108700000Y-118505476D01*
X108652380Y-118410238D01*
X109652380Y-117553095D02*
X108652380Y-117553095D01*
X109652380Y-116981666D01*
X108652380Y-116981666D01*
X109652380Y-115981666D02*
X109652380Y-116553095D01*
X109652380Y-116267380D02*
X108652380Y-116267380D01*
X108795238Y-116362619D01*
X108890476Y-116457857D01*
X108938095Y-116553095D01*
D14*
%TO.C,Q1*%
X151535000Y-47365000D02*
X152805000Y-47365000D01*
X155345000Y-48635000D02*
X155345000Y-44825000D01*
X152805000Y-48635000D02*
X155345000Y-48635000D01*
X152805000Y-46095000D02*
X152805000Y-45460000D01*
X152805000Y-44825000D02*
X152805000Y-45460000D01*
X151535000Y-47365000D02*
X151535000Y-46095000D01*
X155345000Y-44825000D02*
X152805000Y-44825000D01*
X151535000Y-46095000D02*
X152805000Y-46095000D01*
X152805000Y-48000000D02*
X152805000Y-48635000D01*
X152805000Y-47365000D02*
X152805000Y-48000000D01*
D15*
%TO.C,MOD1*%
X150830000Y-105010000D02*
X150830000Y-121010000D01*
X134830000Y-105010000D02*
X134830000Y-121010000D01*
D14*
%TO.C,C22*%
X124310000Y-80180000D02*
X124310000Y-81450000D01*
X121770000Y-80815000D02*
X121770000Y-80180000D01*
X121770000Y-81450000D02*
X121770000Y-80815000D01*
X121770000Y-80180000D02*
X124310000Y-80180000D01*
X124310000Y-81450000D02*
X121770000Y-81450000D01*
D15*
%TO.C,U6*%
X119270000Y-121240000D02*
X119640000Y-121240000D01*
X113640000Y-121240000D02*
X114010000Y-121240000D01*
X119640000Y-121240000D02*
X119640000Y-120870000D01*
X114010000Y-115240000D02*
X113640000Y-115240000D01*
X119640000Y-115610000D02*
X119640000Y-115240000D01*
X113640000Y-115240000D02*
X113640000Y-115610000D01*
X113640000Y-120870000D02*
X113640000Y-121240000D01*
X119640000Y-115240000D02*
X119270000Y-115240000D01*
D16*
X118940000Y-114340000D02*
G75*
G03*
X118940000Y-114340000I-100000J0D01*
G01*
D14*
%TO.C,C18*%
X128315000Y-119435000D02*
X128315000Y-120705000D01*
X128315000Y-120705000D02*
X125775000Y-120705000D01*
X125775000Y-120070000D02*
X125775000Y-119435000D01*
X125775000Y-120705000D02*
X125775000Y-120070000D01*
X125775000Y-119435000D02*
X128315000Y-119435000D01*
D17*
%TO.C,U3*%
X108566750Y-69280250D02*
X109223550Y-69280250D01*
X111566750Y-69437050D02*
X111566750Y-69280250D01*
X108566750Y-69437050D02*
X108566750Y-69280250D01*
X111566750Y-72280250D02*
X110909950Y-72280250D01*
X108566750Y-72123450D02*
X108566750Y-72280250D01*
X108566750Y-72280250D02*
X109223550Y-72280250D01*
X111566750Y-69280250D02*
X110909950Y-69280250D01*
X111566750Y-72123450D02*
X111566750Y-72280250D01*
D15*
X111944750Y-72431250D02*
G75*
G03*
X111944750Y-72431250I-100000J0D01*
G01*
D14*
%TO.C,R5*%
X129757500Y-73287500D02*
X129757500Y-73922500D01*
X129757500Y-73922500D02*
X127217500Y-73922500D01*
X127217500Y-72652500D02*
X129757500Y-72652500D01*
X129757500Y-72652500D02*
X129757500Y-73287500D01*
X127217500Y-73922500D02*
X127217500Y-72652500D01*
%TO.C,U4*%
X118070000Y-64080000D02*
X117530000Y-63580000D01*
X125530000Y-55080000D02*
X125530000Y-64080000D01*
X125530000Y-64080000D02*
X118070000Y-64080000D01*
X117530000Y-63580000D02*
X117530000Y-55080000D01*
X117530000Y-55080000D02*
X125530000Y-55080000D01*
D18*
%TO.C,BT1*%
X63355000Y-81580000D02*
X68390000Y-81580000D01*
X78425000Y-98580000D02*
X78425000Y-81580000D01*
X73390000Y-98580000D02*
X78425000Y-98580000D01*
X63355000Y-98580000D02*
X63355000Y-81580000D01*
X78425000Y-81580000D02*
X73390000Y-81580000D01*
X68390000Y-98580000D02*
X63355000Y-98580000D01*
D14*
%TO.C,C20*%
X118350000Y-81465000D02*
X117715000Y-81465000D01*
X117715000Y-81465000D02*
X117715000Y-78925000D01*
X118985000Y-78925000D02*
X118985000Y-81465000D01*
X117715000Y-78925000D02*
X118985000Y-78925000D01*
X118985000Y-81465000D02*
X118350000Y-81465000D01*
%TO.C,R3*%
X119585000Y-66125000D02*
X119585000Y-68665000D01*
X118950000Y-68665000D02*
X118315000Y-68665000D01*
X119585000Y-68665000D02*
X118950000Y-68665000D01*
X118315000Y-66125000D02*
X119585000Y-66125000D01*
X118315000Y-68665000D02*
X118315000Y-66125000D01*
%TO.C,C21*%
X121715000Y-83400000D02*
X121715000Y-82765000D01*
X124255000Y-84035000D02*
X121715000Y-84035000D01*
X121715000Y-82765000D02*
X124255000Y-82765000D01*
X121715000Y-84035000D02*
X121715000Y-83400000D01*
X124255000Y-82765000D02*
X124255000Y-84035000D01*
%TO.C,C12*%
X112460000Y-110855000D02*
X112460000Y-112125000D01*
X109920000Y-112125000D02*
X109920000Y-111490000D01*
X109920000Y-111490000D02*
X109920000Y-110855000D01*
X112460000Y-112125000D02*
X109920000Y-112125000D01*
X109920000Y-110855000D02*
X112460000Y-110855000D01*
%TO.C,L1*%
X86570000Y-120808596D02*
X85300000Y-120808596D01*
X85300000Y-118268596D02*
X85935000Y-118268596D01*
X85935000Y-118268596D02*
X86570000Y-118268596D01*
X86570000Y-118268596D02*
X86570000Y-120808596D01*
X85300000Y-120808596D02*
X85300000Y-118268596D01*
%TO.C,R7*%
X131510000Y-103885000D02*
X131510000Y-103250000D01*
X134050000Y-103250000D02*
X134050000Y-104520000D01*
X134050000Y-104520000D02*
X131510000Y-104520000D01*
X131510000Y-104520000D02*
X131510000Y-103885000D01*
X131510000Y-103250000D02*
X134050000Y-103250000D01*
%TO.C,AE3*%
X141110000Y-136870000D02*
X141110000Y-137370000D01*
X132610000Y-129370000D02*
X141110000Y-129370000D01*
X132610000Y-137370000D02*
X132610000Y-129370000D01*
X141110000Y-137370000D02*
X132610000Y-137370000D01*
X141110000Y-129370000D02*
X141110000Y-136870000D01*
%TO.C,C1*%
X100125000Y-62755000D02*
X97585000Y-62755000D01*
X100125000Y-61485000D02*
X100125000Y-62755000D01*
X97585000Y-61485000D02*
X100125000Y-61485000D01*
X97585000Y-62120000D02*
X97585000Y-61485000D01*
X97585000Y-62755000D02*
X97585000Y-62120000D01*
%TO.C,C8*%
X78765000Y-104855000D02*
X81305000Y-104855000D01*
X78765000Y-106125000D02*
X78765000Y-104855000D01*
X81305000Y-105490000D02*
X81305000Y-106125000D01*
X81305000Y-104855000D02*
X81305000Y-105490000D01*
X81305000Y-106125000D02*
X78765000Y-106125000D01*
%TO.C,U5*%
X126952500Y-74722500D02*
X127587500Y-74722500D01*
X126952500Y-74722500D02*
X130762500Y-74722500D01*
X130762500Y-77897500D02*
X126952500Y-77897500D01*
X126952500Y-77897500D02*
X126952500Y-74722500D01*
X130762500Y-74722500D02*
X130762500Y-77897500D01*
D19*
X126637500Y-75417500D02*
G75*
G03*
X126637500Y-75417500I-80000J0D01*
G01*
X128447500Y-75417500D02*
G75*
G03*
X128447500Y-75417500I-80000J0D01*
G01*
D14*
%TO.C,C3*%
X81470000Y-56870000D02*
X81470000Y-57505000D01*
X78930000Y-56870000D02*
X81470000Y-56870000D01*
X81470000Y-57505000D02*
X81470000Y-58140000D01*
X78930000Y-58140000D02*
X78930000Y-56870000D01*
X81470000Y-58140000D02*
X78930000Y-58140000D01*
%TO.C,C23*%
X141960000Y-125510000D02*
X139420000Y-125510000D01*
X139420000Y-124240000D02*
X141960000Y-124240000D01*
X139420000Y-124875000D02*
X139420000Y-124240000D01*
X139420000Y-125510000D02*
X139420000Y-124875000D01*
X141960000Y-124240000D02*
X141960000Y-125510000D01*
%TO.C,R2*%
X154185000Y-50830000D02*
X154185000Y-50195000D01*
X154185000Y-51465000D02*
X154185000Y-50830000D01*
X156725000Y-50195000D02*
X156725000Y-51465000D01*
X156725000Y-51465000D02*
X154185000Y-51465000D01*
X154185000Y-50195000D02*
X156725000Y-50195000D01*
%TO.C,J2*%
X125200000Y-46750000D02*
X125200000Y-49290000D01*
X117580000Y-46750000D02*
X125200000Y-46750000D01*
X117580000Y-49290000D02*
X117580000Y-48020000D01*
X117580000Y-48020000D02*
X117580000Y-46750000D01*
X125200000Y-49290000D02*
X117580000Y-49290000D01*
%TO.C,R8*%
X136445000Y-126775000D02*
X135175000Y-126775000D01*
X135175000Y-124235000D02*
X135810000Y-124235000D01*
X135175000Y-126775000D02*
X135175000Y-124235000D01*
X135810000Y-124235000D02*
X136445000Y-124235000D01*
X136445000Y-124235000D02*
X136445000Y-126775000D01*
%TO.C,C5*%
X107015000Y-68175000D02*
X107015000Y-66905000D01*
X109555000Y-66905000D02*
X109555000Y-67540000D01*
X109555000Y-68175000D02*
X107015000Y-68175000D01*
X109555000Y-67540000D02*
X109555000Y-68175000D01*
X107015000Y-66905000D02*
X109555000Y-66905000D01*
%TO.C,C7*%
X81320000Y-108420000D02*
X78780000Y-108420000D01*
X81320000Y-107150000D02*
X81320000Y-107785000D01*
X81320000Y-107785000D02*
X81320000Y-108420000D01*
X78780000Y-108420000D02*
X78780000Y-107150000D01*
X78780000Y-107150000D02*
X81320000Y-107150000D01*
%TO.C,CON2*%
X109660000Y-84620000D02*
X109660000Y-85255000D01*
X109660000Y-85255000D02*
X109025000Y-85255000D01*
%TO.C,U1*%
X82510000Y-56630000D02*
X87900000Y-56620000D01*
D15*
X87725000Y-58380000D02*
X87725000Y-62280000D01*
D14*
X87890000Y-64040000D02*
X82500000Y-64050000D01*
X82500000Y-64050000D02*
X82510000Y-56630000D01*
D15*
X82675000Y-58380000D02*
X82675000Y-62280000D01*
D14*
X87900000Y-56620000D02*
X87890000Y-64040000D01*
D16*
X87605000Y-56290000D02*
G75*
G03*
X87605000Y-56290000I-100000J0D01*
G01*
D14*
%TO.C,C11*%
X112495000Y-108845000D02*
X109955000Y-108845000D01*
X109955000Y-108210000D02*
X109955000Y-107575000D01*
X109955000Y-107575000D02*
X112495000Y-107575000D01*
X109955000Y-108845000D02*
X109955000Y-108210000D01*
X112495000Y-107575000D02*
X112495000Y-108845000D01*
%TO.C,C2*%
X100035000Y-59485000D02*
X100035000Y-60755000D01*
X97495000Y-59485000D02*
X100035000Y-59485000D01*
X100035000Y-60755000D02*
X97495000Y-60755000D01*
X97495000Y-60120000D02*
X97495000Y-59485000D01*
X97495000Y-60755000D02*
X97495000Y-60120000D01*
%TO.C,C4*%
X81425000Y-59930000D02*
X81425000Y-60565000D01*
X81425000Y-59295000D02*
X81425000Y-59930000D01*
X78885000Y-59295000D02*
X81425000Y-59295000D01*
X78885000Y-60565000D02*
X78885000Y-59295000D01*
X81425000Y-60565000D02*
X78885000Y-60565000D01*
%TO.C,AE1*%
X90420000Y-137200000D02*
X81920000Y-137200000D01*
X90420000Y-129200000D02*
X90420000Y-136700000D01*
X81920000Y-137200000D02*
X81920000Y-129200000D01*
X90420000Y-136700000D02*
X90420000Y-137200000D01*
X81920000Y-129200000D02*
X90420000Y-129200000D01*
%TO.C,R1*%
X82672936Y-49780000D02*
X87027064Y-49780000D01*
X82672936Y-53200000D02*
X87027064Y-53200000D01*
%TO.C,PZ1*%
X136680000Y-53190000D02*
X134680000Y-53190000D01*
X149680000Y-39690000D02*
X149680000Y-53190000D01*
X149680000Y-53190000D02*
X136680000Y-53190000D01*
X134680000Y-53190000D02*
X134680000Y-39690000D01*
X134680000Y-39690000D02*
X149680000Y-39690000D01*
%TO.C,U2*%
X106486000Y-47710000D02*
X106486000Y-57870000D01*
X94294000Y-55330000D02*
X96540000Y-57855000D01*
X94294000Y-55330000D02*
X94294000Y-47710000D01*
X94294000Y-57870000D02*
X94294000Y-55330000D01*
X106486000Y-57870000D02*
X94294000Y-57870000D01*
X94294000Y-47710000D02*
X106486000Y-47710000D01*
%TO.C,C13*%
X121625000Y-114110000D02*
X122260000Y-114110000D01*
X122260000Y-114110000D02*
X122260000Y-116650000D01*
X120990000Y-116650000D02*
X120990000Y-114110000D01*
X122260000Y-116650000D02*
X120990000Y-116650000D01*
X120990000Y-114110000D02*
X121625000Y-114110000D01*
%TO.C,C19*%
X114235000Y-126605000D02*
X114235000Y-127240000D01*
X111695000Y-126605000D02*
X114235000Y-126605000D01*
X114235000Y-127240000D02*
X114235000Y-127875000D01*
X114235000Y-127875000D02*
X111695000Y-127875000D01*
X111695000Y-127875000D02*
X111695000Y-126605000D01*
%TO.C,J1*%
X70785000Y-50215000D02*
X73325000Y-50215000D01*
X70785000Y-57835000D02*
X70785000Y-50215000D01*
X73325000Y-50215000D02*
X73325000Y-57835000D01*
X73325000Y-57835000D02*
X72055000Y-57835000D01*
X72055000Y-57835000D02*
X70785000Y-57835000D01*
%TO.C,MOD2*%
X94230000Y-116240000D02*
X94230000Y-115740000D01*
X94230000Y-115740000D02*
X94490000Y-115740000D01*
X83890000Y-115740000D02*
X84150000Y-115740000D01*
X84150000Y-116240000D02*
X94230000Y-116240000D01*
X83890000Y-110950000D02*
X83890000Y-115740000D01*
X84150000Y-115740000D02*
X84150000Y-116240000D01*
X83890000Y-105540000D02*
X83890000Y-110950000D01*
X84140000Y-105030000D02*
X84140000Y-105540000D01*
X94250000Y-105530000D02*
X94250000Y-105050000D01*
X84140000Y-105540000D02*
X83890000Y-105540000D01*
X94250000Y-105050000D02*
X84140000Y-105030000D01*
X94490000Y-105530000D02*
X94250000Y-105530000D01*
X94490000Y-115740000D02*
X94490000Y-105530000D01*
D20*
X93651404Y-107430000D02*
G75*
G03*
X93651404Y-107430000I-121404J0D01*
G01*
X93761404Y-104240000D02*
G75*
G03*
X93761404Y-104240000I-121404J0D01*
G01*
D14*
%TO.C,C24*%
X131295000Y-126905000D02*
X131295000Y-125635000D01*
X133835000Y-125635000D02*
X133835000Y-126270000D01*
X133835000Y-126270000D02*
X133835000Y-126905000D01*
X131295000Y-125635000D02*
X133835000Y-125635000D01*
X133835000Y-126905000D02*
X131295000Y-126905000D01*
%TO.C,C9*%
X85970000Y-122523596D02*
X86605000Y-122523596D01*
X86605000Y-122523596D02*
X86605000Y-125063596D01*
X85335000Y-125063596D02*
X85335000Y-122523596D01*
X86605000Y-125063596D02*
X85335000Y-125063596D01*
X85335000Y-122523596D02*
X85970000Y-122523596D01*
%TO.C,C6*%
X109585000Y-65620000D02*
X109585000Y-66255000D01*
X107045000Y-66255000D02*
X107045000Y-64985000D01*
X107045000Y-64985000D02*
X109585000Y-64985000D01*
X109585000Y-64985000D02*
X109585000Y-65620000D01*
X109585000Y-66255000D02*
X107045000Y-66255000D01*
%TO.C,R4*%
X126942500Y-78707500D02*
X129482500Y-78707500D01*
X126942500Y-79977500D02*
X126942500Y-78707500D01*
X129482500Y-79342500D02*
X129482500Y-79977500D01*
X129482500Y-79977500D02*
X126942500Y-79977500D01*
X129482500Y-78707500D02*
X129482500Y-79342500D01*
%TO.C,C14*%
X119135000Y-125575000D02*
X119135000Y-124305000D01*
X121675000Y-125575000D02*
X119135000Y-125575000D01*
X119135000Y-124305000D02*
X121675000Y-124305000D01*
X121675000Y-124305000D02*
X121675000Y-124940000D01*
X121675000Y-124940000D02*
X121675000Y-125575000D01*
%TO.C,U7*%
D21*
X115290756Y-85319310D02*
G75*
G03*
X115290756Y-85319310I-54586J0D01*
G01*
D14*
X121440000Y-84320000D02*
X122130000Y-84320000D01*
X121450000Y-90970000D02*
X116430000Y-90990000D01*
X115500000Y-90030000D02*
X115480000Y-85020000D01*
X122140000Y-90720000D02*
X121450000Y-90720000D01*
X121440000Y-84040000D02*
X121440000Y-84320000D01*
X122420000Y-90030000D02*
X122140000Y-90030000D01*
X115480000Y-85010000D02*
X115740000Y-85010000D01*
X116440000Y-84060000D02*
X121440000Y-84040000D01*
X122140000Y-90030000D02*
X122140000Y-90720000D01*
X121450000Y-90720000D02*
X121450000Y-90970000D01*
X115740000Y-90730000D02*
X115740000Y-90030000D01*
X116430000Y-90730000D02*
X115740000Y-90730000D01*
X122130000Y-85010000D02*
X122390000Y-85010000D01*
X115740000Y-90030000D02*
X115500000Y-90030000D01*
X116430000Y-90990000D02*
X116430000Y-90730000D01*
X122390000Y-85010000D02*
X122420000Y-90030000D01*
X115740000Y-84320000D02*
X116430000Y-84320000D01*
X115740000Y-85010000D02*
X115740000Y-84320000D01*
X116430000Y-84320000D02*
X116430000Y-84060000D01*
X122130000Y-84320000D02*
X122130000Y-85010000D01*
%TO.C,C15*%
X118205000Y-111925000D02*
X120745000Y-111925000D01*
X120745000Y-111925000D02*
X120745000Y-112560000D01*
X120745000Y-113195000D02*
X118205000Y-113195000D01*
X120745000Y-112560000D02*
X120745000Y-113195000D01*
X118205000Y-113195000D02*
X118205000Y-111925000D01*
%TO.C,R6*%
X117825000Y-127875000D02*
X116555000Y-127875000D01*
X117825000Y-125335000D02*
X117825000Y-127875000D01*
X116555000Y-125335000D02*
X117190000Y-125335000D01*
X116555000Y-127875000D02*
X116555000Y-125335000D01*
X117190000Y-125335000D02*
X117825000Y-125335000D01*
%TO.C,C10*%
X109825000Y-114545000D02*
X109825000Y-113910000D01*
X109825000Y-113910000D02*
X112365000Y-113910000D01*
X112365000Y-113910000D02*
X112365000Y-115180000D01*
X109825000Y-115180000D02*
X109825000Y-114545000D01*
X112365000Y-115180000D02*
X109825000Y-115180000D01*
%TO.C,C17*%
X121845000Y-120655000D02*
X121845000Y-118115000D01*
X121845000Y-118115000D02*
X123115000Y-118115000D01*
X122480000Y-120655000D02*
X121845000Y-120655000D01*
X123115000Y-118115000D02*
X123115000Y-120655000D01*
X123115000Y-120655000D02*
X122480000Y-120655000D01*
%TO.C,C16*%
X111695000Y-124655000D02*
X114235000Y-124655000D01*
X114235000Y-125290000D02*
X114235000Y-125925000D01*
X114235000Y-124655000D02*
X114235000Y-125290000D01*
X111695000Y-125925000D02*
X111695000Y-124655000D01*
X114235000Y-125925000D02*
X111695000Y-125925000D01*
%TO.C,CON1*%
X105470000Y-120990000D02*
X104835000Y-120990000D01*
X105470000Y-120355000D02*
X105470000Y-120990000D01*
%TD*%
M02*
