M48
; DRILL file {KiCad (5.99.0-10483-ga6ad7a4a70)} date Tue May 18 14:13:46 2021
; FORMAT={2:4/ absolute / inch / suppress leading zeros}
; #@! TF.CreationDate,2021-05-18T14:13:46+02:00
; #@! TF.GenerationSoftware,Kicad,Pcbnew,(5.99.0-10483-ga6ad7a4a70)
; #@! TF.FileFunction,Plated,1,2,PTH
FMAT,2
INCH,TZ
; #@! TA.AperFunction,Plated,PTH,ViaDrill
T1C0.0098
; #@! TA.AperFunction,Plated,PTH,ComponentDrill
T2C0.0118
; #@! TA.AperFunction,Plated,PTH,ComponentDrill
T3C0.0157
; #@! TA.AperFunction,Plated,PTH,ComponentDrill
T4C0.0402
; #@! TA.AperFunction,Plated,PTH,ComponentDrill
T5C0.0472
; #@! TA.AperFunction,Plated,PTH,ComponentDrill
T6C0.0531
; #@! TA.AperFunction,Plated,PTH,ComponentDrill
T7C0.0551
; #@! TA.AperFunction,Plated,PTH,ComponentDrill
T8C0.0866
%
G90
G05
T1
X27906Y-35476
X30098Y-23150
X30598Y-42083
X33079Y-21161
X33098Y-21701
X33343Y-40752
X33646Y-25768
X34220Y-22047
X34693Y-42709
X35543Y-40563
X35752Y-35315
X36205Y-35795
X36280Y-27130
X37677Y-42000
X39269Y-35549
X39272Y-34390
X40130Y-46874
X40390Y-32811
X40756Y-48752
X41043Y-44685
X41465Y-33063
X41685Y-46571
X41957Y-46921
X42071Y-27803
X42386Y-25343
X42425Y-43248
X42689Y-30378
X43339Y-48437
X43339Y-48437
X43350Y-27799
X43390Y-47921
X43417Y-49732
X43484Y-36508
X44264Y-47413
X44472Y-25772
X44705Y-27425
X45106Y-27126
X45213Y-48083
X45386Y-38894
X45923Y-46553
X45969Y-39154
X46264Y-38382
X46841Y-34443
X47083Y-32551
X47094Y-48445
X47193Y-39386
X47248Y-48130
X47276Y-31346
X47287Y-43854
X47453Y-37764
X47846Y-21402
X47850Y-48437
X47854Y-25272
X48209Y-49650
X48500Y-35571
X48520Y-40272
X48543Y-39193
X48546Y-38462
X48925Y-35323
X48925Y-45177
X49303Y-47331
X49366Y-46752
X49402Y-29378
X49583Y-34295
X49642Y-32020
X50333Y-34624
X50579Y-37240
X50622Y-35701
X50669Y-34705
X50744Y-30429
X50929Y-34472
X51177Y-33803
X51236Y-38421
X51307Y-49717
X51315Y-39201
X51736Y-31335
X51929Y-29823
X52520Y-39650
X52780Y-46575
X54008Y-17295
X55815Y-40118
X55886Y-39366
X56409Y-49165
X60346Y-41646
X62083Y-20024
T2
X46925Y-51803
T3
X24831Y-15917
X24839Y-53276
X25021Y-15458
X25021Y-16377
X25029Y-52816
X25029Y-53735
X25480Y-15268
X25480Y-16567
X25488Y-52626
X25488Y-53925
X25940Y-15458
X25940Y-16377
X25948Y-52816
X25948Y-53735
X26130Y-15917
X26138Y-53276
X62209Y-53193
X62232Y-15906
X62399Y-52734
X62399Y-53652
X62423Y-15446
X62423Y-16365
X62858Y-52543
X62858Y-53843
X62882Y-15256
X62882Y-16555
X63318Y-52734
X63318Y-53652
X63341Y-15446
X63341Y-16365
X63508Y-53193
X63531Y-15906
T4
X38524Y-21783
X39524Y-21783
X40524Y-21783
T5
X33827Y-52441
X53783Y-52508
T6
X32843Y-51457
X32843Y-53465
X34850Y-51457
X34850Y-53465
X52799Y-51524
X52799Y-53531
X54807Y-51524
X54807Y-53531
T7
X28368Y-20301
X28368Y-22270
X46791Y-18906
X48760Y-18906
T8
X25480Y-15917
X25488Y-53276
X62858Y-53193
X62882Y-15906
T0
M30
