M48
; DRILL file {KiCad (5.99.0-10506-gb986797469)} date Thu May 20 15:57:30 2021
; FORMAT={-:-/ absolute / inch / decimal}
; #@! TF.CreationDate,2021-05-20T15:57:30+01:00
; #@! TF.GenerationSoftware,Kicad,Pcbnew,(5.99.0-10506-gb986797469)
; #@! TF.FileFunction,Plated,1,2,PTH
FMAT,2
INCH
; #@! TA.AperFunction,Plated,PTH,ViaDrill
T1C0.0098
; #@! TA.AperFunction,Plated,PTH,ComponentDrill
T2C0.0098
; #@! TA.AperFunction,Plated,PTH,ComponentDrill
T3C0.0402
; #@! TA.AperFunction,Plated,PTH,ComponentDrill
T4C0.0551
%
G90
G05
T1
X3.8571Y-3.8622
X3.8571Y-6.037
X3.9736Y-9.2248
X4.0031Y-9.3012
X4.0382Y-4.8445
X4.126Y-5.4169
X4.1295Y-5.5819
X4.1906Y-5.1728
X4.1933Y-6.0654
X4.31Y-6.47
X4.3154Y-4.7772
X4.3591Y-5.5445
X4.3697Y-5.3098
X4.474Y-4.6094
X4.4795Y-6.9209
X4.5098Y-5.0941
X4.578Y-3.8567
X4.5799Y-5.9846
X4.6039Y-5.2854
X4.6606Y-5.598
X4.6787Y-6.6591
X4.7531Y-6.6583
X4.7752Y-4.8126
X4.7795Y-7.1874
X4.8016Y-6.061
X4.8091Y-4.3917
X4.81Y-7.15
X4.8331Y-6.0102
X4.9496Y-3.9484
X4.98Y-6.76
X4.9929Y-5.372
X5.1394Y-5.7102
X5.15Y-7.22
X5.1508Y-5.7945
X5.1909Y-5.578
X5.2Y-6.8028
X5.287Y-5.2677
X5.3154Y-5.2287
X5.4098Y-4.2213
X5.4429Y-6.1551
X5.4752Y-4.122
X5.5189Y-5.0327
X5.5323Y-3.7421
X5.5433Y-6.0358
X5.6157Y-5.0079
X5.6346Y-5.0846
X5.9543Y-5.0748
X5.9996Y-5.3441
X6.0126Y-5.3075
X6.1669Y-4.537
X6.1937Y-4.5598
X6.2362Y-5.2437
X6.2772Y-5.0224
X6.3323Y-5.0252
X6.4697Y-4.7567
X6.6008Y-5.4047
X6.6642Y-5.0724
X6.7378Y-5.2455
X6.7579Y-5.3051
X6.7661Y-5.4799
X6.7827Y-5.3744
X6.822Y-4.2248
X6.8748Y-7.56
X6.9063Y-6.8709
X6.9681Y-6.0358
X6.9681Y-6.6661
X6.9705Y-5.5264
X6.9984Y-7.6244
X7.0197Y-7.5201
X7.0366Y-5.0268
X7.0791Y-5.7591
X7.0835Y-4.6146
X7.1169Y-7.5571
X7.1394Y-7.202
X7.152Y-6.1354
X7.1539Y-7.2835
X7.2043Y-6.6205
X7.2047Y-5.222
X7.2067Y-5.4886
X7.2083Y-6.5173
X7.2102Y-6.7098
X7.2461Y-6.7776
X7.2646Y-6.6606
X7.2756Y-5.9764
X7.3433Y-3.8669
X7.6053Y-6.4935
X7.6083Y-7.3102
X7.6366Y-4.6268
X7.6937Y-5.9768
X7.8831Y-6.5126
T2
X5.7862Y-5.1488
X5.7862Y-5.1921
T3
X6.7996Y-4.0807
X6.8996Y-4.0807
X6.9996Y-4.0807
T4
X7.8301Y-5.8904
X7.8301Y-6.0872
X7.8313Y-4.0766
X7.8313Y-4.2734
T0
M30
