M48
; DRILL file {KiCad (5.99.0-10506-gb986797469)} date Mon May 31 13:08:23 2021
; FORMAT={-:-/ absolute / inch / decimal}
; #@! TF.CreationDate,2021-05-31T13:08:23+01:00
; #@! TF.GenerationSoftware,Kicad,Pcbnew,(5.99.0-10506-gb986797469)
; #@! TF.FileFunction,Plated,1,2,PTH
FMAT,2
INCH
; #@! TA.AperFunction,Plated,PTH,ViaDrill
T1C0.0098
; #@! TA.AperFunction,Plated,PTH,ComponentDrill
T2C0.0197
; #@! TA.AperFunction,Plated,PTH,ComponentDrill
T3C0.0402
; #@! TA.AperFunction,Plated,PTH,ComponentDrill
T4C0.0551
%
G90
G05
T1
X3.0712Y-3.8339
X3.0712Y-6.0087
X3.1877Y-9.1965
X3.2173Y-9.2729
X3.2523Y-4.8162
X3.3401Y-5.3887
X3.3437Y-5.5536
X3.4047Y-5.1446
X3.4074Y-6.0371
X3.5241Y-6.4417
X3.5295Y-4.7489
X3.5732Y-5.5162
X3.5838Y-5.2816
X3.6881Y-4.5812
X3.6937Y-6.8926
X3.724Y-5.0658
X3.7921Y-3.8284
X3.794Y-5.9564
X3.8181Y-5.2572
X3.8748Y-5.5698
X3.8929Y-6.6308
X3.9673Y-6.63
X3.9893Y-4.7843
X3.9937Y-7.1591
X4.0157Y-6.0328
X4.0232Y-4.3635
X4.0241Y-7.1217
X4.0472Y-5.982
X4.1457Y-4.1768
X4.1637Y-3.9202
X4.1941Y-6.7317
X4.207Y-5.3438
X4.3535Y-5.682
X4.3641Y-7.1917
X4.3649Y-5.7662
X4.4141Y-6.7745
X4.4559Y-4.3126
X4.5011Y-5.2395
X4.5295Y-5.2005
X4.5988Y-4.1012
X4.6039Y-4.7445
X4.657Y-6.1269
X4.7464Y-3.7139
X4.7574Y-6.0076
X4.84Y-5.59
X4.859Y-5.1351
X5.1354Y-4.8328
X5.2165Y-5.2728
X5.23Y-7.5
X5.2465Y-5.0669
X5.25Y-5.51
X5.36Y-5.76
X5.3712Y-5.2147
X5.39Y-5.52
X5.4Y-5.24
X5.42Y-5.15
X5.426Y-5.2815
X5.426Y-6.2173
X5.4272Y-5.3528
X5.4503Y-4.5469
X5.47Y-4.9328
X5.48Y-5.22
X5.48Y-5.28
X5.496Y-4.7832
X5.4972Y-4.5733
X5.5287Y-4.9587
X5.558Y-4.9446
X5.5606Y-5.4913
X5.5622Y-5.206
X5.7244Y-4.6359
X5.7673Y-4.7532
X5.7673Y-5.0953
X5.815Y-5.3071
X5.8161Y-5.0186
X5.8728Y-5.3291
X5.92Y-5.28
X5.9528Y-5.1614
X5.9752Y-5.2098
X6.01Y-5.05
X6.0362Y-4.1965
X6.0889Y-7.5318
X6.1204Y-6.8426
X6.1822Y-6.0076
X6.1822Y-6.6379
X6.2125Y-7.5961
X6.228Y-7.3646
X6.2338Y-7.4918
X6.2976Y-4.5863
X6.3Y-5.2575
X6.3311Y-7.5288
X6.3535Y-7.1737
X6.3661Y-6.1072
X6.42Y-4.82
X6.4208Y-5.4603
X6.4224Y-6.4891
X6.4602Y-6.7493
X6.4787Y-6.6324
X6.4897Y-5.9481
X6.5574Y-3.8387
X6.6289Y-4.7562
X6.8194Y-6.4652
X6.8224Y-7.282
X6.8507Y-4.5985
X6.9078Y-5.9485
X7.0972Y-6.4843
T2
X5.1341Y-5.0901
X5.1341Y-5.1334
T3
X6.0137Y-4.0524
X6.1137Y-4.0524
X6.2137Y-4.0524
T4
X7.0442Y-5.9643
X7.0442Y-6.1611
X7.0454Y-4.0483
X7.0454Y-4.2452
T0
M30
