%TF.GenerationSoftware,KiCad,Pcbnew,(5.99.0-10506-gb986797469)*%
%TF.CreationDate,2021-05-21T07:21:06+01:00*%
%TF.ProjectId,LoRa tracker,4c6f5261-2074-4726-9163-6b65722e6b69,rev?*%
%TF.SameCoordinates,Original*%
%TF.FileFunction,Paste,Top*%
%TF.FilePolarity,Positive*%
%FSLAX46Y46*%
G04 Gerber Fmt 4.6, Leading zero omitted, Abs format (unit mm)*
G04 Created by KiCad (PCBNEW (5.99.0-10506-gb986797469)) date 2021-05-21 07:21:06*
%MOMM*%
%LPD*%
G01*
G04 APERTURE LIST*
G04 Aperture macros list*
%AMRoundRect*
0 Rectangle with rounded corners*
0 $1 Rounding radius*
0 $2 $3 $4 $5 $6 $7 $8 $9 X,Y pos of 4 corners*
0 Add a 4 corners polygon primitive as box body*
4,1,4,$2,$3,$4,$5,$6,$7,$8,$9,$2,$3,0*
0 Add four circle primitives for the rounded corners*
1,1,$1+$1,$2,$3*
1,1,$1+$1,$4,$5*
1,1,$1+$1,$6,$7*
1,1,$1+$1,$8,$9*
0 Add four rect primitives between the rounded corners*
20,1,$1+$1,$2,$3,$4,$5,0*
20,1,$1+$1,$4,$5,$6,$7,0*
20,1,$1+$1,$6,$7,$8,$9,0*
20,1,$1+$1,$8,$9,$2,$3,0*%
%AMOutline5P*
0 Free polygon, 5 corners , with rotation*
0 The origin of the aperture is its center*
0 number of corners: always 8*
0 $1 to $10 corner X, Y*
0 $11 Rotation angle, in degrees counterclockwise*
0 create outline with 8 corners*
4,1,5,$1,$2,$3,$4,$5,$6,$7,$8,$9,$10,$1,$2,$11*%
%AMOutline6P*
0 Free polygon, 6 corners , with rotation*
0 The origin of the aperture is its center*
0 number of corners: always 6*
0 $1 to $12 corner X, Y*
0 $13 Rotation angle, in degrees counterclockwise*
0 create outline with 6 corners*
4,1,6,$1,$2,$3,$4,$5,$6,$7,$8,$9,$10,$11,$12,$1,$2,$13*%
%AMOutline7P*
0 Free polygon, 7 corners , with rotation*
0 The origin of the aperture is its center*
0 number of corners: always 7*
0 $1 to $14 corner X, Y*
0 $15 Rotation angle, in degrees counterclockwise*
0 create outline with 7 corners*
4,1,7,$1,$2,$3,$4,$5,$6,$7,$8,$9,$10,$11,$12,$13,$14,$1,$2,$15*%
%AMOutline8P*
0 Free polygon, 8 corners , with rotation*
0 The origin of the aperture is its center*
0 number of corners: always 8*
0 $1 to $16 corner X, Y*
0 $17 Rotation angle, in degrees counterclockwise*
0 create outline with 8 corners*
4,1,8,$1,$2,$3,$4,$5,$6,$7,$8,$9,$10,$11,$12,$13,$14,$15,$16,$1,$2,$17*%
G04 Aperture macros list end*
%ADD10C,0.010000*%
%ADD11R,0.840000X0.260000*%
%ADD12R,0.260000X0.840000*%
%ADD13RoundRect,0.250000X-0.300000X0.250000X-0.300000X-0.250000X0.300000X-0.250000X0.300000X0.250000X0*%
%ADD14RoundRect,0.250000X0.300000X-0.250000X0.300000X0.250000X-0.300000X0.250000X-0.300000X-0.250000X0*%
%ADD15RoundRect,0.250000X0.250000X0.300000X-0.250000X0.300000X-0.250000X-0.300000X0.250000X-0.300000X0*%
%ADD16R,0.800000X0.300000*%
%ADD17R,0.300000X0.800000*%
%ADD18R,1.000000X1.000000*%
%ADD19R,2.200000X1.050000*%
%ADD20R,0.810000X0.220000*%
%ADD21R,0.220000X0.810000*%
%ADD22RoundRect,0.150000X-0.625000X0.150000X-0.625000X-0.150000X0.625000X-0.150000X0.625000X0.150000X0*%
%ADD23R,1.550000X0.600000*%
%ADD24RoundRect,0.250000X-0.250000X-0.300000X0.250000X-0.300000X0.250000X0.300000X-0.250000X0.300000X0*%
%ADD25R,2.310000X4.220000*%
%ADD26R,1.399540X0.998220*%
%ADD27RoundRect,0.137500X0.262500X-0.137500X0.262500X0.137500X-0.262500X0.137500X-0.262500X-0.137500X0*%
%ADD28R,0.800000X0.550000*%
%ADD29Outline5P,0.400000X0.700000X0.400000X-0.700000X-0.400000X-0.700000X-0.400000X0.540000X-0.240000X0.700000X270.000000*%
%ADD30R,1.400000X0.800000*%
%ADD31R,0.600000X1.970000*%
%ADD32R,1.210000X1.010000*%
%ADD33R,0.800000X0.500000*%
%ADD34R,0.500000X0.800000*%
%ADD35R,1.600000X1.600000*%
%ADD36RoundRect,0.249999X0.450001X1.425001X-0.450001X1.425001X-0.450001X-1.425001X0.450001X-1.425001X0*%
%ADD37R,3.180000X3.180000*%
%ADD38R,3.960000X3.960000*%
%ADD39R,1.600000X0.900000*%
G04 APERTURE END LIST*
D10*
%TO.C,U7*%
X155981560Y-131215000D02*
X157805000Y-131215000D01*
X157805000Y-131215000D02*
X157805000Y-133034412D01*
X157805000Y-133034412D02*
X155981560Y-133034412D01*
X155981560Y-133034412D02*
X155981560Y-131215000D01*
G36*
X157805000Y-133034412D02*
G01*
X155981560Y-133034412D01*
X155981560Y-131215000D01*
X157805000Y-131215000D01*
X157805000Y-133034412D01*
G37*
X157805000Y-133034412D02*
X155981560Y-133034412D01*
X155981560Y-131215000D01*
X157805000Y-131215000D01*
X157805000Y-133034412D01*
X158555615Y-131215000D02*
X160375000Y-131215000D01*
X160375000Y-131215000D02*
X160375000Y-133034385D01*
X160375000Y-133034385D02*
X158555615Y-133034385D01*
X158555615Y-133034385D02*
X158555615Y-131215000D01*
G36*
X160375000Y-133034385D02*
G01*
X158555615Y-133034385D01*
X158555615Y-131215000D01*
X160375000Y-131215000D01*
X160375000Y-133034385D01*
G37*
X160375000Y-133034385D02*
X158555615Y-133034385D01*
X158555615Y-131215000D01*
X160375000Y-131215000D01*
X160375000Y-133034385D01*
X155982920Y-133785000D02*
X157805000Y-133785000D01*
X157805000Y-133785000D02*
X157805000Y-135607080D01*
X157805000Y-135607080D02*
X155982920Y-135607080D01*
X155982920Y-135607080D02*
X155982920Y-133785000D01*
G36*
X157805000Y-135607080D02*
G01*
X155982920Y-135607080D01*
X155982920Y-133785000D01*
X157805000Y-133785000D01*
X157805000Y-135607080D01*
G37*
X157805000Y-135607080D02*
X155982920Y-135607080D01*
X155982920Y-133785000D01*
X157805000Y-133785000D01*
X157805000Y-135607080D01*
X158555078Y-133785000D02*
X160375000Y-133785000D01*
X160375000Y-133785000D02*
X160375000Y-135605460D01*
X160375000Y-135605460D02*
X158555078Y-135605460D01*
X158555078Y-135605460D02*
X158555078Y-133785000D01*
G36*
X160375000Y-135605460D02*
G01*
X158555078Y-135605460D01*
X158555078Y-133785000D01*
X160375000Y-133785000D01*
X160375000Y-135605460D01*
G37*
X160375000Y-135605460D02*
X158555078Y-135605460D01*
X158555078Y-133785000D01*
X160375000Y-133785000D01*
X160375000Y-135605460D01*
%TO.C,U6*%
X118935000Y-136185000D02*
X117305000Y-136185000D01*
X117305000Y-136185000D02*
X117305000Y-134555000D01*
X117305000Y-134555000D02*
X118935000Y-134555000D01*
X118935000Y-134555000D02*
X118935000Y-136185000D01*
G36*
X118935000Y-136185000D02*
G01*
X117305000Y-136185000D01*
X117305000Y-134555000D01*
X118935000Y-134555000D01*
X118935000Y-136185000D01*
G37*
X118935000Y-136185000D02*
X117305000Y-136185000D01*
X117305000Y-134555000D01*
X118935000Y-134555000D01*
X118935000Y-136185000D01*
X116635000Y-136185000D02*
X115005000Y-136185000D01*
X115005000Y-136185000D02*
X115005000Y-134555000D01*
X115005000Y-134555000D02*
X116635000Y-134555000D01*
X116635000Y-134555000D02*
X116635000Y-136185000D01*
G36*
X116635000Y-136185000D02*
G01*
X115005000Y-136185000D01*
X115005000Y-134555000D01*
X116635000Y-134555000D01*
X116635000Y-136185000D01*
G37*
X116635000Y-136185000D02*
X115005000Y-136185000D01*
X115005000Y-134555000D01*
X116635000Y-134555000D01*
X116635000Y-136185000D01*
X116635000Y-133885000D02*
X115005000Y-133885000D01*
X115005000Y-133885000D02*
X115005000Y-132255000D01*
X115005000Y-132255000D02*
X116635000Y-132255000D01*
X116635000Y-132255000D02*
X116635000Y-133885000D01*
G36*
X116635000Y-133885000D02*
G01*
X115005000Y-133885000D01*
X115005000Y-132255000D01*
X116635000Y-132255000D01*
X116635000Y-133885000D01*
G37*
X116635000Y-133885000D02*
X115005000Y-133885000D01*
X115005000Y-132255000D01*
X116635000Y-132255000D01*
X116635000Y-133885000D01*
X118935000Y-133885000D02*
X117305000Y-133885000D01*
X117305000Y-133885000D02*
X117305000Y-132255000D01*
X117305000Y-132255000D02*
X118935000Y-132255000D01*
X118935000Y-132255000D02*
X118935000Y-133885000D01*
G36*
X118935000Y-133885000D02*
G01*
X117305000Y-133885000D01*
X117305000Y-132255000D01*
X118935000Y-132255000D01*
X118935000Y-133885000D01*
G37*
X118935000Y-133885000D02*
X117305000Y-133885000D01*
X117305000Y-132255000D01*
X118935000Y-132255000D01*
X118935000Y-133885000D01*
%TO.C,U8*%
G36*
X123290000Y-163620000D02*
G01*
X122790000Y-164120000D01*
X121690000Y-164120000D01*
X121690000Y-162520000D01*
X123290000Y-162520000D01*
X123290000Y-163620000D01*
G37*
%TD*%
D11*
%TO.C,U7*%
X154745000Y-130660000D03*
X154745000Y-131160000D03*
X154745000Y-131660000D03*
X154745000Y-132160000D03*
X154745000Y-132660000D03*
X154745000Y-133160000D03*
X154745000Y-133660000D03*
X154745000Y-134160000D03*
X154745000Y-134660000D03*
X154745000Y-135160000D03*
X154745000Y-135660000D03*
X154745000Y-136160000D03*
D12*
X155430000Y-136845000D03*
X155930000Y-136845000D03*
X156430000Y-136845000D03*
X156930000Y-136845000D03*
X157430000Y-136845000D03*
X157930000Y-136845000D03*
X158430000Y-136845000D03*
X158930000Y-136845000D03*
X159430000Y-136845000D03*
X159930000Y-136845000D03*
X160430000Y-136845000D03*
X160930000Y-136845000D03*
D11*
X161615000Y-136160000D03*
X161615000Y-135660000D03*
X161615000Y-135160000D03*
X161615000Y-134660000D03*
X161615000Y-134160000D03*
X161615000Y-133660000D03*
X161615000Y-133160000D03*
X161615000Y-132660000D03*
X161615000Y-132160000D03*
X161615000Y-131660000D03*
X161615000Y-131160000D03*
X161615000Y-130660000D03*
D12*
X160930000Y-129975000D03*
X160430000Y-129975000D03*
X159930000Y-129975000D03*
X159430000Y-129975000D03*
X158930000Y-129975000D03*
X158430000Y-129975000D03*
X157930000Y-129975000D03*
X157430000Y-129975000D03*
X156930000Y-129975000D03*
X156430000Y-129975000D03*
X155930000Y-129975000D03*
X155430000Y-129975000D03*
%TD*%
D13*
%TO.C,C7*%
X122075000Y-94105000D03*
X120805000Y-94105000D03*
%TD*%
D14*
%TO.C,C10*%
X107120000Y-127280000D03*
X108390000Y-127280000D03*
%TD*%
D15*
%TO.C,C27*%
X129915000Y-176417500D03*
X129915000Y-175147500D03*
%TD*%
D16*
%TO.C,U3*%
X176975000Y-189950000D03*
X176975000Y-190450000D03*
X176975000Y-190950000D03*
X176975000Y-191450000D03*
X176975000Y-191950000D03*
D17*
X177750000Y-192225000D03*
X178250000Y-192225000D03*
X178750000Y-192225000D03*
D16*
X179525000Y-191950000D03*
X179525000Y-191450000D03*
X179525000Y-190950000D03*
X179525000Y-190450000D03*
X179525000Y-189950000D03*
D17*
X178750000Y-189675000D03*
X178250000Y-189675000D03*
X177750000Y-189675000D03*
%TD*%
D13*
%TO.C,C5*%
X183770000Y-112720000D03*
X182500000Y-112720000D03*
%TD*%
D14*
%TO.C,C21*%
X166970000Y-130110000D03*
X165700000Y-130110000D03*
%TD*%
D18*
%TO.C,AE3*%
X99540000Y-157320000D03*
X96540000Y-157320000D03*
D19*
X98040000Y-158795000D03*
X98040000Y-155845000D03*
%TD*%
D13*
%TO.C,L1*%
X108280000Y-101590000D03*
X107010000Y-101590000D03*
%TD*%
D20*
%TO.C,U6*%
X119920000Y-136420000D03*
X119920000Y-136020000D03*
X119920000Y-135620000D03*
X119920000Y-135220000D03*
X119920000Y-134820000D03*
X119920000Y-134420000D03*
X119920000Y-134020000D03*
X119920000Y-133620000D03*
X119920000Y-133220000D03*
X119920000Y-132820000D03*
X119920000Y-132420000D03*
X119920000Y-132020000D03*
D21*
X119170000Y-131270000D03*
X118770000Y-131270000D03*
X118370000Y-131270000D03*
X117970000Y-131270000D03*
X117570000Y-131270000D03*
X117170000Y-131270000D03*
X116770000Y-131270000D03*
X116370000Y-131270000D03*
X115970000Y-131270000D03*
X115570000Y-131270000D03*
X115170000Y-131270000D03*
X114770000Y-131270000D03*
D20*
X114020000Y-132020000D03*
X114020000Y-132420000D03*
X114020000Y-132820000D03*
X114020000Y-133220000D03*
X114020000Y-133620000D03*
X114020000Y-134020000D03*
X114020000Y-134420000D03*
X114020000Y-134820000D03*
X114020000Y-135220000D03*
X114020000Y-135620000D03*
X114020000Y-136020000D03*
X114020000Y-136420000D03*
D21*
X114770000Y-137170000D03*
X115170000Y-137170000D03*
X115570000Y-137170000D03*
X115970000Y-137170000D03*
X116370000Y-137170000D03*
X116770000Y-137170000D03*
X117170000Y-137170000D03*
X117570000Y-137170000D03*
X117970000Y-137170000D03*
X118370000Y-137170000D03*
X118770000Y-137170000D03*
X119170000Y-137170000D03*
%TD*%
D13*
%TO.C,C15*%
X124855000Y-136425000D03*
X123585000Y-136425000D03*
%TD*%
D15*
%TO.C,R9*%
X124714000Y-184790000D03*
X124714000Y-183520000D03*
%TD*%
D13*
%TO.C,C31*%
X178715000Y-184165000D03*
X177445000Y-184165000D03*
%TD*%
D22*
%TO.C,U9*%
X184058578Y-178235000D03*
D23*
X184058578Y-176965000D03*
X184058578Y-175695000D03*
X184058578Y-174425000D03*
X178658578Y-174425000D03*
X178658578Y-175695000D03*
X178658578Y-176965000D03*
X178658578Y-178235000D03*
%TD*%
D14*
%TO.C,C11*%
X107160000Y-123010000D03*
X108430000Y-123010000D03*
%TD*%
D24*
%TO.C,C18*%
X113475000Y-139415000D03*
X113475000Y-140685000D03*
%TD*%
D15*
%TO.C,R2*%
X195410000Y-185750000D03*
X195410000Y-184480000D03*
%TD*%
%TO.C,C19*%
X103085000Y-134105000D03*
X103085000Y-132835000D03*
%TD*%
D25*
%TO.C,PZ1*%
X200250000Y-179795000D03*
X200250000Y-169705000D03*
%TD*%
D26*
%TO.C,Q1*%
X197760180Y-185745040D03*
X197760180Y-187644960D03*
X199959820Y-186695000D03*
%TD*%
D27*
%TO.C,U5*%
X186137500Y-167267500D03*
D28*
X186137500Y-168217500D03*
X186137500Y-169167500D03*
X188737500Y-169167500D03*
X188737500Y-167267500D03*
%TD*%
D29*
%TO.C,U4*%
X187210000Y-149270000D03*
D30*
X187210000Y-151810000D03*
X187210000Y-154350000D03*
X193510000Y-154350000D03*
X193510000Y-151810000D03*
X193510000Y-149270000D03*
%TD*%
D13*
%TO.C,R6*%
X106880000Y-134080000D03*
X105610000Y-134080000D03*
%TD*%
D15*
%TO.C,C26*%
X127680000Y-176400000D03*
X127680000Y-175130000D03*
%TD*%
%TO.C,C30*%
X191190000Y-163237157D03*
X191190000Y-161967157D03*
%TD*%
D13*
%TO.C,C6*%
X183700000Y-115390000D03*
X182430000Y-115390000D03*
%TD*%
D24*
%TO.C,R5*%
X173645000Y-174435000D03*
X173645000Y-175705000D03*
%TD*%
D13*
%TO.C,C1*%
X177105000Y-113245000D03*
X175835000Y-113245000D03*
%TD*%
%TO.C,R7*%
X126492000Y-169164000D03*
X125222000Y-169164000D03*
%TD*%
D15*
%TO.C,C25*%
X132110000Y-176450000D03*
X132110000Y-175180000D03*
%TD*%
%TO.C,C24*%
X102780000Y-157310000D03*
X102780000Y-156040000D03*
%TD*%
D31*
%TO.C,U1*%
X190875000Y-112590000D03*
X189605000Y-112590000D03*
X188335000Y-112590000D03*
X187065000Y-112590000D03*
X187065000Y-117530000D03*
X188335000Y-117530000D03*
X189605000Y-117530000D03*
X190875000Y-117530000D03*
%TD*%
D13*
%TO.C,R8*%
X106780000Y-157290000D03*
X105510000Y-157290000D03*
%TD*%
D32*
%TO.C,Y1*%
X110730000Y-137603609D03*
X108370000Y-137603609D03*
X108370000Y-139463609D03*
X110730000Y-139463609D03*
%TD*%
D14*
%TO.C,C12*%
X107180000Y-125170000D03*
X108450000Y-125170000D03*
%TD*%
D24*
%TO.C,R4*%
X178655000Y-170385000D03*
X178655000Y-171655000D03*
%TD*%
D15*
%TO.C,C28*%
X188520000Y-163280000D03*
X188520000Y-162010000D03*
%TD*%
D33*
%TO.C,U8*%
X125640000Y-165220000D03*
X125640000Y-164420000D03*
X125640000Y-163620000D03*
X125640000Y-162820000D03*
X125640000Y-162020000D03*
X125640000Y-161220000D03*
X125640000Y-160420000D03*
X125640000Y-159620000D03*
X125640000Y-158820000D03*
X125640000Y-158020000D03*
X125640000Y-157220000D03*
X125640000Y-156420000D03*
D34*
X124390000Y-155620000D03*
X123590000Y-155620000D03*
X122790000Y-155620000D03*
X121990000Y-155620000D03*
X121190000Y-155620000D03*
X120390000Y-155620000D03*
X119590000Y-155620000D03*
X118790000Y-155620000D03*
X117990000Y-155620000D03*
X117190000Y-155620000D03*
X116390000Y-155620000D03*
X115590000Y-155620000D03*
D33*
X114340000Y-156420000D03*
X114340000Y-157220000D03*
X114340000Y-158020000D03*
X114340000Y-158820000D03*
X114340000Y-159620000D03*
X114340000Y-160420000D03*
X114340000Y-161220000D03*
X114340000Y-162020000D03*
X114340000Y-162820000D03*
X114340000Y-163620000D03*
X114340000Y-164420000D03*
X114340000Y-165220000D03*
D34*
X115590000Y-166020000D03*
X116390000Y-166020000D03*
X117190000Y-166020000D03*
X117990000Y-166020000D03*
X118790000Y-166020000D03*
X119590000Y-166020000D03*
X120390000Y-166020000D03*
X121190000Y-166020000D03*
X121990000Y-166020000D03*
X122790000Y-166020000D03*
X123590000Y-166020000D03*
X124390000Y-166020000D03*
D35*
X119990000Y-163320000D03*
X117490000Y-163320000D03*
X122490000Y-160820000D03*
X119990000Y-160820000D03*
X117490000Y-160820000D03*
X122490000Y-158320000D03*
X119990000Y-158320000D03*
X117490000Y-158320000D03*
D18*
X122490000Y-163320000D03*
%TD*%
D13*
%TO.C,C9*%
X103515000Y-101605000D03*
X102245000Y-101605000D03*
%TD*%
D15*
%TO.C,C16*%
X109330000Y-134070000D03*
X109330000Y-132800000D03*
%TD*%
%TO.C,C13*%
X118370000Y-140790000D03*
X118370000Y-139520000D03*
%TD*%
D14*
%TO.C,C32*%
X127508000Y-183388000D03*
X128778000Y-183388000D03*
%TD*%
D13*
%TO.C,C8*%
X121985000Y-96675000D03*
X120715000Y-96675000D03*
%TD*%
D14*
%TO.C,R3*%
X182345000Y-149295000D03*
X183615000Y-149295000D03*
%TD*%
%TO.C,C4*%
X170815000Y-115865000D03*
X172085000Y-115865000D03*
%TD*%
D13*
%TO.C,C17*%
X108295000Y-141805000D03*
X107025000Y-141805000D03*
%TD*%
D14*
%TO.C,C33*%
X140120000Y-130750000D03*
X141390000Y-130750000D03*
%TD*%
D13*
%TO.C,C2*%
X177145000Y-115745000D03*
X175875000Y-115745000D03*
%TD*%
%TO.C,C29*%
X178727157Y-181330000D03*
X177457157Y-181330000D03*
%TD*%
D36*
%TO.C,R1*%
X192060000Y-103610000D03*
X185960000Y-103610000D03*
%TD*%
D18*
%TO.C,AE1*%
X99480000Y-101690000D03*
X96480000Y-101690000D03*
D19*
X97980000Y-103165000D03*
X97980000Y-100215000D03*
%TD*%
D37*
%TO.C,BT1*%
X150580000Y-94990000D03*
X130540000Y-94990000D03*
D38*
X140560000Y-94990000D03*
%TD*%
D39*
%TO.C,MOD2*%
X122068596Y-109080000D03*
X122068596Y-107980000D03*
X122068596Y-106880000D03*
X122068596Y-105780000D03*
X122068596Y-104680000D03*
X122068596Y-103580000D03*
X122068596Y-102480000D03*
X122068596Y-101380000D03*
X122068596Y-100280000D03*
X112868596Y-100280000D03*
X112868596Y-101380000D03*
X112868596Y-102480000D03*
X112868596Y-103580000D03*
X112868596Y-104680000D03*
X112868596Y-105780000D03*
X112868596Y-106880000D03*
X112868596Y-107980000D03*
X112868596Y-109080000D03*
%TD*%
D18*
%TO.C,AE2*%
X99680000Y-134220000D03*
X96680000Y-134220000D03*
D19*
X98180000Y-135695000D03*
X98180000Y-132745000D03*
%TD*%
D14*
%TO.C,C22*%
X165700000Y-127720000D03*
X166970000Y-127720000D03*
%TD*%
%TO.C,C34*%
X139950000Y-133830000D03*
X141220000Y-133830000D03*
%TD*%
D15*
%TO.C,C23*%
X109580000Y-157270000D03*
X109580000Y-156000000D03*
%TD*%
D14*
%TO.C,C3*%
X170820000Y-113370000D03*
X172090000Y-113370000D03*
%TD*%
M02*
