0
SECTION
2
ENTITIES
0
LINE
8
FFab
62
5
10
159.788748
20
-191.732116
11
156.788748
21
-191.732116
0
LINE
8
FFab
62
5
10
156.788748
20
-191.732116
11
156.788748
21
-188.732116
0
LINE
8
FFab
62
5
10
156.788748
20
-188.732116
11
159.788748
21
-188.732116
0
LINE
8
FFab
62
5
10
159.788748
20
-188.732116
11
159.788748
21
-191.732116
0
CIRCLE
8
FCrtYd
62
7
10
188.248748
20
-86.772116
40
1.75
0
CIRCLE
8
FFab
62
5
10
188.248748
20
-86.772116
40
1.5
0
LINE
8
FCrtYd
62
7
10
109.450252
20
-172.445884
11
109.450252
21
-188.945884
0
LINE
8
FCrtYd
62
7
10
90.150252
20
-188.945884
11
90.150252
21
-172.445884
0
LINE
8
FCrtYd
62
7
10
90.150252
20
-172.445884
11
109.450252
21
-172.445884
0
LINE
8
FCrtYd
62
7
10
109.450252
20
-188.945884
11
90.150252
21
-188.945884
0
LINE
8
FFab
62
5
10
107.800252
20
-172.695884
11
107.800252
21
-188.695884
0
LINE
8
FFab
62
5
10
107.800252
20
-188.695884
11
91.800252
21
-188.695884
0
LINE
8
FFab
62
5
10
91.800252
20
-172.695884
11
107.800252
21
-172.695884
0
LINE
8
FFab
62
5
10
91.800252
20
-188.695884
11
91.800252
21
-172.695884
0
CIRCLE
8
FFab
62
5
10
89.665252
20
-173.630884
40
0.1
0
LINE
8
FCrtYd
62
7
10
131.084
20
-134.891
11
131.084
21
-141.461
0
LINE
8
FCrtYd
62
7
10
141.204
20
-134.891
11
139.944
21
-134.891
0
LINE
8
FCrtYd
62
7
10
135.794
20
-138.176
11
136.494
21
-138.176
0
LINE
8
FCrtYd
62
7
10
139.429
20
-141.976
11
139.944
21
-141.976
0
LINE
8
FCrtYd
62
7
10
132.344
20
-141.461
11
132.344
21
-141.976
0
LINE
8
FCrtYd
62
7
10
131.084
20
-141.461
11
132.344
21
-141.461
0
LINE
8
FCrtYd
62
7
10
132.859
20
-143.236
11
139.429
21
-143.236
0
LINE
8
FCrtYd
62
7
10
139.429
20
-134.376
11
139.429
21
-133.116
0
LINE
8
FCrtYd
62
7
10
132.344
20
-134.376
11
132.344
21
-134.891
0
LINE
8
FCrtYd
62
7
10
132.344
20
-134.891
11
131.084
21
-134.891
0
LINE
8
FCrtYd
62
7
10
136.144
20
-137.826
11
136.144
21
-138.526
0
LINE
8
FCrtYd
62
7
10
139.944
20
-141.461
11
141.204
21
-141.461
0
LINE
8
FCrtYd
62
7
10
139.429
20
-143.236
11
139.429
21
-141.976
0
LINE
8
FCrtYd
62
7
10
141.204
20
-141.461
11
141.204
21
-134.891
0
LINE
8
FCrtYd
62
7
10
139.944
20
-134.891
11
139.944
21
-134.376
0
LINE
8
FCrtYd
62
7
10
139.429
20
-133.116
11
132.859
21
-133.116
0
LINE
8
FCrtYd
62
7
10
139.944
20
-134.376
11
139.429
21
-134.376
0
LINE
8
FCrtYd
62
7
10
132.859
20
-141.976
11
132.859
21
-143.236
0
LINE
8
FCrtYd
62
7
10
139.944
20
-141.976
11
139.944
21
-141.461
0
LINE
8
FCrtYd
62
7
10
132.859
20
-134.376
11
132.344
21
-134.376
0
LINE
8
FCrtYd
62
7
10
132.859
20
-133.116
11
132.859
21
-134.376
0
LINE
8
FCrtYd
62
7
10
132.344
20
-141.976
11
132.859
21
-141.976
0
CIRCLE
8
FCrtYd
62
7
10
136.144
20
-138.176
40
0.25
0
LINE
8
FFab
62
5
10
140.644
20
-135.1885
11
140.644
21
-135.5635
0
LINE
8
FFab
62
5
10
140.044
20
-135.9885
11
140.644
21
-135.9885
0
LINE
8
FFab
62
5
10
132.544
20
-141.776
11
132.544
21
-134.576
0
LINE
8
FFab
62
5
10
135.9315
20
-134.276
11
135.5565
21
-134.276
0
LINE
8
FFab
62
5
10
133.1565
20
-134.276
11
133.1565
21
-133.676
0
LINE
8
FFab
62
5
10
134.3315
20
-142.076
11
134.3315
21
-142.676
0
LINE
8
FFab
62
5
10
140.044
20
-137.5885
11
140.644
21
-137.5885
0
LINE
8
FFab
62
5
10
140.644
20
-140.7885
11
140.644
21
-141.1635
0
LINE
8
FFab
62
5
10
138.3315
20
-142.676
11
137.9565
21
-142.676
0
LINE
8
FFab
62
5
10
137.1565
20
-142.076
11
137.5315
21
-142.076
0
LINE
8
FFab
62
5
10
135.9315
20
-142.076
11
135.9315
21
-142.676
0
LINE
8
FFab
62
5
10
133.9565
20
-142.076
11
134.3315
21
-142.076
0
LINE
8
FFab
62
5
10
131.644
20
-136.7885
11
132.244
21
-136.7885
0
LINE
8
FFab
62
5
10
140.644
20
-141.1635
11
140.044
21
-141.1635
0
LINE
8
FFab
62
5
10
134.7565
20
-133.676
11
135.1315
21
-133.676
0
LINE
8
FFab
62
5
10
137.5315
20
-134.276
11
137.1565
21
-134.276
0
LINE
8
FFab
62
5
10
134.3315
20
-134.276
11
133.9565
21
-134.276
0
LINE
8
FFab
62
5
10
133.9565
20
-133.676
11
134.3315
21
-133.676
0
LINE
8
FFab
62
5
10
140.044
20
-138.7635
11
140.044
21
-138.3885
0
LINE
8
FFab
62
5
10
135.5565
20
-134.276
11
135.5565
21
-133.676
0
LINE
8
FFab
62
5
10
132.644
20
-141.676
11
132.644
21
-134.676
0
LINE
8
FFab
62
5
10
137.9565
20
-142.076
11
138.3315
21
-142.076
0
LINE
8
FFab
62
5
10
136.3565
20
-134.276
11
136.3565
21
-133.676
0
LINE
8
FFab
62
5
10
131.644
20
-141.1635
11
131.644
21
-140.7885
0
LINE
8
FFab
62
5
10
132.244
20
-140.3635
11
131.644
21
-140.3635
0
LINE
8
FFab
62
5
10
135.5565
20
-133.676
11
135.9315
21
-133.676
0
LINE
8
FFab
62
5
10
139.1315
20
-133.676
11
139.1315
21
-134.276
0
LINE
8
FFab
62
5
10
131.644
20
-138.7635
11
131.644
21
-138.3885
0
LINE
8
FFab
62
5
10
132.244
20
-137.1635
11
131.644
21
-137.1635
0
LINE
8
FFab
62
5
10
140.044
20
-136.3635
11
140.044
21
-135.9885
0
LINE
8
FFab
62
5
10
140.644
20
-138.3885
11
140.644
21
-138.7635
0
LINE
8
FFab
62
5
10
140.644
20
-135.9885
11
140.644
21
-136.3635
0
LINE
8
FFab
62
5
10
140.644
20
-137.5885
11
140.644
21
-137.9635
0
LINE
8
FFab
62
5
10
132.244
20
-137.5885
11
132.244
21
-137.9635
0
LINE
8
FFab
62
5
10
136.3565
20
-133.676
11
136.7315
21
-133.676
0
LINE
8
FFab
62
5
10
140.044
20
-139.5635
11
140.044
21
-139.1885
0
LINE
8
FFab
62
5
10
140.044
20
-139.1885
11
140.644
21
-139.1885
0
LINE
8
FFab
62
5
10
137.9565
20
-133.676
11
138.3315
21
-133.676
0
LINE
8
FFab
62
5
10
139.1315
20
-134.276
11
138.7565
21
-134.276
0
LINE
8
FFab
62
5
10
131.644
20
-140.3635
11
131.644
21
-139.9885
0
LINE
8
FFab
62
5
10
137.1565
20
-142.676
11
137.1565
21
-142.076
0
LINE
8
FFab
62
5
10
140.644
20
-137.1635
11
140.044
21
-137.1635
0
LINE
8
FFab
62
5
10
136.7315
20
-134.276
11
136.3565
21
-134.276
0
LINE
8
FFab
62
5
10
135.5565
20
-142.676
11
135.5565
21
-142.076
0
LINE
8
FFab
62
5
10
135.1315
20
-133.676
11
135.1315
21
-134.276
0
LINE
8
FFab
62
5
10
135.9315
20
-142.676
11
135.5565
21
-142.676
0
LINE
8
FFab
62
5
10
132.244
20
-135.5635
11
131.644
21
-135.5635
0
LINE
8
FFab
62
5
10
139.1315
20
-142.076
11
139.1315
21
-142.676
0
LINE
8
FFab
62
5
10
134.3315
20
-133.676
11
134.3315
21
-134.276
0
LINE
8
FFab
62
5
10
132.244
20
-139.5635
11
131.644
21
-139.5635
0
LINE
8
FFab
62
5
10
135.1315
20
-142.676
11
134.7565
21
-142.676
0
LINE
8
FFab
62
5
10
135.9315
20
-133.676
11
135.9315
21
-134.276
0
LINE
8
FFab
62
5
10
134.7565
20
-142.676
11
134.7565
21
-142.076
0
LINE
8
FFab
62
5
10
132.244
20
-139.9885
11
132.244
21
-140.3635
0
LINE
8
FFab
62
5
10
138.7565
20
-134.276
11
138.7565
21
-133.676
0
LINE
8
FFab
62
5
10
131.644
20
-139.1885
11
132.244
21
-139.1885
0
LINE
8
FFab
62
5
10
136.3565
20
-142.676
11
136.3565
21
-142.076
0
LINE
8
FFab
62
5
10
133.1565
20
-142.076
11
133.5315
21
-142.076
0
LINE
8
FFab
62
5
10
140.644
20
-136.3635
11
140.044
21
-136.3635
0
LINE
8
FFab
62
5
10
139.644
20
-134.676
11
139.644
21
-141.676
0
LINE
8
FFab
62
5
10
133.1565
20
-142.676
11
133.1565
21
-142.076
0
LINE
8
FFab
62
5
10
131.644
20
-139.9885
11
132.244
21
-139.9885
0
LINE
8
FFab
62
5
10
140.044
20
-140.3635
11
140.044
21
-139.9885
0
LINE
8
FFab
62
5
10
131.644
20
-140.7885
11
132.244
21
-140.7885
0
LINE
8
FFab
62
5
10
135.1315
20
-142.076
11
135.1315
21
-142.676
0
LINE
8
FFab
62
5
10
132.644
20
-134.676
11
139.644
21
-134.676
0
LINE
8
FFab
62
5
10
131.644
20
-135.1885
11
132.244
21
-135.1885
0
LINE
8
FFab
62
5
10
140.644
20
-136.7885
11
140.644
21
-137.1635
0
LINE
8
FFab
62
5
10
140.044
20
-138.3885
11
140.644
21
-138.3885
0
LINE
8
FFab
62
5
10
140.644
20
-139.5635
11
140.044
21
-139.5635
0
LINE
8
FFab
62
5
10
133.5315
20
-134.276
11
133.1565
21
-134.276
0
LINE
8
FFab
62
5
10
132.244
20
-139.1885
11
132.244
21
-139.5635
0
LINE
8
FFab
62
5
10
140.044
20
-135.5635
11
140.044
21
-135.1885
0
LINE
8
FFab
62
5
10
138.3315
20
-134.276
11
137.9565
21
-134.276
0
LINE
8
FFab
62
5
10
137.1565
20
-134.276
11
137.1565
21
-133.676
0
LINE
8
FFab
62
5
10
140.644
20
-139.9885
11
140.644
21
-140.3635
0
LINE
8
FFab
62
5
10
139.744
20
-134.576
11
139.744
21
-141.776
0
LINE
8
FFab
62
5
10
131.644
20
-136.3635
11
131.644
21
-135.9885
0
LINE
8
FFab
62
5
10
131.644
20
-137.5885
11
132.244
21
-137.5885
0
LINE
8
FFab
62
5
10
136.3565
20
-142.076
11
136.7315
21
-142.076
0
LINE
8
FFab
62
5
10
131.644
20
-135.5635
11
131.644
21
-135.1885
0
LINE
8
FFab
62
5
10
133.5315
20
-142.076
11
133.5315
21
-142.676
0
LINE
8
FFab
62
5
10
133.1565
20
-133.676
11
133.5315
21
-133.676
0
LINE
8
FFab
62
5
10
140.644
20
-137.9635
11
140.044
21
-137.9635
0
LINE
8
FFab
62
5
10
135.5565
20
-142.076
11
135.9315
21
-142.076
0
LINE
8
FFab
62
5
10
135.1315
20
-134.276
11
134.7565
21
-134.276
0
LINE
8
FFab
62
5
10
136.7315
20
-142.676
11
136.3565
21
-142.676
0
LINE
8
FFab
62
5
10
134.7565
20
-134.276
11
134.7565
21
-133.676
0
LINE
8
FFab
62
5
10
138.3315
20
-142.076
11
138.3315
21
-142.676
0
LINE
8
FFab
62
5
10
133.5315
20
-142.676
11
133.1565
21
-142.676
0
LINE
8
FFab
62
5
10
131.644
20
-137.1635
11
131.644
21
-136.7885
0
LINE
8
FFab
62
5
10
140.044
20
-136.7885
11
140.644
21
-136.7885
0
LINE
8
FFab
62
5
10
132.244
20
-136.3635
11
131.644
21
-136.3635
0
LINE
8
FFab
62
5
10
138.3315
20
-133.676
11
138.3315
21
-134.276
0
LINE
8
FFab
62
5
10
140.644
20
-139.1885
11
140.644
21
-139.5635
0
LINE
8
FFab
62
5
10
132.244
20
-137.9635
11
131.644
21
-137.9635
0
LINE
8
FFab
62
5
10
137.9565
20
-142.676
11
137.9565
21
-142.076
0
LINE
8
FFab
62
5
10
137.5315
20
-133.676
11
137.5315
21
-134.276
0
LINE
8
FFab
62
5
10
131.644
20
-137.9635
11
131.644
21
-137.5885
0
LINE
8
FFab
62
5
10
132.244
20
-138.7635
11
131.644
21
-138.7635
0
LINE
8
FFab
62
5
10
132.244
20
-140.7885
11
132.244
21
-141.1635
0
LINE
8
FFab
62
5
10
137.9565
20
-134.276
11
137.9565
21
-133.676
0
LINE
8
FFab
62
5
10
133.5315
20
-133.676
11
133.5315
21
-134.276
0
LINE
8
FFab
62
5
10
131.644
20
-138.3885
11
132.244
21
-138.3885
0
LINE
8
FFab
62
5
10
134.7565
20
-142.076
11
135.1315
21
-142.076
0
LINE
8
FFab
62
5
10
131.644
20
-135.9885
11
132.244
21
-135.9885
0
LINE
8
FFab
62
5
10
138.7565
20
-133.676
11
139.1315
21
-133.676
0
LINE
8
FFab
62
5
10
140.644
20
-135.5635
11
140.044
21
-135.5635
0
LINE
8
FFab
62
5
10
132.244
20
-141.1635
11
131.644
21
-141.1635
0
LINE
8
FFab
62
5
10
132.244
20
-135.9885
11
132.244
21
-136.3635
0
LINE
8
FFab
62
5
10
139.644
20
-141.676
11
132.644
21
-141.676
0
LINE
8
FFab
62
5
10
133.9565
20
-134.276
11
133.9565
21
-133.676
0
LINE
8
FFab
62
5
10
136.7315
20
-133.676
11
136.7315
21
-134.276
0
LINE
8
FFab
62
5
10
139.744
20
-141.776
11
132.544
21
-141.776
0
LINE
8
FFab
62
5
10
132.544
20
-134.576
11
139.744
21
-134.576
0
LINE
8
FFab
62
5
10
140.044
20
-137.9635
11
140.044
21
-137.5885
0
LINE
8
FFab
62
5
10
140.644
20
-140.3635
11
140.044
21
-140.3635
0
LINE
8
FFab
62
5
10
134.3315
20
-142.676
11
133.9565
21
-142.676
0
LINE
8
FFab
62
5
10
139.1315
20
-142.676
11
138.7565
21
-142.676
0
LINE
8
FFab
62
5
10
132.244
20
-136.7885
11
132.244
21
-137.1635
0
LINE
8
FFab
62
5
10
137.5315
20
-142.676
11
137.1565
21
-142.676
0
LINE
8
FFab
62
5
10
136.7315
20
-142.076
11
136.7315
21
-142.676
0
LINE
8
FFab
62
5
10
131.644
20
-139.5635
11
131.644
21
-139.1885
0
LINE
8
FFab
62
5
10
133.9565
20
-142.676
11
133.9565
21
-142.076
0
LINE
8
FFab
62
5
10
137.5315
20
-142.076
11
137.5315
21
-142.676
0
LINE
8
FFab
62
5
10
137.1565
20
-133.676
11
137.5315
21
-133.676
0
LINE
8
FFab
62
5
10
140.644
20
-138.7635
11
140.044
21
-138.7635
0
LINE
8
FFab
62
5
10
140.044
20
-140.7885
11
140.644
21
-140.7885
0
LINE
8
FFab
62
5
10
140.044
20
-139.9885
11
140.644
21
-139.9885
0
LINE
8
FFab
62
5
10
140.044
20
-141.1635
11
140.044
21
-140.7885
0
LINE
8
FFab
62
5
10
132.244
20
-138.3885
11
132.244
21
-138.7635
0
LINE
8
FFab
62
5
10
140.044
20
-135.1885
11
140.644
21
-135.1885
0
LINE
8
FFab
62
5
10
140.044
20
-137.1635
11
140.044
21
-136.7885
0
LINE
8
FFab
62
5
10
138.7565
20
-142.676
11
138.7565
21
-142.076
0
LINE
8
FFab
62
5
10
138.7565
20
-142.076
11
139.1315
21
-142.076
0
LINE
8
FFab
62
5
10
132.244
20
-135.1885
11
132.244
21
-135.5635
0
CIRCLE
8
FFab
62
5
10
133.27732
20
-143.66407
40
0.270616
0
LINE
8
FCrtYd
62
7
10
178.933748
20
-181.387116
11
181.643748
21
-181.387116
0
LINE
8
FCrtYd
62
7
10
181.643748
20
-166.677116
11
178.933748
21
-166.677116
0
LINE
8
FCrtYd
62
7
10
178.933748
20
-166.677116
11
178.933748
21
-167.282116
0
LINE
8
FCrtYd
62
7
10
187.038748
20
-180.782116
11
187.038748
21
-167.282116
0
LINE
8
FCrtYd
62
7
10
173.538748
20
-167.282116
11
173.538748
21
-180.782116
0
LINE
8
FCrtYd
62
7
10
180.638748
20
-174.032116
11
179.938748
21
-174.032116
0
LINE
8
FCrtYd
62
7
10
181.643748
20
-181.387116
11
181.643748
21
-180.782116
0
LINE
8
FCrtYd
62
7
10
181.643748
20
-167.282116
11
181.643748
21
-166.677116
0
LINE
8
FCrtYd
62
7
10
180.288748
20
-173.682116
11
180.288748
21
-174.382116
0
LINE
8
FCrtYd
62
7
10
178.933748
20
-180.782116
11
178.933748
21
-181.387116
0
LINE
8
FCrtYd
62
7
10
187.038748
20
-167.282116
11
181.643748
21
-167.282116
0
LINE
8
FCrtYd
62
7
10
181.643748
20
-180.782116
11
187.038748
21
-180.782116
0
LINE
8
FCrtYd
62
7
10
178.933748
20
-167.282116
11
173.538748
21
-167.282116
0
LINE
8
FCrtYd
62
7
10
173.538748
20
-180.782116
11
178.933748
21
-180.782116
0
CIRCLE
8
FCrtYd
62
7
10
180.288748
20
-174.032116
40
0.25
0
LINE
8
FFab
62
5
10
173.738748
20
-167.482116
11
186.838748
21
-167.482116
0
LINE
8
FFab
62
5
10
173.853508
20
-177.497246
11
176.891118
21
-180.534866
0
LINE
8
FFab
62
5
10
186.838748
20
-180.582116
11
173.738748
21
-180.582116
0
LINE
8
FFab
62
5
10
173.718498
20
-177.497246
11
173.853508
21
-177.497246
0
LINE
8
FFab
62
5
10
186.838748
20
-167.482116
11
186.838748
21
-180.582116
0
LINE
8
FFab
62
5
10
173.738748
20
-180.582116
11
173.738748
21
-167.482116
0
LINE
8
0
10
180.823748
20
-184.092116
11
180.803748
21
-187.892116
0
LINE
8
0
10
179.513748
20
-184.082116
11
180.823748
21
-184.092116
0
LINE
8
0
10
180.803748
20
-187.892116
11
176.933748
21
-187.892116
0
LINE
8
FCrtYd
62
7
10
174.548748
20
-155.132116
11
165.548748
21
-155.132116
0
LINE
8
FCrtYd
62
7
10
165.548748
20
-155.132116
11
165.548748
21
-147.632116
0
LINE
8
FCrtYd
62
7
10
166.048748
20
-147.132116
11
174.548748
21
-147.132116
0
LINE
8
FCrtYd
62
7
10
174.548748
20
-147.132116
11
174.548748
21
-155.132116
0
LINE
8
FCrtYd
62
7
10
165.548748
20
-147.632116
11
166.048748
21
-147.132116
0
LINE
8
0
10
136.765
20
-126.865
11
138.035
21
-125.595
0
LINE
8
0
10
136.765
20
-125.595
11
141.845
21
-125.595
0
LINE
8
0
10
140.575
20
-126.865
11
141.845
21
-125.595
0
LINE
8
0
10
137.4
20
-126.865
11
138.67
21
-125.595
0
LINE
8
0
10
138.035
20
-126.865
11
139.305
21
-125.595
0
LINE
8
0
10
136.765
20
-126.865
11
136.765
21
-125.595
0
LINE
8
0
10
141.845
20
-126.865
11
136.765
21
-126.865
0
LINE
8
0
10
136.765
20
-126.23
11
137.4
21
-125.595
0
LINE
8
0
10
139.305
20
-126.865
11
140.575
21
-125.595
0
LINE
8
0
10
141.845
20
-125.595
11
141.845
21
-126.865
0
LINE
8
0
10
141.21
20
-126.865
11
141.845
21
-126.23
0
LINE
8
0
10
139.94
20
-126.865
11
141.21
21
-125.595
0
LINE
8
0
10
138.67
20
-126.865
11
139.94
21
-125.595
0
LINE
8
FCrtYd
62
7
10
144.055
20
-121.98
11
144.055
21
-130.48
0
LINE
8
FCrtYd
62
7
10
133.805
20
-130.48
11
133.805
21
-121.98
0
LINE
8
FCrtYd
62
7
10
144.055
20
-130.48
11
133.805
21
-130.48
0
LINE
8
FCrtYd
62
7
10
133.805
20
-121.98
11
144.055
21
-121.98
0
LINE
8
FCrtYd
62
7
10
166.306248
20
-110.637116
11
166.306248
21
-118.047116
0
LINE
8
FCrtYd
62
7
10
171.711248
20
-110.637116
11
166.306248
21
-110.637116
0
LINE
8
FCrtYd
62
7
10
171.711248
20
-110.637116
11
171.711248
21
-118.047116
0
LINE
8
FCrtYd
62
7
10
171.711248
20
-118.047116
11
166.306248
21
-118.047116
0
LINE
8
FFab
62
5
10
166.556248
20
-112.392116
11
166.556248
21
-116.292116
0
LINE
8
FFab
62
5
10
171.461248
20
-116.292116
11
166.556248
21
-116.292116
0
LINE
8
FFab
62
5
10
171.461248
20
-112.392116
11
166.556248
21
-112.392116
0
LINE
8
FFab
62
5
10
171.461248
20
-112.392116
11
171.461248
21
-116.292116
0
CIRCLE
8
FFab
62
5
10
171.313748
20
-110.302116
40
0.1
0
LINE
8
0
10
74.5
20
-141.971
11
83.665
21
-153.446
0
LINE
8
0
10
74.5
20
-139.971
11
85.28
21
-153.446
0
LINE
8
0
10
85.28
20
-147.446
11
74.5
21
-133.971
0
LINE
8
0
10
74.5
20
-151.971
11
75.59
21
-153.446
0
LINE
8
0
10
85.28
20
-153.446
11
74.5
21
-153.446
0
LINE
8
0
10
74.5
20
-129.971
11
85.28
21
-143.446
0
LINE
8
0
10
80.435
20
-125.446
11
85.28
21
-131.446
0
LINE
8
0
10
82.05
20
-125.446
11
85.28
21
-129.446
0
LINE
8
0
10
85.28
20
-125.446
11
74.5
21
-125.446
0
LINE
8
0
10
77.205
20
-125.446
11
85.28
21
-135.446
0
LINE
8
0
10
74.5
20
-137.971
11
85.28
21
-151.446
0
LINE
8
0
10
74.5
20
-131.971
11
85.28
21
-145.446
0
LINE
8
0
10
83.665
20
-125.446
11
85.28
21
-127.446
0
LINE
8
0
10
74.5
20
-149.971
11
77.205
21
-153.446
0
LINE
8
0
10
74.5
20
-145.971
11
80.435
21
-153.446
0
LINE
8
0
10
74.5
20
-125.446
11
74.5
21
-153.446
0
LINE
8
0
10
74.5
20
-125.971
11
85.28
21
-139.446
0
LINE
8
0
10
74.5
20
-127.971
11
85.28
21
-141.446
0
LINE
8
0
10
78.82
20
-125.446
11
85.28
21
-133.446
0
LINE
8
0
10
74.5
20
-135.971
11
85.28
21
-149.446
0
LINE
8
0
10
74.5
20
-143.971
11
82.05
21
-153.446
0
LINE
8
0
10
74.5
20
-147.971
11
78.82
21
-153.446
0
LINE
8
0
10
75.59
20
-125.446
11
85.28
21
-137.446
0
LINE
8
0
10
85.28
20
-125.446
11
85.28
21
-153.446
0
LINE
8
Cmts
62
1
10
74.65
20
-131.046
11
74.85
21
-131.246
0
LINE
8
Cmts
62
1
10
74.65
20
-131.046
11
74.85
21
-130.846
0
LINE
8
Cmts
62
1
10
79.25
20
-131.046
11
79.05
21
-130.846
0
LINE
8
Cmts
62
1
10
81.375
20
-130.246
11
81.375
21
-125.646
0
LINE
8
Cmts
62
1
10
81.375
20
-125.646
11
81.575
21
-125.846
0
LINE
8
Cmts
62
1
10
81.375
20
-153.246
11
81.175
21
-153.046
0
LINE
8
Cmts
62
1
10
81.375
20
-153.246
11
81.575
21
-153.046
0
LINE
8
Cmts
62
1
10
81.375
20
-148.646
11
81.175
21
-148.846
0
LINE
8
Cmts
62
1
10
81.375
20
-148.646
11
81.575
21
-148.846
0
LINE
8
Cmts
62
1
10
81.375
20
-130.246
11
81.575
21
-130.046
0
LINE
8
Cmts
62
1
10
79.25
20
-131.046
11
74.65
21
-131.046
0
LINE
8
Cmts
62
1
10
81.375
20
-125.646
11
81.175
21
-125.846
0
LINE
8
Cmts
62
1
10
79.25
20
-131.046
11
79.05
21
-131.246
0
LINE
8
Cmts
62
1
10
81.375
20
-130.246
11
81.175
21
-130.046
0
LINE
8
Cmts
62
1
10
81.375
20
-153.246
11
81.375
21
-148.646
0
LINE
8
FCrtYd
62
7
10
74.25
20
-153.696
11
85.53
21
-153.696
0
LINE
8
FCrtYd
62
7
10
85.53
20
-129.696
11
105.75
21
-129.696
0
LINE
8
FCrtYd
62
7
10
74.25
20
-125.196
11
85.53
21
-125.196
0
LINE
8
FCrtYd
62
7
10
74.25
20
-153.696
11
74.25
21
-125.196
0
LINE
8
FCrtYd
62
7
10
85.53
20
-129.696
11
85.53
21
-125.196
0
LINE
8
FCrtYd
62
7
10
105.75
20
-149.196
11
105.75
21
-129.696
0
LINE
8
FCrtYd
62
7
10
85.53
20
-153.696
11
85.53
21
-149.196
0
LINE
8
FCrtYd
62
7
10
105.75
20
-149.196
11
85.53
21
-149.196
0
LINE
8
FFab
62
5
10
105.01
20
-130.446
11
79.505
21
-130.446
0
LINE
8
FFab
62
5
10
86.23
20
-148.446
11
105.01
21
-148.446
0
LINE
8
FFab
62
5
10
85.73
20
-147.946
11
85.23
21
-148.446
0
LINE
8
FFab
62
5
10
105.01
20
-148.446
11
105.01
21
-130.446
0
LINE
8
FFab
62
5
10
79.505
20
-148.446
11
79.505
21
-130.446
0
LINE
8
FFab
62
5
10
79.505
20
-148.446
11
85.23
21
-148.446
0
LINE
8
FFab
62
5
10
86.23
20
-148.446
11
85.73
21
-147.946
0
LINE
8
FCrtYd
62
7
10
79.582
20
-175.54
11
79.782
21
-175.54
0
LINE
8
FCrtYd
62
7
10
79.782
20
-172.44
11
79.582
21
-172.44
0
LINE
8
FCrtYd
62
7
10
77.882
20
-173.99
11
78.582
21
-173.99
0
LINE
8
FCrtYd
62
7
10
79.582
20
-176.24
11
79.582
21
-175.54
0
LINE
8
FCrtYd
62
7
10
76.882
20
-172.44
11
76.682
21
-172.44
0
LINE
8
FCrtYd
62
7
10
75.982
20
-173.24
11
75.982
21
-174.74
0
LINE
8
FCrtYd
62
7
10
79.582
20
-172.44
11
79.582
21
-171.74
0
LINE
8
FCrtYd
62
7
10
79.782
20
-175.54
11
79.782
21
-174.74
0
LINE
8
FCrtYd
62
7
10
79.582
20
-171.74
11
76.882
21
-171.74
0
LINE
8
FCrtYd
62
7
10
75.982
20
-174.74
11
76.682
21
-174.74
0
LINE
8
FCrtYd
62
7
10
76.682
20
-172.44
11
76.682
21
-173.24
0
LINE
8
FCrtYd
62
7
10
76.882
20
-176.24
11
79.582
21
-176.24
0
LINE
8
FCrtYd
62
7
10
76.682
20
-175.54
11
76.882
21
-175.54
0
LINE
8
FCrtYd
62
7
10
76.682
20
-174.74
11
76.682
21
-175.54
0
LINE
8
FCrtYd
62
7
10
76.882
20
-171.74
11
76.882
21
-172.44
0
LINE
8
FCrtYd
62
7
10
80.482
20
-173.24
11
79.782
21
-173.24
0
LINE
8
FCrtYd
62
7
10
76.882
20
-175.54
11
76.882
21
-176.24
0
LINE
8
FCrtYd
62
7
10
80.482
20
-174.74
11
80.482
21
-173.24
0
LINE
8
FCrtYd
62
7
10
78.232
20
-173.64
11
78.232
21
-174.34
0
LINE
8
FCrtYd
62
7
10
79.782
20
-173.24
11
79.782
21
-172.44
0
LINE
8
FCrtYd
62
7
10
76.682
20
-173.24
11
75.982
21
-173.24
0
LINE
8
FCrtYd
62
7
10
79.782
20
-174.74
11
80.482
21
-174.74
0
CIRCLE
8
FCrtYd
62
7
10
78.232
20
-173.99
40
0.25
0
LINE
8
FFab
62
5
10
79.532
20
-174.67
11
79.532
21
-175.29
0
LINE
8
FFab
62
5
10
76.932
20
-172.69
11
79.532
21
-172.69
0
LINE
8
FFab
62
5
10
76.932
20
-175.29
11
76.932
21
-172.69
0
LINE
8
FFab
62
5
10
79.532
20
-173.31
11
79.532
21
-174.67
0
LINE
8
FFab
62
5
10
78.864178
20
-175.29198
11
79.50388
21
-174.652281
0
LINE
8
FFab
62
5
10
79.532
20
-175.29
11
76.932
21
-175.29
0
LINE
8
FFab
62
5
10
79.532
20
-172.69
11
79.532
21
-173.31
0
LINE
8
FFab
62
5
10
78.803972
20
-175.29198
11
78.864178
21
-175.29198
0
CIRCLE
8
FCrtYd
62
7
10
75.858748
20
-197.332116
40
1.75
0
CIRCLE
8
FFab
62
5
10
75.858748
20
-197.332116
40
1.5
0
LINE
8
0
10
95.25
20
-122.682
11
97.79
21
-122.682
0
LINE
8
0
10
97.155
20
-123.952
11
97.79
21
-123.317
0
LINE
8
0
10
95.25
20
-123.952
11
95.25
21
-122.682
0
LINE
8
0
10
95.25
20
-123.952
11
96.52
21
-122.682
0
LINE
8
0
10
97.79
20
-123.952
11
95.25
21
-123.952
0
LINE
8
0
10
95.25
20
-123.317
11
95.885
21
-122.682
0
LINE
8
0
10
95.885
20
-123.952
11
97.155
21
-122.682
0
LINE
8
0
10
97.79
20
-122.682
11
97.79
21
-123.952
0
LINE
8
0
10
96.52
20
-123.952
11
97.79
21
-122.682
0
LINE
8
FCrtYd
62
7
10
93.02
20
-121.317
11
100.02
21
-121.317
0
LINE
8
FCrtYd
62
7
10
93.02
20
-125.317
11
93.02
21
-121.317
0
LINE
8
FCrtYd
62
7
10
100.02
20
-125.317
11
93.02
21
-125.317
0
LINE
8
FCrtYd
62
7
10
100.02
20
-121.317
11
100.02
21
-125.317
0
CIRCLE
8
FCrtYd
62
7
10
188.268748
20
-197.302116
40
1.75
0
CIRCLE
8
FFab
62
5
10
188.268748
20
-197.302116
40
1.5
0
LINE
8
FCrtYd
62
7
10
173.048748
20
-100.972116
11
173.048748
21
-104.812116
0
LINE
8
FCrtYd
62
7
10
165.048748
20
-100.972116
11
173.048748
21
-100.972116
0
LINE
8
FCrtYd
62
7
10
165.048748
20
-104.812116
11
165.048748
21
-100.972116
0
LINE
8
FCrtYd
62
7
10
173.048748
20
-104.812116
11
165.048748
21
-104.812116
0
LINE
8
FFab
62
5
10
165.898748
20
-101.292116
11
172.198748
21
-101.292116
0
LINE
8
FFab
62
5
10
165.898748
20
-104.492116
11
165.898748
21
-101.292116
0
LINE
8
FFab
62
5
10
172.198748
20
-104.492116
11
165.898748
21
-104.492116
0
LINE
8
FFab
62
5
10
172.198748
20
-101.292116
11
172.198748
21
-104.492116
0
LINE
8
FCrtYd
62
7
10
75.768748
20
-101.722116
11
76.468748
21
-101.722116
0
LINE
8
FCrtYd
62
7
10
79.368748
20
-102.522116
11
79.568748
21
-102.522116
0
LINE
8
FCrtYd
62
7
10
78.018748
20
-100.622116
11
78.018748
21
-101.322116
0
LINE
8
FCrtYd
62
7
10
75.768748
20
-100.222116
11
75.768748
21
-101.722116
0
LINE
8
FCrtYd
62
7
10
76.468748
20
-102.522116
11
76.668748
21
-102.522116
0
LINE
8
FCrtYd
62
7
10
76.668748
20
-98.722116
11
76.668748
21
-99.422116
0
LINE
8
FCrtYd
62
7
10
80.268748
20
-100.222116
11
79.568748
21
-100.222116
0
LINE
8
FCrtYd
62
7
10
79.568748
20
-99.422116
11
79.368748
21
-99.422116
0
LINE
8
FCrtYd
62
7
10
79.368748
20
-103.222116
11
79.368748
21
-102.522116
0
LINE
8
FCrtYd
62
7
10
80.268748
20
-101.722116
11
80.268748
21
-100.222116
0
LINE
8
FCrtYd
62
7
10
76.468748
20
-99.422116
11
76.468748
21
-100.222116
0
LINE
8
FCrtYd
62
7
10
79.568748
20
-101.722116
11
80.268748
21
-101.722116
0
LINE
8
FCrtYd
62
7
10
76.668748
20
-103.222116
11
79.368748
21
-103.222116
0
LINE
8
FCrtYd
62
7
10
79.368748
20
-99.422116
11
79.368748
21
-98.722116
0
LINE
8
FCrtYd
62
7
10
76.468748
20
-100.222116
11
75.768748
21
-100.222116
0
LINE
8
FCrtYd
62
7
10
79.368748
20
-98.722116
11
76.668748
21
-98.722116
0
LINE
8
FCrtYd
62
7
10
79.568748
20
-102.522116
11
79.568748
21
-101.722116
0
LINE
8
FCrtYd
62
7
10
76.668748
20
-102.522116
11
76.668748
21
-103.222116
0
LINE
8
FCrtYd
62
7
10
76.468748
20
-101.722116
11
76.468748
21
-102.522116
0
LINE
8
FCrtYd
62
7
10
77.668748
20
-100.972116
11
78.368748
21
-100.972116
0
LINE
8
FCrtYd
62
7
10
79.568748
20
-100.222116
11
79.568748
21
-99.422116
0
LINE
8
FCrtYd
62
7
10
76.668748
20
-99.422116
11
76.468748
21
-99.422116
0
CIRCLE
8
FCrtYd
62
7
10
78.018748
20
-100.972116
40
0.25
0
LINE
8
FFab
62
5
10
79.318748
20
-100.292116
11
79.318748
21
-101.652116
0
LINE
8
FFab
62
5
10
79.318748
20
-102.272116
11
76.718748
21
-102.272116
0
LINE
8
FFab
62
5
10
76.718748
20
-99.672116
11
79.318748
21
-99.672116
0
LINE
8
FFab
62
5
10
78.650926
20
-102.274096
11
79.290628
21
-101.634397
0
LINE
8
FFab
62
5
10
76.718748
20
-102.272116
11
76.718748
21
-99.672116
0
LINE
8
FFab
62
5
10
78.59072
20
-102.274096
11
78.650926
21
-102.274096
0
LINE
8
FFab
62
5
10
79.318748
20
-101.652116
11
79.318748
21
-102.272116
0
LINE
8
FFab
62
5
10
79.318748
20
-99.672116
11
79.318748
21
-100.292116
0
LINE
8
FCrtYd
62
7
10
133.208748
20
-85.737116
11
133.208748
21
-102.807116
0
LINE
8
FCrtYd
62
7
10
107.988748
20
-102.807116
11
107.988748
21
-85.737116
0
LINE
8
FCrtYd
62
7
10
133.208748
20
-102.807116
11
107.988748
21
-102.807116
0
LINE
8
FCrtYd
62
7
10
107.988748
20
-85.737116
11
133.208748
21
-85.737116
0
LINE
8
FFab
62
5
10
112.098748
20
-86.737116
11
129.098748
21
-86.737116
0
LINE
8
FFab
62
5
10
129.098748
20
-101.807116
11
112.098748
21
-101.807116
0
LINE
8
FFab
62
5
10
129.098748
20
-86.737116
11
129.098748
21
-101.807116
0
LINE
8
FFab
62
5
10
112.098748
20
-101.807116
11
112.098748
21
-86.737116
0
LINE
8
FCrtYd
62
7
10
102.607344
20
-109.012116
11
103.107344
21
-109.012116
0
LINE
8
FCrtYd
62
7
10
102.607344
20
-98.662116
11
92.407344
21
-98.662116
0
LINE
8
FCrtYd
62
7
10
92.407344
20
-109.262116
11
102.607344
21
-109.262116
0
LINE
8
FCrtYd
62
7
10
92.407344
20
-98.912116
11
91.907344
21
-98.912116
0
LINE
8
FCrtYd
62
7
10
103.107344
20
-109.012116
11
103.107344
21
-98.912116
0
LINE
8
FCrtYd
62
7
10
103.107344
20
-98.912116
11
102.607344
21
-98.912116
0
LINE
8
FCrtYd
62
7
10
97.507344
20
-104.312116
11
97.507344
21
-103.612116
0
LINE
8
FCrtYd
62
7
10
102.607344
20
-109.262116
11
102.607344
21
-109.012116
0
LINE
8
FCrtYd
62
7
10
91.907344
20
-109.012116
11
92.407344
21
-109.012116
0
LINE
8
FCrtYd
62
7
10
92.407344
20
-109.012116
11
92.407344
21
-109.262116
0
LINE
8
FCrtYd
62
7
10
92.407344
20
-98.662116
11
92.407344
21
-98.912116
0
LINE
8
FCrtYd
62
7
10
91.907344
20
-98.912116
11
91.907344
21
-109.012116
0
LINE
8
FCrtYd
62
7
10
102.607344
20
-98.912116
11
102.607344
21
-98.662116
0
LINE
8
FCrtYd
62
7
10
97.157344
20
-103.962116
11
97.857344
21
-103.962116
0
CIRCLE
8
FCrtYd
62
7
10
97.507344
20
-103.962116
40
0.25
0
LINE
8
FFab
62
5
10
92.657344
20
-99.162116
11
93.657344
21
-99.162116
0
LINE
8
FFab
62
5
10
102.357344
20
-104.662116
11
102.357344
21
-105.462116
0
LINE
8
FFab
62
5
10
101.357344
20
-100.262116
11
102.357344
21
-100.262116
0
LINE
8
FFab
62
5
10
102.357344
20
-106.862116
11
102.357344
21
-107.662116
0
LINE
8
FFab
62
5
10
102.357344
20
-103.262116
11
101.357344
21
-103.262116
0
LINE
8
FFab
62
5
10
102.357344
20
-103.562116
11
102.357344
21
-104.362116
0
LINE
8
FFab
62
5
10
93.657344
20
-101.062116
11
92.657344
21
-101.062116
0
LINE
8
FFab
62
5
10
92.657344
20
-107.662116
11
92.657344
21
-106.862116
0
LINE
8
FFab
62
5
10
101.357344
20
-101.362116
11
102.357344
21
-101.362116
0
LINE
8
FFab
62
5
10
101.357344
20
-103.262116
11
101.357344
21
-102.462116
0
LINE
8
FFab
62
5
10
101.357344
20
-107.662116
11
101.357344
21
-106.862116
0
LINE
8
FFab
62
5
10
93.657344
20
-104.362116
11
92.657344
21
-104.362116
0
LINE
8
FFab
62
5
10
92.657344
20
-103.262116
11
92.657344
21
-102.462116
0
LINE
8
FFab
62
5
10
92.657344
20
-105.762116
11
93.657344
21
-105.762116
0
LINE
8
FFab
62
5
10
102.357344
20
-99.162116
11
102.357344
21
-99.962116
0
LINE
8
FFab
62
5
10
93.657344
20
-103.262116
11
92.657344
21
-103.262116
0
LINE
8
FFab
62
5
10
101.357344
20
-108.762116
11
101.357344
21
-107.962116
0
LINE
8
FFab
62
5
10
93.657344
20
-99.162116
11
93.657344
21
-99.962116
0
LINE
8
FFab
62
5
10
101.357344
20
-106.862116
11
102.357344
21
-106.862116
0
LINE
8
FFab
62
5
10
102.407344
20
-98.862116
11
102.407344
21
-109.062116
0
LINE
8
FFab
62
5
10
102.357344
20
-105.462116
11
101.357344
21
-105.462116
0
LINE
8
FFab
62
5
10
92.657344
20
-106.862116
11
93.657344
21
-106.862116
0
LINE
8
FFab
62
5
10
102.357344
20
-106.562116
11
101.357344
21
-106.562116
0
LINE
8
FFab
62
5
10
93.657344
20
-102.162116
11
92.657344
21
-102.162116
0
LINE
8
FFab
62
5
10
93.657344
20
-107.962116
11
93.657344
21
-108.762116
0
LINE
8
FFab
62
5
10
92.657344
20
-102.462116
11
93.657344
21
-102.462116
0
LINE
8
FFab
62
5
10
102.357344
20
-109.012116
11
92.657344
21
-109.012116
0
LINE
8
FFab
62
5
10
92.607344
20
-109.062116
11
92.607344
21
-98.862116
0
LINE
8
FFab
62
5
10
102.357344
20
-101.062116
11
101.357344
21
-101.062116
0
LINE
8
FFab
62
5
10
93.657344
20
-106.562116
11
92.657344
21
-106.562116
0
LINE
8
FFab
62
5
10
92.657344
20
-104.362116
11
92.657344
21
-103.562116
0
LINE
8
FFab
62
5
10
102.357344
20
-102.162116
11
101.357344
21
-102.162116
0
LINE
8
FFab
62
5
10
92.657344
20
-105.462116
11
92.657344
21
-104.662116
0
LINE
8
FFab
62
5
10
101.357344
20
-99.162116
11
102.357344
21
-99.162116
0
LINE
8
FFab
62
5
10
93.657344
20
-101.362116
11
93.657344
21
-102.162116
0
LINE
8
FFab
62
5
10
102.357344
20
-107.962116
11
102.357344
21
-108.762116
0
LINE
8
FFab
62
5
10
93.657344
20
-105.762116
11
93.657344
21
-106.562116
0
LINE
8
FFab
62
5
10
92.657344
20
-104.662116
11
93.657344
21
-104.662116
0
LINE
8
FFab
62
5
10
93.657344
20
-104.662116
11
93.657344
21
-105.462116
0
LINE
8
FFab
62
5
10
102.357344
20
-105.762116
11
102.357344
21
-106.562116
0
LINE
8
FFab
62
5
10
92.657344
20
-99.962116
11
92.657344
21
-99.162116
0
LINE
8
FFab
62
5
10
92.657344
20
-106.562116
11
92.657344
21
-105.762116
0
LINE
8
FFab
62
5
10
101.357344
20
-101.062116
11
101.357344
21
-100.262116
0
LINE
8
FFab
62
5
10
92.657344
20
-109.012116
11
92.657344
21
-98.912116
0
LINE
8
FFab
62
5
10
92.657344
20
-107.962116
11
93.657344
21
-107.962116
0
LINE
8
FFab
62
5
10
101.357344
20
-104.662116
11
102.357344
21
-104.662116
0
LINE
8
FFab
62
5
10
92.657344
20
-101.062116
11
92.657344
21
-100.262116
0
LINE
8
FFab
62
5
10
101.357344
20
-99.962116
11
101.357344
21
-99.162116
0
LINE
8
FFab
62
5
10
93.657344
20
-106.862116
11
93.657344
21
-107.662116
0
LINE
8
FFab
62
5
10
93.657344
20
-100.262116
11
93.657344
21
-101.062116
0
LINE
8
FFab
62
5
10
93.657344
20
-105.462116
11
92.657344
21
-105.462116
0
LINE
8
FFab
62
5
10
102.357344
20
-107.662116
11
101.357344
21
-107.662116
0
LINE
8
FFab
62
5
10
101.357344
20
-107.962116
11
102.357344
21
-107.962116
0
LINE
8
FFab
62
5
10
102.357344
20
-98.912116
11
102.357344
21
-109.012116
0
LINE
8
FFab
62
5
10
101.357344
20
-102.462116
11
102.357344
21
-102.462116
0
LINE
8
FFab
62
5
10
92.657344
20
-108.762116
11
92.657344
21
-107.962116
0
LINE
8
FFab
62
5
10
93.657344
20
-108.762116
11
92.657344
21
-108.762116
0
LINE
8
FFab
62
5
10
93.657344
20
-102.462116
11
93.657344
21
-103.262116
0
LINE
8
FFab
62
5
10
101.357344
20
-103.562116
11
102.357344
21
-103.562116
0
LINE
8
FFab
62
5
10
92.657344
20
-98.912116
11
102.357344
21
-98.912116
0
LINE
8
FFab
62
5
10
101.357344
20
-104.362116
11
101.357344
21
-103.562116
0
LINE
8
FFab
62
5
10
101.357344
20
-105.762116
11
102.357344
21
-105.762116
0
LINE
8
FFab
62
5
10
102.357344
20
-101.362116
11
102.357344
21
-102.162116
0
LINE
8
FFab
62
5
10
102.357344
20
-100.262116
11
102.357344
21
-101.062116
0
LINE
8
FFab
62
5
10
101.357344
20
-105.462116
11
101.357344
21
-104.662116
0
LINE
8
FFab
62
5
10
93.657344
20
-107.662116
11
92.657344
21
-107.662116
0
LINE
8
FFab
62
5
10
93.657344
20
-103.562116
11
93.657344
21
-104.362116
0
LINE
8
FFab
62
5
10
102.407344
20
-98.862116
11
92.607344
21
-98.862116
0
LINE
8
FFab
62
5
10
92.657344
20
-101.362116
11
93.657344
21
-101.362116
0
LINE
8
FFab
62
5
10
101.357344
20
-106.562116
11
101.357344
21
-105.762116
0
LINE
8
FFab
62
5
10
102.357344
20
-104.362116
11
101.357344
21
-104.362116
0
LINE
8
FFab
62
5
10
102.357344
20
-102.462116
11
102.357344
21
-103.262116
0
LINE
8
FFab
62
5
10
92.657344
20
-100.262116
11
93.657344
21
-100.262116
0
LINE
8
FFab
62
5
10
93.657344
20
-99.962116
11
92.657344
21
-99.962116
0
LINE
8
FFab
62
5
10
102.357344
20
-108.762116
11
101.357344
21
-108.762116
0
LINE
8
FFab
62
5
10
92.657344
20
-102.162116
11
92.657344
21
-101.362116
0
LINE
8
FFab
62
5
10
92.657344
20
-103.562116
11
93.657344
21
-103.562116
0
LINE
8
FFab
62
5
10
102.407344
20
-109.062116
11
92.607344
21
-109.062116
0
LINE
8
FFab
62
5
10
102.357344
20
-99.962116
11
101.357344
21
-99.962116
0
LINE
8
FFab
62
5
10
101.357344
20
-102.162116
11
101.357344
21
-101.362116
0
CIRCLE
8
Edge
62
2
10
178.578747
20
-193.592116
40
1.75
0
LINE
8
Edge
62
2
10
73.928747
20
-199.342116
11
190.228747
21
-199.342116
0
LINE
8
Edge
62
2
10
190.228747
20
-199.342116
11
190.228747
21
-84.842116
0
CIRCLE
8
Edge
62
2
10
178.578747
20
-90.592116
40
1.75
0
LINE
8
Edge
62
2
10
73.928747
20
-84.842116
11
73.928747
21
-199.342116
0
CIRCLE
8
Edge
62
2
10
86.078748
20
-193.592116
40
1.75
0
CIRCLE
8
Edge
62
2
10
86.078748
20
-90.592116
40
1.75
0
LINE
8
Edge
62
2
10
190.228747
20
-84.842116
11
73.928747
21
-84.842116
0
ENDSEC
0
EOF
